<?xml version="1.0" encoding="UTF-8" standalone="no"?>
<!-- Created with Inkscape (http://www.inkscape.org/) -->

<svg
   xmlns:dc="http://purl.org/dc/elements/1.1/"
   xmlns:cc="http://creativecommons.org/ns#"
   xmlns:rdf="http://www.w3.org/1999/02/22-rdf-syntax-ns#"
   xmlns:svg="http://www.w3.org/2000/svg"
   xmlns="http://www.w3.org/2000/svg"
   xmlns:sodipodi="http://sodipodi.sourceforge.net/DTD/sodipodi-0.dtd"
   xmlns:inkscape="http://www.inkscape.org/namespaces/inkscape"
   version="1.1"
   id="svg2"
   xml:space="preserve"
   width="532.41895"
   height="218.67561"
   viewBox="0 0 532.41894 218.67561"
   sodipodi:docname="AppleSeq.svg"
   inkscape:version="0.92.3 (2405546, 2018-03-11)"><metadata
     id="metadata8"><rdf:RDF><cc:Work
         rdf:about=""><dc:format>image/svg+xml</dc:format><dc:type
           rdf:resource="http://purl.org/dc/dcmitype/StillImage" /><dc:title /></cc:Work></rdf:RDF></metadata><defs
     id="defs6"><clipPath
   clipPathUnits="userSpaceOnUse"
   id="clipPath22"><path
     d="M 0,0 H 423 V 264 H 0 Z"
     id="path20"
     inkscape:connector-curvature="0" /></clipPath><clipPath
   clipPathUnits="userSpaceOnUse"
   id="clipPath32"><path
     d="M 0,264 H 422.016 V 0.684 H 0 Z"
     id="path30"
     inkscape:connector-curvature="0" /></clipPath><clipPath
   clipPathUnits="userSpaceOnUse"
   id="clipPath44"><path
     d="m 308,209.316 h 102 v -139 H 308 Z"
     id="path42"
     inkscape:connector-curvature="0" /></clipPath><clipPath
   clipPathUnits="userSpaceOnUse"
   id="clipPath50"><path
     d="m 331.785,70.68 c -9.527,-0.286 -11.387,-0.149 -15.484,1.156 -3.742,1.191 -7.422,3.226 -7.699,4.254 -0.067,0.258 0.527,0.64 1.328,0.855 1.234,0.332 1.636,0.981 2.722,4.399 0.703,2.203 1.95,5.351 2.77,6.988 0.82,1.641 1.973,4.395 2.555,6.121 0.585,1.723 1.589,3.996 2.234,5.047 0.641,1.047 1.113,2.105 1.051,2.352 -0.067,0.242 0.398,1.699 1.031,3.238 0.633,1.539 1.09,3.039 1.012,3.328 -0.078,0.289 0.16,1.113 0.527,1.828 0.367,0.719 0.738,2.574 0.816,4.133 0.114,2.129 0.633,3.535 2.102,5.691 1.66,2.438 6.215,7.008 7.32,7.34 0.782,0.238 5.211,5.738 5.535,6.875 0.192,0.68 0.602,1.305 0.907,1.387 1.148,0.305 3.703,4.453 5.828,9.457 1.207,2.848 2.574,5.535 3.043,5.973 0.465,0.437 1.117,2.074 1.445,3.632 0.766,3.641 -0.394,8.368 -2.902,11.848 -0.953,1.316 -2.043,3.57 -2.43,5.008 l -0.699,2.613 2.41,2.668 c 1.324,1.469 2.848,3.551 3.383,4.629 1.351,2.711 4.332,11.277 5.754,16.547 1.672,6.199 1.726,6.277 5.582,8.039 8.664,3.965 16.898,2.633 22.824,-3.688 1.23,-1.312 2.918,-2.816 3.746,-3.343 0.828,-0.524 4.469,-3.301 8.09,-6.172 5.059,-4.012 6.937,-5.836 8.09,-7.864 2.008,-3.539 3.363,-8.632 2.582,-9.73 -0.449,-0.637 -0.281,-1.988 0.699,-5.645 0.711,-2.656 1.309,-6.292 1.336,-8.128 0.176,-11.508 -1.621,-24.493 -4.184,-30.231 -1.906,-4.273 -6.593,-12.527 -8.554,-15.066 -0.84,-1.094 -2.332,-3.266 -3.313,-4.832 -0.98,-1.567 -3.383,-4.641 -5.332,-6.836 -1.953,-2.192 -3.98,-4.664 -4.508,-5.492 -2.031,-3.2 -14.039,-13.485 -21.691,-18.579 -8.789,-5.851 -19.934,-9.5 -29.926,-9.8 z"
     id="path48"
     inkscape:connector-curvature="0" /></clipPath><clipPath
   clipPathUnits="userSpaceOnUse"
   id="clipPath60"><path
     d="M 272,38 H 423 V 233 H 272 Z"
     id="path58"
     inkscape:connector-curvature="0" /></clipPath><clipPath
   clipPathUnits="userSpaceOnUse"
   id="clipPath70"><path
     d="M 272,233 H 423 V 38 H 272 Z"
     id="path68"
     inkscape:connector-curvature="0" /></clipPath><clipPath
   clipPathUnits="userSpaceOnUse"
   id="clipPath76"><path
     d="M 272.801,200.254 394.465,232.852 437.93,70.633 316.266,38.035 Z"
     id="path74"
     inkscape:connector-curvature="0" /></clipPath><clipPath
   id="clipPath973"
   clipPathUnits="userSpaceOnUse"><path
     inkscape:connector-curvature="0"
     id="path971"
     d="m 216,108.995 h 62 v -23 h -62 z" /></clipPath><clipPath
   id="clipPath979"
   clipPathUnits="userSpaceOnUse"><path
     inkscape:connector-curvature="0"
     id="path977"
     d="M 237.867,108.061 216.336,86.444 h 61.094 v 21.617 z" /></clipPath><clipPath
   id="clipPath989"
   clipPathUnits="userSpaceOnUse"><path
     inkscape:connector-curvature="0"
     id="path987"
     d="m 216,86 h 62 v 23 h -62 z" /></clipPath><clipPath
   id="clipPath999"
   clipPathUnits="userSpaceOnUse"><path
     inkscape:connector-curvature="0"
     id="path997"
     d="M 237.867,108.066 216.336,86.449 h 61.094 v 21.617 z" /></clipPath><linearGradient
   id="linearGradient1013"
   spreadMethod="pad"
   gradientTransform="matrix(37.936525,-29.638943,-29.638943,-37.936525,233.15029,107.98614)"
   gradientUnits="userSpaceOnUse"
   y2="0"
   x2="1"
   y1="0"
   x1="0"><stop
     id="stop1003"
     offset="0"
     style="stop-opacity:1;stop-color:#0c542a" /><stop
     id="stop1005"
     offset="0.21472"
     style="stop-opacity:1;stop-color:#0c542a" /><stop
     id="stop1007"
     offset="0.57995"
     style="stop-opacity:1;stop-color:#25af64" /><stop
     id="stop1009"
     offset="0.84663"
     style="stop-opacity:1;stop-color:#25af64" /><stop
     id="stop1011"
     offset="1"
     style="stop-opacity:1;stop-color:#25af64" /></linearGradient>
</defs><sodipodi:namedview
     pagecolor="#ffffff"
     bordercolor="#666666"
     borderopacity="1"
     objecttolerance="10"
     gridtolerance="10"
     guidetolerance="10"
     inkscape:pageopacity="0"
     inkscape:pageshadow="2"
     inkscape:window-width="1920"
     inkscape:window-height="1012"
     id="namedview4"
     showgrid="false"
     inkscape:zoom="1.4142136"
     inkscape:cx="144.43292"
     inkscape:cy="92.846539"
     inkscape:window-x="0"
     inkscape:window-y="0"
     inkscape:window-maximized="1"
     inkscape:current-layer="g10"
     fit-margin-top="0"
     fit-margin-left="0"
     fit-margin-right="0"
     fit-margin-bottom="0" /><g
     id="g10"
     inkscape:groupmode="layer"
     inkscape:label="AppleSeq"
     transform="matrix(1.3333333,0,0,-1.3333333,-3.9146675,305.69986)"><g
       id="g24"
       transform="translate(0,-0.683655)" /><path
       inkscape:connector-curvature="0"
       id="path1415"
       style="fill:#a0918f;fill-opacity:1;fill-rule:nonzero;stroke:none;stroke-width:0.61473632"
       d="m 379.15603,229.2749 c 0,-0.0215 0,-0.043 0.005,-0.0651 -0.86923,0 -1.73662,-0.002 -2.60586,-0.002 0.005,0.0141 0.0123,0.0308 0.0148,0.0455 0,0.007 -0.007,0.0141 -0.0123,0.0215 h 2.60095 z" /><g
       id="g1278"
       transform="matrix(0.83101763,0,0,0.83101763,1.482069,-15.254948)"><path
         sodipodi:nodetypes="cccccccccccccccccccccccccccccc"
         inkscape:connector-curvature="0"
         id="path943"
         d="m 97.244112,224.06495 c -0.690066,-0.007 -1.37988,-0.0246 -2.069687,-0.052 -3.207505,-0.12723 -6.404133,-0.43983 -9.576875,-0.96874 -0.09765,-0.014 -0.195269,-0.025 -0.293653,-0.0368 1.005305,-0.56293 2.056626,-1.04104 3.044922,-1.63948 2.393054,-1.44175 3.864256,-3.59434 4.829612,-6.15161 0.147216,-0.38985 0.30012,-0.77731 0.409609,-1.19306 -0.56073,0.47936 -1.106689,0.95115 -1.678503,1.39352 -2.205165,1.71028 -4.690139,2.87698 -7.296982,3.81645 -0.67316,0.24263 -1.343126,0.4945 -2.01333,0.7401 -1.317477,0.40168 -2.63876,0.80653 -3.956232,1.20821 -0.898783,0.29738 -1.829562,0.50185 -2.704671,0.86581 -1.803486,-0.0688 -3.605569,-0.11184 -5.406092,-0.21023 -4.547915,-0.24855 -9.062175,-0.77226 -13.454006,-2.035 -33.620527,-7.29384 -51.9335099,-80.79304 0.935144,-121.351543 1.921843,-0.618419 3.881534,-1.07763 5.881798,-1.363171 1.441748,-0.205644 2.880733,-0.280864 4.322486,-0.04117 2.170396,0.358037 3.996606,1.389552 5.556716,2.914892 0.927633,0.904702 1.81745,1.849782 2.7621,2.740432 1.254595,1.18728 2.745194,1.78819 4.499119,1.66984 1.367038,-0.0925 2.635072,-0.51185 3.863042,-1.08145 2.245105,-1.03711 4.303651,-2.43762 6.617557,-3.336406 1.523123,-0.589575 3.092198,-0.956522 4.727761,-1.000168 0.774507,-0.01704 1.533531,0.117951 2.293983,0.248147 2.80287,0.474175 5.57752,1.075727 8.29606,1.904977 2.84651,0.86993 5.6199,1.92746 8.2408,3.37217 45.43655,20.90126 34.51089,103.55326 -2.21922,117.22301 -3.03959,1.12367 -6.18633,1.75951 -9.40567,2.09461 -2.06498,0.21416 -4.135613,0.29009 -6.205788,0.26873 z"
         style="fill:#22ae63;fill-opacity:1;fill-rule:nonzero;stroke:none;stroke-width:0.73973912" /><path
         d="m 105.52807,256.6768 c 0,-0.0259 0,-0.0518 0.006,-0.0784 -1.04599,0 -2.08976,-0.002 -3.13575,-0.002 0.006,0.017 0.0148,0.037 0.0178,0.0547 0,0.009 -0.009,0.017 -0.0148,0.0259 h 3.12984 z"
         style="fill:#a0918f;fill-opacity:1;fill-rule:nonzero;stroke:none;stroke-width:0.73973918"
         id="path947"
         inkscape:connector-curvature="0" /><path
         d="m 102.3901,256.59617 c 1.04599,0 2.09198,0.002 3.13501,0.002 2.54249,-0.1154 5.03097,-0.54297 7.44104,-1.36926 1.8634,-0.63839 2.27988,-1.85822 1.15547,-3.47308 -0.80039,-1.15325 -1.90704,-1.98546 -3.05734,-2.757 -1.49945,-1.00827 -3.1032,-1.81458 -4.79351,-2.45002 -1.76871,-0.66798 -3.45606,-0.0148 -4.52794,1.74209 -0.33806,0.5548 -0.59845,1.14733 -0.77451,1.77167 -0.0547,0.18494 -0.13315,0.26853 -0.33214,0.30329 -3.933195,0.6961 -7.400352,-0.21082 -10.313442,-2.99668 -2.369385,-2.271 -3.77341,-5.11456 -4.753564,-8.19187 -0.886947,-2.77698 -1.323393,-5.63237 -1.461725,-8.53881 -0.124276,-2.58613 0.04882,-5.15228 0.447543,-7.7066 0.08137,-0.43645 0.184934,-0.87289 0.231538,-1.3123 0.05474,-0.54593 -0.104303,-1.0201 -0.577736,-1.3552 -0.494146,-0.34916 -1.057827,-0.2885 -1.615591,-0.29738 l -3.953166,1.208 c -0.0089,0.31513 -0.01701,0.62656 -0.02589,0.93873 0.01997,1.36408 0.02589,2.73111 0.101345,4.09445 0.297375,5.40676 1.112567,10.70329 3.20455,15.74313 1.557151,3.74752 3.756395,7.03566 6.912122,9.63658 2.591307,2.13859 5.548041,3.54261 8.807332,4.326 1.56011,0.37579 3.146854,0.60363 4.750604,0.68204"
         style="fill:#3f2b29;fill-opacity:1;fill-rule:nonzero;stroke:none;stroke-width:0.73973918"
         id="path953"
         inkscape:connector-curvature="0" /><path
         d="m 82.596162,219.97316 c 0.554805,0.008 1.120705,-0.0525 1.614851,0.29738 0.471214,0.3351 0.633217,0.81223 0.578476,1.3552 -0.0466,0.4394 -0.153126,0.87585 -0.231538,1.3123 0.245593,0.0229 0.494145,0.0459 0.742698,0.0688 1.005305,-0.56294 2.057214,-1.04007 3.045506,-1.63556 2.393056,-1.44471 3.863657,-3.59735 4.829014,-6.15463 0.147208,-0.38984 0.297375,-0.77747 0.409816,-1.1932 -0.557764,0.47935 -1.106647,0.95056 -1.678466,1.39293 -2.205162,1.71028 -4.692905,2.87758 -7.296047,3.81705 -0.673902,0.24264 -1.344106,0.49415 -2.01431,0.73974"
         style="fill:#386e35;fill-opacity:1;fill-rule:nonzero;stroke:none;stroke-width:0.73973918"
         id="path955"
         inkscape:connector-curvature="0" /><path
         d="m 78.614146,222.11693 c 0.0089,-0.31217 0.01701,-0.62434 0.02293,-0.93577 -0.898783,0.29441 -1.825676,0.49932 -2.704486,0.86401 0.895824,0.0259 1.788689,0.0488 2.684513,0.0718"
         style="fill:#386e35;fill-opacity:1;fill-rule:nonzero;stroke:none;stroke-width:0.73973918"
         id="path957"
         inkscape:connector-curvature="0" /><path
         inkscape:connector-curvature="0"
         id="path1179"
         d="m 129.66595,177.15372 c 3.03652,3.75693 2.07108,15.76628 -1.87449,23.3173 -3.61152,6.91175 -10.3768,11.32118 -12.78963,8.33592 -1.67898,-2.07732 -1.03785,-3.89947 2.22897,-6.33483 5.1617,-3.84797 7.89397,-11.50404 7.08153,-19.84312 -0.26107,-2.67976 -0.15713,-5.18524 0.23097,-5.56773 1.39316,-1.373 3.97587,-1.32638 5.12265,0.0925 z"
         style="fill:#ffffff;stroke-width:0.75" /><path
         inkscape:connector-curvature="0"
         id="path1177"
         d="m 113.13722,209.38207 c 1.36817,1.47519 0.52467,3.81401 -1.64896,4.57218 -2.97858,1.03894 -5.48065,-1.86118 -3.77295,-4.3732 1.00495,-1.47829 4.1291,-1.59294 5.42191,-0.19898 z"
         style="fill:#ffffff;stroke-width:0.75" /></g><g
       id="g1501"
       transform="translate(-34.699895,-1.6288256)"><path
         style="fill:#22ae63;fill-opacity:1;fill-rule:nonzero;stroke:none;stroke-width:0.61473626"
         d="m 258.25094,172.57581 c -0.57346,-0.006 -1.1467,-0.0204 -1.71994,-0.0432 -2.6655,-0.10573 -5.32195,-0.36551 -7.95856,-0.80504 -0.0812,-0.0116 -0.16227,-0.0208 -0.24403,-0.0306 0.83543,-0.46781 1.70909,-0.86513 2.53039,-1.36244 1.98867,-1.19812 3.21126,-2.98696 4.01349,-5.1121 0.12234,-0.32397 0.2494,-0.64596 0.34039,-0.99145 -0.46598,0.39836 -0.91968,0.79042 -1.39486,1.15804 -1.83254,1.42127 -3.89759,2.39082 -6.06393,3.17154 -0.5594,0.20163 -1.11616,0.41093 -1.67311,0.61503 -1.09484,0.33381 -2.19285,0.67024 -3.2877,1.00405 -0.7469,0.24712 -1.52039,0.41704 -2.24763,0.7195 -1.49872,-0.0572 -2.99629,-0.0929 -4.49255,-0.17471 -3.7794,-0.20654 -7.53083,-0.64176 -11.18052,-1.69112 -27.93925,-6.06131 -43.15766,-67.14044 0.77712,-100.845268 1.59709,-0.513917 3.22562,-0.895529 4.88788,-1.132819 1.19812,-0.170894 2.39394,-0.233403 3.59206,-0.03421 1.80364,0.297535 3.32125,1.154742 4.61773,2.422327 0.77088,0.751823 1.51033,1.537201 2.29535,2.277347 1.04259,0.986651 2.28131,1.486017 3.73885,1.387666 1.13603,-0.07687 2.18979,-0.425356 3.21026,-0.898704 1.86572,-0.861856 3.57641,-2.025705 5.4993,-2.772612 1.26575,-0.489947 2.56968,-0.794886 3.92886,-0.831157 0.64363,-0.01416 1.27439,0.09802 1.90634,0.206215 2.32923,0.394047 4.63501,0.893948 6.89417,1.583069 2.3655,0.722927 4.67024,1.601753 6.84825,2.802333 37.75857,17.369315 28.67916,86.054583 -1.84421,97.414383 -2.52595,0.93379 -5.14095,1.46219 -7.81628,1.74066 -1.71603,0.17797 -3.43677,0.24107 -5.15712,0.22332 z"
         id="path1280"
         inkscape:connector-curvature="0"
         sodipodi:nodetypes="cccccccccccccccccccccccccccccc" /><path
         inkscape:connector-curvature="0"
         id="path1282"
         style="fill:#a0918f;fill-opacity:1;fill-rule:nonzero;stroke:none;stroke-width:0.61473632"
         d="m 265.13506,199.67683 c 0,-0.0215 0,-0.043 0.005,-0.0651 -0.86923,0 -1.73662,-0.002 -2.60586,-0.002 0.005,0.0141 0.0123,0.0308 0.0148,0.0455 0,0.007 -0.007,0.0141 -0.0123,0.0215 h 2.60095 z" /><path
         inkscape:connector-curvature="0"
         id="path1284"
         style="fill:#3f2b29;fill-opacity:1;fill-rule:nonzero;stroke:none;stroke-width:0.61473632"
         d="m 262.52735,199.60983 c 0.86923,0 1.73847,0.002 2.60525,0.002 2.11285,-0.0959 4.18082,-0.45122 6.18363,-1.13788 1.54852,-0.53051 1.89462,-1.54421 0.96022,-2.88619 -0.66514,-0.95837 -1.58479,-1.64995 -2.54071,-2.29112 -1.24606,-0.83789 -2.57881,-1.50794 -3.98349,-2.03601 -1.46983,-0.5551 -2.87204,-0.0123 -3.76279,1.44771 -0.28094,0.46105 -0.49733,0.95345 -0.64364,1.47229 -0.0455,0.15369 -0.11065,0.22315 -0.27601,0.25204 -3.26855,0.57847 -6.14982,-0.17519 -8.57065,-2.49029 -1.969,-1.88724 -3.13577,-4.25029 -3.9503,-6.80759 -0.73707,-2.30772 -1.09976,-4.6806 -1.21472,-7.0959 -0.10327,-2.14912 0.0406,-4.28164 0.37192,-6.40432 0.0676,-0.3627 0.15368,-0.72539 0.19241,-1.09055 0.0455,-0.45368 -0.0867,-0.84772 -0.48011,-1.12619 -0.41064,-0.29016 -0.87907,-0.23975 -1.34258,-0.24713 l -3.28515,1.00387 c -0.007,0.26188 -0.0141,0.52068 -0.0215,0.7801 0.0166,1.13357 0.0215,2.2696 0.0842,3.40256 0.24713,4.49311 0.92456,8.89462 2.66304,13.08282 1.29402,3.11425 3.12163,5.84676 5.74409,8.00817 2.15343,1.7772 4.61052,2.94397 7.31905,3.59498 1.29648,0.31229 2.61509,0.50163 3.94784,0.56679" /><path
         inkscape:connector-curvature="0"
         id="path1286"
         style="fill:#386e35;fill-opacity:1;fill-rule:nonzero;stroke:none;stroke-width:0.61473632"
         d="m 246.07824,169.17546 c 0.46105,0.007 0.93132,-0.0436 1.34197,0.24713 0.39158,0.27847 0.52621,0.67498 0.48072,1.12619 -0.0387,0.36515 -0.12725,0.72785 -0.19241,1.09055 0.20409,0.019 0.41064,0.0381 0.61719,0.0572 0.83543,-0.46781 1.70958,-0.86431 2.53087,-1.35918 1.98867,-1.20058 3.21077,-2.98946 4.013,-5.1146 0.12233,-0.32397 0.24712,-0.64609 0.34056,-0.99157 -0.46351,0.39835 -0.91964,0.78993 -1.39483,1.15755 -1.83253,1.42127 -3.89989,2.39132 -6.06315,3.17203 -0.56002,0.20164 -1.11697,0.41065 -1.67392,0.61474" /><path
         inkscape:connector-curvature="0"
         id="path1288"
         style="fill:#386e35;fill-opacity:1;fill-rule:nonzero;stroke:none;stroke-width:0.61473632"
         d="m 242.76911,170.95697 c 0.007,-0.25942 0.0141,-0.51884 0.0191,-0.77764 -0.74691,0.24466 -1.51717,0.41494 -2.24748,0.71801 0.74445,0.0215 1.48643,0.0405 2.23088,0.0597" /><path
         sodipodi:nodetypes="cccccccccccccccccc"
         inkscape:connector-curvature="0"
         id="path1307"
         d="m 256.50084,162.33746 c -6.42851,3.49133 -14.11073,4.82961 -19.78966,5.57251 -3.57078,-0.19514 -7.11513,-0.60634 -10.56336,-1.59777 -26.397,-5.72673 -40.77536,-63.43429 0.73422,-95.278609 1.50893,-0.485549 3.04757,-0.846096 4.61807,-1.070288 1.13199,-0.16146 2.2618,-0.220519 3.39378,-0.03232 1.70408,0.281111 3.13792,1.091 4.36283,2.288614 0.72833,0.710323 1.42696,1.452348 2.16865,2.151638 0.98504,0.932188 2.15538,1.403989 3.53246,1.311067 1.07333,-0.07263 2.06892,-0.401877 3.03306,-0.849096 1.76273,-0.814281 3.37899,-1.913886 5.19574,-2.619564 1.19588,-0.462902 2.42783,-0.751008 3.71198,-0.785277 0.60811,-0.01338 1.20405,0.09261 1.80111,0.194832 2.20066,0.372296 4.37916,0.844602 6.51362,1.495684 2.23492,0.683021 4.41244,1.513336 6.47022,2.647644 35.6743,16.410529 27.09607,81.304365 -1.74241,92.037105 -2.38652,0.88224 -4.85717,1.38148 -7.38482,1.64458 -5.93163,0.16464 -3.67091,-4.39341 -6.05549,-7.11075 z"
         style="fill:#ecdc86;fill-opacity:1;fill-rule:nonzero;stroke:none;stroke-width:0.5808028" /><path
         inkscape:connector-curvature="0"
         id="path1369"
         d="m 246.34902,97.16871 c -0.37168,0.883806 -2.99667,3.72094 -5.83332,6.30475 -5.71315,5.20389 -7.23544,8.21313 -6.47194,12.79354 0.67297,4.03729 2.44005,6.33176 7.74969,10.06265 3.24683,2.28143 4.90212,4.02268 5.5598,5.8485 l 0.93652,2.5999 0.90325,-3.06296 c 0.58022,-1.96756 2.4354,-4.71359 5.18744,-7.67843 5.1912,-5.59262 6.40261,-8.95423 4.86192,-13.49148 -1.22401,-3.6046 -2.28904,-4.94894 -6.56366,-8.285 -1.69817,-1.32531 -3.42367,-3.339493 -3.83445,-4.475951 -0.91824,-2.540432 -1.61361,-2.711961 -2.49525,-0.615519 z"
         style="fill:#b0a464;fill-opacity:1;stroke-width:0.75" /><path
         inkscape:connector-curvature="0"
         id="path1325"
         d="m 251.49683,110.24432 c -1.30999,0.97706 -2.40299,8.33046 -1.36737,9.19943 1.19291,1.00097 5.63091,-3.084 5.98375,-5.50776 0.33669,-2.31291 -0.62403,-4.01998 -2.40861,-4.27977 -0.65312,-0.0951 -1.6466,0.16957 -2.20775,0.5881 z"
         style="fill:#3f2b29;fill-opacity:1;stroke-width:0.75" /><path
         inkscape:connector-curvature="0"
         id="path1323"
         d="m 238.57491,110.37634 c -0.64295,0.29334 -1.12434,1.50775 -1.19776,3.02158 -0.0923,1.90168 0.44869,3.04871 2.17514,4.61239 1.26386,1.14468 2.67315,2.0065 3.13179,1.91514 1.32377,-0.2637 1.41425,-4.87612 0.14174,-7.22611 -1.27321,-2.35127 -2.59991,-3.07626 -4.25091,-2.323 z"
         style="fill:#3f2b29;fill-opacity:1;stroke-width:0.75" /></g><g
       id="g1470"
       transform="rotate(60,371.55347,120.31375)"><path
         id="path1413"
         transform="matrix(0.75000002,0,0,-0.75000002,0,263.31635)"
         d="m 472.75586,111.91016 c -1.99829,0.0763 -3.99522,0.12334 -5.99024,0.23242 -5.03919,0.27538 -10.04194,0.85476 -14.9082,2.2539 -37.25233,8.08175 -57.54259,89.52117 1.03711,134.46094 2.12945,0.68522 4.29928,1.19338 6.51563,1.50977 1.59749,0.22786 3.19352,0.31246 4.79101,0.0469 2.40486,-0.39671 4.42761,-1.54035 6.15625,-3.23047 1.02784,-1.00243 2.01386,-2.05024 3.06055,-3.03711 1.39012,-1.31553 3.04099,-1.98074 4.98437,-1.8496 0.8402,0.0569 1.64585,0.2322 2.42969,0.47851 v -128.3125 c -0.23197,-0.0858 -0.46536,-0.17088 -0.69726,-0.25586 -1.45979,-0.44508 -2.92302,-0.89281 -4.38282,-1.33789 -0.99586,-0.32949 -2.02644,-0.5557 -2.99609,-0.95898 z"
         style="fill:#22ae63;fill-opacity:1;fill-rule:nonzero;stroke:none;stroke-width:0.81964833"
         inkscape:connector-curvature="0" /><path
         id="path1423"
         transform="matrix(0.75000002,0,0,-0.75000002,0,263.31635)"
         d="m 467.64258,115.89453 c -4.76104,0.26019 -9.48635,0.80895 -14.08399,2.13086 -35.196,7.63564 -54.36759,84.57802 0.97852,127.03711 2.01191,0.6474 4.0642,1.12881 6.1582,1.42773 1.50932,0.21528 3.01609,0.29391 4.52539,0.043 2.27211,-0.37481 4.1832,-1.45396 5.81641,-3.05078 0.97111,-0.9471 1.9017,-1.93675 2.89062,-2.86914 1.31339,-1.24292 2.87484,-1.87194 4.71094,-1.74805 0.75765,0.0513 1.48466,0.20234 2.19336,0.41797 V 118.33984 c -4.70838,-1.20831 -9.3016,-1.93671 -13.18945,-2.44531 z"
         style="fill:#ecdc86;fill-opacity:1;fill-rule:nonzero;stroke:none;stroke-width:0.77440369"
         inkscape:connector-curvature="0" /><path
         id="path1425"
         transform="matrix(0.75000002,0,0,-0.75000002,0,263.31635)"
         d="m 480.83203,165.46484 c -1.20352,1.78853 -3.22992,3.63509 -6.41211,5.8711 -7.07952,4.97452 -9.43669,8.03296 -10.33398,13.41601 -1.018,6.10722 1.01137,10.12008 8.6289,17.0586 3.7822,3.44508 7.28373,7.22783 7.7793,8.40625 0.11558,0.27484 0.22659,0.49664 0.33789,0.71289 z"
         style="fill:#b0a464;fill-opacity:1;stroke-width:1"
         inkscape:connector-curvature="0" /><path
         style="fill:#3f2b29;fill-opacity:1;stroke-width:0.75"
         d="m 352.59588,118.86162 c -0.64295,0.29334 -1.12434,1.50775 -1.19776,3.02158 -0.0923,1.90168 0.44869,3.04871 2.17514,4.61239 1.26386,1.14468 2.67315,2.0065 3.13179,1.91514 1.32377,-0.2637 1.41425,-4.87612 0.14174,-7.22611 -1.27321,-2.35127 -2.59991,-3.07626 -4.25091,-2.323 z"
         id="path1429"
         inkscape:connector-curvature="0" /></g><g
       aria-label="Whole Genome"
       transform="matrix(0.75000002,0,0,-0.75000002,-5.0639995,240.61635)"
       style="font-style:normal;font-variant:normal;font-weight:normal;font-stretch:normal;font-size:26.66666603px;line-height:1.25;font-family:'Maven Pro';-inkscape-font-specification:'Maven Pro';letter-spacing:0px;word-spacing:0px;fill:#000000;fill-opacity:1;stroke:none"
       id="flowRoot1532"><path
         d="M 35.359999,16.535266 29.626666,34.321933 H 27.68 L 23.013333,19.575266 18.346666,34.321933 H 16.373333 L 10.666667,16.535266 h 2.026666 l 4.8,15.173333 4.56,-15.173333 h 1.92 l 4.64,15.173333 4.72,-15.173333 z"
         style=""
         id="path926" /><path
         d="m 44.121666,20.775266 q 2.506666,0 3.813333,1.413334 1.306667,1.386666 1.306667,4.239999 v 7.893334 h -1.92 v -7.893334 q 0,-1.866666 -0.88,-2.879999 -0.853334,-1.013334 -2.533333,-1.013334 -1.866667,0 -3.813334,1.066667 v 10.72 h -1.92 v -19.2 h 1.92 v 6.773333 q 0.986667,-0.533333 2.026667,-0.826666 1.066667,-0.293334 2,-0.293334 z"
         style=""
         id="path928" /><path
         d="m 58.954164,34.721933 q -3.066667,0 -4.613333,-1.813334 -1.52,-1.813333 -1.52,-5.2 0,-3.44 1.546666,-5.173333 1.573334,-1.76 4.533334,-1.76 3.12,0 4.639999,1.866667 1.52,1.84 1.52,5.066666 0,3.306667 -1.599999,5.173334 -1.6,1.84 -4.506667,1.84 z m -0.02667,-1.76 q 4.213334,0 4.213334,-5.253334 0,-2.506666 -0.986667,-3.84 -0.986667,-1.333333 -3.226667,-1.333333 -4.186666,0 -4.186666,5.173333 0,5.253334 4.186666,5.253334 z"
         style=""
         id="path930" /><path
         d="M 68.643747,34.321933 V 15.9486 h 1.92 v 18.373333 z"
         style=""
         id="path932" /><path
         d="m 80.014999,20.775266 q 3.039999,0 4.453333,1.973334 1.413333,1.973333 1.36,5.253333 h -9.706667 q 0,2.4 1.12,3.68 1.12,1.28 3.2,1.28 2.666667,0 4.56,-1.146667 v 1.973333 q -1.946667,0.933334 -4.666666,0.933334 -2.906667,0 -4.533334,-1.786667 -1.626666,-1.813333 -1.626666,-5.28 0,-3.386667 1.52,-5.12 1.546666,-1.76 4.32,-1.76 z m 0,1.76 q -1.76,0 -2.666667,0.826667 -0.906667,0.8 -1.146667,2.88 h 7.6 Q 83.668332,24.375266 82.734998,23.4686 81.828332,22.535266 80.014999,22.535266 Z"
         style=""
         id="path934" /><path
         d="m 104.84,34.588599 q -4.10667,0 -6.186667,-2.32 Q 96.6,29.948599 96.6,25.415266 q 0,-4.533333 2.053333,-6.826666 2.079997,-2.293334 6.186667,-2.293334 3.04,0 5.6,1.2 v 2 q -1.46667,-0.64 -2.77333,-1.013333 Q 106.36,18.1086 105.05333,18.1086 q -3.38666,0 -4.96,1.786666 -1.57333,1.76 -1.57333,5.52 0,3.786667 1.57333,5.573333 1.57334,1.76 4.96,1.76 2.13334,0 4.08,-0.64 V 27.041933 H 104.84 v -1.866667 h 6.21333 v 8.026667 q -2.88,1.386666 -6.21333,1.386666 z"
         style=""
         id="path936" /><path
         d="m 120.63999,20.775266 q 3.04,0 4.45334,1.973334 1.41333,1.973333 1.36,5.253333 h -9.70667 q 0,2.4 1.12,3.68 1.12,1.28 3.2,1.28 2.66667,0 4.56,-1.146667 v 1.973333 q -1.94667,0.933334 -4.66667,0.933334 -2.90666,0 -4.53333,-1.786667 -1.62667,-1.813333 -1.62667,-5.28 0,-3.386667 1.52,-5.12 1.54667,-1.76 4.32,-1.76 z m 0,1.76 q -1.76,0 -2.66666,0.826667 -0.90667,0.8 -1.14667,2.88 h 7.6 q -0.13333,-1.866667 -1.06667,-2.773333 -0.90666,-0.933334 -2.72,-0.933334 z"
         style=""
         id="path938" /><path
         d="m 130.05,22.081933 q 2.58666,-1.306667 5.62666,-1.306667 2.8,0 4.02667,1.226667 1.25333,1.226667 1.25333,3.653333 v 8.666667 h -1.92 v -8.666667 q 0,-3.146666 -3.57333,-3.146666 -1.65333,0 -3.49333,0.533333 v 11.28 h -1.92 z"
         style=""
         id="path940" /><path
         d="m 150.67291,34.721933 q -3.06667,0 -4.61334,-1.813334 -1.52,-1.813333 -1.52,-5.2 0,-3.44 1.54667,-5.173333 1.57333,-1.76 4.53333,-1.76 3.12,0 4.64,1.866667 1.52,1.84 1.52,5.066666 0,3.306667 -1.6,5.173334 -1.6,1.84 -4.50666,1.84 z m -0.0267,-1.76 q 4.21333,0 4.21333,-5.253334 0,-2.506666 -0.98666,-3.84 -0.98667,-1.333333 -3.22667,-1.333333 -4.18667,0 -4.18667,5.173333 0,5.253334 4.18667,5.253334 z"
         style=""
         id="path942" /><path
         d="m 174.36249,20.775266 q 2.8,0 4.02667,1.226667 1.25333,1.226667 1.25333,3.653333 v 8.666667 h -1.92 v -8.666667 q 0,-3.146666 -3.57333,-3.146666 -1.70667,0 -3.22667,0.906666 0.34667,0.933333 0.34667,2.24 v 8.666667 h -1.92 v -8.666667 q 0,-3.146666 -3.57334,-3.146666 -1.65333,0 -3.49333,0.533333 v 11.28 h -1.92 v -12.24 q 2.58667,-1.306667 5.62667,-1.306667 2.58666,0 3.89333,1.093334 2,-1.093334 4.48,-1.093334 z"
         style=""
         id="path944" /><path
         d="m 189.07749,20.775266 q 3.04,0 4.45334,1.973334 1.41333,1.973333 1.36,5.253333 h -9.70667 q 0,2.4 1.12,3.68 1.12,1.28 3.2,1.28 2.66667,0 4.56,-1.146667 v 1.973333 q -1.94667,0.933334 -4.66667,0.933334 -2.90666,0 -4.53333,-1.786667 -1.62667,-1.813333 -1.62667,-5.28 0,-3.386667 1.52,-5.12 1.54667,-1.76 4.32,-1.76 z m 0,1.76 q -1.76,0 -2.66666,0.826667 -0.90667,0.8 -1.14667,2.88 h 7.6 q -0.13333,-1.866667 -1.06667,-2.773333 -0.90666,-0.933334 -2.72,-0.933334 z"
         style=""
         id="path946" /></g><g
       aria-label="Exome"
       transform="matrix(0.75000002,0,0,-0.75000002,174.63637,241.67635)"
       style="font-style:normal;font-variant:normal;font-weight:normal;font-stretch:normal;font-size:26.66666603px;line-height:1.25;font-family:'Maven Pro';-inkscape-font-specification:'Maven Pro';letter-spacing:0px;word-spacing:0px;fill:#000000;fill-opacity:1;stroke:none"
       id="flowRoot1578"><path
         d="M 12.266667,16.535266 H 23.493333 V 18.3486 h -9.306666 v 6.133333 h 8.186666 v 1.866666 h -8.186666 v 6.16 h 9.306666 v 1.813334 H 12.266667 Z"
         style=""
         id="path915" /><path
         d="m 36.26875,34.321933 -3.786667,-5.2 -3.92,5.2 h -2.16 l 4.96,-6.693334 -4.826666,-6.613333 h 2.426666 l 3.706667,5.04 3.786666,-5.04 h 2.213334 l -4.88,6.586667 4.933333,6.72 z"
         style=""
         id="path917" /><path
         d="m 46.558332,34.721933 q -3.066667,0 -4.613333,-1.813334 -1.52,-1.813333 -1.52,-5.2 0,-3.44 1.546666,-5.173333 1.573334,-1.76 4.533334,-1.76 3.119999,0 4.639999,1.866667 1.52,1.84 1.52,5.066666 0,3.306667 -1.6,5.173334 -1.6,1.84 -4.506666,1.84 z m -0.02667,-1.76 q 4.213333,0 4.213333,-5.253334 0,-2.506666 -0.986666,-3.84 -0.986667,-1.333333 -3.226667,-1.333333 -4.186666,0 -4.186666,5.173333 0,5.253334 4.186666,5.253334 z"
         style=""
         id="path919" /><path
         d="m 70.247915,20.775266 q 2.8,0 4.026667,1.226667 1.253333,1.226667 1.253333,3.653333 v 8.666667 h -1.92 v -8.666667 q 0,-3.146666 -3.573333,-3.146666 -1.706667,0 -3.226667,0.906666 0.346667,0.933333 0.346667,2.24 v 8.666667 h -1.92 v -8.666667 q 0,-3.146666 -3.573333,-3.146666 -1.653334,0 -3.493334,0.533333 v 11.28 h -1.92 v -12.24 q 2.586667,-1.306667 5.626667,-1.306667 2.586666,0 3.893333,1.093334 2,-1.093334 4.48,-1.093334 z"
         style=""
         id="path921" /><path
         d="m 84.962916,20.775266 q 3.04,0 4.453334,1.973334 1.413333,1.973333 1.36,5.253333 h -9.706667 q 0,2.4 1.12,3.68 1.12,1.28 3.2,1.28 2.666667,0 4.56,-1.146667 v 1.973333 q -1.946667,0.933334 -4.666667,0.933334 -2.906666,0 -4.533333,-1.786667 -1.626666,-1.813333 -1.626666,-5.28 0,-3.386667 1.52,-5.12 1.546666,-1.76 4.319999,-1.76 z m 0,1.76 q -1.759999,0 -2.666666,0.826667 -0.906667,0.8 -1.146667,2.88 h 7.6 Q 88.61625,24.375266 87.682916,23.4686 q -0.906666,-0.933334 -2.72,-0.933334 z"
         style=""
         id="path923" /></g><g
       aria-label="Targeted
sequencing"
       transform="matrix(0.75000002,0,0,-0.75000002,248.25928,240.81635)"
       style="font-style:normal;font-variant:normal;font-weight:normal;font-stretch:normal;font-size:26.66666603px;line-height:1.25;font-family:'Maven Pro';-inkscape-font-specification:'Maven Pro';text-align:center;letter-spacing:0px;word-spacing:0px;text-anchor:middle;fill:#000000;fill-opacity:1;stroke:none"
       id="flowRoot1586"><path
         d="M 92.363126,18.3486 H 86.069793 V 16.535266 H 100.54979 V 18.3486 h -6.266664 v 15.973333 h -1.92 z"
         style=""
         id="path878" /><path
         d="m 106.26646,20.775266 q 2.24,0 3.52,1.093334 1.30667,1.093333 1.30667,3.173333 v 6.453333 q 0,1.92 -1.57334,2.586667 -1.57333,0.64 -4.34666,0.64 -2.10667,0 -3.62667,-0.933334 -1.49333,-0.933333 -1.49333,-3.12 0,-2.373333 1.30666,-3.44 1.30667,-1.093333 3.6,-1.093333 2.58667,0 4.18667,0.933333 v -1.573333 q 0,-2.986666 -3.49333,-2.986666 -1.14667,0 -2.32,0.32 -1.17334,0.32 -1.97334,0.959999 V 21.8686 q 0.8,-0.506667 2.16,-0.8 1.38667,-0.293334 2.74667,-0.293334 z m -0.64,12.24 q 1.86667,0 2.69333,-0.266667 0.82667,-0.293333 0.82667,-1.146666 v -2.986667 q -0.72,-0.346667 -1.68,-0.533333 -0.96,-0.213334 -2,-0.213334 -1.68,0 -2.58667,0.64 -0.90666,0.64 -0.90666,1.866667 0,1.386667 1.06666,2.026667 1.06667,0.613333 2.58667,0.613333 z"
         style=""
         id="path880" /><path
         d="m 115.37812,22.081933 q 1.01334,-0.426667 2.66667,-0.853333 1.68,-0.453334 3.46667,-0.453334 0.26666,0 0.85333,0.16 v 1.706667 q -0.64,-0.08 -1.28,-0.08 -0.88,0 -1.62667,0.106667 -0.74666,0.106666 -2.16,0.346666 v 11.306667 h -1.92 z"
         style=""
         id="path882" /><path
         d="m 131.24354,20.801933 q 2.13333,0 3.6,0.826667 1.49333,0.8 1.49333,2.479999 v 10.773334 q 0,1.973333 -1.28,3.333333 -1.28,1.386666 -4.50666,1.386666 -0.90667,0 -1.70667,-0.16 -0.77333,-0.133333 -1.36,-0.293333 -0.56,-0.133333 -0.72,-0.16 v -1.813333 q 1.04,0.293333 1.81333,0.453333 0.8,0.16 1.76,0.16 2.42667,0 3.25334,-0.8 0.82666,-0.8 0.82666,-2.053333 v -0.986667 q -0.82666,0.32 -1.86666,0.533334 -1.01334,0.24 -1.70667,0.24 -3.01333,0 -4.56,-1.76 -1.52,-1.786667 -1.52,-4.933334 0.0267,-4.08 1.89333,-5.653333 1.86667,-1.573333 4.58667,-1.573333 z m -4.45333,7.226666 q 0,2.293334 0.98666,3.626667 0.98667,1.306667 3.06667,1.306667 0.88,0 1.81333,-0.24 0.96,-0.24 1.76,-0.693334 v -7.653333 q 0,-1.04 -0.82666,-1.413333 -0.8,-0.4 -2.18667,-0.4 -2.66667,0 -3.65333,1.466666 -0.96,1.466667 -0.96,4 z"
         style=""
         id="path884" /><path
         d="m 145.75979,20.775266 q 3.04,0 4.45333,1.973334 1.41334,1.973333 1.36,5.253333 h -9.70666 q 0,2.4 1.12,3.68 1.12,1.28 3.2,1.28 2.66666,0 4.56,-1.146667 v 1.973333 q -1.94667,0.933334 -4.66667,0.933334 -2.90667,0 -4.53333,-1.786667 -1.62667,-1.813333 -1.62667,-5.28 0,-3.386667 1.52,-5.12 1.54667,-1.76 4.32,-1.76 z m 0,1.76 q -1.76,0 -2.66667,0.826667 -0.90666,0.8 -1.14666,2.88 h 7.6 q -0.13334,-1.866667 -1.06667,-2.773333 -0.90667,-0.933334 -2.72,-0.933334 z"
         style=""
         id="path886" /><path
         d="m 159.35646,34.535266 q -1.46667,0 -2.4,-0.88 -0.93333,-0.906667 -0.93333,-2.56 v -8.32 h -2.32 v -1.76 h 2.32 v -3.76 h 1.92 v 3.76 h 3.44 v 1.76 h -3.44 v 7.706667 q 0,1.173333 0.37333,1.706666 0.37333,0.533334 1.38667,0.533334 0.98666,0 1.68,-0.32 v 1.813333 q -0.37334,0.133333 -0.96,0.213333 -0.56,0.106667 -1.06667,0.106667 z"
         style=""
         id="path888" /><path
         d="m 170.03063,20.775266 q 3.04,0 4.45333,1.973334 1.41333,1.973333 1.36,5.253333 h -9.70667 q 0,2.4 1.12,3.68 1.12,1.28 3.2,1.28 2.66667,0 4.56,-1.146667 v 1.973333 q -1.94666,0.933334 -4.66666,0.933334 -2.90667,0 -4.53334,-1.786667 -1.62666,-1.813333 -1.62666,-5.28 0,-3.386667 1.52,-5.12 1.54666,-1.76 4.32,-1.76 z m 0,1.76 q -1.76,0 -2.66667,0.826667 -0.90667,0.8 -1.14667,2.88 h 7.6 q -0.13333,-1.866667 -1.06666,-2.773333 -0.90667,-0.933334 -2.72,-0.933334 z"
         style=""
         id="path890" /><path
         d="m 190.34729,15.3886 v 16.639999 q 0,1.36 -1.73334,2.026667 -1.70666,0.666667 -3.73333,0.666667 -2.45333,0 -4.26667,-1.573334 -1.81333,-1.6 -1.84,-5.653333 0,-3.146667 1.52,-4.906666 1.54667,-1.786667 4.56,-1.786667 0.69334,0 1.70667,0.24 1.04,0.213333 1.86667,0.533333 V 15.3886 Z m -1.92,8.106666 q -0.8,-0.453333 -1.76,-0.693333 -0.93334,-0.24 -1.81334,-0.24 -2.08,0 -3.06666,1.333333 -0.98667,1.306667 -0.98667,3.6 0,2.506667 0.90667,4 0.90666,1.466667 3.28,1.466667 1.41333,0 2.42666,-0.32 1.01334,-0.32 1.01334,-0.8 z"
         style=""
         id="path892" /><path
         d="m 76.455835,68.055265 q -1.36,0 -2.32,-0.266667 -0.96,-0.266667 -2.106667,-0.853333 v -2.026667 q 1.36,0.773333 2.213334,1.093333 0.88,0.293334 2.079999,0.293334 1.333334,0 2.16,-0.586667 0.853334,-0.586667 0.853334,-1.52 0,-0.826667 -0.506667,-1.226667 -0.506667,-0.426666 -1.6,-0.853333 l -0.693333,-0.293333 q -1.52,-0.426667 -2.373333,-0.773334 -0.826667,-0.346666 -1.466667,-1.093333 -0.613333,-0.746666 -0.613333,-2.026666 0,-1.28 0.666666,-2.133334 0.666667,-0.853333 1.733334,-1.253333 1.066666,-0.426667 2.239999,-0.426667 1.066667,0 1.786667,0.24 0.746667,0.24 2.026667,0.8 v 1.92 q -1.333334,-0.666666 -2.053334,-0.933333 -0.693333,-0.266667 -1.653333,-0.266667 -1.173333,0 -2,0.48 -0.826666,0.453334 -0.826666,1.306667 0,0.693333 0.4,1.146667 0.426666,0.426666 1.04,0.693333 0.64,0.24 1.706666,0.533333 1.333333,0.426667 2.106667,0.773333 0.8,0.346667 1.386666,1.12 0.613334,0.746667 0.613334,2.026667 0,1.36 -0.693334,2.293333 -0.693333,0.906667 -1.813333,1.36 -1.093333,0.453334 -2.293333,0.453334 z"
         style=""
         id="path894" /><path
         d="m 90.004584,54.108598 q 3.04,0 4.453333,1.973334 1.413334,1.973333 1.36,5.253333 h -9.706666 q 0,2.4 1.12,3.68 1.12,1.28 3.2,1.28 2.666666,0 4.56,-1.146667 v 1.973333 q -1.946667,0.933334 -4.666667,0.933334 -2.906666,0 -4.533333,-1.786667 -1.626667,-1.813333 -1.626667,-5.28 0,-3.386666 1.52,-5.12 1.546667,-1.76 4.32,-1.76 z m 0,1.76 q -1.76,0 -2.666666,0.826667 -0.906667,0.8 -1.146667,2.88 h 7.6 q -0.133334,-1.866667 -1.066667,-2.773333 -0.906667,-0.933334 -2.72,-0.933334 z"
         style=""
         id="path896" /><path
         d="m 105.41458,54.108598 q 2.16,0 3.52,0.72 1.38667,0.72 1.38667,2.453334 v 16.159999 h -1.92 v -6.186666 q -0.8,0.346666 -1.70667,0.56 -0.90666,0.213333 -1.6,0.213333 -3.04,0 -4.69333,-1.786667 -1.653332,-1.786666 -1.653332,-4.906666 0.02667,-4.08 1.920002,-5.653333 1.89333,-1.573334 4.74666,-1.573334 z m -4.64,7.226667 q 0,2.266666 1.09334,3.6 1.12,1.333333 3.22666,1.333333 1.70667,0 3.30667,-0.933333 v -8.053333 q 0,-0.693334 -0.96,-1.04 -0.96,-0.373334 -2.10667,-0.373334 -2.64,0 -3.6,1.466667 -0.96,1.466667 -0.96,4 z"
         style=""
         id="path898" /><path
         d="m 120.14417,68.055265 q -2.66667,0 -4.13334,-1.36 -1.44,-1.386667 -1.44,-3.92 v -8.426667 h 1.92 v 8 q 0,2.026667 0.88,2.986667 0.88,0.933333 2.77334,0.933333 1.86666,0 2.74666,-0.933333 0.90667,-0.96 0.90667,-2.986667 v -8 h 1.92 v 8.426667 q 0,2.533333 -1.46667,3.92 -1.44,1.36 -4.10666,1.36 z"
         style=""
         id="path900" /><path
         d="m 135.16083,54.108598 q 3.04,0 4.45334,1.973334 1.41333,1.973333 1.36,5.253333 h -9.70667 q 0,2.4 1.12,3.68 1.12,1.28 3.2,1.28 2.66667,0 4.56,-1.146667 v 1.973333 q -1.94667,0.933334 -4.66667,0.933334 -2.90666,0 -4.53333,-1.786667 -1.62667,-1.813333 -1.62667,-5.28 0,-3.386666 1.52,-5.12 1.54667,-1.76 4.32,-1.76 z m 0,1.76 q -1.76,0 -2.66666,0.826667 -0.90667,0.8 -1.14667,2.88 h 7.6 q -0.13333,-1.866667 -1.06667,-2.773333 -0.90666,-0.933334 -2.72,-0.933334 z"
         style=""
         id="path902" /><path
         d="m 144.57083,55.415265 q 2.58667,-1.306667 5.62667,-1.306667 2.8,0 4.02667,1.226667 1.25333,1.226667 1.25333,3.653333 v 8.666667 h -1.92 v -8.666667 q 0,-3.146666 -3.57333,-3.146666 -1.65334,0 -3.49334,0.533333 v 11.28 h -1.92 z"
         style=""
         id="path904" /><path
         d="m 165.30042,67.868598 q -2.64,0 -4.45334,-1.493333 -1.78666,-1.52 -1.78666,-5.386667 0,-3.84 1.78666,-5.36 1.81334,-1.52 4.45334,-1.52 2,0 3.94666,0.746667 v 1.84 q -1.81333,-0.746667 -3.73333,-0.746667 -2.37333,0 -3.46667,1.2 -1.06666,1.2 -1.06666,3.84 0,2.666667 1.06666,3.866667 1.09334,1.173333 3.46667,1.173333 2,0 3.73333,-0.746667 v 1.866667 q -1.86666,0.72 -3.94666,0.72 z"
         style=""
         id="path906" /><path
         d="m 172.85208,49.868598 h 2.13334 v 2.106667 h -2.13334 z m 0.10667,4.48 h 1.92 v 13.306667 h -1.92 z"
         style=""
         id="path908" /><path
         d="m 179.25833,55.415265 q 2.58667,-1.306667 5.62667,-1.306667 2.8,0 4.02667,1.226667 1.25333,1.226667 1.25333,3.653333 v 8.666667 h -1.92 v -8.666667 q 0,-3.146666 -3.57333,-3.146666 -1.65334,0 -3.49334,0.533333 v 11.28 h -1.92 z"
         style=""
         id="path910" /><path
         d="m 200.22792,54.135265 q 2.13333,0 3.6,0.826667 1.49333,0.8 1.49333,2.48 v 10.773333 q 0,1.973333 -1.28,3.333333 -1.28,1.386667 -4.50667,1.386667 -0.90666,0 -1.70666,-0.16 -0.77334,-0.133334 -1.36,-0.293334 -0.56,-0.133333 -0.72,-0.16 v -1.813333 q 1.04,0.293333 1.81333,0.453333 0.8,0.16 1.76,0.16 2.42667,0 3.25333,-0.8 0.82667,-0.8 0.82667,-2.053333 v -0.986667 q -0.82667,0.32 -1.86667,0.533334 -1.01333,0.24 -1.70666,0.24 -3.01334,0 -4.56,-1.76 -1.52,-1.786667 -1.52,-4.933334 0.0267,-4.079999 1.89333,-5.653333 1.86667,-1.573333 4.58667,-1.573333 z m -4.45334,7.226666 q 0,2.293334 0.98667,3.626667 0.98667,1.306667 3.06667,1.306667 0.88,0 1.81333,-0.24 0.96,-0.24 1.76,-0.693334 v -7.653333 q 0,-1.04 -0.82667,-1.413333 -0.8,-0.4 -2.18666,-0.4 -2.66667,0 -3.65334,1.466667 -0.96,1.466666 -0.96,3.999999 z"
         style=""
         id="path912" /></g></g></svg>
