<?xml version="1.0" encoding="UTF-8" standalone="no"?>
<!-- Created with Inkscape (http://www.inkscape.org/) -->

<svg
   xmlns:dc="http://purl.org/dc/elements/1.1/"
   xmlns:cc="http://creativecommons.org/ns#"
   xmlns:rdf="http://www.w3.org/1999/02/22-rdf-syntax-ns#"
   xmlns:svg="http://www.w3.org/2000/svg"
   xmlns="http://www.w3.org/2000/svg"
   xmlns:sodipodi="http://sodipodi.sourceforge.net/DTD/sodipodi-0.dtd"
   xmlns:inkscape="http://www.inkscape.org/namespaces/inkscape"
   version="1.1"
   id="svg2"
   xml:space="preserve"
   width="400.89456"
   height="239.73334"
   viewBox="0 0 400.89456 239.73334"
   sodipodi:docname="aws_logo.svg"
   inkscape:version="0.92.3 (2405546, 2018-03-11)"><metadata
     id="metadata8"><rdf:RDF><cc:Work
         rdf:about=""><dc:format>image/svg+xml</dc:format><dc:type
           rdf:resource="http://purl.org/dc/dcmitype/StillImage" /><dc:title></dc:title></cc:Work></rdf:RDF></metadata><defs
     id="defs6" /><sodipodi:namedview
     pagecolor="#ffffff"
     bordercolor="#666666"
     borderopacity="1"
     objecttolerance="10"
     gridtolerance="10"
     guidetolerance="10"
     inkscape:pageopacity="0"
     inkscape:pageshadow="2"
     inkscape:window-width="778"
     inkscape:window-height="480"
     id="namedview4"
     showgrid="false"
     inkscape:zoom="0.69095475"
     inkscape:cx="200.44728"
     inkscape:cy="119.86667"
     inkscape:window-x="0"
     inkscape:window-y="0"
     inkscape:window-maximized="0"
     inkscape:current-layer="g10" /><g
     id="g10"
     inkscape:groupmode="layer"
     inkscape:label="AWS"
     transform="matrix(1.3333333,0,0,-1.3333333,0,239.73334)"><g
       id="g12"><path
         d="m 84.73,114.499 c 0,-3.699 0.403,-6.699 1.102,-8.898 0.801,-2.199 1.801,-4.602 3.199,-7.199 0.5,-0.801 0.699,-1.602 0.699,-2.301 0,-1 -0.597,-2 -1.898,-3 L 81.531,88.902 C 80.633,88.3 79.73,87.999 78.934,87.999 c -1,0 -2,0.5 -3,1.403 -1.403,1.5 -2.602,3.097 -3.602,4.699 -1,1.699 -2,3.597 -3.102,5.898 C 61.434,90.8 51.633,86.198 39.832,86.198 c -8.398,0 -15.102,2.403 -20,7.204 -4.898,4.796 -7.398,11.199 -7.398,19.199 0,8.5 3,15.398 9.097,20.597 6.102,5.204 14.199,7.801 24.5,7.801 3.403,0 6.903,-0.301 10.602,-0.801 3.699,-0.5 7.5,-1.296 11.5,-2.199 v 7.301 c 0,7.602 -1.602,12.898 -4.699,16 -3.204,3.102 -8.602,4.602 -16.301,4.602 -3.5,0 -7.102,-0.403 -10.801,-1.301 -3.699,-0.903 -7.301,-2 -10.801,-3.403 -1.597,-0.699 -2.801,-1.097 -3.5,-1.296 -0.699,-0.204 -1.199,-0.301 -1.597,-0.301 -1.403,0 -2.102,1 -2.102,3.097 v 4.903 c 0,1.597 0.199,2.801 0.699,3.5 0.5,0.699 1.403,1.398 2.801,2.097 3.5,1.801 7.699,3.301 12.602,4.5 4.898,1.301 10.097,1.903 15.597,1.903 11.903,0 20.602,-2.699 26.199,-8.102 5.5,-5.398 8.301,-13.597 8.301,-24.597 V 114.499 Z M 44.133,99.3 c 3.301,0 6.699,0.602 10.301,1.801 3.597,1.199 6.796,3.398 9.5,6.398 1.597,1.903 2.796,4 3.398,6.403 0.602,2.398 1,5.296 1,8.699 v 4.199 c -2.898,0.699 -6,1.301 -9.199,1.699 -3.199,0.403 -6.301,0.602 -9.403,0.602 -6.699,0 -11.597,-1.301 -14.898,-4 -3.301,-2.699 -4.898,-6.5 -4.898,-11.5 0,-4.699 1.199,-8.199 3.699,-10.602 2.398,-2.5 5.898,-3.699 10.5,-3.699 z m 80.301,-10.801 c -1.801,0 -3,0.301 -3.801,1 -0.801,0.602 -1.5,2 -2.102,3.903 l -23.5,77.296 c -0.597,2 -0.898,3.301 -0.898,4 0,1.602 0.801,2.5 2.398,2.5 h 9.801 c 1.898,0 3.199,-0.296 3.898,-1 0.801,-0.597 1.403,-2 2,-3.898 l 16.801,-66.199 15.602,66.199 c 0.5,2 1.097,3.301 1.898,3.898 0.801,0.602 2.199,1 4,1 h 8 c 1.903,0 3.199,-0.296 4,-1 0.801,-0.597 1.5,-2 1.903,-3.898 l 15.796,-67 17.301,67 c 0.602,2 1.301,3.301 2,3.898 0.801,0.602 2.102,1 3.903,1 h 9.296 c 1.602,0 2.5,-0.796 2.5,-2.5 0,-0.5 -0.097,-1 -0.199,-1.597 -0.097,-0.602 -0.301,-1.403 -0.699,-2.5 L 190.23,93.3 c -0.597,-2 -1.296,-3.301 -2.097,-3.898 -0.801,-0.602 -2.102,-1 -3.801,-1 h -8.602 c -1.898,0 -3.199,0.296 -4,1 -0.796,0.699 -1.5,2 -1.898,4 l -15.5,64.5 -15.398,-64.403 c -0.5,-2 -1.102,-3.301 -1.903,-4 -0.801,-0.699 -2.199,-1 -4,-1 z m 128.5,-2.699 c -5.204,0 -10.403,0.602 -15.403,1.801 -5,1.199 -8.898,2.5 -11.5,4 -1.597,0.898 -2.699,1.898 -3.097,2.801 -0.403,0.898 -0.602,1.898 -0.602,2.796 v 5.102 c 0,2.102 0.801,3.102 2.301,3.102 0.597,0 1.199,-0.102 1.801,-0.301 0.597,-0.199 1.5,-0.602 2.5,-1 3.398,-1.5 7.097,-2.699 11,-3.5 4,-0.801 7.898,-1.199 11.898,-1.199 6.301,0 11.199,1.097 14.602,3.296 3.398,2.204 5.199,5.403 5.199,9.5 0,2.801 -0.903,5.102 -2.699,7 -1.801,1.903 -5.204,3.602 -10.102,5.204 l -14.5,4.5 c -7.301,2.296 -12.699,5.699 -16,10.199 -3.301,4.398 -5,9.301 -5,14.5 0,4.199 0.898,7.898 2.699,11.097 1.801,3.204 4.199,6 7.199,8.204 3,2.296 6.403,4 10.403,5.199 4,1.199 8.199,1.699 12.597,1.699 2.204,0 4.5,-0.102 6.704,-0.398 2.296,-0.301 4.398,-0.704 6.5,-1.102 2,-0.5 3.898,-1 5.699,-1.602 1.801,-0.597 3.199,-1.199 4.199,-1.796 1.398,-0.801 2.398,-1.602 3,-2.5 0.602,-0.801 0.898,-1.903 0.898,-3.301 v -4.699 c 0,-2.102 -0.796,-3.204 -2.296,-3.204 -0.801,0 -2.102,0.403 -3.801,1.204 -5.699,2.597 -12.102,3.898 -19.199,3.898 -5.704,0 -10.204,-0.898 -13.301,-2.801 -3.102,-1.898 -4.699,-4.801 -4.699,-8.898 0,-2.801 1,-5.199 3,-7.102 2,-1.898 5.699,-3.801 11,-5.5 l 14.199,-4.5 c 7.199,-2.301 12.398,-5.5 15.5,-9.597 3.097,-4.102 4.597,-8.801 4.597,-14 0,-4.301 -0.898,-8.204 -2.597,-11.602 -1.801,-3.398 -4.199,-6.398 -7.301,-8.801 -3.102,-2.5 -6.801,-4.301 -11.102,-5.597 -4.5,-1.403 -9.199,-2.102 -14.296,-2.102"
         style="fill:#252f3e;fill-opacity:1;fill-rule:nonzero;stroke:none"
         id="path14"
         inkscape:connector-curvature="0" /><path
         d="M 271.832,37.198 C 238.934,12.902 191.133,-0.001 150.031,-0.001 92.434,-0.001 40.531,21.3 1.332,56.698 -1.77,59.499 1.031,63.3 4.73,61.101 c 42.403,-24.602 94.704,-39.5 148.801,-39.5 36.5,0 76.602,7.597 113.5,23.199 5.5,2.5 10.199,-3.602 4.801,-7.602 z M 285.531,52.8 c -4.199,5.398 -27.801,2.602 -38.5,1.301 -3.199,-0.403 -3.699,2.398 -0.801,4.5 18.801,13.199 49.704,9.398 53.301,5 3.602,-4.5 -1,-35.403 -18.597,-50.199 -2.704,-2.301 -5.301,-1.102 -4.102,1.898 4,9.898 12.898,32.199 8.699,37.5"
         style="fill:#ff9900;fill-opacity:1;fill-rule:nonzero;stroke:none"
         id="path16"
         inkscape:connector-curvature="0" /></g></g></svg>