<?xml version="1.0" encoding="UTF-8" standalone="no"?>
<!-- Created with Inkscape (http://www.inkscape.org/) -->

<svg
   xmlns:dc="http://purl.org/dc/elements/1.1/"
   xmlns:cc="http://creativecommons.org/ns#"
   xmlns:rdf="http://www.w3.org/1999/02/22-rdf-syntax-ns#"
   xmlns:svg="http://www.w3.org/2000/svg"
   xmlns="http://www.w3.org/2000/svg"
   xmlns:sodipodi="http://sodipodi.sourceforge.net/DTD/sodipodi-0.dtd"
   xmlns:inkscape="http://www.inkscape.org/namespaces/inkscape"
   version="1.1"
   id="svg2"
   xml:space="preserve"
   width="376.90964"
   height="100"
   viewBox="0 0 376.90964 100"
   sodipodi:docname="MultiQC_logo.svg"
   inkscape:version="0.92.3 (2405546, 2018-03-11)"><metadata
     id="metadata8"><rdf:RDF><cc:Work
         rdf:about=""><dc:format>image/svg+xml</dc:format><dc:type
           rdf:resource="http://purl.org/dc/dcmitype/StillImage" /><dc:title></dc:title></cc:Work></rdf:RDF></metadata><defs
     id="defs6"><clipPath
       clipPathUnits="userSpaceOnUse"
       id="clipPath26"><path
         d="M 3,5 H 239 V 68 H 3 Z"
         id="path24"
         inkscape:connector-curvature="0" /></clipPath></defs><sodipodi:namedview
     pagecolor="#ffffff"
     bordercolor="#666666"
     borderopacity="1"
     objecttolerance="10"
     gridtolerance="10"
     guidetolerance="10"
     inkscape:pageopacity="0"
     inkscape:pageshadow="2"
     inkscape:window-width="1920"
     inkscape:window-height="1012"
     id="namedview4"
     showgrid="false"
     inkscape:zoom="1.8061225"
     inkscape:cx="205.05723"
     inkscape:cy="32.224743"
     inkscape:window-x="0"
     inkscape:window-y="0"
     inkscape:window-maximized="1"
     inkscape:current-layer="g10"
     fit-margin-top="0"
     fit-margin-left="0"
     fit-margin-right="0"
     fit-margin-bottom="0" /><g
     id="g10"
     inkscape:groupmode="layer"
     inkscape:label="MultiQC_logo"
     transform="matrix(1.3333333,0,0,-1.3333333,25.121488,99.000002)"><g
       id="g938"
       transform="matrix(1.2035433,0,0,1.2035433,-23.086014,-6.3825839)"><path
         d="M 19.66,63.949 30.531,32.516 h 0.176 L 41.664,63.949 H 52.855 V 21.293 h -8.554 v 12.715 l 0.82,18.836 -0.176,0.031 L 33.52,21.293 H 27.777 L 16.41,52.758 16.234,52.73 17.055,34.008 V 21.293 H 8.5 v 42.656 z"
         style="fill:#000000;fill-opacity:1;fill-rule:nonzero;stroke:none"
         id="path14"
         inkscape:connector-curvature="0" /><path
         d="m 79.516,25.863 c -0.977,-1.66 -2.219,-2.941 -3.723,-3.836 -1.504,-0.898 -3.231,-1.347 -5.184,-1.347 -3.339,0 -5.953,1.066 -7.836,3.207 -1.886,2.136 -2.828,5.465 -2.828,9.976 v 19.129 h 8.524 v -19.23 c 0,-2.313 0.39,-3.973 1.172,-4.981 0.781,-1.008 1.933,-1.511 3.457,-1.511 1.367,0 2.539,0.218 3.515,0.66 0.977,0.441 1.778,1.093 2.403,1.953 V 52.992 H 87.57 V 21.293 h -7.293 z"
         style="fill:#000000;fill-opacity:1;fill-rule:nonzero;stroke:none"
         id="path30"
         inkscape:connector-curvature="0" /><path
         d="m 94.457,66.996 h 8.555 V 21.293 h -8.555 z"
         style="fill:#000000;fill-opacity:1;fill-rule:nonzero;stroke:none"
         id="path32"
         inkscape:connector-curvature="0" /><path
         d="m 120.207,60.758 v -7.766 h 5.332 v -6.008 h -5.332 v -16.14 c 0,-1.231 0.254,-2.11 0.762,-2.637 0.508,-0.527 1.191,-0.789 2.054,-0.789 0.446,0 0.832,0.023 1.157,0.07 0.32,0.051 0.695,0.133 1.125,0.25 l 0.734,-6.179 c -0.859,-0.293 -1.699,-0.516 -2.519,-0.661 -0.821,-0.148 -1.711,-0.218 -2.668,-0.218 -2.95,0 -5.219,0.808 -6.809,2.429 -1.594,1.621 -2.391,4.192 -2.391,7.707 v 16.168 h -4.629 v 6.008 h 4.629 v 7.766 z"
         style="fill:#000000;fill-opacity:1;fill-rule:nonzero;stroke:none"
         id="path34"
         inkscape:connector-curvature="0" /><path
         d="m 139.984,21.293 h -8.554 v 31.699 h 8.554 z m 0,39.289 h -8.554 v 6.414 h 8.554 z"
         style="fill:#000000;fill-opacity:1;fill-rule:nonzero;stroke:none"
         id="path36"
         inkscape:connector-curvature="0" /><path
         d="m 167.934,27.664 c -8.09,0 -14.649,6.559 -14.649,14.648 0,8.09 6.559,14.653 14.649,14.653 8.089,0 14.648,-6.563 14.648,-14.653 0,-8.089 -6.559,-14.648 -14.648,-14.648 m 0,36.285 c -11.95,0 -21.637,-9.687 -21.637,-21.637 0,-11.949 9.687,-21.632 21.637,-21.632 11.949,0 21.636,9.683 21.636,21.632 0,11.95 -9.687,21.637 -21.636,21.637"
         style="fill:#000000;fill-opacity:1;fill-rule:nonzero;stroke:none"
         id="path38"
         inkscape:connector-curvature="0" /><path
         d="m 200.418,8.68 h -10.75 l -9.707,11.738 6.344,5.246 z"
         style="fill:#000000;fill-opacity:1;fill-rule:nonzero;stroke:none"
         id="path40"
         inkscape:connector-curvature="0" /><path
         d="m 193.371,13.395 -2.683,-2.223 -11.872,14.351 2.684,2.223 z"
         style="fill:#000000;fill-opacity:1;fill-rule:nonzero;stroke:none"
         id="path42"
         inkscape:connector-curvature="0" /><path
         d="m 217.406,31.336 c -2.582,-2.277 -5.961,-3.672 -9.676,-3.672 -8.089,0 -14.648,6.559 -14.648,14.648 0,8.09 6.559,14.653 14.648,14.653 3.473,0 6.661,-1.219 9.172,-3.238 1.75,1.543 3.532,3.078 5.348,4.593 -3.844,3.489 -8.926,5.629 -14.52,5.629 -7.937,0 -14.855,-4.289 -18.621,-10.66 1.707,-3.285 2.676,-7.016 2.676,-10.977 0,-3.957 -0.969,-7.687 -2.676,-10.972 3.766,-6.375 10.684,-10.66 18.621,-10.66 6.114,0 11.625,2.547 15.563,6.625 -1.961,1.207 -3.926,2.59 -5.887,4.031"
         style="fill:#000000;fill-opacity:1;fill-rule:nonzero;stroke:none"
         id="path44"
         inkscape:connector-curvature="0" /><path
         d="m 166.801,49.398 h 2.27 V 35.23 h -2.27 z"
         style="fill:#000000;fill-opacity:1;fill-rule:nonzero;stroke:none"
         id="path46"
         inkscape:connector-curvature="0" /><path
         d="m 160.852,43.449 h 14.168 v -2.27 h -14.168 z"
         style="fill:#000000;fill-opacity:1;fill-rule:nonzero;stroke:none"
         id="path48"
         inkscape:connector-curvature="0" /><path
         d="m 230.129,14.68 h -32.465 l 1.836,-2 h 32.285 z"
         style="fill:#be1622;fill-opacity:1;fill-rule:nonzero;stroke:none"
         id="path50"
         inkscape:connector-curvature="0" /><path
         d="m 233.438,10.68 h -32.102 l 1.836,-2 h 31.922 z"
         style="fill:#009640;fill-opacity:1;fill-rule:nonzero;stroke:none"
         id="path52"
         inkscape:connector-curvature="0" /><path
         d="m 5.18,12.68 h 178.179 l -1.812,2 H 3.527 Z"
         style="fill:#be1622;fill-opacity:1;fill-rule:nonzero;stroke:none"
         id="path54"
         inkscape:connector-curvature="0" /><path
         d="m 8.488,8.68 h 178.547 c -0.156,0.148 -0.312,0.289 -0.461,0.453 l -1.402,1.547 H 6.836 Z"
         style="fill:#009640;fill-opacity:1;fill-rule:nonzero;stroke:none"
         id="path56"
         inkscape:connector-curvature="0" /><path
         d="m 11.797,4.68 h 226.605 l -1.656,2 H 10.145 Z"
         style="fill:#1d71b8;fill-opacity:1;fill-rule:nonzero;stroke:none"
         id="path58"
         inkscape:connector-curvature="0" /></g></g></svg>
