<?xml version="1.0" encoding="UTF-8" standalone="no"?>
<!-- Created with Inkscape (http://www.inkscape.org/) -->

<svg
   xmlns:dc="http://purl.org/dc/elements/1.1/"
   xmlns:cc="http://creativecommons.org/ns#"
   xmlns:rdf="http://www.w3.org/1999/02/22-rdf-syntax-ns#"
   xmlns:svg="http://www.w3.org/2000/svg"
   xmlns="http://www.w3.org/2000/svg"
   xmlns:sodipodi="http://sodipodi.sourceforge.net/DTD/sodipodi-0.dtd"
   xmlns:inkscape="http://www.inkscape.org/namespaces/inkscape"
   version="1.1"
   id="svg2"
   xml:space="preserve"
   width="1841.3871"
   height="558.1629"
   viewBox="0 0 1841.3871 558.16291"
   sodipodi:docname="nf-core_jobim2020.svg"
   inkscape:version="0.92.3 (2405546, 2018-03-11)"><metadata
     id="metadata8"><rdf:RDF><cc:Work
         rdf:about=""><dc:format>image/svg+xml</dc:format><dc:type
           rdf:resource="http://purl.org/dc/dcmitype/StillImage" /><dc:title /></cc:Work></rdf:RDF></metadata><defs
     id="defs6"><clipPath
   clipPathUnits="userSpaceOnUse"
   id="clipPath44"><path
     d="m 216,108.995 h 62 v -23 h -62 z"
     id="path42"
     inkscape:connector-curvature="0" /></clipPath><clipPath
   clipPathUnits="userSpaceOnUse"
   id="clipPath50"><path
     d="M 237.867,108.061 216.336,86.444 h 61.094 v 21.617 z"
     id="path48"
     inkscape:connector-curvature="0" /></clipPath><clipPath
   clipPathUnits="userSpaceOnUse"
   id="clipPath60"><path
     d="m 216,86 h 62 v 23 h -62 z"
     id="path58"
     inkscape:connector-curvature="0" /></clipPath><clipPath
   clipPathUnits="userSpaceOnUse"
   id="clipPath70"><path
     d="M 237.867,108.066 216.336,86.449 h 61.094 v 21.617 z"
     id="path68"
     inkscape:connector-curvature="0" /></clipPath><linearGradient
   x1="0"
   y1="0"
   x2="1"
   y2="0"
   gradientUnits="userSpaceOnUse"
   gradientTransform="matrix(37.936525,-29.638943,-29.638943,-37.936525,233.15029,107.98614)"
   spreadMethod="pad"
   id="linearGradient84"><stop
     style="stop-opacity:1;stop-color:#0c542a"
     offset="0"
     id="stop74" /><stop
     style="stop-opacity:1;stop-color:#0c542a"
     offset="0.21472"
     id="stop76" /><stop
     style="stop-opacity:1;stop-color:#25af64"
     offset="0.57995"
     id="stop78" /><stop
     style="stop-opacity:1;stop-color:#25af64"
     offset="0.84663"
     id="stop80" /><stop
     style="stop-opacity:1;stop-color:#25af64"
     offset="1"
     id="stop82" /></linearGradient>





</defs><sodipodi:namedview
     pagecolor="#ffffff"
     bordercolor="#666666"
     borderopacity="1"
     objecttolerance="10"
     gridtolerance="10"
     guidetolerance="10"
     inkscape:pageopacity="0"
     inkscape:pageshadow="2"
     inkscape:window-width="1920"
     inkscape:window-height="1015"
     id="namedview4"
     showgrid="false"
     inkscape:zoom="0.6055312"
     inkscape:cx="734.4757"
     inkscape:cy="208.30072"
     inkscape:window-x="0"
     inkscape:window-y="1080"
     inkscape:window-maximized="1"
     inkscape:current-layer="g10"
     fit-margin-top="0"
     fit-margin-left="0"
     fit-margin-right="0"
     fit-margin-bottom="0" /><g
     id="g10"
     inkscape:groupmode="layer"
     inkscape:label="nf-core"
     transform="matrix(1.3333333,0,0,-1.3333333,303.8484,287.99333)"><g
   id="g498"><g
     id="g338"><g
       id="g306"><path
         d="m 924.754,119.987 v -3.402 c -0.07,-0.02 -0.141,-0.035 -0.211,-0.055 -0.578,0.477 -1.164,0.949 -1.738,1.43 -3.825,3.211 -7.875,6.094 -12.356,8.332 -0.773,0.39 -1.527,0.844 -2.394,1.023 -0.067,0.137 -0.203,0.157 -0.325,0.207 -1.691,0.7 -3.421,1.262 -5.203,1.672 -3.871,0.899 -7.754,0.981 -11.652,0.199 -5.004,-1.007 -9.484,-3.214 -13.68,-6.046 -4.168,-2.813 -7.922,-6.118 -11.445,-9.692 -0.633,-0.644 -0.645,-0.641 -1.035,0.172 -1.875,3.902 -3.934,7.691 -6.516,11.18 -1.969,2.664 -4.168,5.097 -7.023,6.851 -2.879,1.774 -5.961,2.414 -9.285,1.614 -4.082,-0.989 -7.36,-3.368 -10.453,-6.063 -1.883,-1.461 -3.575,-3.137 -5.325,-4.75 -1.57,-1.445 -3.148,-2.883 -4.777,-4.262 -0.297,-0.25 -0.457,-0.246 -0.727,0.035 -1.582,1.661 -3.281,3.18 -5.32,4.278 -2.93,1.574 -5.969,1.769 -9.109,0.746 -2.633,-0.856 -4.961,-2.297 -7.293,-3.738 -0.918,-0.571 -1.774,-1.243 -2.766,-1.692 v 0.231 c 0.137,0.164 0.086,0.363 0.094,0.547 0.148,4.207 0.508,8.394 1.16,12.558 0.898,5.738 2.344,11.317 4.902,16.559 1.914,3.926 4.414,7.426 7.661,10.359 4.265,3.856 9.3,6.293 14.781,7.867 5.937,1.707 12.039,2.414 18.187,2.75 2.434,0.133 4.871,0.192 7.309,0.285 1.183,-0.492 2.441,-0.769 3.656,-1.171 1.781,-0.543 3.567,-1.09 5.348,-1.633 0.906,-0.332 1.812,-0.672 2.722,-1 3.524,-1.27 6.883,-2.848 9.864,-5.16 0.773,-0.598 1.511,-1.235 2.269,-1.883 -0.148,0.562 -0.355,1.086 -0.554,1.613 -1.305,3.457 -3.293,6.367 -6.528,8.316 -1.336,0.809 -2.758,1.454 -4.117,2.215 0.133,0.016 0.266,0.032 0.398,0.051 4.289,0.715 8.61,1.137 12.946,1.309 3.73,0.148 7.465,0.093 11.187,-0.293 4.352,-0.453 8.606,-1.313 12.715,-2.832 6.082,-2.246 11.262,-5.766 15.277,-10.895 3.508,-4.476 5.743,-9.566 7.172,-15.035 1.422,-5.422 2.028,-10.953 2.184,-16.547 v -6.25"
         style="fill:#22ae63;fill-opacity:1;fill-rule:nonzero;stroke:none"
         id="path14"
         inkscape:connector-curvature="0" /><path
         d="m 924.754,126.237 c 0.035,0 0.066,0.008 0.101,0.02 v -6.289 c -0.035,0.007 -0.066,0.011 -0.101,0.015 v 6.254"
         style="fill:#ecdc86;fill-opacity:1;fill-rule:nonzero;stroke:none"
         id="path16"
         inkscape:connector-curvature="0" /><path
         d="m 890.215,215.995 c 0,-0.035 0,-0.07 0.008,-0.106 -1.414,0 -2.825,-0.003 -4.239,-0.003 0.008,0.023 0.02,0.05 0.024,0.074 0,0.012 -0.012,0.023 -0.02,0.035 h 4.231 z"
         style="fill:#a0918f;fill-opacity:1;fill-rule:nonzero;stroke:none"
         id="path18"
         inkscape:connector-curvature="0" /><path
         d="m 892.973,37.811 c 2.386,0.957 4.66,2.133 6.871,3.446 2.633,1.562 5.144,3.308 7.59,5.148 2.062,1.551 4.078,3.16 6.039,4.84 1.132,0.973 2.3,1.902 3.441,2.863 0.231,0.192 0.234,0.11 0.293,-0.125 0.414,-1.554 0.703,-3.136 1.016,-4.711 0.425,-2.148 0.769,-4.312 1.007,-6.488 0.274,-2.508 0.375,-5.035 0.223,-7.555 -0.183,-3.148 -0.75,-6.238 -1.844,-9.207 -0.66,-1.789 -1.527,-3.484 -2.55,-5.093 -1.313,-2.067 -2.879,-3.93 -4.692,-5.571 -2.203,-1.996 -4.637,-3.668 -7.246,-5.109 C 899.578,8.296 895.828,6.866 891.98,5.69 888.305,4.569 884.555,3.757 880.766,3.116 879.738,2.94 878.711,2.757 877.664,2.78 c -2.211,0.059 -4.332,0.555 -6.391,1.352 -3.128,1.215 -5.91,3.109 -8.945,4.511 -1.66,0.77 -3.375,1.336 -5.223,1.461 -2.371,0.16 -4.386,-0.652 -6.082,-2.257 -1.277,-1.204 -2.48,-2.481 -3.734,-3.704 -2.109,-2.062 -4.578,-3.457 -7.512,-3.941 -1.949,-0.324 -3.894,-0.223 -5.843,0.055 -2.704,0.386 -5.352,1.007 -7.95,1.843 -3.793,1.219 -7.324,2.969 -10.488,5.395 -3,2.301 -5.434,5.109 -7.363,8.371 -1.938,3.281 -3.149,6.832 -3.969,10.52 -0.359,1.621 -0.578,3.269 -0.746,4.929 -0.238,2.321 -0.379,4.645 -0.32,6.977 0.086,3.269 0.336,6.531 0.84,9.867 0.39,-0.348 0.738,-0.652 1.085,-0.969 2.11,-1.929 4.399,-3.625 6.86,-5.07 2.781,-1.629 5.73,-2.906 8.851,-3.738 2.114,-0.567 4.266,-0.91 6.454,-1.09 1.804,-0.149 3.613,-0.176 5.406,-0.067 2.117,0.129 4.242,0.278 6.304,0.852 0.262,0.031 0.532,0.043 0.79,0.098 1.894,0.394 3.773,0.843 5.636,1.386 2.141,0.625 4.254,1.328 6.344,2.102 2.035,0.754 4.043,1.578 6.031,2.441 0.586,0.258 0.942,0.145 1.403,-0.211 3.32,-2.57 6.867,-4.754 10.785,-6.296 4.316,-1.704 8.761,-2.524 13.414,-2.141 3.355,0.277 6.562,1.109 9.672,2.355"
         style="fill:#22ae63;fill-opacity:1;fill-rule:nonzero;stroke:none"
         id="path20"
         inkscape:connector-curvature="0" /><path
         d="m 892.973,37.811 c -3.11,-1.246 -6.317,-2.078 -9.672,-2.355 -4.653,-0.383 -9.098,0.437 -13.414,2.141 -3.918,1.542 -7.465,3.726 -10.785,6.296 -0.461,0.356 -0.817,0.469 -1.403,0.211 -1.988,-0.863 -3.996,-1.687 -6.031,-2.441 -2.09,-0.774 -4.203,-1.477 -6.344,-2.102 -1.863,-0.543 -3.742,-0.992 -5.636,-1.386 -0.258,-0.055 -0.528,-0.067 -0.79,-0.098 0.653,0.758 1.305,1.52 1.961,2.277 2.657,3.071 4.524,6.563 5.621,10.469 1.504,5.34 3.075,10.66 4.321,16.07 0.918,3.977 1.726,7.977 2.269,12.024 0.391,2.902 0.637,5.812 0.809,8.738 0.156,2.684 0.113,5.367 -0.055,8.043 -0.504,8.094 -2.281,15.914 -5.562,23.328 -1.965,4.446 -5.348,7.492 -10.149,8.742 -2.074,0.539 -4.144,0.371 -6.183,-0.265 -0.16,-0.051 -0.317,-0.149 -0.496,-0.098 3.093,2.695 6.371,5.074 10.453,6.063 3.324,0.8 6.406,0.16 9.285,-1.614 2.855,-1.754 5.055,-4.187 7.023,-6.851 2.582,-3.489 4.641,-7.278 6.512,-11.18 0.395,-0.812 0.406,-0.816 1.039,-0.172 3.524,3.574 7.277,6.875 11.445,9.692 4.196,2.832 8.676,5.039 13.68,6.046 3.899,0.782 7.781,0.696 11.652,-0.199 1.782,-0.41 3.512,-0.972 5.204,-1.672 0.121,-0.05 0.257,-0.07 0.32,-0.211 -4.969,-0.093 -9.27,-1.992 -13.184,-4.914 -1.89,-1.414 -3.574,-3.039 -4.871,-5.011 -1.082,-1.637 -1.945,-3.403 -2.789,-5.172 -1.723,-3.61 -3.133,-7.34 -4.137,-11.219 -0.859,-3.316 -1.402,-6.68 -1.687,-10.098 -0.223,-2.64 -0.27,-5.289 -0.164,-7.929 0.125,-3.242 0.43,-6.477 0.847,-9.7 0.7,-5.406 1.653,-10.769 2.524,-16.144 0.484,-2.981 0.898,-5.969 1.371,-8.949 0.695,-4.332 3.078,-7.571 6.598,-10.063 0.14,-0.097 0.277,-0.199 0.418,-0.297"
         style="fill:#ecdc86;fill-opacity:1;fill-rule:nonzero;stroke:none"
         id="path22"
         inkscape:connector-curvature="0" /><path
         d="m 885.973,215.886 c 1.414,0 2.828,0.003 4.238,0.003 3.437,-0.156 6.801,-0.734 10.059,-1.851 2.519,-0.863 3.082,-2.512 1.562,-4.695 -1.082,-1.559 -2.578,-2.684 -4.133,-3.727 -2.027,-1.363 -4.195,-2.453 -6.48,-3.312 -2.391,-0.903 -4.672,-0.02 -6.121,2.355 -0.457,0.75 -0.809,1.551 -1.047,2.395 -0.074,0.25 -0.18,0.363 -0.449,0.41 -5.317,0.941 -10.004,-0.285 -13.942,-4.051 -3.203,-3.07 -5.101,-6.914 -6.426,-11.074 -1.199,-3.754 -1.789,-7.614 -1.976,-11.543 -0.168,-3.496 0.066,-6.965 0.605,-10.418 0.11,-0.59 0.25,-1.18 0.313,-1.774 0.074,-0.738 -0.141,-1.379 -0.781,-1.832 -0.668,-0.472 -1.43,-0.39 -2.184,-0.402 l -5.344,1.633 c -0.012,0.426 -0.023,0.847 -0.035,1.269 0.027,1.844 0.035,3.692 0.137,5.535 0.402,7.309 1.504,14.469 4.332,21.282 2.105,5.066 5.078,9.511 9.344,13.027 3.503,2.891 7.5,4.789 11.906,5.848 2.109,0.508 4.254,0.816 6.422,0.922"
         style="fill:#3f2b29;fill-opacity:1;fill-rule:nonzero;stroke:none"
         id="path24"
         inkscape:connector-curvature="0" /><path
         d="m 859.215,166.378 c 0.75,0.011 1.515,-0.071 2.183,0.402 0.637,0.453 0.856,1.098 0.782,1.832 -0.063,0.594 -0.207,1.184 -0.313,1.774 0.332,0.031 0.668,0.062 1.004,0.093 1.359,-0.761 2.781,-1.406 4.117,-2.211 3.235,-1.953 5.223,-4.863 6.528,-8.32 0.199,-0.527 0.402,-1.051 0.554,-1.613 -0.754,0.648 -1.496,1.285 -2.269,1.883 -2.981,2.312 -6.344,3.89 -9.863,5.16 -0.911,0.328 -1.817,0.668 -2.723,1"
         style="fill:#386e35;fill-opacity:1;fill-rule:nonzero;stroke:none"
         id="path26"
         inkscape:connector-curvature="0" /><path
         d="m 853.832,169.276 c 0.012,-0.422 0.023,-0.844 0.031,-1.265 -1.215,0.398 -2.468,0.675 -3.656,1.168 1.211,0.035 2.418,0.066 3.629,0.097"
         style="fill:#386e35;fill-opacity:1;fill-rule:nonzero;stroke:none"
         id="path28"
         inkscape:connector-curvature="0" /></g><g
       id="g274"><path
         d="m 357.98315,30.199696 q -15.53027,0 -28.12237,6.086186 -12.59211,6.086185 -20.14738,18.258556 -7.34539,12.38224 -7.34539,30.011192 0,28.33224 15.11053,42.81317 15.11053,14.69079 40.29474,14.69079 8.81448,0 17.83882,-1.88882 9.02435,-1.67894 15.95001,-4.82697 v -26.86316 q -8.60461,3.77763 -15.3204,5.66644 -6.71579,2.09869 -13.43158,2.09869 -13.85132,0 -21.61646,-6.92566 -7.76513,-6.71579 -7.76513,-21.196716 0,-16.159873 7.13553,-23.925006 7.3454,-7.765133 23.71514,-7.765133 12.38224,0 27.49277,8.394738 V 38.174698 q -7.55527,-3.987501 -15.74014,-5.876317 -7.975,-2.098685 -18.04869,-2.098685 z"
         style="font-variant:normal;font-weight:bold;font-size:medium;font-family:'Maven Pro';-inkscape-font-specification:MavenPro-Bold;writing-mode:lr-tb;fill:#000000;fill-opacity:1;fill-rule:nonzero;stroke:none"
         id="path70"
         inkscape:connector-curvature="0" /><path
         d="m 461.44831,29.779959 q -26.86317,0 -40.29475,14.271056 -13.43158,14.271056 -13.43158,42.393431 0,29.381584 13.22171,42.813164 13.43159,13.43159 40.50462,13.43159 27.07303,0 40.71448,-13.85132 13.64145,-13.64145 13.64145,-42.393434 0,-27.702638 -14.06119,-42.183563 -14.06118,-14.480924 -40.29474,-14.480924 z m 0,24.974348 q 11.54276,0 17.41908,7.975002 5.87632,8.18487 5.87632,23.715137 0,16.999344 -5.87632,24.134874 -5.66645,7.3454 -17.41908,7.3454 -12.17237,0 -17.62895,-7.3454 -5.24671,-7.13553 -5.24671,-24.134874 0,-16.159872 5.45658,-23.925006 5.66644,-7.765133 17.41908,-7.765133 z"
         style="font-variant:normal;font-weight:bold;font-size:medium;font-family:'Maven Pro';-inkscape-font-specification:MavenPro-Bold;writing-mode:lr-tb;fill:#000000;fill-opacity:1;fill-rule:nonzero;stroke:none"
         id="path72"
         inkscape:connector-curvature="0" /><path
         d="m 537.42072,127.9984 q 3.14802,2.72829 10.91316,6.08619 7.975,3.35789 17.62895,5.66645 9.86382,2.51842 18.88816,2.51842 17.41908,0 24.13487,-5.24671 v -22.87567 q -8.39473,1.88882 -24.13487,1.88882 -9.86382,0 -16.15987,-1.04934 V 32.927986 h -31.2704 z"
         style="font-variant:normal;font-weight:bold;font-size:medium;font-family:'Maven Pro';-inkscape-font-specification:MavenPro-Bold;writing-mode:lr-tb;fill:#000000;fill-opacity:1;fill-rule:nonzero;stroke:none"
         id="path74"
         inkscape:connector-curvature="0" /><path
         d="m 670.47733,142.6892 q 49.73883,0 49.10923,-64.849361 h -70.09607 q 3.9875,-22.03619 29.59145,-22.03619 7.76514,0 15.11053,2.098685 7.55527,2.308553 15.95001,5.876317 V 36.915487 q -17.20922,-7.135528 -38.6158,-7.135528 -16.15988,0 -28.33225,6.505923 -12.17237,6.715791 -18.88816,19.09803 -6.71579,12.38224 -6.71579,29.171718 0,27.70264 13.64145,42.81317 13.85132,15.3204 39.2454,15.3204 z m -1.25921,-23.92501 q -16.78947,0 -19.9375,-20.986847 h 39.2454 q -1.46908,11.332897 -6.08618,16.159877 -4.40724,4.82697 -13.22172,4.82697 z"
         style="font-variant:normal;font-weight:bold;font-size:medium;font-family:'Maven Pro';-inkscape-font-specification:MavenPro-Bold;writing-mode:lr-tb;fill:#000000;fill-opacity:1;fill-rule:nonzero;stroke:none"
         id="path76"
         inkscape:connector-curvature="0" /></g><g
       id="g296"><g
         id="g279"><path
           inkscape:connector-curvature="0"
           id="path60"
           style="font-variant:normal;font-weight:bold;font-size:medium;font-family:'Maven Pro';-inkscape-font-specification:MavenPro-Bold;writing-mode:lr-tb;fill:#24af63;fill-opacity:1;fill-rule:nonzero;stroke:none"
           d="M -3.4332275e-7,130.09709 Q 8.18487,134.50433 24.974347,138.28196 q 16.789478,3.77763 30.011192,3.77763 22.455926,0 33.788823,-8.81448 11.332898,-8.81447 11.332898,-28.96184 V 32.927986 H 68.836858 v 65.059226 q 0,18.258558 -20.56711,18.258558 -4.617107,0 -9.444082,-1.04934 -4.826974,-1.04935 -7.555264,-2.51843 V 32.927986 H -3.4332275e-7 Z" /><path
           inkscape:connector-curvature="0"
           id="path62"
           style="font-variant:normal;font-weight:bold;font-size:medium;font-family:'Maven Pro';-inkscape-font-specification:MavenPro-Bold;writing-mode:lr-tb;fill:#24af63;fill-opacity:1;fill-rule:nonzero;stroke:none"
           d="m 135.7849,115.19643 h -15.53027 v 23.925 h 15.74014 v 2.51842 q 0.20987,23.92501 10.91316,33.15922 10.91316,9.44408 29.59145,9.44408 3.3579,0 7.3454,-0.6296 3.9875,-0.62961 6.50592,-1.46908 V 154.6517 q -2.30855,2.30855 -4.6171,3.35789 -2.30856,1.25921 -5.87632,1.25921 -5.87632,0 -9.23421,-3.14802 -3.3579,-3.14803 -3.3579,-10.70329 v -6.29606 h 23.08553 v -23.925 H 167.0553 V 32.927986 h -31.2704 z" /><path
           inkscape:connector-curvature="0"
           id="path64"
           style="font-variant:normal;font-weight:bold;font-size:medium;font-family:'Maven Pro';-inkscape-font-specification:MavenPro-Bold;writing-mode:lr-tb;fill:#24af63;fill-opacity:1;fill-rule:nonzero;stroke:none"
           d="m 213.22637,108.0609 h 64.00988 V 86.444446 h -64.00988 z" /></g><g
         id="g38"><g
           clip-path="url(#clipPath44)"
           id="g40"><g
             clip-path="url(#clipPath50)"
             id="g46"><g
               transform="translate(0,-0.0050354)"
               id="g52"><g
                 id="g54"><g
                   clip-path="url(#clipPath60)"
                   id="g56"><g
                     id="g62"><g
                       id="g64"><g
                         clip-path="url(#clipPath70)"
                         id="g66"><g
                           id="g72"><path
                             inkscape:connector-curvature="0"
                             id="path86"
                             style="fill:url(#linearGradient84);stroke:none"
                             d="M 237.867,108.066 216.336,86.449 h 61.094 v 21.617 z" /></g></g></g></g></g></g></g></g></g></g></g></g><g
     id="g402"><path
       inkscape:connector-curvature="0"
       id="path83"
       style="font-variant:normal;font-weight:bold;font-size:medium;font-family:'Maven Pro';-inkscape-font-specification:MavenPro-Bold;text-align:center;writing-mode:lr-tb;text-anchor:middle;fill:#000000;fill-opacity:1;fill-rule:nonzero;stroke:none;stroke-width:0.3772355"
       d="m -208.25219,-42.030293 q 6.5711,0 11.95465,-3.087624 5.38355,-3.008454 5.38355,-10.925437 l -0.0792,-18.921592 q -0.0792,-4.987699 -4.9877,-7.283625 -4.90853,-2.216755 -14.32974,-2.216755 -17.57571,0 -17.57571,13.696382 0,5.779398 3.56265,9.025361 3.64181,3.245964 10.76709,3.245964 2.92929,0 5.85857,-0.791699 2.92929,-0.712528 5.06687,-1.900076 v 2.533435 q 0,6.887776 -8.86702,6.887776 -3.4043,0 -7.04611,-1.266718 -3.56265,-1.187547 -5.70023,-2.929284 v 10.450419 q 2.13758,1.425057 6.49192,2.454265 4.43351,1.029208 9.50038,1.029208 z m -1.66256,-34.1222 q 4.11683,0 5.70023,0.554189 1.58339,0.554189 1.58339,2.216755 v 6.175247 q -2.77094,0.950039 -6.09607,0.950039 -3.87933,0 -5.70023,-1.187548 -1.74174,-1.108378 -1.74174,-3.562643 0,-2.295925 1.82091,-3.720982 1.90007,-1.425057 4.43351,-1.425057 z" /><path
       inkscape:connector-curvature="0"
       id="path85"
       style="font-variant:normal;font-weight:bold;font-size:medium;font-family:'Maven Pro';-inkscape-font-specification:MavenPro-Bold;text-align:center;writing-mode:lr-tb;text-anchor:middle;fill:#000000;fill-opacity:1;fill-rule:nonzero;stroke:none;stroke-width:0.3772355"
       d="m -139.87666,-84.306987 q -5.85857,0 -10.60876,2.295926 -4.75019,2.295925 -7.6003,6.887776 -2.77095,4.67102 -2.77095,11.321287 0,10.687928 5.70023,16.150646 5.70023,5.541889 15.20061,5.541889 3.32514,0 6.72944,-0.712528 3.4043,-0.633359 6.01691,-1.820907 v -10.133739 q -3.24597,1.425057 -5.7794,2.137586 -2.53344,0.791698 -5.06687,0.791698 -5.22521,0 -8.1545,-2.612605 -2.92928,-2.533434 -2.92928,-7.996153 0,-6.096078 2.69178,-9.025362 2.77094,-2.929284 8.94619,-2.929284 4.67102,0 10.37125,3.166794 v -10.05457 q -2.85012,-1.504227 -5.93774,-2.216755 -3.00846,-0.791699 -6.80861,-0.791699 z" /><path
       inkscape:connector-curvature="0"
       id="path87"
       style="font-variant:normal;font-weight:bold;font-size:medium;font-family:'Maven Pro';-inkscape-font-specification:MavenPro-Bold;text-align:center;writing-mode:lr-tb;text-anchor:middle;fill:#000000;fill-opacity:1;fill-rule:nonzero;stroke:none;stroke-width:0.3772355"
       d="m -100.84964,-84.465326 q -10.13374,0 -15.20061,5.383549 -5.06687,5.383549 -5.06687,15.992307 0,11.083777 4.9877,16.150647 5.06687,5.06687 15.27978,5.06687 10.21291,0 15.35895,-5.22521 5.146039,-5.146039 5.146039,-15.992307 0,-10.450419 -5.304379,-15.913137 -5.304379,-5.462719 -15.20061,-5.462719 z m 0,9.421211 q 4.354342,0 6.571098,3.008453 2.216755,3.087624 2.216755,8.946192 0,6.412757 -2.216755,9.104531 -2.137586,2.770945 -6.571098,2.770945 -4.59185,0 -6.65027,-2.770945 -1.97924,-2.691774 -1.97924,-9.104531 0,-6.096077 2.05841,-9.025361 2.13759,-2.929284 6.5711,-2.929284 z" /><path
       inkscape:connector-curvature="0"
       id="path89"
       style="font-variant:normal;font-weight:bold;font-size:medium;font-family:'Maven Pro';-inkscape-font-specification:MavenPro-Bold;text-align:center;writing-mode:lr-tb;text-anchor:middle;fill:#000000;fill-opacity:1;fill-rule:nonzero;stroke:none;stroke-width:0.3772355"
       d="m -26.600705,-42.109463 q 8.392003,0 12.429664,-3.325133 4.037662,-3.245963 4.037662,-10.925438 v -26.917745 h -11.796306 v 24.54265 q 0,6.887776 -7.758644,6.887776 -3.245963,0 -5.462719,-1.504227 0.15834,-1.900076 0.15834,-3.008454 v -26.917745 h -11.796306 v 24.54265 q 0,6.887776 -7.758644,6.887776 -3.166793,0 -5.858568,-1.345887 v -30.084539 h -11.796306 v 36.655635 q 3.087624,1.662567 9.421211,3.087624 6.333587,1.425057 11.321287,1.425057 7.996153,0 11.796306,-2.850114 3.087623,1.345887 6.491926,2.058416 3.483473,0.791698 6.571097,0.791698 z" /><path
       inkscape:connector-curvature="0"
       id="path91"
       style="font-variant:normal;font-weight:bold;font-size:medium;font-family:'Maven Pro';-inkscape-font-specification:MavenPro-Bold;text-align:center;writing-mode:lr-tb;text-anchor:middle;fill:#000000;fill-opacity:1;fill-rule:nonzero;stroke:none;stroke-width:0.3772355"
       d="m 45.920093,-42.109463 q 8.392002,0 12.429664,-3.325133 4.037662,-3.245963 4.037662,-10.925438 V -83.277779 H 50.591113 v 24.54265 q 0,6.887776 -7.758644,6.887776 -3.245963,0 -5.462719,-1.504227 0.15834,-1.900076 0.15834,-3.008454 V -83.277779 H 25.731784 v 24.54265 q 0,6.887776 -7.758644,6.887776 -3.166794,0 -5.858568,-1.345887 V -83.277779 H 0.31826593 v 36.655635 q 3.08762367,1.662567 9.42121067,3.087624 6.3335874,1.425057 11.3212864,1.425057 7.996154,0 11.796306,-2.850114 3.087624,1.345887 6.491927,2.058416 3.483473,0.791698 6.571097,0.791698 z" /><path
       inkscape:connector-curvature="0"
       id="path93"
       style="font-variant:normal;font-weight:bold;font-size:medium;font-family:'Maven Pro';-inkscape-font-specification:MavenPro-Bold;text-align:center;writing-mode:lr-tb;text-anchor:middle;fill:#000000;fill-opacity:1;fill-rule:nonzero;stroke:none;stroke-width:0.3772355"
       d="m 91.6815,-84.465326 q -8.787852,0 -13.854721,4.116831 -4.9877,4.116832 -4.9877,12.350495 v 24.780159 h 11.796306 v -23.830121 q 0,-3.800152 1.662566,-5.700228 1.741737,-1.820906 5.462719,-1.820906 3.720983,0 5.383549,1.820906 1.741737,1.900076 1.741737,5.700228 v 23.830121 H 109.96973 V -67.998 q 0,-8.312833 -4.82936,-12.429664 -4.75019,-4.037662 -13.45887,-4.037662 z" /><path
       inkscape:connector-curvature="0"
       id="path95"
       style="font-variant:normal;font-weight:bold;font-size:medium;font-family:'Maven Pro';-inkscape-font-specification:MavenPro-Bold;text-align:center;writing-mode:lr-tb;text-anchor:middle;fill:#000000;fill-opacity:1;fill-rule:nonzero;stroke:none;stroke-width:0.3772355"
       d="m 120.46469,-46.622144 q 3.08762,1.662567 9.42121,3.087624 6.33359,1.425057 11.32129,1.425057 8.47117,0 12.74634,-3.325133 4.27517,-3.325133 4.27517,-10.925438 v -26.917745 h -11.7963 v 24.54265 q 0,6.887776 -7.75865,6.887776 -1.74173,0 -3.56264,-0.395849 -1.82091,-0.395849 -2.85011,-0.950038 v -30.084539 h -11.79631 z" /><path
       inkscape:connector-curvature="0"
       id="path97"
       style="font-variant:normal;font-weight:bold;font-size:medium;font-family:'Maven Pro';-inkscape-font-specification:MavenPro-Bold;text-align:center;writing-mode:lr-tb;text-anchor:middle;fill:#000000;fill-opacity:1;fill-rule:nonzero;stroke:none;stroke-width:0.3772355"
       d="m 168.7088,-28.65059 h 12.19215 v -9.104532 H 168.7088 Z m 0.23751,-15.121439 h 11.7963 l 0.0792,-39.50575 h -11.87547 z" /><path
       inkscape:connector-curvature="0"
       id="path99"
       style="font-variant:normal;font-weight:bold;font-size:medium;font-family:'Maven Pro';-inkscape-font-specification:MavenPro-Bold;text-align:center;writing-mode:lr-tb;text-anchor:middle;fill:#000000;fill-opacity:1;fill-rule:nonzero;stroke:none;stroke-width:0.3772355"
       d="m 207.67273,-84.861175 q -6.88777,0 -10.37125,3.245963 -3.4043,3.245963 -3.4043,9.342041 v 20.029969 h -5.85857 v 9.025361 h 5.85857 v 11.004608 h 12.35049 v -11.004608 h 8.78786 v -9.025361 h -8.78786 v -18.525742 q 0,-2.058416 0.87087,-3.087624 0.87087,-0.950038 2.92929,-0.950038 1.26671,0 2.6126,0.395849 1.34589,0.475019 2.3751,1.266718 v -10.05457 q -3.00846,-1.662566 -7.3628,-1.662566 z" /><path
       inkscape:connector-curvature="0"
       id="path101"
       style="font-variant:normal;font-weight:bold;font-size:medium;font-family:'Maven Pro';-inkscape-font-specification:MavenPro-Bold;text-align:center;writing-mode:lr-tb;text-anchor:middle;fill:#000000;fill-opacity:1;fill-rule:nonzero;stroke:none;stroke-width:0.3772355"
       d="m 263.73365,-43.217841 -15.7548,-40.693296 q -5.77939,-14.88393 -15.35895,-14.88393 -4.11683,0 -7.12528,1.425057 v 9.579551 q 2.37509,-0.870869 4.67102,-0.870869 2.37509,0 3.95849,1.345888 1.66257,1.345887 2.61261,4.433511 l -16.07148,39.664088 h 13.45887 l 8.47117,-26.284386 8.47118,26.284386 z" /><path
       inkscape:connector-curvature="0"
       id="path103"
       style="font-variant:normal;font-weight:bold;font-size:medium;font-family:'Maven Pro';-inkscape-font-specification:MavenPro-Bold;text-align:center;writing-mode:lr-tb;text-anchor:middle;fill:#000000;fill-opacity:1;fill-rule:nonzero;stroke:none;stroke-width:0.3772355"
       d="m 310.45499,-41.871953 q 18.76325,0 18.52574,-24.46348 h -26.44272 q 1.50422,-8.312833 11.16294,-8.312833 2.92929,0 5.70023,0.791698 2.85011,0.870868 6.01691,2.216756 v -10.13374 q -6.49193,-2.691774 -14.56725,-2.691774 -6.09608,0 -10.68793,2.454265 -4.59185,2.533435 -7.12529,7.204455 -2.53343,4.67102 -2.53343,11.004608 0,10.450418 5.14604,16.150646 5.22521,5.779399 14.80476,5.779399 z m -0.47502,-9.025362 q -6.33359,0 -7.52113,-7.916984 h 14.80476 q -0.55419,4.275172 -2.29593,6.096078 -1.66257,1.820906 -4.9877,1.820906 z" /><path
       inkscape:connector-curvature="0"
       id="path105"
       style="font-variant:normal;font-weight:bold;font-size:medium;font-family:'Maven Pro';-inkscape-font-specification:MavenPro-Bold;text-align:center;writing-mode:lr-tb;text-anchor:middle;fill:#000000;fill-opacity:1;fill-rule:nonzero;stroke:none;stroke-width:0.3772355"
       d="m 340.26242,-52.243202 h -5.85857 v 9.025361 h 5.93774 v 0.950038 q 0.0792,9.025362 4.11683,12.508835 4.11683,3.562643 11.16295,3.562643 1.26672,0 2.77094,-0.23751 1.50423,-0.237509 2.45427,-0.554189 v -10.371249 q -0.87087,0.870869 -1.74174,1.266718 -0.87087,0.475019 -2.21675,0.475019 -2.21676,0 -3.48348,-1.187548 -1.26672,-1.187547 -1.26672,-4.037661 v -2.375096 h 8.70869 v -9.025361 h -8.78785 v -31.034577 h -11.79631 z" /><path
       inkscape:connector-curvature="0"
       id="path107"
       style="font-variant:normal;font-weight:bold;font-size:medium;font-family:'Maven Pro';-inkscape-font-specification:MavenPro-Bold;text-align:center;writing-mode:lr-tb;text-anchor:middle;fill:#000000;fill-opacity:1;fill-rule:nonzero;stroke:none;stroke-width:0.3772355"
       d="m 371.4974,-52.243202 h -5.85856 v 9.025361 h 5.93773 v 0.950038 q 0.0792,9.025362 4.11684,12.508835 4.11683,3.562643 11.16294,3.562643 1.26672,0 2.77095,-0.23751 1.50422,-0.237509 2.45426,-0.554189 v -10.371249 q -0.87087,0.870869 -1.74173,1.266718 -0.87087,0.475019 -2.21676,0.475019 -2.21675,0 -3.48347,-1.187548 -1.26672,-1.187547 -1.26672,-4.037661 v -2.375096 h 8.70868 v -9.025361 h -8.78785 V -83.277779 H 371.4974 Z" /><path
       inkscape:connector-curvature="0"
       id="path109"
       style="font-variant:normal;font-weight:bold;font-size:medium;font-family:'Maven Pro';-inkscape-font-specification:MavenPro-Bold;text-align:center;writing-mode:lr-tb;text-anchor:middle;fill:#000000;fill-opacity:1;fill-rule:nonzero;stroke:none;stroke-width:0.3772355"
       d="m 416.383,-84.465326 q -10.13374,0 -15.20061,5.383549 -5.06687,5.383549 -5.06687,15.992307 0,11.083777 4.9877,16.150647 5.06687,5.06687 15.27978,5.06687 10.21291,0 15.35895,-5.22521 5.14603,-5.146039 5.14603,-15.992307 0,-10.450419 -5.30437,-15.913137 -5.30438,-5.462719 -15.20061,-5.462719 z m 0,9.421211 q 4.35434,0 6.57109,3.008453 2.21676,3.087624 2.21676,8.946192 0,6.412757 -2.21676,9.104531 -2.13758,2.770945 -6.57109,2.770945 -4.59185,0 -6.65027,-2.770945 -1.97925,-2.691774 -1.97925,-9.104531 0,-6.096077 2.05842,-9.025361 2.13759,-2.929284 6.5711,-2.929284 z" /><path
       inkscape:connector-curvature="0"
       id="path111"
       style="font-variant:normal;font-weight:bold;font-size:medium;font-family:'Maven Pro';-inkscape-font-specification:MavenPro-Bold;text-align:center;writing-mode:lr-tb;text-anchor:middle;fill:#000000;fill-opacity:1;fill-rule:nonzero;stroke:none;stroke-width:0.3772355"
       d="m 445.03009,-47.413842 q 1.18755,1.029208 4.11683,2.295925 3.00845,1.266718 6.65027,2.137586 3.72098,0.950038 7.12528,0.950038 6.5711,0 9.10453,-1.979246 v -8.629512 q -3.16679,0.712528 -9.10453,0.712528 -3.72098,0 -6.09608,-0.395849 v -30.955407 h -11.7963 z" /><path
       inkscape:connector-curvature="0"
       id="path113"
       style="font-variant:normal;font-weight:bold;font-size:medium;font-family:'Maven Pro';-inkscape-font-specification:MavenPro-Bold;text-align:center;writing-mode:lr-tb;text-anchor:middle;fill:#000000;fill-opacity:1;fill-rule:nonzero;stroke:none;stroke-width:0.3772355"
       d="m 495.28189,-84.861175 q -6.88777,0 -10.37125,3.245963 -3.4043,3.245963 -3.4043,9.342041 v 20.029969 h -5.85857 v 9.025361 h 5.85857 v 11.004608 h 12.3505 v -11.004608 h 8.78785 v -9.025361 h -8.78785 v -18.525742 q 0,-2.058416 0.87086,-3.087624 0.87087,-0.950038 2.92929,-0.950038 1.26671,0 2.6126,0.395849 1.34589,0.475019 2.3751,1.266718 v -10.05457 q -3.00846,-1.662566 -7.3628,-1.662566 z" /><path
       inkscape:connector-curvature="0"
       id="path115"
       style="font-variant:normal;font-weight:bold;font-size:medium;font-family:'Maven Pro';-inkscape-font-specification:MavenPro-Bold;text-align:center;writing-mode:lr-tb;text-anchor:middle;fill:#000000;fill-opacity:1;fill-rule:nonzero;stroke:none;stroke-width:0.3772355"
       d="m 536.33145,-52.243202 h -5.85857 v 9.025361 h 5.93774 v 0.950038 q 0.0792,9.025362 4.11683,12.508835 4.11683,3.562643 11.16295,3.562643 1.26672,0 2.77094,-0.23751 1.50423,-0.237509 2.45427,-0.554189 v -10.371249 q -0.87087,0.870869 -1.74174,1.266718 -0.87087,0.475019 -2.21675,0.475019 -2.21676,0 -3.48348,-1.187548 -1.26671,-1.187547 -1.26671,-4.037661 v -2.375096 h 8.70868 v -9.025361 h -8.78785 v -31.034577 h -11.79631 z" /><path
       inkscape:connector-curvature="0"
       id="path117"
       style="font-variant:normal;font-weight:bold;font-size:medium;font-family:'Maven Pro';-inkscape-font-specification:MavenPro-Bold;text-align:center;writing-mode:lr-tb;text-anchor:middle;fill:#000000;fill-opacity:1;fill-rule:nonzero;stroke:none;stroke-width:0.3772355"
       d="m 581.21704,-84.465326 q -10.13374,0 -15.20061,5.383549 -5.06687,5.383549 -5.06687,15.992307 0,11.083777 4.9877,16.150647 5.06687,5.06687 15.27978,5.06687 10.21291,0 15.35895,-5.22521 5.14604,-5.146039 5.14604,-15.992307 0,-10.450419 -5.30438,-15.913137 -5.30438,-5.462719 -15.20061,-5.462719 z m 0,9.421211 q 4.35434,0 6.5711,3.008453 2.21675,3.087624 2.21675,8.946192 0,6.412757 -2.21675,9.104531 -2.13759,2.770945 -6.5711,2.770945 -4.59185,0 -6.65026,-2.770945 -1.97925,-2.691774 -1.97925,-9.104531 0,-6.096077 2.05842,-9.025361 2.13758,-2.929284 6.57109,-2.929284 z" /><path
       inkscape:connector-curvature="0"
       id="path119"
       style="font-variant:normal;font-weight:bold;font-size:medium;font-family:'Maven Pro';-inkscape-font-specification:MavenPro-Bold;text-align:center;writing-mode:lr-tb;text-anchor:middle;fill:#000000;fill-opacity:1;fill-rule:nonzero;stroke:none;stroke-width:0.3772355"
       d="m 609.86419,-47.413842 q 1.18755,1.029208 4.11684,2.295925 3.00845,1.266718 6.65026,2.137586 3.72099,0.950038 7.12529,0.950038 6.57109,0 9.10453,-1.979246 v -8.629512 q -3.16679,0.712528 -9.10453,0.712528 -3.72098,0 -6.09608,-0.395849 v -30.955407 h -11.79631 z" /><path
       inkscape:connector-curvature="0"
       id="path121"
       style="font-variant:normal;font-weight:bold;font-size:medium;font-family:'Maven Pro';-inkscape-font-specification:MavenPro-Bold;text-align:center;writing-mode:lr-tb;text-anchor:middle;fill:#000000;fill-opacity:1;fill-rule:nonzero;stroke:none;stroke-width:0.3772355"
       d="m 684.29371,-84.306987 q -5.85857,0 -10.60876,2.295926 -4.75019,2.295925 -7.60031,6.887776 -2.77094,4.67102 -2.77094,11.321287 0,10.687928 5.70023,16.150646 5.70023,5.541889 15.20061,5.541889 3.32513,0 6.72943,-0.712528 3.40431,-0.633359 6.01691,-1.820907 v -10.133739 q -3.24596,1.425057 -5.7794,2.137586 -2.53343,0.791698 -5.06687,0.791698 -5.22521,0 -8.15449,-2.612605 -2.92928,-2.533434 -2.92928,-7.996153 0,-6.096078 2.69177,-9.025362 2.77094,-2.929284 8.94619,-2.929284 4.67102,0 10.37125,3.166794 v -10.05457 q -2.85011,-1.504227 -5.93774,-2.216755 -3.00845,-0.791699 -6.8086,-0.791699 z" /><path
       inkscape:connector-curvature="0"
       id="path123"
       style="font-variant:normal;font-weight:bold;font-size:medium;font-family:'Maven Pro';-inkscape-font-specification:MavenPro-Bold;text-align:center;writing-mode:lr-tb;text-anchor:middle;fill:#000000;fill-opacity:1;fill-rule:nonzero;stroke:none;stroke-width:0.3772355"
       d="m 723.32074,-84.465326 q -10.13374,0 -15.20061,5.383549 -5.06687,5.383549 -5.06687,15.992307 0,11.083777 4.9877,16.150647 5.06687,5.06687 15.27978,5.06687 10.21291,0 15.35895,-5.22521 5.14604,-5.146039 5.14604,-15.992307 0,-10.450419 -5.30438,-15.913137 -5.30438,-5.462719 -15.20061,-5.462719 z m 0,9.421211 q 4.35434,0 6.5711,3.008453 2.21675,3.087624 2.21675,8.946192 0,6.412757 -2.21675,9.104531 -2.13759,2.770945 -6.5711,2.770945 -4.59185,0 -6.65027,-2.770945 -1.97924,-2.691774 -1.97924,-9.104531 0,-6.096077 2.05841,-9.025361 2.13759,-2.929284 6.5711,-2.929284 z" /><path
       inkscape:connector-curvature="0"
       id="path125"
       style="font-variant:normal;font-weight:bold;font-size:medium;font-family:'Maven Pro';-inkscape-font-specification:MavenPro-Bold;text-align:center;writing-mode:lr-tb;text-anchor:middle;fill:#000000;fill-opacity:1;fill-rule:nonzero;stroke:none;stroke-width:0.3772355"
       d="m 751.96783,-83.277779 v 55.181377 h 11.71714 v -55.181377 z" /><path
       inkscape:connector-curvature="0"
       id="path127"
       style="font-variant:normal;font-weight:bold;font-size:medium;font-family:'Maven Pro';-inkscape-font-specification:MavenPro-Bold;text-align:center;writing-mode:lr-tb;text-anchor:middle;fill:#000000;fill-opacity:1;fill-rule:nonzero;stroke:none;stroke-width:0.3772355"
       d="m 774.07977,-83.277779 v 55.181377 h 11.71714 v -55.181377 z" /><path
       inkscape:connector-curvature="0"
       id="path129"
       style="font-variant:normal;font-weight:bold;font-size:medium;font-family:'Maven Pro';-inkscape-font-specification:MavenPro-Bold;text-align:center;writing-mode:lr-tb;text-anchor:middle;fill:#000000;fill-opacity:1;fill-rule:nonzero;stroke:none;stroke-width:0.3772355"
       d="m 813.68818,-42.030293 q 6.5711,0 11.95465,-3.087624 5.38355,-3.008454 5.38355,-10.925437 l -0.0792,-18.921592 q -0.0792,-4.987699 -4.9877,-7.283625 -4.90853,-2.216755 -14.32974,-2.216755 -17.57571,0 -17.57571,13.696382 0,5.779398 3.56265,9.025361 3.64181,3.245964 10.76709,3.245964 2.92929,0 5.85857,-0.791699 2.92929,-0.712528 5.06687,-1.900076 v 2.533435 q 0,6.887776 -8.86702,6.887776 -3.4043,0 -7.04612,-1.266718 -3.56264,-1.187547 -5.70022,-2.929284 v 10.450419 q 2.13758,1.425057 6.49192,2.454265 4.43351,1.029208 9.50038,1.029208 z m -1.66256,-34.1222 q 4.11683,0 5.70022,0.554189 1.5834,0.554189 1.5834,2.216755 v 6.175247 q -2.77094,0.950039 -6.09608,0.950039 -3.87932,0 -5.70022,-1.187548 -1.74174,-1.108378 -1.74174,-3.562643 0,-2.295925 1.82091,-3.720982 1.90007,-1.425057 4.43351,-1.425057 z" /><path
       inkscape:connector-curvature="0"
       id="path131"
       style="font-variant:normal;font-weight:bold;font-size:medium;font-family:'Maven Pro';-inkscape-font-specification:MavenPro-Bold;text-align:center;writing-mode:lr-tb;text-anchor:middle;fill:#000000;fill-opacity:1;fill-rule:nonzero;stroke:none;stroke-width:0.3772355"
       d="m 862.79455,-42.109463 q 8.78785,0 13.45887,-5.383549 4.67102,-5.383549 4.67102,-15.596458 -0.0792,-21.375856 -21.05918,-21.375856 -18.3674,0 -18.3674,10.450418 v 45.601827 h 11.5588 v -16.229817 q 2.13758,1.266718 4.82936,1.900076 2.77094,0.633359 4.90853,0.633359 z m -3.08763,-32.538803 q 9.42122,0 9.42122,10.846268 0,12.271324 -9.18371,12.271324 -1.66256,0 -3.56264,-0.475019 -1.90007,-0.395849 -3.32513,-1.187547 v -17.734044 q 0,-3.720982 6.65026,-3.720982 z" /><path
       inkscape:connector-curvature="0"
       id="path133"
       style="font-variant:normal;font-weight:bold;font-size:medium;font-family:'Maven Pro';-inkscape-font-specification:MavenPro-Bold;text-align:center;writing-mode:lr-tb;text-anchor:middle;fill:#000000;fill-opacity:1;fill-rule:nonzero;stroke:none;stroke-width:0.3772355"
       d="m 907.17407,-84.465326 q -10.13374,0 -15.20061,5.383549 -5.06687,5.383549 -5.06687,15.992307 0,11.083777 4.9877,16.150647 5.06687,5.06687 15.27978,5.06687 10.21291,0 15.35895,-5.22521 5.14604,-5.146039 5.14604,-15.992307 0,-10.450419 -5.30438,-15.913137 -5.30438,-5.462719 -15.20061,-5.462719 z m 0,9.421211 q 4.35434,0 6.5711,3.008453 2.21676,3.087624 2.21676,8.946192 0,6.412757 -2.21676,9.104531 -2.13759,2.770945 -6.5711,2.770945 -4.59185,0 -6.65026,-2.770945 -1.97925,-2.691774 -1.97925,-9.104531 0,-6.096077 2.05842,-9.025361 2.13758,-2.929284 6.57109,-2.929284 z" /><path
       inkscape:connector-curvature="0"
       id="path135"
       style="font-variant:normal;font-weight:bold;font-size:medium;font-family:'Maven Pro';-inkscape-font-specification:MavenPro-Bold;text-align:center;writing-mode:lr-tb;text-anchor:middle;fill:#000000;fill-opacity:1;fill-rule:nonzero;stroke:none;stroke-width:0.3772355"
       d="m 935.82123,-47.413842 q 1.18754,1.029208 4.11683,2.295925 3.00845,1.266718 6.65026,2.137586 3.72099,0.950038 7.12529,0.950038 6.5711,0 9.10453,-1.979246 v -8.629512 q -3.16679,0.712528 -9.10453,0.712528 -3.72098,0 -6.09608,-0.395849 v -30.955407 h -11.7963 z" /><path
       inkscape:connector-curvature="0"
       id="path137"
       style="font-variant:normal;font-weight:bold;font-size:medium;font-family:'Maven Pro';-inkscape-font-specification:MavenPro-Bold;text-align:center;writing-mode:lr-tb;text-anchor:middle;fill:#000000;fill-opacity:1;fill-rule:nonzero;stroke:none;stroke-width:0.3772355"
       d="m 987.18141,-42.030293 q 6.57109,0 11.95464,-3.087624 5.38355,-3.008454 5.38355,-10.925437 l -0.079,-18.921592 q -0.079,-4.987699 -4.98767,-7.283625 -4.90853,-2.216755 -14.32974,-2.216755 -17.5757,0 -17.5757,13.696382 0,5.779398 3.56264,9.025361 3.64181,3.245964 10.7671,3.245964 2.92928,0 5.85857,-0.791699 2.92928,-0.712528 5.06687,-1.900076 v 2.533435 q 0,6.887776 -8.86703,6.887776 -3.4043,0 -7.04611,-1.266718 -3.56264,-1.187547 -5.70023,-2.929284 v 10.450419 q 2.13759,1.425057 6.49193,2.454265 4.43351,1.029208 9.50038,1.029208 z m -1.66257,-34.1222 q 4.11683,0 5.70023,0.554189 1.5834,0.554189 1.5834,2.216755 v 6.175247 q -2.77095,0.950039 -6.09608,0.950039 -3.87932,0 -5.70023,-1.187548 -1.74174,-1.108378 -1.74174,-3.562643 0,-2.295925 1.82091,-3.720982 1.90008,-1.425057 4.43351,-1.425057 z" /><path
       inkscape:connector-curvature="0"
       id="path139"
       style="font-variant:normal;font-weight:bold;font-size:medium;font-family:'Maven Pro';-inkscape-font-specification:MavenPro-Bold;text-align:center;writing-mode:lr-tb;text-anchor:middle;fill:#000000;fill-opacity:1;fill-rule:nonzero;stroke:none;stroke-width:0.3772355"
       d="m 1031.3792,-84.861175 q -6.8878,0 -10.3713,3.245963 -3.4043,3.245963 -3.4043,9.342041 v 20.029969 h -5.8585 v 9.025361 h 5.8585 v 11.004608 h 12.3505 v -11.004608 h 8.7879 v -9.025361 h -8.7879 v -18.525742 q 0,-2.058416 0.8709,-3.087624 0.8709,-0.950038 2.9293,-0.950038 1.2667,0 2.6126,0.395849 1.3459,0.475019 2.3751,1.266718 v -10.05457 q -3.0085,-1.662566 -7.3628,-1.662566 z" /><path
       inkscape:connector-curvature="0"
       id="path141"
       style="font-variant:normal;font-weight:bold;font-size:medium;font-family:'Maven Pro';-inkscape-font-specification:MavenPro-Bold;text-align:center;writing-mode:lr-tb;text-anchor:middle;fill:#000000;fill-opacity:1;fill-rule:nonzero;stroke:none;stroke-width:0.3772355"
       d="m 1047.6177,-28.65059 h 12.1922 v -9.104532 h -12.1922 z m 0.2375,-15.121439 h 11.7964 l 0.079,-39.50575 h -11.8755 z" /><path
       inkscape:connector-curvature="0"
       id="path143"
       style="font-variant:normal;font-weight:bold;font-size:medium;font-family:'Maven Pro';-inkscape-font-specification:MavenPro-Bold;text-align:center;writing-mode:lr-tb;text-anchor:middle;fill:#000000;fill-opacity:1;fill-rule:nonzero;stroke:none;stroke-width:0.3772355"
       d="m 1112.1536,-43.217841 -16.7049,-40.059938 h -11.7963 l -16.7048,40.059938 h 12.7463 l 10.6088,-27.076084 9.4212,27.076084 z" /><path
       inkscape:connector-curvature="0"
       id="path145"
       style="font-variant:normal;font-weight:bold;font-size:medium;font-family:'Maven Pro';-inkscape-font-specification:MavenPro-Bold;text-align:center;writing-mode:lr-tb;text-anchor:middle;fill:#000000;fill-opacity:1;fill-rule:nonzero;stroke:none;stroke-width:0.3772355"
       d="m 1134.6253,-41.871953 q 18.7633,0 18.5258,-24.46348 h -26.4427 q 1.5042,-8.312833 11.1629,-8.312833 2.9293,0 5.7002,0.791698 2.8501,0.870868 6.0169,2.216756 v -10.13374 q -6.4919,-2.691774 -14.5672,-2.691774 -6.0961,0 -10.6879,2.454265 -4.5919,2.533435 -7.1253,7.204455 -2.5335,4.67102 -2.5335,11.004608 0,10.450418 5.1461,16.150646 5.2252,5.779399 14.8047,5.779399 z m -0.475,-9.025362 q -6.3336,0 -7.5211,-7.916984 h 14.8047 q -0.5541,4.275172 -2.2959,6.096078 -1.6625,1.820906 -4.9877,1.820906 z" /><path
       inkscape:connector-curvature="0"
       id="path147"
       style="font-variant:normal;font-weight:bold;font-size:medium;font-family:'Maven Pro';-inkscape-font-specification:MavenPro-Bold;text-align:center;writing-mode:lr-tb;text-anchor:middle;fill:#000000;fill-opacity:1;fill-rule:nonzero;stroke:none;stroke-width:0.3772355"
       d="m -133.29752,-145.70406 q 9.65872,0 14.9631,-5.06687 5.30438,-4.9877 5.30438,-16.70484 0,-9.42121 -4.7502,-15.12144 -4.75019,-5.70023 -12.98385,-5.70023 -6.01691,0 -10.05457,2.13759 v -15.27978 h -11.55879 v 45.91851 q 0,4.82936 5.30437,7.28362 5.38355,2.45427 13.77556,2.53344 z m -0.95004,-33.093 q 4.82936,0 7.12528,2.69178 2.29593,2.69177 2.29593,9.02536 0,5.70023 -2.05842,8.55034 -1.97924,2.92929 -6.88777,2.92929 -7.04612,0 -7.04612,-2.69178 v -18.84242 q 1.42506,-0.87087 3.1668,-1.26672 1.74173,-0.39585 3.4043,-0.39585 z" /><path
       inkscape:connector-curvature="0"
       id="path149"
       style="font-variant:normal;font-weight:bold;font-size:medium;font-family:'Maven Pro';-inkscape-font-specification:MavenPro-Bold;text-align:center;writing-mode:lr-tb;text-anchor:middle;fill:#000000;fill-opacity:1;fill-rule:nonzero;stroke:none;stroke-width:0.3772355"
       d="m -87.017804,-145.70406 q 18.763252,0 18.525742,-24.46348 h -26.442726 q 1.504227,-8.31284 11.162947,-8.31284 2.929284,0 5.700229,0.7917 2.850114,0.87087 6.016907,2.21676 v -10.13374 q -6.491926,-2.69178 -14.56725,-2.69178 -6.096077,0 -10.687928,2.45427 -4.591847,2.53343 -7.125287,7.20445 -2.53343,4.67102 -2.53343,11.00461 0,10.45042 5.14604,16.15065 5.225206,5.7794 14.804756,5.7794 z m -0.475019,-9.02537 q -6.333587,0 -7.521135,-7.91698 h 14.80476 q -0.554189,4.27517 -2.295925,6.09608 -1.662567,1.8209 -4.9877,1.8209 z" /><path
       inkscape:connector-curvature="0"
       id="path151"
       style="font-variant:normal;font-weight:bold;font-size:medium;font-family:'Maven Pro';-inkscape-font-specification:MavenPro-Bold;text-align:center;writing-mode:lr-tb;text-anchor:middle;fill:#000000;fill-opacity:1;fill-rule:nonzero;stroke:none;stroke-width:0.3772355"
       d="m -42.484765,-145.70406 q 18.763252,0 18.525742,-24.46348 h -26.442726 q 1.504227,-8.31284 11.162947,-8.31284 2.929284,0 5.700229,0.7917 2.850114,0.87087 6.016907,2.21676 v -10.13374 q -6.491926,-2.69178 -14.56725,-2.69178 -6.096077,0 -10.687928,2.45427 -4.591851,2.53343 -7.125285,7.20445 -2.533435,4.67102 -2.533435,11.00461 0,10.45042 5.146039,16.15065 5.22521,5.7794 14.80476,5.7794 z m -0.475019,-9.02537 q -6.333587,0 -7.521135,-7.91698 h 14.80476 q -0.554189,4.27517 -2.295925,6.09608 -1.662567,1.8209 -4.9877,1.8209 z" /><path
       inkscape:connector-curvature="0"
       id="path153"
       style="font-variant:normal;font-weight:bold;font-size:medium;font-family:'Maven Pro';-inkscape-font-specification:MavenPro-Bold;text-align:center;writing-mode:lr-tb;text-anchor:middle;fill:#000000;fill-opacity:1;fill-rule:nonzero;stroke:none;stroke-width:0.3772355"
       d="m -15.685773,-151.24595 q 1.187547,1.0292 4.116831,2.29592 3.008454,1.26672 6.6502666,2.13759 3.7209823,0.95004 7.1252854,0.95004 6.5710965,0 9.104531,-1.97925 v -8.62951 q -3.1667932,0.71253 -9.104531,0.71253 -3.7209824,0 -6.0960776,-0.39585 v -30.95541 H -15.685773 Z" /><path
       inkscape:connector-curvature="0"
       id="path155"
       style="font-variant:normal;font-weight:bold;font-size:medium;font-family:'Maven Pro';-inkscape-font-specification:MavenPro-Bold;text-align:center;writing-mode:lr-tb;text-anchor:middle;fill:#000000;fill-opacity:1;fill-rule:nonzero;stroke:none;stroke-width:0.3772355"
       d="m 19.207097,-158.76709 h 24.146801 v -8.15449 H 19.207097 Z" /><path
       inkscape:connector-curvature="0"
       id="path157"
       style="font-variant:normal;font-weight:bold;font-size:medium;font-family:'Maven Pro';-inkscape-font-specification:MavenPro-Bold;text-align:center;writing-mode:lr-tb;text-anchor:middle;fill:#000000;fill-opacity:1;fill-rule:nonzero;stroke:none;stroke-width:0.3772355"
       d="m 54.979495,-151.24595 q 1.187547,1.0292 4.116831,2.29592 3.008454,1.26672 6.650266,2.13759 3.720983,0.95004 7.125286,0.95004 6.571096,0 9.104531,-1.97925 v -8.62951 q -3.166793,0.71253 -9.104531,0.71253 -3.720982,0 -6.096078,-0.39585 v -30.95541 H 54.979495 Z" /><path
       inkscape:connector-curvature="0"
       id="path159"
       style="font-variant:normal;font-weight:bold;font-size:medium;font-family:'Maven Pro';-inkscape-font-specification:MavenPro-Bold;text-align:center;writing-mode:lr-tb;text-anchor:middle;fill:#000000;fill-opacity:1;fill-rule:nonzero;stroke:none;stroke-width:0.3772355"
       d="m 105.18554,-145.70406 q 18.76325,0 18.52574,-24.46348 H 97.268555 q 1.504226,-8.31284 11.162945,-8.31284 2.92929,0 5.70023,0.7917 2.85011,0.87087 6.01691,2.21676 v -10.13374 q -6.49193,-2.69178 -14.56725,-2.69178 -6.09608,0 -10.687931,2.45427 -4.59185,2.53343 -7.125285,7.20445 -2.533435,4.67102 -2.533435,11.00461 0,10.45042 5.14604,16.15065 5.225209,5.7794 14.804761,5.7794 z m -0.47502,-9.02537 q -6.333588,0 -7.521135,-7.91698 h 14.804755 q -0.55418,4.27517 -2.29592,6.09608 -1.66257,1.8209 -4.9877,1.8209 z" /><path
       inkscape:connector-curvature="0"
       id="path161"
       style="font-variant:normal;font-weight:bold;font-size:medium;font-family:'Maven Pro';-inkscape-font-specification:MavenPro-Bold;text-align:center;writing-mode:lr-tb;text-anchor:middle;fill:#000000;fill-opacity:1;fill-rule:nonzero;stroke:none;stroke-width:0.3772355"
       d="m 171.4705,-147.04995 -16.70484,-40.05994 h -11.7963 l -16.70484,40.05994 h 12.74635 l 10.60875,-27.07609 9.42121,27.07609 z" /><path
       inkscape:connector-curvature="0"
       id="path163"
       style="font-variant:normal;font-weight:bold;font-size:medium;font-family:'Maven Pro';-inkscape-font-specification:MavenPro-Bold;text-align:center;writing-mode:lr-tb;text-anchor:middle;fill:#000000;fill-opacity:1;fill-rule:nonzero;stroke:none;stroke-width:0.3772355"
       d="m 178.68236,-132.4827 h 12.19216 v -9.10453 h -12.19216 z m 0.23751,-15.12144 h 11.79631 l 0.0792,-39.50575 H 178.9199 Z" /><path
       inkscape:connector-curvature="0"
       id="path165"
       style="font-variant:normal;font-weight:bold;font-size:medium;font-family:'Maven Pro';-inkscape-font-specification:MavenPro-Bold;text-align:center;writing-mode:lr-tb;text-anchor:middle;fill:#000000;fill-opacity:1;fill-rule:nonzero;stroke:none;stroke-width:0.3772355"
       d="m 218.99218,-145.70406 q 18.76325,0 18.52574,-24.46348 H 211.0752 q 1.50422,-8.31284 11.16294,-8.31284 2.92929,0 5.70023,0.7917 2.85011,0.87087 6.01691,2.21676 v -10.13374 q -6.49193,-2.69178 -14.56725,-2.69178 -6.09608,0 -10.68793,2.45427 -4.59185,2.53343 -7.12529,7.20445 -2.53343,4.67102 -2.53343,11.00461 0,10.45042 5.14604,16.15065 5.22521,5.7794 14.80476,5.7794 z m -0.47502,-9.02537 q -6.33359,0 -7.52113,-7.91698 h 14.80476 q -0.55419,4.27517 -2.29593,6.09608 -1.66257,1.8209 -4.9877,1.8209 z" /><path
       inkscape:connector-curvature="0"
       id="path167"
       style="font-variant:normal;font-weight:bold;font-size:medium;font-family:'Maven Pro';-inkscape-font-specification:MavenPro-Bold;text-align:center;writing-mode:lr-tb;text-anchor:middle;fill:#000000;fill-opacity:1;fill-rule:nonzero;stroke:none;stroke-width:0.3772355"
       d="m 304.06016,-147.04995 -13.30054,-40.05994 H 280.0717 l -6.88778,22.48423 -6.5711,-22.48423 h -10.68793 l -13.3797,40.05994 h 12.66718 l 7.04611,-25.49269 6.65027,25.49269 h 8.70868 l 6.88778,-26.12605 7.12528,26.12605 z" /><path
       inkscape:connector-curvature="0"
       id="path169"
       style="font-variant:normal;font-weight:bold;font-size:medium;font-family:'Maven Pro';-inkscape-font-specification:MavenPro-Bold;text-align:center;writing-mode:lr-tb;text-anchor:middle;fill:#000000;fill-opacity:1;fill-rule:nonzero;stroke:none;stroke-width:0.3772355"
       d="m 326.45904,-145.70406 q 18.76325,0 18.52574,-24.46348 h -26.44273 q 1.50423,-8.31284 11.16295,-8.31284 2.92928,0 5.70023,0.7917 2.85011,0.87087 6.01691,2.21676 v -10.13374 q -6.49193,-2.69178 -14.56725,-2.69178 -6.09608,0 -10.68793,2.45427 -4.59185,2.53343 -7.12529,7.20445 -2.53343,4.67102 -2.53343,11.00461 0,10.45042 5.14604,16.15065 5.22521,5.7794 14.80476,5.7794 z m -0.47502,-9.02537 q -6.33359,0 -7.52114,-7.91698 h 14.80476 q -0.55419,4.27517 -2.29592,6.09608 -1.66257,1.8209 -4.9877,1.8209 z" /><path
       inkscape:connector-curvature="0"
       id="path171"
       style="font-variant:normal;font-weight:bold;font-size:medium;font-family:'Maven Pro';-inkscape-font-specification:MavenPro-Bold;text-align:center;writing-mode:lr-tb;text-anchor:middle;fill:#000000;fill-opacity:1;fill-rule:nonzero;stroke:none;stroke-width:0.3772355"
       d="m 391.02206,-130.58263 v -46.07684 q 0,-3.72098 -2.61261,-6.33359 -2.6126,-2.6126 -6.88777,-3.95849 -4.27518,-1.34589 -9.10454,-1.34589 -10.2129,0 -15.83396,4.82936 -5.54189,4.82936 -5.54189,16.70484 0,9.9754 4.82936,15.43812 4.90853,5.54189 14.32974,5.54189 5.62106,0 9.10453,-2.05842 v 17.25902 z m -11.71714,-26.36355 q -3.16679,1.66257 -6.17525,1.66257 -5.30438,0 -7.75864,-2.69178 -2.45427,-2.69177 -2.45427,-9.10453 0,-5.54189 2.29593,-8.47117 2.29592,-2.85012 7.67947,-2.85012 2.92929,0 4.67102,0.7917 1.74174,0.7917 1.74174,2.21676 z" /><path
       inkscape:connector-curvature="0"
       id="path173"
       style="font-variant:normal;font-weight:bold;font-size:medium;font-family:'Maven Pro';-inkscape-font-specification:MavenPro-Bold;text-align:center;writing-mode:lr-tb;text-anchor:middle;fill:#000000;fill-opacity:1;fill-rule:nonzero;stroke:none;stroke-width:0.3772355"
       d="m 440.80133,-145.8624 q 6.5711,0 11.95465,-3.08763 5.38355,-3.00845 5.38355,-10.92544 l -0.0792,-18.92159 q -0.0792,-4.9877 -4.9877,-7.28362 -4.90853,-2.21676 -14.32974,-2.21676 -17.57571,0 -17.57571,13.69638 0,5.7794 3.56264,9.02537 3.64182,3.24596 10.7671,3.24596 2.92929,0 5.85857,-0.7917 2.92928,-0.71253 5.06687,-1.90007 v 2.53343 q 0,6.88778 -8.86702,6.88778 -3.40431,0 -7.04612,-1.26672 -3.56264,-1.18755 -5.70023,-2.92929 v 10.45042 q 2.13759,1.42506 6.49193,2.45427 4.43351,1.02921 9.50038,1.02921 z m -1.66257,-34.1222 q 4.11684,0 5.70023,0.55418 1.5834,0.55419 1.5834,2.21676 v 6.17525 q -2.77094,0.95004 -6.09608,0.95004 -3.87932,0 -5.70023,-1.18755 -1.74173,-1.10838 -1.74173,-3.56264 0,-2.29593 1.8209,-3.72099 1.90008,-1.42505 4.43351,-1.42505 z" /><path
       inkscape:connector-curvature="0"
       id="path175"
       style="font-variant:normal;font-weight:bold;font-size:medium;font-family:'Maven Pro';-inkscape-font-specification:MavenPro-Bold;text-align:center;writing-mode:lr-tb;text-anchor:middle;fill:#000000;fill-opacity:1;fill-rule:nonzero;stroke:none;stroke-width:0.3772355"
       d="m 468.61095,-150.45425 q 3.08762,1.66256 9.42121,3.08762 6.33359,1.42506 11.32129,1.42506 8.47117,0 12.74634,-3.32514 4.27517,-3.32513 4.27517,-10.92543 v -26.91775 h -11.7963 v 24.54265 q 0,6.88778 -7.75865,6.88778 -1.74173,0 -3.56264,-0.39585 -1.82091,-0.39585 -2.85012,-0.95004 v -30.08454 h -11.7963 z" /><path
       inkscape:connector-curvature="0"
       id="path177"
       style="font-variant:normal;font-weight:bold;font-size:medium;font-family:'Maven Pro';-inkscape-font-specification:MavenPro-Bold;text-align:center;writing-mode:lr-tb;text-anchor:middle;fill:#000000;fill-opacity:1;fill-rule:nonzero;stroke:none;stroke-width:0.3772355"
       d="m 534.35162,-145.8624 q 6.5711,0 11.95465,-3.08763 5.38355,-3.00845 5.38355,-10.92544 l -0.0792,-18.92159 q -0.0792,-4.9877 -4.9877,-7.28362 -4.90853,-2.21676 -14.32974,-2.21676 -17.57571,0 -17.57571,13.69638 0,5.7794 3.56265,9.02537 3.64181,3.24596 10.76709,3.24596 2.92929,0 5.85857,-0.7917 2.92929,-0.71253 5.06687,-1.90007 v 2.53343 q 0,6.88778 -8.86702,6.88778 -3.4043,0 -7.04612,-1.26672 -3.56264,-1.18755 -5.70022,-2.92929 v 10.45042 q 2.13758,1.42506 6.49192,2.45427 4.43351,1.02921 9.50038,1.02921 z m -1.66256,-34.1222 q 4.11683,0 5.70023,0.55418 1.58339,0.55419 1.58339,2.21676 v 6.17525 q -2.77094,0.95004 -6.09608,0.95004 -3.87932,0 -5.70022,-1.18755 -1.74174,-1.10838 -1.74174,-3.56264 0,-2.29593 1.82091,-3.72099 1.90007,-1.42505 4.43351,-1.42505 z" /><path
       inkscape:connector-curvature="0"
       id="path179"
       style="font-variant:normal;font-weight:bold;font-size:medium;font-family:'Maven Pro';-inkscape-font-specification:MavenPro-Bold;text-align:center;writing-mode:lr-tb;text-anchor:middle;fill:#000000;fill-opacity:1;fill-rule:nonzero;stroke:none;stroke-width:0.3772355"
       d="m 562.16124,-187.10989 v 55.18138 h 11.71714 v -55.18138 z" /><path
       inkscape:connector-curvature="0"
       id="path181"
       style="font-variant:normal;font-weight:bold;font-size:medium;font-family:'Maven Pro';-inkscape-font-specification:MavenPro-Bold;text-align:center;writing-mode:lr-tb;text-anchor:middle;fill:#000000;fill-opacity:1;fill-rule:nonzero;stroke:none;stroke-width:0.3772355"
       d="m 624.09561,-147.04995 -15.7548,-40.6933 q -5.7794,-14.88393 -15.35895,-14.88393 -4.11683,0 -7.12528,1.42506 v 9.57955 q 2.37509,-0.87087 4.67102,-0.87087 2.37509,0 3.95849,1.34589 1.66257,1.34589 2.6126,4.43351 l -16.07147,39.66409 h 13.45887 l 8.47117,-26.28439 8.47117,26.28439 z" /><path
       inkscape:connector-curvature="0"
       id="path183"
       style="font-variant:normal;font-weight:bold;font-size:medium;font-family:'Maven Pro';-inkscape-font-specification:MavenPro-Bold;text-align:center;writing-mode:lr-tb;text-anchor:middle;fill:#000000;fill-opacity:1;fill-rule:nonzero;stroke:none;stroke-width:0.3772355"
       d="m 641.14554,-188.29744 q -3.80015,0 -6.65026,0.7917 -2.85012,0.71253 -6.33359,2.13759 v 10.37125 q 6.41276,-4.82936 13.45887,-4.82936 2.69178,0 3.87932,0.87086 1.26672,0.95004 1.26672,2.53344 0,1.8209 -1.97924,2.69177 -1.97925,0.87087 -6.33359,1.90008 -4.59185,0.95004 -7.60031,3.80015 -2.92928,2.85012 -2.92928,8.31283 0,4.67102 2.3751,7.67948 2.37509,3.00845 5.93773,4.35434 3.64182,1.42506 7.52114,1.42506 4.75019,0 7.67947,-0.87087 3.00846,-0.7917 5.85857,-2.53344 v -9.26287 q -4.03766,2.21676 -6.25442,3.1668 -2.21675,0.95003 -5.14604,0.95003 -2.92928,0 -4.35434,-0.95003 -1.42505,-0.87087 -1.42505,-2.53344 0,-1.97924 1.58339,-2.92928 1.5834,-0.87087 5.06687,-1.82091 3.95849,-1.02921 6.25442,-2.05841 2.29592,-0.95004 4.11683,-3.40431 1.82091,-2.37509 1.82091,-6.72943 -0.15834,-6.80861 -5.14604,-9.9754 -4.9877,-3.08763 -12.66718,-3.08763 z" /><path
       inkscape:connector-curvature="0"
       id="path185"
       style="font-variant:normal;font-weight:bold;font-size:medium;font-family:'Maven Pro';-inkscape-font-specification:MavenPro-Bold;text-align:center;writing-mode:lr-tb;text-anchor:middle;fill:#000000;fill-opacity:1;fill-rule:nonzero;stroke:none;stroke-width:0.3772355"
       d="m 667.4633,-132.4827 h 12.19216 v -9.10453 H 667.4633 Z m 0.23751,-15.12144 h 11.79631 l 0.0792,-39.50575 h -11.87548 z" /><path
       inkscape:connector-curvature="0"
       id="path187"
       style="font-variant:normal;font-weight:bold;font-size:medium;font-family:'Maven Pro';-inkscape-font-specification:MavenPro-Bold;text-align:center;writing-mode:lr-tb;text-anchor:middle;fill:#000000;fill-opacity:1;fill-rule:nonzero;stroke:none;stroke-width:0.3772355"
       d="m 701.91459,-188.29744 q -3.80016,0 -6.65027,0.7917 -2.85011,0.71253 -6.33359,2.13759 v 10.37125 q 6.41276,-4.82936 13.45888,-4.82936 2.69177,0 3.87932,0.87086 1.26671,0.95004 1.26671,2.53344 0,1.8209 -1.97924,2.69177 -1.97925,0.87087 -6.33359,1.90008 -4.59185,0.95004 -7.6003,3.80015 -2.92929,2.85012 -2.92929,8.31283 0,4.67102 2.3751,7.67948 2.37509,3.00845 5.93774,4.35434 3.64181,1.42506 7.52113,1.42506 4.75019,0 7.67948,-0.87087 3.00845,-0.7917 5.85856,-2.53344 v -9.26287 q -4.03766,2.21676 -6.25441,3.1668 -2.21676,0.95003 -5.14604,0.95003 -2.92929,0 -4.35434,-0.95003 -1.42506,-0.87087 -1.42506,-2.53344 0,-1.97924 1.5834,-2.92928 1.58339,-0.87087 5.06686,-1.82091 3.9585,-1.02921 6.25442,-2.05841 2.29593,-0.95004 4.11683,-3.40431 1.82091,-2.37509 1.82091,-6.72943 -0.15834,-6.80861 -5.14604,-9.9754 -4.9877,-3.08763 -12.66717,-3.08763 z" /><path
       inkscape:connector-curvature="0"
       id="path189"
       style="font-variant:normal;font-weight:bold;font-size:medium;font-family:'Maven Pro';-inkscape-font-specification:MavenPro-Bold;text-align:center;writing-mode:lr-tb;text-anchor:middle;fill:#000000;fill-opacity:1;fill-rule:nonzero;stroke:none;stroke-width:0.3772355"
       d="m 769.11495,-145.70406 q 9.65872,0 14.9631,-5.06687 5.30438,-4.9877 5.30438,-16.70484 0,-9.42121 -4.75019,-15.12144 -4.75019,-5.70023 -12.98385,-5.70023 -6.01691,0 -10.05457,2.13759 v -15.27978 h -11.5588 v 45.91851 q 0,4.82936 5.30438,7.28362 5.38355,2.45427 13.77555,2.53344 z m -0.95004,-33.093 q 4.82936,0 7.12529,2.69178 2.29592,2.69177 2.29592,9.02536 0,5.70023 -2.05841,8.55034 -1.97925,2.92929 -6.88778,2.92929 -7.04611,0 -7.04611,-2.69178 v -18.84242 q 1.42505,-0.87087 3.16679,-1.26672 1.74174,-0.39585 3.4043,-0.39585 z" /><path
       inkscape:connector-curvature="0"
       id="path191"
       style="font-variant:normal;font-weight:bold;font-size:medium;font-family:'Maven Pro';-inkscape-font-specification:MavenPro-Bold;text-align:center;writing-mode:lr-tb;text-anchor:middle;fill:#000000;fill-opacity:1;fill-rule:nonzero;stroke:none;stroke-width:0.3772355"
       d="m 797.66063,-132.4827 h 12.19216 v -9.10453 h -12.19216 z m 0.23751,-15.12144 h 11.79631 l 0.0792,-39.50575 h -11.87548 z" /><path
       inkscape:connector-curvature="0"
       id="path193"
       style="font-variant:normal;font-weight:bold;font-size:medium;font-family:'Maven Pro';-inkscape-font-specification:MavenPro-Bold;text-align:center;writing-mode:lr-tb;text-anchor:middle;fill:#000000;fill-opacity:1;fill-rule:nonzero;stroke:none;stroke-width:0.3772355"
       d="m 839.31631,-145.70406 q 9.65872,0 14.9631,-5.06687 5.30438,-4.9877 5.30438,-16.70484 0,-9.42121 -4.75019,-15.12144 -4.75019,-5.70023 -12.98386,-5.70023 -6.01691,0 -10.05457,2.13759 v -15.27978 h -11.55879 v 45.91851 q 0,4.82936 5.30438,7.28362 5.38354,2.45427 13.77555,2.53344 z m -0.95004,-33.093 q 4.82936,0 7.12528,2.69178 2.29593,2.69177 2.29593,9.02536 0,5.70023 -2.05842,8.55034 -1.97924,2.92929 -6.88777,2.92929 -7.04612,0 -7.04612,-2.69178 v -18.84242 q 1.42506,-0.87087 3.1668,-1.26672 1.74173,-0.39585 3.4043,-0.39585 z" /><path
       inkscape:connector-curvature="0"
       id="path195"
       style="font-variant:normal;font-weight:bold;font-size:medium;font-family:'Maven Pro';-inkscape-font-specification:MavenPro-Bold;text-align:center;writing-mode:lr-tb;text-anchor:middle;fill:#000000;fill-opacity:1;fill-rule:nonzero;stroke:none;stroke-width:0.3772355"
       d="m 885.59603,-145.70406 q 18.76325,0 18.52574,-24.46348 h -26.44272 q 1.50422,-8.31284 11.16294,-8.31284 2.92929,0 5.70023,0.7917 2.85012,0.87087 6.01691,2.21676 v -10.13374 q -6.49193,-2.69178 -14.56725,-2.69178 -6.09608,0 -10.68793,2.45427 -4.59185,2.53343 -7.12528,7.20445 -2.53344,4.67102 -2.53344,11.00461 0,10.45042 5.14604,16.15065 5.22521,5.7794 14.80476,5.7794 z m -0.47502,-9.02537 q -6.33359,0 -7.52113,-7.91698 h 14.80476 q -0.55419,4.27517 -2.29593,6.09608 -1.66257,1.8209 -4.9877,1.8209 z" /><path
       inkscape:connector-curvature="0"
       id="path197"
       style="font-variant:normal;font-weight:bold;font-size:medium;font-family:'Maven Pro';-inkscape-font-specification:MavenPro-Bold;text-align:center;writing-mode:lr-tb;text-anchor:middle;fill:#000000;fill-opacity:1;fill-rule:nonzero;stroke:none;stroke-width:0.3772355"
       d="m 912.39501,-187.10989 v 55.18138 h 11.71713 v -55.18138 z" /><path
       inkscape:connector-curvature="0"
       id="path199"
       style="font-variant:normal;font-weight:bold;font-size:medium;font-family:'Maven Pro';-inkscape-font-specification:MavenPro-Bold;text-align:center;writing-mode:lr-tb;text-anchor:middle;fill:#000000;fill-opacity:1;fill-rule:nonzero;stroke:none;stroke-width:0.3772355"
       d="m 934.50695,-132.4827 h 12.19215 v -9.10453 h -12.19215 z m 0.2375,-15.12144 h 11.79631 l 0.0792,-39.50575 h -11.87548 z" /><path
       inkscape:connector-curvature="0"
       id="path201"
       style="font-variant:normal;font-weight:bold;font-size:medium;font-family:'Maven Pro';-inkscape-font-specification:MavenPro-Bold;text-align:center;writing-mode:lr-tb;text-anchor:middle;fill:#000000;fill-opacity:1;fill-rule:nonzero;stroke:none;stroke-width:0.3772355"
       d="m 957.08263,-150.45425 q 3.08762,1.66256 9.42121,3.08762 6.33359,1.42506 11.32129,1.42506 8.47117,0 12.74634,-3.32514 4.27517,-3.32513 4.27517,-10.92543 v -26.91775 h -11.7963 v 24.54265 q 0,6.88778 -7.75865,6.88778 -1.74174,0 -3.56264,-0.39585 -1.82091,-0.39585 -2.85012,-0.95004 v -30.08454 h -11.7963 z" /><path
       inkscape:connector-curvature="0"
       id="path203"
       style="font-variant:normal;font-weight:bold;font-size:medium;font-family:'Maven Pro';-inkscape-font-specification:MavenPro-Bold;text-align:center;writing-mode:lr-tb;text-anchor:middle;fill:#000000;fill-opacity:1;fill-rule:nonzero;stroke:none;stroke-width:0.3772355"
       d="m 1023.0608,-145.70406 q 18.7633,0 18.5258,-24.46348 h -26.4428 q 1.5043,-8.31284 11.163,-8.31284 2.9293,0 5.7002,0.7917 2.8501,0.87087 6.0169,2.21676 v -10.13374 q -6.4919,-2.69178 -14.5672,-2.69178 -6.0961,0 -10.688,2.45427 -4.5918,2.53343 -7.1253,7.20445 -2.5334,4.67102 -2.5334,11.00461 0,10.45042 5.1461,16.15065 5.2252,5.7794 14.8047,5.7794 z m -0.475,-9.02537 q -6.3336,0 -7.5211,-7.91698 h 14.8047 q -0.5542,4.27517 -2.2959,6.09608 -1.6626,1.8209 -4.9877,1.8209 z" /><path
       inkscape:connector-curvature="0"
       id="path205"
       style="font-variant:normal;font-weight:bold;font-size:medium;font-family:'Maven Pro';-inkscape-font-specification:MavenPro-Bold;text-align:center;writing-mode:lr-tb;text-anchor:middle;fill:#000000;fill-opacity:1;fill-rule:nonzero;stroke:none;stroke-width:0.3772355"
       d="m 1061.7353,-188.29744 q -3.8001,0 -6.6502,0.7917 -2.8502,0.71253 -6.3336,2.13759 v 10.37125 q 6.4127,-4.82936 13.4588,-4.82936 2.6918,0 3.8794,0.87086 1.2667,0.95004 1.2667,2.53344 0,1.8209 -1.9793,2.69177 -1.9792,0.87087 -6.3335,1.90008 -4.5919,0.95004 -7.6004,3.80015 -2.9292,2.85012 -2.9292,8.31283 0,4.67102 2.3751,7.67948 2.3751,3.00845 5.9377,4.35434 3.6418,1.42506 7.5211,1.42506 4.7502,0 7.6795,-0.87087 3.0085,-0.7917 5.8586,-2.53344 v -9.26287 q -4.0377,2.21676 -6.2544,3.1668 -2.2168,0.95003 -5.1461,0.95003 -2.9293,0 -4.3543,-0.95003 -1.4251,-0.87087 -1.4251,-2.53344 0,-1.97924 1.5834,-2.92928 1.5834,-0.87087 5.0669,-1.82091 3.9585,-1.02921 6.2544,-2.05841 2.2959,-0.95004 4.1168,-3.40431 1.8209,-2.37509 1.8209,-6.72943 -0.1583,-6.80861 -5.146,-9.9754 -4.9877,-3.08763 -12.6672,-3.08763 z" /></g></g>
</g></svg>
