<?xml version="1.0" encoding="UTF-8" standalone="no"?>
<!-- Generated by graphviz version 2.40.1 (20161225.0304)
 -->

<!-- Title: pipeline_dag Pages: 1 -->

<svg
   xmlns:dc="http://purl.org/dc/elements/1.1/"
   xmlns:cc="http://creativecommons.org/ns#"
   xmlns:rdf="http://www.w3.org/1999/02/22-rdf-syntax-ns#"
   xmlns:svg="http://www.w3.org/2000/svg"
   xmlns="http://www.w3.org/2000/svg"
   xmlns:sodipodi="http://sodipodi.sourceforge.net/DTD/sodipodi-0.dtd"
   xmlns:inkscape="http://www.inkscape.org/namespaces/inkscape"
   width="286.68866mm"
   height="160.29036mm"
   viewBox="0 0 812.63904 454.36637"
   version="1.1"
   id="svg1593"
   sodipodi:docname="offline.svg"
   inkscape:version="0.92.5 (2060ec1f9f, 2020-04-08)">
  <metadata
     id="metadata1599">
    <rdf:RDF>
      <cc:Work
         rdf:about="">
        <dc:format>image/svg+xml</dc:format>
        <dc:type
           rdf:resource="http://purl.org/dc/dcmitype/StillImage" />
        <dc:title></dc:title>
      </cc:Work>
    </rdf:RDF>
  </metadata>
  <defs
     id="defs1597">
    <clipPath
       id="clipPath44"
       clipPathUnits="userSpaceOnUse">
      <path
         inkscape:connector-curvature="0"
         id="path42"
         d="m 216,108.995 h 62 v -23 h -62 z" />
    </clipPath>
    <clipPath
       id="clipPath50"
       clipPathUnits="userSpaceOnUse">
      <path
         inkscape:connector-curvature="0"
         id="path48"
         d="M 237.867,108.061 216.336,86.444 h 61.094 v 21.617 z" />
    </clipPath>
    <clipPath
       id="clipPath60"
       clipPathUnits="userSpaceOnUse">
      <path
         inkscape:connector-curvature="0"
         id="path58"
         d="m 216,86 h 62 v 23 h -62 z" />
    </clipPath>
    <clipPath
       id="clipPath70"
       clipPathUnits="userSpaceOnUse">
      <path
         inkscape:connector-curvature="0"
         id="path68"
         d="M 237.867,108.066 216.336,86.449 h 61.094 v 21.617 z" />
    </clipPath>
    <linearGradient
       id="linearGradient84"
       spreadMethod="pad"
       gradientTransform="matrix(37.936525,-29.638943,-29.638943,-37.936525,233.15029,107.98614)"
       gradientUnits="userSpaceOnUse"
       y2="0"
       x2="1"
       y1="0"
       x1="0">
      <stop
         id="stop74"
         offset="0"
         style="stop-opacity:1;stop-color:#0c542a" />
      <stop
         id="stop76"
         offset="0.21472"
         style="stop-opacity:1;stop-color:#0c542a" />
      <stop
         id="stop78"
         offset="0.57995"
         style="stop-opacity:1;stop-color:#25af64" />
      <stop
         id="stop80"
         offset="0.84663"
         style="stop-opacity:1;stop-color:#25af64" />
      <stop
         id="stop82"
         offset="1"
         style="stop-opacity:1;stop-color:#25af64" />
    </linearGradient>
    <filter
       filterUnits="userSpaceOnUse"
       height="360"
       width="360"
       y="0"
       x="0"
       id="Ellipse_2">
      <feOffset
         id="feOffset2"
         input="SourceAlpha"
         dy="1" />
      <feGaussianBlur
         id="feGaussianBlur4"
         result="blur"
         stdDeviation="3" />
      <feFlood
         id="feFlood6"
         flood-opacity="0.349" />
      <feComposite
         result="result1"
         id="feComposite8"
         in2="blur"
         operator="in" />
      <feComposite
         id="feComposite10"
         in2="result1"
         in="SourceGraphic" />
    </filter>
    <linearGradient
       id="f"
       x2="1"
       gradientTransform="matrix(6.3893886,4.9918839,-4.9918839,6.3893886,90.80211,62.405381)"
       gradientUnits="userSpaceOnUse">
      <stop
         stop-color="#0c542a"
         offset="0"
         id="stop12" />
      <stop
         stop-color="#0c542a"
         offset=".21472"
         id="stop14" />
      <stop
         stop-color="#25af64"
         offset=".57995"
         id="stop16" />
      <stop
         stop-color="#25af64"
         offset=".84663"
         id="stop18" />
      <stop
         stop-color="#25af64"
         offset="1"
         id="stop20" />
    </linearGradient>
  </defs>
  <sodipodi:namedview
     pagecolor="#ffffff"
     bordercolor="#666666"
     borderopacity="1"
     objecttolerance="10"
     gridtolerance="10"
     guidetolerance="10"
     inkscape:pageopacity="0"
     inkscape:pageshadow="2"
     inkscape:window-width="1920"
     inkscape:window-height="1015"
     id="namedview1595"
     showgrid="false"
     units="mm"
     inkscape:zoom="0.74331551"
     inkscape:cx="548.72612"
     inkscape:cy="351.16276"
     inkscape:window-x="0"
     inkscape:window-y="1080"
     inkscape:window-maximized="1"
     inkscape:current-layer="svg1593"
     fit-margin-top="0"
     fit-margin-left="0"
     fit-margin-right="0"
     fit-margin-bottom="0" />
  <path
     style="color:#000000;font-style:normal;font-variant:normal;font-weight:normal;font-stretch:normal;font-size:medium;line-height:normal;font-family:sans-serif;font-variant-ligatures:normal;font-variant-position:normal;font-variant-caps:normal;font-variant-numeric:normal;font-variant-alternates:normal;font-feature-settings:normal;text-indent:0;text-align:start;text-decoration:none;text-decoration-line:none;text-decoration-style:solid;text-decoration-color:#000000;letter-spacing:normal;word-spacing:normal;text-transform:none;writing-mode:lr-tb;direction:ltr;text-orientation:mixed;dominant-baseline:auto;baseline-shift:baseline;text-anchor:start;white-space:normal;shape-padding:0;clip-rule:nonzero;display:inline;overflow:visible;visibility:visible;opacity:1;isolation:auto;mix-blend-mode:normal;color-interpolation:sRGB;color-interpolation-filters:linearRGB;solid-color:#000000;solid-opacity:1;vector-effect:none;fill:#000000;fill-opacity:1;fill-rule:evenodd;stroke:none;stroke-width:0.75px;stroke-linecap:butt;stroke-linejoin:miter;stroke-miterlimit:4;stroke-dasharray:none;stroke-dashoffset:0;stroke-opacity:1;color-rendering:auto;image-rendering:auto;shape-rendering:auto;text-rendering:auto;enable-background:accumulate"
     d="m 223.03222,29.624654 v 0.75 H 434.08837 V 170.65834 h -7.66114 l 8.03614,34.73877 8.03613,-34.73877 h -7.66113 V 29.624654 Z"
     id="path2597"
     inkscape:connector-curvature="0" />
  <path
     style="color:#000000;font-style:normal;font-variant:normal;font-weight:normal;font-stretch:normal;font-size:medium;line-height:normal;font-family:sans-serif;font-variant-ligatures:normal;font-variant-position:normal;font-variant-caps:normal;font-variant-numeric:normal;font-variant-alternates:normal;font-feature-settings:normal;text-indent:0;text-align:start;text-decoration:none;text-decoration-line:none;text-decoration-style:solid;text-decoration-color:#000000;letter-spacing:normal;word-spacing:normal;text-transform:none;writing-mode:lr-tb;direction:ltr;text-orientation:mixed;dominant-baseline:auto;baseline-shift:baseline;text-anchor:start;white-space:normal;shape-padding:0;clip-rule:nonzero;display:inline;overflow:visible;visibility:visible;opacity:1;isolation:auto;mix-blend-mode:normal;color-interpolation:sRGB;color-interpolation-filters:linearRGB;solid-color:#000000;solid-opacity:1;vector-effect:none;fill:#000000;fill-opacity:1;fill-rule:evenodd;stroke:none;stroke-width:0.75px;stroke-linecap:butt;stroke-linejoin:miter;stroke-miterlimit:4;stroke-dasharray:none;stroke-dashoffset:0;stroke-opacity:1;color-rendering:auto;image-rendering:auto;shape-rendering:auto;text-rendering:auto;enable-background:accumulate"
     d="m 600.63963,281.97767 v 7.66114 h -72.99316 v 0.75 h 72.99316 v 7.66113 l 34.73877,-8.03613 z"
     id="path2601"
     inkscape:connector-curvature="0" />
  <g
     id="g3039"
     transform="matrix(0.1171875,0,0,-0.1171875,321.9636,365.01406)">
    <path
       style="fill:currentColor"
       inkscape:connector-curvature="0"
       id="path3041"
       d="m 416,256 q -66,0 -113,47 -47,47 -47,113 v 704 q 0,66 47,113 47,47 113,47 h 1088 q 66,0 113,-47 47,-47 47,-113 V 416 q 0,-66 -47,-113 -47,-47 -113,-47 z m -32,864 V 416 q 0,-13 9.5,-22.5 Q 403,384 416,384 h 1088 q 13,0 22.5,9.5 9.5,9.5 9.5,22.5 v 704 q 0,13 -9.5,22.5 -9.5,9.5 -22.5,9.5 H 416 q -13,0 -22.5,-9.5 Q 384,1133 384,1120 Z M 1760,192 h 160 V 96 Q 1920,56 1873,28 1826,0 1760,0 H 160 Q 94,0 47,28 0,56 0,96 v 96 H 160 Z M 1040,96 q 16,0 16,16 0,16 -16,16 H 880 q -16,0 -16,-16 0,-16 16,-16 z" />
  </g>
  <path
     id="path2572"
     d="m 801.93524,255.72991 h -150 c -5.91729,0 -10.71428,-4.79698 -10.71428,-10.71429 v -21.42856 c 0,-5.91731 4.79699,-10.7143 10.71428,-10.7143 h 150 c 5.9173,0 10.71428,4.79699 10.71428,10.7143 v 21.42856 c 0,5.91731 -4.79698,10.71429 -10.71428,10.71429 z m -16.07143,-29.46428 c -4.43806,0 -8.03572,3.59765 -8.03572,8.03571 0,4.43806 3.59766,8.03572 8.03572,8.03572 4.43807,0 8.03571,-3.59766 8.03571,-8.03572 0,-4.43806 -3.59764,-8.03571 -8.03571,-8.03571 z m -21.42857,0 c -4.43805,0 -8.03571,3.59765 -8.03571,8.03571 0,4.43806 3.59766,8.03572 8.03571,8.03572 4.43806,0 8.03572,-3.59766 8.03572,-8.03572 0,-4.43806 -3.59766,-8.03571 -8.03572,-8.03571 z m 37.5,83.0357 h -150 c -5.91729,0 -10.71428,-4.79699 -10.71428,-10.71428 v -21.42857 c 0,-5.9173 4.79699,-10.71429 10.71428,-10.71429 h 150 c 5.9173,0 10.71428,4.79699 10.71428,10.71429 v 21.42857 c 0,5.91729 -4.79698,10.71428 -10.71428,10.71428 z m -16.07143,-29.46428 c -4.43806,0 -8.03572,3.59766 -8.03572,8.03572 0,4.43805 3.59766,8.0357 8.03572,8.0357 4.43807,0 8.03571,-3.59765 8.03571,-8.0357 0,-4.43806 -3.59764,-8.03572 -8.03571,-8.03572 z m -21.42857,0 c -4.43805,0 -8.03571,3.59766 -8.03571,8.03572 0,4.43805 3.59766,8.0357 8.03571,8.0357 4.43806,0 8.03572,-3.59765 8.03572,-8.0357 0,-4.43806 -3.59766,-8.03572 -8.03572,-8.03572 z m 37.5,83.03571 h -150 c -5.91729,0 -10.71428,-4.79698 -10.71428,-10.71428 v -21.42857 c 0,-5.9173 4.79699,-10.71429 10.71428,-10.71429 h 150 c 5.9173,0 10.71428,4.79699 10.71428,10.71429 v 21.42857 c 0,5.9173 -4.79698,10.71428 -10.71428,10.71428 z m -16.07143,-29.46428 c -4.43806,0 -8.03572,3.59766 -8.03572,8.03571 0,4.43806 3.59766,8.03572 8.03572,8.03572 4.43807,0 8.03571,-3.59766 8.03571,-8.03572 0,-4.43805 -3.59764,-8.03571 -8.03571,-8.03571 z m -21.42857,0 c -4.43805,0 -8.03571,3.59766 -8.03571,8.03571 0,4.43806 3.59766,8.03572 8.03571,8.03572 4.43806,0 8.03572,-3.59766 8.03572,-8.03572 0,-4.43805 -3.59766,-8.03571 -8.03572,-8.03571 z"
     inkscape:connector-curvature="0"
     style="stroke-width:0.3348214" />
  <path
     style="color:#000000;font-style:normal;font-variant:normal;font-weight:normal;font-stretch:normal;font-size:medium;line-height:normal;font-family:sans-serif;font-variant-ligatures:normal;font-variant-position:normal;font-variant-caps:normal;font-variant-numeric:normal;font-variant-alternates:normal;font-feature-settings:normal;text-indent:0;text-align:start;text-decoration:none;text-decoration-line:none;text-decoration-style:solid;text-decoration-color:#000000;letter-spacing:normal;word-spacing:normal;text-transform:none;writing-mode:lr-tb;direction:ltr;text-orientation:mixed;dominant-baseline:auto;baseline-shift:baseline;text-anchor:start;white-space:normal;shape-padding:0;clip-rule:nonzero;display:inline;overflow:visible;visibility:visible;opacity:1;isolation:auto;mix-blend-mode:normal;color-interpolation:sRGB;color-interpolation-filters:linearRGB;solid-color:#000000;solid-opacity:1;vector-effect:none;fill:#000000;fill-opacity:1;fill-rule:evenodd;stroke:none;stroke-width:0.75px;stroke-linecap:butt;stroke-linejoin:miter;stroke-miterlimit:4;stroke-dasharray:none;stroke-dashoffset:0;stroke-opacity:1;color-rendering:auto;image-rendering:auto;shape-rendering:auto;text-rendering:auto;enable-background:accumulate"
     d="m 96.411867,105.61342 v 0.75 h 93.995353 v 86.20752 H 96.411867 v 0.75 h 93.995353 v 29.25 h -7.66113 l 8.03613,34.73877 8.0376,-34.73877 h -7.6626 v -30 -86.95752 z"
     id="path2593"
     inkscape:connector-curvature="0"
     sodipodi:nodetypes="ccccccccccccccc" />
  <path
     style="color:#000000;font-style:normal;font-variant:normal;font-weight:normal;font-stretch:normal;font-size:medium;line-height:normal;font-family:sans-serif;font-variant-ligatures:normal;font-variant-position:normal;font-variant-caps:normal;font-variant-numeric:normal;font-variant-alternates:normal;font-feature-settings:normal;text-indent:0;text-align:start;text-decoration:none;text-decoration-line:none;text-decoration-style:solid;text-decoration-color:#000000;letter-spacing:normal;word-spacing:normal;text-transform:none;writing-mode:lr-tb;direction:ltr;text-orientation:mixed;dominant-baseline:auto;baseline-shift:baseline;text-anchor:start;white-space:normal;shape-padding:0;clip-rule:nonzero;display:inline;overflow:visible;visibility:visible;opacity:1;isolation:auto;mix-blend-mode:normal;color-interpolation:sRGB;color-interpolation-filters:linearRGB;solid-color:#000000;solid-opacity:1;vector-effect:none;fill:#000000;fill-opacity:1;fill-rule:evenodd;stroke:none;stroke-width:0.75px;stroke-linecap:butt;stroke-linejoin:miter;stroke-miterlimit:4;stroke-dasharray:none;stroke-dashoffset:0;stroke-opacity:1;color-rendering:auto;image-rendering:auto;shape-rendering:auto;text-rendering:auto;enable-background:accumulate"
     d="m 190.78222,339.02894 -8.03613,34.73877 h 7.66113 v 29.25147 H 96.411867 c 0.0053,0.12448 -0.0037,0.24899 0,0.37353 -0.0053,0.12553 0.0075,0.25102 0,0.37647 h 94.745353 v -30.00147 h 7.6626 z"
     id="path2595"
     inkscape:connector-curvature="0"
     sodipodi:nodetypes="ccccccccccc" />
  <g
     style="enable-background:new"
     id="g2534"
     transform="matrix(0.29999999,0,0,0.29999999,29.849614,373.39339)">
    <g
       transform="matrix(0.58307897,0,0,0.58307897,-4.9542139,-4.9542139)"
       id="g2030">
      <circle
         style="fill:#ffffff;fill-opacity:1;stroke:none;stroke-width:0.7227273;stroke-linecap:round;stroke-linejoin:bevel;stroke-miterlimit:4;stroke-dasharray:none;stroke-opacity:1"
         id="path917"
         cx="180"
         cy="180"
         r="171.50336" />
      <g
         transform="translate(-3757.012,-1045.01)"
         data-name="Group 50"
         id="Group_50">
        <path
           style="fill:#21a1da"
           inkscape:connector-curvature="0"
           d="m 3936.318,1066.01 c -85.064,0.255 -153.98,70.708 -154.306,157.708 h 31.851 c 0.326,-68.779 55,-124.451 122.454,-124.621 z"
           data-name="Path 135"
           id="Path_135" />
        <path
           style="fill:#8ac13f"
           inkscape:connector-curvature="0"
           transform="translate(-360.57,-0.32)"
           d="m 4304,1066.473 v 33.133 c 64.438,3.591 115.645,57.874 115.96,124.432 h 32.161 C 4451.8,1139.156 4386.194,1070.027 4304,1066.473 Z"
           data-name="Path 136"
           id="Path_136" />
        <path
           style="fill:#bcbdc0"
           inkscape:connector-curvature="0"
           transform="translate(-0.311,-368.86)"
           d="m 3936.629,1718.436 c -65.424,-0.165 -118.82,-52.535 -122.278,-118.436 h -31.888 c 3.477,84.13 71.128,151.274 154.166,151.523 z"
           data-name="Path 137"
           id="Path_137" />
        <path
           style="fill:#f3931e"
           inkscape:connector-curvature="0"
           transform="translate(-360.57,-368.86)"
           d="m 4419.784,1600 c -3.343,63.707 -53.354,114.768 -115.784,118.247 v 33.133 c 80.189,-3.467 144.591,-69.348 147.981,-151.38 z"
           data-name="Path 138"
           id="Path_138" />
        <path
           style="fill:#1d315f"
           inkscape:connector-curvature="0"
           transform="translate(-170.61,-163.373)"
           d="m 4140.016,1369.155 c 0,0 -7.421,-2.783 -18.554,-7.422 -14.843,-6.185 -12.06,-12.679 -12.06,-12.679 0,0 3.092,-10.823 21.337,-7.112 19.036,3.872 33.088,23.811 33.088,23.811 l 18.245,-52.261 c -28.141,-11.442 -70.365,-11.985 -88.442,-10.2 -40.819,4.02 -57.827,28.078 -57.827,52.416 0,18.634 6.8,32.315 22.72,41.011 18.942,11.825 36.179,12.8 40.982,21.61 6.36,11.661 -8.658,13.916 -8.658,13.916 -24.739,1.855 -43.912,-25.667 -43.912,-25.667 l -17.935,54.73 c 69.578,23.5 117.51,7.422 117.51,7.422 21.956,-7.422 38.964,-22.574 38.964,-48.241 0,-25.277 -14.534,-40.201 -45.458,-51.334 z"
           data-name="Path 139"
           id="Path_139" />
      </g>
    </g>
  </g>
  <g
     id="g3027"
     transform="matrix(0.0390625,0,0,-0.0390625,29.849613,130.98764)">
    <path
       style="fill:currentColor"
       inkscape:connector-curvature="0"
       id="path3029"
       d="m 1024,640 q 0,106 -75,181 -75,75 -181,75 -106,0 -181,-75 -75,-75 -75,-181 0,-106 75,-181 75,-75 181,-75 106,0 181,75 75,75 75,181 z m 512,109 V 527 q 0,-12 -8,-23 -8,-11 -20,-13 l -185,-28 q -19,-54 -39,-91 35,-50 107,-138 10,-12 10,-25 0,-13 -9,-23 -27,-37 -99,-108 -72,-71 -94,-71 -12,0 -26,9 l -138,108 q -44,-23 -91,-38 -16,-136 -29,-186 -7,-28 -36,-28 H 657 q -14,0 -24.5,8.5 Q 622,-111 621,-98 L 593,86 q -49,16 -90,37 L 362,16 Q 352,7 337,7 323,7 312,18 186,132 147,186 q -7,10 -7,23 0,12 8,23 15,21 51,66.5 36,45.5 54,70.5 -27,50 -41,99 L 29,495 Q 16,497 8,507.5 0,518 0,531 v 222 q 0,12 8,23 8,11 19,13 l 186,28 q 14,46 39,92 -40,57 -107,138 -10,12 -10,24 0,10 9,23 26,36 98.5,107.5 72.5,71.5 94.5,71.5 13,0 26,-10 l 138,-107 q 44,23 91,38 16,136 29,186 7,28 36,28 h 222 q 14,0 24.5,-8.5 Q 914,1391 915,1378 l 28,-184 q 49,-16 90,-37 l 142,107 q 9,9 24,9 13,0 25,-10 129,-119 165,-170 7,-8 7,-22 0,-12 -8,-23 -15,-21 -51,-66.5 -36,-45.5 -54,-70.5 26,-50 41,-98 l 183,-28 q 13,-2 21,-12.5 8,-10.5 8,-23.5 z" />
  </g>
  <g
     id="g2556"
     transform="matrix(1.0186411,0,0,1.0186411,154.79905,-5.6524395)">
	<g
   id="g2554">
		<g
   id="g2552">
			<g
   id="g2546">
				<path
   id="path2544"
   d="m 63.95,15.786 c 0,4.006 -12.963,7.238 -28.949,7.238 -15.988,0 -28.951,-3.232 -28.951,-7.238 l 9.65,43.839 c 0,2.672 8.637,4.826 19.301,4.826 10.662,0 19.299,-2.154 19.299,-4.826 v 0 z"
   inkscape:connector-curvature="0"
   style="clip-rule:evenodd;fill:#146eb4;fill-rule:evenodd" />

			</g>

			<g
   id="g2550">
				<path
   id="path2548"
   d="M 63.95,12.786 C 63.95,8.782 50.987,5.549 35.001,5.549 19.013,5.549 6.05,8.782 6.05,12.786 c 0,4.006 12.963,7.238 28.951,7.238 15.986,0 28.949,-3.232 28.949,-7.238 z"
   inkscape:connector-curvature="0"
   style="clip-rule:evenodd;fill:#146eb4;fill-rule:evenodd" />

			</g>

		</g>

	</g>

</g>
  <g
     id="g2606"
     transform="matrix(0.9688712,0,0,0.9688712,14.13033,170.13117)">
    <title
       id="title2603">Code</title>
    <text
       font-style="normal"
       font-weight="normal"
       xml:space="preserve"
       font-size="36"
       id="text"
       x="48"
       y="35"
       style="font-style:normal;font-weight:normal;font-size:36px;font-family:Monospace;text-anchor:middle;fill:#000000;stroke:#000000;stroke-width:0">&lt;/&gt;</text>
  </g>
  <path
     inkscape:connector-curvature="0"
     id="path3182"
     style="font-style:normal;font-weight:normal;font-size:40px;line-height:1.25;font-family:sans-serif;letter-spacing:0px;word-spacing:0px;fill:#000000;fill-opacity:1;stroke:none;stroke-width:0.5805788"
     d="m 29.52231,144.41922 v 1.95039 q -0.884477,-0.4876 -1.780292,-0.72573 -0.884477,-0.24947 -1.791632,-0.24947 -2.029755,0 -3.152357,1.2927 -1.122607,1.28136 -1.122607,3.60594 0,2.32458 1.122607,3.61727 1.122602,1.28136 3.152357,1.28136 0.907155,0 1.791632,-0.23812 0.895815,-0.24947 1.780292,-0.73707 v 1.9277 q -0.873138,0.40822 -1.814309,0.61233 -0.929837,0.20411 -1.9844,0.20411 -2.868878,0 -4.55845,-1.80297 -1.689577,-1.80297 -1.689577,-4.86461 0,-3.10701 1.700916,-4.8873 1.712255,-1.78029 4.683181,-1.78029 0.963854,0 1.882347,0.20411 0.918493,0.19277 1.780292,0.58965 z" />
  <path
     inkscape:connector-curvature="0"
     id="path3184"
     style="font-style:normal;font-weight:normal;font-size:40px;line-height:1.25;font-family:sans-serif;letter-spacing:0px;word-spacing:0px;fill:#000000;fill-opacity:1;stroke:none;stroke-width:0.5805788"
     d="m 38.072239,145.39441 q -1.678239,0 -2.653425,1.31538 -0.975193,1.30403 -0.975193,3.58326 0,2.27922 0.963854,3.5946 0.975186,1.30403 2.664764,1.30403 1.666894,0 2.642086,-1.31537 0.975192,-1.31538 0.975192,-3.58326 0,-2.25655 -0.975192,-3.57192 -0.975192,-1.32672 -2.642086,-1.32672 z m 0,-1.76895 q 2.721463,0 4.274964,1.76895 1.553501,1.76896 1.553501,4.89864 0,3.11834 -1.553501,4.89863 -1.553501,1.76895 -4.274964,1.76895 -2.732802,0 -4.286303,-1.76895 -1.542163,-1.78029 -1.542163,-4.89863 0,-3.12968 1.542163,-4.89864 1.553501,-1.76895 4.286303,-1.76895 z" />
  <path
     inkscape:connector-curvature="0"
     id="path3186"
     style="font-style:normal;font-weight:normal;font-size:40px;line-height:1.25;font-family:sans-serif;letter-spacing:0px;word-spacing:0px;fill:#000000;fill-opacity:1;stroke:none;stroke-width:0.5805788"
     d="m 57.916242,148.96634 v 7.66545 h -2.086455 v -7.59742 q 0,-1.80297 -0.703046,-2.69878 -0.703047,-0.89582 -2.109133,-0.89582 -1.689577,0 -2.664769,1.07725 -0.975187,1.07724 -0.975187,2.93691 v 7.17786 h -2.0978 v -12.70016 h 2.0978 v 1.97306 q 0.748401,-1.14529 1.757609,-1.71226 1.020548,-0.56697 2.347263,-0.56697 2.188509,0 3.31111,1.36074 1.122608,1.34939 1.122608,3.98014 z" />
  <path
     inkscape:connector-curvature="0"
     id="path3188"
     style="font-style:normal;font-weight:normal;font-size:40px;line-height:1.25;font-family:sans-serif;letter-spacing:0px;word-spacing:0px;fill:#000000;fill-opacity:1;stroke:none;stroke-width:0.5805788"
     d="m 72.339996,143.93163 v 12.70016 h -2.097794 v -11.07862 h -5.726417 v 11.07862 h -2.097793 v -11.07862 h -1.99574 v -1.62154 h 1.99574 v -0.88448 q 0,-2.07512 0.975192,-3.06164 0.986531,-0.99787 3.016287,-0.99787 h 2.097793 v 1.73493 h -1.995739 q -1.122601,0 -1.56484,0.45358 -0.4309,0.45357 -0.4309,1.63288 v 1.1226 z m -2.097794,-4.92131 h 2.097794 v 2.64208 h -2.097794 z" />
  <path
     inkscape:connector-curvature="0"
     id="path3190"
     style="font-style:normal;font-weight:normal;font-size:40px;line-height:1.25;font-family:sans-serif;letter-spacing:0px;word-spacing:0px;fill:#000000;fill-opacity:1;stroke:none;stroke-width:0.5805788"
     d="m 85.062834,150.13429 q 0,-2.26788 -0.94117,-3.51522 -0.929838,-1.24733 -2.619409,-1.24733 -1.678238,0 -2.619409,1.24733 -0.929832,1.24734 -0.929832,3.51522 0,2.25655 0.929832,3.50389 0.941171,1.24734 2.619409,1.24734 1.689571,0 2.619409,-1.24734 0.94117,-1.24734 0.94117,-3.50389 z m 2.086455,4.92132 q 0,3.24307 -1.440108,4.81926 -1.440108,1.58751 -4.41104,1.58751 -1.099924,0 -2.075111,-0.17009 -0.975192,-0.15875 -1.893685,-0.49893 v -2.02976 q 0.918493,0.49894 1.814309,0.73707 0.895815,0.23812 1.825647,0.23812 2.052433,0 3.072986,-1.07725 1.020547,-1.0659 1.020547,-3.23173 v -1.03189 q -0.646346,1.12261 -1.655555,1.67824 -1.009208,0.55563 -2.415301,0.55563 -2.335923,0 -3.764687,-1.78029 -1.42877,-1.78029 -1.42877,-4.71721 0,-2.94825 1.42877,-4.72854 1.428764,-1.78029 3.764687,-1.78029 1.406093,0 2.415301,0.55564 1.009209,0.55563 1.655555,1.67823 v -1.9277 h 2.086455 z" />
  <path
     inkscape:connector-curvature="0"
     id="path3192"
     style="font-style:normal;font-weight:normal;font-size:40px;line-height:1.25;font-family:sans-serif;letter-spacing:0px;word-spacing:0px;fill:#000000;fill-opacity:1;stroke:none;stroke-width:0.5805788"
     d="m 99.54329,144.30583 v 1.97306 q -0.88448,-0.45358 -1.83699,-0.68037 -0.95251,-0.22678 -1.97306,-0.22678 -1.553507,0 -2.335924,0.47625 -0.771084,0.47625 -0.771084,1.42877 0,0.72572 0.555631,1.14528 0.555637,0.40822 2.23387,0.78242 l 0.714387,0.15875 q 2.22252,0.47626 3.15236,1.3494 0.94117,0.86179 0.94117,2.41529 0,1.76896 -1.40609,2.80084 -1.39475,1.03189 -3.844066,1.03189 -1.020547,0 -2.13181,-0.20411 -1.099923,-0.19277 -2.324585,-0.58965 v -2.15449 q 1.156624,0.60099 2.279225,0.90715 1.122607,0.29483 2.222531,0.29483 1.474125,0 2.267885,-0.49893 0.79376,-0.51028 0.79376,-1.42877 0,-0.85046 -0.57831,-1.30404 -0.56697,-0.45357 -2.506018,-0.87313 l -0.725724,-0.1701 q -1.93904,-0.40821 -2.800834,-1.24733 -0.861799,-0.85046 -0.861799,-2.32459 0,-1.79163 1.270016,-2.76682 1.270016,-0.97519 3.60594,-0.97519 1.156619,0 2.177169,0.1701 1.02055,0.17008 1.88235,0.51027 z" />
  <path
     inkscape:connector-curvature="0"
     id="path3165"
     style="font-style:normal;font-weight:normal;font-size:40px;line-height:1.25;font-family:sans-serif;letter-spacing:0px;word-spacing:0px;fill:#000000;fill-opacity:1;stroke:none;stroke-width:0.5805788"
     d="m 18.340075,226.01666 v 6.73562 h -2.097794 v -17.53075 h 2.097794 v 1.9277 q 0.657685,-1.13394 1.655555,-1.67823 1.009214,-0.55564 2.403962,-0.55564 2.31324,0 3.753349,1.83699 1.451447,1.83699 1.451447,4.8306 0,2.99361 -1.451447,4.83059 -1.440109,1.83699 -3.753349,1.83699 -1.394748,0 -2.403962,-0.54429 -0.99787,-0.55563 -1.655555,-1.68958 z m 7.098481,-4.43371 q 0,-2.30191 -0.952509,-3.60594 -0.941171,-1.31537 -2.596732,-1.31537 -1.655555,0 -2.608064,1.31537 -0.941176,1.30403 -0.941176,3.60594 0,2.3019 0.941176,3.61727 0.952509,1.30404 2.608064,1.30404 1.655561,0 2.596732,-1.30404 0.952509,-1.31537 0.952509,-3.61727 z" />
  <path
     inkscape:connector-curvature="0"
     id="path3167"
     style="font-style:normal;font-weight:normal;font-size:40px;line-height:1.25;font-family:sans-serif;letter-spacing:0px;word-spacing:0px;fill:#000000;fill-opacity:1;stroke:none;stroke-width:0.5805788"
     d="m 31.062913,215.22153 h 2.086455 v 12.70016 h -2.086455 z m 0,-4.94399 h 2.086455 v 2.64208 h -2.086455 z" />
  <path
     inkscape:connector-curvature="0"
     id="path3169"
     style="font-style:normal;font-weight:normal;font-size:40px;line-height:1.25;font-family:sans-serif;letter-spacing:0px;word-spacing:0px;fill:#000000;fill-opacity:1;stroke:none;stroke-width:0.5805788"
     d="m 39.53347,226.01666 v 6.73562 h -2.097793 v -17.53075 h 2.097793 v 1.9277 q 0.657686,-1.13394 1.655556,-1.67823 1.009208,-0.55564 2.403962,-0.55564 2.31324,0 3.753349,1.83699 1.451447,1.83699 1.451447,4.8306 0,2.99361 -1.451447,4.83059 -1.440109,1.83699 -3.753349,1.83699 -1.394754,0 -2.403962,-0.54429 -0.99787,-0.55563 -1.655556,-1.68958 z m 7.098482,-4.43371 q 0,-2.30191 -0.952509,-3.60594 -0.941177,-1.31537 -2.596732,-1.31537 -1.655555,0 -2.60807,1.31537 -0.941171,1.30403 -0.941171,3.60594 0,2.3019 0.941171,3.61727 0.952515,1.30404 2.60807,1.30404 1.655555,0 2.596732,-1.30404 0.952509,-1.31537 0.952509,-3.61727 z" />
  <path
     inkscape:connector-curvature="0"
     id="path3171"
     style="font-style:normal;font-weight:normal;font-size:40px;line-height:1.25;font-family:sans-serif;letter-spacing:0px;word-spacing:0px;fill:#000000;fill-opacity:1;stroke:none;stroke-width:0.5805788"
     d="m 63.119484,221.04999 v 1.02056 h -9.593159 q 0.136076,2.15448 1.292694,3.28843 1.167961,1.1226 3.243078,1.1226 1.201978,0 2.324585,-0.29482 1.13394,-0.29483 2.245203,-0.88448 v 1.97306 q -1.122602,0.47626 -2.301902,0.72572 -1.179301,0.24947 -2.392618,0.24947 -3.03897,0 -4.819257,-1.76895 -1.768953,-1.76895 -1.768953,-4.78524 0,-3.11834 1.678238,-4.94399 1.689571,-1.83699 4.547111,-1.83699 2.562709,0 4.048172,1.65556 1.496808,1.64422 1.496808,4.47907 z m -2.086455,-0.61232 q -0.0227,-1.71226 -0.963854,-2.73281 -0.929832,-1.02055 -2.471994,-1.02055 -1.746271,0 -2.80084,0.98653 -1.043224,0.98653 -1.201978,2.77817 z" />
  <path
     inkscape:connector-curvature="0"
     id="path3173"
     style="font-style:normal;font-weight:normal;font-size:40px;line-height:1.25;font-family:sans-serif;letter-spacing:0px;word-spacing:0px;fill:#000000;fill-opacity:1;stroke:none;stroke-width:0.5805788"
     d="m 66.543993,210.27754 h 2.086455 v 17.64415 h -2.086455 z" />
  <path
     inkscape:connector-curvature="0"
     id="path3175"
     style="font-style:normal;font-weight:normal;font-size:40px;line-height:1.25;font-family:sans-serif;letter-spacing:0px;word-spacing:0px;fill:#000000;fill-opacity:1;stroke:none;stroke-width:0.5805788"
     d="m 72.996128,215.22153 h 2.086455 v 12.70016 h -2.086455 z m 0,-4.94399 h 2.086455 v 2.64208 h -2.086455 z" />
  <path
     inkscape:connector-curvature="0"
     id="path3177"
     style="font-style:normal;font-weight:normal;font-size:40px;line-height:1.25;font-family:sans-serif;letter-spacing:0px;word-spacing:0px;fill:#000000;fill-opacity:1;stroke:none;stroke-width:0.5805788"
     d="m 90.005269,220.25624 v 7.66545 h -2.086455 v -7.59742 q 0,-1.80297 -0.703046,-2.69878 -0.70304,-0.89582 -2.109133,-0.89582 -1.689571,0 -2.664763,1.07725 -0.975193,1.07724 -0.975193,2.93691 v 7.17786 h -2.097793 v -12.70016 h 2.097793 v 1.97306 q 0.748401,-1.14529 1.75761,-1.71226 1.020553,-0.56697 2.347262,-0.56697 2.188509,0 3.311117,1.36074 1.122601,1.34939 1.122601,3.98014 z" />
  <path
     inkscape:connector-curvature="0"
     id="path3179"
     style="font-style:normal;font-weight:normal;font-size:40px;line-height:1.25;font-family:sans-serif;letter-spacing:0px;word-spacing:0px;fill:#000000;fill-opacity:1;stroke:none;stroke-width:0.5805788"
     d="m 105.03002,221.04999 v 1.02056 h -9.593164 q 0.136076,2.15448 1.292694,3.28843 1.16796,1.1226 3.24308,1.1226 1.20198,0 2.32458,-0.29482 1.13394,-0.29483 2.24521,-0.88448 v 1.97306 q -1.12261,0.47626 -2.30191,0.72572 -1.1793,0.24947 -2.39261,0.24947 -3.03897,0 -4.81926,-1.76895 -1.768954,-1.76895 -1.768954,-4.78524 0,-3.11834 1.678238,-4.94399 1.689576,-1.83699 4.547106,-1.83699 2.56271,0 4.04818,1.65556 1.49681,1.64422 1.49681,4.47907 z m -2.08646,-0.61232 q -0.0227,-1.71226 -0.96385,-2.73281 -0.92984,-1.02055 -2.472,-1.02055 -1.74627,0 -2.80084,0.98653 -1.04322,0.98653 -1.201976,2.77817 z" />
  <path
     inkscape:connector-curvature="0"
     id="path3144"
     style="font-style:normal;font-weight:normal;font-size:40px;line-height:1.25;font-family:sans-serif;letter-spacing:0px;word-spacing:0px;fill:#000000;fill-opacity:1;stroke:none;stroke-width:0.5805788"
     d="m 10.035501,441.82497 v 1.95039 q -0.8844771,-0.4876 -1.7802921,-0.72573 -0.884477,-0.24947 -1.791632,-0.24947 -2.0297554,0 -3.1523568,1.2927 -1.1226071,1.28136 -1.1226071,3.60594 0,2.32458 1.1226071,3.61727 1.1226014,1.28136 3.1523568,1.28136 0.907155,0 1.791632,-0.23812 0.895815,-0.24947 1.7802921,-0.73707 v 1.9277 q -0.8731381,0.40822 -1.8143091,0.61233 -0.929837,0.20411 -1.9844,0.20411 -2.8688782,0 -4.5584496,-1.80297 -1.68957722,-1.80297 -1.68957722,-4.86461 0,-3.10701 1.70091592,-4.8873 1.7122546,-1.78029 4.6831809,-1.78029 0.963854,0 1.882347,0.20411 0.918493,0.19277 1.7802921,0.58965 z" />
  <path
     inkscape:connector-curvature="0"
     id="path3146"
     style="font-style:normal;font-weight:normal;font-size:40px;line-height:1.25;font-family:sans-serif;letter-spacing:0px;word-spacing:0px;fill:#000000;fill-opacity:1;stroke:none;stroke-width:0.5805788"
     d="m 18.58543,442.80016 q -1.678239,0 -2.653425,1.31538 -0.975193,1.30403 -0.975193,3.58326 0,2.27922 0.963854,3.5946 0.975186,1.30403 2.664764,1.30403 1.666894,0 2.642086,-1.31537 0.975192,-1.31538 0.975192,-3.58326 0,-2.25655 -0.975192,-3.57192 -0.975192,-1.32672 -2.642086,-1.32672 z m 0,-1.76895 q 2.721463,0 4.274964,1.76895 1.553501,1.76896 1.553501,4.89864 0,3.11834 -1.553501,4.89863 -1.553501,1.76895 -4.274964,1.76895 -2.732802,0 -4.286303,-1.76895 -1.542163,-1.78029 -1.542163,-4.89863 0,-3.12968 1.542163,-4.89864 1.553501,-1.76895 4.286303,-1.76895 z" />
  <path
     inkscape:connector-curvature="0"
     id="path3148"
     style="font-style:normal;font-weight:normal;font-size:40px;line-height:1.25;font-family:sans-serif;letter-spacing:0px;word-spacing:0px;fill:#000000;fill-opacity:1;stroke:none;stroke-width:0.5805788"
     d="m 38.429433,446.37209 v 7.66545 h -2.086455 v -7.59742 q 0,-1.80297 -0.703046,-2.69878 -0.703047,-0.89582 -2.109133,-0.89582 -1.689577,0 -2.664769,1.07725 -0.975187,1.07724 -0.975187,2.93691 v 7.17786 h -2.0978 v -12.70016 h 2.0978 v 1.97306 q 0.748401,-1.14529 1.757609,-1.71226 1.020548,-0.56697 2.347263,-0.56697 2.188509,0 3.31111,1.36074 1.122608,1.34939 1.122608,3.98014 z" />
  <path
     inkscape:connector-curvature="0"
     id="path3150"
     style="font-style:normal;font-weight:normal;font-size:40px;line-height:1.25;font-family:sans-serif;letter-spacing:0px;word-spacing:0px;fill:#000000;fill-opacity:1;stroke:none;stroke-width:0.5805788"
     d="m 44.654776,437.73144 v 3.60594 h 4.297647 v 1.62154 h -4.297647 v 6.89437 q 0,1.5535 0.419561,1.99574 0.4309,0.44224 1.734932,0.44224 h 2.143154 v 1.74627 h -2.143154 q -2.415301,0 -3.333794,-0.89582 -0.918493,-0.90715 -0.918493,-3.28843 v -6.89437 h -1.530824 v -1.62154 h 1.530824 v -3.60594 z" />
  <path
     inkscape:connector-curvature="0"
     id="path3152"
     style="font-style:normal;font-weight:normal;font-size:40px;line-height:1.25;font-family:sans-serif;letter-spacing:0px;word-spacing:0px;fill:#000000;fill-opacity:1;stroke:none;stroke-width:0.5805788"
     d="m 57.468335,447.65344 q -2.528693,0 -3.503885,0.57831 -0.975193,0.57831 -0.975193,1.97306 0,1.11126 0.725724,1.76895 0.737062,0.64635 1.995739,0.64635 1.734932,0 2.778163,-1.22466 1.054563,-1.236 1.054563,-3.27709 v -0.46492 z m 4.161566,-0.8618 v 7.2459 h -2.086455 v -1.9277 q -0.714379,1.15662 -1.780287,1.71225 -1.065908,0.54429 -2.60807,0.54429 -1.950379,0 -3.107002,-1.08858 -1.145285,-1.09993 -1.145285,-2.93692 0,-2.14315 1.42877,-3.23173 1.440108,-1.08859 4.286303,-1.08859 h 2.925571 v -0.20411 q 0,-1.4401 -0.952509,-2.22253 -0.941171,-0.79376 -2.653425,-0.79376 -1.088585,0 -2.120477,0.26081 -1.031886,0.26081 -1.984401,0.78242 v -1.9277 q 1.145285,-0.44224 2.222531,-0.65769 1.077247,-0.22679 2.097794,-0.22679 2.755479,0 4.11621,1.42877 1.360732,1.42877 1.360732,4.33166 z" />
  <path
     inkscape:connector-curvature="0"
     id="path3154"
     style="font-style:normal;font-weight:normal;font-size:40px;line-height:1.25;font-family:sans-serif;letter-spacing:0px;word-spacing:0px;fill:#000000;fill-opacity:1;stroke:none;stroke-width:0.5805788"
     d="m 65.927548,441.33738 h 2.086455 v 12.70016 h -2.086455 z m 0,-4.94399 h 2.086455 v 2.64208 h -2.086455 z" />
  <path
     inkscape:connector-curvature="0"
     id="path3156"
     style="font-style:normal;font-weight:normal;font-size:40px;line-height:1.25;font-family:sans-serif;letter-spacing:0px;word-spacing:0px;fill:#000000;fill-opacity:1;stroke:none;stroke-width:0.5805788"
     d="m 82.93669,446.37209 v 7.66545 h -2.086455 v -7.59742 q 0,-1.80297 -0.703041,-2.69878 -0.703046,-0.89582 -2.109138,-0.89582 -1.689571,0 -2.664764,1.07725 -0.975192,1.07724 -0.975192,2.93691 v 7.17786 H 72.300306 V 441.33738 H 74.3981 v 1.97306 q 0.748401,-1.14529 1.757615,-1.71226 1.020547,-0.56697 2.347257,-0.56697 2.188515,0 3.311116,1.36074 1.122602,1.34939 1.122602,3.98014 z" />
  <path
     inkscape:connector-curvature="0"
     id="path3158"
     style="font-style:normal;font-weight:normal;font-size:40px;line-height:1.25;font-family:sans-serif;letter-spacing:0px;word-spacing:0px;fill:#000000;fill-opacity:1;stroke:none;stroke-width:0.5805788"
     d="m 97.96144,447.16584 v 1.02056 h -9.593163 q 0.136076,2.15448 1.292694,3.28843 1.167962,1.1226 3.243078,1.1226 1.201978,0 2.324585,-0.29482 1.133936,-0.29483 2.245206,-0.88448 v 1.97306 q -1.1226,0.47626 -2.301905,0.72572 -1.179301,0.24947 -2.392618,0.24947 -3.03897,0 -4.819256,-1.76895 -1.768954,-1.76895 -1.768954,-4.78524 0,-3.11834 1.678238,-4.94399 1.689572,-1.83699 4.547111,-1.83699 2.562709,0 4.048174,1.65556 1.49681,1.64422 1.49681,4.47907 z m -2.08646,-0.61232 q -0.0227,-1.71226 -0.963853,-2.73281 -0.929831,-1.02055 -2.471994,-1.02055 -1.746271,0 -2.80084,0.98653 -1.043224,0.98653 -1.201978,2.77817 z" />
  <path
     inkscape:connector-curvature="0"
     id="path3160"
     style="font-style:normal;font-weight:normal;font-size:40px;line-height:1.25;font-family:sans-serif;letter-spacing:0px;word-spacing:0px;fill:#000000;fill-opacity:1;stroke:none;stroke-width:0.5805788"
     d="m 108.74523,443.28776 q -0.35152,-0.20411 -0.77108,-0.29483 -0.40822,-0.10205 -0.90715,-0.10205 -1.76895,0 -2.72147,1.15662 -0.94117,1.14529 -0.94117,3.29977 v 6.69027 h -2.09779 v -12.70016 h 2.09779 v 1.97306 q 0.65769,-1.15662 1.71226,-1.71226 1.05456,-0.56697 2.56271,-0.56697 0.21544,0 0.47625,0.034 0.26081,0.0227 0.57832,0.0794 z" />
  <path
     inkscape:connector-curvature="0"
     id="path3162"
     style="font-style:normal;font-weight:normal;font-size:40px;line-height:1.25;font-family:sans-serif;letter-spacing:0px;word-spacing:0px;fill:#000000;fill-opacity:1;stroke:none;stroke-width:0.5805788"
     d="m 119.03009,441.71158 v 1.97306 q -0.88447,-0.45358 -1.83698,-0.68037 -0.95252,-0.22678 -1.97306,-0.22678 -1.5535,0 -2.33593,0.47625 -0.77108,0.47625 -0.77108,1.42877 0,0.72572 0.55564,1.14528 0.55563,0.40822 2.23387,0.78242 l 0.71438,0.15875 q 2.22253,0.47626 3.15236,1.3494 0.94117,0.86179 0.94117,2.41529 0,1.76896 -1.40609,2.80084 -1.39475,1.03189 -3.84406,1.03189 -1.02055,0 -2.13182,-0.20411 -1.09992,-0.19277 -2.32458,-0.58965 v -2.15449 q 1.15662,0.60099 2.27923,0.90715 1.1226,0.29483 2.22252,0.29483 1.47413,0 2.26789,-0.49893 0.79376,-0.51028 0.79376,-1.42877 0,-0.85046 -0.57831,-1.30404 -0.56698,-0.45357 -2.50602,-0.87313 l -0.72572,-0.1701 q -1.93904,-0.40821 -2.80084,-1.24733 -0.86179,-0.85046 -0.86179,-2.32459 0,-1.79163 1.27001,-2.76682 1.27002,-0.97519 3.60594,-0.97519 1.15662,0 2.17717,0.1701 1.02055,0.17008 1.88234,0.51027 z" />
  <path
     inkscape:connector-curvature="0"
     id="path3195"
     style="font-style:normal;font-weight:normal;font-size:40px;line-height:1.25;font-family:sans-serif;letter-spacing:0px;word-spacing:0px;fill:#000000;fill-opacity:1;stroke:none;stroke-width:0.5805788"
     d="m 144.13572,68.318191 v 1.97306 q -0.88448,-0.45358 -1.83699,-0.68037 -0.95252,-0.22678 -1.97306,-0.22678 -1.5535,0 -2.33593,0.47625 -0.77107,0.47626 -0.77107,1.42877 0,0.72572 0.55563,1.14528 0.55563,0.40822 2.23387,0.78242 l 0.71438,0.15876 q 2.22253,0.47625 3.15236,1.34939 0.94117,0.86179 0.94117,2.41529 0,1.76896 -1.40609,2.80084 -1.39475,1.03189 -3.84406,1.03189 -1.02055,0 -2.13182,-0.20411 -1.09992,-0.19277 -2.32458,-0.58965 v -2.15449 q 1.15662,0.60099 2.27923,0.90715 1.1226,0.29483 2.22252,0.29483 1.47413,0 2.26789,-0.49893 0.79376,-0.51028 0.79376,-1.42877 0,-0.85046 -0.57831,-1.30404 -0.56697,-0.45357 -2.50601,-0.87313 l -0.72573,-0.1701 q -1.93904,-0.40821 -2.80084,-1.24733 -0.86179,-0.85046 -0.86179,-2.32458 0,-1.79164 1.27001,-2.76683 1.27002,-0.97518 3.60594,-0.97518 1.15662,0 2.17717,0.17009 1.02055,0.17008 1.88235,0.51027 z" />
  <path
     inkscape:connector-curvature="0"
     id="path3197"
     style="font-style:normal;font-weight:normal;font-size:40px;line-height:1.25;font-family:sans-serif;letter-spacing:0px;word-spacing:0px;fill:#000000;fill-opacity:1;stroke:none;stroke-width:0.5805788"
     d="m 155.37309,71.515911 q 1.64422,0.35152 2.56271,1.46279 0.92984,1.11126 0.92984,2.74414 0,2.50601 -1.72359,3.87808 -1.7236,1.37207 -4.89864,1.37207 -1.06591,0 -2.19985,-0.21545 -1.1226,-0.20411 -2.32458,-0.62367 v -2.21118 q 0.95251,0.55563 2.08645,0.83911 1.13394,0.28349 2.36994,0.28349 2.1545,0 3.2771,-0.85046 1.13394,-0.85045 1.13394,-2.47199 0,-1.49681 -1.05457,-2.33593 -1.04323,-0.85045 -2.91423,-0.85045 h -1.97306 v -1.88235 h 2.06378 q 1.68957,0 2.58538,-0.66902 0.89582,-0.68037 0.89582,-1.95039 0,-1.30403 -0.92983,-1.99574 -0.91849,-0.70304 -2.64209,-0.70304 -0.94117,0 -2.01842,0.20411 -1.07724,0.20411 -2.36994,0.63501 v -2.0411 q 1.30404,-0.36286 2.43798,-0.54429 1.14528,-0.18143 2.15449,-0.18143 2.60807,0 4.12755,1.19064 1.51948,1.1793 1.51948,3.19771 0,1.4061 -0.8051,2.38129 -0.8051,0.96385 -2.29056,1.33805 z" />
  <path
     inkscape:connector-curvature="0"
     id="path3199"
     style="font-style:normal;font-weight:normal;font-size:40px;line-height:1.25;font-family:sans-serif;letter-spacing:0px;word-spacing:0px;fill:#000000;fill-opacity:1;stroke:none;stroke-width:0.5805788"
     d="m 179.41268,74.305411 q 0,-2.3019 -0.95251,-3.60594 -0.94117,-1.31537 -2.59673,-1.31537 -1.65555,0 -2.60807,1.31537 -0.94117,1.30404 -0.94117,3.60594 0,2.3019 0.94117,3.61728 0.95252,1.30403 2.60807,1.30403 1.65556,0 2.59673,-1.30403 0.95251,-1.31538 0.95251,-3.61728 z m -7.09848,-4.43372 q 0.65769,-1.13394 1.65556,-1.67823 1.0092,-0.55563 2.40396,-0.55563 2.31324,0 3.75335,1.83698 1.45144,1.83699 1.45144,4.8306 0,2.99361 -1.45144,4.83059 -1.44011,1.83699 -3.75335,1.83699 -1.39476,0 -2.40396,-0.54429 -0.99787,-0.55563 -1.65556,-1.68958 v 1.90503 h -2.09779 v -17.64415 h 2.09779 z" />
  <path
     inkscape:connector-curvature="0"
     id="path3201"
     style="font-style:normal;font-weight:normal;font-size:40px;line-height:1.25;font-family:sans-serif;letter-spacing:0px;word-spacing:0px;fill:#000000;fill-opacity:1;stroke:none;stroke-width:0.5805788"
     d="m 184.82159,75.632121 v -7.68813 h 2.08646 v 7.60876 q 0,1.80297 0.70304,2.71012 0.70304,0.89582 2.10914,0.89582 1.68957,0 2.66476,-1.07725 0.98653,-1.07725 0.98653,-2.93692 v -7.20053 h 2.08646 v 12.70016 h -2.08646 v -1.95038 q -0.75974,1.15662 -1.76895,1.72359 -0.99787,0.55563 -2.32458,0.55563 -2.18851,0 -3.32246,-1.36073 -1.13394,-1.36073 -1.13394,-3.98014 z m 5.25016,-7.99429 z" />
  <path
     inkscape:connector-curvature="0"
     id="path3203"
     style="font-style:normal;font-weight:normal;font-size:40px;line-height:1.25;font-family:sans-serif;letter-spacing:0px;word-spacing:0px;fill:#000000;fill-opacity:1;stroke:none;stroke-width:0.5805788"
     d="m 208.8952,68.431581 v 1.95039 q -0.88448,-0.4876 -1.78029,-0.72573 -0.88448,-0.24947 -1.79163,-0.24947 -2.02976,0 -3.15236,1.2927 -1.1226,1.28136 -1.1226,3.60594 0,2.32458 1.1226,3.61728 1.1226,1.28135 3.15236,1.28135 0.90715,0 1.79163,-0.23812 0.89581,-0.24947 1.78029,-0.73707 v 1.92771 q -0.87314,0.40821 -1.81431,0.61232 -0.92983,0.20411 -1.9844,0.20411 -2.86887,0 -4.55845,-1.80297 -1.68958,-1.80297 -1.68958,-4.86461 0,-3.10701 1.70092,-4.8873 1.71225,-1.78028 4.68318,-1.78028 0.96385,0 1.88235,0.2041 0.91849,0.19277 1.78029,0.58965 z" />
  <path
     inkscape:connector-curvature="0"
     id="path3205"
     style="font-style:normal;font-weight:normal;font-size:40px;line-height:1.25;font-family:sans-serif;letter-spacing:0px;word-spacing:0px;fill:#000000;fill-opacity:1;stroke:none;stroke-width:0.5805788"
     d="m 212.44444,63.000001 h 2.09779 v 10.42093 l 6.22535,-5.47694 h 2.66477 l -6.73562,5.94186 7.0191,6.7583 h -2.72146 l -6.45214,-6.20267 v 6.20267 h -2.09779 z" />
  <path
     inkscape:connector-curvature="0"
     id="path3207"
     style="font-style:normal;font-weight:normal;font-size:40px;line-height:1.25;font-family:sans-serif;letter-spacing:0px;word-spacing:0px;fill:#000000;fill-opacity:1;stroke:none;stroke-width:0.5805788"
     d="m 236.00777,73.772451 v 1.02056 h -9.59315 q 0.13607,2.15448 1.29269,3.28843 1.16796,1.1226 3.24308,1.1226 1.20198,0 2.32458,-0.29482 1.13394,-0.29483 2.24521,-0.88448 v 1.97306 q -1.12261,0.47626 -2.30191,0.72573 -1.1793,0.24946 -2.39261,0.24946 -3.03897,0 -4.81926,-1.76895 -1.76895,-1.76895 -1.76895,-4.78524 0,-3.11834 1.67823,-4.94399 1.68958,-1.83698 4.54711,-1.83698 2.56271,0 4.04818,1.65555 1.4968,1.64422 1.4968,4.47907 z m -2.08645,-0.61232 q -0.0227,-1.71226 -0.96385,-2.73281 -0.92984,-1.02055 -2.472,-1.02055 -1.74627,0 -2.80084,0.98653 -1.04322,0.98654 -1.20198,2.77817 z" />
  <path
     inkscape:connector-curvature="0"
     id="path3209"
     style="font-style:normal;font-weight:normal;font-size:40px;line-height:1.25;font-family:sans-serif;letter-spacing:0px;word-spacing:0px;fill:#000000;fill-opacity:1;stroke:none;stroke-width:0.5805788"
     d="m 241.49606,64.338051 v 3.60594 h 4.29764 v 1.62154 h -4.29764 v 6.89437 q 0,1.5535 0.41956,1.99574 0.4309,0.44224 1.73493,0.44224 h 2.14315 v 1.74627 h -2.14315 q -2.4153,0 -3.33379,-0.89582 -0.9185,-0.90715 -0.9185,-3.28843 v -6.89437 h -1.53082 v -1.62154 h 1.53082 v -3.60594 z" />
  <path
     inkscape:connector-curvature="0"
     id="path3117"
     style="font-style:normal;font-weight:normal;font-size:40px;line-height:1.25;font-family:sans-serif;letter-spacing:0px;word-spacing:0px;fill:#000000;fill-opacity:1;stroke:none;stroke-width:0.5805788"
     d="m 352.54189,374.42083 q -1.67823,0 -2.65342,1.31538 -0.97519,1.30403 -0.97519,3.58326 0,2.27922 0.96385,3.5946 0.97519,1.30403 2.66476,1.30403 1.6669,0 2.64209,-1.31537 0.97519,-1.31538 0.97519,-3.58326 0,-2.25655 -0.97519,-3.57192 -0.97519,-1.32672 -2.64209,-1.32672 z m 0,-1.76895 q 2.72147,0 4.27497,1.76895 1.5535,1.76896 1.5535,4.89864 0,3.11834 -1.5535,4.89863 -1.5535,1.76895 -4.27497,1.76895 -2.7328,0 -4.2863,-1.76895 -1.54216,-1.78029 -1.54216,-4.89863 0,-3.12968 1.54216,-4.89864 1.5535,-1.76895 4.2863,-1.76895 z" />
  <path
     inkscape:connector-curvature="0"
     id="path3119"
     style="font-style:normal;font-weight:normal;font-size:40px;line-height:1.25;font-family:sans-serif;letter-spacing:0px;word-spacing:0px;fill:#000000;fill-opacity:1;stroke:none;stroke-width:0.5805788"
     d="m 372.3859,377.99276 v 7.66545 h -2.08646 v -7.59742 q 0,-1.80297 -0.70304,-2.69878 -0.70305,-0.89582 -2.10914,-0.89582 -1.68957,0 -2.66476,1.07725 -0.97519,1.07724 -0.97519,2.93691 v 7.17786 h -2.0978 v -12.70016 h 2.0978 v 1.97306 q 0.7484,-1.14529 1.75761,-1.71226 1.02054,-0.56697 2.34726,-0.56697 2.18851,0 3.31112,1.36074 1.1226,1.34939 1.1226,3.98014 z" />
  <path
     inkscape:connector-curvature="0"
     id="path3121"
     style="font-style:normal;font-weight:normal;font-size:40px;line-height:1.25;font-family:sans-serif;letter-spacing:0px;word-spacing:0px;fill:#000000;fill-opacity:1;stroke:none;stroke-width:0.5805788"
     d="m 376.54747,368.01406 h 2.08645 v 17.64415 h -2.08645 z" />
  <path
     inkscape:connector-curvature="0"
     id="path3123"
     style="font-style:normal;font-weight:normal;font-size:40px;line-height:1.25;font-family:sans-serif;letter-spacing:0px;word-spacing:0px;fill:#000000;fill-opacity:1;stroke:none;stroke-width:0.5805788"
     d="m 382.9996,372.95805 h 2.08646 v 12.70016 h -2.08646 z m 0,-4.94399 h 2.08646 v 2.64208 h -2.08646 z" />
  <path
     inkscape:connector-curvature="0"
     id="path3125"
     style="font-style:normal;font-weight:normal;font-size:40px;line-height:1.25;font-family:sans-serif;letter-spacing:0px;word-spacing:0px;fill:#000000;fill-opacity:1;stroke:none;stroke-width:0.5805788"
     d="m 400.00874,377.99276 v 7.66545 h -2.08645 v -7.59742 q 0,-1.80297 -0.70304,-2.69878 -0.70305,-0.89582 -2.10914,-0.89582 -1.68957,0 -2.66476,1.07725 -0.97519,1.07724 -0.97519,2.93691 v 7.17786 h -2.0978 v -12.70016 h 2.0978 v 1.97306 q 0.7484,-1.14529 1.75761,-1.71226 1.02055,-0.56697 2.34726,-0.56697 2.18851,0 3.31111,1.36074 1.1226,1.34939 1.1226,3.98014 z" />
  <path
     inkscape:connector-curvature="0"
     id="path3127"
     style="font-style:normal;font-weight:normal;font-size:40px;line-height:1.25;font-family:sans-serif;letter-spacing:0px;word-spacing:0px;fill:#000000;fill-opacity:1;stroke:none;stroke-width:0.5805788"
     d="m 415.03349,378.78651 v 1.02056 h -9.59316 q 0.13608,2.15448 1.2927,3.28843 1.16796,1.1226 3.24307,1.1226 1.20199,0 2.32459,-0.29482 1.13394,-0.29483 2.24521,-0.88448 v 1.97306 q -1.12261,0.47626 -2.30191,0.72572 -1.1793,0.24947 -2.39262,0.24947 -3.03897,0 -4.81925,-1.76895 -1.76896,-1.76895 -1.76896,-4.78524 0,-3.11834 1.67824,-4.94399 1.68957,-1.83699 4.54711,-1.83699 2.56271,0 4.04818,1.65556 1.4968,1.64422 1.4968,4.47907 z m -2.08645,-0.61232 q -0.0227,-1.71226 -0.96386,-2.73281 -0.92983,-1.02055 -2.47199,-1.02055 -1.74627,0 -2.80084,0.98653 -1.04323,0.98653 -1.20198,2.77817 z" />
  <path
     inkscape:connector-curvature="0"
     id="path3129"
     style="font-style:normal;font-weight:normal;font-size:40px;line-height:1.25;font-family:sans-serif;letter-spacing:0px;word-spacing:0px;fill:#000000;fill-opacity:1;stroke:none;stroke-width:0.5805788"
     d="m 435.72795,375.39603 q 0.78242,-1.4061 1.87101,-2.07512 1.08858,-0.66903 2.56271,-0.66903 1.9844,0 3.06164,1.39475 1.07725,1.38341 1.07725,3.94613 v 7.66545 h -2.09779 v -7.59742 q 0,-1.82565 -0.64636,-2.71013 -0.64634,-0.88447 -1.97305,-0.88447 -1.62154,0 -2.56272,1.07725 -0.94117,1.07724 -0.94117,2.93691 v 7.17786 h -2.09779 v -7.59742 q 0,-1.83699 -0.64635,-2.71013 -0.64634,-0.88447 -1.99574,-0.88447 -1.59886,0 -2.54003,1.08859 -0.94118,1.07724 -0.94118,2.92557 v 7.17786 h -2.09779 v -12.70016 h 2.09779 v 1.97306 q 0.71439,-1.16796 1.71226,-1.72359 0.99787,-0.55564 2.36994,-0.55564 1.38341,0 2.34726,0.70304 0.97519,0.70305 1.44011,2.04111 z" />
  <path
     inkscape:connector-curvature="0"
     id="path3131"
     style="font-style:normal;font-weight:normal;font-size:40px;line-height:1.25;font-family:sans-serif;letter-spacing:0px;word-spacing:0px;fill:#000000;fill-opacity:1;stroke:none;stroke-width:0.5805788"
     d="m 454.2339,379.27411 q -2.5287,0 -3.50388,0.57831 -0.97519,0.57831 -0.97519,1.97306 0,1.11126 0.72572,1.76895 0.73706,0.64635 1.99574,0.64635 1.73493,0 2.77816,-1.22466 1.05456,-1.236 1.05456,-3.27709 v -0.46492 z m 4.16157,-0.8618 v 7.2459 h -2.08646 v -1.9277 q -0.71438,1.15662 -1.78029,1.71225 -1.0659,0.54429 -2.60806,0.54429 -1.95039,0 -3.10701,-1.08858 -1.14528,-1.09993 -1.14528,-2.93692 0,-2.14315 1.42877,-3.23173 1.4401,-1.08859 4.2863,-1.08859 h 2.92557 v -0.20411 q 0,-1.4401 -0.9525,-2.22253 -0.94118,-0.79376 -2.65344,-0.79376 -1.08858,0 -2.12047,0.26081 -1.03188,0.26081 -1.9844,0.78242 v -1.9277 q 1.14529,-0.44224 2.22253,-0.65769 1.07724,-0.22679 2.0978,-0.22679 2.75548,0 4.11621,1.42877 1.36073,1.42877 1.36073,4.33166 z" />
  <path
     inkscape:connector-curvature="0"
     id="path3133"
     style="font-style:normal;font-weight:normal;font-size:40px;line-height:1.25;font-family:sans-serif;letter-spacing:0px;word-spacing:0px;fill:#000000;fill-opacity:1;stroke:none;stroke-width:0.5805788"
     d="m 471.83269,373.44564 v 1.95039 q -0.88447,-0.4876 -1.78028,-0.72573 -0.88448,-0.24947 -1.79164,-0.24947 -2.02976,0 -3.15236,1.2927 -1.1226,1.28136 -1.1226,3.60594 0,2.32458 1.1226,3.61727 1.1226,1.28136 3.15236,1.28136 0.90716,0 1.79164,-0.23812 0.89581,-0.24947 1.78028,-0.73707 v 1.9277 q -0.87313,0.40822 -1.81431,0.61233 -0.92983,0.20411 -1.9844,0.20411 -2.86887,0 -4.55845,-1.80297 -1.68957,-1.80297 -1.68957,-4.86461 0,-3.10701 1.70091,-4.8873 1.71226,-1.78029 4.68319,-1.78029 0.96385,0 1.88235,0.20411 0.91849,0.19277 1.78028,0.58965 z" />
  <path
     inkscape:connector-curvature="0"
     id="path3135"
     style="font-style:normal;font-weight:normal;font-size:40px;line-height:1.25;font-family:sans-serif;letter-spacing:0px;word-spacing:0px;fill:#000000;fill-opacity:1;stroke:none;stroke-width:0.5805788"
     d="m 486.01832,377.99276 v 7.66545 h -2.08645 v -7.59742 q 0,-1.80297 -0.70305,-2.69878 -0.70304,-0.89582 -2.10913,-0.89582 -1.68958,0 -2.66477,1.07725 -0.97519,1.07724 -0.97519,2.93691 v 7.17786 h -2.0978 v -17.64415 h 2.0978 v 6.91705 q 0.7484,-1.14529 1.75761,-1.71226 1.02055,-0.56697 2.34727,-0.56697 2.1885,0 3.31111,1.36074 1.1226,1.34939 1.1226,3.98014 z" />
  <path
     inkscape:connector-curvature="0"
     id="path3137"
     style="font-style:normal;font-weight:normal;font-size:40px;line-height:1.25;font-family:sans-serif;letter-spacing:0px;word-spacing:0px;fill:#000000;fill-opacity:1;stroke:none;stroke-width:0.5805788"
     d="m 490.17989,372.95805 h 2.08645 v 12.70016 h -2.08645 z m 0,-4.94399 h 2.08645 v 2.64208 h -2.08645 z" />
  <path
     inkscape:connector-curvature="0"
     id="path3139"
     style="font-style:normal;font-weight:normal;font-size:40px;line-height:1.25;font-family:sans-serif;letter-spacing:0px;word-spacing:0px;fill:#000000;fill-opacity:1;stroke:none;stroke-width:0.5805788"
     d="m 507.18904,377.99276 v 7.66545 h -2.08646 v -7.59742 q 0,-1.80297 -0.70305,-2.69878 -0.70304,-0.89582 -2.10913,-0.89582 -1.68958,0 -2.66476,1.07725 -0.97519,1.07724 -0.97519,2.93691 v 7.17786 h -2.0978 v -12.70016 h 2.0978 v 1.97306 q 0.7484,-1.14529 1.75761,-1.71226 1.02054,-0.56697 2.34726,-0.56697 2.18851,0 3.31111,1.36074 1.12261,1.34939 1.12261,3.98014 z" />
  <path
     inkscape:connector-curvature="0"
     id="path3141"
     style="font-style:normal;font-weight:normal;font-size:40px;line-height:1.25;font-family:sans-serif;letter-spacing:0px;word-spacing:0px;fill:#000000;fill-opacity:1;stroke:none;stroke-width:0.5805788"
     d="m 522.21378,378.78651 v 1.02056 h -9.59316 q 0.13607,2.15448 1.2927,3.28843 1.16796,1.1226 3.24307,1.1226 1.20198,0 2.32458,-0.29482 1.13395,-0.29483 2.24521,-0.88448 v 1.97306 q -1.1226,0.47626 -2.3019,0.72572 -1.1793,0.24947 -2.39262,0.24947 -3.03897,0 -4.81926,-1.76895 -1.76895,-1.76895 -1.76895,-4.78524 0,-3.11834 1.67824,-4.94399 1.68957,-1.83699 4.54711,-1.83699 2.56271,0 4.04817,1.65556 1.49681,1.64422 1.49681,4.47907 z m -2.08645,-0.61232 q -0.0227,-1.71226 -0.96386,-2.73281 -0.92983,-1.02055 -2.47199,-1.02055 -1.74628,0 -2.80084,0.98653 -1.04323,0.98653 -1.20198,2.77817 z" />
  <path
     inkscape:connector-curvature="0"
     id="path3094"
     style="font-style:normal;font-weight:normal;font-size:40px;line-height:1.25;font-family:sans-serif;letter-spacing:0px;word-spacing:0px;fill:#000000;fill-opacity:1;stroke:none;stroke-width:0.5805788"
     d="m 656.89725,372.27953 q -1.67823,0 -2.65342,1.31538 -0.97519,1.30403 -0.97519,3.58326 0,2.27922 0.96385,3.5946 0.97519,1.30403 2.66476,1.30403 1.6669,0 2.64209,-1.31537 0.97519,-1.31538 0.97519,-3.58326 0,-2.25655 -0.97519,-3.57192 -0.97519,-1.32672 -2.64209,-1.32672 z m 0,-1.76895 q 2.72147,0 4.27497,1.76895 1.5535,1.76896 1.5535,4.89864 0,3.11834 -1.5535,4.89863 -1.5535,1.76895 -4.27497,1.76895 -2.7328,0 -4.2863,-1.76895 -1.54216,-1.78029 -1.54216,-4.89863 0,-3.12968 1.54216,-4.89864 1.5535,-1.76895 4.2863,-1.76895 z" />
  <path
     inkscape:connector-curvature="0"
     id="path3096"
     style="font-style:normal;font-weight:normal;font-size:40px;line-height:1.25;font-family:sans-serif;letter-spacing:0px;word-spacing:0px;fill:#000000;fill-opacity:1;stroke:none;stroke-width:0.5805788"
     d="m 672.6137,365.87276 v 1.73493 h -1.99574 q -1.1226,0 -1.56484,0.45358 -0.4309,0.45357 -0.4309,1.63288 v 1.1226 h 5.72642 v -0.88448 q 0,-2.12047 0.98653,-3.08432 0.98653,-0.97519 3.12968,-0.97519 h 5.80579 v 17.64415 h -2.09779 v -15.90922 h -3.73068 q -1.1226,0 -1.56484,0.45358 -0.4309,0.45357 -0.4309,1.63288 v 1.1226 h 3.43585 v 1.62154 h -3.43585 v 11.07862 h -2.09779 v -11.07862 h -5.72642 v 11.07862 h -2.09779 v -11.07862 h -1.99574 v -1.62154 h 1.99574 v -0.88448 q 0,-2.12047 0.98653,-3.08432 0.98653,-0.97519 3.12969,-0.97519 z" />
  <path
     inkscape:connector-curvature="0"
     id="path3098"
     style="font-style:normal;font-weight:normal;font-size:40px;line-height:1.25;font-family:sans-serif;letter-spacing:0px;word-spacing:0px;fill:#000000;fill-opacity:1;stroke:none;stroke-width:0.5805788"
     d="m 688.63632,370.81675 h 2.08645 v 12.70016 h -2.08645 z m 0,-4.94399 h 2.08645 v 2.64208 h -2.08645 z" />
  <path
     inkscape:connector-curvature="0"
     id="path3100"
     style="font-style:normal;font-weight:normal;font-size:40px;line-height:1.25;font-family:sans-serif;letter-spacing:0px;word-spacing:0px;fill:#000000;fill-opacity:1;stroke:none;stroke-width:0.5805788"
     d="m 705.64547,375.85146 v 7.66545 h -2.08646 v -7.59742 q 0,-1.80297 -0.70305,-2.69878 -0.70304,-0.89582 -2.10913,-0.89582 -1.68958,0 -2.66477,1.07725 -0.97519,1.07724 -0.97519,2.93691 v 7.17786 h -2.09779 v -12.70016 h 2.09779 v 1.97306 q 0.74841,-1.14529 1.75762,-1.71226 1.02054,-0.56697 2.34726,-0.56697 2.18851,0 3.31111,1.36074 1.12261,1.34939 1.12261,3.98014 z" />
  <path
     inkscape:connector-curvature="0"
     id="path3102"
     style="font-style:normal;font-weight:normal;font-size:40px;line-height:1.25;font-family:sans-serif;letter-spacing:0px;word-spacing:0px;fill:#000000;fill-opacity:1;stroke:none;stroke-width:0.5805788"
     d="m 720.67021,376.64521 v 1.02056 h -9.59316 q 0.13607,2.15448 1.2927,3.28843 1.16796,1.1226 3.24307,1.1226 1.20198,0 2.32458,-0.29482 1.13395,-0.29483 2.24521,-0.88448 v 1.97306 q -1.1226,0.47626 -2.30191,0.72572 -1.1793,0.24947 -2.39261,0.24947 -3.03897,0 -4.81926,-1.76895 -1.76895,-1.76895 -1.76895,-4.78524 0,-3.11834 1.67824,-4.94399 1.68957,-1.83699 4.54711,-1.83699 2.56271,0 4.04817,1.65556 1.49681,1.64422 1.49681,4.47907 z m -2.08646,-0.61232 q -0.0227,-1.71226 -0.96385,-2.73281 -0.92983,-1.02055 -2.472,-1.02055 -1.74627,0 -2.80084,0.98653 -1.04322,0.98653 -1.20197,2.77817 z" />
  <path
     inkscape:connector-curvature="0"
     id="path3104"
     style="font-style:normal;font-weight:normal;font-size:40px;line-height:1.25;font-family:sans-serif;letter-spacing:0px;word-spacing:0px;fill:#000000;fill-opacity:1;stroke:none;stroke-width:0.5805788"
     d="m 739.57304,371.19095 v 1.97306 q -0.88448,-0.45358 -1.83699,-0.68037 -0.95251,-0.22678 -1.97306,-0.22678 -1.55351,0 -2.33592,0.47625 -0.77109,0.47625 -0.77109,1.42877 0,0.72572 0.55563,1.14528 0.55564,0.40822 2.23387,0.78242 l 0.71439,0.15875 q 2.22252,0.47626 3.15236,1.3494 0.94117,0.86179 0.94117,2.41529 0,1.76896 -1.40608,2.80084 -1.39476,1.03189 -3.84408,1.03189 -1.02054,0 -2.1318,-0.20411 -1.09993,-0.19277 -2.32459,-0.58965 v -2.15449 q 1.15662,0.60099 2.27922,0.90715 1.12261,0.29483 2.22254,0.29483 1.47412,0 2.26788,-0.49893 0.79376,-0.51028 0.79376,-1.42877 0,-0.85046 -0.57831,-1.30404 -0.56697,-0.45357 -2.50602,-0.87313 l -0.72572,-0.1701 q -1.93904,-0.40821 -2.80084,-1.24733 -0.86179,-0.85046 -0.86179,-2.32459 0,-1.79163 1.27001,-2.76682 1.27002,-0.97519 3.60594,-0.97519 1.15662,0 2.17717,0.1701 1.02055,0.17008 1.88235,0.51027 z" />
  <path
     inkscape:connector-curvature="0"
     id="path3106"
     style="font-style:normal;font-weight:normal;font-size:40px;line-height:1.25;font-family:sans-serif;letter-spacing:0px;word-spacing:0px;fill:#000000;fill-opacity:1;stroke:none;stroke-width:0.5805788"
     d="m 754.43903,376.64521 v 1.02056 h -9.59316 q 0.13607,2.15448 1.2927,3.28843 1.16796,1.1226 3.24307,1.1226 1.20198,0 2.32458,-0.29482 1.13395,-0.29483 2.24521,-0.88448 v 1.97306 q -1.1226,0.47626 -2.3019,0.72572 -1.1793,0.24947 -2.39262,0.24947 -3.03897,0 -4.81926,-1.76895 -1.76895,-1.76895 -1.76895,-4.78524 0,-3.11834 1.67823,-4.94399 1.68958,-1.83699 4.54712,-1.83699 2.56271,0 4.04817,1.65556 1.49681,1.64422 1.49681,4.47907 z m -2.08646,-0.61232 q -0.0227,-1.71226 -0.96385,-2.73281 -0.92983,-1.02055 -2.47199,-1.02055 -1.74628,0 -2.80084,0.98653 -1.04323,0.98653 -1.20199,2.77817 z" />
  <path
     inkscape:connector-curvature="0"
     id="path3108"
     style="font-style:normal;font-weight:normal;font-size:40px;line-height:1.25;font-family:sans-serif;letter-spacing:0px;word-spacing:0px;fill:#000000;fill-opacity:1;stroke:none;stroke-width:0.5805788"
     d="m 765.22282,372.76713 q -0.35152,-0.20411 -0.77107,-0.29483 -0.40823,-0.10205 -0.90716,-0.10205 -1.76895,0 -2.72146,1.15662 -0.94118,1.14529 -0.94118,3.29977 v 6.69027 h -2.09779 v -12.70016 h 2.09779 v 1.97306 q 0.65769,-1.15662 1.71226,-1.71226 1.05457,-0.56697 2.56271,-0.56697 0.21545,0 0.47626,0.034 0.2608,0.0227 0.57831,0.0794 z" />
  <path
     inkscape:connector-curvature="0"
     id="path3110"
     style="font-style:normal;font-weight:normal;font-size:40px;line-height:1.25;font-family:sans-serif;letter-spacing:0px;word-spacing:0px;fill:#000000;fill-opacity:1;stroke:none;stroke-width:0.5805788"
     d="m 765.91453,370.81675 h 2.21119 l 3.9688,10.65906 3.9688,-10.65906 h 2.21119 l -4.76256,12.70016 h -2.83486 z" />
  <path
     inkscape:connector-curvature="0"
     id="path3112"
     style="font-style:normal;font-weight:normal;font-size:40px;line-height:1.25;font-family:sans-serif;letter-spacing:0px;word-spacing:0px;fill:#000000;fill-opacity:1;stroke:none;stroke-width:0.5805788"
     d="m 792.0179,376.64521 v 1.02056 h -9.59316 q 0.13607,2.15448 1.29269,3.28843 1.16797,1.1226 3.24308,1.1226 1.20198,0 2.32459,-0.29482 1.13394,-0.29483 2.2452,-0.88448 v 1.97306 q -1.1226,0.47626 -2.3019,0.72572 -1.1793,0.24947 -2.39262,0.24947 -3.03897,0 -4.81926,-1.76895 -1.76895,-1.76895 -1.76895,-4.78524 0,-3.11834 1.67823,-4.94399 1.68958,-1.83699 4.54712,-1.83699 2.56271,0 4.04817,1.65556 1.49681,1.64422 1.49681,4.47907 z m -2.08646,-0.61232 q -0.0227,-1.71226 -0.96385,-2.73281 -0.92983,-1.02055 -2.47199,-1.02055 -1.74627,0 -2.80084,0.98653 -1.04323,0.98653 -1.20198,2.77817 z" />
  <path
     inkscape:connector-curvature="0"
     id="path3114"
     style="font-style:normal;font-weight:normal;font-size:40px;line-height:1.25;font-family:sans-serif;letter-spacing:0px;word-spacing:0px;fill:#000000;fill-opacity:1;stroke:none;stroke-width:0.5805788"
     d="m 802.8017,372.76713 q -0.35153,-0.20411 -0.77109,-0.29483 -0.40821,-0.10205 -0.90715,-0.10205 -1.76895,0 -2.72146,1.15662 -0.94117,1.14529 -0.94117,3.29977 v 6.69027 h -2.0978 v -12.70016 h 2.0978 v 1.97306 q 0.65768,-1.15662 1.71225,-1.71226 1.05456,-0.56697 2.56271,-0.56697 0.21545,0 0.47625,0.034 0.26081,0.0227 0.57831,0.0794 z" />
  <path
     sodipodi:nodetypes="cccc"
     inkscape:connector-curvature="0"
     id="path2710"
     d="m 308.19614,298.05064 34.73893,-8.03658 -34.73893,-8.03658 z"
     style="opacity:1;fill:#000000;fill-opacity:1;stroke:none;stroke-width:3.12024927;stroke-linecap:round;stroke-linejoin:bevel;stroke-miterlimit:4;stroke-dasharray:none;stroke-dashoffset:0;stroke-opacity:1" />
  <g
     transform="matrix(2.8346456,0,0,2.8346456,231.36368,-159.15742)"
     id="layer1"
     inkscape:label="Layer 1">
    <g
       id="g155">
      <g
         id="g2972"
         transform="matrix(0.40412574,0,0,0.40412574,-69.917115,129.26219)">
        <path
           d="m 60.074699,109.48317 q -2.985665,0 -4.495657,-1.40704 -1.475674,-1.40703 -1.475674,-4.04952 v -8.682451 h -2.539531 v -3.912251 h 2.539531 v -4.7702 h 5.353607 v 4.7702 h 3.809297 v 3.912251 h -3.809297 v 8.030411 q 0,0.89227 0.377498,1.3384 0.377498,0.41182 1.269766,0.41182 0.549087,0 1.132493,-0.17159 0.583406,-0.20591 1.02954,-0.54909 v 4.35838 q -1.304084,0.72068 -3.191573,0.72068 z"
           style="font-style:normal;font-variant:normal;font-weight:bold;font-stretch:normal;font-size:medium;line-height:1.25;font-family:'Maven Pro';-inkscape-font-specification:'Maven Pro Bold';letter-spacing:0px;word-spacing:0px;fill:#000000;fill-opacity:1;stroke:none;stroke-width:0.85794979"
           id="path117"
           inkscape:connector-curvature="0" />
        <path
           d="m 74.938138,109.31158 q -4.392703,0 -6.589054,-2.33362 -2.196351,-2.33363 -2.196351,-6.93224 0,-4.804515 2.162033,-7.000866 2.196351,-2.196352 6.623372,-2.196352 4.427021,0 6.657691,2.264988 2.230669,2.230669 2.230669,6.93223 0,4.52998 -2.299305,6.89792 -2.299306,2.36794 -6.589055,2.36794 z m 0,-4.08384 q 1.88749,0 2.848394,-1.30408 0.960903,-1.3384 0.960903,-3.87794 0,-2.779753 -0.960903,-3.946565 -0.926586,-1.20113 -2.848394,-1.20113 -1.990443,0 -2.882711,1.20113 -0.85795,1.166812 -0.85795,3.946565 0,2.64249 0.892268,3.91226 0.926586,1.26976 2.848393,1.26976 z"
           style="font-style:normal;font-variant:normal;font-weight:bold;font-stretch:normal;font-size:medium;line-height:1.25;font-family:'Maven Pro';-inkscape-font-specification:'Maven Pro Bold';letter-spacing:0px;word-spacing:0px;fill:#000000;fill-opacity:1;stroke:none;stroke-width:0.85794979"
           id="path119"
           inkscape:connector-curvature="0" />
        <path
           d="m 95.180391,109.31158 q -4.392703,0 -6.589054,-2.33362 -2.196352,-2.33363 -2.196352,-6.93224 0,-4.804515 2.162034,-7.000866 2.196351,-2.196352 6.623372,-2.196352 4.427021,0 6.657689,2.264988 2.23067,2.230669 2.23067,6.93223 0,4.52998 -2.2993,6.89792 -2.29931,2.36794 -6.589059,2.36794 z m 0,-4.08384 q 1.887489,0 2.848393,-1.30408 0.960904,-1.3384 0.960904,-3.87794 0,-2.779753 -0.960904,-3.946565 -0.926586,-1.20113 -2.848393,-1.20113 -1.990444,0 -2.882711,1.20113 -0.85795,1.166812 -0.85795,3.946565 0,2.64249 0.892268,3.91226 0.926585,1.26976 2.848393,1.26976 z"
           style="font-style:normal;font-variant:normal;font-weight:bold;font-stretch:normal;font-size:medium;line-height:1.25;font-family:'Maven Pro';-inkscape-font-specification:'Maven Pro Bold';letter-spacing:0px;word-spacing:0px;fill:#000000;fill-opacity:1;stroke:none;stroke-width:0.85794979"
           id="path121"
           inkscape:connector-curvature="0" />
        <path
           d="M 107.59814,108.79681 V 84.877172 h 5.07906 v 23.919638 z"
           style="font-style:normal;font-variant:normal;font-weight:bold;font-stretch:normal;font-size:medium;line-height:1.25;font-family:'Maven Pro';-inkscape-font-specification:'Maven Pro Bold';letter-spacing:0px;word-spacing:0px;fill:#000000;fill-opacity:1;stroke:none;stroke-width:0.85794979"
           id="path123"
           inkscape:connector-curvature="0" />
        <path
           d="m 122.33075,109.31158 q -1.64726,0 -2.88271,-0.34318 -1.23545,-0.30886 -2.74544,-0.92658 v -4.49566 q 2.77976,2.0934 5.83406,2.0934 1.16681,0 1.68158,-0.3775 0.54909,-0.41182 0.54909,-1.09818 0,-0.78931 -0.85795,-1.16681 -0.85795,-0.3775 -2.74544,-0.82363 -1.99044,-0.41182 -3.29453,-1.64726 -1.26976,-1.235452 -1.26976,-3.603393 0,-2.024762 1.02954,-3.328845 1.02954,-1.304084 2.57385,-1.88749 1.57862,-0.617724 3.26021,-0.617724 2.05908,0 3.32884,0.377498 1.30408,0.34318 2.53953,1.098176 v 4.015205 q -1.75022,-0.960904 -2.71112,-1.37272 -0.9609,-0.411816 -2.23067,-0.411816 -1.26976,0 -1.88749,0.411816 -0.61772,0.377498 -0.61772,1.098176 0,0.85795 0.68636,1.269766 0.68636,0.377498 2.19635,0.789314 1.7159,0.446133 2.71112,0.892267 0.99522,0.411816 1.78454,1.47567 0.78931,1.02954 0.78931,2.91703 -0.0686,2.95135 -2.23067,4.32407 -2.16203,1.3384 -5.49088,1.3384 z"
           style="font-style:normal;font-variant:normal;font-weight:bold;font-stretch:normal;font-size:medium;line-height:1.25;font-family:'Maven Pro';-inkscape-font-specification:'Maven Pro Bold';letter-spacing:0px;word-spacing:0px;fill:#000000;fill-opacity:1;stroke:none;stroke-width:0.85794979"
           id="path125"
           inkscape:connector-curvature="0" />
        <path
           style="fill:#24af63;stroke-width:0.16842628"
           inkscape:connector-curvature="0"
           id="path24-6"
           d="m 223.58598,61.993475 v 0.606335 c -0.0169,0 -0.0169,0 -0.0337,0.01684 l -0.30317,-0.25264 c -0.67371,-0.572649 -1.39794,-1.077928 -2.20638,-1.482151 -0.13474,-0.06737 -0.26949,-0.151584 -0.42107,-0.185269 -0.0169,-0.01684 -0.0337,-0.03369 -0.0505,-0.03369 -0.30317,-0.117899 -0.60633,-0.218954 -0.92634,-0.303167 -0.69055,-0.151584 -1.3811,-0.168426 -2.07164,-0.03369 -0.89266,0.185269 -1.68427,0.57265 -2.44219,1.077929 -0.74107,0.505278 -1.41478,1.09477 -2.03795,1.717947 -0.1179,0.117899 -0.1179,0.117899 -0.18527,-0.03369 -0.33686,-0.690548 -0.70739,-1.364253 -1.16215,-1.98743 -0.35369,-0.471594 -0.74107,-0.909502 -1.24635,-1.212669 -0.50528,-0.32001 -1.06108,-0.437909 -1.65058,-0.286325 -0.72423,0.168427 -1.31372,0.606335 -1.86953,1.077928 -0.33685,0.25264 -0.64002,0.555807 -0.94319,0.842132 -0.28632,0.252639 -0.5558,0.505279 -0.84213,0.757918 -0.0505,0.05053 -0.0842,0.05053 -0.13474,0 -0.28632,-0.303167 -0.58949,-0.57265 -0.94319,-0.757918 -0.52212,-0.286325 -1.06108,-0.32001 -1.61689,-0.134741 -0.47159,0.151583 -0.87581,0.404223 -1.29688,0.673705 -0.16843,0.101055 -0.32001,0.218954 -0.48843,0.303167 v -0.03369 c 0.0169,-0.03369 0.0169,-0.06737 0.0169,-0.101056 0.0337,-0.741075 0.0842,-1.498994 0.20211,-2.240069 0.16843,-1.027401 0.42107,-2.021115 0.87582,-2.94746 0.33685,-0.690548 0.7916,-1.330568 1.36425,-1.852689 0.75792,-0.690548 1.65058,-1.128456 2.62745,-1.397938 1.06109,-0.303167 2.13901,-0.437908 3.23378,-0.488436 0.43791,-0.01684 0.85898,-0.03369 1.29689,-0.05053 0.21895,0.08421 0.4379,0.134741 0.65686,0.202111 0.32001,0.101056 0.64002,0.202112 0.96003,0.286325 0.16842,0.06737 0.32001,0.117899 0.48844,0.185269 0.62317,0.218954 1.22951,0.505279 1.75163,0.926345 0.13474,0.101055 0.26948,0.218953 0.40422,0.336852 -0.0337,-0.101056 -0.0674,-0.185269 -0.10105,-0.286324 -0.2358,-0.623178 -0.5895,-1.128456 -1.16215,-1.482152 -0.23579,-0.151583 -0.48843,-0.252639 -0.74107,-0.38738 0.0169,0 0.0505,0 0.0674,-0.01684 0.75792,-0.134742 1.53268,-0.202112 2.30744,-0.235797 0.65686,-0.03369 1.33057,-0.01684 1.98743,0.05053 0.77476,0.08421 1.53268,0.235798 2.25691,0.505279 1.07793,0.404223 2.00427,1.0274 2.72851,1.936903 0.62317,0.791603 1.0274,1.701105 1.28004,2.677977 0.25263,0.96003 0.35369,1.953745 0.38738,2.94746 -0.0169,0.353695 -0.0169,0.724233 -0.0169,1.094771 z"
           class="st0" />
        <path
           style="fill:#ecdc86;stroke-width:0.16842628"
           inkscape:connector-curvature="0"
           id="path26-8"
           d="m 223.58598,60.881862 h 0.0169 v 1.111613 h -0.0169 z"
           class="st4" />
        <path
           style="fill:#a0918f;stroke-width:0.16842628"
           inkscape:connector-curvature="0"
           id="path28-7"
           d="m 217.43842,44.898209 v 0.01684 h -0.75792 v -0.01684 z"
           class="st5" />
        <path
           style="fill:#24af63;stroke-width:0.16842628"
           inkscape:connector-curvature="0"
           id="path30"
           d="m 217.92685,76.629718 c 0.42107,-0.168426 0.82529,-0.38738 1.22951,-0.606334 0.4716,-0.286325 0.90951,-0.589492 1.34742,-0.909502 0.37053,-0.269482 0.72423,-0.555807 1.07792,-0.858974 l 0.60634,-0.505279 c 0.0337,-0.03369 0.0337,-0.01684 0.0505,0.01684 0.0674,0.269482 0.1179,0.555807 0.18527,0.842131 0.0842,0.387381 0.13474,0.774761 0.18526,1.162141 0.0505,0.454751 0.0674,0.89266 0.0337,1.347411 -0.0337,0.555806 -0.13474,1.111613 -0.33685,1.633734 -0.11791,0.32001 -0.26949,0.623178 -0.45476,0.909502 -0.23579,0.370538 -0.50528,0.707391 -0.84213,0.993715 -0.38738,0.353695 -0.82529,0.656863 -1.29688,0.909502 -0.62318,0.353695 -1.29688,0.606335 -1.98743,0.808446 -0.65686,0.202112 -1.33057,0.336853 -2.00427,0.454751 -0.18527,0.03368 -0.37054,0.06737 -0.55581,0.06737 -0.38738,-0.01684 -0.77476,-0.101056 -1.1453,-0.235797 -0.55581,-0.218954 -1.04424,-0.555807 -1.60005,-0.808446 -0.30317,-0.134741 -0.60633,-0.235797 -0.92634,-0.25264 -0.42107,-0.03369 -0.77477,0.117899 -1.07793,0.404223 l -0.65686,0.656863 c -0.37054,0.370538 -0.80845,0.623177 -1.33057,0.70739 -0.3537,0.05053 -0.69055,0.03369 -1.04424,-0.01684 -0.48844,-0.06737 -0.96003,-0.185269 -1.41478,-0.32001 -0.67371,-0.218954 -1.29689,-0.522121 -1.86954,-0.960029 -0.53896,-0.404223 -0.96003,-0.909502 -1.31372,-1.482152 -0.3537,-0.589491 -0.55581,-1.212669 -0.70739,-1.869531 -0.0674,-0.286325 -0.10106,-0.589492 -0.13474,-0.875817 -0.0505,-0.421065 -0.0674,-0.825288 -0.0505,-1.246354 0.0169,-0.589492 0.0674,-1.162141 0.15158,-1.751633 0.0674,0.06737 0.13474,0.117898 0.18527,0.168426 0.37054,0.336853 0.79161,0.64002 1.22951,0.909502 0.48844,0.286324 1.0274,0.522122 1.58321,0.673705 0.37054,0.101056 0.75792,0.168426 1.1453,0.185269 0.32001,0.03369 0.64002,0.03369 0.96003,0.01684 0.37054,-0.01684 0.75792,-0.05053 1.12845,-0.151583 0.0505,0 0.10106,0 0.13475,-0.01684 0.33685,-0.06737 0.6737,-0.151584 1.01056,-0.25264 0.38737,-0.117898 0.75791,-0.235796 1.12845,-0.370538 0.35369,-0.13474 0.72423,-0.286324 1.07793,-0.437908 0.10105,-0.05053 0.16842,-0.03369 0.25264,0.03369 0.58949,0.454751 1.22951,0.842131 1.92006,1.128456 0.77476,0.303167 1.56636,0.454751 2.39165,0.38738 0.60633,-0.117898 1.17898,-0.269482 1.73479,-0.488436 z"
           class="st0" />
        <path
           style="fill:#ecdc86;stroke-width:0.16842628"
           inkscape:connector-curvature="0"
           id="path32-3"
           d="m 217.92685,76.629718 c -0.5558,0.218954 -1.12845,0.370538 -1.71795,0.421066 -0.82528,0.06737 -1.61689,-0.08421 -2.39165,-0.38738 -0.69054,-0.269483 -1.33056,-0.656863 -1.92006,-1.128456 -0.0842,-0.06737 -0.15158,-0.08421 -0.25264,-0.03369 -0.35369,0.151584 -0.70738,0.303167 -1.07792,0.437909 -0.37054,0.134741 -0.74108,0.269481 -1.12846,0.370537 -0.33685,0.101056 -0.6737,0.168427 -1.01056,0.25264 -0.0505,0.01684 -0.10105,0.01684 -0.13474,0.01684 0.1179,-0.134741 0.2358,-0.269483 0.3537,-0.404224 0.47159,-0.538964 0.80844,-1.162141 0.99371,-1.869531 0.26948,-0.943187 0.53897,-1.903217 0.77476,-2.863247 0.16843,-0.70739 0.30317,-1.41478 0.40422,-2.139013 0.0674,-0.522122 0.16843,-2.509552 0.13475,-2.981145 -0.0842,-1.448466 -0.40422,-2.829562 -0.99372,-4.160129 -0.3537,-0.791604 -0.96003,-1.330568 -1.80216,-1.549522 -0.37054,-0.101056 -0.74107,-0.06737 -1.09477,0.05053 -0.0337,0.01684 -0.0505,0.03369 -0.0842,0.01684 0.5558,-0.471594 1.12845,-0.909502 1.86953,-1.077928 0.58949,-0.134741 1.1453,-0.03369 1.65058,0.286324 0.50527,0.32001 0.89266,0.741076 1.24635,1.21267 0.45475,0.623177 0.82529,1.296882 1.16214,1.987429 0.0674,0.151584 0.0674,0.151584 0.18527,0.03369 0.62318,-0.64002 1.29688,-1.229512 2.03796,-1.717948 0.74107,-0.505279 1.54952,-0.892659 2.44218,-1.077928 0.69055,-0.134741 1.38109,-0.117899 2.07164,0.03369 0.32001,0.06737 0.62318,0.168427 0.92635,0.303167 0.0169,0.01684 0.0505,0.01684 0.0505,0.03369 -0.89266,0.01684 -1.65058,0.353695 -2.34113,0.875816 -0.33685,0.252639 -0.64002,0.538964 -0.87582,0.892659 -0.18527,0.286325 -0.35369,0.606335 -0.48843,0.926345 -0.30317,0.64002 -0.55581,1.313725 -0.74108,2.004273 -0.15158,0.589492 -0.25264,1.195826 -0.30317,1.802161 -0.0337,0.471593 -0.0505,0.943187 -0.0337,1.41478 0.0168,0.57265 0.0842,1.145299 0.15158,1.734791 0.1179,0.96003 0.28633,1.920059 0.45475,2.880089 0.0842,0.522121 0.15159,1.061086 0.25264,1.60005 0.1179,0.774761 0.55581,1.34741 1.17899,1.785318 0,-0.01684 0.0337,0 0.0505,0.01684 z"
           class="st4" />
        <path
           style="fill:#3f2b29;stroke-width:0.16842628"
           inkscape:connector-curvature="0"
           id="path34-7"
           d="m 216.6805,44.915051 h 0.75792 c 0.60633,0.03369 1.21267,0.134741 1.78532,0.336853 0.45475,0.151583 0.55581,0.454751 0.28632,0.842131 -0.18527,0.269482 -0.45475,0.471594 -0.74107,0.656863 -0.3537,0.235796 -0.74108,0.437908 -1.16215,0.589492 -0.42106,0.168426 -0.82528,0 -1.09477,-0.421066 -0.0842,-0.134741 -0.15158,-0.269482 -0.18526,-0.421066 -0.0169,-0.05053 -0.0337,-0.06737 -0.0842,-0.06737 -0.94319,-0.168426 -1.78532,0.05053 -2.47587,0.724233 -0.57264,0.538964 -0.9095,1.229512 -1.14529,1.970587 -0.21896,0.673705 -0.32001,1.34741 -0.3537,2.054801 -0.0337,0.623177 0.0169,1.246354 0.10106,1.852688 0.0169,0.101056 0.0505,0.202112 0.0505,0.320011 0.0169,0.13474 -0.0337,0.252639 -0.13474,0.320009 -0.1179,0.08421 -0.25265,0.06737 -0.38739,0.06737 -0.32,-0.101056 -0.64001,-0.202112 -0.96002,-0.286325 v -0.218954 c 0,-0.336852 0,-0.656862 0.0169,-0.993715 0.0674,-1.296882 0.26948,-2.576922 0.77476,-3.789591 0.37054,-0.909502 0.9095,-1.701105 1.66742,-2.324283 0.62318,-0.522121 1.33057,-0.858973 2.12217,-1.044242 0.40422,-0.101056 0.77476,-0.151584 1.16214,-0.168427 z"
           class="st6" />
        <path
           style="fill:#396e35;stroke-width:0.16842628"
           inkscape:connector-curvature="0"
           id="path36"
           d="m 211.91404,53.723745 c 0.13474,0 0.26948,0.01684 0.38738,-0.06737 0.1179,-0.08421 0.15158,-0.202112 0.13474,-0.32001 -0.0169,-0.101056 -0.0337,-0.218954 -0.0505,-0.32001 0.0674,0 0.1179,-0.01684 0.18527,-0.01684 0.2358,0.134741 0.48843,0.252639 0.74108,0.387381 0.57265,0.353695 0.92634,0.858973 1.16213,1.482151 0.0337,0.101056 0.0674,0.185269 0.10106,0.286324 -0.13474,-0.117898 -0.26948,-0.235796 -0.40422,-0.336852 -0.53897,-0.404223 -1.12846,-0.690548 -1.75163,-0.926345 -0.18527,-0.05053 -0.33686,-0.101056 -0.50528,-0.168426 z"
           class="st7" />
        <path
           style="fill:#396e35;stroke-width:0.16842628"
           inkscape:connector-curvature="0"
           id="path38-9"
           d="m 210.95401,53.218467 v 0.218954 c -0.21896,-0.06737 -0.43791,-0.117899 -0.65687,-0.202112 0.2358,-0.01684 0.45476,-0.01684 0.65687,-0.01684 z"
           class="st7" />
        <path
           d="m 111.85723,75.505251 q -2.61569,0 -4.73651,-1.025068 -2.12083,-1.025067 -3.39333,-3.075202 -1.23715,-2.085482 -1.23715,-5.054642 0,-4.771865 2.545,-7.210819 2.54499,-2.4743 6.78665,-2.4743 1.48458,0 3.00451,0.318124 1.51992,0.282777 2.68638,0.812985 v 4.524435 q -1.44923,-0.636249 -2.58034,-0.954373 -1.13111,-0.353472 -2.26222,-0.353472 -2.33291,0 -3.64076,1.166456 -1.30784,1.131109 -1.30784,3.570063 0,2.72173 1.2018,4.029574 1.23715,1.307845 3.99423,1.307845 2.08548,0 4.63048,-1.413886 v 4.489088 q -1.2725,0.671596 -2.65104,0.98972 -1.34319,0.353472 -3.03986,0.353472 z"
           style="font-weight:bold;font-size:medium;line-height:0%;font-family:'Maven Pro';fill:#000000;fill-opacity:1;stroke:none;stroke-width:0.16842628"
           id="path569"
           inkscape:connector-curvature="0" />
        <path
           d="m 129.28172,75.575945 q -4.52443,0 -6.78665,-2.403606 -2.26222,-2.403607 -2.26222,-7.140124 0,-4.948601 2.22687,-7.210819 2.26222,-2.262218 6.822,-2.262218 4.55979,0 6.85735,2.332912 2.29757,2.297565 2.29757,7.140125 0,4.665823 -2.36827,7.104777 -2.36825,2.438953 -6.78665,2.438953 z m 0,-4.206311 q 1.9441,0 2.93382,-1.343191 0.98972,-1.378539 0.98972,-3.994228 0,-2.86312 -0.98972,-4.064923 -0.95437,-1.23715 -2.93382,-1.23715 -2.05013,0 -2.96916,1.23715 -0.88367,1.201803 -0.88367,4.064923 0,2.72173 0.91902,4.029575 0.95437,1.307844 2.93381,1.307844 z"
           style="font-weight:bold;font-size:medium;line-height:0%;font-family:'Maven Pro';fill:#000000;fill-opacity:1;stroke:none;stroke-width:0.16842628"
           id="path571"
           inkscape:connector-curvature="0" />
        <path
           d="m 142.07187,59.033479 q 0.53021,-0.459513 1.83805,-1.025067 1.3432,-0.565555 2.96916,-0.954373 1.66132,-0.424166 3.18124,-0.424166 2.93382,0 4.06493,0.883678 v 3.85284 q -1.41389,-0.318124 -4.06493,-0.318124 -1.66131,0 -2.72172,0.176735 v 13.820736 h -5.26673 z"
           style="font-weight:bold;font-size:medium;line-height:0%;font-family:'Maven Pro';fill:#000000;fill-opacity:1;stroke:none;stroke-width:0.16842628"
           id="path573"
           inkscape:connector-curvature="0" />
        <path
           d="m 164.48748,56.559178 q 8.37728,0 8.27124,10.92227 h -11.80595 q 0.6716,3.71145 4.98395,3.71145 1.30784,0 2.54499,-0.353471 1.2725,-0.388819 2.68639,-0.98972 v 4.524435 q -2.89847,1.201803 -6.50388,1.201803 -2.72173,0 -4.77187,-1.095762 -2.05013,-1.131108 -3.18124,-3.21659 -1.13111,-2.085482 -1.13111,-4.913254 0,-4.665824 2.29757,-7.210819 2.33291,-2.580342 6.60991,-2.580342 z m -0.21208,4.029575 q -2.82777,0 -3.35798,3.534716 h 6.60992 q -0.24743,-1.908747 -1.02507,-2.721731 -0.74229,-0.812985 -2.22687,-0.812985 z"
           style="font-weight:bold;font-size:medium;line-height:0%;font-family:'Maven Pro';fill:#000000;fill-opacity:1;stroke:none;stroke-width:0.16842628"
           id="path575"
           inkscape:connector-curvature="0" />
        <path
           d="m 186.59713,48.323292 h 3.78214 l -13.00775,30.186466 h -3.74679 z"
           style="font-weight:bold;font-size:medium;line-height:0%;font-family:'Maven Pro';fill:#000000;fill-opacity:1;stroke:none;stroke-width:0.16842628"
           id="path577"
           inkscape:connector-curvature="0" />
        <path
           d="m 51.563833,58.680008 q 1.378539,-0.742291 4.206311,-1.378539 2.827772,-0.636249 5.054642,-0.636249 3.782145,0 5.690891,1.48458 1.908746,1.48458 1.908746,4.877907 V 75.045738 H 63.157698 V 64.088121 q 0,-3.075202 -3.464021,-3.075202 -0.777637,0 -1.590621,0.176736 -0.812985,0.176736 -1.272498,0.424166 v 13.431917 h -5.266725 z"
           style="font-weight:bold;font-size:79.23241425px;line-height:0%;font-family:'Maven Pro';fill:#24af63;fill-opacity:1;stroke:none;stroke-width:0.16842628"
           id="path559"
           inkscape:connector-curvature="0" />
        <path
           d="m 74.446695,61.189655 h -2.61569 V 57.16008 h 2.651036 v -0.424166 q 0.03535,-4.029575 1.838052,-5.584849 1.838052,-1.590622 4.983948,-1.590622 0.565555,0 1.23715,0.106041 0.671596,0.106042 1.095762,0.24743 v 4.630477 q -0.388818,-0.388819 -0.777637,-0.565554 -0.388819,-0.212083 -0.98972,-0.212083 -0.98972,0 -1.555275,0.530207 -0.565554,0.530207 -0.565554,1.802705 v 1.060414 h 3.888186 v 4.029575 h -3.923534 v 13.856083 h -5.266724 z"
           style="font-weight:bold;font-size:79.23241425px;line-height:0%;font-family:'Maven Pro';fill:#24af63;fill-opacity:1;stroke:none;stroke-width:0.16842628"
           id="path561"
           inkscape:connector-curvature="0" />
        <path
           d="m 87.50857,62.391458 h 10.78088 v 3.640757 H 87.50857 Z"
           style="font-weight:bold;font-size:79.23241425px;line-height:0%;font-family:'Maven Pro';fill:#24af63;fill-opacity:1;stroke:none;stroke-width:0.16842628"
           id="path563"
           inkscape:connector-curvature="0" />
        <path
           style="display:inline;fill:url(#f);stroke-width:0.16842628"
           inkscape:connector-curvature="0"
           id="path67"
           d="M 91.596587,62.391888 87.96999,66.032653 H 98.259404 V 62.391888 Z" />
      </g>
    </g>
  </g>
  <path
     id="path3087"
     d="m 295.14647,289.63881 v 0.75 h 23.60596 v -0.75 z"
     style="color:#000000;font-style:normal;font-variant:normal;font-weight:normal;font-stretch:normal;font-size:medium;line-height:normal;font-family:sans-serif;font-variant-ligatures:normal;font-variant-position:normal;font-variant-caps:normal;font-variant-numeric:normal;font-variant-alternates:normal;font-feature-settings:normal;text-indent:0;text-align:start;text-decoration:none;text-decoration-line:none;text-decoration-style:solid;text-decoration-color:#000000;letter-spacing:normal;word-spacing:normal;text-transform:none;writing-mode:lr-tb;direction:ltr;text-orientation:mixed;dominant-baseline:auto;baseline-shift:baseline;text-anchor:start;white-space:normal;shape-padding:0;clip-rule:nonzero;display:inline;overflow:visible;visibility:visible;opacity:1;isolation:auto;mix-blend-mode:normal;color-interpolation:sRGB;color-interpolation-filters:linearRGB;solid-color:#000000;solid-opacity:1;vector-effect:none;fill:#000000;fill-opacity:1;fill-rule:evenodd;stroke:none;stroke-width:0.75px;stroke-linecap:butt;stroke-linejoin:miter;stroke-miterlimit:4;stroke-dasharray:none;stroke-dashoffset:0;stroke-opacity:1;color-rendering:auto;image-rendering:auto;shape-rendering:auto;text-rendering:auto;enable-background:accumulate"
     inkscape:connector-curvature="0"
     sodipodi:nodetypes="ccccc" />
</svg>
