<?xml version="1.0" encoding="UTF-8" standalone="no"?>
<!-- Created with Inkscape (http://www.inkscape.org/) -->

<svg
   xmlns:dc="http://purl.org/dc/elements/1.1/"
   xmlns:cc="http://creativecommons.org/ns#"
   xmlns:rdf="http://www.w3.org/1999/02/22-rdf-syntax-ns#"
   xmlns:svg="http://www.w3.org/2000/svg"
   xmlns="http://www.w3.org/2000/svg"
   xmlns:sodipodi="http://sodipodi.sourceforge.net/DTD/sodipodi-0.dtd"
   xmlns:inkscape="http://www.inkscape.org/namespaces/inkscape"
   version="1.1"
   id="svg2"
   xml:space="preserve"
   width="158.10764"
   height="150.38712"
   viewBox="0 0 158.10764 150.38712"
   sodipodi:docname="UU.svg"
   inkscape:version="0.92.3 (2405546, 2018-03-11)"><metadata
     id="metadata8"><rdf:RDF><cc:Work
         rdf:about=""><dc:format>image/svg+xml</dc:format><dc:type
           rdf:resource="http://purl.org/dc/dcmitype/StillImage" /><dc:title></dc:title></cc:Work></rdf:RDF></metadata><defs
     id="defs6" /><sodipodi:namedview
     pagecolor="#ffffff"
     bordercolor="#666666"
     borderopacity="1"
     objecttolerance="10"
     gridtolerance="10"
     guidetolerance="10"
     inkscape:pageopacity="0"
     inkscape:pageshadow="2"
     inkscape:window-width="751"
     inkscape:window-height="480"
     id="namedview4"
     showgrid="false"
     inkscape:zoom="1.5692834"
     inkscape:cx="79.053818"
     inkscape:cy="75.193558"
     inkscape:window-x="479"
     inkscape:window-y="169"
     inkscape:window-maximized="0"
     inkscape:current-layer="g10" /><g
     id="g10"
     inkscape:groupmode="layer"
     inkscape:label="UU"
     transform="matrix(1.3333333,0,0,-1.3333333,0,150.38712)"><g
       id="g12"><path
         d="m 68.938,0.607 c -0.516,0.105 -1.032,0.515 -1.34,1.031 -0.621,0.93 -2.891,4.129 -3.2,4.852 v 0.308 l 0.622,0.106 c 0.617,0 1.335,0.722 1.648,1.339 0.105,0.825 0.105,1.86 0,2.684 -0.207,0.516 -0.617,1.238 -1.133,1.551 -0.211,0.203 -0.308,0.203 -0.621,0.203 -0.207,0.105 -0.516,0.105 -0.828,0.105 h -5.469 l -0.101,-0.105 c 0,-0.203 0.101,-0.203 0.312,-0.203 0.305,-0.207 0.516,-0.52 0.516,-1.035 v -9.7 c 0,-0.621 -0.313,-1.031 -0.828,-1.031 -0.204,0 -0.204,-0.308 0.101,-0.308 1.031,0 2.168,0 3.094,-0.106 l 0.211,0.106 c 0,0.203 0,0.203 -0.211,0.203 -0.41,0.105 -0.613,0.312 -0.82,1.031 v 4.441 c 0,0.411 1.031,0.204 1.547,0.204 0.308,0 0.414,-0.309 0.617,-0.516 1.136,-1.754 1.859,-2.891 2.785,-4.332 0.211,-0.313 0.621,-0.723 0.933,-0.828 0.723,-0.309 1.344,-0.309 2.063,-0.516 0.102,0 0.102,0.207 0.102,0.207 0.21,0 0.21,0.106 0,0.309 z m -6.399,6.707 c -0.41,0 -0.926,0 -1.441,0.105 v 4.231 c 0,0.308 0.515,0.105 0.824,0.105 0.824,0 1.961,0.203 2.476,-0.105 0.309,-0.41 0.516,-0.723 0.622,-1.032 0.207,-0.515 0.207,-1.035 0.207,-1.55 0,-0.618 -0.52,-1.133 -0.829,-1.442 -0.207,0 -1.136,-0.312 -1.859,-0.312 z"
         style="fill:#000000;fill-opacity:1;fill-rule:evenodd;stroke:none"
         id="path14"
         inkscape:connector-curvature="0" /><path
         d="m 75.129,23.001 c -0.305,0.106 -0.617,0.313 -0.723,0.621 -1.234,2.375 -3.816,9.184 -3.816,9.184 -0.516,1.031 -1.031,2.375 -1.344,2.891 0,0.207 -0.098,0 -0.098,-0.204 -1.343,-2.687 -4.957,-10.527 -5.472,-11.355 -0.309,-0.621 -0.824,-0.824 -0.93,-1.031 -0.207,-0.106 -0.516,-0.106 -0.516,-0.309 0,-0.105 0.208,-0.105 0.208,-0.105 0.414,0 1.96,0.105 2.886,0 0.211,0 0.211,0.105 0.211,0.105 0,0.203 -0.308,0.203 -0.308,0.309 -0.313,0.41 -0.313,0.515 -0.313,0.926 0.41,1.035 0.926,2.066 1.441,3.097 0,0.207 0.106,0.207 0.313,0.207 h 4.437 l 1.137,-2.476 c 0,-0.516 0.309,-1.032 0.102,-1.547 -0.102,-0.516 -0.617,-0.313 -0.617,-0.516 0,-0.105 0.207,-0.105 0.304,-0.105 1.141,0 2.172,0.105 3.203,0 0.207,0 0.207,0 0.207,0.105 0,0.203 -0.207,0.203 -0.312,0.203 z m -5.055,5.473 h -3.097 c 0.621,1.547 1.343,2.891 1.859,4.23 l 0.102,0.102 c 0.308,-0.617 1.449,-3.816 1.652,-3.922 0.105,-0.41 0,-0.41 -0.516,-0.41 z"
         style="fill:#000000;fill-opacity:1;fill-rule:evenodd;stroke:none"
         id="path16"
         inkscape:connector-curvature="0" /><path
         d="m 98.766,23.001 c -0.309,0.106 -0.621,0.313 -0.719,0.621 -1.344,2.375 -3.926,9.184 -3.926,9.184 -0.516,1.031 -1.031,2.375 -1.137,2.891 0,0.207 -0.203,0 -0.308,-0.204 -1.238,-2.687 -4.746,-10.527 -5.262,-11.355 -0.312,-0.621 -0.828,-0.824 -1.031,-1.031 -0.106,-0.106 -0.516,-0.106 -0.516,-0.309 0,-0.105 0,-0.105 0.203,-0.105 0.516,0 1.86,0.105 2.992,0 l 0.106,0.105 c 0,0.203 -0.313,0.203 -0.516,0.309 -0.105,0.41 -0.312,0.515 -0.105,0.926 0.308,1.035 1.031,2.066 1.34,3.097 0.207,0.207 0.207,0.207 0.312,0.207 h 4.539 l 1.032,-2.476 c 0.105,-0.516 0.21,-1.032 0.21,-1.547 -0.105,-0.516 -0.621,-0.313 -0.621,-0.516 0,-0.105 0.207,-0.105 0.207,-0.105 1.137,0 2.375,0.105 3.407,0 0,0 0.203,0 0.203,0.105 0,0.203 -0.203,0.203 -0.41,0.203 z m -5.161,5.473 h -3.093 c 0.613,1.547 1.34,2.891 1.957,4.23 l 0.207,0.102 c 0.105,-0.617 1.445,-3.816 1.547,-3.922 0,-0.41 -0.102,-0.41 -0.618,-0.41 z"
         style="fill:#000000;fill-opacity:1;fill-rule:evenodd;stroke:none"
         id="path18"
         inkscape:connector-curvature="0" /><path
         d="m 59.961,35.181 c 0.309,-0.106 0.309,-0.313 0.309,-0.516 v -1.652 c 0,-0.207 0,-0.309 -0.106,-0.309 -0.41,0 -0.41,0.618 -0.516,0.825 -0.304,0.308 -1.132,1.031 -2.164,1.031 -1.136,0 -1.964,-0.723 -1.964,-1.754 0,-1.133 0.21,-1.441 1.859,-2.27 0.933,-0.308 3.098,-1.031 3.922,-2.168 0.312,-0.722 0.41,-1.445 0.41,-2.066 -0.098,-0.82 -0.41,-1.754 -0.926,-2.473 -1.344,-1.652 -4.539,-1.343 -6.191,-1.136 -0.313,0 -0.516,-0.207 -0.516,0.105 v 2.27 c 0,0.414 0,0.414 0.203,0.414 0.106,-0.211 0.106,-0.414 0.106,-0.516 0.722,-1.137 1.445,-1.449 3.304,-1.449 0.926,0 2.063,0.621 2.579,1.551 0.207,0.929 0,1.547 -0.516,2.062 -0.926,1.238 -2.27,1.754 -3.508,2.27 -0.824,0.308 -2.168,1.136 -2.168,3.097 0,0.825 0.516,1.856 1.137,2.168 1.336,1.032 3.402,0.723 4.746,0.516 z"
         style="fill:#000000;fill-opacity:1;fill-rule:evenodd;stroke:none"
         id="path20"
         inkscape:connector-curvature="0" /><path
         d="m 80.086,35.181 c 0.102,0 0.102,-0.313 0,-0.313 -0.207,-0.203 -0.52,-0.203 -0.617,-0.515 -0.418,-0.824 -0.211,-1.649 -0.211,-2.375 v -4.641 c 0,-1.855 -0.305,-2.683 0.828,-3.508 0.203,-0.312 2.371,-0.207 2.891,-0.207 1.136,0.207 1.652,0.723 1.855,1.239 0,0.105 0.207,0.105 0.313,0.105 0.101,0 0,0 0,-0.105 0,-0.723 -0.106,-1.547 -0.106,-1.86 0,-0.203 -0.207,-0.308 -0.41,-0.308 -2.274,0 -5.887,0.105 -7.641,0 -0.207,0 -0.312,0 -0.312,0.105 0,0.203 0.105,0.203 0.312,0.309 0.106,0 0.414,0 0.621,0.41 0.207,0.312 0.207,0.621 0.207,1.137 0.106,3.82 0,8.359 -0.207,9.496 0,0.515 -0.515,0.515 -0.621,0.718 -0.207,0 -0.207,0.313 0,0.313 0.414,-0.106 2.481,-0.106 3.098,0 z"
         style="fill:#000000;fill-opacity:1;fill-rule:evenodd;stroke:none"
         id="path22"
         inkscape:connector-curvature="0" /><path
         d="m 24.871,3.083 0.106,7.641 c -0.106,0.41 -0.106,0.516 -0.106,0.719 -0.207,0.515 -0.519,0.722 -0.828,1.035 -0.207,0 -0.207,0.308 0,0.308 0.934,-0.105 1.758,-0.105 2.578,0 l 0.106,-0.105 c 0,-0.203 -0.204,-0.203 -0.411,-0.41 C 26.105,11.958 26.008,11.755 26.008,11.24 25.801,9.79 25.801,2.259 25.801,2.259 26.008,1.638 26.008,1.122 26.008,0.298 26.008,0.091 25.801,-0.116 25.695,0.091 25.18,0.607 24.664,0.919 24.148,1.638 22.082,3.392 17.645,7.935 15.582,9.79 h -0.207 c 0,0 0,-7.222 0.313,-8.562 0,-0.106 0.308,-0.621 0.718,-0.621 l 0.106,-0.203 c 0,-0.106 0,-0.106 -0.106,-0.106 -1.031,0.106 -2.062,0.106 -2.988,0 -0.211,0 -0.211,0.106 -0.211,0.106 0,0.308 0.621,0.203 1.031,0.824 0.106,0.515 0.106,10.937 0.106,10.937 v 1.137 c 0,0.207 0.207,0.207 0.207,0 0,0 9.492,-9.394 10.32,-10.219 z"
         style="fill:#000000;fill-opacity:1;fill-rule:evenodd;stroke:none"
         id="path24"
         inkscape:connector-curvature="0" /><path
         d="m 95.875,12.786 c 0,0 0.105,0 0.105,-0.105 v -2.063 c 0,-0.515 -0.21,-0.41 -0.414,0 0,0.309 -0.207,0.516 -0.312,0.622 -0.305,0.515 -0.617,0.718 -1.133,0.718 h -2.269 c -0.414,0 -0.516,0 -0.516,-0.308 -0.211,-3.715 -0.211,-9.184 0,-10.012 0.305,-0.926 0.617,-0.926 1.031,-1.031 0.102,0 0.309,-0.203 -0.211,-0.203 h -3.504 c -0.312,0 -0.312,0.203 0,0.203 0.41,0.105 0.516,0.105 0.719,0.515 0.207,0.313 0.207,0.516 0.313,0.828 v 8.977 c 0,0.828 -0.106,1.031 -0.313,1.031 -0.309,0.207 -2.269,0.207 -3.301,-0.203 -0.515,-0.105 -0.824,-0.621 -0.824,-1.137 0,-0.207 0,-0.207 -0.101,-0.207 0,0 -0.106,0 -0.106,0.207 l 0.106,2.063 c 0,0.105 0,0.105 0.207,0.105 z"
         style="fill:#000000;fill-opacity:1;fill-rule:evenodd;stroke:none"
         id="path26"
         inkscape:connector-curvature="0" /><path
         d="m 55.109,12.478 v -1.551 c -0.207,0 -0.41,0.516 -0.722,0.723 -0.93,0.515 -2.063,0.308 -3.199,0.308 0,0 -0.723,0 -0.723,-0.203 V 7.419 h 3.816 c 0.313,0 0.418,0.309 0.418,0.516 0,0.101 0.41,0.101 0.41,0 -0.207,-0.621 -0.207,-1.34 -0.207,-2.168 l -0.203,0.207 c -0.312,0.309 -0.621,0.621 -1.137,0.621 -1.136,0 -2.066,0 -3.097,-0.105 H 50.262 V 2.775 c 0,-0.516 0.203,-1.032 0.515,-1.137 0.926,-0.516 1.856,-0.41 2.473,-0.41 0.723,0 1.449,-0.106 1.965,0.515 0.207,0.309 0,0.516 0.305,0.825 h 0.21 V 0.404 c 0,-0.106 -0.21,-0.106 -0.21,-0.106 h -7.528 c -0.105,0 -0.105,0.309 0,0.309 0.41,0.105 0.926,0.105 0.926,1.031 v 3.82 c 0,1.961 0.105,4.028 0,6.192 -0.207,0.105 -0.207,0.621 -0.516,0.621 -0.207,0.207 -0.515,0 -0.515,0.207 0,0.203 0.105,0.308 0.308,0.308 h 6.504 c 0.203,0 0.41,0 0.41,-0.308 z"
         style="fill:#000000;fill-opacity:1;fill-rule:evenodd;stroke:none"
         id="path28"
         inkscape:connector-curvature="0" /><path
         d="m 46.133,12.786 c 0.097,0 0.097,-0.105 0,-0.308 C 45.926,12.271 45.41,12.271 45.199,11.958 43.652,7.935 42.004,4.013 40.352,0.091 h -0.207 c 0,0 -3.098,7.02 -5.571,11.867 -0.105,0.313 -0.621,0.313 -0.828,0.52 v 0.203 c 0,0 0,0.105 0.102,0.105 h 3.093 c 0,0 0.106,0 0.106,-0.105 0,-0.41 -0.516,-0.41 -0.41,-1.031 0.722,-1.754 1.961,-4.539 3.918,-8.461 0,0 0.105,0.41 0.105,0.515 1.137,2.375 1.961,4.954 2.992,7.43 0.211,0.106 0.309,1.031 -0.207,1.137 -0.097,0.207 -0.308,0.207 -0.308,0.41 0,0 0,0.105 0.211,0.105 z"
         style="fill:#000000;fill-opacity:1;fill-rule:evenodd;stroke:none"
         id="path30"
         inkscape:connector-curvature="0" /><path
         d="m 32.301,12.786 c 0.207,0 0.207,-0.308 0,-0.308 -0.52,-0.207 -0.723,-0.52 -0.723,-1.551 V 2.466 c 0,-0.723 0.106,-1.344 0.203,-1.547 0.418,-0.312 0.727,-0.312 0.727,-0.515 V 0.298 c -1.137,0.106 -2.274,0 -3.406,0 v 0.106 c 0,0.203 0.312,0 0.41,0.308 0.207,0.207 0.418,0.41 0.418,0.723 0.101,4.848 0.101,6.601 0,10.008 0,0.722 -0.828,0.828 -1.032,1.035 -0.105,0 -0.105,0.308 0,0.308 z"
         style="fill:#000000;fill-opacity:1;fill-rule:evenodd;stroke:none"
         id="path32"
         inkscape:connector-curvature="0" /><path
         d="m 30.445,35.181 v -0.313 c -0.933,-0.203 -1.031,-1.031 -1.031,-1.75 v -6.195 c 0,-1.137 -0.105,-1.957 -0.934,-2.785 -0.515,-0.621 -1.339,-1.34 -2.679,-1.445 -0.93,-0.207 -1.965,-0.207 -2.789,-0.207 -1.446,0.312 -1.961,0.515 -2.785,1.343 -0.829,0.825 -0.829,1.653 -0.93,2.989 v 6.816 c 0,0.719 -0.203,1.031 -0.824,1.441 v 0.106 h 3.406 v -0.106 c 0,-0.207 -0.207,-0.207 -0.313,-0.207 -0.824,-0.515 -0.621,-1.234 -0.621,-2.062 v -4.332 c 0,-1.656 -0.203,-3.82 1.657,-4.645 0.621,-0.312 1.441,-0.207 1.855,-0.207 2.785,0 3.715,1.649 3.82,2.68 0,2.066 0,6.816 -0.105,7.332 -0.207,0.719 -0.723,1.031 -1.031,1.234 -0.207,0.207 0,0.313 0.101,0.313 0.52,0 2.688,-0.106 3.203,0 z"
         style="fill:#000000;fill-opacity:1;fill-rule:evenodd;stroke:none"
         id="path34"
         inkscape:connector-curvature="0" /><path
         d="m 38.801,35.075 c -1.86,0.313 -4.024,0 -5.774,0.106 -0.211,0 -0.519,0 -0.519,-0.106 0,-0.41 0.308,-0.207 0.519,-0.41 0.305,0 0.719,-0.515 0.719,-1.343 0.102,-0.618 0.102,-6.707 0.102,-7.84 -0.102,-0.828 0,-2.375 -0.821,-2.481 -0.211,-0.203 -0.312,-0.203 -0.312,-0.308 h 3.406 c 0.207,-0.207 0.207,0 0.207,0.105 0,0 -0.312,0 -0.516,0.203 -0.515,0.106 -0.515,1.032 -0.515,1.547 v 3.82 c 0,0.106 0.203,0.309 0.203,0.309 4.852,-0.516 5.57,1.859 5.57,3.512 -0.203,1.34 -0.718,2.679 -2.269,2.886 z m -1.031,-5.57 h -2.165 c -0.105,0 -0.308,0.203 -0.308,0.309 v 4.336 c 0,0.203 0.308,0.203 0.515,0.203 h 2.473 c 0.313,-0.203 0.621,-0.309 0.723,-0.719 0.414,-0.516 0.414,-1.137 0.515,-1.656 0,-1.442 -0.925,-2.473 -1.753,-2.473 z"
         style="fill:#000000;fill-opacity:1;fill-rule:evenodd;stroke:none"
         id="path36"
         inkscape:connector-curvature="0" /><path
         d="m 49.328,35.075 c -1.855,0.313 -3.918,0 -5.676,0.106 -0.207,0 -0.515,0 -0.515,-0.106 0,-0.41 0.308,-0.207 0.515,-0.41 0.309,0 0.621,-0.515 0.825,-1.343 v -7.84 c 0,-0.828 0,-2.375 -0.825,-2.481 -0.207,-0.203 -0.304,-0.203 -0.304,-0.308 h 3.398 c 0.106,-0.207 0.106,0 0.106,0.105 0,0 -0.204,0 -0.411,0.203 -0.515,0.106 -0.515,1.032 -0.515,1.547 v 3.82 c 0,0.106 0.207,0.309 0.304,0.309 4.75,-0.516 5.473,1.859 5.473,3.512 0,1.34 -0.723,2.679 -2.375,2.886 z m -0.82,-5.57 H 46.23 c -0.097,0 -0.097,0.203 -0.097,0.309 -0.207,1.551 -0.207,2.992 -0.207,4.336 0.207,0.203 0.304,0.203 0.515,0.203 h 2.477 c 0.309,-0.203 0.621,-0.309 0.926,-0.719 0.211,-0.516 0.211,-1.137 0.312,-1.656 0,-1.442 -0.828,-2.473 -1.648,-2.473 z"
         style="fill:#000000;fill-opacity:1;fill-rule:evenodd;stroke:none"
         id="path38"
         inkscape:connector-curvature="0" /><path
         d="m 11.762,12.681 c 0.207,0 0.207,0 0.207,-0.203 H 11.762 C 11.141,12.165 10.938,11.443 10.938,10.724 V 4.529 C 10.938,3.392 10.836,2.466 10.012,1.638 9.492,0.919 8.668,0.404 7.324,0.091 c -0.926,0 -1.859,-0.207 -2.89,0 C 3.098,0.298 2.68,0.607 1.754,1.435 1.031,2.052 0.82,3.083 0.82,4.423 v 6.817 c 0,0.515 -0.097,1.031 -0.82,1.238 v 0.203 c 0,0.105 0.305,0 0.516,0 h 2.992 c 0,-0.203 -0.207,-0.203 -0.41,-0.41 C 2.27,11.958 2.477,11.134 2.477,10.208 V 6.079 C 2.477,4.423 2.27,2.052 4.023,1.228 4.746,1.122 5.57,1.122 6.086,1.122 c 2.687,0 3.508,1.653 3.508,2.786 0.211,1.859 0.211,6.816 0,7.226 -0.102,0.621 -0.617,1.031 -0.926,1.344 -0.106,0.203 -0.106,0.203 0.105,0.203 z"
         style="fill:#000000;fill-opacity:1;fill-rule:evenodd;stroke:none"
         id="path40"
         inkscape:connector-curvature="0" /><path
         d="m 76.16,12.786 c 0.313,0 0.106,-0.105 0.106,-0.515 0,-0.516 0,-1.031 0.207,-1.653 0,-0.207 0,-0.41 -0.207,-0.41 -0.309,0 -0.309,0.719 -0.516,1.032 -0.309,0.41 -1.137,1.031 -2.062,1.031 -1.137,0 -1.961,-0.828 -1.961,-1.653 0,-1.132 0.207,-1.753 1.753,-2.375 0.926,-0.515 3.196,-0.929 3.817,-2.164 0.519,-0.621 0.519,-1.343 0.519,-2.066 0,-0.93 -0.414,-1.754 -0.828,-2.375 -1.343,-1.754 -4.644,-1.547 -6.293,-1.34 -0.308,0.106 -0.621,0 -0.621,0.106 0.106,0.824 0,1.648 0,2.472 0,0.207 0.106,0.313 0.313,0.207 0,-0.207 0,-0.207 0.203,-0.308 0.515,-1.137 1.441,-1.547 3.098,-1.547 1.136,0 2.269,0.515 2.578,1.648 0.41,0.723 0.207,1.547 -0.309,2.067 -0.93,1.136 -2.477,1.547 -3.715,2.168 -0.621,0.203 -2.062,0.925 -2.062,3.097 0,0.926 0.515,1.957 1.238,2.27 1.238,0.824 3.406,0.719 4.742,0.308 z"
         style="fill:#000000;fill-opacity:1;fill-rule:evenodd;stroke:none"
         id="path42"
         inkscape:connector-curvature="0" /><path
         d="m 82.977,12.786 c 0.105,0 0.105,-0.308 0,-0.308 -0.622,0 -0.723,-0.313 -0.723,-1.344 V 2.466 c 0,-0.723 0.101,-1.238 0.101,-1.344 0.309,-0.515 0.727,-0.41 0.727,-0.515 0,-0.203 0,-0.309 -0.105,-0.203 -0.93,0 -2.172,-0.106 -3.204,-0.106 l -0.207,0.106 c 0,0.308 0.52,0.203 0.622,0.308 0.101,0.207 0.312,0.516 0.312,0.723 V 11.65 c 0,0.621 -0.727,0.828 -1.031,0.828 0,0.203 0,0.308 0.097,0.308 z"
         style="fill:#000000;fill-opacity:1;fill-rule:evenodd;stroke:none"
         id="path44"
         inkscape:connector-curvature="0" /><path
         d="m 105.371,12.478 v -1.551 c -0.101,0 -0.312,0.516 -0.617,0.723 -1.031,0.515 -2.172,0.308 -3.309,0.308 0,0 -0.613,0 -0.613,-0.203 0,0 -0.207,-2.89 -0.207,-4.129 0,-0.207 0.207,-0.207 0.207,-0.207 h 3.711 c 0.309,0 0.516,0.309 0.516,0.516 0,0.101 0.312,0.101 0.312,0 -0.101,-0.621 -0.101,-1.34 -0.101,-2.168 0,0 -0.211,0 -0.211,0.207 -0.305,0.309 -0.723,0.621 -1.336,0.621 -0.934,0 -1.965,0 -2.891,-0.105 h -0.207 V 2.775 c 0,-0.516 0.207,-1.032 0.516,-1.137 0.617,-0.516 1.648,-0.41 2.476,-0.41 0.621,0 1.442,-0.106 1.754,0.515 0.309,0.309 0.203,0.516 0.516,0.825 h 0.105 V 0.404 c 0,-0.106 -0.105,-0.106 -0.105,-0.106 h -7.535 c -0.207,0 -0.305,0.309 -0.207,0.309 0.515,0.105 1.031,0.105 1.031,1.031 v 3.82 c 0,1.961 0.105,4.028 0,6.192 -0.203,0.105 -0.203,0.621 -0.719,0.621 0,0.207 -0.312,0 -0.312,0.207 0,0.203 0.207,0.308 0.312,0.308 h 6.602 c 0.211,0 0.312,0 0.312,-0.308 z"
         style="fill:#000000;fill-opacity:1;fill-rule:evenodd;stroke:none"
         id="path46"
         inkscape:connector-curvature="0" /><path
         d="m 118.477,12.786 c 0,0 0.105,0 0.105,-0.105 v -2.063 c 0,-0.41 -0.312,-0.41 -0.312,0 -0.098,0.309 -0.309,0.622 -0.309,0.622 -0.516,0.515 -0.824,0.718 -1.34,0.925 h -2.273 c -0.305,0 -0.516,-0.207 -0.516,-0.515 0,-3.715 -0.102,-9.184 0,-10.012 0.309,-0.719 0.727,-0.926 1.031,-0.926 0.106,-0.105 0.313,-0.308 0,-0.308 h -3.613 c -0.305,0 -0.305,0.203 0,0.308 0.312,0 0.516,0.207 0.621,0.41 0.207,0.313 0.41,0.516 0.41,0.93 v 9.082 c 0,0.621 -0.203,0.824 -0.41,0.824 -0.309,0.207 -2.269,0.207 -3.094,-0.203 -0.621,-0.105 -0.929,-0.621 -0.929,-1.137 0,-0.207 0,-0.207 -0.207,-0.207 v 2.27 c 0,0.105 0,0.105 0.414,0.105 z"
         style="fill:#000000;fill-opacity:1;fill-rule:evenodd;stroke:none"
         id="path48"
         inkscape:connector-curvature="0" /><path
         d="m 46.133,59.743 c -0.516,0.313 -1.031,0.618 -1.656,1.036 -0.614,0.097 -1.34,0 -1.645,-0.52 -0.418,-0.516 -0.418,-1.137 0,-1.547 0,-0.308 -0.828,-0.414 -0.828,-0.722 -0.313,-0.415 0,-1.032 0.308,-1.446 0.309,-0.101 0.52,-0.312 0.825,-0.617 0.515,-0.414 1.136,-0.516 1.547,-0.727 0,-0.101 0.211,-0.101 0.418,0 0.097,0.211 0,0.211 -0.207,0.313 -0.313,0.516 0.207,1.234 0.304,1.547 0.418,0.723 0.516,1.238 1.242,1.445 0.305,0.207 0.618,0 0.825,0.414 -0.207,0.309 -0.825,0.41 -1.133,0.824 z m -2.27,-3.199 c -0.418,-0.101 -0.726,0.203 -0.933,0.414 v 0.617 c 0.207,0 0.515,0.415 0.722,0.415 0.211,-0.207 0.309,-0.516 0.516,-0.516 0.105,-0.414 -0.305,-0.727 -0.305,-0.93 z m 0.821,1.961 c 0,-0.101 -0.102,-0.414 -0.207,-0.414 -0.309,0 -0.516,0.207 -0.614,0.414 -0.515,0.414 0,0.824 0,1.035 0.41,0.41 1.032,0.41 1.336,0 0.418,-0.312 -0.304,-0.621 -0.515,-1.035 z"
         style="fill:#bd2633;fill-opacity:0.97647101;fill-rule:evenodd;stroke:none"
         id="path50"
         inkscape:connector-curvature="0" /><path
         d="m 55.73,79.454 c -0.308,0 0,-0.515 -0.515,-0.515 -0.516,-0.102 -0.934,0.207 -1.137,0.726 0.203,0.203 0.621,0.305 0.621,0.926 0,0.516 -0.105,0.828 -0.933,1.031 -0.516,0.207 -1.032,0.207 -1.442,0.207 -0.418,0 -0.621,0 -0.621,-0.207 -0.207,-0.203 0.106,-0.203 0.106,-0.308 0.097,-0.723 0,-1.86 0,-2.477 0,-0.414 -0.516,-0.414 -0.313,-0.722 0.207,-0.102 0.621,0 0.93,0 0.207,0 0.207,-0.102 0.308,0 0.207,0.207 0,0.308 0,0.722 0,0.102 -0.101,0.617 0.723,0.102 0.309,-0.102 0.621,-0.617 1.137,-0.824 0.308,0 0.828,-0.102 1.136,0.207 0.102,0.308 0.305,0.617 0.102,1.031 0,0.101 0,0.312 -0.102,0.101 z m -2.168,0.727 c -0.105,-0.313 -0.515,-0.313 -0.621,-0.313 -0.207,0.102 0,0.723 -0.207,0.93 0,0.203 0,0.309 0.207,0.516 0.106,0 0.516,0 0.621,-0.313 z"
         style="fill:#bd2633;fill-opacity:0.97647101;fill-rule:evenodd;stroke:none"
         id="path52"
         inkscape:connector-curvature="0" /><path
         d="m 53.457,98.857 c -0.207,0.207 -1.031,-0.203 -1.133,-0.203 -0.515,-0.313 -0.418,-1.036 -0.207,-1.239 v -1.547 c -0.211,-0.312 -0.308,-0.828 -0.414,-1.238 0.203,-0.105 0.621,0 0.723,0 0.207,0.203 0.515,0.203 0.515,0.41 0,0.106 -0.207,0.106 -0.207,0.106 0,0.203 -0.101,0.203 -0.101,0.41 0,0.105 0.308,0.312 0.414,0.516 0.203,0.105 1.031,0.621 1.34,0.515 0.207,-0.203 0.207,-0.41 0.207,-0.515 0,-0.204 -0.516,-0.516 0,-0.516 0.308,-0.207 0.926,0.312 1.441,0.516 v 0.105 c -0.305,0.41 -0.305,0 -0.613,0.516 0,0 -1.449,1.754 -1.965,2.164 z M 53.766,96.9 c -0.204,0 -1.032,-0.516 -1.032,-0.313 -0.101,0.313 -0.308,1.031 -0.101,1.446 0.414,0.207 0.929,-0.618 1.133,-0.825 z"
         style="fill:#bd2633;fill-opacity:0.97647101;fill-rule:evenodd;stroke:none"
         id="path54"
         inkscape:connector-curvature="0" /><path
         d="m 49.328,94.318 c -0.101,0.207 -0.305,0 -0.41,-0.106 -0.207,0 -0.207,-0.41 0,-0.515 -0.207,-0.204 -0.207,-0.309 -0.516,-0.309 H 47.68 c 0.207,0.309 0.312,1.137 -0.207,1.445 -0.207,0.313 -0.414,0.516 -0.825,0.313 -0.515,0 -0.933,-0.106 -1.238,-0.516 -0.308,-0.312 -0.828,-0.621 -1.137,-0.933 -0.105,-0.204 0,-0.204 0,-0.309 0.309,0.105 0.622,-0.207 0.829,-0.41 0.308,-0.313 0.824,-1.035 1.128,-1.344 0.418,-0.312 -0.097,-0.617 0.211,-0.926 h 0.305 l 0.934,0.926 c 0.207,0.203 0,0.516 -0.207,0.309 -0.106,0 -0.207,0 -0.207,0.41 0.414,0.211 1.136,0 1.652,0.211 0.309,0.101 0.719,0.414 0.719,0.824 0,0.414 0,0.824 -0.309,0.93 z m -2.582,-1.547 c -0.305,0 -0.82,0.926 -1.129,1.031 0,0.207 0.309,0.516 0.516,0.516 0.515,0.312 0.926,-0.309 0.926,-0.825 0,-0.105 -0.313,-0.515 -0.313,-0.722 z"
         style="fill:#bd2633;fill-opacity:0.97647101;fill-rule:evenodd;stroke:none"
         id="path56"
         inkscape:connector-curvature="0" /><path
         d="m 42.312,63.251 c 0.825,-1.031 1.856,-1.441 2.372,-2.164 1.242,-0.828 2.582,-1.344 3.718,-1.965 0.621,-0.41 1.442,-0.617 2.27,-0.824 1.031,-0.515 2.062,-0.515 3.094,-0.824 0.828,0 1.449,0 2.066,-0.211 0.414,-0.305 0.93,-0.305 1.031,-0.719 0.207,-0.312 0.207,-0.515 0,-0.828 -0.101,-0.82 -0.312,-1.648 -1.031,-2.269 -0.312,-0.618 -0.617,-0.719 -1.133,-0.825 -0.621,-0.207 -0.933,0.207 -1.449,-0.207 -0.203,-0.207 0,-0.312 0.207,-0.312 0.516,-0.41 0.621,-0.203 1.242,-0.203 0.516,-0.207 1.031,-0.207 1.547,-0.207 0.305,0.41 0.824,0.41 1.238,0.515 0.313,0.207 1.032,0.621 1.547,0.621 l 1.239,-0.621 c 1.136,-0.308 1.859,-0.308 2.785,-0.105 0.312,0 0.621,0.312 0.828,0.625 v 0.515 c -0.207,0.204 -0.516,0 -0.621,0 -0.723,0.204 -1.551,0.204 -1.961,0.825 -0.516,0.617 -1.031,1.648 -0.719,2.679 0.203,0.313 0.719,0.313 1.129,0.313 1.344,0.515 2.996,0.515 4.34,1.238 1.133,0.207 2.269,0.824 3.195,1.242 0.934,0.719 1.859,1.239 2.785,1.754 l 1.965,1.957 H 72.859 C 72.031,62.22 70.902,61.81 69.969,61.087 68.422,60.259 66.977,59.54 65.535,59.122 64.504,58.505 63.57,58.404 62.539,58.091 c -0.309,0 -0.41,0 -0.617,0.207 0,0.106 -0.211,0.207 0,0.207 0.308,0.414 0.824,0.207 0.93,0.723 0,0.312 -0.313,0.312 -0.414,0.515 -0.516,0.207 -0.825,-0.203 -1.34,-0.203 -0.516,-0.211 -0.934,-0.312 -1.45,-0.211 -0.207,0.211 -0.304,0.211 -0.515,0.414 v 0.207 c 0.308,-0.207 0.828,0 1.344,0 0.824,0 1.652,0.309 2.375,0.309 1.339,0 2.683,0.313 3.816,1.035 1.137,0.516 2.27,1.133 3.301,1.957 H 68.422 C 67.598,62.736 66.773,62.22 66.051,61.81 l -1.86,-0.516 -0.515,-0.207 -4.332,-0.515 c -0.727,0 -1.242,0.207 -1.653,0.207 -0.828,0 -1.656,0.097 -2.269,0.308 -2.688,0.305 -5.16,0.821 -7.227,2.164 h -1.449 c 0.934,-0.824 1.965,-1.441 3.098,-1.648 1.136,-0.516 2.48,-0.824 3.718,-1.031 1.653,-0.516 3.301,-0.516 4.954,-0.622 h 0.101 C 58.102,59.743 58,58.712 57.379,59.122 c -0.617,0.106 -1.133,0.418 -1.957,0.828 -0.313,0 -1.035,0.106 -1.141,-0.207 0,-0.414 -0.203,-0.515 0,-0.621 0,-0.203 0.106,-0.203 0.313,-0.203 0,0.203 0.308,0 0.515,0 0.106,0 0.106,-0.207 0,-0.207 -0.515,-0.414 -1.136,-0.207 -1.859,-0.207 -0.824,0.414 -1.547,0.414 -2.473,0.824 -0.515,0.211 -0.933,0.414 -1.449,0.621 -1.133,0.411 -2.269,0.926 -3.402,1.653 -0.727,0.515 -1.344,1.031 -1.965,1.648 z m 18.579,-4.539 c -0.621,-0.414 -1.45,-1.652 -1.45,-2.48 0.207,-1.133 1.036,-2.164 1.657,-2.989 0,-0.207 0.203,-0.207 0.203,-0.414 -0.41,-0.101 -0.824,0.414 -1.031,0.618 -0.622,0.207 -1.137,1.136 -2.168,0.621 -0.305,-0.207 -0.305,-0.414 -0.618,-0.516 0,0 -0.621,-0.516 -0.722,-0.309 l 0.41,0.618 c 0.207,0.722 0.519,1.238 0.519,1.855 0.106,0.313 0.309,0.828 0,1.242 -0.312,0.617 -1.445,1.34 -1.859,1.754 0,0 0.203,0 0.203,0.207 0.727,0 1.965,-0.828 2.277,-0.515 0.204,0.101 0.305,0.515 0.516,0.308 0.305,-0.308 0.926,-0.308 1.336,-0.207 0.106,0 0.621,0.207 0.727,0.414 0,-0.207 0.207,-0.207 0,-0.207 z"
         style="fill:#bd2633;fill-opacity:0.97647101;fill-rule:evenodd;stroke:none"
         id="path58"
         inkscape:connector-curvature="0" /><path
         d="m 36.328,74.603 c 0.203,-0.926 0.41,-1.957 0.926,-2.988 0.516,-0.723 0.621,-1.657 1.031,-2.481 1.238,-2.066 2.582,-4.023 4.027,-5.883 h 1.649 c -0.824,0.723 -1.547,1.344 -1.957,2.172 -1.344,1.645 -2.375,3.402 -3.203,5.16 -0.203,0.719 -0.516,1.34 -0.926,2.063 -0.105,0.617 -0.516,1.34 -0.621,1.957 z m 2.68,0 0.414,-1.133 c 0.207,-1.031 0.723,-1.855 0.93,-2.684 0.515,-1.445 1.652,-2.683 2.48,-3.816 0.613,-1.031 1.75,-1.859 2.578,-2.891 0.516,-0.312 0.82,-0.414 1.336,-0.828 h 1.449 c -0.308,0.207 -0.515,0.414 -0.828,0.516 -1.137,0.828 -2.472,1.859 -3.199,2.996 -0.82,0.723 -1.336,1.547 -1.961,2.371 -0.621,0.621 -0.824,1.449 -1.137,2.168 -0.515,0.926 -0.925,2.168 -1.031,3.301 z m 5.265,0 c 0.309,-0.617 0.622,-1.133 0.926,-1.856 0.516,-1.035 1.653,-1.961 2.274,-2.789 0.722,-0.617 1.445,-1.133 1.855,-1.648 1.86,-1.547 3.922,-2.063 5.887,-2.887 1.133,-0.312 2.269,-0.312 3.613,-0.519 1.133,0 2.063,0.207 3.094,0.312 0.516,0 0.824,0.207 1.133,0.41 1.031,0 1.652,0.621 2.48,0.828 0.82,0.516 1.754,1.032 2.582,1.547 1.129,0.617 1.957,1.754 2.988,2.785 0.313,0.829 1.137,1.442 1.446,2.375 0.105,0.516 0.414,1.032 0.824,1.442 h -1.031 c -0.102,-0.41 -0.41,-0.824 -0.723,-1.34 -0.516,0 -0.719,0.414 -1.031,0.723 -0.203,0.207 -0.41,0.519 -0.621,0.617 h -1.133 c 0.41,-0.41 0.926,-0.824 1.344,-1.34 0.207,-0.516 0.722,-0.824 0.41,-1.551 -0.41,-0.82 -1.344,-1.234 -1.957,-1.957 -0.211,-0.105 -0.313,-0.105 -0.516,-0.105 -0.519,0.933 -0.933,1.965 -1.449,2.996 -0.313,0.515 -0.516,1.031 -0.617,1.547 -0.211,0.101 -0.414,0.312 -0.414,0.41 h -0.93 c 0.207,-0.309 0.207,-0.41 0.313,-0.824 0.515,-0.618 0.82,-1.551 1.132,-2.371 0.516,-0.622 0.825,-1.45 1.446,-2.067 v -0.414 c -0.621,-0.516 -1.243,-0.824 -1.961,-1.133 -0.41,-0.207 -0.93,-0.308 -1.551,-0.308 -0.203,0 -0.41,0.101 -0.41,0.308 -0.309,1.856 -0.309,3.821 -0.621,5.469 0,0.516 0,1.031 -0.203,1.34 h -2.067 l 0.313,-0.098 c 0.308,-0.312 1.132,-0.726 1.031,-1.344 0.309,-0.933 0.309,-2.062 -0.207,-2.683 -0.309,-0.828 -0.824,-1.653 -1.758,-2.067 -0.723,-0.41 -2.473,-0.41 -3.094,0 -1.238,0.723 -1.855,3.301 -1.238,4.543 0.203,0.516 1.031,1.34 1.652,1.649 H 55.52 C 54.387,73.677 53.973,72.439 53.973,70.892 L 53.766,69.65 c -0.516,-0.309 -0.516,-1.032 -1.032,-1.547 -0.617,-0.102 -1.031,0.308 -1.546,0.722 -0.411,0.309 -0.411,0.825 -0.208,1.239 0.313,0.828 1.137,1.551 1.446,2.582 0.308,0.617 0.621,1.34 1.031,1.957 h -0.824 c -0.309,-0.824 -0.727,-1.442 -1.137,-2.375 -0.308,-0.305 -0.308,-0.926 -0.719,-1.336 -0.312,-0.309 -0.312,-0.934 -0.933,-0.934 -0.617,0.106 -1.442,0.934 -1.957,1.657 -0.207,0.613 0.308,1.132 0.621,1.855 0.41,0.309 0.719,0.824 1.031,1.133 h -1.137 c -0.207,-0.098 -0.41,-0.41 -0.722,-0.617 -0.313,-0.207 -0.414,-0.723 -0.934,-0.516 -0.305,0.309 -0.613,0.723 -0.82,1.133 z m 33.129,0 v -0.309 c -0.308,-0.617 -0.414,-1.34 -0.726,-2.066 -0.41,-0.613 -0.516,-1.442 -1.031,-2.164 -0.516,-0.723 -1.032,-1.653 -1.754,-2.27 l -0.926,-1.031 c -0.723,-0.516 -1.344,-1.34 -2.27,-1.965 -0.515,-0.41 -0.726,-0.719 -1.449,-1.031 -0.098,-0.102 -0.41,-0.309 -0.824,-0.516 h 1.547 c 0.621,0.414 1.242,0.828 1.758,1.344 1.238,1.441 2.886,2.684 3.918,4.23 1.136,1.239 1.757,2.79 2.375,4.438 0.207,0.414 0.418,0.93 0.515,1.34 z m 2.684,0 c 0,-0.098 -0.207,-0.41 -0.207,-0.617 -0.621,-1.547 -1.137,-2.887 -1.957,-4.231 -0.625,-1.445 -1.656,-2.687 -2.688,-4.023 -0.621,-0.828 -1.343,-1.551 -2.062,-2.067 -0.207,-0.207 -0.207,-0.414 -0.313,-0.414 h 1.137 c 0.516,0.516 0.828,0.828 1.238,1.344 0.516,0.516 1.032,1.137 1.547,1.652 0.621,1.032 1.239,2.063 1.754,3.094 0.516,0.617 0.934,1.137 1.238,1.758 0.516,1.129 0.934,2.371 1.243,3.504 z M 54.699,68.825 c 0.41,-0.824 1.336,-1.031 2.063,-1.339 0.617,-0.207 1.035,-0.516 1.754,-0.516 0.101,0 0,-0.207 0,-0.418 -0.204,-0.516 -0.825,-0.098 -1.137,-0.305 -0.617,0.305 -1.547,0.305 -2.164,0.723 -0.516,0 -1.137,0.309 -1.653,0.617 v 0.414 c 0.204,0.309 0.411,0.824 0.516,1.133 0,0.207 0.203,0.309 0.203,0.309 z m 8.153,0.825 c 0,-0.825 0.203,-1.649 0.41,-2.582 0,-0.098 -0.41,-0.305 -0.516,-0.305 -0.308,-0.211 -0.824,-0.309 -1.445,-0.309 -0.516,0 -1.031,-0.418 -1.547,0 -0.106,0.098 -0.106,0.516 0,0.614 0.516,0.519 1.344,0.519 1.859,1.035 0.516,0.515 0.617,1.031 0.926,1.547 0.207,0.105 0.313,0 0.313,0 z"
         style="fill:#bd2633;fill-opacity:0.97647101;fill-rule:evenodd;stroke:none"
         id="path60"
         inkscape:connector-curvature="0" /><path
         d="m 35.5,78.322 c 0,-0.309 0,-0.516 0.105,-0.723 0.207,-1.031 0.411,-1.961 0.723,-2.996 h 0.926 c -0.313,1.14 -0.617,2.172 -0.926,3.41 v 0.309 z m 2.785,0 c 0.106,-0.516 0.106,-0.829 0.106,-1.239 0,-0.308 0.515,-1.34 0.515,-1.652 l 0.102,-0.828 h 1.031 v 0.312 c -0.203,0.516 -0.41,1.032 -0.41,1.547 0.207,0.516 0.723,0.313 1.031,0.313 0.516,0 0.723,0.203 1.031,0.203 0.621,0 1.446,0.105 1.754,-0.516 0.207,-0.719 0.516,-1.137 0.828,-1.859 h 1.653 c -0.211,0.312 -0.309,0.828 -0.309,1.14 0,0.411 0.098,0.719 0.309,0.719 0.722,0.313 1.547,-0.203 2.476,0 h 0.516 c 0.309,0 0.41,-0.203 0.621,-0.308 0,-0.411 -0.312,-0.516 -0.516,-0.829 -0.105,-0.203 -0.312,-0.41 -0.621,-0.722 h 1.137 c 0.305,0.519 0.617,0.828 0.926,1.344 0.828,0.621 1.859,0.828 2.785,0.515 v -0.308 c 0,-0.411 -0.309,-0.723 -0.309,-1.032 -0.207,-0.207 -0.207,-0.312 -0.308,-0.519 h 0.824 c 0.105,0.207 0.105,0.207 0.105,0.312 0.411,0.516 0.719,1.239 1.34,1.547 0.618,0.313 1.446,0.106 1.961,-0.308 0.207,-0.207 0.207,0 0.309,0.105 0.312,0 0.625,0 0.93,-0.105 0.21,-0.207 0.414,-0.207 0.515,-0.207 0.516,0 0.824,0.312 1.137,0.312 0.516,0.203 1.137,0.203 1.652,0 0.305,-0.312 0.305,-0.828 0.305,-1.137 V 74.81 c -0.305,-0.207 -0.098,0.105 -0.613,0.312 0,0 -0.828,0.309 -1.137,0.516 -0.52,0.105 -1.133,0 -1.859,0 -0.723,-0.207 -1.754,-0.207 -2.372,-0.828 0,0 -0.21,0 -0.21,-0.207 h 1.964 c 0.313,0.207 0.828,0.312 1.133,0.312 0.727,0.207 1.547,0 2.168,-0.105 v -0.207 h 2.067 v 0.722 c -0.106,0.106 0,0.418 0,0.829 0.41,0.308 0.824,0.105 1.031,-0.207 0.308,-0.309 0.515,-0.825 0.824,-1.344 h 0.93 c -0.313,0.312 -0.41,0.722 -0.41,1.14 0,0.204 0.097,0.204 0.308,0.411 h 1.649 l 0.312,-0.207 c 0.41,-0.516 0.824,-0.825 1.34,-1.344 h 1.133 c -0.207,0.312 -0.516,0.722 -1.031,1.035 -0.102,0.105 -0.305,0.309 -0.305,0.621 l 0.203,0.203 c 1.133,0 2.269,0.313 3.406,0 l 0.309,-0.203 0.105,-0.105 c 0,-0.516 0,-1.032 -0.312,-1.551 h 1.031 c 0.105,0.207 0.105,0.519 0.313,0.722 0.203,0.418 0.308,1.137 0.718,1.45 0.621,0.308 1.344,0.203 2.27,0.308 h 1.246 c 0.098,-0.105 0,-0.515 0,-0.824 -0.106,-0.516 -0.313,-0.934 -0.52,-1.656 h 1.133 c 0.207,0.722 0.418,1.551 0.723,2.172 0.211,0.203 0.308,1.238 0.308,1.34 v 0.207 h -1.128 c 0,-0.207 -0.211,-0.207 -0.211,-0.207 -0.411,-0.102 -0.825,0 -1.133,0 -1.137,-0.102 -2.481,-0.309 -3.614,-0.102 -0.515,0 -1.136,0 -1.546,-0.207 -0.516,-0.207 -1.239,0 -1.86,0 -0.515,0 -0.926,-0.207 -1.652,0 h -6.809 c -0.828,0.207 -1.652,0 -2.582,0 -1.34,0 -2.683,-0.207 -3.922,0 h -6.398 c -0.824,0 -1.652,0.309 -2.578,0.207 -1.449,0 -2.481,0 -3.821,0.309 z m 42.731,0 c 0,-0.309 -0.309,-0.723 -0.309,-0.829 0,-1.031 -0.418,-2.062 -0.621,-2.89 h 0.93 v 0.519 c 0.304,1.032 0.515,1.961 0.722,3.2 z"
         style="fill:#bd2633;fill-opacity:0.97647101;fill-rule:evenodd;stroke:none"
         id="path62"
         inkscape:connector-curvature="0" /><path
         d="m 35.09,81.829 v -0.515 c 0.207,-1.031 0,-2.168 0.41,-2.992 h 0.828 c 0,0 0,0.101 0.203,0.308 0.207,0.207 0.41,-0.515 0.723,-0.207 0.105,0.207 0.828,0.723 0.828,0.207 0,-0.207 0.203,-0.308 0.203,-0.308 h 4.027 -2.273 c -0.203,0 -0.203,0.101 -0.41,0.308 -0.106,1.035 -0.723,1.961 -0.207,2.992 v 0.207 h -1.34 c -0.207,-0.207 -0.312,-0.207 -0.312,0 z m 43.348,0 c 0,-0.41 0,-0.722 0.097,-1.031 -0.097,-0.828 0.207,-1.652 0,-2.375 0,-0.101 0,-0.101 -0.097,-0.101 h 1.128 c 0,0 0,0.101 0.207,0.101 0.106,0.207 0.313,-0.101 0.516,-0.101 0.211,0 0.418,0.101 0.727,0.101 v -0.101 h 0.722 v 0.515 c 0.309,0.617 0.098,1.344 0.309,2.164 0,0.106 0,0.418 -0.211,0.828 h -0.613 v -0.722 c 0,0 -0.418,0.312 -0.516,0.207 -0.418,0 -0.828,-0.313 -0.828,-0.207 v 0.722 z M 37.875,80.181 37.359,79.665 c -0.105,-0.211 -0.418,-0.211 -0.621,-0.211 -0.101,0 -0.207,0.414 -0.207,0.414 -0.203,0.102 -0.203,0.618 -0.203,0.723 0,0.207 0.203,0.41 0.309,0.41 0.101,0.106 0.41,0 0.617,0 0.312,0 0.621,-0.82 0.621,-0.82 z m 42.93,-0.727 c -0.098,-0.101 -0.305,-0.308 -0.617,-0.308 -0.102,0 -0.309,0.308 -0.415,0.519 0,0.203 0,0.618 0.106,0.618 0.309,0.308 0.828,0.203 1.137,0 V 79.97 c 0.207,-0.102 0,-0.305 -0.211,-0.516 z"
         style="fill:#bd2633;fill-opacity:0.97647101;fill-rule:evenodd;stroke:none"
         id="path64"
         inkscape:connector-curvature="0" /><path
         d="m 35.812,86.161 c 0,-0.304 -0.207,-0.82 0,-1.132 C 35.5,84.615 35.5,84.204 35.5,83.689 35.297,82.966 35.09,82.45 35.09,81.829 h 2.68 c -0.204,0 -0.204,0 -0.411,0.106 -0.105,0.203 -0.312,0.308 -0.621,0.203 -0.101,0 -0.207,0 -0.41,-0.203 h -0.207 c 0.207,1.34 0.41,2.371 0.516,3.613 0.101,0.098 0.101,0.309 0.101,0.613 z m 3.094,0 c -0.105,-0.613 -0.308,-1.336 -0.308,-1.855 -0.207,-0.824 -0.313,-1.652 -0.516,-2.477 h 1.34 c 0.101,0.106 0.207,0.309 0.207,0.309 h 4.539 c 0.309,0.105 0.516,0 0.934,0 1.128,0.105 2.164,0 3.3,0 0.926,0.105 1.754,-0.309 2.891,-0.203 0.824,0.203 1.957,0 2.785,0 0.621,0 1.137,0.203 1.652,0 0.618,0 1.133,0 1.754,0.203 1.032,-0.203 2.164,0 3.098,0 0.309,0.105 0.719,0 1.031,0 0.825,0.105 1.649,0 2.473,0.105 1.449,-0.105 2.891,0 4.234,-0.105 0.313,0.105 0.828,0 1.239,0 2.062,0.105 4.129,0.105 6.191,0.105 0.723,0.207 1.344,0 2.066,0.207 0.106,0 0.204,-0.207 0.411,-0.207 0,-0.105 0.211,-0.308 0.211,-0.414 h 1.441 c 0,0.309 -0.106,0.621 -0.106,0.93 -0.207,0.414 0,0.93 -0.304,1.238 -0.211,0.618 -0.418,1.344 -0.516,2.164 h -1.344 c 0,-0.203 0,-0.304 0.207,-0.515 0.106,-0.617 0.411,-1.133 0.411,-1.957 0,-0.516 -0.618,-0.414 -0.93,-0.516 -0.516,0 -1.031,0 -1.547,-0.207 -0.516,0.207 -0.926,0 -1.547,0 v 0.207 c 0,0.617 -0.207,1.442 -0.515,1.957 -0.208,0.418 -0.208,0.727 -0.313,1.031 h -1.344 c 0.313,-0.304 0.313,-0.613 0.52,-1.031 -0.207,0 -0.207,-0.101 -0.309,-0.101 -1.137,0.312 -2.062,0.828 -2.996,1.132 h -2.062 l 0.105,-0.203 h 0.309 c 0.308,-0.312 0.722,-0.101 1.035,-0.312 0.613,-0.098 1.129,-0.098 1.547,-0.617 0.722,0 1.441,-0.414 2.062,-0.516 0.309,-0.309 0.723,-0.516 1.133,-0.824 0.105,-0.207 0,-0.414 0,-0.516 -0.203,-0.414 -0.516,-0.207 -0.719,-0.207 -0.105,0 -0.312,0.207 -0.414,0.207 h -0.621 c -0.516,0.102 -0.719,0.516 -1.031,0.617 -0.41,0.207 -0.516,0.207 -0.621,0.516 -0.516,0 -0.821,0.309 -1.133,0.519 -0.516,0.204 -0.93,0.305 -1.34,0.516 -0.312,0.305 -0.828,0.516 -1.141,0.82 h -1.648 c 0,-0.203 0.207,-0.203 0.313,-0.203 0.515,-0.101 1.132,-0.312 1.648,-0.617 0.309,-0.211 0.516,-0.516 0.93,-0.726 0.722,-0.411 1.55,-0.309 1.961,-0.926 0.41,-0.414 0.621,-0.414 1.031,-0.723 0.105,-0.207 0,-0.207 -0.203,-0.207 h -1.449 c -0.305,0.207 -0.618,0.414 -1.032,0.414 -0.722,0.516 -1.551,1.031 -2.371,1.652 -0.621,0.204 -1.137,0.821 -1.859,1.133 -0.106,0 -0.106,0 -0.106,0.203 h -1.031 c 0.723,-0.304 1.137,-1.031 1.859,-1.336 0.622,-0.519 1.442,-0.621 1.957,-1.136 0.313,-0.207 0.622,-0.516 0.934,-0.723 H 65.84 c -0.613,0.309 -1.133,0.723 -1.649,1.031 -0.824,0.618 -1.445,1.551 -2.269,2.164 h -0.824 c 0.203,-0.203 0.203,-0.304 0.308,-0.304 0.516,-0.309 0.824,-0.828 1.34,-1.344 0.309,-0.309 0.621,-0.723 0.93,-1.238 v -0.102 c -0.106,-0.207 -0.309,-0.207 -0.621,-0.207 -0.203,0 -0.309,0 -0.516,0.207 -0.617,0.824 -1.133,1.856 -1.754,2.785 0,0 0.106,0 0.106,0.203 h -4.028 c 0.309,-0.203 0.621,-0.304 0.934,-0.515 0.305,0.211 0.719,0 1.031,0.211 0.203,-0.211 0.516,0 0.613,-0.211 0,-0.305 0.207,-0.617 0.313,-1.031 -0.106,-0.411 0.41,-0.926 0.207,-1.649 0,-0.207 -0.207,0 -0.313,-0.207 -0.304,0 -0.304,0.414 -0.515,0.516 0,0.515 0.211,1.031 0.211,1.55 0,0.204 -0.211,0.305 -0.313,0.516 -0.203,0 -0.414,0 -0.414,-0.211 -0.101,-0.305 -0.101,-0.617 0,-0.926 v -0.722 c 0,-0.207 0,-0.723 -0.305,-0.828 0,0 -0.312,0 -0.312,0.105 -0.309,0.414 -0.203,0.723 0,0.93 0.102,0.515 0.102,0.926 0.102,1.34 0,0.101 0,0.312 -0.102,0.312 -0.203,0 -0.309,0 -0.516,-0.211 -0.105,-0.305 0,-0.617 -0.105,-0.926 -0.207,-0.515 0,-1.238 -0.617,-1.55 -0.211,0 -0.516,0.105 -0.93,0.105 v 0.207 c 0.516,0.723 1.031,1.34 1.34,2.063 0.207,0.101 -0.102,0.312 -0.102,0.617 h -0.308 c -0.414,-0.098 -0.414,-0.617 -0.516,-1.031 -0.414,-0.411 -0.824,-0.926 -1.137,-1.442 -0.207,-0.519 -0.722,-0.207 -1.031,-0.414 -0.105,0 -0.105,0.207 -0.105,0.414 0.308,0.516 0.621,0.617 1.136,1.133 0.106,0.309 0.411,0.723 0.621,1.035 0.102,0.207 0.305,0.305 0.305,0.516 0,0.101 -0.203,0.101 -0.203,0.101 0,0 -0.102,0 -0.102,0.203 h -0.21 v -0.203 c -0.305,-0.312 -0.411,-0.41 -0.618,-0.929 -0.621,-0.723 -1.34,-1.34 -1.961,-2.063 -0.515,-0.312 -1.132,-0.207 -1.753,-0.207 0,0 -0.208,0.207 0,0.414 1.136,0.617 2.062,1.856 3.199,2.473 0.207,0.312 0.312,0.312 0.515,0.515 h -0.824 c -0.105,-0.203 -0.312,-0.304 -0.516,-0.515 -1.136,-0.821 -2.582,-1.442 -3.718,-2.371 -0.617,-0.309 -1.649,-0.309 -2.477,0 v 0.207 c 1.035,0.824 2.172,1.031 3.305,1.547 0.621,0.101 1.137,0.617 1.754,0.828 0.207,0.101 0.308,0.101 0.515,0.304 h -1.238 c -0.41,-0.203 -0.515,-0.304 -0.926,-0.304 -0.933,-0.309 -1.754,-0.828 -2.785,-1.344 -0.726,-0.207 -1.344,-0.824 -2.277,-0.723 -0.098,0 -0.098,0.207 -0.098,0.414 0.824,0.621 1.75,0.825 2.578,1.137 0.313,0.207 1.133,0.516 1.961,0.82 h -1.961 c -0.828,-0.304 -1.449,-0.613 -2.269,-0.613 -0.211,0 -0.309,0.098 -0.309,0.098 v 0.515 h -1.449 c -0.305,-1.031 -0.516,-1.957 -0.82,-2.886 -0.211,-0.102 -0.516,0 -0.727,-0.102 H 41.07 c -0.515,0 -1.031,0.102 -1.547,0.102 -0.101,0.414 -0.304,0.515 -0.101,0.722 0,0.828 0.101,1.551 0.207,2.164 z m 41.383,0 c 0.211,-0.613 0.418,-1.336 0.516,-1.957 0.211,-0.515 0.211,-1.754 0.418,-2.375 h 0.613 c 0,1.344 -0.098,2.477 -0.516,3.719 v 0.613 z M 61.613,83.275 c 0,-0.102 -0.207,-0.309 -0.312,-0.309 -0.203,0 -0.516,0.207 -0.719,0.309 -0.105,0.722 -0.312,1.238 -0.312,1.855 -0.106,0.211 -0.106,0.516 -0.106,0.727 0.106,0 0.106,-0.211 0.313,-0.211 0.308,-0.821 1.136,-1.442 1.136,-2.371 z"
         style="fill:#bd2633;fill-opacity:0.97647101;fill-rule:evenodd;stroke:none"
         id="path66"
         inkscape:connector-curvature="0" /><path
         d="m 36.941,89.673 c -0.203,-0.723 -0.41,-1.238 -0.613,-1.859 -0.207,-0.719 -0.312,-1.137 -0.516,-1.653 h 0.926 c 0.203,0.313 0.203,0.622 0.309,0.934 l 0.723,1.754 c 0.105,0.309 0.105,0.516 0.312,0.824 z m 2.895,0 c -0.313,-0.824 -0.414,-1.754 -0.828,-2.578 0,-0.312 -0.102,-0.621 -0.102,-0.934 h 0.723 c 0.207,0.516 0.41,1.137 0.516,1.653 0.207,0.621 0.41,1.344 0.722,1.859 z m 6.605,0 C 46.23,89.466 46.23,89.365 46.133,89.365 45.715,88.95 45.41,88.642 45.199,88.126 44.895,87.814 44.684,87.095 44.477,86.677 44.273,86.474 44.273,86.267 44.168,86.161 h 1.449 c 0.098,0 0.098,0.106 0.098,0.106 0.515,0.207 0.933,0.41 1.137,0.516 1.14,0 3.925,0.828 5.054,1.136 0.211,0.207 2.375,0.207 2.172,0.723 0,0.207 -4.023,-0.516 -4.441,-0.723 -0.926,-0.105 -1.75,-0.308 -2.785,-0.308 -0.106,0 -0.204,0 -0.411,0.203 0,0.312 0.305,0.312 0.411,0.621 0.414,0.414 6.089,0.207 6.089,0.723 0.309,0.308 -5.574,0 -5.054,0.515 z m 8.668,0 c -0.207,0 -0.207,-0.207 0,-0.207 -0.207,-1.133 0,-2.371 0.926,-2.992 0.211,-0.207 0.516,-0.313 0.828,-0.313 h 5.059 -0.211 c 0,0 -0.098,0.106 -0.098,0.313 0,0 0,0.203 0.098,0.203 0.418,0 0.519,-0.41 0.727,-0.516 h 1.132 c -0.515,0.106 -1.031,0.622 -1.441,0.829 -0.207,0 -0.207,0.105 -0.207,0.308 0.207,0.313 0.308,0.621 0.516,1.035 0.101,0.102 0.308,0 0.414,0 0.718,-0.414 1.546,-0.414 2.168,-0.722 1.031,-0.106 2.164,-0.313 3.097,-0.516 0.821,-0.105 1.442,-0.418 2.063,-0.621 0.722,-0.207 1.238,-0.313 1.851,-0.313 h 1.344 c -0.203,0.313 -0.41,0.516 -0.516,0.829 -0.203,0.621 -0.617,1.136 -0.925,1.859 -0.207,0.101 -0.516,0.516 -0.829,0.824 h -1.546 c 0.41,0 0.515,0 0.828,-0.207 0,0 0.203,-0.101 0.203,-0.308 -0.828,0 -1.754,-0.208 -2.684,0 h -1.551 c -0.515,-0.208 -1.031,0.308 -1.128,-0.208 -0.207,-0.101 0,-0.308 0.097,-0.308 0.727,0 1.449,-0.207 2.172,-0.207 0.41,0.207 0.824,0 1.34,0 0.723,0 1.859,0.414 2.582,-0.516 0.309,-0.308 0.516,-0.621 0.516,-0.929 0,-0.207 -0.207,-0.207 -0.207,-0.207 -0.516,0 -1.032,0.207 -1.547,0.312 -0.621,0.203 -1.242,0.516 -1.86,0.516 -0.824,0 -1.343,0.308 -1.965,0.308 -0.515,0.207 -1.031,0.414 -1.648,0.414 -0.824,0.102 -1.652,0.102 -2.269,0.825 0,0.207 0.101,0.308 0.308,0.308 0.621,0.207 1.34,0.207 2.168,0.207 h -3.613 c 0,-0.207 0,-0.308 0.105,-0.515 0.207,0 0.305,0 0.305,-0.208 0,-0.824 -0.098,-1.445 -0.82,-1.96 -0.309,-0.313 -0.727,-0.313 -1.137,-0.313 -1.137,-0.41 -2.063,0 -2.891,0.621 -0.515,0.207 -0.617,1.035 -1.031,1.551 0,0.309 0.203,0.516 0.203,0.824 z m 1.754,0 c 0,0 0,-0.207 -0.101,-0.207 0,-0.101 0,-0.516 -0.414,-0.516 -0.313,0.208 -0.102,0.516 0,0.723 z m 0.934,0 h -0.313 z m 1.547,0 c 0,-0.207 -0.211,-0.308 -0.211,-0.723 h -0.305 c 0,0.208 0,0.516 -0.211,0.723 z m 1.441,0 c 0,-0.207 0,-0.515 -0.308,-0.515 -0.207,0 0,0.308 -0.313,0.515 -0.203,0 -0.203,-0.308 -0.41,-0.207 l -0.106,0.207 z m 5.676,0 h 1.961 z m 9.699,0 c 0.106,-0.207 0.106,-0.308 0.106,-0.515 0.515,-1.032 0.828,-2.063 1.343,-2.997 h 1.344 c -0.211,0.622 -0.515,1.344 -0.933,1.758 -0.098,0.723 -0.411,1.239 -0.723,1.754 z m 3.098,0 c 0.211,-0.515 0.515,-1.238 0.621,-1.754 0.207,-0.621 0.309,-1.242 0.41,-1.758 h 1.031 c -0.515,1.137 -1.031,2.274 -1.441,3.512 z M 50.156,86.161 c 1.137,0.516 2.578,0.934 3.094,1.137 0.207,0.207 1.031,0.516 1.137,0.621 -0.106,0.207 -1.34,-0.308 -1.446,-0.105 -0.617,-0.203 -4.023,-1.547 -4.539,-1.653 h -0.207 z m 2.785,0 c 0.309,0.106 0.825,0.516 1.137,0.622 0.309,0.207 0,0.515 -0.105,0.515 -0.926,-0.308 -1.547,-0.824 -2.27,-1.137 z m 1.961,0 v 0.106 c -0.203,0.207 -0.308,0.207 -0.308,0 -0.207,0 -0.313,-0.106 -0.516,-0.106 z m 0.828,0 h -0.21 z m 10.625,0 h -0.203 c -0.515,0.106 -0.925,0.313 -1.445,0.516 -0.516,0.106 -0.824,0.313 -1.34,0.313 -0.105,0 -0.312,0 -0.312,-0.207 0,-0.309 0.515,-0.309 0.828,-0.516 0.308,0 0.515,-0.106 0.824,-0.106 z m 2.891,0 h -0.098 c -0.828,0.106 -1.652,0.516 -2.48,0.622 -0.617,0.207 -1.441,0.312 -1.961,0.722 h -0.621 c 0,-0.207 -0.203,-0.207 0,-0.41 0.312,-0.312 0.934,-0.105 1.238,-0.418 0.727,-0.203 1.137,-0.41 1.86,-0.516 z"
         style="fill:#bd2633;fill-opacity:0.97647101;fill-rule:evenodd;stroke:none"
         id="path68"
         inkscape:connector-curvature="0" /><path
         d="m 39.219,93.181 c -0.211,0 -0.313,-0.203 -0.313,-0.41 -0.824,-0.934 -1.34,-1.965 -1.965,-3.098 h 1.141 c 0.516,0.828 0.824,1.649 1.441,2.27 0.106,0.621 0.516,0.828 0.829,1.238 z m 2.988,0 C 41.691,92.564 41.176,91.837 40.66,91.224 40.352,90.708 40.039,90.189 39.836,89.673 h 1.031 c 0,0.207 0,0.207 0.203,0.207 0.516,1.137 1.137,2.063 2.067,3.098 l 0.211,0.203 z m 8.258,0 c -0.203,0 -0.309,0 -0.309,-0.203 -0.617,-0.313 -1.238,-1.035 -1.961,-1.445 -0.722,-0.727 -1.343,-1.137 -1.754,-1.86 h 1.446 c 0.515,0.516 1.34,0.313 1.957,0.313 l 2.89,-0.106 c 0.516,0 0.828,-0.207 1.344,0 0.203,0.106 0.309,0 0.309,0.106 0,0.41 -0.621,0.203 -0.93,0.41 -0.824,0 -1.648,0.105 -2.477,0.105 -0.718,-0.105 -1.343,0 -1.957,0.207 -0.105,0 -0.105,0 -0.105,0.098 0.621,0.727 3.406,0 4.023,0.211 l 0.106,0.207 c -0.106,0.098 -2.992,0.41 -2.582,0.926 0.723,0.621 2.168,-0.313 3.301,-0.617 l 0.312,-0.211 c 0.309,-0.305 0.824,-0.305 1.137,-0.516 0.305,-0.41 -0.106,-0.82 -0.106,-1.133 h 0.926 c 0.211,0.313 0.313,0.723 0.516,1.035 0.312,0.309 0.621,0.926 1.14,1.129 0.825,0.313 1.653,0.313 2.473,0.106 0.106,-0.106 0.418,-0.309 0.727,-0.41 0.207,-0.211 0.515,-0.309 0.722,-0.727 0.098,0 0.098,-0.098 0.098,-0.098 -0.098,-0.312 -0.613,-0.312 -0.41,-0.722 v -0.313 h 9.804 c -0.203,0.313 -0.515,0.723 -0.718,0.828 -0.625,0.516 -0.934,1.336 -1.754,1.649 -0.516,0.515 -1.035,0.828 -1.449,1.031 h -1.86 0.211 c 0,-0.516 -0.515,-0.41 -0.621,-0.516 -0.723,-0.312 -1.344,-0.722 -2.168,-1.031 v -0.101 c 0,-0.211 0.106,0 0.309,-0.211 0.828,0.515 1.652,0.621 2.48,1.242 0.82,0.207 1.754,0 2.371,-0.621 0,-0.106 0.211,-0.106 0.211,-0.106 -0.621,-0.203 -1.14,-0.203 -1.656,-0.304 l -1.137,-0.211 c -0.41,0 -0.926,0 -1.441,-0.098 -0.516,0 -1.031,-0.418 -1.445,-0.418 -0.309,0 -0.208,0.516 -0.516,0.727 0,0.101 0.207,0.304 0.207,0.41 0.41,0.621 0.926,1.035 1.547,1.238 h -0.824 c -0.414,-0.41 -0.93,-0.617 -1.239,-1.031 -0.207,-0.207 -0.312,0 -0.515,0 -0.207,0.414 -0.207,0.621 -0.207,1.031 h -0.414 c -0.207,0 -0.207,0 -0.207,-0.203 h -0.106 v 0.203 h -0.723 c 0,-0.203 0,-0.41 -0.308,-0.41 -0.305,-0.106 -0.617,-0.106 -1.133,0 v 0.41 h -0.621 v -0.41 c 0,-0.106 -0.309,-0.106 -0.516,-0.207 -0.312,0 -0.312,0.414 -0.617,0.414 l -0.211,0.203 h -0.82 c 0.515,-0.41 0.617,-0.828 1.031,-1.238 -0.211,-0.309 -0.516,-0.719 -0.824,-0.621 -0.52,0.312 -1.035,0.621 -1.449,0.621 -0.723,0.41 -1.34,0.621 -2.067,0.828 v 0.207 c 0.211,0.203 0.52,0 0.727,0 0.308,-0.207 0.617,-0.207 0.929,-0.313 0.516,-0.312 1.032,-0.312 1.547,-0.722 0.106,0 0.106,0.207 0.106,0.207 0.207,0.203 0,0.414 -0.106,0.414 -0.207,0 -0.41,0.207 -0.722,0.207 -0.106,0.207 -0.309,0.41 -0.621,0.41 z m 6.297,0 h 0.308 z m 4.949,0 c 0,0 0.211,-0.203 0.211,0 h 0.207 z m 12.18,0 c 0.312,-0.41 0.621,-0.617 0.933,-1.031 l 0.203,-0.207 0.618,-0.926 c 0.105,-0.516 0.312,-0.828 0.515,-1.344 h 1.137 v 0.207 c -0.309,0.621 -0.621,1.442 -1.137,2.063 -0.41,0.621 -0.515,0.828 -0.719,1.238 z m 3.511,0 c 0,0 0,-0.203 0.207,-0.203 0.313,-0.625 0.618,-1.344 0.926,-2.172 0.207,-0.305 0.516,-0.617 0.723,-1.133 h 0.621 v 0.313 c -0.41,0.722 -0.621,1.336 -1.137,1.957 -0.207,0.621 -0.207,0.828 -0.515,1.238 z M 56.348,89.673 c 0,0.207 0.203,0.207 0.203,0.313 0.211,0 0.312,0.203 0.519,-0.106 0,0 0,-0.207 -0.207,-0.207 z m 1.136,0 c -0.105,0.207 -0.312,0.516 -0.414,0.516 -0.207,0 -0.308,0 -0.308,0.207 -0.211,0 -0.211,0.105 0,0.105 0.101,0.207 0.41,0.207 0.722,0.207 l 0.207,-0.207 C 57.797,90.396 58,89.986 57.797,89.673 Z m 1.133,0 v 0.207 c 0,0.106 -0.305,0.516 -0.101,0.621 0,0.207 0,0.207 0.101,0.207 0.414,0 0.516,-0.312 0.727,-0.722 v -0.313 z m 1.031,0 v 0.313 c 0,0.203 0.106,0.41 0.516,0.515 0.106,0 0.313,-0.105 0.418,-0.105 0.203,-0.207 0.203,-0.516 0.203,-0.723 z m 6.504,1.133 c 0.516,0.211 1.032,0.418 1.446,0.418 0.519,0 0.824,0.309 1.34,0 0.21,-0.207 0.621,-0.418 0.515,-0.723 -0.305,-0.312 -0.82,-0.312 -1.133,-0.312 -1.859,0.207 -3.406,0 -5.058,0 l -0.824,-0.203 c -0.208,0.203 -0.208,0.203 -0.208,0.41 0.516,0 0.622,0.105 1.032,0.312 h 0.824 l 1.238,0.098 z"
         style="fill:#bd2633;fill-opacity:0.97647101;fill-rule:evenodd;stroke:none"
         id="path70"
         inkscape:connector-curvature="0" /><path
         d="m 42.832,97.513 c -0.211,0 -0.211,-0.098 -0.418,-0.098 -0.207,-0.722 -0.723,-1.031 -1.238,-1.547 -0.309,-0.519 -0.824,-0.828 -1.031,-1.238 -0.309,-0.418 -0.622,-0.933 -0.926,-1.449 h 1.133 c 0.308,0.516 0.718,0.828 1.031,1.344 0.621,0.824 1.547,1.652 2.48,2.578 l 0.41,0.41 z m 4.535,0 c -0.719,-0.305 -1.441,-0.82 -2.168,-1.129 -1.238,-0.828 -2.269,-2.066 -2.992,-3.203 h 1.141 c 0.304,0.516 0.613,1.031 1.129,1.344 0.722,0.621 1.656,1.343 2.582,1.859 0.414,0.309 0.933,0.516 1.449,0.824 0.203,0.207 0.41,0.207 0.719,0.305 z m 21.571,0 c 0.21,0 0.21,-0.098 0.308,-0.098 1.141,-0.515 1.965,-1.754 2.996,-2.375 0.617,-0.515 1.133,-1.238 1.649,-1.859 h 1.343 c -0.41,0.621 -0.722,1.137 -1.238,1.652 -0.516,0.313 -0.824,1.035 -1.445,1.239 -0.617,0.515 -1.133,1.031 -1.856,1.441 z m 4.75,0 c 0.308,-0.305 0.718,-0.82 1.136,-1.129 1.133,-0.828 1.852,-2.066 2.578,-3.203 h 0.825 v 0.207 c -0.207,0.414 -0.411,0.824 -0.825,1.137 -0.414,0.308 -0.621,1.031 -1.136,1.343 -0.516,0.719 -1.032,1.235 -1.653,1.645 z M 53.766,93.181 c 0,0.207 -0.204,0.207 -0.309,0.312 v 0.204 c 0.105,0.105 0.309,0.312 0.516,0.312 0.414,0.203 0.621,-0.516 1.136,-0.516 0,-0.105 0.106,-0.105 0.106,-0.312 h 0.82 c -0.305,0.312 -0.515,0.621 -0.82,0.828 v 0.309 c 0.207,0.207 0.305,0.207 0.515,0.207 l 0.102,-0.207 c 0.203,-0.309 0.414,-0.825 0.93,-1.137 h 0.308 v 0.207 c 0,0.105 -0.207,0.105 -0.207,0.309 -0.101,0.312 -0.312,0.621 -0.101,0.828 0.101,0 0.101,0.105 0.101,0.105 0.207,0 0.309,0 0.309,-0.105 0,-0.516 0,-0.828 0.207,-1.344 H 58 c -0.203,0.516 -0.203,1.031 -0.203,1.344 v 0.308 h 0.305 c 0.21,0 0.414,-0.203 0.414,-0.308 0.101,-0.207 -0.204,-0.828 0.101,-1.032 0.211,0.204 0.414,0.204 0.414,0.309 v 0.723 l 0.313,0.515 c 0.097,0 0.304,0 0.304,-0.207 0,-0.515 0,-0.824 -0.207,-1.34 v -0.312 h 0.723 c 0,0.516 0.106,1.031 0.106,1.449 0.207,0 0.207,0.203 0.312,0.203 0,0 0.203,0 0.203,-0.203 0,-0.418 -0.203,-0.933 -0.308,-1.449 h 0.414 c 0.207,0.312 0.41,0.621 0.41,0.828 0.105,0.203 0.312,0.621 0.621,0.621 0.207,0 0.308,0 0.516,-0.105 v -0.207 c -0.309,-0.106 -0.516,-0.516 -0.825,-0.825 v -0.312 h 0.516 c 0.309,0.516 0.617,1.344 1.238,1.031 0.203,0 0.203,0 0.309,-0.203 0,-0.207 -0.309,-0.207 -0.309,-0.312 -0.105,-0.204 -0.312,-0.309 -0.515,-0.516 h 0.824 c 0.515,0.312 1.031,0.312 1.648,0.207 v -0.207 h 1.86 c -0.207,0.207 -0.411,0.207 -0.516,0.312 -0.617,0.309 -1.344,0.516 -1.961,0.825 -0.516,0.312 -1.34,0.312 -1.855,0.722 -0.93,0.106 -1.754,0.309 -2.688,0.516 h -2.68 C 56.551,95.349 55.73,95.146 54.699,95.04 l -0.933,-0.207 c -1.133,-0.308 -2.27,-1.031 -3.301,-1.652 z"
         style="fill:#bd2633;fill-opacity:0.97647101;fill-rule:evenodd;stroke:none"
         id="path72"
         inkscape:connector-curvature="0" /><path
         d="m 53.047,103.193 c -0.414,0 -0.723,-0.102 -1.238,-0.102 -0.621,-0.207 -1.137,-0.516 -1.754,-0.723 -1.137,-0.621 -2.375,-1.031 -3.407,-1.859 -0.722,-0.309 -1.449,-1.031 -2.171,-1.445 -0.516,-0.617 -1.129,-1.031 -1.645,-1.551 h 1.441 c 0.204,0.105 0.309,0.312 0.411,0.52 l 2.168,1.445 c 0.621,0.515 1.55,0.93 2.171,1.344 0.516,0.207 1.133,0.41 1.754,0.722 0.203,0 0.516,0 0.719,-0.207 0.41,-0.621 1.137,-1.137 1.961,-0.929 0.516,0.101 1.137,0.308 1.445,0.621 0.207,0.203 0.618,0.515 0.828,0.718 0.102,0 0.618,-0.41 0.821,-0.41 0.621,0 0.933,-0.105 1.551,0.207 0.414,0.203 0.726,0.309 1.031,0.719 0.211,0 0.621,-0.41 0.828,-0.516 0.516,-0.41 1.652,-0.41 2.168,-0.515 0,-0.203 -1.031,0 -1.238,0 -1.547,0.312 -3.2,0 -4.856,-0.41 C 54.699,100.408 53.25,100.2 51.906,99.685 50.98,99.372 50.055,98.857 49.023,98.341 48.402,98.24 47.887,97.825 47.367,97.513 h 1.86 c 0.617,0.312 1.445,0.727 2.269,0.934 0.313,0.41 0.93,0.617 1.238,0.925 1.86,0.621 3.817,0.621 5.578,1.036 0.516,0 0.821,0.101 1.336,0.101 1.45,0 2.79,-0.101 4.028,-0.516 0.515,-0.105 1.031,-0.308 1.648,-0.621 0.727,-0.308 1.449,-0.718 2.274,-1.031 0.519,-0.101 1.035,-0.516 1.34,-0.828 h 1.757 c -0.308,0.105 -0.515,0.312 -0.726,0.52 -1.133,0.414 -2.164,1.031 -3.196,1.652 -0.621,0.308 -1.238,0.515 -1.859,0.723 -0.207,0 -0.207,0.101 -0.207,0.308 0.313,0.106 0.617,0.106 0.828,0.313 0.305,0.203 0.617,0.515 0.82,0.718 0.934,-0.41 1.762,-0.925 2.583,-1.339 1.136,-0.415 2.273,-1.036 3.304,-1.754 0.414,-0.313 0.93,-0.621 1.446,-1.141 h 0.925 c -0.207,0.312 -0.722,0.727 -1.133,1.141 -0.515,0.203 -0.929,0.718 -1.449,1.031 -0.613,0.203 -0.926,0.515 -1.644,0.824 -0.828,0.52 -1.551,1.035 -2.481,1.344 -0.308,0.207 -0.41,0.207 -0.722,0.41 -0.723,0.312 -1.133,0.621 -1.86,0.828 -0.304,0 -0.82,-0.207 -1.133,0 v 0.102 H 63.57 c 0,-0.414 0.106,-1.133 0.313,-1.649 0.203,0 0.308,-0.207 0.515,-0.207 0.106,0.207 0.106,0.207 0.309,0.207 -0.203,0.309 -0.309,0.719 -0.309,0.824 0,0.207 0,0.207 0.106,0.207 0.41,0 0.516,-0.207 0.82,-0.207 v -0.621 c 0,-0.203 -0.304,-0.203 -0.41,-0.41 -0.207,-0.105 -0.207,-0.105 -0.516,-0.105 -0.515,0 -1.031,0.515 -1.343,1.031 l -0.309,0.93 h -1.855 c 0.207,-0.102 0.41,-0.309 0.515,-0.414 0.207,-0.204 0.723,-0.926 0.207,-0.719 -0.722,0.203 -1.449,0.824 -1.859,1.133 h -0.621 c -0.516,-0.414 -1.336,-0.93 -1.754,-1.133 -0.516,-0.207 0,0.515 0.312,0.824 0,0.207 0.106,0.207 0.106,0.309 h -1.965 c -0.102,0 -0.102,0 -0.102,-0.102 -0.21,-0.723 -0.621,-1.547 -1.449,-1.754 -0.308,0 -0.824,-0.105 -1.234,0 -0.313,0.207 -0.313,0.723 -0.313,1.031 0.207,0.411 0.516,0.411 0.828,0.516 0.204,0 0.411,0 0.516,-0.105 0,-0.516 -1.031,-0.516 -0.516,-1.032 0.516,0 0.825,0.313 1.137,0.621 0.203,0.411 0.41,0.516 0.41,0.825 z"
         style="fill:#bd2633;fill-opacity:0.97647101;fill-rule:evenodd;stroke:none"
         id="path74"
         inkscape:connector-curvature="0" /><path
         d="m 55.109,103.193 c 0.106,0.515 0.106,1.136 -0.207,1.652 0.207,0.203 1.133,-0.207 1.133,-0.516 0,-0.312 0,-0.621 0.313,-0.828 0.203,0 0.414,0.207 0.515,0 0,-0.203 -0.101,-0.203 -0.101,-0.308 h 1.035 c 0.305,0.515 0.515,0.929 0.515,2.168 0,1.754 -0.933,2.062 -1.449,2.062 -0.515,0 -0.828,0 -0.617,0.106 0.102,0.414 0.926,0.414 1.445,0.207 0.621,-0.207 1.75,-1.137 1.75,-1.137 0,0 1.141,0.93 1.657,1.137 0.613,0.207 1.648,0.207 1.754,0 0.203,-0.207 -0.106,-0.207 -0.414,-0.207 -0.516,0 -1.856,-0.414 -1.961,-2.168 0,-1.032 0.308,-1.653 0.414,-2.168 h 1.855 v 0.105 c -0.207,0.203 -0.516,0 -0.824,0.203 -0.211,0 -0.516,0 -0.516,0.414 0,0.102 -0.105,0.207 0,0.414 h 0.207 c 0.098,0.204 0.309,0.204 0.516,0.204 0.101,0 0.309,-0.516 0.617,-0.411 0.309,-0.105 0.516,0.516 0.824,0.723 0.516,0.516 0.621,0.309 0.934,0.516 h 0.203 c -0.621,-0.516 -1.137,-0.828 -1.34,-1.446 0,-0.207 0,-0.414 0.203,-0.722 h 0.621 c 0,0.515 0.313,0.824 0.313,1.136 0.41,0.719 1.133,0.309 1.648,0.719 0.203,0 0.203,0.313 0,0.52 -0.101,0.308 -0.617,0.621 -1.132,0.621 -0.829,-0.106 -1.45,-0.516 -2.168,-1.141 -0.313,-0.203 -0.723,0.106 -1.141,0.313 -0.305,0 -0.41,0.312 -0.41,0.722 0,0.309 0.312,0.516 0.621,0.825 0.516,0.312 1.133,0.207 1.754,0 0.207,0 0.41,0.312 0.515,0.515 0,0.106 -0.105,0.52 -0.105,0.621 -0.41,0.207 -0.516,0.309 -0.824,0.309 -1.032,0.207 -1.961,0.207 -2.785,-0.309 -0.313,-0.101 -0.723,-0.621 -1.036,-0.621 -0.41,0.313 -0.925,0.52 -1.441,0.828 l -0.828,0.309 c -0.824,0 -1.442,-0.309 -1.75,-1.031 -0.207,-0.309 -0.313,-0.825 0,-1.137 0.098,-0.203 0.308,-0.203 0.41,-0.203 0.203,0 0.414,0.41 0.516,0.515 0,0.204 0.203,0.204 0.414,0 0.308,0 0.617,-0.105 0.617,-0.515 0.105,-0.313 -0.207,-0.621 -0.309,-0.828 -0.207,-0.207 -0.722,-0.207 -0.824,-0.207 -1.031,0.519 -1.965,1.445 -3.199,0.929 -0.414,-0.207 -0.93,-0.722 -0.93,-1.445 0.207,-0.309 0.617,0.207 0.824,0 0.621,0.207 1.137,0 1.446,-0.309 0.207,-0.312 0,-0.621 -0.309,-0.828 -0.312,-0.203 -0.621,-0.203 -1.031,-0.308 z m 0.926,0 c 0,0 -0.203,0.105 -0.305,0 z m 3.098,0 c 0.211,0.308 0.308,0.515 0.308,0.515 0,0 0.207,-0.207 0.313,-0.515 z m -2.582,1.136 c 0.312,0.309 0.621,0.719 0.933,0.516 v -0.828 c -0.312,-0.102 -0.621,0 -0.722,0 -0.211,0.105 -0.211,0.312 -0.211,0.312 z"
         style="fill:#bd2633;fill-opacity:0.97647101;fill-rule:evenodd;stroke:none"
         id="path76"
         inkscape:connector-curvature="0" /><path
         d="M 28.277,78.939 V 78.63 c 0.203,-0.617 0.203,-1.34 0.203,-2.062 l 0.106,-0.106 c 0.207,-0.719 0.207,-1.34 0.312,-1.957 0.204,-1.035 0.614,-2.066 1.032,-3.203 0.515,-1.238 0.82,-2.477 1.336,-3.715 0.312,-0.617 0.418,-1.551 0.933,-2.164 0.617,-1.242 1.649,-2.273 2.27,-3.613 1.031,-1.031 2.062,-2.27 3.097,-3.305 1.442,-1.445 3.094,-2.578 4.746,-3.406 1.34,-1.031 2.887,-1.652 4.434,-2.371 0.934,-0.313 1.762,-0.625 2.793,-1.035 0.723,-0.106 1.441,-0.621 2.367,-0.621 0.52,0 1.035,-0.305 1.656,-0.305 2.27,-0.414 4.54,-0.414 6.915,-0.211 1.136,0.211 2.269,0.211 3.406,0.312 1.957,0.415 3.715,0.825 5.57,1.547 0.934,0.621 2.168,1.032 3.098,1.239 1.652,1.031 3.406,1.757 4.851,3.093 0.825,0.516 1.551,1.243 2.371,1.758 0.727,1.238 1.965,2.274 2.891,3.305 0,0.308 0.207,0.41 0.313,0.824 0.621,0.824 1.339,1.754 2.062,2.582 0.207,0.723 0.723,1.238 0.828,2.063 0.203,0.515 1.442,3.507 1.649,4.433 0.414,1.449 0.824,2.582 0.824,3.926 0.207,1.137 0.312,2.168 0.312,3.301 h -0.929 c -0.207,-0.824 -0.207,-1.856 -0.207,-2.68 -0.102,-0.105 0,-0.516 -0.102,-0.828 0,-0.828 -0.105,-1.445 -0.516,-2.27 -0.515,-1.859 -1.136,-3.718 -1.753,-5.574 L 83.598,65.111 C 82.977,64.079 82.254,62.943 81.32,61.908 L 80.289,60.876 C 79.879,59.95 78.742,59.329 78.02,58.505 77.094,57.575 76.16,57.263 75.129,56.443 73.996,55.411 72.656,55.099 71.418,54.275 70.902,53.861 70.18,53.654 69.762,53.447 69.246,53.243 68.836,52.829 68.32,52.829 66.977,52.415 65.535,52.208 64.086,52.103 63.262,51.9 62.438,51.587 61.613,51.587 c -0.722,-0.203 -1.449,-0.203 -2.172,-0.203 -0.41,0 -1.129,-0.101 -1.644,0 -0.625,0.203 -1.246,0 -1.762,0 -1.336,0 -2.578,0 -3.609,0.516 -0.93,0.203 -1.754,0.515 -2.789,0.722 -1.129,0.414 -2.371,0.825 -3.407,1.239 -1.546,0.519 -2.882,1.238 -4.226,2.371 -0.621,0.515 -1.652,1.031 -2.375,1.758 -0.828,0.515 -2.063,1.339 -2.688,2.582 -0.41,0.304 -0.82,0.82 -0.925,1.336 -0.204,0.21 -0.516,0.21 -0.516,0.312 -0.723,1.031 -1.344,1.859 -1.754,2.891 -0.414,0.105 -0.414,0.515 -0.516,0.828 -0.722,1.129 -1.449,2.164 -1.652,3.402 -0.312,0.723 -0.516,1.445 -0.828,2.067 -0.203,0.722 -0.305,1.339 -0.516,2.269 0,0.102 -0.304,0.516 -0.304,0.617 -0.418,1.344 -0.418,2.789 -0.621,4.129 v 0.516 z"
         style="fill:#bd2633;fill-opacity:0.97647101;fill-rule:evenodd;stroke:none"
         id="path78"
         inkscape:connector-curvature="0" /><path
         d="m 29.309,78.939 c -0.207,0.414 -0.207,0.929 -0.207,1.242 -0.204,0.82 0,1.754 0.207,2.473 0,1.343 0.41,2.375 0.621,3.507 0.304,1.137 0.515,2.274 1.031,3.512 0,0.313 0.305,0.723 0.41,1.133 0.41,1.031 0.828,2.375 1.445,3.406 0.414,0.934 1.137,1.86 1.547,2.996 0.211,0.617 0.934,1.239 1.449,2.164 0.516,0.516 0.926,1.137 1.547,1.45 0.411,0.41 0.723,0.515 1.032,0.925 1.132,0.621 1.961,1.754 3.195,2.27 0.418,0.312 0.726,0.828 1.344,1.031 0.722,0.52 1.547,0.828 2.269,1.141 1.242,0.515 2.168,1.34 3.512,1.547 0.828,0.308 1.754,0.515 2.785,0.617 0.41,0.207 1.137,0.207 1.754,0.414 0.828,0.101 1.652,0.207 2.48,0.41 1.34,0.207 2.372,0.207 3.711,0.207 1.036,0 1.86,0 2.688,-0.207 l 1.547,-0.203 c 0.515,0 1.031,-0.106 1.551,-0.106 1.546,-0.101 2.89,-0.617 4.332,-1.132 0.621,-0.516 1.546,-0.828 2.375,-1.137 1.546,-0.723 3.093,-1.754 4.539,-3.098 0.515,-0.41 1.136,-0.926 1.754,-1.441 1.339,-1.344 2.48,-2.582 3.609,-3.719 0.519,-0.723 0.828,-1.133 1.141,-1.754 0.621,-0.926 1.546,-1.957 1.855,-2.89 0.93,-1.754 1.551,-3.711 2.066,-5.571 1.032,-2.48 1.032,-5.367 1.032,-8.156 0,-0.305 -0.207,-0.617 -0.207,-1.031 h 0.929 v 0.726 c 0,0.926 0.203,1.754 0,2.785 0,0.723 0,1.547 -0.105,2.165 -0.41,2.48 -0.824,5.058 -1.754,7.222 -0.207,0.516 -0.41,0.934 -0.723,1.551 -0.203,0.414 -0.515,0.93 -0.718,1.242 l -0.106,0.203 c -1.133,1.754 -1.961,3.508 -3.41,5.055 -1.547,1.449 -2.883,3.305 -4.848,4.441 -1.238,1.032 -2.375,1.86 -3.613,2.786 -0.824,0.308 -1.441,0.621 -2.164,0.929 -0.621,0.309 -1.449,0.723 -2.063,0.93 -1.343,0.617 -2.793,0.617 -3.921,1.031 -0.829,0 -1.86,0 -2.688,0.203 -1.238,0 -2.578,0.207 -3.922,0.207 -0.926,0.106 -1.855,0 -2.887,-0.41 -0.621,0 -1.136,-0.105 -1.757,-0.105 -1.032,0 -1.856,-0.309 -2.68,-0.516 -0.313,0 -0.621,-0.41 -1.031,-0.41 -0.723,-0.207 -1.551,-0.414 -2.375,-0.621 -0.621,0 -1.141,-0.41 -1.657,-0.617 -0.515,-0.516 -1.128,-0.313 -1.546,-0.828 -1.754,-0.719 -2.993,-2.063 -4.848,-2.786 -1.238,-1.031 -2.895,-2.062 -3.82,-3.613 -0.516,-0.309 -0.926,-1.031 -1.442,-1.445 -0.418,-0.617 -0.621,-1.239 -0.828,-1.649 -0.414,-0.828 -1.031,-1.547 -1.445,-2.269 -0.102,-0.313 -0.102,-0.621 -0.52,-0.828 -0.097,-0.621 -0.41,-1.34 -0.719,-1.754 -0.101,-0.621 -0.515,-0.93 -0.515,-1.34 -0.313,-0.723 -0.617,-1.344 -0.828,-2.274 -0.305,-0.308 -0.305,-0.824 -0.41,-1.445 -0.411,-1.344 -0.829,-2.68 -0.829,-4.23 -0.308,-1.137 0,-2.274 -0.203,-3.407 -0.105,-0.414 0,-0.722 0,-0.929 z"
         style="fill:#bd2633;fill-opacity:0.97647101;fill-rule:evenodd;stroke:none"
         id="path80"
         inkscape:connector-curvature="0" /><path
         d="m 64.914,81.829 c 0,-0.207 -0.207,-0.207 -0.207,-0.515 0,-0.207 0.207,-0.313 0,-0.313 -0.516,-0.203 -0.309,0.418 -0.621,0.313 l -0.719,-0.207 c 0,-0.621 0,-1.442 -0.105,-2.168 0.105,-0.309 0.414,-0.102 0.414,-0.516 0,-0.101 0,-0.308 -0.106,-0.308 h -0.515 c -0.309,0 -0.617,-0.102 -0.926,0 -0.207,0.207 -0.207,0.308 -0.207,0.515 0.207,0.207 0.516,0.207 0.516,0.309 0,0.726 0.101,1.547 0,2.168 -0.208,0.207 -0.516,0.207 -0.727,0.207 -0.098,-0.207 0,-0.723 -0.305,-0.516 l -0.105,0.203 v 0.828 c 0.929,0 2.066,-0.207 3.097,0 z"
         style="fill:#bd2633;fill-opacity:0.97647101;fill-rule:evenodd;stroke:none"
         id="path82"
         inkscape:connector-curvature="0" /><path
         d="m 74.203,81.622 c 0,-0.308 0.203,-0.621 0,-0.824 -0.207,-0.207 -0.312,0 -0.515,0 0,0 0.203,0.309 0,0.309 0,0.207 -0.208,0.312 -0.516,0.312 l -0.516,-0.312 c 0,-0.824 1.34,-0.621 1.75,-1.239 0.207,-0.515 0.106,-0.929 -0.203,-1.445 -0.515,-0.308 -1.344,-0.308 -1.859,-0.101 -0.313,0.101 -0.617,-0.309 -0.723,0 l 0.106,0.515 c 0.207,0.309 0.207,0.516 0.515,0.617 0.102,-0.515 0.309,-0.824 0.723,-0.824 0.515,0 0.723,0.207 0.723,0.309 0.203,0 0,0.207 0,0.414 -0.313,0.515 -1.446,0.515 -1.754,0.93 0,0.515 0,1.031 0.308,1.339 0.414,0.313 1.446,0.516 1.961,0.207 z"
         style="fill:#bd2633;fill-opacity:0.97647101;fill-rule:evenodd;stroke:none"
         id="path84"
         inkscape:connector-curvature="0" /><path
         d="m 49.539,81.622 v -0.824 c 0,-0.207 -0.211,-0.207 -0.312,-0.207 -0.309,0.207 -0.204,0.516 -0.309,0.516 -0.41,0 -0.516,0 -0.723,-0.106 -0.203,0 -0.203,-0.41 -0.203,-0.515 0.203,-0.203 0.516,-0.203 0.719,-0.203 0.207,-0.102 0.207,-0.102 0.207,-0.415 -0.207,-0.414 -0.516,0 -0.723,0 -0.203,-0.414 -0.203,-0.929 0,-1.238 0.313,0 0.828,0.207 1.032,0.309 0.101,0.207 0.312,0.414 0.41,0.515 0.207,0 0.207,-0.101 0.418,-0.308 -0.211,-0.207 -0.211,-0.723 -0.516,-0.824 -0.828,-0.309 -1.859,0 -2.793,-0.207 -0.098,0 -0.098,0.207 0,0.308 0.621,0.723 0.313,1.86 0.313,2.684 0,0.207 -0.313,0.312 -0.207,0.722 h 2.066 c 0.105,0 0.41,0 0.621,-0.207 z"
         style="fill:#bd2633;fill-opacity:0.97647101;fill-rule:evenodd;stroke:none"
         id="path86"
         inkscape:connector-curvature="0" /><path
         d="m 59.344,81.622 v -0.308 c -0.211,-0.207 -0.313,-0.207 -0.516,-0.313 0.203,-0.718 0,-1.336 0,-2.062 0.203,-0.102 0.516,0 0.516,-0.309 0,-0.207 0,-0.308 -0.211,-0.515 -0.305,-0.102 -0.821,0.207 -1.133,0 -0.309,0 -0.516,0 -0.828,0.207 v 0.308 c 0.207,0.309 0.519,0.207 0.519,0.309 0.309,0.726 0.106,1.547 0.106,2.168 0,0.207 -0.313,0 -0.418,0.207 -0.207,0.105 -0.309,0.515 -0.207,0.515 h 1.961 c 0.211,0 0.211,-0.207 0.211,-0.207 z"
         style="fill:#bd2633;fill-opacity:0.97647101;fill-rule:evenodd;stroke:none"
         id="path88"
         inkscape:connector-curvature="0" /><path
         d="m 43.137,81.622 c 0,-0.203 -0.207,-0.203 -0.207,-0.203 -0.098,0 -0.098,0 -0.309,-0.105 0.211,-0.313 0.211,-1.031 0.516,-1.344 0.211,0 0.308,0.211 0.308,0.313 l 1.032,1.136 c -0.516,0.203 -0.204,0.516 -0.204,0.516 h 1.137 c 0,-0.106 0.305,0 0.305,-0.313 0,-0.203 -0.305,-0.203 -0.516,-0.308 -0.617,-0.828 -1.238,-1.961 -1.754,-2.992 -0.097,0.101 -0.515,0 -0.515,0.101 v 0.414 l -1.133,2.477 h -0.211 c -0.203,0.105 -0.203,0.105 0,0.308 0.105,0.313 0.211,0.207 0.621,0.313 0.207,-0.106 0.723,0 0.93,-0.313 z"
         style="fill:#bd2633;fill-opacity:0.97647101;fill-rule:evenodd;stroke:none"
         id="path90"
         inkscape:connector-curvature="0" /><path
         d="m 69.969,78.939 c -0.516,0.929 -1.133,1.652 -1.547,2.683 0,0.207 -0.102,0.313 -0.305,0.313 -0.211,0 -0.519,-0.106 -0.519,-0.313 -0.102,-1.031 -0.825,-1.754 -1.243,-2.785 -0.203,0 -0.304,-0.414 -0.718,-0.414 0,-0.101 0,-0.101 0.203,-0.101 h 1.449 c 0,0 0.207,0 0.207,0.101 0,0 -0.207,0 -0.207,0.207 v 0.207 c 0.207,0.516 0.617,0.309 1.031,0.309 0.102,-0.207 0.618,0 0.618,-0.309 0,-0.207 -0.102,-0.207 -0.305,-0.207 0,0 -0.211,-0.207 -0.211,-0.308 h 1.758 c 0.207,0 -0.106,0.515 -0.211,0.617 z m -1.547,0.726 c -0.102,-0.211 -0.617,-0.211 -0.926,-0.211 -0.207,0.211 0.309,0.829 0.102,1.032 0.207,0.105 0.207,0.312 0.308,0.515 0.211,0 0.211,-0.41 0.211,-0.515 0.203,-0.203 0.305,-0.618 0.305,-0.821 z"
         style="fill:#bd2633;fill-opacity:0.97647101;fill-rule:evenodd;stroke:none"
         id="path92"
         inkscape:connector-curvature="0" /><path
         d="m 70.18,96.072 c 0,0.312 -0.106,0.312 -0.418,0.312 -0.516,-0.207 -0.824,-0.312 -1.129,-0.828 -0.516,-0.41 -1.035,-0.926 -1.656,-1.031 -0.204,-0.207 -0.309,-0.207 -0.622,-0.207 v -0.106 c 0.313,-0.203 0.418,-0.41 0.622,-0.41 0.312,-0.105 0.312,-0.414 0.621,-0.309 0,0.204 -0.102,0.309 0,0.516 0.722,0.203 0.824,-0.207 1.34,-0.516 v -0.105 c -0.102,-0.207 -0.516,-0.207 -0.618,0 v -0.207 c 0,-0.41 0.516,-0.617 0.618,-0.828 0.21,-0.203 0.621,-0.516 0.824,-0.516 0.207,0 0.312,0 0.207,0.106 -0.207,0.621 -0.41,0.207 0,0.722 0,0.106 0.211,2.481 0.211,2.684 z m -1.032,-1.754 c 0,-0.309 -0.726,0.207 -0.828,0.312 l 0.516,0.516 c 0.312,0.203 0.312,0.41 0.41,0.41 h 0.207 c 0,-0.41 -0.207,-0.926 -0.305,-1.238 z"
         style="fill:#bd2633;fill-opacity:0.97647101;fill-rule:evenodd;stroke:none"
         id="path94"
         inkscape:connector-curvature="0" /><path
         d="m 61.301,99.478 c 0,-0.309 0,-0.621 -0.203,-1.031 0,-0.106 0,-0.106 -0.207,-0.106 -0.106,0 -0.309,0 -0.309,0.723 -0.312,0.414 -0.828,0.308 -0.828,-0.207 0,-1.239 -0.106,-1.344 -0.106,-2.164 0.106,-0.106 0.106,-0.309 0.516,-0.516 0,-0.105 0,-0.309 -0.203,-0.309 -0.313,0 -0.52,0.204 -0.828,0.204 -0.305,0 -0.821,-0.204 -1.133,0 v 0.312 c 0.828,0.516 0.617,1.441 0.617,2.27 0,0 0,0.203 -0.101,0.203 -0.719,0.312 -0.516,-0.203 -0.825,-0.203 0,-0.207 -0.207,-0.207 -0.207,0 -0.312,0.203 -0.105,0.41 -0.105,0.718 0,0 0,0.313 0.105,0.313 1.032,0.203 1.86,0 2.68,0 0.313,0 0.934,0.203 1.137,-0.207 z"
         style="fill:#bd2633;fill-opacity:0.97647101;fill-rule:evenodd;stroke:none"
         id="path96"
         inkscape:connector-curvature="0" /><path
         d="m 65.535,98.447 c 0.102,0 0.516,-0.106 0.516,-0.207 0,-0.415 -0.516,-0.207 -0.727,-0.622 -0.304,-0.718 -1.133,-1.546 -0.41,-2.472 0,-0.106 0,-0.106 -0.207,-0.106 -0.309,0 -0.824,0.309 -1.137,0.516 -0.308,0.105 -0.718,0 -0.824,0.312 0,0.309 0.516,0.309 0.621,0.516 0.516,0.203 0.516,0.824 0.719,1.129 0.105,0.312 0.312,0.727 0.312,0.934 -0.207,0.207 -0.515,0.207 -0.312,0.617 0.105,0.105 0.312,0 0.621,0 0.207,-0.207 0.617,-0.41 0.828,-0.617 z"
         style="fill:#bd2633;fill-opacity:0.97647101;fill-rule:evenodd;stroke:none"
         id="path98"
         inkscape:connector-curvature="0" /><path
         d="m 74.613,91.634 c 0.414,-0.312 0.621,-0.828 0.828,-1.238 0,-0.207 0.204,-0.41 0.204,-0.723 -0.204,-0.207 -0.516,-0.207 -0.618,-0.207 -0.203,0 -0.203,0.207 0,0.414 0.102,0.516 -0.203,0.828 -0.621,0.828 0,-0.207 -0.515,-0.207 -0.515,-0.519 0.105,-0.203 0.312,-0.309 0.312,-0.516 0,-0.207 -0.207,-0.308 -0.312,-0.515 h -0.203 c -0.208,0.308 -0.516,0.515 -0.516,0.828 h -0.207 c -0.106,-0.106 -0.414,-0.313 -0.309,-0.621 0.203,-0.207 0.203,-0.516 0.516,-0.93 0.203,0 0.308,0.207 0.516,0.207 0.203,-0.207 0.515,0 0.718,-0.207 0,-0.309 -0.203,-0.309 -0.41,-0.309 -0.308,-0.207 -0.824,-0.312 -1.137,-0.207 -0.515,0.414 -0.515,0.93 -0.828,1.239 v 0.207 c -0.304,0.308 -0.41,0.621 -0.82,0.824 -0.106,0 -0.106,0.207 -0.106,0.207 0.106,0.312 0.516,0 0.829,0.105 0.41,0.207 1.031,0.516 1.546,0.821 0.208,0 0.411,0.211 0.516,0.312 0,0.309 -0.105,0.516 0,0.719 0,0 0.207,0.211 0.207,0 0.309,-0.203 0.309,-0.516 0.41,-0.719 z"
         style="fill:#bd2633;fill-opacity:0.97647101;fill-rule:evenodd;stroke:none"
         id="path100"
         inkscape:connector-curvature="0" /><path
         d="m 42.832,90.501 c 0,-0.312 -0.52,-0.515 -0.625,-0.828 -0.203,-0.207 -0.203,-0.824 0,-1.238 0.105,-0.309 0.414,-0.621 0.723,-0.621 h 0.722 c 0.211,0.105 0.309,0.312 0.309,0.519 -0.098,0.617 -0.613,0 -0.824,0.309 0,0.308 0.211,0.824 0.515,1.031 0.309,0 0.621,-0.207 0.93,-0.308 0,-0.207 0.313,-0.207 0.313,-0.415 v -0.101 c -0.211,-0.516 -0.211,-1.035 -0.313,-1.344 -0.309,-0.515 -0.621,-0.515 -1.137,-0.722 -0.308,-0.106 -0.613,-0.309 -1.031,-0.106 -0.207,0.313 -0.828,0.418 -1.031,1.137 -0.516,0.828 0,2.172 0.414,2.894 0.207,0 0.824,0.309 1.035,-0.207 z"
         style="fill:#bd2633;fill-opacity:0.97647101;fill-rule:evenodd;stroke:none"
         id="path102"
         inkscape:connector-curvature="0" /><path
         d="m 49.227,67.587 c 0,0.207 -0.204,0.414 -0.309,0.414 -0.723,-0.414 -1.445,-0.933 -2.066,-1.031 -0.204,-0.207 -0.622,-0.418 -0.926,-0.418 -0.211,-0.098 -0.516,0 -0.824,0 v -0.098 c 0.308,-0.418 0.824,-0.828 1.128,-1.343 0.211,0.105 0.211,0.515 0.418,0.621 0.098,0.207 0.204,0 0.411,-0.106 0.414,-0.203 0.828,-0.515 0.828,-1.031 h -0.414 c 0,-0.207 -0.106,-0.207 0,-0.414 l 0.722,-0.207 c 0.313,-0.207 0.516,-0.516 0.828,-0.723 v 0.414 c -0.621,1.239 0.516,2.582 0.204,3.922 z m -1.235,-1.961 c -0.312,0 -0.625,0.313 -0.726,0.41 v 0.418 c 0.207,0.098 0.726,0.614 1.136,0.614 0,-0.305 -0.41,-1.129 -0.41,-1.442 z"
         style="fill:#bd2633;fill-opacity:0.97647101;fill-rule:evenodd;stroke:none"
         id="path104"
         inkscape:connector-curvature="0" /><path
         d="m 72.031,66.552 c -0.41,0.211 -0.097,0 -0.82,0.211 -0.309,0 -1.652,0.516 -1.965,0.723 -0.308,0.101 -0.613,0.308 -0.824,0.101 -0.102,-0.519 0,-0.824 0,-1.133 0.211,-0.722 0.516,-1.656 0.414,-2.066 -0.414,-0.207 -0.516,-0.414 -0.414,-0.621 0.414,-0.102 0.414,0 0.516,0.207 0.308,0.105 0.621,0.207 1.031,0.621 -0.207,0.309 -0.41,0.203 -0.516,0.309 0,0.207 0.309,0.312 0.516,0.519 0.211,0.203 0.418,0.516 0.621,0.516 0.515,-0.207 0,-0.313 0.105,-0.516 v -0.207 l 1.547,1.238 c 0,0 0,0.098 -0.211,0.098 z m -2.785,-0.926 c -0.098,0.106 -0.308,0.926 -0.308,1.137 0,0.207 0.308,0 0.308,-0.211 l 0.723,-0.098 0.105,-0.207 c -0.105,-0.308 -0.515,-0.824 -0.828,-0.621 z"
         style="fill:#bd2633;fill-opacity:0.97647101;fill-rule:evenodd;stroke:none"
         id="path106"
         inkscape:connector-curvature="0" /><path
         d="m 45.102,72.228 v -0.305 c -0.207,-0.515 -0.52,-1.652 -0.52,-2.273 0,-0.207 0.313,0.105 0.52,0.308 0.308,0.106 0.613,0.52 1.031,0.625 0.097,-0.105 0.308,-0.105 0.308,-0.519 0.207,-0.106 0.411,-0.309 0.305,-0.621 -0.098,-0.309 -0.305,0.207 -0.516,0.207 -0.613,-0.207 -1.031,-0.516 -1.546,-0.825 -0.207,-0.414 -0.516,-0.414 -0.821,-0.722 -0.211,0 -0.418,0 -0.418,0.207 0,0.824 0.516,1.648 0.418,2.476 0,0.106 -0.933,-0.515 -1.031,-0.722 -0.418,-0.106 -0.211,-0.106 -0.418,-0.621 -0.102,-0.102 -0.102,0 -0.207,0.207 -0.203,0.105 -0.203,0.414 -0.41,0.621 0,0.207 -0.106,0.207 -0.106,0.312 0.516,0 0.621,0 0.93,0.203 0.516,0.313 1.856,1.344 1.856,1.344 0,0.098 -0.204,0.309 0,0.516 h 0.207 c 0.211,-0.207 0.418,-0.207 0.418,-0.418 z"
         style="fill:#bd2633;fill-opacity:0.97647101;fill-rule:evenodd;stroke:none"
         id="path108"
         inkscape:connector-curvature="0" /><path
         d="m 73.48,71.712 c 0,0 0.208,-0.097 0,-0.304 -0.308,-0.106 -0.824,-0.106 -1.136,-0.309 -0.102,-0.207 -0.313,-0.313 -0.313,-0.516 0,-0.312 0.313,-0.519 0.625,-0.519 0.309,0.207 -0.105,0.722 0.309,0.722 0.41,0 0.515,-0.203 0.723,-0.308 v -0.414 c -0.208,0 -0.313,0.207 -0.516,-0.106 0,-0.203 0,-0.308 0.203,-0.515 0.105,-0.102 0.313,-0.102 0.516,-0.102 0.312,0.102 0.312,0.309 0.515,0.414 0.106,0.309 -0.203,0.723 -0.41,0.828 0,0.203 0,0.309 0.207,0.309 0.41,0 0.824,-0.414 1.031,-0.621 v -0.313 c -0.621,-0.824 -1.031,-1.547 -1.859,-2.164 l -0.203,-0.207 c -0.313,0.207 0.203,0.516 0,0.723 -0.207,0.515 -0.93,1.133 -1.551,1.445 -0.41,0 -0.41,-0.105 -0.516,-0.312 -0.203,-0.102 -0.41,-0.102 -0.515,-0.102 -0.203,0.102 -0.203,0.309 0,0.309 0,0.308 0.515,0.621 0.621,0.933 0.41,0.516 0.82,0.825 1.133,1.547 0.515,0.098 0.621,-0.207 1.136,-0.418 z"
         style="fill:#bd2633;fill-opacity:0.97647101;fill-rule:evenodd;stroke:none"
         id="path110"
         inkscape:connector-curvature="0" /><path
         d="m 52.117,65.939 c 0.93,-0.313 1.856,-0.723 2.785,-0.828 0,-0.207 0.207,-0.207 0.313,-0.313 0,-0.41 -0.313,-0.617 -0.313,-0.824 h -0.308 c -0.207,0.207 -0.207,0.824 -0.621,0.824 -0.411,-0.203 -0.516,-0.719 -0.723,-1.031 0,-0.309 -0.309,-0.617 -0.309,-1.133 0.106,-0.414 0.309,-0.414 0.516,-0.726 0,0 0,-0.098 -0.207,-0.098 -0.309,0 -0.516,0.098 -0.617,0.308 -0.516,0.102 -0.93,0 -1.445,0.309 v 0.207 c 0.308,0.102 0.515,0.102 0.621,0.102 0.308,0.515 0.515,1.238 0.617,1.652 0.207,0.207 0.308,0.41 0.308,0.723 -0.101,0.105 -0.308,0.105 -0.41,0.105 -0.418,-0.105 -0.515,-0.418 -0.828,-0.621 0,0 -0.203,0 -0.203,0.203 0,0.418 0.203,0.828 0.41,1.141 0.106,0.097 0.203,0 0.414,0 z"
         style="fill:#bd2633;fill-opacity:0.97647101;fill-rule:evenodd;stroke:none"
         id="path112"
         inkscape:connector-curvature="0" /><path
         d="m 59.441,64.388 c 0,-0.207 0,-0.207 0.207,-0.309 0,0 0.313,0 0.106,-0.105 0.207,-0.824 0.207,-1.547 -0.313,-2.066 -0.097,-0.305 -0.41,-0.305 -0.824,-0.098 -0.617,0.308 -0.101,0.926 -0.305,1.648 0,0.309 -0.21,0.621 0.204,0.723 0,0 0.101,0 0.101,0.207 0,0 0,0.207 -0.101,0.207 -0.414,0 -0.825,-0.207 -1.344,0 0,0 -0.102,0 -0.102,-0.207 -0.207,0 0,-0.207 0,-0.207 0.102,0 0.309,-0.102 0.309,-0.207 0.312,-0.824 -0.207,-1.856 0.312,-2.68 0.411,-0.418 1.34,-0.418 1.957,-0.418 1.137,0.727 0.516,2.067 0.934,3.098 0.203,0.105 0.309,0 0.516,0.105 v 0.309 c -0.516,0.207 -0.934,0.207 -1.344,0.207 -0.106,-0.207 -0.313,0 -0.313,-0.207 z"
         style="fill:#bd2633;fill-opacity:0.97647101;fill-rule:evenodd;stroke:none"
         id="path114"
         inkscape:connector-curvature="0" /><path
         d="m 67.496,63.767 h -0.519 c -0.204,0 -0.204,-0.102 -0.309,-0.309 0,-0.308 -0.313,-0.207 -0.516,-0.308 -0.101,0.101 -0.617,0.515 -0.617,0.617 0.305,0.312 0.516,0.828 0.102,1.344 -0.41,0.621 -1.446,0.515 -1.961,0.312 -0.414,-0.312 -0.93,-0.312 -1.446,-0.625 0,-0.203 0,-0.41 0.208,-0.41 0.101,-0.207 0.308,0 0.414,0 0.41,-0.207 0.41,-0.414 0.515,-0.621 0.203,-0.516 0.516,-1.031 0.516,-1.547 0,-0.312 -0.207,-0.41 0,-0.828 0.308,0.211 0.621,0.418 1.031,0.418 0.313,0.098 -0.41,0.824 -0.207,1.133 0,0 0,0.207 0.207,0.207 0.106,-0.207 0.926,-0.516 1.137,-0.723 0.617,0 1.133,0 1.445,0.824 0,0.207 0.102,0.414 0,0.516 z m -2.582,0.207 c -0.207,-0.207 -0.41,-0.309 -0.516,-0.207 -0.207,0 -0.722,1.031 -0.312,1.137 0.312,0.207 0.621,0 0.934,-0.309 0,-0.414 0,-0.516 -0.106,-0.621 z"
         style="fill:#bd2633;fill-opacity:0.97647101;fill-rule:evenodd;stroke:none"
         id="path116"
         inkscape:connector-curvature="0" /><path
         d="m 48.918,107.22 c 0,-0.516 0.309,-0.828 0.105,-1.137 -0.105,-0.207 -0.105,-0.207 -0.312,-0.207 h -0.203 c 0,0.207 -0.313,0.516 -0.516,0.516 -0.105,0 -0.933,-0.309 -1.14,-0.516 0,-0.203 0,-0.308 0.207,-0.515 0.621,-0.723 1.449,0 2.168,0 0.312,0 0.41,-0.207 0.617,-0.313 0.418,-0.515 0.621,-1.133 0.418,-1.75 -0.207,-0.519 -0.723,-1.238 -1.551,-1.238 -0.309,-0.207 -0.719,0.308 -0.824,0 0,-0.207 0,-0.313 -0.207,-0.313 -0.207,-0.203 -0.313,0 -0.313,0 -0.101,0.313 0,0.516 -0.101,0.828 0,0.309 -0.207,0.516 0.101,0.618 0.52,0 0.828,-0.414 1.344,-0.414 0.312,0.105 0.516,0.312 0.617,0.519 v 0.617 c -0.101,0.102 -0.305,0.102 -0.41,0.102 -0.516,0 -0.926,-0.516 -1.445,-0.309 -0.414,0 -0.825,0.207 -1.032,0.621 -0.308,0.309 -0.515,0.825 -0.308,1.344 0.097,0.516 0.515,0.926 0.926,1.031 0.207,0.204 0.621,0.204 0.933,0.204 0.41,0 0.203,0.621 0.719,0.515 z"
         style="fill:#bd2633;fill-opacity:0.97647101;fill-rule:evenodd;stroke:none"
         id="path118"
         inkscape:connector-curvature="0" /><path
         d="m 72.551,105.361 c 0.105,-0.207 0.308,-0.516 0.414,-0.516 0.207,0 0.515,0 0.515,-0.207 -0.105,-0.309 -0.515,-0.516 -0.824,-0.621 l -0.312,-0.309 c -0.102,0 -0.102,0 -0.102,0.207 -0.211,0.207 0.102,0.414 0,0.723 -0.211,0.207 -0.308,0.516 -0.621,0.516 -0.203,0 -0.203,-0.106 -0.41,-0.309 -0.309,-0.516 0.207,-0.828 0.41,-1.344 0.106,-0.308 0.313,-0.617 0.313,-0.926 0.097,-0.312 0,-0.828 -0.313,-1.238 -0.516,-0.308 -1.031,-0.308 -1.652,-0.105 -0.41,0.105 -0.723,0.105 -1.031,0.515 l -0.305,0.516 c -0.211,0.105 -0.516,0 -0.727,0.312 0,0 0,0.204 0.211,0.309 l 0.821,1.031 h 0.308 c 0.207,-0.207 0.207,-0.207 0.207,-0.414 0,-0.308 -0.305,-0.41 -0.305,-0.722 0,-0.411 0.411,-0.516 0.614,-0.926 h 0.625 c 0.308,0.207 0.308,0.515 0.308,0.722 0,0.516 -0.621,0.723 -0.726,1.34 0,0.207 -0.207,0.93 0.105,1.239 0.313,0.722 1.137,0.722 1.86,0.722 0.308,-0.203 0.41,-0.203 0.617,-0.515 z"
         style="fill:#bd2633;fill-opacity:0.97647101;fill-rule:evenodd;stroke:none"
         id="path120"
         inkscape:connector-curvature="0" /><path
         d="m 42.832,104.017 c 0.098,-0.516 -0.418,-0.719 0,-0.926 0.305,-0.723 1.129,-1.238 1.441,-1.754 0.204,-0.308 0.309,-0.621 0.411,-0.621 0.418,-0.207 0.726,0.313 0.933,-0.207 -0.207,-0.309 -0.722,-0.516 -0.933,-0.621 -0.207,-0.41 -0.516,-0.719 -0.723,-1.031 -0.098,0 -0.309,-0.203 -0.309,0 -0.304,0.312 0.211,0.828 0,1.136 -0.207,0.415 -0.304,0.516 -0.515,0.829 -0.516,0.722 -1.133,1.441 -1.754,1.753 -0.207,0.204 -0.516,-0.207 -0.723,0 0,0.309 0.207,0.309 0.41,0.516 0.516,0.207 0.934,0.617 1.344,0.926 0.207,0.105 0.418,0.105 0.418,0 z"
         style="fill:#bd2633;fill-opacity:0.97647101;fill-rule:evenodd;stroke:none"
         id="path122"
         inkscape:connector-curvature="0" /><path
         d="m 75.129,102.263 c 0.312,-0.41 0.312,-0.719 0.105,-1.031 0,-0.41 -0.207,-0.723 -0.621,-0.723 -0.41,0 -0.925,0 -1.133,0.313 0,0.41 0,0.722 0.208,1.031 0.308,0.207 0.515,0.41 0.718,0.515 0.207,0 0.418,0 0.723,-0.105 z"
         style="fill:#bd2633;fill-opacity:0.97647101;fill-rule:evenodd;stroke:none"
         id="path124"
         inkscape:connector-curvature="0" /><path
         d="m 39.008,100.509 c 0.211,0 0,-0.101 0,-0.309 -0.102,-0.207 -0.102,-0.312 -0.41,-0.207 0,0 -0.313,0.415 -0.313,0.207 -0.203,-0.207 -0.515,-0.722 -0.41,-0.828 0,-0.203 0.41,-0.308 0.516,-0.203 0.617,0 1.445,0.719 2.164,0.516 0.312,0 1.449,-0.207 1.449,-1.344 0,-0.308 0,-0.723 -0.207,-0.926 -0.211,-0.515 -0.621,-1.031 -1.242,-1.238 h -0.41 c -0.106,-0.105 0,-0.516 -0.309,-0.516 -0.313,-0.105 -0.414,0.411 -0.617,0.516 -0.211,0.41 -0.211,0.516 -0.211,0.926 l 0.211,0.105 c 0.617,0.207 0.41,-0.824 1.648,0 0.203,0.207 0.203,0.305 0.203,0.617 -0.203,0.208 0,0.622 -0.718,0.516 -0.829,-0.101 -1.344,-0.516 -1.961,-0.516 -0.516,-0.207 -0.825,0.208 -1.137,0.516 -0.207,0.516 -0.313,1.031 -0.207,1.547 0.312,0.105 0.828,1.344 1.035,1.141 0.516,-0.207 0.719,-0.207 0.926,-0.52 z"
         style="fill:#bd2633;fill-opacity:0.97647101;fill-rule:evenodd;stroke:none"
         id="path126"
         inkscape:connector-curvature="0" /><path
         d="m 35.605,97.103 c 0,-0.203 -0.105,-0.41 -0.105,-0.719 0.105,-0.516 0.516,-1.035 1.031,-1.035 0.828,-0.719 1.551,-1.137 2.375,-1.652 0.102,0 0.102,-0.204 0,-0.204 -0.308,-0.515 -0.824,-0.312 -1.34,-0.312 -0.828,0 -1.754,0 -2.582,-0.41 0.313,-0.106 0.516,-0.418 0.828,-0.418 0.309,-0.516 0.825,-0.719 1.235,-0.516 0.207,0 0.207,0.313 0.312,0.106 0.207,0 0.411,-0.106 0.207,-0.309 -0.312,-0.617 -0.519,-1.238 -0.929,-1.961 0,-0.207 -0.106,-0.207 -0.309,0 -0.207,0.207 0,0.313 0,0.723 0,0.41 -0.516,0.621 -0.828,0.926 -0.723,0.515 -1.344,0.828 -2.168,0.621 -0.305,0.207 -0.516,-0.309 -0.617,-0.106 -0.414,0.106 -0.207,0.313 0,0.516 0.101,0.418 0.515,0.828 1.031,1.035 0.723,0.105 1.754,0.414 2.785,0.414 0.106,0 0.207,0 0.207,0.207 -0.207,0.309 -0.617,0.621 -1.133,0.824 -0.105,0.207 -0.308,0.313 -0.621,0.313 -0.207,0 -0.41,-0.106 -0.515,-0.106 -0.106,0.106 -0.313,0.106 -0.313,0.309 0,0.207 0.207,0.207 0.207,0.312 0.211,0.516 0.211,1.239 0.727,1.547 0.207,0 0.41,0 0.515,-0.105 z"
         style="fill:#bd2633;fill-opacity:0.97647101;fill-rule:evenodd;stroke:none"
         id="path128"
         inkscape:connector-curvature="0" /><path
         d="m 32.199,88.642 c 0.102,-0.309 0.617,-0.207 0.516,-0.516 -0.207,-0.207 -0.723,0 -0.934,-0.207 -0.203,-0.105 -0.41,-0.414 -0.41,-0.824 0,-0.105 0.207,-0.418 0.313,-0.418 0.097,-0.203 0.617,-0.41 0.824,0 0,0.106 0,0.828 0.207,0.828 0.101,0.106 0.101,0 0.312,0 0.305,0 0.719,0 0.719,-0.207 -0.414,-0.308 -0.414,-0.621 -0.516,-1.031 0.516,0 1.133,-0.309 1.547,-0.309 0,0.309 0,0.825 0.207,1.34 0,0.516 -1.031,0.621 -0.828,1.137 0.207,0.207 0.313,0.207 0.418,0.207 0.41,-0.207 0.723,-0.207 1.031,-0.516 0.411,-0.515 0,-1.449 -0.105,-1.859 -0.41,-0.621 -0.41,-2.27 -0.516,-2.477 h -0.41 c -0.211,0.414 0,1.239 -0.828,1.239 -0.93,0 -1.547,0.312 -2.375,0.519 -0.41,0.098 -0.41,-0.723 -0.926,-0.519 -0.414,0.519 0.516,2.89 0.617,3.613 l 0.204,0.207 c 0.312,0 0.515,-0.207 0.933,-0.207 z"
         style="fill:#bd2633;fill-opacity:0.97647101;fill-rule:evenodd;stroke:none"
         id="path130"
         inkscape:connector-curvature="0" /><path
         d="m 30.445,81.107 c 0.821,-0.106 1.547,0 2.371,-0.106 0.414,0 1.032,0 1.137,0.313 0.203,0.105 0.203,0.308 0.41,0.308 0.106,0 0.211,0.207 0.211,0 l 0.203,-0.203 c -0.203,-0.621 -0.203,-1.238 0,-1.754 0,-0.312 0,-0.519 -0.203,-0.519 -0.418,-0.207 -0.621,0.722 -0.828,0.722 -0.93,0.102 -1.754,0.102 -2.48,0.102 -0.516,0 -0.821,-0.305 -1.235,-0.617 0,-0.207 -0.312,-0.207 -0.312,0.101 0,0.727 -0.207,1.032 -0.207,1.653 0.207,0.207 0.207,0.515 0.418,0.722 0.304,0 0.304,-0.515 0.515,-0.722 z"
         style="fill:#bd2633;fill-opacity:0.97647101;fill-rule:evenodd;stroke:none"
         id="path132"
         inkscape:connector-curvature="0" /><path
         d="m 34.574,76.978 c 0.203,0 0.41,0 0.516,-0.203 -0.106,-0.313 0,-0.516 0.207,-0.828 0,-0.622 0.719,-2.477 0.719,-2.684 0,-0.102 -0.204,-0.309 -0.204,-0.309 -0.722,0 -0.312,0.516 -1.035,0.309 -0.621,-0.102 -1.961,-0.516 -2.785,-0.516 0,-0.101 -0.211,-0.101 -0.211,-0.308 0,0 0,-0.309 -0.097,-0.309 -0.313,0 -0.313,0.098 -0.418,0.309 -0.204,0.722 -0.821,1.238 -0.719,1.855 0.203,0.211 0.414,0.211 0.414,0.211 0.305,0 0.305,-0.519 0.617,-0.519 0.414,0.207 0.93,0.207 1.449,0.207 0.516,0.312 1.75,0 1.547,0.617 -0.105,1.758 -0.726,1.344 -1.344,1.965 -0.203,0.308 0.313,0.203 0.313,0.308 0.41,0 0.82,-0.105 1.031,-0.105 z"
         style="fill:#bd2633;fill-opacity:0.97647101;fill-rule:evenodd;stroke:none"
         id="path134"
         inkscape:connector-curvature="0" /><path
         d="m 82.871,76.154 c 0.727,-0.516 1.652,-0.516 2.481,-0.723 0.41,0 0.718,-0.309 1.031,-0.106 0,0.106 0.203,0.418 0.41,0.418 0.105,0 0.309,0 0.309,-0.105 -0.204,-0.516 -0.309,-0.828 -0.309,-1.133 -0.41,-0.726 -0.516,-1.344 -0.723,-2.066 0,0 0,-0.211 -0.203,-0.309 -0.515,0 -0.722,0.098 -1.238,0.098 -0.106,0 -0.313,0.418 -0.106,0.418 0.829,0 1.344,1.34 1.344,1.547 -0.105,0.101 -0.828,0.101 -1.238,0.312 -0.313,0 0.203,-0.828 -0.313,-0.828 -0.308,-0.207 -0.203,0 -0.515,0 -0.203,0 -0.203,0.102 -0.309,0.102 0,0.207 0,0.414 0.106,0.515 0.203,0 0.203,0 0.203,0.211 0,0.098 -0.203,0.098 -0.309,0.305 -0.41,0 -1.035,0.515 -1.238,0.105 0,-0.41 -0.418,-1.136 0.203,-1.961 0.207,0 0,-0.207 0,-0.207 H 82.254 L 81.32,73.47 c -0.097,0.207 0,0.516 0,0.723 0.211,0.617 0.418,1.132 0.516,1.754 0.211,0.207 0.211,0.515 0.519,0.621 0.309,0 0.102,-0.414 0.516,-0.414 z"
         style="fill:#bd2633;fill-opacity:0.97647101;fill-rule:evenodd;stroke:none"
         id="path136"
         inkscape:connector-curvature="0" /><path
         d="m 80.707,70.892 0.098,-0.309 c 0.515,-0.519 1.242,-0.933 1.859,-1.14 0.418,-0.516 0.934,-0.618 1.652,-1.032 0.207,-0.101 0.313,-0.308 0.207,-0.41 -0.515,-0.515 -1.546,-0.414 -2.269,-0.414 l -0.516,0.207 c -0.207,-0.207 0.098,-0.726 0.098,-0.726 0.418,-0.614 0.621,-1.032 0.828,-1.442 0.207,-0.203 0,-0.41 0,-0.41 -0.617,0 -0.926,0.41 -1.441,0.516 -0.418,0.207 -0.516,0.304 -0.723,0.515 -0.621,0.207 -1.242,0.821 -1.758,0.516 -0.207,-0.211 -0.304,0 -0.515,0.207 0,0.309 0.211,0.617 0.515,1.133 0.211,0 0,0.515 0.309,0.308 0.515,-0.101 0,-0.617 0.418,-0.617 0.41,-0.207 1.754,-0.824 2.062,-1.242 0.207,0 -1.242,1.758 -1.242,2.273 0,0.102 2.375,-0.207 2.582,-0.207 -0.207,0.309 -1.551,0.825 -1.648,0.825 -0.418,0 -0.723,0.621 -1.137,-0.102 -0.207,-0.207 -0.313,0 -0.52,0.102 0.207,0.207 0.207,0.312 0.313,0.515 0.207,0.313 0,0.934 0.621,1.141 0,0 0.207,0 0.207,-0.207 z"
         style="fill:#bd2633;fill-opacity:0.97647101;fill-rule:evenodd;stroke:none"
         id="path138"
         inkscape:connector-curvature="0" /><path
         d="m 77.297,64.798 c 0.105,-0.617 0.723,-0.617 1.141,-1.031 0.613,-0.309 1.031,-1.133 1.75,-1.133 0.101,0 0.519,0.102 0.617,-0.207 0.211,-0.309 -0.305,-0.309 -0.516,-0.617 -0.203,-0.418 -0.516,-0.723 -0.82,-0.934 0,-0.097 -0.211,-0.097 -0.211,0 -0.207,0.211 0.211,0.418 0,0.516 -0.207,0.418 -0.82,0.828 -1.238,1.035 -0.411,0.516 -0.618,0.824 -1.239,1.238 -0.308,0 -0.621,-0.515 -1.031,0 0,0.414 0.516,0.516 0.723,1.133 0.308,0.106 0.308,0.418 0.621,0.625 0.308,-0.207 0.203,-0.519 0.203,-0.625 z"
         style="fill:#bd2633;fill-opacity:0.97647101;fill-rule:evenodd;stroke:none"
         id="path140"
         inkscape:connector-curvature="0" /><path
         d="m 41.797,63.458 c 0,-0.515 0.515,-1.031 0.824,-1.238 0.211,0 0,-0.102 -0.207,-0.102 -0.102,-0.21 -0.41,-0.21 -0.617,-0.21 -0.211,-0.098 -0.211,-0.098 -0.621,-0.098 -0.106,-0.207 -0.309,0 -0.309,0 v 0.098 l 0.516,0.519 c 0,0.516 -0.516,0.824 -0.828,1.238 h -0.516 c -0.41,-0.414 -0.203,-0.515 -0.203,-0.929 0.203,-0.309 0.309,-0.618 0.309,-1.133 0,-0.727 -0.106,-1.242 -0.516,-1.547 -0.207,-0.106 -0.723,-0.313 -1.031,-0.313 -0.516,0 -0.723,0.313 -1.032,0.618 -0.207,0.418 -0.519,0.726 -0.625,1.242 0,0.207 0.313,0.305 0.418,0.515 l 0.723,0.102 c 0.309,-0.312 -0.207,-0.41 -0.207,-0.617 0,-0.309 0,-0.727 0.41,-0.824 0.313,-0.207 0.516,0 0.723,0 0.211,0.097 0,0.515 0,0.613 0,0.828 -0.617,1.551 -0.207,2.375 0,0.207 0.105,0.414 0.418,0.621 0.82,0.41 1.648,0 2.164,-0.414 0.203,-0.207 0.308,-0.309 0.414,-0.516 z"
         style="fill:#bd2633;fill-opacity:0.97647101;fill-rule:evenodd;stroke:none"
         id="path142"
         inkscape:connector-curvature="0" /><path
         d="m 69.453,58.505 c 0,-0.101 -0.515,-0.207 -0.305,-0.414 0.098,-0.516 0.098,-1.031 0.411,-1.344 0.203,-0.304 0.41,-1.336 0.828,-1.547 0.203,-0.304 0.515,0 0.824,0 0.207,-0.101 0.207,-0.304 0.207,-0.515 -0.207,-0.305 -0.516,-0.102 -0.828,-0.305 -0.621,-0.105 -1.652,-0.726 -2.27,-0.933 -0.203,0 -0.203,-0.411 -0.515,-0.204 -0.309,0.204 -0.309,0.618 -0.621,1.032 0,0.105 0,0.308 0.105,0.308 0.207,0.102 0.309,-0.203 0.516,-0.203 0.101,0 0.101,-0.312 0.312,-0.105 0.203,0.105 0.821,0.308 0.821,0.308 l -0.305,0.93 c 0,0.203 -0.211,0.203 -0.313,0.203 -0.203,-0.203 0,-0.516 -0.414,-0.617 -0.101,0 -0.101,0.101 -0.101,0.312 -0.207,0.305 -0.309,0.516 -0.207,0.821 0.207,0.312 0.519,0 0.722,0 0.102,0 0.102,0.211 0,0.312 -0.414,0.414 -0.203,1.446 -0.824,1.031 -0.312,-0.101 -0.828,-0.101 -0.828,-0.515 -0.207,-0.313 -0.207,-0.516 -0.313,-0.617 -0.203,0 -0.304,0 -0.304,0.101 0,0.203 0.101,0.414 0.101,0.516 0,0.203 -0.312,0.515 0,0.723 0.621,0.308 1.446,0.308 2.168,0.621 0.313,0.101 0.828,0.515 1.133,0.308 z"
         style="fill:#bd2633;fill-opacity:0.97647101;fill-rule:evenodd;stroke:none"
         id="path144"
         inkscape:connector-curvature="0" /><path
         d="m 86.383,87.919 c -0.106,0 -0.106,0.207 -0.313,0.207 -0.515,-0.207 -0.925,0.207 -1.238,0.207 -0.203,0 -1.961,0 -2.578,0.309 -0.723,0.308 -0.723,0.824 -0.723,0.824 -0.211,0.207 -0.515,0.414 -0.515,0 -0.211,-0.101 0,-0.516 0,-0.824 0.304,-0.309 0.304,-0.723 0.515,-1.031 0,-0.106 0.207,-0.106 0.207,-0.106 0.098,0 0.098,0.414 0.098,0.414 0,0.207 0.418,0 0.418,0 0.203,0 0.203,0 0.41,-0.105 0.207,-0.309 0.207,-0.824 0.313,-1.031 v -0.825 c 0,0 -0.313,-0.312 -0.52,-0.101 -0.102,0 -0.203,0.304 -0.41,0.304 -0.211,0 -0.211,-0.203 -0.211,-0.304 0.211,-0.309 0.211,-1.551 0.211,-1.86 0.207,0 0.207,-0.207 0.308,-0.207 0.516,0.414 0,0.414 0.516,0.825 0.621,0.414 2.375,2.062 2.684,2.168 0.207,0.207 0.722,0.515 0.722,0.722 0.106,0.106 0.106,0.309 0.106,0.414 z m -2.891,-1.445 c -0.207,0 -0.207,0.203 -0.207,0.203 l -0.203,1.137 c 0.41,0.105 1.547,-0.203 1.957,-0.203 0.313,0 -1.238,-0.934 -1.547,-1.137 z"
         style="fill:#bd2633;fill-opacity:0.97647101;fill-rule:evenodd;stroke:none"
         id="path146"
         inkscape:connector-curvature="0" /><path
         d="m 79.879,99.685 c 0,0.203 -0.313,0.203 -0.41,0.203 -1.242,-0.41 -2.172,-1.031 -3.309,-1.441 -0.515,0 -0.926,0 -1.133,0.207 -0.203,0 -0.414,0.203 -0.515,0 0,-0.207 0.101,-0.313 0.101,-0.414 0.516,-0.207 0.828,-1.032 1.344,-1.032 0.203,0 -0.207,0.305 0.309,0.41 0.515,0.415 1.031,-0.203 1.136,-0.718 0.207,-0.207 0,-0.313 0,-0.516 0,-0.207 -0.308,0 -0.308,0 -0.106,0 -0.313,0.203 -0.418,0 v -0.312 c 0.418,-0.204 0.621,-0.516 0.933,-0.926 0.207,-0.106 0.313,-0.516 0.411,-0.313 0.207,0.207 0,0.313 0,0.516 0.207,0.519 0.722,1.238 0.933,2.066 0.098,0.618 0.82,1.442 0.926,2.27 z m -1.957,-2.172 c -0.313,0 -0.625,0.312 -0.828,0.727 0.203,0.101 0.926,0.617 1.344,0.617 0.097,0.207 -0.418,-1.239 -0.516,-1.344 z"
         style="fill:#bd2633;fill-opacity:0.97647101;fill-rule:evenodd;stroke:none"
         id="path148"
         inkscape:connector-curvature="0" /><path
         d="m 75.75,57.783 c -0.309,0.929 -0.516,1.757 -0.621,2.789 -0.102,0.304 -0.102,0.82 -0.102,1.238 0.102,0.098 0.414,0.41 0.414,0.617 -0.207,0.207 -0.207,0.207 -0.312,0.207 -0.305,-0.414 -0.617,-0.516 -0.926,-0.726 -0.207,-0.098 -0.312,0 -0.515,-0.305 0.203,-0.211 0.308,-0.211 0.515,-0.211 0.203,-0.098 0,-0.305 0.203,-0.305 -0.41,-0.515 -0.926,-0.828 -1.441,-1.031 -0.106,0 -0.106,0 -0.309,0.203 -0.105,0.102 0,0.313 0,0.52 0,0.097 -0.105,0.097 -0.105,0.097 -0.52,-0.304 -0.93,-0.515 -1.446,-0.926 0,-0.207 -0.203,-0.207 -0.203,-0.41 0,-0.211 0,-0.312 0.203,-0.312 h 0.516 c 0.723,0.515 1.238,-0.824 2.067,-1.137 0.515,-0.101 1.136,-1.031 1.441,-1.031 0.312,0 0.516,0.203 0.828,0.414 0,0.101 -0.207,0.309 -0.207,0.309 z m -0.926,0.621 c -0.211,0 -0.933,0.925 -1.136,0.925 0,0 -0.208,0 -0.208,0.211 0.208,0.203 1.032,1.032 1.133,0.516 0,-0.313 0.414,-1.344 0.414,-1.551 0,-0.101 0,-0.101 -0.203,-0.101 z"
         style="fill:#bd2633;fill-opacity:0.97647101;fill-rule:evenodd;stroke:none"
         id="path150"
         inkscape:connector-curvature="0" /><path
         d="m 38.906,66.97 c -0.308,0.516 -0.621,1.441 -0.824,1.441 -0.516,-0.101 0,-0.617 -0.312,-0.925 h -0.723 c -0.309,0.101 -0.309,0.308 -0.516,0.824 -0.203,0.308 -0.41,0.515 -0.203,0.824 0.203,0.207 0.309,0.516 0.41,0.516 0.203,0 0.203,-0.207 0.203,-0.309 0.106,0 0.106,-0.414 0.313,-0.207 0.105,0 0.312,0 0.312,0.207 -0.207,0.414 -0.519,0.723 -0.625,1.242 -0.304,0.203 -0.203,0.719 -0.613,0.825 -0.312,-0.106 0,-0.516 -0.207,-0.825 -0.309,-0.312 -0.516,-0.828 -1.031,-1.242 -0.313,-0.414 -0.621,-0.93 -1.137,-1.238 l -0.41,-0.824 c 0,-0.211 -0.211,-0.516 0,-0.516 1.234,-0.211 2.473,0 3.504,0 0.519,0 1.238,0.207 1.551,-0.309 0.203,0 0.203,-0.418 0.308,-0.418 0.102,0 0.102,0 0.313,0.211 0,0.207 -0.313,0.516 -0.313,0.723 z m -2.89,0.516 h -1.239 c -0.203,0 0.828,0.824 0.828,0.824 0.207,0.308 0.411,-0.207 0.411,-0.207 0,0 0.105,-0.516 0.312,-0.617 z"
         style="fill:#bd2633;fill-opacity:0.97647101;fill-rule:evenodd;stroke:none"
         id="path152"
         inkscape:connector-curvature="0" /><path
         d="m 79.566,91.634 c -0.308,0.516 -0.515,0.93 -0.515,1.137 0.207,0.41 0.418,0.722 0.418,0.926 0.097,0.312 0.41,0.621 0.719,0.933 0.312,0.203 0.617,0.41 1.035,0.516 0.515,0 0.824,0.203 1.132,0.203 0.309,0 0.516,-0.203 0.727,-0.309 0.41,0 0.41,-0.41 0.719,-0.515 0.722,-0.828 0.828,-1.961 0.515,-2.172 h -0.203 l -0.515,-0.41 c -0.106,0 -0.313,0 -0.313,-0.106 h -0.308 c 0,0.106 0,0.106 0.105,0.313 0,0.203 0,0.203 0.203,0.203 0,0.211 0.207,0.312 0.313,0.418 v 0.722 c -0.106,0.309 -0.313,0.516 -0.621,0.719 -0.52,0.106 -0.723,0 -1.239,0 -0.515,-0.203 -0.933,-0.41 -1.238,-0.719 -0.312,-0.312 -0.312,-0.828 -0.312,-1.14 0.101,-0.203 0.101,-0.41 0.101,-0.41 0.211,-0.309 0.934,-0.926 1.031,-0.926 0.211,-0.211 -0.097,-0.309 -0.097,-0.309 -0.207,0 -1.344,0.309 -1.657,0.926 z"
         style="fill:#bd2633;fill-opacity:0.97647101;fill-rule:evenodd;stroke:none"
         id="path154"
         inkscape:connector-curvature="0" /><path
         d="m 50.055,53.243 c -0.211,0 -0.211,0 -0.418,0.204 v 0.105 c 0.207,0 0.519,0.102 0.519,0.102 0.106,0 0.106,0.207 0.516,0.621 0,0.105 0.105,0.824 0.308,1.136 v 0.618 c 0.208,0.414 0.208,0.515 0,0.718 0,0.211 -0.203,0.313 -0.515,0.516 -0.309,0.211 -0.41,0 -0.621,0 -0.305,-0.203 -0.516,-0.203 -0.516,-0.516 0,0 -0.305,-0.304 -0.305,-0.515 L 48.402,55.2 c 0,-0.515 -0.207,-0.82 -0.207,-0.925 h 0.207 c 0,-0.207 0.106,-0.414 0.106,-0.621 h -0.313 l -1.343,0.621 c 0,0 0,0.105 -0.106,0.105 v 0.203 c 0.106,0 0.106,0.102 0.313,0.102 0,0 0.308,-0.102 0.308,0 0.106,0 0.828,1.547 0.828,1.547 0,0 0.516,0.726 0.516,0.828 0.207,0.515 0.312,0.723 0.828,0.93 0.305,0.101 0.617,0 1.238,-0.207 0.719,-0.208 1.032,-0.52 1.129,-0.825 0.418,-0.414 0.418,-1.445 0.211,-1.758 0,-0.101 0,-0.515 -0.211,-0.515 l -0.097,-1.031 v -0.207 l -0.106,-0.204 c 0,-0.207 0.106,-0.414 0.106,-0.414 0.097,0 0.097,-0.101 0.097,-0.101 0,-0.106 -0.097,-0.106 -0.097,-0.106 h -0.106 z"
         style="fill:#bd2633;fill-opacity:0.97647101;fill-rule:evenodd;stroke:none"
         id="path156"
         inkscape:connector-curvature="0" /><path
         d="m 90.82,83.275 c -0.105,1.34 -0.105,2.683 -0.621,3.82 -0.312,2.063 -1.031,3.711 -1.652,5.57 -0.41,0.828 -0.617,1.547 -1.133,1.965 -0.105,0.516 -0.516,1.031 -0.621,1.547 -0.516,0.723 -0.926,1.441 -1.441,2.164 -0.52,0.723 -0.829,1.344 -1.551,2.168 -0.516,0.723 -1.344,1.344 -1.754,2.27 -0.516,0.105 -0.727,0.722 -1.34,1.136 -0.207,0.207 -0.621,0.414 -0.828,0.723 -0.621,0.516 -1.344,1.445 -1.957,1.961 -0.934,0.824 -2.277,0.93 -3.41,1.961 l -0.824,0.308 c -0.829,0.723 -1.657,0.825 -2.477,1.34 -0.621,0.313 -1.449,0.52 -2.063,0.828 -0.515,0.207 -1.031,0.516 -1.652,0.723 -0.207,0 -0.312,0.106 -0.519,0 -1.34,0 -2.473,0.309 -3.715,0.516 -1.34,0.105 -2.477,0.308 -3.614,0.515 -0.515,-0.207 -1.031,0 -1.546,-0.207 -0.93,0 -1.856,0 -2.68,-0.203 -1.449,-0.105 -2.789,-0.312 -4.129,-0.621 -1.238,-0.516 -2.582,-1.031 -3.926,-1.551 -0.308,-0.203 -0.621,-0.203 -0.926,-0.308 -0.824,-0.207 -1.546,-0.926 -2.273,-1.032 -0.82,-0.515 -1.856,-0.617 -2.477,-1.445 -1.031,-0.308 -1.855,-0.824 -2.472,-1.547 -0.934,-0.308 -1.86,-1.031 -2.481,-1.754 -0.722,-0.929 -1.754,-1.547 -2.582,-2.375 -0.308,-0.41 -0.613,-0.925 -0.824,-1.238 -0.516,-0.516 -0.824,-1.031 -1.133,-1.445 -0.515,-0.617 -0.828,-1.031 -1.137,-1.551 -0.515,-0.82 -1.031,-1.441 -1.343,-2.367 -0.207,-0.621 -0.41,-1.137 -0.617,-1.653 -0.516,-0.722 -0.622,-1.343 -0.93,-2.171 -0.207,-0.614 -0.723,-1.442 -0.93,-2.164 0,-0.309 -0.101,-0.516 -0.101,-0.825 -0.207,-0.722 -0.414,-1.343 -0.414,-2.066 -0.106,-0.926 -0.411,-1.961 -0.411,-2.992 v -2.684 c 0,-1.445 0,-2.992 0.207,-4.437 0,-0.723 0,-1.344 0.204,-1.86 0.414,-1.648 0.722,-3.508 1.445,-4.953 0.308,-1.238 0.726,-2.273 1.242,-3.402 0.305,-0.723 0.82,-1.141 1.133,-1.86 0.414,-0.621 0.719,-1.445 1.234,-2.171 0,-0.098 0.418,-0.305 0.418,-0.516 0.309,-0.516 0.617,-0.82 1.031,-1.336 0.313,-0.313 0.618,-0.828 1.133,-1.137 0,-0.515 0.414,-0.621 0.621,-0.929 0.313,-0.415 0.828,-0.516 1.032,-1.032 0.621,-0.211 1.031,-0.929 1.55,-1.445 1.442,-1.133 2.989,-2.066 4.641,-2.891 0.723,-0.414 1.445,-0.929 2.066,-1.238 0.926,-0.516 1.957,-0.828 2.993,-1.133 0.726,-0.211 1.445,-0.726 2.371,-0.515 0.418,-0.211 0.519,-0.418 1.035,-0.418 1.137,-0.102 2.269,-0.41 3.406,-0.618 1.957,-0.101 3.922,-0.515 5.676,-0.101 2.684,0 4.953,0.309 7.43,0.926 0.933,0.308 2.062,0.726 3.203,1.031 1.234,0.727 2.578,1.137 4.019,1.859 0.207,0.207 0.418,0.313 0.723,0.414 1.031,0.618 1.859,1.446 2.687,1.856 1.235,0.828 2.473,1.758 3.715,2.789 0.926,1.031 1.961,2.269 2.785,3.613 0.93,1.133 1.754,2.371 2.477,3.711 0.105,0 0.105,0.106 0.105,0.313 0.204,0.312 0.411,0.621 0.516,0.828 0.102,1.031 0.723,1.855 1.133,2.886 0.308,0.516 0.515,1.133 0.515,1.653 0.516,0.93 0.825,2.168 1.032,3.199 0.211,1.961 0.726,3.816 0.828,5.777 0.203,1.344 0,2.684 -0.102,3.821 z m -0.726,-5.16 C 89.887,76.462 89.578,74.603 89.168,72.954 89.062,71.712 88.137,70.892 88.031,69.65 87.723,68.927 87.723,68.001 87.309,67.279 86.793,66.247 86.277,65.423 85.762,64.388 85.145,63.251 82.355,58.712 79.773,57.06 78.742,56.443 77.816,55.716 76.988,54.896 l -1.343,-0.621 c -0.618,-0.207 -1.032,-0.828 -1.649,-1.032 -0.308,-0.414 -0.824,-0.515 -1.34,-0.621 -1.238,-0.722 -2.582,-1.339 -4.023,-1.754 -1.035,-0.515 -2.278,-0.617 -3.309,-1.132 -1.441,-0.211 -2.785,-0.418 -4.226,-0.52 -1.45,0 -2.996,-0.308 -4.336,-0.207 -0.93,0.309 -1.86,0.207 -2.684,0.309 -0.516,-0.102 -0.828,0.207 -1.137,0.207 -1.035,0.211 -1.753,0.515 -2.785,0.726 -1.238,0.102 -2.269,0.617 -3.41,1.032 -0.305,0.101 -0.613,0.101 -0.82,0.101 -1.242,0.719 -2.481,1.238 -3.614,1.859 l -0.105,0.204 c -0.824,0.621 -1.855,1.136 -2.684,1.753 -1.132,0.829 -2.164,1.344 -2.992,2.375 -0.719,0.516 -1.234,1.344 -1.957,1.754 -0.418,0.621 -0.726,0.93 -1.242,1.45 -0.617,0.824 -1.133,1.957 -1.961,2.886 -0.621,0.723 -0.926,1.758 -1.441,2.789 -0.211,0.614 -0.621,1.34 -0.828,1.957 -0.516,1.239 -0.622,2.375 -1.34,3.512 -0.106,0.824 -0.313,1.547 -0.52,2.371 -0.101,1.137 -0.515,2.481 -0.308,3.719 0,0.824 -0.207,1.652 0,2.27 -0.207,0.308 0,0.718 0,0.824 0,0.722 0.207,1.136 0,1.859 0,1.031 0.308,1.859 0.308,2.992 0.207,0.719 0.414,1.34 0.414,1.961 0.106,0.414 0.309,0.93 0.516,1.239 0,0.722 0.308,1.343 0.621,2.066 0.105,0.719 0.516,1.441 0.926,2.269 0.515,0.825 0.828,1.653 1.242,2.579 0.617,0.828 1.031,1.753 1.754,2.582 0.515,0.718 1.133,1.339 1.648,2.168 0.211,0.515 0.934,1.031 1.449,1.546 0.926,0.93 1.958,1.754 3.094,2.27 l 2.164,1.551 c 0.106,0.203 0.313,0.203 0.516,0.41 1.246,0.621 2.375,1.445 3.613,1.961 1.653,0.824 3.512,1.34 5.063,1.961 0.718,0 1.441,0.207 2.062,0.515 0.41,0 0.926,0.207 1.442,0.313 0.621,0.203 1.136,0.203 1.754,0.41 1.242,0.106 2.277,-0.207 3.613,-0.207 0.515,0 0.828,0.207 1.344,0.207 0.308,-0.207 0.621,0 0.929,0 1.032,0 1.856,-0.207 2.68,-0.41 0.418,-0.106 0.828,-0.106 1.238,-0.313 0.727,0 1.031,-0.308 1.653,-0.515 0.519,-0.106 1.14,-0.106 1.859,-0.313 1.238,-0.617 2.785,-1.234 4.129,-1.855 1.031,-0.617 2.164,-0.93 3.195,-1.754 0.828,-0.516 1.656,-1.238 2.375,-1.754 0.418,-0.312 0.723,-0.828 1.238,-1.137 0.415,-0.515 0.934,-0.929 1.45,-1.445 0.515,-0.41 0.824,-0.926 1.234,-1.234 0.414,-0.52 0.625,-1.036 1.141,-1.551 0.925,-1.137 1.648,-2.27 2.269,-3.406 0.719,-0.926 1.235,-1.754 1.547,-2.579 0.516,-1.343 1.133,-2.476 1.441,-4.027 0.313,-1.031 0.723,-2.168 1.032,-3.305 0.207,-1.031 0.312,-1.957 0.312,-2.988 0.106,-0.93 0.106,-1.754 0,-2.582 0,-0.723 0.106,-1.652 -0.105,-2.476 z"
         style="fill:#bd2633;fill-opacity:0.97647101;fill-rule:evenodd;stroke:none"
         id="path158"
         inkscape:connector-curvature="0" /><path
         d="m 87.309,82.759 c -0.411,0.516 -0.411,-0.309 -0.516,-0.516 -0.41,-0.105 -0.926,-0.105 -1.238,-0.105 -0.723,0.105 -1.442,-0.203 -2.27,0 -0.203,0 -0.414,-0.203 -0.414,0 -0.207,0.105 -0.207,0.516 -0.516,0.516 V 82.45 c 0.102,-0.621 0,-1.652 0.102,-2.269 0,-0.313 0.828,-1.551 1.035,-1.758 0.516,-0.308 1.031,-0.308 1.653,-0.308 0.41,0 0.925,0.308 1.441,0.722 l 0.312,0.617 c 0.204,0.211 0.204,0.414 0.204,0.516 0.207,0.516 0.207,1.031 0.207,1.449 0,0.41 0.105,1.031 0,1.34 z M 86.383,79.97 c -0.621,-0.824 -1.551,-0.617 -2.582,-0.617 -0.203,0.101 -0.516,0.312 -0.719,0.617 v 0.828 c 0.516,0.203 1.031,0.203 1.547,0.203 0.41,-0.203 1.648,0.106 1.754,0 z"
         style="fill:#bd2633;fill-opacity:0.97647101;fill-rule:evenodd;stroke:none"
         id="path160"
         inkscape:connector-curvature="0" /></g></g></svg>
