<?xml version="1.0" encoding="UTF-8" standalone="no"?>
<!-- Created with Inkscape (http://www.inkscape.org/) -->

<svg
   xmlns:dc="http://purl.org/dc/elements/1.1/"
   xmlns:cc="http://creativecommons.org/ns#"
   xmlns:rdf="http://www.w3.org/1999/02/22-rdf-syntax-ns#"
   xmlns:svg="http://www.w3.org/2000/svg"
   xmlns="http://www.w3.org/2000/svg"
   xmlns:sodipodi="http://sodipodi.sourceforge.net/DTD/sodipodi-0.dtd"
   xmlns:inkscape="http://www.inkscape.org/namespaces/inkscape"
   version="1.1"
   id="svg2"
   xml:space="preserve"
   width="266.66666"
   height="100"
   viewBox="0 0 266.66666 100"
   sodipodi:docname="amazon-web-services_logo.svg"
   inkscape:version="0.92.3 (2405546, 2018-03-11)"><metadata
     id="metadata8"><rdf:RDF><cc:Work
         rdf:about=""><dc:format>image/svg+xml</dc:format><dc:type
           rdf:resource="http://purl.org/dc/dcmitype/StillImage" /><dc:title></dc:title></cc:Work></rdf:RDF></metadata><defs
     id="defs6" /><sodipodi:namedview
     pagecolor="#ffffff"
     bordercolor="#666666"
     borderopacity="1"
     objecttolerance="10"
     gridtolerance="10"
     guidetolerance="10"
     inkscape:pageopacity="0"
     inkscape:pageshadow="2"
     inkscape:window-width="1920"
     inkscape:window-height="1015"
     id="namedview4"
     showgrid="false"
     inkscape:zoom="0.58275862"
     inkscape:cx="-8.579882"
     inkscape:cy="108.75"
     inkscape:window-x="0"
     inkscape:window-y="0"
     inkscape:window-maximized="1"
     inkscape:current-layer="g10"
     fit-margin-top="0"
     fit-margin-left="0"
     fit-margin-right="0"
     fit-margin-bottom="0" /><g
     id="g10"
     inkscape:groupmode="layer"
     inkscape:label="AmazonWebservices"
     transform="matrix(1.3333333,0,0,1.3333333,0,-117.49999)"><g
       id="g12"
       transform="matrix(0.45977013,0,0,0.45977013,0,88.124998)"><path
         d="M 120.906,56.25 95.625,47.812 V 11.25 l 25.313,7.5 -0.032,37.5"
         style="fill:#f68d11;fill-opacity:1;fill-rule:nonzero;stroke:none"
         id="path14"
         inkscape:connector-curvature="0" /><path
         d="m 127.5,18.75 25.312,-7.5 -0.089,36.539 -25.223,8.461 v -37.5"
         style="fill:#f68d11;fill-opacity:1;fill-rule:nonzero;stroke:none"
         id="path16"
         inkscape:connector-curvature="0" /><path
         d="M 147.656,7.289 124.066,0 l -23.285,7.289 23.317,6.254 23.558,-6.254"
         style="fill:#f68d11;fill-opacity:1;fill-rule:nonzero;stroke:none"
         id="path18"
         inkscape:connector-curvature="0" /><path
         d="M 184.656,56.25 159.375,47.812 V 11.25 l 25.313,7.5 -0.032,37.5"
         style="fill:#f68d11;fill-opacity:1;fill-rule:nonzero;stroke:none"
         id="path20"
         inkscape:connector-curvature="0" /><path
         d="m 191.25,18.75 25.312,-7.5 -0.089,36.539 -25.223,8.461 v -37.5"
         style="fill:#f68d11;fill-opacity:1;fill-rule:nonzero;stroke:none"
         id="path22"
         inkscape:connector-curvature="0" /><path
         d="M 211.406,7.289 187.816,0 l -23.285,7.289 23.317,6.254 23.558,-6.254"
         style="fill:#f68d11;fill-opacity:1;fill-rule:nonzero;stroke:none"
         id="path24"
         inkscape:connector-curvature="0" /><path
         d="M 25.312,72.188 0,64.688 v 36.562 l 25.281,8.438 0.031,-37.5"
         style="fill:#f68d11;fill-opacity:1;fill-rule:nonzero;stroke:none"
         id="path26"
         inkscape:connector-curvature="0" /><path
         d="m 31.875,72.188 25.313,-7.5 -0.086,36.539 -25.227,8.461 v -37.5"
         style="fill:#f68d11;fill-opacity:1;fill-rule:nonzero;stroke:none"
         id="path28"
         inkscape:connector-curvature="0" /><path
         d="M 52.031,60.727 28.441,53.438 5.156,60.727 28.473,66.98 52.031,60.727"
         style="fill:#f68d11;fill-opacity:1;fill-rule:nonzero;stroke:none"
         id="path30"
         inkscape:connector-curvature="0" /><path
         d="M 89.031,109.688 63.75,101.25 V 64.688 l 25.312,7.5 -0.031,37.5"
         style="fill:#f68d11;fill-opacity:1;fill-rule:nonzero;stroke:none"
         id="path32"
         inkscape:connector-curvature="0" /><path
         d="m 95.625,72.188 25.313,-7.5 -0.09,36.539 -25.223,8.461 v -37.5"
         style="fill:#f68d11;fill-opacity:1;fill-rule:nonzero;stroke:none"
         id="path34"
         inkscape:connector-curvature="0" /><path
         d="m 115.781,60.727 -23.59,-7.289 -23.285,7.289 23.317,6.253 23.558,-6.253"
         style="fill:#f68d11;fill-opacity:1;fill-rule:nonzero;stroke:none"
         id="path36"
         inkscape:connector-curvature="0" /><path
         d="m 57.156,163.125 -25.281,-8.437 v -36.563 l 25.313,7.5 -0.032,37.5"
         style="fill:#f68d11;fill-opacity:1;fill-rule:nonzero;stroke:none"
         id="path38"
         inkscape:connector-curvature="0" /><path
         d="m 63.75,125.625 25.312,-7.5 -0.085,36.539 -25.227,8.461 v -37.5"
         style="fill:#f68d11;fill-opacity:1;fill-rule:nonzero;stroke:none"
         id="path40"
         inkscape:connector-curvature="0" /><path
         d="m 83.906,114.164 -23.59,-7.289 -23.285,7.289 23.317,6.254 23.558,-6.254"
         style="fill:#f68d11;fill-opacity:1;fill-rule:nonzero;stroke:none"
         id="path42"
         inkscape:connector-curvature="0" /><path
         d="m 169.117,130.805 -1.863,0.007 c -0.68,0 -1.551,0.461 -1.766,1.208 l -5.64,19.878 -5.582,-19.836 c -0.168,-0.621 -0.754,-1.25 -1.551,-1.25 h -2.203 c -0.793,0 -1.371,0.637 -1.532,1.262 l -5.191,19.633 -5.363,-19.691 c -0.215,-0.719 -1.106,-1.204 -1.805,-1.204 l -2.676,-0.007 c -0.57,0 -1.101,0.246 -1.386,0.644 -0.196,0.266 -0.25,0.571 -0.161,0.836 l 8.29,29.34 c 0.183,0.617 0.714,1.238 1.5,1.238 h 2.66 c 0.718,0 1.347,-0.523 1.531,-1.269 l 5.101,-19.543 5.551,19.566 c 0.164,0.598 0.703,1.246 1.489,1.246 h 2.617 c 0.73,0 1.343,-0.508 1.523,-1.25 l 7.977,-29.316 c 0.093,-0.281 0.039,-0.598 -0.153,-0.859 -0.277,-0.391 -0.804,-0.633 -1.367,-0.633"
         style="fill:#100f0d;fill-opacity:1;fill-rule:nonzero;stroke:none"
         id="path44"
         inkscape:connector-curvature="0" /><path
         d="M 192.129,143.262 H 178.07 c 0.321,-3.946 2.883,-8.039 7.227,-8.196 4.617,0.153 6.73,4.149 6.832,8.196 z m -6.844,-12.668 c -9.5,0 -13.824,8.398 -13.824,16.199 0,9.734 5.379,16.027 13.699,16.027 5.957,0 10.496,-3.011 12.457,-8.269 0.106,-0.301 0.074,-0.625 -0.09,-0.918 -0.199,-0.356 -0.578,-0.625 -1.027,-0.723 l -2.637,-0.504 c -0.707,-0.109 -1.519,0.309 -1.785,0.918 -1.281,2.922 -3.617,4.578 -6.547,4.664 -2.816,-0.086 -5.406,-1.761 -6.593,-4.261 -0.961,-2.047 -1.106,-4.059 -1.122,-6.11 l 19.09,-0.008 c 0.399,0 0.813,-0.175 1.106,-0.468 0.246,-0.246 0.379,-0.555 0.375,-0.86 -0.047,-7.582 -3.512,-15.687 -13.102,-15.687"
         style="fill:#100f0d;fill-opacity:1;fill-rule:nonzero;stroke:none"
         id="path46"
         inkscape:connector-curvature="0" /><path
         d="m 221.871,146.84 c 0,1.797 -0.324,10.765 -6.699,10.996 -2.133,-0.082 -4.293,-1.34 -5.5,-3.195 -0.887,-1.403 -1.406,-3.344 -1.539,-5.743 v -5.277 c 0.105,-4.043 2.949,-8.48 7.019,-8.652 6.395,0.254 6.719,9.933 6.719,11.871 z m -5.699,-16.516 h -0.504 c -3.152,0 -5.633,1.309 -7.535,3.992 v -12.367 c 0,-0.695 -0.719,-1.328 -1.512,-1.328 h -2.742 c -0.719,0 -1.52,0.567 -1.524,1.328 v 38.61 c 0.004,0.699 0.719,1.339 1.512,1.339 l 0.805,-0.007 c 0.762,0 1.305,-0.614 1.488,-1.18 l 0.86,-2.727 c 1.992,2.832 4.996,4.496 8.214,4.496 h 0.493 c 8.468,0 12.261,-8.238 12.261,-16.402 0,-4.066 -1.004,-7.949 -2.75,-10.66 -2.019,-3.145 -5.492,-5.094 -9.066,-5.094"
         style="fill:#100f0d;fill-opacity:1;fill-rule:nonzero;stroke:none"
         id="path48"
         inkscape:connector-curvature="0" /><path
         d="m 258.043,145.969 c -1.785,-1.281 -3.93,-1.711 -6.078,-2.137 l -4.125,-0.766 c -2.957,-0.488 -4.668,-1.281 -4.668,-3.89 0,-2.758 2.859,-3.813 5.285,-3.879 2.957,0.074 5.184,1.394 6.266,3.719 0.257,0.546 0.828,0.918 1.418,0.918 0.101,0 0.203,-0.012 0.3,-0.036 l 2.575,-0.566 c 0.418,-0.094 0.812,-0.383 1.023,-0.754 0.164,-0.297 0.203,-0.625 0.102,-0.914 -1.575,-4.586 -5.571,-7.008 -11.618,-7.008 -5.461,0.012 -11.3,2.442 -11.3,9.227 0,4.637 2.914,7.582 8.668,8.754 l 4.613,0.879 c 2.535,0.484 5.125,1.347 5.125,4.066 0,4.027 -4.688,4.438 -6.102,4.465 -3.179,-0.067 -6.777,-1.485 -7.652,-4.485 -0.176,-0.66 -1.004,-1.128 -1.734,-0.976 l -2.692,0.555 c -0.402,0.086 -0.773,0.347 -0.988,0.703 -0.184,0.297 -0.234,0.629 -0.149,0.933 1.387,4.981 6.196,7.985 12.86,8.035 h 0.148 c 5.953,0 12.317,-2.55 12.317,-9.699 0,-2.914 -1.313,-5.515 -3.594,-7.144"
         style="fill:#100f0d;fill-opacity:1;fill-rule:nonzero;stroke:none"
         id="path50"
         inkscape:connector-curvature="0" /><path
         d="m 285.258,143.289 h -14.063 c 0.321,-3.949 2.883,-8.043 7.223,-8.191 4.617,0.144 6.734,4.144 6.84,8.191 z m -6.848,-12.668 c -9.5,0 -13.824,8.399 -13.824,16.199 0,9.735 5.375,16.024 13.699,16.024 5.957,0 10.496,-3.008 12.461,-8.266 0.106,-0.301 0.07,-0.629 -0.094,-0.922 -0.199,-0.355 -0.578,-0.621 -1.027,-0.718 l -2.641,-0.504 c -0.617,-0.102 -1.476,0.218 -1.781,0.918 -1.281,2.918 -3.617,4.574 -6.543,4.664 -2.824,-0.09 -5.41,-1.762 -6.594,-4.266 -0.964,-2.039 -1.105,-4.055 -1.121,-6.105 l 19.086,-0.008 c 0.399,0 0.809,-0.172 1.102,-0.469 0.246,-0.246 0.379,-0.551 0.375,-0.859 -0.043,-7.582 -3.508,-15.688 -13.098,-15.688"
         style="fill:#100f0d;fill-opacity:1;fill-rule:nonzero;stroke:none"
         id="path52"
         inkscape:connector-curvature="0" /><path
         d="m 309.535,130.98 c -0.375,-0.042 -0.73,-0.062 -1.078,-0.062 -3.207,0 -5.809,1.742 -7.613,5.07 l 0.008,-2.914 c -0.004,-0.707 -0.707,-1.328 -1.508,-1.328 h -2.383 c -0.781,0 -1.473,0.625 -1.477,1.34 l -0.004,28.305 c 0,0.711 0.688,1.336 1.477,1.336 l 2.781,-0.004 c 0.723,0 1.539,-0.567 1.547,-1.332 v -14.27 c 0,-2.355 0.219,-4.129 1.344,-6.223 1.605,-2.988 3.848,-4.453 6.855,-4.476 0.754,-0.008 1.414,-0.664 1.414,-1.41 v -2.649 c 0,-0.691 -0.597,-1.301 -1.363,-1.383"
         style="fill:#100f0d;fill-opacity:1;fill-rule:nonzero;stroke:none"
         id="path54"
         inkscape:connector-curvature="0" /><path
         d="m 338.738,130.422 -2.199,0.004 c -0.687,0 -1.57,0.492 -1.781,1.219 l -7.121,22.378 -7.27,-22.359 c -0.215,-0.742 -1.101,-1.238 -1.793,-1.238 l -3.136,-0.004 c -0.575,0 -1.133,0.258 -1.418,0.652 -0.192,0.266 -0.243,0.567 -0.149,0.848 l 9.953,29.519 c 0.192,0.586 0.696,1.27 1.5,1.27 h 3.797 c 0.695,0 1.266,-0.477 1.527,-1.27 l 9.653,-29.511 c 0.097,-0.278 0.047,-0.582 -0.145,-0.848 -0.289,-0.398 -0.844,-0.66 -1.418,-0.66"
         style="fill:#100f0d;fill-opacity:1;fill-rule:nonzero;stroke:none"
         id="path56"
         inkscape:connector-curvature="0" /><path
         d="m 345.953,119.074 c -2.023,0 -3.668,1.653 -3.668,3.68 0,2.031 1.645,3.68 3.668,3.68 2.024,0 3.672,-1.649 3.672,-3.68 0,-2.027 -1.648,-3.68 -3.672,-3.68"
         style="fill:#100f0d;fill-opacity:1;fill-rule:nonzero;stroke:none"
         id="path58"
         inkscape:connector-curvature="0" /><path
         d="m 347.465,130.242 h -3.012 c -0.82,0 -1.566,0.66 -1.566,1.387 l -0.016,30.055 c 0,0.363 0.188,0.726 0.512,0.996 0.297,0.242 0.679,0.382 1.058,0.382 l 3.036,0.004 c 0.832,-0.007 1.562,-0.652 1.562,-1.378 v -30.059 c 0,-0.738 -0.734,-1.387 -1.574,-1.387"
         style="fill:#100f0d;fill-opacity:1;fill-rule:nonzero;stroke:none"
         id="path60"
         inkscape:connector-curvature="0" /><path
         d="m 375.613,150.625 -2.511,0.008 c -0.704,0 -1.293,0.422 -1.555,1.156 -0.918,3.965 -3,6.016 -6.156,6.109 -6.145,-0.183 -6.621,-8.75 -6.621,-11.371 0,-5.226 1.808,-10.871 6.863,-11.019 3.051,0.094 5.269,2.281 5.933,5.847 0.129,0.727 0.688,1.278 1.45,1.372 l 2.691,0.027 c 0.805,-0.086 1.434,-0.695 1.43,-1.449 -0.953,-6.442 -5.418,-10.606 -11.383,-10.606 l -0.203,0.004 -0.235,-0.004 c -8.675,0 -12.558,8.098 -12.558,16.121 0,7.356 3.273,15.946 12.508,15.946 h 0.445 c 5.816,0 10.203,-4.075 11.461,-10.688 0.031,-0.312 -0.078,-0.629 -0.301,-0.883 -0.289,-0.332 -0.75,-0.547 -1.258,-0.57"
         style="fill:#100f0d;fill-opacity:1;fill-rule:nonzero;stroke:none"
         id="path62"
         inkscape:connector-curvature="0" /><path
         d="m 400.457,143.289 h -14.066 c 0.32,-3.949 2.882,-8.043 7.226,-8.191 4.621,0.144 6.735,4.144 6.84,8.191 z m -6.848,-12.668 c -9.5,0 -13.824,8.399 -13.824,16.199 0,9.735 5.379,16.024 13.703,16.024 5.953,0 10.492,-3.008 12.457,-8.266 0.102,-0.301 0.067,-0.629 -0.097,-0.922 -0.203,-0.355 -0.571,-0.617 -1.024,-0.718 l -2.636,-0.504 c -0.622,-0.102 -1.481,0.218 -1.786,0.918 -1.285,2.918 -3.621,4.574 -6.547,4.668 -2.82,-0.094 -5.406,-1.766 -6.589,-4.27 -0.965,-2.039 -1.11,-4.055 -1.125,-6.105 l 19.089,-0.004 c 0.403,0 0.817,-0.176 1.11,-0.477 0.242,-0.246 0.375,-0.551 0.371,-0.855 -0.047,-7.582 -3.508,-15.688 -13.102,-15.688"
         style="fill:#100f0d;fill-opacity:1;fill-rule:nonzero;stroke:none"
         id="path64"
         inkscape:connector-curvature="0" /><path
         d="m 430.621,145.969 c -1.785,-1.281 -3.933,-1.711 -6.082,-2.137 l -4.121,-0.766 c -2.953,-0.488 -4.664,-1.281 -4.664,-3.89 0,-3.559 4.414,-3.856 5.277,-3.879 2.961,0.074 5.188,1.394 6.27,3.719 0.258,0.55 0.828,0.918 1.422,0.918 0.101,0 0.203,-0.012 0.3,-0.036 l 2.575,-0.566 c 0.418,-0.094 0.808,-0.383 1.019,-0.758 0.168,-0.297 0.203,-0.621 0.102,-0.91 -1.571,-4.586 -5.571,-7.008 -11.617,-7.008 -5.461,0.012 -11.297,2.442 -11.297,9.227 0,4.637 2.914,7.582 8.664,8.754 l 4.617,0.879 c 2.531,0.484 5.121,1.347 5.121,4.066 0,4.027 -4.684,4.438 -6.102,4.465 -2.945,-0.063 -6.718,-1.277 -7.648,-4.485 -0.172,-0.66 -1,-1.128 -1.742,-0.976 l -2.684,0.555 c -0.41,0.086 -0.781,0.351 -0.996,0.707 -0.18,0.297 -0.23,0.629 -0.144,0.929 1.382,4.981 6.191,7.985 12.859,8.035 h 0.148 c 5.954,0 12.313,-2.55 12.313,-9.699 0,-2.914 -1.309,-5.519 -3.59,-7.144"
         style="fill:#100f0d;fill-opacity:1;fill-rule:nonzero;stroke:none"
         id="path66"
         inkscape:connector-curvature="0" /><path
         d="m 308.172,72.375 v -6.824 c 0.004,-1.035 0.789,-1.731 1.73,-1.727 L 340.48,63.82 c 0.977,0 1.762,0.715 1.762,1.723 v 5.855 c -0.008,0.977 -0.836,2.258 -2.304,4.293 l -15.836,22.614 c 5.875,-0.141 12.097,0.742 17.437,3.742 1.207,0.68 1.527,1.683 1.625,2.664 v 7.281 c 0,1.004 -1.098,2.164 -2.25,1.559 -9.414,-4.93 -21.902,-5.469 -32.312,0.058 -1.063,0.567 -2.176,-0.574 -2.176,-1.578 v -6.922 c 0,-1.105 0.023,-3 1.136,-4.691 l 18.352,-26.32 -15.976,-0.004 c -0.977,0 -1.758,-0.696 -1.766,-1.719"
         style="fill:#100f0d;fill-opacity:1;fill-rule:evenodd;stroke:none"
         id="path68"
         inkscape:connector-curvature="0" /><path
         d="m 196.637,114.988 h -9.305 c -0.887,-0.058 -1.594,-0.726 -1.664,-1.574 l 0.008,-47.746 c 0,-0.957 0.804,-1.719 1.793,-1.719 l 8.664,-0.004 c 0.906,0.051 1.633,0.735 1.695,1.602 v 6.238 H 198 c 2.258,-6.031 6.512,-8.84 12.242,-8.84 5.817,0 9.465,2.809 12.07,8.84 2.258,-6.031 7.379,-8.84 12.856,-8.84 3.906,0 8.156,1.606 10.762,5.223 2.953,4.02 2.343,9.844 2.343,14.969 l -0.003,30.133 c 0,0.949 -0.805,1.718 -1.793,1.718 h -9.289 c -0.938,-0.058 -1.672,-0.804 -1.672,-1.715 V 87.961 c 0,-2.012 0.172,-7.035 -0.262,-8.941 -0.699,-3.219 -2.781,-4.118 -5.473,-4.118 -2.258,0 -4.605,1.504 -5.558,3.91 -0.957,2.418 -0.868,6.434 -0.868,9.149 v 25.309 c 0,0.949 -0.804,1.718 -1.793,1.718 h -9.292 c -0.934,-0.058 -1.668,-0.804 -1.668,-1.715 l -0.016,-25.312 c 0,-5.328 0.871,-13.16 -5.727,-13.16 -6.683,0 -6.425,7.633 -6.425,13.16 l -0.004,25.309 c 0.004,0.949 -0.801,1.718 -1.793,1.718"
         style="fill:#100f0d;fill-opacity:1;fill-rule:evenodd;stroke:none"
         id="path70"
         inkscape:connector-curvature="0" /><path
         d="m 368.652,72.688 c -6.863,0 -7.297,9.343 -7.297,15.171 0,5.829 -0.085,18.286 7.211,18.286 7.211,0 7.555,-10.047 7.555,-16.176 0,-4.02 -0.172,-8.84 -1.387,-12.657 -1.046,-3.316 -3.129,-4.624 -6.082,-4.624 z m -0.086,-9.743 c 13.809,0 21.278,11.856 21.278,26.918 0,14.575 -8.254,26.129 -21.278,26.129 -13.546,0 -20.929,-11.859 -20.929,-26.625 0,-14.871 7.465,-26.422 20.929,-26.422"
         style="fill:#100f0d;fill-opacity:1;fill-rule:evenodd;stroke:none"
         id="path72"
         inkscape:connector-curvature="0" /><path
         d="m 407.75,114.988 h -9.27 c -0.933,-0.058 -1.671,-0.804 -1.671,-1.715 l -0.012,-47.765 c 0.078,-0.871 0.848,-1.559 1.781,-1.559 l 8.633,-0.004 c 0.812,0.043 1.48,0.598 1.652,1.336 v 7.309 h 0.176 c 2.602,-6.531 6.25,-9.645 12.676,-9.645 4.168,0 8.25,1.504 10.855,5.625 2.43,3.817 2.43,10.242 2.43,14.868 v 30.046 c -0.105,0.844 -0.859,1.504 -1.777,1.504 h -9.332 c -0.86,-0.054 -1.551,-0.691 -1.657,-1.504 V 87.559 c 0,-5.227 0.61,-12.864 -5.816,-12.864 -2.258,0 -4.34,1.512 -5.383,3.821 -1.305,2.91 -1.476,5.824 -1.476,9.043 v 25.711 c -0.016,0.949 -0.821,1.718 -1.809,1.718"
         style="fill:#100f0d;fill-opacity:1;fill-rule:evenodd;stroke:none"
         id="path74"
         inkscape:connector-curvature="0" /><path
         d="m 293.176,114.867 c -0.617,0.551 -1.5,0.586 -2.199,0.215 -3.086,-2.566 -3.641,-3.758 -5.332,-6.199 -5.106,5.203 -8.723,6.762 -15.333,6.762 -7.835,0 -13.925,-4.833 -13.925,-14.5 0,-7.551 4.09,-12.684 9.918,-15.204 5.047,-2.214 12.097,-2.621 17.492,-3.226 v -1.207 c 0,-2.211 0.172,-4.832 -1.133,-6.742 -1.129,-1.711 -3.305,-2.414 -5.223,-2.414 -3.546,0 -6.699,1.816 -7.476,5.586 -0.156,0.835 -0.774,1.667 -1.613,1.707 l -9.016,-0.977 c -0.762,-0.172 -1.609,-0.781 -1.387,-1.941 2.071,-10.942 11.949,-14.247 20.801,-14.247 4.523,0 10.445,1.208 14.012,4.629 4.523,4.231 4.086,9.871 4.086,16.012 v 14.492 c 0,4.36 1.812,6.274 3.515,8.625 0.59,0.848 0.723,1.852 -0.035,2.473 -1.898,1.59 -5.273,4.519 -7.129,6.176 z m -9.379,-22.683 c 0,3.625 0.086,6.648 -1.742,9.867 -1.481,2.621 -3.828,4.23 -6.442,4.23 -3.562,0 -5.652,-2.719 -5.652,-6.746 0,-7.922 7.109,-9.363 13.836,-9.363 v 2.012"
         style="fill:#100f0d;fill-opacity:1;fill-rule:evenodd;stroke:none"
         id="path76"
         inkscape:connector-curvature="0" /><path
         d="m 171.23,114.867 c -0.617,0.551 -1.503,0.586 -2.199,0.215 -3.09,-2.566 -3.644,-3.758 -5.336,-6.199 -5.101,5.203 -8.718,6.762 -15.336,6.762 -7.832,0 -13.921,-4.833 -13.921,-14.5 0,-7.551 4.089,-12.684 9.921,-15.204 5.047,-2.214 12.098,-2.621 17.493,-3.226 v -1.207 c 0,-2.211 0.171,-4.832 -1.133,-6.742 -1.133,-1.711 -3.309,-2.414 -5.219,-2.414 -3.551,0 -6.707,1.816 -7.48,5.586 -0.161,0.835 -0.774,1.667 -1.614,1.707 l -9.019,-0.977 c -0.762,-0.172 -1.606,-0.781 -1.387,-1.941 2.07,-10.942 11.949,-14.247 20.801,-14.247 4.527,0 10.445,1.208 14.011,4.629 4.528,4.231 4.09,9.871 4.09,16.012 v 14.492 c 0,4.36 1.813,6.274 3.512,8.625 0.594,0.848 0.727,1.852 -0.031,2.473 -1.899,1.59 -5.278,4.519 -7.133,6.176 z m -9.378,-22.683 c 0,3.625 0.082,6.648 -1.743,9.867 -1.476,2.621 -3.828,4.23 -6.437,4.23 -3.57,0 -5.66,-2.719 -5.66,-6.746 0,-7.922 7.109,-9.363 13.84,-9.363 v 2.012"
         style="fill:#100f0d;fill-opacity:1;fill-rule:evenodd;stroke:none"
         id="path78"
         inkscape:connector-curvature="0" /></g></g></svg>