<?xml version="1.0" encoding="UTF-8" standalone="no"?>
<!-- Created with Inkscape (http://www.inkscape.org/) -->
<svg xmlns:svg="http://www.w3.org/2000/svg" xmlns="http://www.w3.org/2000/svg" xmlns:xlink="http://www.w3.org/1999/xlink" version="1.0" width="255" height="360" id="svg2">
  <defs id="defs4">
    <linearGradient id="linearGradient8210">
      <stop style="stop-color:#87cdde;stop-opacity:0.39215687" offset="0" id="stop8212"/>
      <stop style="stop-color:#87cdde;stop-opacity:0" offset="0.5" id="stop8214"/>
      <stop style="stop-color:#87cdde;stop-opacity:0.39215687" offset="1" id="stop8216"/>
    </linearGradient>
    <linearGradient id="linearGradient4120">
      <stop style="stop-color:#87cdde;stop-opacity:1" offset="0" id="stop4122"/>
      <stop style="stop-color:#87cdde;stop-opacity:0" offset="0.5" id="stop4128"/>
      <stop style="stop-color:#87cdde;stop-opacity:1" offset="1" id="stop4124"/>
    </linearGradient>
    <linearGradient x1="108.75" y1="444.23718" x2="122.67857" y2="444.23718" id="linearGradient6261" xlink:href="#linearGradient4120" gradientUnits="userSpaceOnUse" gradientTransform="matrix(-1.0000001,0,0,-1.0000001,269.89076,999.25592)"/>
    <linearGradient x1="108.75" y1="444.23718" x2="122.67857" y2="444.23718" id="linearGradient6265" xlink:href="#linearGradient4120" gradientUnits="userSpaceOnUse" gradientTransform="matrix(-0.7071068,0.7071068,0.7071068,0.7071068,-110.87537,77.380417)"/>
    <linearGradient x1="108.75" y1="444.23718" x2="122.67857" y2="444.23718" id="linearGradient6270" xlink:href="#linearGradient8210" gradientUnits="userSpaceOnUse" gradientTransform="translate(-388.60803,-23.684507)"/>
    <linearGradient x1="108.75" y1="444.23718" x2="122.67857" y2="444.23718" id="linearGradient8244" xlink:href="#linearGradient8210" gradientUnits="userSpaceOnUse" gradientTransform="translate(-388.60803,-23.684507)"/>
    <linearGradient x1="108.75" y1="444.23718" x2="122.67857" y2="444.23718" id="linearGradient8246" xlink:href="#linearGradient4120" gradientUnits="userSpaceOnUse" gradientTransform="matrix(-0.7071068,0.7071068,0.7071068,0.7071068,-110.87537,77.380417)"/>
    <linearGradient x1="108.75" y1="444.23718" x2="122.67857" y2="444.23718" id="linearGradient8248" xlink:href="#linearGradient4120" gradientUnits="userSpaceOnUse" gradientTransform="matrix(-1.0000001,0,0,-1.0000001,269.89076,999.25592)"/>
    <linearGradient x1="108.75" y1="444.23718" x2="122.67857" y2="444.23718" id="linearGradient16169" xlink:href="#linearGradient4120" gradientUnits="userSpaceOnUse" gradientTransform="matrix(1.0000001,0,0,-1.0000001,75.96151,999.25592)"/>
    <linearGradient x1="108.75" y1="444.23718" x2="122.67857" y2="444.23718" id="linearGradient16173" xlink:href="#linearGradient4120" gradientUnits="userSpaceOnUse" gradientTransform="matrix(0.7071068,0.7071068,-0.7071068,0.7071068,456.72764,77.380417)"/>
    <linearGradient x1="108.75" y1="444.23718" x2="122.67857" y2="444.23718" id="linearGradient16178" xlink:href="#linearGradient8210" gradientUnits="userSpaceOnUse" gradientTransform="translate(-633.16253,-268.23899)"/>
    <linearGradient x1="108.75" y1="444.23718" x2="122.67857" y2="444.23718" id="linearGradient16182" xlink:href="#linearGradient4120" gradientUnits="userSpaceOnUse" gradientTransform="matrix(-1.0000001,0,0,-1.0000001,269.89076,999.25592)"/>
    <linearGradient x1="108.75" y1="444.23718" x2="122.67857" y2="444.23718" id="linearGradient16186" xlink:href="#linearGradient4120" gradientUnits="userSpaceOnUse" gradientTransform="matrix(-0.7071068,0.7071068,0.7071068,0.7071068,-110.87537,77.380417)"/>
    <linearGradient x1="108.75" y1="444.23718" x2="122.67857" y2="444.23718" id="linearGradient16191" xlink:href="#linearGradient8210" gradientUnits="userSpaceOnUse" gradientTransform="translate(-388.60804,-23.684508)"/>
    <linearGradient x1="108.75" y1="444.23718" x2="122.67857" y2="444.23718" id="linearGradient17197" xlink:href="#linearGradient8210" gradientUnits="userSpaceOnUse" gradientTransform="translate(-388.60804,-23.684508)"/>
    <linearGradient x1="108.75" y1="444.23718" x2="122.67857" y2="444.23718" id="linearGradient17199" xlink:href="#linearGradient4120" gradientUnits="userSpaceOnUse" gradientTransform="matrix(-0.7071068,0.7071068,0.7071068,0.7071068,-110.87537,77.380417)"/>
    <linearGradient x1="108.75" y1="444.23718" x2="122.67857" y2="444.23718" id="linearGradient17201" xlink:href="#linearGradient4120" gradientUnits="userSpaceOnUse" gradientTransform="matrix(-1.0000001,0,0,-1.0000001,269.89076,999.25592)"/>
    <linearGradient x1="108.75" y1="444.23718" x2="122.67857" y2="444.23718" id="linearGradient17203" xlink:href="#linearGradient8210" gradientUnits="userSpaceOnUse" gradientTransform="translate(-633.16253,-268.23899)"/>
    <linearGradient x1="108.75" y1="444.23718" x2="122.67857" y2="444.23718" id="linearGradient17205" xlink:href="#linearGradient4120" gradientUnits="userSpaceOnUse" gradientTransform="matrix(0.7071068,0.7071068,-0.7071068,0.7071068,456.72764,77.380417)"/>
    <linearGradient x1="108.75" y1="444.23718" x2="122.67857" y2="444.23718" id="linearGradient17207" xlink:href="#linearGradient4120" gradientUnits="userSpaceOnUse" gradientTransform="matrix(1.0000001,0,0,-1.0000001,75.96151,999.25592)"/>
    <linearGradient x1="108.75" y1="444.23718" x2="122.67857" y2="444.23718" id="linearGradient17230" xlink:href="#linearGradient4120" gradientUnits="userSpaceOnUse" gradientTransform="matrix(1.0000001,0,0,-1.0000001,38.428904,697.98041)"/>
    <linearGradient x1="108.75" y1="444.23718" x2="122.67857" y2="444.23718" id="linearGradient17234" xlink:href="#linearGradient4120" gradientUnits="userSpaceOnUse" gradientTransform="matrix(0.7071068,0.7071068,-0.7071068,0.7071068,419.19503,-223.89509)"/>
    <linearGradient x1="108.75" y1="444.23718" x2="122.67857" y2="444.23718" id="linearGradient17239" xlink:href="#linearGradient8210" gradientUnits="userSpaceOnUse" gradientTransform="translate(-393.58903,-454.73339)"/>
    <linearGradient x1="108.75" y1="444.23718" x2="122.67857" y2="444.23718" id="linearGradient17243" xlink:href="#linearGradient4120" gradientUnits="userSpaceOnUse" gradientTransform="matrix(-1.0000001,0,0,-1.0000001,232.35815,697.98041)"/>
    <linearGradient x1="108.75" y1="444.23718" x2="122.67857" y2="444.23718" id="linearGradient17247" xlink:href="#linearGradient4120" gradientUnits="userSpaceOnUse" gradientTransform="matrix(-0.7071068,0.7071068,0.7071068,0.7071068,-148.40798,-223.89509)"/>
    <linearGradient x1="108.75" y1="444.23718" x2="122.67857" y2="444.23718" id="linearGradient17252" xlink:href="#linearGradient8210" gradientUnits="userSpaceOnUse" gradientTransform="translate(-202.11365,-263.25802)"/>
    <linearGradient x1="108.75" y1="444.23718" x2="122.67857" y2="444.23718" id="linearGradient2359" xlink:href="#linearGradient4120" gradientUnits="userSpaceOnUse" gradientTransform="matrix(1.0000001,0,0,-1.0000001,38.428904,697.98041)"/>
    <linearGradient x1="108.75" y1="444.23718" x2="122.67857" y2="444.23718" id="linearGradient2363" xlink:href="#linearGradient4120" gradientUnits="userSpaceOnUse" gradientTransform="matrix(0.7071068,0.7071068,-0.7071068,0.7071068,419.19503,-223.89509)"/>
    <linearGradient x1="108.75" y1="444.23718" x2="122.67857" y2="444.23718" id="linearGradient2368" xlink:href="#linearGradient8210" gradientUnits="userSpaceOnUse" gradientTransform="translate(-393.58904,-454.7334)"/>
    <linearGradient x1="108.75" y1="444.23718" x2="122.67857" y2="444.23718" id="linearGradient2372" xlink:href="#linearGradient4120" gradientUnits="userSpaceOnUse" gradientTransform="matrix(-1.0000001,0,0,-1.0000001,232.35815,697.98041)"/>
    <linearGradient x1="108.75" y1="444.23718" x2="122.67857" y2="444.23718" id="linearGradient2376" xlink:href="#linearGradient4120" gradientUnits="userSpaceOnUse" gradientTransform="matrix(-0.7071068,0.7071068,0.7071068,0.7071068,-148.40798,-223.89509)"/>
    <linearGradient x1="108.75" y1="444.23718" x2="122.67857" y2="444.23718" id="linearGradient2381" xlink:href="#linearGradient8210" gradientUnits="userSpaceOnUse" gradientTransform="translate(-202.11366,-263.25803)"/>
    <linearGradient x1="108.75" y1="444.23718" x2="122.67857" y2="444.23718" id="linearGradient2395" xlink:href="#linearGradient8210" gradientUnits="userSpaceOnUse" gradientTransform="translate(-202.11366,-263.25803)"/>
    <linearGradient x1="108.75" y1="444.23718" x2="122.67857" y2="444.23718" id="linearGradient2397" xlink:href="#linearGradient4120" gradientUnits="userSpaceOnUse" gradientTransform="matrix(-0.7071068,0.7071068,0.7071068,0.7071068,-148.40798,-223.89509)"/>
    <linearGradient x1="108.75" y1="444.23718" x2="122.67857" y2="444.23718" id="linearGradient2399" xlink:href="#linearGradient4120" gradientUnits="userSpaceOnUse" gradientTransform="matrix(-1.0000001,0,0,-1.0000001,232.35815,697.98041)"/>
    <linearGradient x1="108.75" y1="444.23718" x2="122.67857" y2="444.23718" id="linearGradient2419" xlink:href="#linearGradient8210" gradientUnits="userSpaceOnUse" gradientTransform="translate(-202.11366,-263.25803)"/>
    <linearGradient x1="108.75" y1="444.23718" x2="122.67857" y2="444.23718" id="linearGradient2421" xlink:href="#linearGradient4120" gradientUnits="userSpaceOnUse" gradientTransform="matrix(-0.7071068,0.7071068,0.7071068,0.7071068,-148.40798,-223.89509)"/>
    <linearGradient x1="108.75" y1="444.23718" x2="122.67857" y2="444.23718" id="linearGradient2423" xlink:href="#linearGradient4120" gradientUnits="userSpaceOnUse" gradientTransform="matrix(-1.0000001,0,0,-1.0000001,232.35815,697.98041)"/>
    <linearGradient x1="108.75" y1="444.23718" x2="122.67857" y2="444.23718" id="linearGradient2428" xlink:href="#linearGradient4120" gradientUnits="userSpaceOnUse" gradientTransform="matrix(-1.0000001,0,0,-1.0000001,232.35815,697.98041)"/>
    <linearGradient x1="108.75" y1="444.23718" x2="122.67857" y2="444.23718" id="linearGradient2432" xlink:href="#linearGradient4120" gradientUnits="userSpaceOnUse" gradientTransform="matrix(-0.7071068,0.7071068,0.7071068,0.7071068,-148.40798,-223.89509)"/>
    <linearGradient x1="108.75" y1="444.23718" x2="122.67857" y2="444.23718" id="linearGradient2437" xlink:href="#linearGradient8210" gradientUnits="userSpaceOnUse" gradientTransform="translate(-202.11367,-263.25804)"/>
    <linearGradient x1="108.75" y1="444.23718" x2="122.67857" y2="444.23718" id="linearGradient2442" xlink:href="#linearGradient4120" gradientUnits="userSpaceOnUse" gradientTransform="matrix(1.0000001,0,0,-1.0000001,38.4289,697.98041)"/>
    <linearGradient x1="108.75" y1="444.23718" x2="122.67857" y2="444.23718" id="linearGradient2446" xlink:href="#linearGradient4120" gradientUnits="userSpaceOnUse" gradientTransform="matrix(0.7071068,0.7071068,-0.7071068,0.7071068,419.19503,-223.89509)"/>
    <linearGradient x1="108.75" y1="444.23718" x2="122.67857" y2="444.23718" id="linearGradient2451" xlink:href="#linearGradient8210" gradientUnits="userSpaceOnUse" gradientTransform="translate(-393.58902,-454.7334)"/>
  </defs>
  <use transform="matrix(-1,0,0,1,270.78705,0)" id="use2453" x="0" y="0" width="255" height="360" xlink:href="#rect2170"/>
  <use transform="matrix(-1,0,0,1,270.78705,0)" id="use2455" x="0" y="0" width="255" height="360" xlink:href="#rect4130"/>
  <use transform="matrix(-1,0,0,1,270.78705,0)" id="use2457" x="0" y="0" width="255" height="360" xlink:href="#path5103"/>
  <use transform="matrix(-1,0,0,1,270.78705,0)" id="use2459" x="0" y="0" width="255" height="360" xlink:href="#rect6095"/>
  <use transform="matrix(-1,0,0,1,270.78705,0)" id="use2461" x="0" y="0" width="255" height="360" xlink:href="#path6099"/>
  <use transform="matrix(-1,0,0,1,270.78705,0)" id="use2463" x="0" y="0" width="255" height="360" xlink:href="#path6120"/>
  <use transform="matrix(-1,0,0,1,270.78705,0)" id="use2465" x="0" y="0" width="255" height="360" xlink:href="#path6097"/>
  <path d="M 38.044696,113.78073 L 30.225205,105.96123 L 2.616267,133.57017 L 10.435759,141.38966 L 12.883169,138.94376 C 16.4837,142.49853 21.948203,142.53104 25.294714,139.18453 C 28.641213,135.83805 32.493094,131.98617 35.839584,128.63967 C 39.186094,125.29316 39.153571,119.82866 35.576419,116.2515 L 38.044696,113.78073 z " style="color:#000000;fill:#ffcc00;fill-opacity:1;fill-rule:nonzero;stroke:#ff6600;stroke-width:1px;stroke-linecap:butt;stroke-linejoin:miter;marker:none;marker-start:none;marker-mid:none;marker-end:none;stroke-miterlimit:4;stroke-dashoffset:0;stroke-opacity:1;visibility:visible;display:inline;overflow:visible;enable-background:accumulate" id="path9250"/>
  <path d="M 61.460778,32.62198 L 100.50571,32.62198 L 100.50571,43.68041 L 61.460778,43.68041 L 61.460778,32.62198 z M 66.410524,40.38782 L 95.555964,40.38782 L 95.555964,48.64249 L 66.410524,48.64249 L 66.410524,40.38782 z M 73.481584,48.40091 L 88.484884,48.40091 L 88.484884,53.62247 L 73.481584,53.62247 L 73.481584,48.40091 z " style="color:#000000;fill:#892ca0;fill-opacity:1;fill-rule:nonzero;stroke:none;stroke-width:1px;stroke-linecap:butt;stroke-linejoin:miter;marker:none;marker-start:none;marker-mid:none;marker-end:none;stroke-miterlimit:4;stroke-dashoffset:0;stroke-opacity:0.39215686;visibility:visible;display:inline;overflow:visible;enable-background:accumulate" id="rect8257"/>
  <path d="M 144.76431,53.18692 L 151.71886,48.13414 L 151.71886,43.14529 L 156.86572,43.14529 L 156.86572,33.12395 L 118.5807,33.12395 L 118.5807,43.14529 L 123.72756,43.14529 L 123.72756,48.13414 L 130.68211,53.18692 L 144.76431,53.18692 z " style="color:#000000;fill:#c83737;fill-opacity:1;fill-rule:nonzero;stroke:#c83737;stroke-width:0.94327486px;stroke-linecap:butt;stroke-linejoin:miter;marker:none;marker-start:none;marker-mid:none;marker-end:none;stroke-miterlimit:4;stroke-dashoffset:0;stroke-opacity:1;visibility:visible;display:inline;overflow:visible;enable-background:accumulate" id="path9255"/>
  <path d="M 174.94068,32.62198 L 213.98561,32.62198 L 213.98561,43.68041 L 194.46315,52.76231 L 174.94068,43.68041 L 174.94068,32.62198 z " style="color:#000000;fill:#00aa00;fill-opacity:1;fill-rule:nonzero;stroke:none;stroke-width:1px;stroke-linecap:butt;stroke-linejoin:miter;marker:none;marker-start:none;marker-mid:none;marker-end:none;stroke-miterlimit:4;stroke-dashoffset:0;stroke-opacity:0.39215686;visibility:visible;display:inline;overflow:visible;enable-background:accumulate" id="path10231"/>
  <path d="M 61.238243,59.66883 L 100.28317,59.66883 L 100.28317,70.72726 L 61.238243,70.72726 L 61.238243,59.66883 z M 96.790734,70.51028 C 96.790734,75.56914 92.949744,79.67488 88.217064,79.67488 C 83.484404,79.67488 78.037024,79.67488 73.304364,79.67488 C 68.571684,79.67488 64.730694,75.56914 64.730694,70.51028" style="color:#000000;fill:#ffcc00;fill-opacity:1;fill-rule:nonzero;stroke:none;stroke-width:1px;stroke-linecap:butt;stroke-linejoin:miter;marker:none;marker-start:none;marker-mid:none;marker-end:none;stroke-miterlimit:4;stroke-dashoffset:0;stroke-opacity:0.39215686;visibility:visible;display:inline;overflow:visible;enable-background:accumulate" id="rect9232"/>
  <path d="M 142.42279,79.15846 C 142.55538,77.65585 143.52765,74.34129 147.23996,74.2971 C 151.21715,74.24918 152.9852,70.77813 152.9852,70.77813 L 152.9852,70.14284 L 157.01792,70.14284 L 157.01792,60.15496 L 117.98342,60.15496 L 117.98342,70.14284 L 122.01614,70.14284 L 122.01614,70.77813 C 122.01614,70.77813 123.78419,74.24918 127.76138,74.2971 C 131.47369,74.34129 132.44596,77.65585 132.57855,79.15846 L 142.42279,79.15846 z " style="fill:#0066ff;fill-opacity:1;fill-rule:evenodd;stroke:#0066ff;stroke-width:1px;stroke-linecap:butt;stroke-linejoin:miter;stroke-opacity:1" id="path10233"/>
  <path d="M 199.74277,79.15844 C 199.74277,74.3526 203.64318,70.14283 208.44903,70.14283 L 213.70814,70.14283 L 213.70814,60.16601 L 174.77307,60.16601 L 174.77307,70.14283 L 180.03218,70.14283 C 184.83803,70.14283 188.73844,74.3526 188.73844,79.15844 L 199.74277,79.15844 z " style="color:#000000;fill:#d3bc5f;fill-opacity:1;fill-rule:nonzero;stroke:#d3bc5f;stroke-width:0.99999994px;stroke-linecap:butt;stroke-linejoin:miter;marker:none;marker-start:none;marker-mid:none;marker-end:none;stroke-miterlimit:4;stroke-dashoffset:0;stroke-opacity:1;visibility:visible;display:inline;overflow:visible;enable-background:accumulate" id="path11211"/>
  <text x="103.03276" y="18.711672" style="font-size:18px;font-family:Arial" id="text12212" xml:space="preserve"><tspan x="103.03276" y="18.711672" style="font-size:18px" id="tspan12214">Antigens</tspan></text>
  <text x="102.76469" y="350.38501" style="font-size:18px;font-family:Arial" id="text12216" xml:space="preserve"><tspan x="102.76469" y="350.38501" style="font-size:18px" id="tspan12218">Antibody</tspan></text>
  <text x="43.092396" y="110.71167" style="font-size:10px;font-family:Arial" id="text12226" xml:space="preserve"><tspan x="43.092396" y="110.71167" style="font-size:10px" id="tspan12228">Antigen</tspan></text>
  <text x="66.84874" y="134.23853" style="font-size:10px;font-family:Arial" id="text12234" xml:space="preserve"><tspan x="66.84874" y="134.23853" style="font-size:10px" id="tspan12236">Antigen-binding site</tspan></text>
  <path d="M 24.287338,128.765 L 41.788232,146.26589" style="fill:none;fill-opacity:0.75;fill-rule:evenodd;stroke:#000000;stroke-width:1;stroke-linecap:butt;stroke-linejoin:miter;stroke-miterlimit:4;stroke-dasharray:none;stroke-opacity:1" id="path12258"/>
  <rect width="13.928572" height="54.82143" x="-93.363617" y="153.56847" transform="matrix(0.7071068,-0.7071068,0.7071068,0.7071068,0,0)" style="color:#000000;fill:url(#linearGradient2437);fill-opacity:1;fill-rule:nonzero;stroke:none;stroke-width:1px;stroke-linecap:butt;stroke-linejoin:miter;marker:none;marker-start:none;marker-mid:none;marker-end:none;stroke-miterlimit:4;stroke-dasharray:none;stroke-dashoffset:0;stroke-opacity:1;visibility:visible;display:inline;overflow:visible;enable-background:accumulate" id="rect2170"/>
  <path d="M 52.420243,164.75837 L 91.184854,203.52297 L 81.335864,213.37196 L 42.571257,174.60735" style="color:#000000;fill:none;fill-opacity:1;fill-rule:nonzero;stroke:#5599ff;stroke-width:1px;stroke-linecap:butt;stroke-linejoin:miter;marker:none;marker-start:none;marker-mid:none;marker-end:none;stroke-miterlimit:4;stroke-dashoffset:0;stroke-opacity:1;visibility:visible;display:inline;overflow:visible;enable-background:accumulate" id="rect4130"/>
  <path d="M 18.403322,150.43942 L 21.542396,147.32121 L 22.703126,148.48194 C 25.497796,151.27661 30.034055,151.27661 32.828711,148.48195 L 34.463167,146.80129 L 52.117163,164.45529 L 42.268177,174.30427 L 18.403322,150.43942 z " style="color:#000000;fill:#ffcc00;fill-opacity:0.39215686;fill-rule:nonzero;stroke:#ff6600;stroke-width:1px;stroke-linecap:butt;stroke-linejoin:miter;marker:none;marker-start:none;marker-mid:none;marker-end:none;stroke-miterlimit:4;stroke-dashoffset:0;stroke-opacity:0.39215686;visibility:visible;display:inline;overflow:visible;enable-background:accumulate" id="path5103"/>
  <path d="M 69.435004,147.74361 L 59.586014,157.5926 L 109.46497,207.77276 L 123.62468,201.9333 L 69.435004,147.74361 z " style="color:#000000;fill:url(#linearGradient2432);fill-opacity:1;fill-rule:nonzero;stroke:none;stroke-width:1px;stroke-linecap:butt;stroke-linejoin:miter;marker:none;marker-start:none;marker-mid:none;marker-end:none;stroke-miterlimit:4;stroke-dashoffset:0;stroke-opacity:1;visibility:visible;display:inline;overflow:visible;enable-background:accumulate" id="rect6095"/>
  <path d="M 45.267066,123.57568 L 42.148853,126.71475 L 43.309582,127.87548 C 46.104252,130.67015 46.104252,135.20641 43.309597,138.00106 L 41.628938,139.63552 L 59.282934,157.28952 L 69.131924,147.44053 L 45.267066,123.57568 z " style="color:#000000;fill:#ffcc00;fill-opacity:1;fill-rule:nonzero;stroke:#ff6600;stroke-width:1px;stroke-linecap:butt;stroke-linejoin:miter;marker:none;marker-start:none;marker-mid:none;marker-end:none;stroke-miterlimit:4;stroke-dashoffset:0;stroke-opacity:1;visibility:visible;display:inline;overflow:visible;enable-background:accumulate" id="path6099"/>
  <path d="M 123.60814,315.09502 L 109.67957,315.09502 L 109.67957,207.68105 L 123.5808,201.95059 L 123.60814,315.09502 z " style="color:#000000;fill:url(#linearGradient2428);fill-opacity:1;fill-rule:nonzero;stroke:none;stroke-width:1px;stroke-linecap:butt;stroke-linejoin:miter;marker:none;marker-start:none;marker-mid:none;marker-end:none;stroke-miterlimit:4;stroke-dashoffset:0;stroke-opacity:1;visibility:visible;display:inline;overflow:visible;enable-background:accumulate" id="path6120"/>
  <path d="M 69.435004,147.74361 L 123.60819,201.91681 L 123.60814,315.1834 L 109.67957,315.1834 L 109.68076,207.6895 L 59.586014,157.5926" style="color:#000000;fill:none;fill-opacity:1;fill-rule:nonzero;stroke:#5599ff;stroke-width:1px;stroke-linecap:butt;stroke-linejoin:miter;marker:none;marker-start:none;marker-mid:none;marker-end:none;stroke-miterlimit:4;stroke-dashoffset:0;stroke-opacity:1;visibility:visible;display:inline;overflow:visible;enable-background:accumulate" id="path6097"/>
  <path d="M 38.41796,146.79208 L 41.029094,145.50676 L 42.314412,142.89562 L 43.740617,148.21828 L 38.41796,146.79208 z " style="color:#000000;fill:#000000;fill-opacity:1;fill-rule:nonzero;stroke:none;stroke-width:2;stroke-linecap:butt;stroke-linejoin:miter;marker:none;marker-start:none;marker-mid:none;marker-end:none;stroke-miterlimit:4;stroke-dashoffset:0;stroke-opacity:1;visibility:visible;display:inline;overflow:visible;enable-background:accumulate" id="path13231"/>
  <path d="M 66.029894,130.28699 L 64.936144,130.41199 L 50.654894,131.91199 L 50.779894,132.91199 L 63.873644,131.53699 L 41.467394,162.41199 L 42.279894,163.00574 L 65.373644,131.19324 L 66.029894,130.28699 z " style="fill:none;fill-opacity:1;fill-rule:evenodd;stroke:#ffffff;stroke-width:2;stroke-linecap:butt;stroke-linejoin:miter;stroke-miterlimit:4;stroke-dasharray:none;stroke-opacity:1" id="path15180"/>
  <path d="M 50.717394,132.39917 L 64.980624,130.90005 L 41.878039,162.69803" style="fill:none;fill-opacity:0.75;fill-rule:evenodd;stroke:#000000;stroke-width:1px;stroke-linecap:butt;stroke-linejoin:miter;stroke-opacity:1" id="path15178"/>
</svg>