<?xml version="1.0" encoding="UTF-8" standalone="no"?>
<svg
   xmlns:dc="http://purl.org/dc/elements/1.1/"
   xmlns:cc="http://creativecommons.org/ns#"
   xmlns:rdf="http://www.w3.org/1999/02/22-rdf-syntax-ns#"
   xmlns:svg="http://www.w3.org/2000/svg"
   xmlns="http://www.w3.org/2000/svg"
   xmlns:xlink="http://www.w3.org/1999/xlink"
   xmlns:sodipodi="http://sodipodi.sourceforge.net/DTD/sodipodi-0.dtd"
   xmlns:inkscape="http://www.inkscape.org/namespaces/inkscape"
   viewBox="0 0 87.5 100"
   version="1.1"
   id="svg45"
   sodipodi:docname="aws-batch_logo.svg"
   width="87.5"
   height="100"
   style="fill:#ffffff;fill-rule:evenodd;stroke:#000000;stroke-linecap:round;stroke-linejoin:round"
   inkscape:version="0.92.3 (2405546, 2018-03-11)">
  <metadata
     id="metadata51">
    <rdf:RDF>
      <cc:Work
         rdf:about="">
        <dc:format>image/svg+xml</dc:format>
        <dc:type
           rdf:resource="http://purl.org/dc/dcmitype/StillImage" />
        <dc:title></dc:title>
      </cc:Work>
    </rdf:RDF>
  </metadata>
  <defs
     id="defs49" />
  <sodipodi:namedview
     pagecolor="#ffffff"
     bordercolor="#666666"
     borderopacity="1"
     objecttolerance="10"
     gridtolerance="10"
     guidetolerance="10"
     inkscape:pageopacity="0"
     inkscape:pageshadow="2"
     inkscape:window-width="1920"
     inkscape:window-height="1015"
     id="namedview47"
     showgrid="false"
     fit-margin-top="0"
     fit-margin-left="0"
     fit-margin-right="0"
     fit-margin-bottom="0"
     inkscape:zoom="2.7764706"
     inkscape:cx="34.9995"
     inkscape:cy="39.999996"
     inkscape:window-x="0"
     inkscape:window-y="0"
     inkscape:window-maximized="1"
     inkscape:current-layer="svg45" />
  <g
     id="g859"
     transform="matrix(1.25,0,0,1.25,4.529953e-8,-25)">
    <use
       height="100%"
       width="100%"
       id="use2"
       y="2.5"
       x="2.188"
       xlink:href="#A"
       transform="translate(-4.529953e-8,-4e-6)" />
  </g>
  <symbol
     id="A"
     overflow="visible"
     style="overflow:visible"
     transform="translate(-2.188,17.500004)">
    <g
       id="g42"
       style="stroke:none">
      <path
         d="M 8.696,33.27 18.608,19.22 30.776,33.064 20.308,33.971 8.696,33.268 Z"
         id="path4"
         inkscape:connector-curvature="0"
         style="fill:#6b3a19" />
      <path
         d="m 31.878,46.73 -10.5,-0.868 -12.683,0.75 9.912,14.03 13.27,-13.912 z"
         id="path6"
         inkscape:connector-curvature="0"
         style="fill:#fbbf93" />
      <path
         d="M 18.608,60.644 8.696,57.64 V 46.615 l 9.912,1.132 21.142,3.873 z"
         id="path8"
         inkscape:connector-curvature="0"
         style="fill:#9d5025" />
      <path
         d="M 57.07,44.8 18.608,47.756 V 60.654 L 57.07,52.77 Z"
         id="path10"
         inkscape:connector-curvature="0"
         style="fill:#f58536" />
      <path
         d="M 70,54.04 56.72,52.48 20.144,59.758 35,80 Z"
         id="path12"
         inkscape:connector-curvature="0"
         style="fill:#fbbf93" />
      <path
         d="m 18.608,32.118 -9.912,1.15 V 22.245 l 9.912,-3.024 25.634,10.224 z M 7.006,45.347 0,44.683 V 35.317 L 7.006,34.654 31.58,40 Z"
         id="path14"
         inkscape:connector-curvature="0"
         style="fill:#9d5025" />
      <path
         d="M 39.06,43.825 7.006,45.347 V 34.654 l 32.053,1.522 v 7.65 z m 21.832,-8.4 -42.284,-3.307 V 19.22 l 42.284,8.712 z"
         id="path16"
         inkscape:connector-curvature="0"
         style="fill:#f58536" />
      <g
         id="g22"
         style="fill:#6b3a19">
        <path
           d="M 70,25.94 56.72,27.5 20.144,20.222 35,0 Z"
           id="path18"
           inkscape:connector-curvature="0" />
        <path
           d="M 70,38.586 56.72,38.742 20.143,38 35,21.58 70,38.585 Z"
           id="path20"
           inkscape:connector-curvature="0" />
      </g>
      <path
         d="M 70,41.395 56.72,41.239 20.144,41.961 35,58.38 Z"
         id="path24"
         inkscape:connector-curvature="0"
         style="fill:#fbbf93" />
      <path
         d="M 35,16 20.143,20.224 V 7.024 L 35,0 63.746,17.688 Z"
         id="path26"
         inkscape:connector-curvature="0"
         style="fill:#9d5025" />
      <path
         d="M 70,16.566 35,0 v 16 l 35,9.94 v -9.376 z"
         id="path28"
         inkscape:connector-curvature="0"
         style="fill:#f58536" />
      <path
         d="M 35,37.58 20.143,38 V 24.8 L 35,21.58 63.746,33.27 Z"
         id="path30"
         inkscape:connector-curvature="0"
         style="fill:#9d5025" />
      <path
         d="M 70,38.586 35,37.58 v -16 l 35,7.63 z"
         id="path32"
         inkscape:connector-curvature="0"
         style="fill:#f58536" />
      <path
         d="M 35,58.38 20.143,55.15 V 41.95 L 35,42.38 63.746,48.146 Z"
         id="path34"
         inkscape:connector-curvature="0"
         style="fill:#9d5025" />
      <path
         d="m 35,42.38 35,-0.985 v 9.376 l -35,7.6 v -16 z"
         id="path36"
         inkscape:connector-curvature="0"
         style="fill:#f58536" />
      <path
         d="M 35,79.97 20.143,72.936 V 59.756 L 35,63.96 65.415,61.667 Z"
         id="path38"
         inkscape:connector-curvature="0"
         style="fill:#9d5025" />
      <path
         d="M 70,63.434 35,80 V 63.96 l 35,-9.922 v 9.395 z"
         id="path40"
         inkscape:connector-curvature="0"
         style="fill:#f58536" />
    </g>
  </symbol>
</svg>
