<?xml version="1.0" encoding="UTF-8" standalone="no"?>
<!-- Created with Inkscape (http://www.inkscape.org/) -->

<svg
   xmlns:dc="http://purl.org/dc/elements/1.1/"
   xmlns:cc="http://creativecommons.org/ns#"
   xmlns:rdf="http://www.w3.org/1999/02/22-rdf-syntax-ns#"
   xmlns:svg="http://www.w3.org/2000/svg"
   xmlns="http://www.w3.org/2000/svg"
   xmlns:sodipodi="http://sodipodi.sourceforge.net/DTD/sodipodi-0.dtd"
   xmlns:inkscape="http://www.inkscape.org/namespaces/inkscape"
   version="1.1"
   id="svg2"
   xml:space="preserve"
   width="258.97141"
   height="74.666664"
   viewBox="0 0 258.97141 74.666664"
   sodipodi:docname="Barncancerfonden.svg"
   inkscape:version="0.92.3 (2405546, 2018-03-11)"><metadata
     id="metadata8"><rdf:RDF><cc:Work
         rdf:about=""><dc:format>image/svg+xml</dc:format><dc:type
           rdf:resource="http://purl.org/dc/dcmitype/StillImage" /><dc:title></dc:title></cc:Work></rdf:RDF></metadata><defs
     id="defs6" /><sodipodi:namedview
     pagecolor="#ffffff"
     bordercolor="#666666"
     borderopacity="1"
     objecttolerance="10"
     gridtolerance="10"
     guidetolerance="10"
     inkscape:pageopacity="0"
     inkscape:pageshadow="2"
     inkscape:window-width="770"
     inkscape:window-height="480"
     id="namedview4"
     showgrid="false"
     inkscape:zoom="1.2317962"
     inkscape:cx="129.4857"
     inkscape:cy="37.333332"
     inkscape:window-x="0"
     inkscape:window-y="0"
     inkscape:window-maximized="0"
     inkscape:current-layer="g10" /><g
     id="g10"
     inkscape:groupmode="layer"
     inkscape:label="Barncancerfonden"
     transform="matrix(1.3333333,0,0,-1.3333333,0,74.666667)"><g
       id="g12"><path
         d="M 4.461,50.414 H 43.875 V 2.801 H 4.461 Z"
         style="fill:#ffffff;fill-opacity:1;fill-rule:nonzero;stroke:none"
         id="path14"
         inkscape:connector-curvature="0" /><path
         d="m 22.891,39.691 c 0,0 0.027,0.149 0.277,0.067 3.469,-1.067 6.316,-1.625 7.668,-1.82 3.187,-0.461 4.586,-0.782 8.777,-1.118 0,0 -0.078,0.075 -0.027,-0.316 0.047,-0.359 0.07,-0.617 0.168,-1.504 0.144,-1.281 0.473,-2.57 0.527,-2.887 0.11,-0.633 -0.176,-0.691 -0.238,-1.156 0,0 0.254,-0.523 0.269,-0.687 0.028,-0.192 0.211,-0.598 -0.511,-0.368 -0.637,0.203 -2.289,0.598 -2.555,0.692 0,0 0.039,0.043 0,0.461 -0.058,0.461 -0.027,0.726 -0.285,1.039 -0.156,0.191 -0.418,0.523 -0.629,0.738 -0.105,0.109 -1.602,1.305 -3.039,1.59 -0.586,0.109 -1.414,-0.137 -2.543,-0.652 0,0 -0.348,-0.61 -0.832,-0.403 -1.508,0.641 -6.723,3.613 -7.453,4.125 0,0 -0.238,0.031 -0.082,0.375 0.144,0.324 0.429,1.539 0.515,1.824"
         style="fill:#ffd200;fill-opacity:1;fill-rule:nonzero;stroke:none"
         id="path16"
         inkscape:connector-curvature="0" /><path
         d="m 6.32,19.164 c 0,0 -0.136,0.027 -0.152,0.184 0,0.066 -0.035,0.218 -0.043,0.304 -0.039,0.461 -0.051,1.18 -0.117,2.032 -0.031,0.375 -0.09,0.757 -0.121,1.156 -0.047,0.75 -0.055,1.426 -0.071,2.148 -0.031,1.117 0.004,2.282 0.028,2.696 0,0.089 -0.028,-0.11 0,0 0.035,0.136 0.254,0.351 0.324,0.507 0.148,0.344 0.402,0.676 0.644,1.071 0.735,1.222 1.583,2.695 1.942,3.203 0.164,0.226 0.379,0.426 0.558,0.637 0.473,0.535 0.922,1.011 1.126,1.148 0.285,0.188 0.269,0.238 0.652,-0.035 0.09,-0.063 0.187,-0.09 0.273,-0.153 0.157,-0.105 0.375,-0.218 0.539,-0.304 0.227,-0.117 0.368,-0.238 0.465,-0.278 0.403,-0.175 0.238,-0.203 0.055,-0.636 C 12.191,32.301 11.918,31.758 11.664,31.156 11.492,30.754 11.305,30.32 11.125,29.898 10.922,29.41 10.672,28.938 10.457,28.43 9.762,26.781 9.008,25.055 8.262,23.355 7.695,22.07 7.137,20.805 6.59,19.594 6.551,19.508 6.504,19.406 6.461,19.32 6.422,19.242 6.367,19.242 6.328,19.164"
         style="fill:#ffd200;fill-opacity:1;fill-rule:nonzero;stroke:none"
         id="path18"
         inkscape:connector-curvature="0" /><path
         d="m 16.457,17.273 c 0,0 -4.051,-0.714 -6.523,0.145 0,0 1.425,7.379 5.285,15.332 l 1.855,0.094 c 0,0 0.477,-3.477 0.383,-5.43 -0.094,-1.953 -0.57,-4.426 -0.621,-5.234 -0.047,-0.813 -0.379,-3.809 -0.379,-4.907"
         style="fill:#ffd200;fill-opacity:1;fill-rule:nonzero;stroke:none"
         id="path20"
         inkscape:connector-curvature="0" /><path
         d="m 7.645,13.34 c 0,0 3.789,-0.289 20.39,-0.004 0,0 0,-0.656 -0.058,-1.098 C 27.516,8.594 27.078,7.426 26.73,6.281 26.379,5.137 25.996,3.836 25.332,3.203 c 0,0 -8.074,-0.441 -17.535,1.684 0,0 -0.91,5.121 -1.195,8.453 -0.028,0.285 0.343,0 1.043,0"
         style="fill:#ffd200;fill-opacity:1;fill-rule:nonzero;stroke:none"
         id="path22"
         inkscape:connector-curvature="0" /><path
         d="m 30.117,3.672 c 0,0 0.137,2.043 0.485,4.105 0.152,0.914 0.781,2.657 1.957,4.098 0,0 0.918,-1.301 1.207,-4.121 0.254,-2.469 0.172,-2.758 0.172,-3.996 0,0 -2.043,-0.227 -3.821,-0.086"
         style="fill:#ffd200;fill-opacity:1;fill-rule:nonzero;stroke:none"
         id="path24"
         inkscape:connector-curvature="0" /><path
         d="m 36.328,13.422 c 0,0 2.078,-0.082 2.238,-0.082 0.157,0 1.645,0.195 2.516,0.144 0,0 0,-3.367 -0.043,-4.32 C 41.008,8.215 40.98,8.066 40.824,4.91 c 0,0 -0.676,-0.308 -1.976,-0.5 0,0 -1.192,3.914 -1.41,4.578 -0.223,0.668 -0.918,3.668 -1.012,4.016 -0.098,0.351 -0.098,0.418 -0.098,0.418"
         style="fill:#ffd200;fill-opacity:1;fill-rule:nonzero;stroke:none"
         id="path26"
         inkscape:connector-curvature="0" /><path
         d="m 35.805,18.766 c 0.359,1.336 1.824,3.3 2.207,3.714 0.101,0.11 0.265,0.321 0.484,0.551 0.414,0.442 0.848,0.875 1.184,1.215 0.242,0.246 0.644,0.602 0.75,0.707 0,0 0.16,0.152 0.609,-0.027 0,0 0.149,-6.602 0.035,-6.778 0,0 -1.699,0.379 -2.683,0.454 -0.43,0.031 -1.348,0.093 -1.746,0.062 -0.395,-0.031 -0.524,0.027 -0.524,0.027 0,0 -0.273,0 -0.316,0.082"
         style="fill:#ffd200;fill-opacity:1;fill-rule:nonzero;stroke:none"
         id="path28"
         inkscape:connector-curvature="0" /><path
         d="m 21.133,35.496 c 0,0 0.031,0.027 0.109,-0.051 0.227,-0.199 0.707,-0.617 0.707,-0.617 l 1.414,-1.207 1.375,-1.062 1.336,-1.047 1.477,-1.098 0.859,-0.617 0.188,-0.129 -0.188,-0.633 -0.129,-0.43 0.078,-0.417 0.457,-0.477 0.516,-0.695 0.375,-0.457 0.273,-0.86 0.079,-0.566 -0.079,-0.559 -0.097,-0.265 -0.461,-0.606 c 0,0 -0.914,-0.004 -2.488,0.746 -0.481,0.223 -1.079,0.844 -1.801,1.645 -0.445,0.488 -0.742,0.894 -1.094,1.629 -0.211,0.453 -0.344,0.746 -0.312,1.14 0.027,0.176 0.109,0.254 0.156,0.598 0,0 0.14,0.254 0.324,0.551 0.148,0.234 0.242,0.371 0.242,0.371 0,0 0.172,0.117 0.207,0.191 0.028,0.055 0.137,0.348 0.098,0.395 -0.035,0.043 -0.238,-0.121 -0.324,-0.153 -0.235,-0.089 -0.371,-0.152 -0.371,-0.152 0,0 -0.371,-0.172 -0.411,0.043 -0.07,0.387 -0.089,0.402 -0.089,0.648 -0.004,0.34 -0.059,0.286 0.109,0.696 0.055,0.137 0.113,0.394 0.109,0.523 l 0.043,0.434 -0.414,0.109 c 0,0 -0.465,0 -0.519,-0.047 -0.891,-0.582 -0.957,-1.168 -1.336,-2.226 -0.055,-0.149 0.043,-0.367 0.027,-0.571 0,-0.128 0.027,-0.273 0.027,-0.39 0,-0.071 0.047,-0.094 0.04,-0.156 -0.047,-0.368 0.23,-0.567 0.304,-0.801 0.098,-0.321 -0.219,-0.172 -0.133,-0.52 0,0 -0.054,0.043 -0.195,-0.066 -0.105,-0.086 0.031,-0.399 0.074,-0.555 0.028,-0.109 0.086,-0.23 0.141,-0.387 0.062,-0.16 0.336,-0.695 0.691,-1.343 0.508,-0.942 1.344,-2.043 2.043,-2.996 0.309,-0.422 0.602,-0.797 0.84,-1.125 0.285,-0.395 0.504,-0.711 0.633,-0.852 0,0 1.109,-1.43 1.488,-2.242 0.067,-0.137 0.137,-0.285 0.157,-0.391 0,0 0,-0.027 -0.118,-0.031 -0.629,-0.043 -1.422,-0.063 -2.172,-0.207 -0.586,-0.113 -0.996,-0.188 -1.671,-0.301 -0.891,-0.156 -1.696,-0.277 -2.211,-0.387 -0.102,-0.031 -0.133,-0.031 -0.211,-0.035 0,0 -0.094,-0.039 -0.102,0.145 -0.035,0.515 -0.215,1.652 -0.277,3.148 -0.039,0.907 -0.414,3.446 -0.781,6.071 -0.165,1.175 -0.36,2.386 -0.52,3.437 -0.117,0.777 -0.242,1.481 -0.316,2.055 -0.086,0.652 -0.161,1.109 -0.207,1.324 0,0 0.96,0.758 1.929,1.754 0.031,0.035 0.082,0.035 0.117,0.074"
         style="fill:#ffd200;fill-opacity:1;fill-rule:nonzero;stroke:none"
         id="path30"
         inkscape:connector-curvature="0" /><path
         d="m 33.832,25.711 0.219,0.305 c 0,0 0.273,-0.254 0.398,-0.196 l 0.281,-0.066 0.09,0.391 0.063,0.117 0.066,0.105 h 0.125 c 0.703,-0.269 1.399,-0.543 2.11,-0.781 l 0.027,-0.051 -0.055,-0.058 c 0,0 -0.496,-0.262 -0.621,-0.352 -0.129,-0.09 -0.562,-0.246 -0.652,-0.258 -0.293,-0.051 -0.969,-0.238 -1.672,-0.199 -0.469,0.027 -0.414,0.086 -0.414,0.086 0,0 -0.137,-0.063 -0.129,0.066 0,0.129 0.055,0.559 0.176,0.891"
         style="fill:#ffd200;fill-opacity:1;fill-rule:nonzero;stroke:none"
         id="path32"
         inkscape:connector-curvature="0" /><path
         d="m 23.027,43.938 c 0,0 2.922,1.078 6.731,1.554 1.969,0.246 6.058,0.664 7.078,0.539 0,0 0.633,-1.566 0.984,-2.551 0.348,-0.984 0.66,-1.867 0.696,-2.664 0,0 -4.024,-1.23 -8.11,-0.324 -3.906,0.867 -6.586,1.348 -7.125,1.602 0,0 -0.191,1.144 -0.254,1.844"
         style="fill:#ffd200;fill-opacity:1;fill-rule:nonzero;stroke:none"
         id="path34"
         inkscape:connector-curvature="0" /><path
         d="m 22.773,45.84 -0.378,0.156 c 0,0 -0.196,0.555 -4.829,2.84 l 0.348,0.066 0.371,0.063 c 0,0 2.172,0.527 4.809,0.59 2.601,0.062 6.078,0.125 7.629,-0.414 0,0 -4.903,-1.653 -7.95,-3.301"
         style="fill:#ffd200;fill-opacity:1;fill-rule:nonzero;stroke:none"
         id="path36"
         inkscape:connector-curvature="0" /><path
         d="m 15.441,35.652 c 0,0 -0.921,0.192 -1.367,0.379 -0.441,0.196 -2.219,1.145 -2.344,1.305 -0.128,0.16 -0.738,1.25 -0.855,1.711 -0.059,0.219 -0.039,0.414 0,1.812 0.027,1.395 0.887,2.703 1.043,2.856 0.582,0.562 3.227,2.094 3.719,2.094 0.883,0 3.351,-0.817 3.644,-1.11 0.16,-0.156 0.606,-1.269 0.606,-1.269 L 19.918,42 c 0,0 -0.094,-1.047 -0.129,-1.461 -0.031,-0.414 0,-1.711 -0.664,-2.504 -0.668,-0.797 -2.699,-2.16 -3.684,-2.383"
         style="fill:#ffd200;fill-opacity:1;fill-rule:nonzero;stroke:none"
         id="path38"
         inkscape:connector-curvature="0" /><path
         d="m 6.449,33.684 c -0.261,-0.262 0.891,6.66 1.781,7.773 0,0 0.704,-4.215 1.211,-5.332 0,0 -2.39,-1.84 -2.992,-2.441"
         style="fill:#ffd200;fill-opacity:1;fill-rule:nonzero;stroke:none"
         id="path40"
         inkscape:connector-curvature="0" /><path
         d="M 46.934,54.695 C 17.262,55.336 1.285,52.133 1.285,52.133 -1.734,13.234 1.512,1.012 1.512,1.012 15.367,-0.512 47.398,0.906 47.398,0.906 47.891,47.504 46.934,54.695 46.934,54.695 M 33.777,3.848 c 0,0 -2.589,-0.25 -3.226,-0.059 0,0 0.027,2.133 0.59,4.106 0.421,1.472 0.902,2.914 1.492,3.406 0,0 0.379,-0.328 0.648,-1.688 0.297,-1.484 0.645,-3.769 0.496,-5.765 m 0.739,21.066 c -0.332,0 -0.618,0.031 -0.551,0.297 0,0 0,0.117 0.148,0.469 0.028,0.035 0.039,0.054 0.059,0.09 h 0.027 c 0,0 0.028,-0.036 0.028,-0.051 0.039,-0.039 0.082,-0.086 0.156,-0.157 0,0 0.027,-0.117 0.238,-0.152 0,0 0.098,0 0.07,0.152 -0.027,0.106 0.043,0.098 0.051,0.083 0.047,-0.047 0.156,-0.172 0.242,-0.239 0.051,-0.043 0.075,-0.078 0.168,-0.035 0.039,0.027 0,0.055 0,0.074 -0.007,0.028 -0.031,0.067 -0.043,0.153 -0.027,0.062 0,0.136 0,0.23 0,0.067 0,0.117 0.039,0.172 0,0.027 0.063,0.027 0.075,0.051 0.027,0.047 -0.032,0.09 0,0.14 0,0 -0.075,-0.039 0.086,0.121 0,0 0.05,0 0.136,0.028 0.051,0.027 0.028,0.129 0.039,0.18 0.051,0.097 0,0.07 0.118,0.179 0.351,0.348 0.324,0.227 1.121,0.93 0,0 0.3,0.082 0.547,0.906 0.179,0.578 0.335,1.27 0.398,1.774 0.027,0.113 0,0.101 0.027,0.211 0,0.109 -0.027,0.164 -0.027,0.273 0,0.41 -0.066,0.797 -0.191,1.187 0,0 -0.247,0.442 -0.598,0.77 -0.508,0.484 -1.106,0.941 -1.582,1.223 -0.043,0.027 -0.051,0.16 -0.539,0.347 -0.41,0.157 -0.469,0.242 -1.313,0.364 -1.148,0.156 -0.808,0.078 -1.121,0 C 32.176,34.645 32.246,34.566 31.973,34.52 31.789,34.484 31.559,34.406 31.277,34.305 30.77,34.109 30.066,33.57 29.812,33.285 29.559,33 29.75,33.188 29.559,32.934 c 0,0 0.027,-0.059 0.078,-0.11 0.066,-0.047 0.136,-0.125 0.238,-0.195 0,0 -0.547,-0.524 -0.57,-1.258 0,0 -0.985,-0.285 -1.18,-2.957 0,0 -0.102,-0.168 0.273,-0.492 0,0 1.106,-1.02 1.477,-2.34 0,0 0.352,-0.543 -0.57,-1.344 0,0 -0.047,-0.05 -0.7,0.137 -1.64,0.465 -3.437,2.113 -4.003,3.586 -0.161,0.426 -0.332,0.73 -0.454,1.176 0,0 0.04,0.175 0.141,0.394 0.145,0.305 0.367,0.731 0.688,1.047 0,0 0.636,0.692 -0.301,0.578 0,0 -0.121,-0.027 -0.332,-0.097 -0.106,-0.043 -0.207,-0.118 -0.371,-0.161 0,0 -0.059,0.004 -0.071,0.11 -0.035,0.226 0,0.683 0,0.965 0,0.41 0.27,0.625 0.207,1.136 0,0 -0.05,0.399 -0.527,0.079 0,0 -0.297,1.148 -1.687,-0.876 -0.852,-1.242 -0.309,-3.078 -0.086,-3.57 0,0 0,-0.051 -0.043,-0.094 -0.051,-0.05 -0.114,-0.086 -0.27,-0.191 -0.164,-0.117 -0.047,-0.234 -0.027,-0.359 0.031,-0.129 0.097,-0.383 0.449,-1.211 0.148,-0.352 0.473,-0.934 0.957,-1.703 0.625,-0.985 1.406,-2.161 2.844,-3.872 0,0 0.949,-1.054 1.64,-2.632 0.395,-0.895 0.383,-2.395 0.383,-3.278 0,-2.859 -0.441,-6.367 -1.101,-8.511 C 26.559,6.613 26.496,6.367 26.422,6.145 26.387,6.035 26.266,5.949 26.23,5.852 c -0.035,-0.106 0.028,-0.18 0,-0.27 -0.503,-1.344 -0.734,-1.52 -0.835,-1.668 -0.094,-0.144 0,-0.281 -0.379,-0.312 -0.125,0 -0.317,0.027 -0.582,0.031 -0.493,0.027 -0.918,-0.004 -1.243,0 -0.367,0.008 -0.66,0.051 -0.66,0.051 L 22.332,3.73 22.23,3.523 20.82,3.578 19.922,3.625 h -0.383 c 0,0 -0.211,-0.047 -0.414,-0.031 -0.191,0.027 -0.379,0.062 -0.379,0.062 L 18.477,3.594 c 0,0 -1.165,0.16 -1.387,0.129 -0.129,-0.032 -0.164,-0.032 -0.176,-0.032 0,0 0,-0.066 -0.141,-0.039 -0.593,0.11 -2.003,0.278 -2.003,0.278 0,0 -0.458,0.027 -1.036,0.078 -0.672,0.07 -1.484,0.176 -1.484,0.176 0,0 -0.797,0.168 -1.645,0.308 C 10.332,4.539 10.086,4.559 9.828,4.625 9.234,4.773 8.812,4.887 8.68,4.922 8.332,5.02 8.055,5.004 8.055,5.246 c 0,0 -0.055,0.246 -0.16,0.996 -0.071,0.547 -0.18,1.043 -0.254,1.617 -0.235,1.801 -0.5,4.297 -0.852,7.309 -0.055,0.441 -0.09,1.461 -0.117,1.922 0,0.101 -0.098,0.199 -0.102,0.308 -0.027,0.981 -0.05,1.719 -0.09,2.672 -0.066,1.688 -0.14,3.414 -0.136,5.18 0.004,0.344 -0.071,0.324 -0.063,0.668 0.004,0.344 0.067,0.664 0.074,1.008 0.032,1.25 0.047,2.527 0.133,3.773 0.047,0.707 0.071,1.551 0.141,2.242 0.027,0.239 0.152,0.481 0.144,0.715 -0.027,0.473 0,0.664 0.071,1.133 0.105,0.828 0.297,1.555 0.445,2.352 0.191,1.007 0.582,2.269 0.891,3.125 0.027,0.07 -0.032,0.136 0,0.199 0.136,0.394 0.246,0.738 0.472,1.097 0.121,0.188 0,0.106 0.09,0.297 0.082,0.157 0.028,0.274 0.113,0.426 0.129,0.227 0.438,1.039 0.813,1.992 0.035,0.102 0.144,0.114 0.187,0.211 0.356,0.801 0.512,1.059 1.2,2.153 0,0 0.574,0.207 1.55,0.539 0.344,0.117 0.317,0.093 0.747,0.254 0.136,0.054 0.363,0.187 0.382,0.211 0,0 0,-0.004 0,0 0.032,0 0.305,0.035 0.758,0.14 0.133,0.031 0.313,0.11 0.516,0.211 0.156,0.078 0.336,0.184 0.445,0.203 0.145,0.028 0.293,0.028 0.449,0.039 0.336,0.059 0.629,0.203 1.012,0.266 0.391,0.07 0.766,0.184 1.188,0.246 0.586,0.09 1.179,0.223 1.789,0.293 0.359,0.039 0.664,0.117 1.019,0.137 0.063,0 0.16,0.113 0.223,0.117 0.058,0 0.113,-0.078 0.176,-0.078 0.632,0.039 1.238,0.07 1.773,0.093 0.508,0.028 0.977,0.04 1.422,0.055 0.066,0.004 0.141,0.078 0.207,0.078 0.051,0.004 0.105,-0.062 0.152,-0.058 0.086,0.004 0.129,0.121 0.215,0.125 0.082,0 0.121,-0.028 0.207,-0.028 H 25.5 c 0.062,0 0.121,-0.101 0.18,-0.101 0.336,0 0.605,0.027 0.902,0.027 0.082,0 0.148,-0.152 0.23,-0.152 0.231,-0.008 0.438,0.051 0.653,0.062 0.355,0.028 0.68,0.043 0.98,0.004 0.379,-0.047 0.727,-0.172 1.094,-0.215 0.152,-0.027 0.18,-0.07 0.324,-0.089 0.063,0 0.254,-0.118 0.309,-0.125 0.121,-0.028 0.203,0.054 0.32,0.035 0.203,-0.035 0.399,-0.035 0.586,-0.114 0.125,-0.054 0.145,-0.125 0.266,-0.148 0.168,-0.039 0.445,-0.07 0.609,-0.109 0.449,-0.11 0.883,-0.204 1.27,-0.371 1.496,-0.633 2.531,-1.079 3.332,-2.243 0.082,-0.113 0.109,-0.32 0.168,-0.468 0.113,-0.282 0.246,-0.539 0.367,-0.84 0.211,-0.532 0.539,-1.094 0.703,-1.848 0.066,-0.328 0.172,-0.445 0.254,-0.777 0.027,-0.121 0,-0.184 0.027,-0.305 0.028,-0.125 0.082,-0.117 0.114,-0.242 0.273,-1.055 0.578,-2.153 0.851,-3.219 0.027,-0.09 -0.027,-0.125 0,-0.219 0.031,-0.109 0,-0.211 0.039,-0.324 0.176,-0.707 0.293,-1.402 0.442,-2.058 0.125,-0.559 0.144,-0.977 0.191,-1.282 0.086,-0.574 0.105,-0.879 0.203,-1.488 0,0 0,-0.109 0.047,-0.285 0.031,-0.063 0.051,-0.188 0.051,-0.266 0,-0.125 0.125,-0.265 0.062,-0.394 -0.183,-0.395 -0.16,-0.586 -0.16,-0.836 0,0 0.098,-0.227 0.176,-0.418 0.129,-0.309 0.355,-0.188 -0.125,-1.563 -0.317,-0.89 -1.363,-2.14 -2.5,-3.023 -0.106,-0.086 -0.192,-0.195 -0.289,-0.27 -0.09,-0.062 -0.199,-0.082 -0.324,-0.168 -0.332,-0.23 -0.993,-0.644 -1.473,-0.644 0,0 -0.461,-0.082 -0.856,-0.094 M 40.742,4.887 c 0,0 -0.765,-0.301 -1.594,-0.446 0,0 -2.699,7.957 -2.988,11.52 -0.285,3.562 0.574,4.773 4.649,8.816 0,0 0.296,-15.605 -0.067,-19.89"
         style="fill:#0057a8;fill-opacity:1;fill-rule:nonzero;stroke:none"
         id="path42"
         inkscape:connector-curvature="0" /><path
         d="m 162.523,55.988 c -2.222,-0.066 -4.316,-0.879 -5.8,-3.308 -1.485,-2.43 -1.825,-6.957 -1.825,-6.957 v 9.047 l -4.117,-0.063 0.403,-15.121 -4.047,15.656 -5.129,-0.199 -0.137,-21.672 -2.637,21.336 -7.824,-0.07 -2.226,-13.973 -4.594,-0.269 c -0.203,-6.008 -1.957,-4.79 -1.957,-4.79 -2.496,-0.339 -1.953,7.829 -1.953,7.829 0.672,8.097 2.828,8.3 2.828,8.3 2.293,-0.539 1.117,-4.589 1.117,-4.589 h 4.66 c 1.211,3.14 0.199,4.964 0.199,4.964 -1.214,3.743 -5.773,3.539 -5.773,3.539 -8.809,-0.91 -8.301,-13.769 -8.301,-13.769 -0.273,-10.734 6.953,-10.324 6.953,-10.324 4.793,-0.746 5.805,3.101 5.805,3.101 l -0.543,-4.32 5.133,0.269 0.808,5.473 2.836,-0.07 0.746,-4.524 h 8.84 l 0.067,10.664 3.379,-11.742 h 5.394 l 0.07,8.367 c 0.879,-8.304 7.422,-7.218 7.422,-7.218 5.129,-0.539 6.278,4.929 6.278,4.929 l 0.136,-5.336 10.735,0.2 0.203,-1.078 4.726,0.269 0.27,8.371 4.047,-8.437 5.465,-0.137 c 0,0 0.156,0.051 -0.098,0.574 -0.105,0.215 -0.23,0.567 -0.367,0.844 -0.098,0.199 -0.332,0.484 -0.442,0.707 -1.664,3.426 -4.828,9.687 -4.828,9.687 3.782,1.418 3.918,5.942 3.918,5.942 0.539,9.449 -12.625,7.558 -12.625,7.558 v -19.64 l -5.8,-0.403 -0.071,5.801 3.442,0.137 v 4.051 l -3.579,-0.067 0.137,5.129 5.266,0.34 -0.207,4.184 -10.125,-0.473 -0.063,-14.176 c -1.078,-0.472 -4.523,-0.265 -4.523,-0.265 0.199,-6.348 -1.758,-5.606 -1.758,-5.606 -2.566,-0.137 -2.426,8.098 -2.426,8.098 0.203,10.734 2.426,9.652 2.426,9.652 1.758,0.137 1.422,-4.523 1.422,-4.523 l 4.519,-0.137 c 0.27,1.891 -0.132,4.258 -0.132,4.258 -0.676,4.387 -5.743,3.984 -5.743,3.984 z M 83.211,55.852 74.707,55.547 72.582,39.551 c -0.711,2.226 -3.039,3.273 -3.039,3.273 3.441,2.531 2.734,5.84 2.734,5.84 0.2,8.406 -13.265,6.07 -13.265,6.07 l -0.2,-23.992 c 12.047,-1.621 13.059,3.883 13.059,3.883 l -0.406,-3.68 5.062,-0.308 0.508,4.359 3.375,0.066 0.676,-4.019 9.648,-0.234 0.371,8.843 3.754,-9.316 h 4.957 l -0.3,1.008 h 4.859 l -0.105,11.953 3.953,-12.254 h 6.879 l -0.301,23.391 h -4.352 V 40.156 L 105.59,55.75 99.918,55.547 99.746,48.73 C 98.5,56.156 86.453,54.633 86.453,54.633 L 85.746,33.07 Z M 184.34,51.273 c 0,0 3.297,-0.269 2.625,-3.503 0,0 -0.133,-3.297 -2.895,-2.895 z M 78.766,50.801 79.805,39.492 77.25,39.559 Z M 64.219,50.594 c 0,0 3.027,-0.199 2.929,-2.317 0,0 0.196,-2.828 -2.929,-2.73 z m 27.168,-0.199 c 0,0 3.23,0 3.433,-3.129 0,0 0.102,-4.039 -3.734,-3.536 z m 43.328,-1.274 1.008,-8.824 -2.356,0.066 1.348,8.754 z m -35.547,-5.324 -0.27,-11.242 -3.101,8.824 c 0,0 1.418,-0.07 3.371,2.418 z M 64.316,41.609 c 0,0 2.93,-0.3 3.032,-3.429 0,0 0.402,-3.332 -3.129,-3.235 z m 55.813,-15.601 -10.164,-0.403 v -8.414 c -1.215,3.301 -2.36,4.243 -4.445,5.86 -2.086,1.613 -9.36,1.273 -9.36,1.273 L 96.5,1.637 c 1.953,-0.27 7.312,0.062 9.355,1.547 3.481,2.527 4.313,6.398 4.313,6.398 l -0.203,-7.742 10.703,0.133 0.07,-0.942 4.985,-0.035 -0.137,11.82 c 0,0 0.117,0 0.215,-0.265 0.031,-0.11 0.109,-0.336 0.156,-0.477 0.902,-2.711 3.672,-11.383 3.672,-11.383 l 6.863,-0.066 -0.203,23.434 -4.375,0.066 -0.07,-14.41 -5.117,16.293 -5.454,-0.199 -0.468,-18.957 -5.825,-0.403 0.036,5.824 3.566,0.137 -0.133,4.039 -3.504,0.137 v 4.844 l 5.387,0.336 -0.207,4.246 z M 87.562,25.734 82.363,25.598 82.027,17.297 c -0.406,8.371 -7.226,7.562 -7.226,7.562 -3.77,0.168 -5.524,-2.211 -6.258,-4.804 C 67.266,15.527 67.445,11.219 67.445,11.219 66.836,-1.402 73.992,0.082 73.992,0.082 81.352,-1.066 81.82,10.41 81.82,10.41 L 81.555,1.23 h 4.254 v 14.649 l 3.503,-15.391 5.266,0.067 0.543,23.492 -3.984,0.199 -0.407,-10.73 z M 68.082,25.07 58.184,24.934 57.918,0.832 h 4.844 l 0.336,10.77 3.574,0.203 -0.07,3.633 -3.434,0.066 0.273,5.117 4.438,-0.269 c 0.539,1.824 0.203,4.718 0.203,4.718 z m 6.734,-3.636 c 0,0 2.219,0.336 1.817,-9.289 0,0 -0.203,-8.825 -2.559,-8.219 0,0 -2.285,-0.266 -2.015,8.418 0,0 -0.071,8.886 2.757,9.09 z m 26.957,-1.735 c 1.145,-0.113 3.442,-1.097 3.547,-7.16 0,0 0.539,-6.328 -3.703,-6.797 l -0.476,13.938 c 0,0 0.254,0.062 0.632,0.027 z"
         style="fill:#0057a8;fill-opacity:1;fill-rule:nonzero;stroke:none"
         id="path44"
         inkscape:connector-curvature="0" /></g></g></svg>