<?xml version="1.0" encoding="UTF-8" standalone="no"?>
<!-- Created with Inkscape (http://www.inkscape.org/) -->

<svg
   xmlns:dc="http://purl.org/dc/elements/1.1/"
   xmlns:cc="http://creativecommons.org/ns#"
   xmlns:rdf="http://www.w3.org/1999/02/22-rdf-syntax-ns#"
   xmlns:svg="http://www.w3.org/2000/svg"
   xmlns="http://www.w3.org/2000/svg"
   xmlns:sodipodi="http://sodipodi.sourceforge.net/DTD/sodipodi-0.dtd"
   xmlns:inkscape="http://www.inkscape.org/namespaces/inkscape"
   version="1.1"
   id="svg2"
   xml:space="preserve"
   width="199.71545"
   height="200"
   viewBox="0 0 199.71546 199.99999"
   sodipodi:docname="Bioconda_logo.svg"
   inkscape:version="0.92.3 (2405546, 2018-03-11)"><metadata
     id="metadata8"><rdf:RDF><cc:Work
         rdf:about=""><dc:format>image/svg+xml</dc:format><dc:type
           rdf:resource="http://purl.org/dc/dcmitype/StillImage" /><dc:title></dc:title></cc:Work></rdf:RDF></metadata><defs
     id="defs6" /><sodipodi:namedview
     pagecolor="#ffffff"
     bordercolor="#666666"
     borderopacity="1"
     objecttolerance="10"
     gridtolerance="10"
     guidetolerance="10"
     inkscape:pageopacity="0"
     inkscape:pageshadow="2"
     inkscape:window-width="1920"
     inkscape:window-height="1012"
     id="namedview4"
     showgrid="false"
     inkscape:zoom="0.57306455"
     inkscape:cx="240.4552"
     inkscape:cy="-116.3847"
     inkscape:window-x="0"
     inkscape:window-y="0"
     inkscape:window-maximized="1"
     inkscape:current-layer="g10"
     fit-margin-top="0"
     fit-margin-left="0"
     fit-margin-right="0"
     fit-margin-bottom="0" /><g
     id="g10"
     inkscape:groupmode="layer"
     inkscape:label="bioconda"
     transform="matrix(1.3333333,0,0,1.3333333,-225.79466,15.281233)"><g
       id="g2012"
       transform="matrix(1.0827268,0,0,1.0827268,-14.009455,-11.460897)"><path
         d="m 180,96.578 c -0.531,1.75 -0.855,3.555 -0.977,5.375 0,0.078 0,0.137 0,0.203 l 18.594,-10.797 c -1.176,-0.414 -2.437,-0.75 -3.75,-1.058 l -2.488,-0.594 -10.59,4.59 c -0.301,0.781 -0.57,1.547 -0.789,2.281 z"
         style="fill:#005500;fill-opacity:1;fill-rule:nonzero;stroke:none"
         id="path28"
         inkscape:connector-curvature="0" /><path
         d="m 211.559,30.48 c -1.637,-0.902 -3.348,-1.668 -5.114,-2.289 0.067,0.856 0.141,1.723 0.227,2.598 0.18,1.82 0.449,3.688 0.598,5.766 0,0.504 0.058,1.019 0.066,1.547 2.211,-2.227 4.652,-4.215 7.277,-5.934 -1.125,-0.609 -2.062,-1.172 -3.054,-1.688 z"
         style="fill:#005500;fill-opacity:1;fill-rule:nonzero;stroke:none"
         id="path30"
         inkscape:connector-curvature="0" /><path
         d="m 183.148,84.465 c 0.274,-0.36 0.536,-0.75 0.805,-1.074 0.684,-0.883 1.395,-1.754 2.106,-2.618 l -8.063,1.5 c 0.75,0.399 1.5,0.75 2.25,1.082 0.992,0.426 1.953,0.786 2.902,1.11 z"
         style="fill:#005500;fill-opacity:1;fill-rule:nonzero;stroke:none"
         id="path32"
         inkscape:connector-curvature="0" /><path
         d="m 190.477,89.488 -1.633,-0.386 c -1.5,-0.368 -2.965,-0.75 -4.449,-1.18 -0.465,0.637 -0.907,1.262 -1.297,1.89 -0.75,1.2 -1.414,2.454 -1.981,3.75 z"
         style="fill:#005500;fill-opacity:1;fill-rule:nonzero;stroke:none"
         id="path34"
         inkscape:connector-curvature="0" /><path
         d="m 180.316,41.852 c 0.297,1.003 0.676,1.98 1.133,2.921 l 7.813,3.473 0.285,-0.074 c 1.672,-0.418 3.34,-0.75 4.937,-1.141 l 1.559,-0.367 -16.402,-10.223 c -0.09,1.829 0.136,3.661 0.675,5.411 z"
         style="fill:#005500;fill-opacity:1;fill-rule:nonzero;stroke:none"
         id="path36"
         inkscape:connector-curvature="0" /><path
         d="m 215.574,5.488 c -1.437,0.438 -2.762,1.168 -3.894,2.153 -0.383,0.336 -0.742,0.695 -1.078,1.074 l 8.25,20.25 c 0.32,0.101 0.648,0.176 0.98,0.226 0.852,-0.406 1.715,-0.781 2.594,-1.125 l -6.84,-22.582 z"
         style="fill:#005500;fill-opacity:1;fill-rule:nonzero;stroke:none"
         id="path38"
         inkscape:connector-curvature="0" /><path
         d="m 188.828,52.344 -2.004,0.515 c 0.969,1.192 1.957,2.356 3,3.504 1.336,1.5 2.731,2.938 4.09,4.614 0.367,0.449 0.711,0.921 1.035,1.41 0.696,-4.282 2.016,-8.438 3.922,-12.332 -1.32,0.39 -2.605,0.636 -3.848,0.914 -2.109,0.437 -4.156,0.84 -6.195,1.375 z"
         style="fill:#005500;fill-opacity:1;fill-rule:nonzero;stroke:none"
         id="path40"
         inkscape:connector-curvature="0" /><path
         d="m 206.273,20.633 c 0,0.75 -0.046,1.539 -0.046,2.355 0,0.082 0,0.157 0,0.239 1.222,0.367 2.421,0.804 3.609,1.285 l -3.359,-6.047 c -0.09,0.699 -0.137,1.426 -0.204,2.168 z"
         style="fill:#005500;fill-opacity:1;fill-rule:nonzero;stroke:none"
         id="path42"
         inkscape:connector-curvature="0" /><path
         d="m 208.801,11.211 c -0.766,1.418 -1.34,2.934 -1.703,4.5 l -0.145,0.488 -0.156,0.52 4.75,8.547 c 0.613,0.285 1.219,0.586 1.812,0.91 1.45,0.75 2.813,1.574 4.067,2.195 L 209.789,9.703 c -0.359,0.485 -0.691,0.988 -0.988,1.508 z"
         style="fill:#005500;fill-opacity:1;fill-rule:nonzero;stroke:none"
         id="path44"
         inkscape:connector-curvature="0" /><path
         d="m 181.785,109.297 c 1.043,1.5 2.145,2.945 3.301,4.336 0.449,0.203 0.914,0.39 1.387,0.547 l 16.73,-15.602 c 0.008,-0.656 -0.035,-1.316 -0.125,-1.969 -0.058,-0.523 -0.203,-1.031 -0.437,-1.5 z"
         style="fill:#005500;fill-opacity:1;fill-rule:nonzero;stroke:none"
         id="path46"
         inkscape:connector-curvature="0" /><path
         d="m 176.977,81.699 9.847,-1.824 0.473,-0.563 3.43,-3.937 c 0.234,-0.273 0.461,-0.551 0.679,-0.824 l -20.633,2.008 c 0.489,0.601 1.012,1.171 1.571,1.703 1.41,1.316 2.965,2.468 4.633,3.437 z"
         style="fill:#005500;fill-opacity:1;fill-rule:nonzero;stroke:none"
         id="path48"
         inkscape:connector-curvature="0" /><path
         d="m 219.262,109.117 c -0.489,0.121 -0.989,0.254 -1.5,0.43 l -8.789,21.32 c 0.589,0.797 1.285,1.512 2.062,2.121 1.195,0.5 2.406,0.981 3.637,1.434 l 8.109,-23.797 c -1.222,-0.457 -2.386,-0.961 -3.519,-1.508 z"
         style="fill:#005500;fill-opacity:1;fill-rule:nonzero;stroke:none"
         id="path50"
         inkscape:connector-curvature="0" /><path
         d="m 203.168,100.191 c 0,-0.277 0,-0.546 0,-0.824 l -16.117,15 0.164,0.055 c 1.363,0.387 2.765,0.637 4.176,0.75 0.968,0.051 1.937,0.051 2.906,0 l 8.25,-8.25 c 0.074,-1.031 0.164,-2.07 0.262,-3.137 0.097,-1.066 0.293,-2.394 0.359,-3.594 z"
         style="fill:#005500;fill-opacity:1;fill-rule:nonzero;stroke:none"
         id="path52"
         inkscape:connector-curvature="0" /><path
         d="m 195.188,115.117 c 1.449,-0.113 2.89,-0.324 4.312,-0.629 1.078,-0.226 2.121,-0.511 3.141,-0.816 -0.09,-1 -0.164,-2.063 -0.157,-3.152 0,-0.907 0,-1.836 0.09,-2.782 z"
         style="fill:#005500;fill-opacity:1;fill-rule:nonzero;stroke:none"
         id="path54"
         inkscape:connector-curvature="0" /><path
         d="m 188.949,25.824 14.203,12.485 c 0,-1.883 -0.375,-3.93 -0.601,-5.903 0,-0.105 0,-0.207 0,-0.32 l -5.727,-6.172 c -2.605,-0.445 -5.262,-0.476 -7.875,-0.09 z"
         style="fill:#005500;fill-opacity:1;fill-rule:nonzero;stroke:none"
         id="path56"
         inkscape:connector-curvature="0" /><path
         d="m 197.805,88.68 c 0.406,0.136 0.808,0.285 1.215,0.449 -2.133,-4.238 -3.563,-8.797 -4.231,-13.5 -0.809,1.098 -1.664,2.027 -2.473,2.941 -1.23,1.356 -2.41,2.633 -3.511,3.907 -0.883,1.011 -1.711,2.011 -2.512,3 l 1.59,0.457 c 2.308,0.644 4.305,1.132 5.902,1.562 1.367,0.293 2.711,0.688 4.02,1.184 z"
         style="fill:#005500;fill-opacity:1;fill-rule:nonzero;stroke:none"
         id="path58"
         inkscape:connector-curvature="0" /><path
         d="m 202.012,26.934 -0.524,-0.145 -0.609,-0.156 -0.375,-0.098 h -0.051 l -0.219,-0.047 c -0.343,-0.074 -0.695,-0.125 -1.05,-0.191 -0.352,-0.07 -0.606,-0.098 -0.914,-0.152 l 4.05,4.359 c -0.129,-1.215 -0.234,-2.402 -0.316,-3.555 z"
         style="fill:#005500;fill-opacity:1;fill-rule:nonzero;stroke:none"
         id="path60"
         inkscape:connector-curvature="0" /><path
         d="m 193.305,71.488 c 0.195,-0.554 0.304,-1.14 0.324,-1.73 l -24.27,0.871 c 0,1.41 0.082,2.812 0.188,4.199 0.223,0.36 0.457,0.711 0.703,1.051 L 192,73.746 c 0.531,-0.691 0.969,-1.449 1.305,-2.258 z"
         style="fill:#005500;fill-opacity:1;fill-rule:nonzero;stroke:none"
         id="path62"
         inkscape:connector-curvature="0" /><path
         d="m 207.801,129.113 c 0.261,0.489 0.551,0.957 0.871,1.41 l 8.566,-20.812 -0.504,0.172 c -1.5,0.531 -3.172,1.273 -5.086,2.101 l -6.156,10.086 c 0.055,0.278 0.098,0.563 0.156,0.84 0.426,2.156 1.153,4.246 2.153,6.203 z"
         style="fill:#005500;fill-opacity:1;fill-rule:nonzero;stroke:none"
         id="path64"
         inkscape:connector-curvature="0" /><path
         d="m 198.887,45.809 c 0.679,-0.266 1.304,-0.653 1.851,-1.137 L 181.613,30.473 c -0.289,0.41 -0.539,0.843 -0.75,1.297 -0.582,1.132 -0.961,2.355 -1.125,3.617 l 17.543,10.949 c 0.571,-0.164 1.11,-0.332 1.606,-0.527 z"
         style="fill:#005500;fill-opacity:1;fill-rule:nonzero;stroke:none"
         id="path66"
         inkscape:connector-curvature="0" /><path
         d="m 228.344,9.27 c -1.442,-1.282 -3.051,-2.36 -4.785,-3.211 l 4.132,18.429 c 0.286,-0.441 0.571,-0.886 0.856,-1.343 0.75,-1.231 1.562,-2.469 2.379,-3.704 l -1.36,-9.054 c -0.402,-0.375 -0.8,-0.758 -1.222,-1.117 z"
         style="fill:#005500;fill-opacity:1;fill-rule:nonzero;stroke:none"
         id="path68"
         inkscape:connector-curvature="0" /><path
         d="m 206.609,112.371 c 4.411,-1.543 8.102,-3.164 11.25,-3.906 h 0.098 c -4.687,-2.485 -8.895,-5.785 -12.418,-9.75 0,1.086 -0.121,2.137 -0.219,3.156 l -0.539,4.688 c -0.16,1.5 -0.277,3 -0.293,4.418 0,0.691 0,1.394 0.051,2.101 z"
         style="fill:#005500;fill-opacity:1;fill-rule:nonzero;stroke:none"
         id="path70"
         inkscape:connector-curvature="0" /><path
         d="m 205.41,121.523 5.664,-9.285 c -1.898,0.817 -4.027,1.711 -6.445,2.578 0,0.129 0,0.258 0,0.383 0.152,2.121 0.414,4.231 0.781,6.324 z"
         style="fill:#005500;fill-opacity:1;fill-rule:nonzero;stroke:none"
         id="path72"
         inkscape:connector-curvature="0" /><path
         d="m 238.418,0 c -4.676,-0.004 -9.34,0.461 -13.922,1.387 0.613,0.238 1.211,0.508 1.793,0.812 1.777,0.949 3.438,2.098 4.957,3.418 1.461,1.254 2.856,2.578 4.18,3.977 l 1.89,2.023 1.918,2.004 c 0.067,0.129 0.11,0.27 0.129,0.41 0.094,0.649 0,1.309 -0.261,1.907 -0.102,0.187 -0.235,0.355 -0.391,0.496 0.012,0.105 -0.02,0.211 -0.09,0.293 -2.168,2.773 -4.172,5.675 -6,8.683 1.914,-0.262 3.848,-0.394 5.781,-0.398 24.239,0 44.25,20.207 44.25,44.445 0,24.242 -20.011,44.063 -44.25,44.063 -5.23,0.003 -10.422,-0.934 -15.324,-2.766 l -8.09,23.789 c 7.524,2.656 15.446,4.008 23.422,3.996 18.371,0.004 35.992,-7.293 48.985,-20.281 12.992,-12.992 20.293,-30.613 20.293,-48.985 C 307.691,50.902 300.391,33.281 287.402,20.289 274.41,7.297 256.789,0 238.418,0 Z"
         style="fill:#005500;fill-opacity:1;fill-rule:nonzero;stroke:none"
         id="path74"
         inkscape:connector-curvature="0" /><path
         d="m 205.133,126.539 c -1.125,-3.215 -1.86,-6.547 -2.199,-9.937 -0.051,-0.375 -0.09,-0.75 -0.125,-1.149 -0.563,0.188 -1.133,0.375 -1.727,0.559 -3.996,1.211 -8.203,1.566 -12.344,1.047 l -0.75,-0.133 c 5.723,6.09 12.512,11.086 20.032,14.73 -1.231,-1.539 -2.208,-3.265 -2.887,-5.117 z"
         style="fill:#005500;fill-opacity:1;fill-rule:nonzero;stroke:none"
         id="path76"
         inkscape:connector-curvature="0" /><path
         d="m 234.074,14.984 -0.125,-0.132 -1.847,-1.989 c -0.399,-0.414 -0.801,-0.812 -1.2,-1.207 l 0.961,6.403 c 0.711,-1.043 1.446,-2.071 2.211,-3.075 z"
         style="fill:#005500;fill-opacity:1;fill-rule:nonzero;stroke:none"
         id="path78"
         inkscape:connector-curvature="0" /><path
         d="m 189.758,21.344 c 1.269,-0.137 2.547,-0.184 3.824,-0.141 2.184,0.102 4.356,0.352 6.504,0.75 l 0.75,0.121 0.492,0.09 h 0.543 v -1.133 c 0,-0.578 0.043,-1.148 0.09,-1.711 0.043,-0.562 0.059,-1.101 0.148,-1.636 l 0.196,-1.332 v -0.399 l 0.058,-0.406 0.055,-0.336 c 0.484,-2.356 1.348,-4.613 2.559,-6.691 -6.231,3.457 -11.887,7.863 -16.766,13.058 0.527,-0.098 1.043,-0.18 1.547,-0.234 z"
         style="fill:#005500;fill-opacity:1;fill-rule:nonzero;stroke:none"
         id="path80"
         inkscape:connector-curvature="0" /><path
         d="m 222.293,5.543 c -0.727,-0.254 -1.484,-0.422 -2.25,-0.504 -1.117,-0.109 -2.246,-0.051 -3.344,0.18 l 6.832,22.465 c 0.801,-0.293 1.61,-0.563 2.438,-0.813 0.297,-0.344 0.59,-0.75 0.875,-1.117 z"
         style="fill:#005500;fill-opacity:1;fill-rule:nonzero;stroke:none"
         id="path82"
         inkscape:connector-curvature="0" /><path
         d="m 187.078,58.801 c -0.898,-0.977 -1.789,-1.957 -2.644,-3 -0.512,-0.602 -1.008,-1.199 -1.5,-1.809 h -0.114 c -2.027,0.692 -3.965,1.617 -5.773,2.762 z"
         style="fill:#005500;fill-opacity:1;fill-rule:nonzero;stroke:none"
         id="path84"
         inkscape:connector-curvature="0" /><path
         d="m 172.754,60.234 c -0.641,0.641 -1.242,1.321 -1.801,2.039 l 21.274,2.473 c -0.289,-0.465 -0.606,-0.914 -0.946,-1.34 -1,-1.222 -2.176,-2.429 -3.332,-3.66 l -11.797,-2.32 c -1.214,0.832 -2.351,1.773 -3.398,2.808 z"
         style="fill:#005500;fill-opacity:1;fill-rule:nonzero;stroke:none"
         id="path86"
         inkscape:connector-curvature="0" /><path
         d="m 184.32,49.605 0.157,-0.054 c 1.109,-0.336 2.25,-0.645 3.324,-0.938 l -5.68,-2.527 c 0.16,0.293 0.317,0.586 0.481,0.879 0.523,0.91 1.097,1.793 1.718,2.64 z"
         style="fill:#005500;fill-opacity:1;fill-rule:nonzero;stroke:none"
         id="path88"
         inkscape:connector-curvature="0" /><path
         d="m 202.312,94.629 c -0.187,-0.27 -0.382,-0.543 -0.562,-0.82 -0.887,-0.93 -1.977,-1.649 -3.18,-2.098 l -0.277,-0.106 -19.305,11.204 c 0,0.367 0,0.714 0,1.007 0.004,0.414 0.035,0.832 0.09,1.243 v 0.082 c 0.75,1.257 1.535,2.484 2.363,3.683 z"
         style="fill:#005500;fill-opacity:1;fill-rule:nonzero;stroke:none"
         id="path90"
         inkscape:connector-curvature="0" /><path
         d="m 183.879,28.074 c -0.301,0.254 -0.586,0.531 -0.887,0.793 l -0.75,0.863 19.199,14.25 c 0.075,-0.097 0.153,-0.195 0.219,-0.3 0.711,-1.016 1.192,-2.18 1.402,-3.407 0.04,-0.246 0.067,-0.5 0.083,-0.75 L 187.844,26.102 c -1.446,0.371 -2.797,1.043 -3.965,1.972 z"
         style="fill:#005500;fill-opacity:1;fill-rule:nonzero;stroke:none"
         id="path92"
         inkscape:connector-curvature="0" /><path
         d="m 176.852,97.461 c 0.753,-3.457 2.109,-6.758 4.003,-9.75 0.165,-0.246 0.336,-0.477 0.504,-0.75 -0.961,-0.336 -1.929,-0.695 -2.875,-1.094 -3.011,-1.297 -5.8,-3.066 -8.25,-5.25 1.075,6.793 3.161,13.387 6.188,19.559 0.094,-0.91 0.234,-1.817 0.43,-2.715 z"
         style="fill:#005500;fill-opacity:1;fill-rule:nonzero;stroke:none"
         id="path94"
         inkscape:connector-curvature="0" /><path
         d="m 169.352,69.871 24.253,-0.863 c 0,-0.203 -0.039,-0.414 -0.054,-0.617 -0.051,-0.368 -0.125,-0.75 -0.192,-1.094 -0.16,-0.606 -0.386,-1.192 -0.675,-1.746 l -22.231,-2.59 c -0.336,0.477 -0.644,0.961 -0.922,1.449 -0.117,1.668 -0.176,3.356 -0.179,5.055 -0.008,0.137 -0.008,0.269 0,0.406 z"
         style="fill:#005500;fill-opacity:1;fill-rule:nonzero;stroke:none"
         id="path96"
         inkscape:connector-curvature="0" /><path
         d="m 174.398,54.203 c 1.551,-1.078 3.2,-2.004 4.926,-2.769 l 1.231,-0.532 c -0.782,-1.101 -1.489,-2.25 -2.121,-3.441 -0.821,-1.523 -1.493,-3.121 -2.004,-4.77 -0.258,-0.918 -0.465,-1.843 -0.614,-2.785 -2.609,5.629 -4.453,11.578 -5.484,17.696 1.242,-1.262 2.606,-2.399 4.066,-3.399 z"
         style="fill:#005500;fill-opacity:1;fill-rule:nonzero;stroke:none"
         id="path98"
         inkscape:connector-curvature="0" /></g></g></svg>