<?xml version="1.0" encoding="UTF-8" standalone="no"?>
<svg
   xmlns:dc="http://purl.org/dc/elements/1.1/"
   xmlns:cc="http://creativecommons.org/ns#"
   xmlns:rdf="http://www.w3.org/1999/02/22-rdf-syntax-ns#"
   xmlns:svg="http://www.w3.org/2000/svg"
   xmlns="http://www.w3.org/2000/svg"
   xmlns:sodipodi="http://sodipodi.sourceforge.net/DTD/sodipodi-0.dtd"
   xmlns:inkscape="http://www.inkscape.org/namespaces/inkscape"
   height="505.17484"
   width="923.07611"
   viewBox="-16.725765 -15.255925 111.505 57.80182"
   version="1.1"
   id="svg10"
   sodipodi:docname="chan_zuckerberg_initiative_logo.svg"
   inkscape:version="0.92.5 (2060ec1f9f, 2020-04-08)">
  <metadata
     id="metadata16">
    <rdf:RDF>
      <cc:Work
         rdf:about="">
        <dc:format>image/svg+xml</dc:format>
        <dc:type
           rdf:resource="http://purl.org/dc/dcmitype/StillImage" />
        <dc:title></dc:title>
      </cc:Work>
    </rdf:RDF>
  </metadata>
  <defs
     id="defs14" />
  <sodipodi:namedview
     pagecolor="#ffffff"
     bordercolor="#666666"
     borderopacity="1"
     objecttolerance="10"
     gridtolerance="10"
     guidetolerance="10"
     inkscape:pageopacity="0"
     inkscape:pageshadow="2"
     inkscape:window-width="1920"
     inkscape:window-height="1015"
     id="namedview12"
     showgrid="false"
     inkscape:zoom="0.23166667"
     inkscape:cx="-289.54067"
     inkscape:cy="252.58742"
     inkscape:window-x="0"
     inkscape:window-y="0"
     inkscape:window-maximized="1"
     inkscape:current-layer="svg10"
     fit-margin-top="0"
     fit-margin-left="0"
     fit-margin-right="0"
     fit-margin-bottom="0" />
  <g
     id="g8"
     style="fill:none;fill-rule:evenodd"
     transform="translate(-16.725765,-17.807027)">
    <path
       d="m 13.0587,15.7609 c -1.446,0.6432 -2.8918,0.9974 -4.9164,0.9974 -4.5609,0 -7.8314,-2.6156 -7.8314,-7.2486 0,-4.2338 3.2705,-7.5376 7.787,-7.5376 1.2235,0 2.5356,0.289 3.4698,0.6874 L 12.3244,1.9062 H 12.97 l 0.2668,5.4304 -0.8237,0.045 C 10.9454,4.256 9.6769,3.0586 7.8748,3.0586 c -2.2245,0 -3.8928,2.0623 -3.8928,6.1186 0,4.2114 2.0689,6.3845 4.8277,6.3845 0.5778,0 0.934,-0.0667 1.4676,-0.2441 l 2.6258,-3.3473 0.6004,0.0884 z M 21.135,7.9802 c -0.8012,0 -1.2904,0.1992 -2.069,0.6208 v 6.6944 l 1.201,0.4875 v 0.6425 h -5.5394 v -0.6425 l 1.4241,-0.4875 V 2.549 L 14.6164,1.6182 V 1.0416 L 18.6429,0 19.0661,0.2434 v 7.426 l 0.2442,0.0442 c 1.0235,-0.9083 2.2252,-1.64 3.605,-1.64 1.8682,0 2.8474,1.2192 2.8474,3.0365 v 6.1853 l 1.4234,0.4875 v 0.6425 h -5.5394 v -0.6425 l 1.2017,-0.4875 v -5.2096 c 0,-1.2857 -0.4675,-2.1056 -1.7135,-2.1056 m 12.4809,3.5246 c -2.3808,0.0883 -3.248,0.909 -3.248,2.0173 0,1.0191 0.5787,1.574 1.6014,1.574 0.4457,0 1.0461,-0.1999 1.6466,-0.5766 z m 2.7588,2.8148 c 0,0.754 0.3336,1.2198 1.624,1.2415 l 0.0443,0.5766 c -0.6448,0.2434 -1.624,0.51 -2.4912,0.51 -1.0236,0 -1.6022,-0.4216 -1.7804,-1.4632 l -0.2667,-0.0442 c -1.001,0.9308 -1.9577,1.485 -3.1368,1.485 -1.6015,0 -2.7145,-0.8642 -2.7145,-2.394 0,-1.884 1.9585,-3.1698 5.9625,-3.4581 v -1.219 c 0,-1.6632 -0.6673,-2.2174 -2.3357,-2.2174 -0.4449,0 -0.8454,0.0892 -1.1348,0.2 0.4006,0.3325 0.623,0.7091 0.623,1.1966 0,0.7091 -0.49,1.264 -1.3346,1.264 -0.8011,0 -1.4016,-0.6208 -1.4016,-1.3524 0,-1.5298 2.447,-2.5714 4.7826,-2.5714 2.425,0 3.5599,0.909 3.5599,3.0814 z m 12.6814,0.9758 1.4015,0.4875 v 0.6425 h -5.5176 v -0.6425 l 1.2017,-0.4875 v -5.2096 c 0,-1.3082 -0.4675,-2.1056 -1.6909,-2.1056 -0.7568,0 -1.246,0.2216 -2.002,0.6207 v 6.6945 l 1.1791,0.4875 v 0.6424 h -5.5175 v -0.6424 l 1.424,-0.4875 V 8.401 L 38.1328,7.4702 V 6.8936 l 3.8041,-0.8866 0.4224,0.2658 -0.1556,1.5958 0.2668,0.045 c 1.3572,-1.2416 2.5145,-1.84 3.738,-1.84 1.8239,0 2.8474,1.1525 2.8474,3.0373 z M 12.4802,38.2177 H 0.0887 L 0,37.6637 8.8986,25.2938 5.495,25.338 c -1.2242,0 -1.7803,0.3991 -2.737,1.6407 L 1.3339,28.7519 0.7786,28.6194 1.2009,24.0972 h 11.6355 l 0.0887,0.5542 -8.8324,12.3914 4.2272,-0.0441 c 1.1573,0 1.7134,-0.4658 2.4469,-1.5299 l 1.6465,-2.394 0.5118,0.0892 z m 13.0373,-1.0641 v 0.5541 l -3.8267,0.8866 -0.4223,-0.2441 0.1555,-1.5957 -0.2667,-0.0442 C 19.8,37.9518 18.7096,38.55 17.4193,38.55 c -1.8683,0 -2.8475,-1.264 -2.8475,-3.0597 v -5.3638 l -1.379,-0.909 v -0.5317 l 3.8928,-0.8874 0.4006,0.2659 v 6.4286 c 0,1.3748 0.4892,2.1281 1.6908,2.1281 0.756,0 1.246,-0.1991 2.002,-0.5983 v -5.8962 l -1.4015,-0.909 v -0.5317 l 3.8935,-0.8874 0.4224,0.2659 v 8.2692 z m 8.521,-5.3202 c -1.001,0 -1.5797,-0.7316 -1.5797,-1.729 0,-0.4216 0.0887,-0.8207 0.245,-1.1749 -0.1337,-0.0225 -0.245,-0.0442 -0.4005,-0.0442 -1.6466,0.066 -3.0925,1.485 -3.0925,4.1672 0,2.4606 1.5128,3.7464 3.5374,3.7464 0.9123,0 1.5353,-0.2 2.5806,-0.5983 l 0.2225,0.5316 c -1.246,1.264 -2.6476,1.8399 -4.1829,1.8399 -2.8692,0 -5.1606,-2.0615 -5.1606,-5.1205 0,-3.1038 2.4244,-5.5862 5.74,-5.5862 2.202,0 3.5817,1.0641 3.5817,2.3715 0,0.9091 -0.623,1.5965 -1.491,1.5965 m 13.8158,6.3842 H 42.871 v -0.5759 l 0.823,-0.4216 -2.5807,-3.5022 h -0.7786 v 3.369 l 1.1122,0.4882 v 0.6425 h -5.4506 v -0.6425 l 1.424,-0.4883 V 24.3404 L 35.885,23.4097 V 22.833 l 4.0274,-1.0416 0.4223,0.2434 v 10.5074 h 0.8454 l 2.7145,-3.0364 -1.2242,-0.754 v -0.5542 h 4.7164 v 0.665 l -1.379,0.5324 -3.0699,2.7264 3.8485,4.988 1.0679,0.4657 z m 6.986,-6.1182 c -0.0218,-2.2614 -0.6005,-3.3255 -1.8465,-3.3255 -1.2234,0 -2.0914,1.3082 -2.1801,3.5247 z m -4.0492,0.9974 c 0.0226,2.4165 1.068,3.7689 3.315,3.7689 1.0235,0 1.9133,-0.2 3.2262,-0.6875 l 0.245,0.51 c -1.3798,1.13 -3.0264,1.884 -4.4948,1.884 -3.1811,0 -5.2057,-2.0832 -5.2057,-5.1654 0,-3.1922 2.5138,-5.5412 5.2951,-5.5412 3.3375,0 4.627,2.4157 4.5158,5.2312 z M 66.031,31.368 c -0.868,0 -1.4015,-0.6433 -1.5127,-1.3966 -0.7117,0.155 -1.2686,0.6208 -1.7578,1.2633 v 5.852 l 1.5797,0.4882 v 0.6425 h -5.9173 v -0.6425 l 1.4233,-0.4882 V 30.193 l -1.4016,-0.9308 v -0.5766 l 3.805,-0.8866 0.4223,0.2658 -0.245,2.1282 0.2667,0.0666 c 0.9124,-1.5074 1.8247,-2.4164 3.1376,-2.4164 1.0453,0 1.8021,0.6874 1.8021,1.7507 0,1.0199 -0.6899,1.774 -1.6022,1.774 m 7.3862,-1.6404 c -0.556,0 -1.0679,0.155 -1.5353,0.3325 v 6.4286 c 0.5561,0.7092 1.1791,1.0641 2.0471,1.0641 1.1791,0 2.2244,-1.1307 2.2244,-3.9463 0,-2.6373 -1.001,-3.8789 -2.7362,-3.8789 m -0.0669,8.8451 c -1.2903,0 -3.0473,-0.2883 -4.3827,-0.7091 v -13.523 l -1.5572,-0.9308 v -0.5766 l 4.0492,-1.0416 0.4223,0.2434 v 7.1385 l 0.2675,0.0442 c 0.9116,-0.82 1.824,-1.3524 3.0917,-1.3524 2.0915,0 3.9822,1.9282 3.9822,5.0545 0,2.9706 -2.2244,5.6529 -5.873,5.6529 m 14.0385,-6.4732 c -0.0226,-2.2614 -0.6005,-3.3255 -1.8473,-3.3255 -1.2226,0 -2.0906,1.3082 -2.1793,3.5247 z m -4.0492,0.9974 c 0.0226,2.4165 1.068,3.7689 3.315,3.7689 1.0235,0 1.9133,-0.2 3.2254,-0.6875 l 0.245,0.51 c -1.379,1.13 -3.0256,1.884 -4.494,1.884 -3.1811,0 -5.2057,-2.0832 -5.2057,-5.1654 0,-3.1922 2.5138,-5.5412 5.2943,-5.5412 3.3375,0 4.6278,2.4157 4.5166,5.2312 z M 98.5793,31.368 c -0.8672,0 -1.4016,-0.6433 -1.5128,-1.3966 -0.7117,0.155 -1.2678,0.6208 -1.7578,1.2633 v 5.852 l 1.5797,0.4882 v 0.6425 h -5.9173 v -0.6425 l 1.4233,-0.4882 V 30.193 l -1.4008,-0.9308 v -0.5766 l 3.8041,-0.8866 0.4224,0.2658 -0.245,2.1282 0.2667,0.0666 c 0.9124,-1.5074 1.8247,-2.4164 3.1376,-2.4164 1.0453,0 1.8021,0.6874 1.8021,1.7507 0,1.0199 -0.6899,1.774 -1.6022,1.774 m 6.6297,-2.7269 c -1.001,0 -1.7127,0.6433 -1.7127,2.5715 0,2.0173 0.69,2.5715 1.824,2.5715 1.001,0 1.6465,-0.9091 1.6465,-2.6598 0,-1.6407 -0.623,-2.4831 -1.7578,-2.4831 m 1.3121,9.9091 -3.5809,-0.0442 c -0.2893,0.3767 -0.49,0.8642 -0.49,1.4632 0,1.1525 0.9567,1.9507 3.248,1.9507 1.8465,0 3.2931,-0.909 3.2931,-1.9731 0,-0.975 -0.7568,-1.3749 -2.4702,-1.3966 m -1.2452,-3.9905 c -0.7568,0 -1.2235,-0.0666 -1.624,-0.1991 -0.2225,0.2875 -0.4224,0.6874 -0.4224,0.9749 0,0.5549 0.3998,0.8207 1.4677,0.8424 l 2.7362,0.0442 c 2.314,0.045 3.5156,0.9316 3.5156,2.594 0,2.1723 -2.3808,4.0121 -6.0293,4.0121 -3.3367,0 -4.872,-0.975 -4.872,-2.2607 0,-0.82 0.6898,-1.574 2.1583,-2.1281 l -0.0226,-0.2217 c -0.8898,-0.2883 -1.2904,-0.8424 -1.2904,-1.4632 0,-0.7316 0.623,-1.529 1.9352,-2.549 v -0.1332 c -1.1784,-0.5766 -2.002,-1.5965 -2.002,-2.8598 0,-2.0615 1.9576,-3.3472 4.494,-3.3472 1.491,0 2.425,0.3991 3.2036,0.9532 l 1.7127,-0.9532 h 1.2685 v 1.9282 h -0.4448 l -1.8464,-0.3542 -0.0451,0.1775 c 0.2675,0.465 0.4674,0.9532 0.4674,1.6624 0,1.884 -1.6683,3.2805 -4.3602,3.2805 M 0.1774,60.0094 V 59.2778 L 2.3132,58.7903 V 47.108 L 0.1774,46.6197 V 45.8889 H 7.764 v 0.7308 L 5.6507,47.108 v 11.6823 l 2.1133,0.4875 v 0.7316 z m 19.4889,-1.1304 1.4016,0.4874 v 0.6425 h -5.5176 v -0.6425 l 1.2017,-0.4875 v -5.2095 c 0,-1.3082 -0.4674,-2.1057 -1.6909,-2.1057 -0.7568,0 -1.2452,0.2216 -2.002,0.62 v 6.6952 l 1.1791,0.4875 v 0.6425 H 8.7207 v -0.6425 l 1.424,-0.4875 V 51.9845 L 8.7432,51.0537 v -0.5766 l 3.8041,-0.8866 0.4232,0.2659 -0.1564,1.5957 0.2676,0.045 c 1.3564,-1.2416 2.5138,-1.8399 3.7372,-1.8399 1.8239,0 2.8474,1.1524 2.8474,3.0372 z m 4.5832,-14.9854 c 1.0679,0 1.8246,0.7758 1.8246,1.7957 0,0.9974 -0.801,1.9057 -1.9133,1.9057 -1.0235,0 -1.8021,-0.7533 -1.8021,-1.7732 0,-0.9974 0.8011,-1.9282 1.8908,-1.9282 z m -2.87,7.1602 v -0.5766 l 3.9379,-0.8866 0.378,0.2217 v 9.0667 l 1.3797,0.4875 v 0.6424 H 21.3134 V 59.3665 L 22.781,58.879 v -6.8944 z m 10.1449,9.2438 c -1.7578,0 -2.6475,-0.8424 -2.6475,-2.638 v -6.2287 h -1.7127 v -0.5991 l 2.1576,-1.485 1.6465,-2.5047 h 0.8229 v 3.103 h 3.3818 v 1.4858 h -3.3818 v 5.1863 c 0,0.9315 0.1338,1.4198 0.5787,1.7298 0.4005,0.2658 0.8229,0.3324 1.557,0.3324 0.3563,0 0.823,-0.0224 1.2904,-0.0666 l 0.0226,0.6874 c -0.8237,0.51 -2.4034,0.9974 -3.7155,0.9974 m 6.8967,-16.404 c 1.068,0 1.8247,0.7758 1.8247,1.7957 0,0.9974 -0.8011,1.9057 -1.9133,1.9057 -1.0236,0 -1.8021,-0.7533 -1.8021,-1.7732 0,-0.9974 0.801,-1.9282 1.8907,-1.9282 z m -2.87,7.1602 v -0.5766 l 3.938,-0.8866 0.378,0.2217 v 9.0667 l 1.3797,0.4875 v 0.6424 H 35.485 v -0.6424 l 1.4677,-0.4875 v -6.8944 z m 12.3473,4.0345 c -2.3808,0.0884 -3.248,0.9083 -3.248,2.0173 0,1.0192 0.5786,1.574 1.6014,1.574 0.4457,0 1.0461,-0.1999 1.6466,-0.5765 z m 2.7587,2.8148 c 0,0.754 0.3337,1.2199 1.624,1.2416 l 0.0444,0.5766 c -0.6448,0.2433 -1.624,0.51 -2.4913,0.51 -1.0235,0 -1.6022,-0.4217 -1.7803,-1.4633 l -0.2668,-0.0442 c -1.001,0.9308 -1.9576,1.485 -3.1367,1.485 -1.6015,0 -2.7145,-0.8642 -2.7145,-2.394 0,-1.884 1.9585,-3.1698 5.9625,-3.458 v -1.2192 c 0,-1.6631 -0.6674,-2.2172 -2.3357,-2.2172 -0.4449,0 -0.8455,0.089 -1.1348,0.2 0.4006,0.3324 0.623,0.709 0.623,1.1965 0,0.7091 -0.49,1.264 -1.3347,1.264 -0.801,0 -1.4015,-0.6207 -1.4015,-1.3523 0,-1.5299 2.4469,-2.5715 4.7825,-2.5715 2.4252,0 3.56,0.909 3.56,3.0814 z m 5.7403,2.3945 c -1.7578,0 -2.6476,-0.8424 -2.6476,-2.638 v -6.2287 h -1.7127 v -0.5991 l 2.1576,-1.485 1.6466,-2.5047 h 0.8228 v 3.103 h 3.3818 v 1.4858 h -3.3818 v 5.1863 c 0,0.9315 0.1338,1.4198 0.5787,1.7298 0.4006,0.2658 0.8229,0.3324 1.5571,0.3324 0.3562,0 0.823,-0.0224 1.2904,-0.0666 l 0.0225,0.6874 c -0.8237,0.51 -2.4033,0.9974 -3.7154,0.9974 m 6.8966,-16.404 c 1.068,0 1.8247,0.7758 1.8247,1.7957 0,0.9974 -0.801,1.9057 -1.9133,1.9057 -1.0235,0 -1.8021,-0.7533 -1.8021,-1.7732 0,-0.9974 0.8011,-1.9282 1.8908,-1.9282 z m -2.87,7.1602 v -0.5766 l 3.938,-0.8866 0.378,0.2217 v 9.0667 l 1.3797,0.4875 v 0.6424 H 60.358 v -0.6424 l 1.4676,-0.4875 v -6.8944 z m 13.5263,3.4136 1.0678,-3.1698 -1.2903,-0.6874 v -0.6208 h 4.4053 v 0.6658 l -1.491,0.7308 -3.8266,8.8675 h -1.6458 l -3.9161,-9.0667 -1.3565,-0.5316 v -0.6658 h 5.9843 v 0.6208 l -1.379,0.5317 2.2913,5.9411 h 0.133 z m 11.213,-0.5764 c -0.0225,-2.2607 -0.6004,-3.3255 -1.8464,-3.3255 -1.2235,0 -2.0915,1.3082 -2.1801,3.5247 z m -4.049,0.9974 c 0.0225,2.4165 1.0678,3.7689 3.3148,3.7689 1.0236,0 1.9133,-0.1992 3.2262,-0.6875 l 0.2442,0.51 c -1.379,1.1307 -3.0255,1.8848 -4.494,1.8848 -3.181,0 -5.2056,-2.084 -5.2056,-5.1662 0,-3.1914 2.5138,-5.5412 5.2943,-5.5412 3.3375,0 4.6278,2.4164 4.5166,5.2312 z"
       id="path2"
       inkscape:connector-curvature="0"
       style="fill:#231f20" />
    <path
       d="m 99.1861,53.2326 c -0.4931,0.3418 -1.0702,0.5557 -1.8729,0.5727 -0.966,0.0202 -1.6916,-0.6169 -1.7585,-1.5577 -0.0358,-0.5 0.1322,-0.9781 0.4736,-1.3439 0.3423,-0.3666 0.8081,-0.572 1.3114,-0.5758 0.255,-0.0023 0.5242,0.0496 0.7552,0.1488 0,0 -0.063,0.5254 -0.084,0.7618 l 0.7949,0.0047 0.1423,-1.1826 -0.2232,-0.1411 a 2.6173,2.6173 0 0 0 -1.3922,-0.386 c -0.718,0.0063 -1.4078,0.3085 -1.8947,0.83 -0.4939,0.5294 -0.7373,1.2176 -0.6852,1.9391 0.045,0.6402 0.322,1.2245 0.7778,1.6454 0.4612,0.427 1.0826,0.6564 1.7546,0.6502 0.0164,0 0.0327,0 0.0498,-8e-4 0.4068,-0.01 0.8657,-0.0876 1.3704,-0.2867 l 0.5733,-1.109 c 0,0 -0.0117,-0.0257 -0.0926,0.031"
       id="path4"
       inkscape:connector-curvature="0"
       style="fill:#ff414c" />
    <path
       d="m 101.886,56.0737 -0.0965,1.0889 -0.002,0.0124 c -0.0389,0.4123 -0.2597,0.7618 -0.591,0.9362 -0.263,0.1387 -0.5507,0.138 -0.8097,-0.0023 -0.2692,-0.1457 -0.3975,-0.365 -0.4457,-0.6417 -0.0755,-0.4386 0.175,-0.8959 0.5164,-1.1268 l 5.3294,-3.455 a 6.526,6.526 0 0 1 0.0615,0.8944 c 0,3.5758 -2.9167,6.4844 -6.5023,6.4844 -3.5855,0 -6.503,-2.9086 -6.503,-6.4844 0,-3.5751 2.9175,-6.4845 6.503,-6.4845 2.681,0 4.9871,1.6275 5.9804,3.9432 l 0.6502,-0.4208 c -1.1383,-2.521 -3.6809,-4.2819 -6.6302,-4.2819 -4.0087,0 -7.2699,3.2496 -7.2699,7.244 0,3.9943 3.2612,7.2439 7.2699,7.2439 4.0087,0 7.2699,-3.2496 7.2699,-7.244 0,-0.461 -0.0443,-0.9121 -0.1276,-1.3492 -0.0498,-0.286 -0.1594,-0.6658 -0.178,-0.727 l -1.5136,0.9432 -2.0044,1.2648 c -0.0708,-0.2658 -0.2325,-0.5348 -0.5748,-0.6898 -0.4052,-0.1836 -1.0616,-0.0418 -1.5438,0.231 0,0 1.3198,-2.5443 1.5384,-2.962 A 0.0406,0.0406 0 0 0 102.176,50.431 l -0.0809,7e-4 8e-4,-0.0016 h -2.387 l -0.0996,0.8223 0.3734,-0.0016 h 0.9636 l -1.8892,3.6045 c -0.0366,0.0706 0.0397,0.1457 0.1104,0.1093 l 1.0088,-0.534 c 0.4861,-0.2487 1.2966,-0.7595 1.6971,-0.4642 0.0583,0.0426 0.133,0.1566 0.1377,0.2751 a 0.1336,0.1336 0 0 1 -0.0599,0.1163 l -2.0106,1.354 c -0.654,0.465 -0.9092,1.1578 -0.8485,1.8103 0.0505,0.5495 0.3935,1.0222 0.9022,1.2981 0.2676,0.1442 0.5561,0.2124 0.8439,0.2046 0.2536,-0.007 0.5063,-0.0728 0.7428,-0.1976 0.574,-0.3015 0.955,-0.889 1.022,-1.571 l 0.1618,-1.8328 z"
       id="path6"
       inkscape:connector-curvature="0"
       style="fill:#ff414c" />
  </g>
</svg>
