<?xml version="1.0" encoding="UTF-8" standalone="no"?>
<!-- Created with Inkscape (http://www.inkscape.org/) -->

<svg
   xmlns:dc="http://purl.org/dc/elements/1.1/"
   xmlns:cc="http://creativecommons.org/ns#"
   xmlns:rdf="http://www.w3.org/1999/02/22-rdf-syntax-ns#"
   xmlns:svg="http://www.w3.org/2000/svg"
   xmlns="http://www.w3.org/2000/svg"
   xmlns:sodipodi="http://sodipodi.sourceforge.net/DTD/sodipodi-0.dtd"
   xmlns:inkscape="http://www.inkscape.org/namespaces/inkscape"
   width="585.69397mm"
   height="184.94872mm"
   viewBox="0 0 585.69397 184.94872"
   version="1.1"
   id="svg8"
   inkscape:version="0.92.3 (2405546, 2018-03-11)"
   sodipodi:docname="CIJOE.svg">
  <defs
     id="defs2" />
  <sodipodi:namedview
     id="base"
     pagecolor="#ffffff"
     bordercolor="#666666"
     borderopacity="1.0"
     inkscape:pageopacity="0.0"
     inkscape:pageshadow="2"
     inkscape:zoom="0.35"
     inkscape:cx="795.46777"
     inkscape:cy="-4.0910358"
     inkscape:document-units="mm"
     inkscape:current-layer="layer1"
     showgrid="false"
     inkscape:window-width="1920"
     inkscape:window-height="1015"
     inkscape:window-x="0"
     inkscape:window-y="0"
     inkscape:window-maximized="1"
     fit-margin-top="0"
     fit-margin-left="0"
     fit-margin-right="0"
     fit-margin-bottom="0" />
  <metadata
     id="metadata5">
    <rdf:RDF>
      <cc:Work
         rdf:about="">
        <dc:format>image/svg+xml</dc:format>
        <dc:type
           rdf:resource="http://purl.org/dc/dcmitype/StillImage" />
        <dc:title></dc:title>
      </cc:Work>
    </rdf:RDF>
  </metadata>
  <g
     inkscape:label="Layer 1"
     inkscape:groupmode="layer"
     id="layer1"
     transform="translate(243.01929,321.38201)">
    <g
       id="g1197">
      <path
         sodipodi:nodetypes="ccccccccccccccccccccccccc"
         inkscape:connector-curvature="0"
         id="path841-3"
         d="m 111.41231,-310.35179 -17.39376,15.50577 -8.25635,-15.50577 H 29.56303 l -3.15224,3.23727 0.81957,-3.23727 h -137.5301 l -3.20136,8.81781 -5.79137,-8.81781 h -61.52907 l -29.36616,21.95706 -32.83159,95.80552 16.95194,27.8629 h 127.66611 l 2.30787,-4.66586 2.81533,4.66586 h 56.42395 l 17.39377,-14.40222 8.25634,14.40222 h 56.42394 l 17.39429,-14.40274 8.25582,14.40274 h 271.80458 v -145.62548 z"
         style="color:#000000;font-style:italic;font-variant:normal;font-weight:bold;font-stretch:condensed;font-size:40px;line-height:1.25;font-family:'Hauser Condensed';-inkscape-font-specification:'Hauser Condensed, Bold Italic Condensed';font-variant-ligatures:normal;font-variant-position:normal;font-variant-caps:normal;font-variant-numeric:normal;font-variant-alternates:normal;font-feature-settings:normal;text-indent:0;text-align:start;text-decoration:none;text-decoration-line:none;text-decoration-style:solid;text-decoration-color:#000000;letter-spacing:0px;word-spacing:0px;text-transform:none;writing-mode:lr-tb;direction:ltr;text-orientation:mixed;dominant-baseline:auto;baseline-shift:baseline;text-anchor:start;white-space:normal;shape-padding:0;clip-rule:nonzero;display:inline;overflow:visible;visibility:visible;opacity:1;isolation:auto;mix-blend-mode:normal;color-interpolation:sRGB;color-interpolation-filters:linearRGB;solid-color:#000000;solid-opacity:1;vector-effect:none;fill:#000000;fill-opacity:1;fill-rule:nonzero;stroke:none;stroke-width:20;stroke-linecap:butt;stroke-linejoin:miter;stroke-miterlimit:4;stroke-dasharray:none;stroke-dashoffset:0;stroke-opacity:1;color-rendering:auto;image-rendering:auto;shape-rendering:auto;text-rendering:auto;enable-background:accumulate" />
      <path
         id="path853-5"
         d="m -176.49027,-300.87408 -24.2745,18.58181 -30.31495,88.46127 11.52178,18.58232 h 52.57612 l 24.27396,-18.58232 6.82387,-19.80345 h -38.03384 l -3.01997,8.72402 h -12.3052 l 22.70818,-66.30241 h 12.30519 l -2.90835,8.72401 h 38.03333 l 6.71174,-19.80344 -11.52178,-18.58181 z"
         style="font-style:italic;font-variant:normal;font-weight:bold;font-stretch:condensed;font-size:40px;line-height:1.25;font-family:'Hauser Condensed';-inkscape-font-specification:'Hauser Condensed, Bold Italic Condensed';letter-spacing:0px;word-spacing:0px;fill:#ffffff;fill-opacity:1;stroke:none;stroke-width:10;stroke-miterlimit:4;stroke-dasharray:none"
         inkscape:connector-curvature="0" />
      <path
         id="path851-9"
         d="m -102.21317,-300.87408 -43.06714,125.6254 h 38.03334 l 43.06714,-125.6254 z"
         style="font-style:italic;font-variant:normal;font-weight:bold;font-stretch:condensed;font-size:40px;line-height:1.25;font-family:'Hauser Condensed';-inkscape-font-specification:'Hauser Condensed, Bold Italic Condensed';letter-spacing:0px;word-spacing:0px;fill:#ffffff;fill-opacity:1;stroke:none;stroke-width:10;stroke-miterlimit:4;stroke-dasharray:none"
         inkscape:connector-curvature="0" />
      <path
         id="path849-3"
         d="m -19.19963,-299.79973 -29.28349,95.96365 h -10.95643 l 7.96799,-26.17204 H -85.3372 l -11.35486,37.25147 10.25932,18.58234 h 46.8142 l 21.61418,-18.58234 32.67036,-107.04308 z"
         style="font-style:italic;font-variant:normal;font-weight:bold;font-stretch:condensed;font-size:40px;line-height:1.25;font-family:'Hauser Condensed';-inkscape-font-specification:'Hauser Condensed, Bold Italic Condensed';letter-spacing:0px;word-spacing:0px;fill:#ffffff;fill-opacity:1;stroke:none;stroke-width:10;stroke-miterlimit:4;stroke-dasharray:none"
         inkscape:connector-curvature="0" />
      <path
         id="path861-4"
         d="m 34.18808,-299.79972 -21.81314,18.58181 -26.99318,88.46127 10.25932,18.58233 h 46.8142 l 21.61418,-18.58233 26.99319,-88.46127 -10.25932,-18.58181 z"
         style="font-style:italic;font-variant:normal;font-weight:bold;font-stretch:condensed;font-size:40px;line-height:1.25;font-family:'Hauser Condensed';-inkscape-font-specification:'Hauser Condensed, Bold Italic Condensed';letter-spacing:0px;word-spacing:0px;fill:#ffffff;fill-opacity:1;stroke:none;stroke-width:10;stroke-miterlimit:4;stroke-dasharray:none"
         inkscape:connector-curvature="0" />
      <path
         id="path847-1"
         d="m 42.85369,-270.13796 h 10.95645 l -20.21943,66.30189 H 22.63426 Z"
         style="font-style:italic;font-variant:normal;font-weight:bold;font-stretch:condensed;font-size:40px;line-height:1.25;font-family:'Hauser Condensed';-inkscape-font-specification:'Hauser Condensed, Bold Italic Condensed';letter-spacing:0px;word-spacing:0px;fill:#000000;fill-opacity:1;stroke:none;stroke-width:10;stroke-miterlimit:4;stroke-dasharray:none"
         inkscape:connector-curvature="0" />
      <path
         sodipodi:nodetypes="ccccccccccccccccccc"
         inkscape:connector-curvature="0"
         id="path845-5"
         d="m 116.06318,-299.79972 -21.61418,18.58181 -26.99266,88.46127 10.2588,18.58233 h 62.7512 l 10.63553,-34.95342 h -44.74196 -0.0403 0.0403 l 2.3554,-7.737 h 44.82208 l 12.20597,-40.24457 h -44.74197 -0.0403 0.0403 l 2.3554,-7.737 h 44.82209 l 10.635,-34.95342 z"
         style="font-style:italic;font-variant:normal;font-weight:bold;font-stretch:condensed;font-size:40px;line-height:1.25;font-family:'Hauser Condensed';-inkscape-font-specification:'Hauser Condensed, Bold Italic Condensed';letter-spacing:0px;word-spacing:0px;fill:#ffffff;fill-opacity:1;stroke:none;stroke-width:10;stroke-miterlimit:4;stroke-dasharray:none" />
      <path
         inkscape:connector-curvature="0"
         id="path867-0"
         d="m -156.04459,-179.28667 -2.65411,7.74217 h 4.44727 l 2.6541,-7.74217 z"
         style="font-style:italic;font-variant:normal;font-weight:bold;font-stretch:condensed;font-size:40px;line-height:1.25;font-family:'Hauser Condensed';-inkscape-font-specification:'Hauser Condensed, Bold Italic Condensed';letter-spacing:0px;word-spacing:0px;fill:#ffffff;fill-opacity:1;stroke:none;stroke-width:1.16930079;stroke-miterlimit:4;stroke-dasharray:none" />
      <path
         style="font-style:italic;font-variant:normal;font-weight:bold;font-stretch:condensed;font-size:40px;line-height:1.25;font-family:'Hauser Condensed';-inkscape-font-specification:'Hauser Condensed, Bold Italic Condensed';letter-spacing:0px;word-spacing:0px;fill:#ffffff;fill-opacity:1;stroke:none;stroke-width:1.16930079;stroke-miterlimit:4;stroke-dasharray:none"
         d="m -100.29311,-179.28667 -2.6541,7.74217 h 4.44727 l 2.65411,-7.74217 z"
         id="path874-8"
         inkscape:connector-curvature="0" />
      <path
         style="font-style:italic;font-variant:normal;font-weight:bold;font-stretch:condensed;font-size:40px;line-height:1.25;font-family:'Hauser Condensed';-inkscape-font-specification:'Hauser Condensed, Bold Italic Condensed';letter-spacing:0px;word-spacing:0px;fill:#ee3e41;fill-opacity:1;stroke:none;stroke-width:10;stroke-miterlimit:4;stroke-dasharray:none"
         d="m 188.16627,-299.79972 -10.67118,34.95342 h 165.17956 v -34.95342 z"
         id="path901"
         inkscape:connector-curvature="0"
         sodipodi:nodetypes="ccccc" />
      <path
         style="font-style:italic;font-variant:normal;font-weight:bold;font-stretch:condensed;font-size:40px;line-height:1.25;font-family:'Hauser Condensed';-inkscape-font-specification:'Hauser Condensed, Bold Italic Condensed';letter-spacing:0px;word-spacing:0px;fill:#ffffff;fill-opacity:1;stroke:none;stroke-width:10;stroke-miterlimit:4;stroke-dasharray:none"
         d="m 175.13297,-257.1093 -12.28659,40.24457 h 179.82827 v -40.24457 z"
         id="path903"
         inkscape:connector-curvature="0"
         sodipodi:nodetypes="ccccc" />
      <path
         style="font-style:italic;font-variant:normal;font-weight:bold;font-stretch:condensed;font-size:40px;line-height:1.25;font-family:'Hauser Condensed';-inkscape-font-specification:'Hauser Condensed, Bold Italic Condensed';letter-spacing:0px;word-spacing:0px;fill:#007cc2;fill-opacity:1;stroke:none;stroke-width:10;stroke-miterlimit:4;stroke-dasharray:none"
         d="m 160.48424,-209.12773 -10.67118,34.95342 h 192.86159 v -34.95342 z"
         id="path905"
         inkscape:connector-curvature="0"
         sodipodi:nodetypes="ccccc" />
      <path
         sodipodi:nodetypes="cccccccccccccccccccccccccccc"
         inkscape:connector-curvature="0"
         id="path990"
         d="m -34.340215,-321.38201 -14.04271,17.96852 -36.6409,-1.96098 23.58426,19.8379 -17.93103,28.72502 32.35681,-13.36174 20.41584,12.91406 -0.1424,-26.65039 30.270827,-19.54101 -27.051627,0.28677 -6.34212,-18.21815 z m -1.03103,11.54664 0.73047,10.01172 3.35547,3.11524 12.43555,-0.0117 -13.16211,8.17187 -1.58008,3.09961 1.28125,17.55078 -12.40039,-8.89453 -3.40625,-0.30078 -17.14649,8.18945 11.06055,-15.14648 -0.49414,-4.50586 -9.23633,-8.12305 17.26172,-0.0156 2.71094,-1.37696 z"
         style="color:#000000;font-style:normal;font-variant:normal;font-weight:normal;font-stretch:normal;font-size:medium;line-height:normal;font-family:sans-serif;font-variant-ligatures:normal;font-variant-position:normal;font-variant-caps:normal;font-variant-numeric:normal;font-variant-alternates:normal;font-feature-settings:normal;text-indent:0;text-align:start;text-decoration:none;text-decoration-line:none;text-decoration-style:solid;text-decoration-color:#000000;letter-spacing:normal;word-spacing:normal;text-transform:none;writing-mode:lr-tb;direction:ltr;text-orientation:mixed;dominant-baseline:auto;baseline-shift:baseline;text-anchor:start;white-space:normal;shape-padding:0;clip-rule:nonzero;display:inline;overflow:visible;visibility:visible;opacity:1;isolation:auto;mix-blend-mode:normal;color-interpolation:sRGB;color-interpolation-filters:linearRGB;solid-color:#000000;solid-opacity:1;vector-effect:none;fill:#000000;fill-opacity:1;fill-rule:nonzero;stroke:none;stroke-width:6.72023869;stroke-linecap:round;stroke-linejoin:bevel;stroke-miterlimit:4;stroke-dasharray:none;stroke-dashoffset:0;stroke-opacity:1;color-rendering:auto;image-rendering:auto;shape-rendering:auto;text-rendering:auto;enable-background:accumulate" />
      <path
         inkscape:connector-curvature="0"
         id="path979"
         d="m -32.685665,-319.21051 -13.98984,19.15647 -26.15655,0.0232 15.91583,13.99863 -18.91254,25.89715 29.15946,-13.92629 18.23299,13.07827 -1.8035,-24.70962 23.190827,-14.39704 -24.239867,0.0217 z"
         style="opacity:1;fill:#ffffff;fill-opacity:1;stroke:none;stroke-width:6.72023869;stroke-linecap:round;stroke-linejoin:bevel;stroke-miterlimit:4;stroke-dasharray:none;stroke-dashoffset:0;stroke-opacity:1" />
      <path
         inkscape:connector-curvature="0"
         style="opacity:1;fill:#007cc2;fill-opacity:1;stroke:none;stroke-width:4.80831337;stroke-linecap:round;stroke-linejoin:bevel;stroke-miterlimit:4;stroke-dasharray:none;stroke-dashoffset:0;stroke-opacity:1"
         d="m -36.006465,-309.88692 -10.00969,13.70641 -18.71494,0.0166 11.38773,10.01597 -13.53187,18.52935 20.86351,-9.96423 13.04566,9.35748 -1.2904,-17.67967 16.59298,-10.30104 -17.34356,0.0156 z"
         id="path988" />
      <g
         id="flowRoot1063"
         style="font-style:normal;font-weight:normal;font-size:40px;line-height:1.25;font-family:sans-serif;letter-spacing:0px;word-spacing:0px;fill:#ffffff;fill-opacity:1;stroke:#000000;stroke-width:1.92866302;stroke-miterlimit:4;stroke-dasharray:none"
         transform="matrix(0.85198616,0,0,0.7753394,715.91382,273.08714)"
         aria-label="MAKE YOUR CODE GREAT AGAIN!">
        <path
           id="path1111"
           style="font-style:italic;font-variant:normal;font-weight:bold;font-stretch:condensed;font-family:'Hauser Condensed';-inkscape-font-specification:'Hauser Condensed, Bold Italic Condensed';fill:#ffffff;stroke:#000000;stroke-width:1.92866302;stroke-miterlimit:4;stroke-dasharray:none"
           d="m -1089.2227,-542.87695 -3.6718,13.73047 h -6.6407 l 7.5196,-28.125 h 10.9765 l -1.2304,11.60156 4.9609,-11.60156 h 10.9766 l -7.5196,28.125 h -6.6406 l 3.6719,-13.73047 -5.8789,13.73047 h -7.9883 z"
           inkscape:connector-curvature="0" />
        <path
           id="path1113"
           style="font-style:italic;font-variant:normal;font-weight:bold;font-stretch:condensed;font-family:'Hauser Condensed';-inkscape-font-specification:'Hauser Condensed, Bold Italic Condensed';fill:#ffffff;stroke:#000000;stroke-width:1.92866302;stroke-miterlimit:4;stroke-dasharray:none"
           d="m -1064.3984,-536.95898 -2.0899,7.8125 h -6.6406 l 6.4062,-23.96485 4.2383,-4.16015 h 9.1797 l 2.0117,4.16015 -6.4062,23.96485 h -6.6406 l 2.0898,-7.8125 z m 3.9257,-6.64063 1.875,-7.03125 h -2.1484 l -1.875,7.03125 z"
           inkscape:connector-curvature="0" />
        <path
           id="path1115"
           style="font-style:italic;font-variant:normal;font-weight:bold;font-stretch:condensed;font-family:'Hauser Condensed';-inkscape-font-specification:'Hauser Condensed, Bold Italic Condensed';fill:#ffffff;stroke:#000000;stroke-width:1.92866302;stroke-miterlimit:4;stroke-dasharray:none"
           d="m -1050.3945,-529.14648 h -6.6407 l 7.5196,-28.125 h 6.6406 l -2.8711,10.74218 h 2.1484 l 2.8711,-10.74218 h 6.6407 l -3.0079,11.26953 -2.832,2.79297 1.3281,2.79296 -3.0078,11.26954 h -6.6406 l 2.8711,-10.74219 h -2.1484 z"
           inkscape:connector-curvature="0" />
        <path
           id="path1117"
           style="font-style:italic;font-variant:normal;font-weight:bold;font-stretch:condensed;font-family:'Hauser Condensed';-inkscape-font-specification:'Hauser Condensed, Bold Italic Condensed';fill:#ffffff;stroke:#000000;stroke-width:1.92866302;stroke-miterlimit:4;stroke-dasharray:none"
           d="m -1028.5586,-550.63086 -1.0937,4.10156 h 8.789 l -1.7773,6.64063 h -8.7891 l -1.0937,4.10156 h 8.789 l -1.7773,6.64063 h -12.3047 l -2.0117,-4.16016 5.2929,-19.80469 4.2383,-4.16015 h 12.3047 l -1.7773,6.64062 z"
           inkscape:connector-curvature="0" />
        <path
           id="path1119"
           style="font-style:italic;font-variant:normal;font-weight:bold;font-stretch:condensed;font-family:'Hauser Condensed';-inkscape-font-specification:'Hauser Condensed, Bold Italic Condensed';fill:#ffffff;stroke:#000000;stroke-width:1.92866302;stroke-miterlimit:4;stroke-dasharray:none"
           d="m -1005.8633,-539.88867 h -1.2695 l -2.0117,-4.16016 3.5351,-13.22265 h 6.64065 l -2.87105,10.74218 h 2.14839 l 2.8711,-10.74218 h 6.64062 l -3.53515,13.22265 -4.23828,4.16016 h -1.26954 l -2.87104,10.74219 h -6.6602 z"
           inkscape:connector-curvature="0" />
        <path
           id="path1121"
           style="font-style:italic;font-variant:normal;font-weight:bold;font-stretch:condensed;font-family:'Hauser Condensed';-inkscape-font-specification:'Hauser Condensed, Bold Italic Condensed';fill:#ffffff;stroke:#000000;stroke-width:1.92866302;stroke-miterlimit:4;stroke-dasharray:none"
           d="m -980.49219,-533.30664 -4.23828,4.16016 h -9.17969 l -2.01171,-4.16016 5.29296,-19.80469 4.27735,-4.16015 h 9.14062 l 2.01172,4.16015 z m -5.97656,-2.48047 3.96484,-14.84375 h -2.14843 l -3.96485,14.84375 z"
           inkscape:connector-curvature="0" />
        <path
           id="path1123"
           style="font-style:italic;font-variant:normal;font-weight:bold;font-stretch:condensed;font-family:'Hauser Condensed';-inkscape-font-specification:'Hauser Condensed, Bold Italic Condensed';fill:#ffffff;stroke:#000000;stroke-width:1.92866302;stroke-miterlimit:4;stroke-dasharray:none"
           d="m -966.78125,-557.27148 -5.74219,21.48437 h 2.14844 l 5.74219,-21.48437 h 6.64062 l -6.40625,23.96484 -4.23828,4.16016 h -9.17969 l -2.01171,-4.16016 6.40625,-23.96484 z"
           inkscape:connector-curvature="0" />
        <path
           id="path1125"
           style="font-style:italic;font-variant:normal;font-weight:bold;font-stretch:condensed;font-family:'Hauser Condensed';-inkscape-font-specification:'Hauser Condensed, Bold Italic Condensed';fill:#ffffff;stroke:#000000;stroke-width:1.92866302;stroke-miterlimit:4;stroke-dasharray:none"
           d="m -950.31641,-550.63086 h -2.14843 l -1.34766,5.07813 h 2.14844 z m -5.66406,13.18359 -2.22656,8.30079 h -6.64063 l 7.51954,-28.125 h 12.30468 l 2.01172,4.16015 -2.67578,10.03906 -3.47656,3.37891 0.99609,10.54688 h -7.03125 z"
           inkscape:connector-curvature="0" />
        <path
           id="path1127"
           style="font-style:italic;font-variant:normal;font-weight:bold;font-stretch:condensed;font-family:'Hauser Condensed';-inkscape-font-specification:'Hauser Condensed, Bold Italic Condensed';fill:#ffffff;stroke:#000000;stroke-width:1.92866302;stroke-miterlimit:4;stroke-dasharray:none"
           d="m -922.50391,-550.63086 h -2.14843 l -3.96485,14.84375 h 2.14844 l 0.52734,-1.95312 h 6.64063 l -1.19141,4.43359 -4.23828,4.16016 h -9.17969 l -2.01171,-4.16016 5.29296,-19.80469 4.23829,-4.16015 h 9.17968 l 2.01172,4.16015 -1.17187,4.4336 h -6.64063 z"
           inkscape:connector-curvature="0" />
        <path
           id="path1129"
           style="font-style:italic;font-variant:normal;font-weight:bold;font-stretch:condensed;font-family:'Hauser Condensed';-inkscape-font-specification:'Hauser Condensed, Bold Italic Condensed';fill:#ffffff;stroke:#000000;stroke-width:1.92866302;stroke-miterlimit:4;stroke-dasharray:none"
           d="m -904.39844,-533.30664 -4.23828,4.16016 h -9.17969 l -2.01171,-4.16016 5.29296,-19.80469 4.27735,-4.16015 h 9.14062 l 2.01172,4.16015 z m -5.97656,-2.48047 3.96484,-14.84375 h -2.14843 l -3.96485,14.84375 z"
           inkscape:connector-curvature="0" />
        <path
           id="path1131"
           style="font-style:italic;font-variant:normal;font-weight:bold;font-stretch:condensed;font-family:'Hauser Condensed';-inkscape-font-specification:'Hauser Condensed, Bold Italic Condensed';fill:#ffffff;stroke:#000000;stroke-width:1.92866302;stroke-miterlimit:4;stroke-dasharray:none"
           d="m -888.30469,-533.30664 -4.23828,4.16016 h -12.30469 l 7.51954,-28.125 h 12.30468 l 2.01172,4.16015 z m -5.97656,-2.48047 3.96484,-14.84375 h -2.14843 l -3.96485,14.84375 z"
           inkscape:connector-curvature="0" />
        <path
           id="path1133"
           style="font-style:italic;font-variant:normal;font-weight:bold;font-stretch:condensed;font-family:'Hauser Condensed';-inkscape-font-specification:'Hauser Condensed, Bold Italic Condensed';fill:#ffffff;stroke:#000000;stroke-width:1.92866302;stroke-miterlimit:4;stroke-dasharray:none"
           d="m -876.37109,-550.63086 -1.09375,4.10156 h 8.78906 l -1.77734,6.64063 h -8.78907 l -1.09375,4.10156 h 8.78907 l -1.77735,6.64063 h -12.30469 l -2.01171,-4.16016 5.29296,-19.80469 4.23829,-4.16015 h 12.30468 l -1.77734,6.64062 z"
           inkscape:connector-curvature="0" />
        <path
           id="path1135"
           style="font-style:italic;font-variant:normal;font-weight:bold;font-stretch:condensed;font-family:'Hauser Condensed';-inkscape-font-specification:'Hauser Condensed, Bold Italic Condensed';fill:#ffffff;stroke:#000000;stroke-width:1.92866302;stroke-miterlimit:4;stroke-dasharray:none"
           d="m -844.39844,-533.30664 -4.23828,4.16016 h -9.17969 l -2.01171,-4.16016 5.29296,-19.80469 4.23829,-4.16015 h 9.17968 l 2.01172,4.16015 -1.17187,4.4336 h -6.64063 l 0.50781,-1.95313 h -2.14843 l -3.96485,14.84375 h 2.14844 l 1.09375,-4.10156 h -1.46484 l 1.77734,-6.64063 h 8.10547 z"
           inkscape:connector-curvature="0" />
        <path
           id="path1137"
           style="font-style:italic;font-variant:normal;font-weight:bold;font-stretch:condensed;font-family:'Hauser Condensed';-inkscape-font-specification:'Hauser Condensed, Bold Italic Condensed';fill:#ffffff;stroke:#000000;stroke-width:1.92866302;stroke-miterlimit:4;stroke-dasharray:none"
           d="m -830.31641,-550.63086 h -2.14843 l -1.34766,5.07813 h 2.14844 z m -5.66406,13.18359 -2.22656,8.30079 h -6.64063 l 7.51954,-28.125 h 12.30468 l 2.01172,4.16015 -2.67578,10.03906 -3.47656,3.37891 0.99609,10.54688 h -7.03125 z"
           inkscape:connector-curvature="0" />
        <path
           id="path1139"
           style="font-style:italic;font-variant:normal;font-weight:bold;font-stretch:condensed;font-family:'Hauser Condensed';-inkscape-font-specification:'Hauser Condensed, Bold Italic Condensed';fill:#ffffff;stroke:#000000;stroke-width:1.92866302;stroke-miterlimit:4;stroke-dasharray:none"
           d="m -816.37109,-550.63086 -1.09375,4.10156 h 8.78906 l -1.77734,6.64063 h -8.78907 l -1.09375,4.10156 h 8.78907 l -1.77735,6.64063 h -12.30469 l -2.01171,-4.16016 5.29296,-19.80469 4.23829,-4.16015 h 12.30468 l -1.77734,6.64062 z"
           inkscape:connector-curvature="0" />
        <path
           id="path1141"
           style="font-style:italic;font-variant:normal;font-weight:bold;font-stretch:condensed;font-family:'Hauser Condensed';-inkscape-font-specification:'Hauser Condensed, Bold Italic Condensed';fill:#ffffff;stroke:#000000;stroke-width:1.92866302;stroke-miterlimit:4;stroke-dasharray:none"
           d="m -803.92969,-536.95898 -2.08984,7.8125 h -6.64063 l 6.40625,-23.96485 4.23829,-4.16015 h 9.17968 l 2.01172,4.16015 -6.40625,23.96485 h -6.64062 l 2.08984,-7.8125 z m 3.92578,-6.64063 1.875,-7.03125 h -2.14843 l -1.875,7.03125 z"
           inkscape:connector-curvature="0" />
        <path
           id="path1143"
           style="font-style:italic;font-variant:normal;font-weight:bold;font-stretch:condensed;font-family:'Hauser Condensed';-inkscape-font-specification:'Hauser Condensed, Bold Italic Condensed';fill:#ffffff;stroke:#000000;stroke-width:1.92866302;stroke-miterlimit:4;stroke-dasharray:none"
           d="m -773.61719,-557.27148 -1.77734,6.64062 h -4.39453 l -5.74219,21.48438 h -6.64062 l 5.74218,-21.48438 h -4.39453 l 1.77735,-6.64062 z"
           inkscape:connector-curvature="0" />
        <path
           id="path1145"
           style="font-style:italic;font-variant:normal;font-weight:bold;font-stretch:condensed;font-family:'Hauser Condensed';-inkscape-font-specification:'Hauser Condensed, Bold Italic Condensed';fill:#ffffff;stroke:#000000;stroke-width:1.92866302;stroke-miterlimit:4;stroke-dasharray:none"
           d="m -760.02344,-536.95898 -2.08984,7.8125 h -6.64063 l 6.40625,-23.96485 4.23829,-4.16015 h 9.17968 l 2.01172,4.16015 -6.40625,23.96485 h -6.64062 l 2.08984,-7.8125 z m 3.92578,-6.64063 1.875,-7.03125 h -2.14843 l -1.875,7.03125 z"
           inkscape:connector-curvature="0" />
        <path
           id="path1147"
           style="font-style:italic;font-variant:normal;font-weight:bold;font-stretch:condensed;font-family:'Hauser Condensed';-inkscape-font-specification:'Hauser Condensed, Bold Italic Condensed';fill:#ffffff;stroke:#000000;stroke-width:1.92866302;stroke-miterlimit:4;stroke-dasharray:none"
           d="m -736.11719,-533.30664 -4.23828,4.16016 h -9.17969 l -2.01171,-4.16016 5.29296,-19.80469 4.23829,-4.16015 h 9.17968 l 2.01172,4.16015 -1.17187,4.4336 h -6.64063 l 0.50781,-1.95313 h -2.14843 l -3.96485,14.84375 h 2.14844 L -741,-539.88867 h -1.46484 l 1.77734,-6.64063 h 8.10547 z"
           inkscape:connector-curvature="0" />
        <path
           id="path1149"
           style="font-style:italic;font-variant:normal;font-weight:bold;font-stretch:condensed;font-family:'Hauser Condensed';-inkscape-font-specification:'Hauser Condensed, Bold Italic Condensed';fill:#ffffff;stroke:#000000;stroke-width:1.92866302;stroke-miterlimit:4;stroke-dasharray:none"
           d="m -727.83594,-536.95898 -2.08984,7.8125 h -6.64063 l 6.40625,-23.96485 4.23829,-4.16015 h 9.17968 l 2.01172,4.16015 -6.40625,23.96485 h -6.64062 l 2.08984,-7.8125 z m 3.92578,-6.64063 1.875,-7.03125 h -2.14843 l -1.875,7.03125 z"
           inkscape:connector-curvature="0" />
        <path
           id="path1151"
           style="font-style:italic;font-variant:normal;font-weight:bold;font-stretch:condensed;font-family:'Hauser Condensed';-inkscape-font-specification:'Hauser Condensed, Bold Italic Condensed';fill:#ffffff;stroke:#000000;stroke-width:1.92866302;stroke-miterlimit:4;stroke-dasharray:none"
           d="m -720.47266,-529.14648 7.51954,-28.125 h 6.64062 l -7.51953,28.125 z"
           inkscape:connector-curvature="0" />
        <path
           id="path1153"
           style="font-style:italic;font-variant:normal;font-weight:bold;font-stretch:condensed;font-family:'Hauser Condensed';-inkscape-font-specification:'Hauser Condensed, Bold Italic Condensed';fill:#ffffff;stroke:#000000;stroke-width:1.92866302;stroke-miterlimit:4;stroke-dasharray:none"
           d="m -704.00781,-538.44336 -2.48047,9.29688 h -6.64063 l 7.51954,-28.125 h 6.89453 l 0.8789,9.29687 2.48047,-9.29687 h 6.64063 l -7.51953,28.125 h -6.89454 z"
           inkscape:connector-curvature="0" />
        <path
           id="path1155"
           style="font-style:italic;font-variant:normal;font-weight:bold;font-stretch:condensed;font-family:'Hauser Condensed';-inkscape-font-specification:'Hauser Condensed, Bold Italic Condensed';fill:#ffffff;stroke:#000000;stroke-width:1.92866302;stroke-miterlimit:4;stroke-dasharray:none"
           d="m -693.77344,-535.78711 h 6.64063 l -1.77735,6.64063 h -6.64062 z m 0.29297,-1.17187 5.44922,-20.3125 h 6.64063 l -5.42969,20.3125 z"
           inkscape:connector-curvature="0" />
      </g>
    </g>
  </g>
</svg>
