<?xml version="1.0" encoding="UTF-8" standalone="no"?>
<svg
   xmlns:dc="http://purl.org/dc/elements/1.1/"
   xmlns:cc="http://creativecommons.org/ns#"
   xmlns:rdf="http://www.w3.org/1999/02/22-rdf-syntax-ns#"
   xmlns:svg="http://www.w3.org/2000/svg"
   xmlns="http://www.w3.org/2000/svg"
   xmlns:xlink="http://www.w3.org/1999/xlink"
   xmlns:sodipodi="http://sodipodi.sourceforge.net/DTD/sodipodi-0.dtd"
   xmlns:inkscape="http://www.inkscape.org/namespaces/inkscape"
   width="86.819283"
   height="100"
   viewBox="0 0 86.819283 99.999996"
   version="1.1"
   id="svg74"
   sodipodi:docname="conda_logo.svg"
   inkscape:version="0.92.3 (2405546, 2018-03-11)">
  <metadata
     id="metadata78">
    <rdf:RDF>
      <cc:Work
         rdf:about="">
        <dc:format>image/svg+xml</dc:format>
        <dc:type
           rdf:resource="http://purl.org/dc/dcmitype/StillImage" />
        <dc:title>logo_conda_RGB_inkscape</dc:title>
      </cc:Work>
    </rdf:RDF>
  </metadata>
  <sodipodi:namedview
     pagecolor="#ffffff"
     bordercolor="#666666"
     borderopacity="1"
     objecttolerance="10"
     gridtolerance="10"
     guidetolerance="10"
     inkscape:pageopacity="0"
     inkscape:pageshadow="2"
     inkscape:window-width="1920"
     inkscape:window-height="1015"
     id="namedview76"
     showgrid="false"
     fit-margin-top="0"
     fit-margin-left="0"
     fit-margin-right="0"
     fit-margin-bottom="0"
     inkscape:zoom="3.1528141"
     inkscape:cx="40.294803"
     inkscape:cy="74.99676"
     inkscape:window-x="0"
     inkscape:window-y="0"
     inkscape:window-maximized="1"
     inkscape:current-layer="svg74" />
  <!-- Generator: Sketch 3.8.3 (29802) - http://www.bohemiancoding.com/sketch -->
  <title
     id="title2">logo_conda_RGB_inkscape</title>
  <desc
     id="desc4">Created with Sketch.</desc>
  <defs
     id="defs8">
    <path
       d="m 12.125266,1.9631383 c 3.69532,9.8156917 16.628937,22.8647877 32.565001,22.8647877 8.776383,0 16.744416,-3.117925 22.980267,-8.429947 0.461915,-0.230957 4.734628,4.619149 6.466809,6.466809 0.346436,0.461915 0.346436,0.577393 0.346436,0.577393 C 53.46665,41.803299 17.783724,39.147288 0.92382981,7.3906385 2.3095745,2.7714894 4.2727129,0 4.2727129,0 8.7763832,1.8476596 12.125266,1.9631383 12.125266,1.9631383 Z"
       id="path-1"
       inkscape:connector-curvature="0" />
    <rect
       id="path-3"
       x="0.46191722"
       y="0.57739365"
       width="90.535324"
       height="103.93085" />
    <mask
       fill="white"
       id="mask-2">
      <use
         height="100%"
         width="100%"
         y="0"
         x="0"
         id="use42"
         xlink:href="#path-1" />
    </mask>
    <mask
       id="mask-4"
       fill="white">
      <use
         xlink:href="#path-3"
         id="use46"
         x="0"
         y="0"
         width="100%"
         height="100%" />
    </mask>
  </defs>
  <g
     id="g782">
    <path
       d="m 23.875956,53.323778 c -1.915914,-0.450804 -5.860443,-1.690513 -10.030373,-4.282632 4.508033,-2.592118 8.565262,-3.042922 10.030373,-3.155623 0.225402,-1.690512 0.563504,-3.268324 1.014308,-4.846135 -1.465112,-1.127009 -4.282632,-3.381025 -6.874751,-6.76205 4.16993,-0.338103 7.776357,0.225401 9.57957,0.563504 0.901607,-1.577812 2.028615,-3.042922 3.381025,-4.508033 -0.788906,-1.35241 -2.254016,-4.05723 -3.155623,-7.776358 3.381025,1.465112 5.860442,3.268324 7.100151,4.282632 1.690513,-1.239709 3.493726,-2.254017 5.29694,-3.155623 0,-1.577812 0,-4.395332 0.676205,-7.776357 2.366717,2.479418 3.831828,4.846136 4.395332,6.085845 2.254017,-0.450803 4.620734,-0.676206 7.100152,-0.563505 0.450803,-1.239709 1.35241,-3.381024 2.930221,-5.973143 1.127008,2.930221 1.577812,5.296939 1.803214,6.536648 2.479418,0.563503 4.846135,1.352409 7.100152,2.479418 3.606426,-3.042923 6.98745,-4.395333 10.93198,-5.40964 0,-4.958836 -0.676205,-9.8049711 -3.268324,-14.6511068 -2.592119,-1.2397091 -5.40964,-2.1413157 -8.22716,-2.8175206 -2.930222,1.5778115 -5.296939,3.3810248 -7.325554,5.2969388 -1.465111,-2.2540165 -3.381025,-4.6207339 -5.747742,-6.7620495 -1.127009,0 -3.268324,-0.1127009 -7.438254,0.563504 -2.028616,2.5921191 -3.493726,5.1842381 -4.620734,7.776357 -2.479419,-1.5778115 -5.522341,-2.9302214 -9.016066,-3.831828 -2.028615,0.9016066 -3.94453,1.915914 -5.860444,3.042922 -0.676205,3.2683241 -0.901606,6.3112461 -0.788905,9.1287661 -2.930222,-0.563503 -6.311247,-0.788905 -9.917673,-0.338102 -1.239709,1.35241 -2.479418,2.817521 -3.6064261,4.395332 0.2254016,4.057231 1.2397091,7.550956 2.7048191,10.593878 C 8.6613449,32.248723 5.1676193,33.713833 1.8992953,35.96785 1.448492,37.432961 1.1103895,39.010772 0.77228714,40.475883 2.8009019,43.969609 5.3930209,46.78713 7.98514,48.928445 5.3930209,51.069761 2.8009019,53.999982 0.43418462,57.944512 0.65958627,59.635023 0.99768871,61.212836 1.448492,62.790647 h 0.1127008 c 2.7048199,-5.635042 5.9731439,-9.354168 9.1287662,-11.833587 6.423948,4.395332 12.735193,5.635041 13.6368,5.747743 -0.112701,-1.014308 -0.338102,-2.028616 -0.450803,-3.381025 z M 66.70227,5.4259267 c 2.254016,3.3810252 3.042922,7.5509553 3.268324,9.9176723 -2.028616,0.788906 -5.184238,2.254016 -8.227161,4.733434 -0.450802,-2.141315 -1.239709,-5.296938 -2.930221,-8.903365 2.028615,-2.0286141 4.620734,-4.0572289 7.889058,-5.7477413 z M 46.979625,3.1719101 c 2.70482,2.2540166 4.733435,4.9588368 6.198545,7.4382539 -2.366717,3.042923 -3.831827,5.973144 -4.620733,8.001759 -1.127009,-2.028615 -3.155623,-4.733434 -6.198546,-7.438255 1.014308,-2.5921181 2.479419,-5.4096389 4.620734,-8.0017579 z M 27.707784,8.6942509 c 3.944529,0.788905 6.987451,2.2540161 9.57957,4.0572291 -1.127008,3.944529 -1.35241,7.438254 -1.35241,9.692271 C 33.90633,20.97864 30.976108,19.175427 27.14428,17.935718 26.806177,15.230898 26.918878,12.075275 27.707784,8.6942509 Z M 23.537853,21.091341 c 0.788906,4.395332 2.254017,7.776357 3.381025,9.917673 -2.592119,-0.450803 -6.536647,-0.788906 -10.93198,-0.225402 -1.465111,-2.817521 -2.592119,-6.311246 -2.817521,-10.255775 3.831829,-0.450804 7.325555,-0.1127 10.368476,0.563504 z M 3.8152094,39.123473 c 3.2683239,-2.366717 6.8747496,-3.606426 10.1430736,-4.282631 2.366718,3.719128 5.296939,6.423947 7.325554,8.114459 -2.592119,0.450804 -6.423947,1.465111 -10.481177,4.05723 C 8.3232425,45.096617 5.8438243,42.504498 3.8152094,39.123473 Z"
       id="path21"
       inkscape:connector-curvature="0"
       style="fill:#ffffff;fill-rule:evenodd;stroke:#2db24a;stroke-width:0.24398611" />
    <path
       inkscape:connector-curvature="0"
       id="path25"
       d="m 50.69937,0.1299347 c 2.366718,2.1413157 4.281907,4.5070676 5.747017,6.7610841 2.028615,-1.915914 4.39508,-3.7193559 7.325303,-5.2971674 C 59.601759,0.5795439 55.320104,0.1299347 50.69937,0.1299347 Z M 43.259699,0.8047088 C 38.568887,1.5263724 34.000323,2.8687684 29.707034,4.7732955 33.27419,5.6748312 36.17948,7.0164817 38.639212,8.5817659 39.766221,5.9896474 41.231085,3.3968278 43.259699,0.8047088 Z M 29.707034,4.7732955 c -0.02855,-0.00721 -0.05524,-0.015716 -0.08387,-0.022873 -2.028615,0.9016066 -3.943565,1.9151938 -5.859479,3.0422014 -0.0072,0.03496 -0.01194,0.06803 -0.01906,0.102932 1.911205,-1.1696942 3.904961,-2.2095637 5.962411,-3.1222597 z m -5.962411,3.1222594 c -2.820116,1.725965 -5.464716,3.7234381 -7.87046,5.9833791 -0.93435,0.845365 -1.823568,1.754583 -2.687659,2.691471 3.557477,-0.429279 6.893193,-0.205971 9.788037,0.35073 -0.111495,-2.787383 0.110637,-5.796986 0.770082,-9.0255801 z M 13.186504,16.570405 c -0.04348,0.0053 -0.08608,0.0079 -0.129617,0.01334 -1.233808,1.345972 -2.466556,2.80482 -3.5892644,4.485151 1.1546844,-1.560735 2.4006824,-3.069239 3.7188814,-4.498494 z m -3.7188814,4.498494 c -0.00426,-0.06827 -0.013345,-0.133456 -0.017155,-0.20205 C 6.1821432,25.487583 3.5905145,30.670363 2.0127029,35.967302 5.3937277,33.713285 8.7742571,32.248182 12.155282,31.459278 10.715173,28.468282 9.7155472,25.038021 9.4676226,21.068899 Z M 2.0127029,35.967302 C 1.7873013,36.756208 1.5611858,37.546063 1.448485,38.222267 1.6738867,37.433362 1.7873013,36.756208 2.0127029,35.967302 Z M 66.139117,2.3829941 c 0.563505,0.1127008 1.239706,0.3388162 1.80321,0.5642179 C 67.378823,2.7218103 66.815322,2.4956949 66.139117,2.3829941 Z M 46.980488,3.1721366 c -2.141315,2.7048199 -3.608086,5.4096243 -4.622393,8.1144444 3.042922,2.59212 4.959063,5.296687 6.198772,7.325302 0.788906,-2.028615 2.253771,-4.95906 4.620488,-8.001983 C 51.712244,8.0177819 49.685308,5.4261532 46.980488,3.1721366 Z M 71.998596,4.523591 c 0,0 3.156331,9.693674 3.269033,14.65251 -3.831829,0.901606 -7.212594,2.254007 -10.931722,5.40963 2.028614,1.014308 3.83158,2.253772 5.522093,3.718882 1.803212,1.577813 3.49276,2.253538 5.859478,1.126529 1.35241,-0.901606 8.903824,-8.678421 9.69273,-9.692729 1.803214,-1.915914 1.353603,-5.071049 -0.562311,-6.53616 C 80.114463,8.8069219 71.998596,4.523591 71.998596,4.523591 Z m -5.297167,0.9016049 c -3.268325,1.5778115 -5.859,3.607607 -7.887614,5.7489221 1.690511,3.606427 2.478937,6.874973 2.929739,8.903588 3.155625,-2.479418 6.310993,-3.94595 8.226908,-4.734855 C 69.745059,13.088834 68.955445,8.9189219 66.701429,5.4251959 Z M 27.70749,8.6942289 c -0.788905,3.3810251 -0.902082,6.5361541 -0.67668,9.2409741 3.831828,1.239709 6.762511,3.042913 8.791126,4.508024 0,-2.254017 0.338814,-5.746293 1.465823,-9.690823 C 34.80834,11.061892 31.65202,9.5958359 27.70749,8.6942289 Z m 27.72483,6.7629901 c -1.577811,2.479418 -2.478937,4.732232 -2.92974,5.971941 1.577812,0.112702 3.155138,0.338578 4.73295,0.67668 -0.1127,-1.352409 -0.676202,-3.718401 -1.80321,-6.648621 z m -14.425679,0.449849 c -0.788906,3.381025 -0.789381,6.311947 -0.676681,7.777058 -0.1127,0 2.142021,-1.127244 5.072243,-1.690748 -0.676205,-1.239709 -2.028845,-3.719591 -4.395562,-6.08631 z m -23.739087,4.450841 c -1.3326,-0.01255 -2.731469,0.0708 -4.210667,0.282109 0.225401,3.944528 1.352165,7.326726 2.817276,10.256948 4.508034,-0.676205 8.339603,-0.338342 10.931722,0.112462 -1.127008,-2.141316 -2.592588,-5.635023 -3.381494,-9.917654 -1.901827,-0.422628 -3.935839,-0.712954 -6.156837,-0.733865 z m 10.552399,2.085318 c 0.901607,3.719128 2.367665,6.424648 3.156571,7.777058 0,0.225401 1.57709,-1.690744 3.943807,-3.493957 -1.239709,-1.014307 -3.606653,-2.81799 -7.100378,-4.283101 z m -6.688651,11.732302 c -0.952674,-0.01057 -1.95969,0.0165 -3.002173,0.101025 2.479418,3.493725 5.295734,5.748683 6.873547,6.762991 -0.112701,0.1127 0.788902,-2.930449 2.704814,-6.198773 -1.35241,-0.253577 -3.718165,-0.633546 -6.576188,-0.665243 z m -7.060348,0.665243 c -3.381025,0.676205 -6.8742549,2.029084 -10.1425789,4.2831 1.9159141,3.381025 4.3957959,5.973606 6.9879139,7.889521 4.05723,-2.592119 7.887849,-3.720074 10.479967,-4.058176 -2.028614,-1.690513 -4.958585,-4.395318 -7.325302,-8.114445 z M 0.99863557,40.587789 C -0.12837264,46.335531 -0.12980188,52.422536 0.77180473,58.057577 2.9131204,54.113048 5.5066555,51.295543 8.2114753,49.041526 5.6193563,46.900212 3.0272505,44.081514 0.99863557,40.587789 Z m 22.87751043,5.40963 c -1.577811,0.1127 -5.522084,0.451751 -10.030116,3.15657 4.169929,2.59212 8.114202,3.832297 10.030116,4.283101 -0.338102,-2.479419 -0.338102,-5.072954 0,-7.439671 z M 10.916289,51.069662 C 7.7606668,53.549079 4.4906918,57.380647 1.785872,62.902989 H 1.6734096 C 11.929184,101.67207 61.856689,110.68784 84.960359,86.45718 88.792187,82.39995 85.2987,79.58292 83.946291,78.11781 76.84614,71.35576 75.379387,66.960917 69.406244,71.581651 53.064624,84.429545 29.511663,76.764725 24.552827,56.816678 23.65122,56.703978 17.340236,55.464994 10.916289,51.069662 Z"
       style="fill:#43b02a;fill-rule:evenodd;stroke:#43b02a;stroke-width:0.24398611" />
  </g>
  <path
     style="fill:#43b02a;fill-rule:evenodd;stroke:#43b02a;stroke-width:0.25"
     d=""
     id="path27"
     inkscape:connector-curvature="0" />
  <path
     style="fill:#43b02a;fill-rule:evenodd;stroke:#43b02a;stroke-width:0.25"
     d=""
     id="path29"
     inkscape:connector-curvature="0" />
  <path
     style="fill:#43b02a;fill-rule:evenodd;stroke:#43b02a;stroke-width:0.25"
     d=""
     id="path31"
     inkscape:connector-curvature="0" />
  <path
     style="fill:#43b02a;fill-rule:evenodd;stroke:#43b02a;stroke-width:0.25"
     d=""
     id="path57"
     inkscape:connector-curvature="0" />
  <path
     style="fill:#43b02a;fill-rule:evenodd;stroke:#43b02a;stroke-width:0.25"
     d=""
     id="path61"
     inkscape:connector-curvature="0" />
  <path
     style="fill:#43b02a;fill-rule:evenodd;stroke:#43b02a;stroke-width:0.25"
     d=""
     id="path63"
     inkscape:connector-curvature="0" />
  <path
     style="fill:#43b02a;fill-rule:evenodd;stroke:#43b02a;stroke-width:0.25"
     d=""
     id="path65"
     inkscape:connector-curvature="0" />
  <path
     style="fill:#43b02a;fill-rule:evenodd;stroke:#43b02a;stroke-width:0.25"
     d=""
     id="path69"
     inkscape:connector-curvature="0" />
  <path
     style="fill:#43b02a;fill-rule:evenodd;stroke:#43b02a;stroke-width:0.25"
     d=""
     id="path73"
     inkscape:connector-curvature="0" />
  <path
     style="fill:#43b02a;fill-rule:evenodd;stroke:#43b02a;stroke-width:0.25"
     d=""
     id="path77"
     inkscape:connector-curvature="0" />
  <path
     style="fill:#43b02a;fill-rule:evenodd;stroke:#43b02a;stroke-width:0.25"
     d=""
     id="path81"
     inkscape:connector-curvature="0" />
  <path
     style="fill:#43b02a;fill-rule:evenodd;stroke:#43b02a;stroke-width:0.25"
     d=""
     id="path89"
     inkscape:connector-curvature="0" />
</svg>
