<?xml version="1.0" encoding="UTF-8" standalone="no"?>
<svg
   xmlns:dc="http://purl.org/dc/elements/1.1/"
   xmlns:cc="http://creativecommons.org/ns#"
   xmlns:rdf="http://www.w3.org/1999/02/22-rdf-syntax-ns#"
   xmlns:svg="http://www.w3.org/2000/svg"
   xmlns="http://www.w3.org/2000/svg"
   xmlns:sodipodi="http://sodipodi.sourceforge.net/DTD/sodipodi-0.dtd"
   xmlns:inkscape="http://www.inkscape.org/namespaces/inkscape"
   version="1.1"
   width="233.74344"
   height="200"
   id="svg2"
   sodipodi:docname="Docker_logo.svg"
   inkscape:version="0.92.3 (2405546, 2018-03-11)">
  <sodipodi:namedview
     pagecolor="#ffffff"
     bordercolor="#666666"
     borderopacity="1"
     objecttolerance="10"
     gridtolerance="10"
     guidetolerance="10"
     inkscape:pageopacity="0"
     inkscape:pageshadow="2"
     inkscape:window-width="1920"
     inkscape:window-height="1012"
     id="namedview28"
     showgrid="false"
     inkscape:snap-midpoints="true"
     fit-margin-top="0"
     fit-margin-left="0"
     fit-margin-right="0"
     fit-margin-bottom="0"
     inkscape:zoom="0.58191411"
     inkscape:cx="259.79769"
     inkscape:cy="317.32508"
     inkscape:window-x="0"
     inkscape:window-y="0"
     inkscape:window-maximized="1"
     inkscape:current-layer="svg2" />
  <metadata
     id="metadata4">
    <rdf:RDF>
      <cc:Work
         rdf:about="">
        <dc:format>image/svg+xml</dc:format>
        <dc:type
           rdf:resource="http://purl.org/dc/dcmitype/StillImage" />
        <dc:title></dc:title>
      </cc:Work>
    </rdf:RDF>
  </metadata>
  <defs
     id="defs6">
    <clipPath
       id="clipPath8">
      <path
         d="M 76,2 V 48 H 54 V 71 H 35.580737 c -0.07818,0.665694 -0.141485,1.332869 -0.205737,2 -1.151162,12.530963 1.036422,24.087546 6.0625,33.96875 L 43.125,110 c 1.011403,1.81678 2.191241,3.52297 3.4375,5.1875 1.244725,1.66248 1.685716,2.58262 2.46875,3.6875 C 62.319911,133.81083 82.129473,141 105,141 155.64836,141 198.63299,118.56201 217.65625,68.15625 231.15302,69.54122 244.09968,66.080358 250,54.5625 240.60137,49.138835 228.52163,50.877226 221.5625,54.375 L 240,2 168,48 H 145 V 2 Z"
         id="path10"
         inkscape:connector-curvature="0" />
    </clipPath>
  </defs>
  <g
     id="g268"
     transform="matrix(0.39024376,0,0,0.39024376,219.13662,-4.3046954)">
    <path
       id="path121"
       d="m -469.14258,378.48828 c -0.41736,-0.0169 -0.83491,-0.004 -1.25,0.0391 -2.99867,0.30949 -4.84286,1.31051 -6.74414,3.66211 l -1.41406,1.74805 -0.24024,23.9707 c -0.13281,13.18407 -0.28679,24.02334 -0.34179,24.08594 -0.33328,0.37955 -1.37924,-0.10394 -3.82617,-1.76562 -3.95501,-2.6858 -9.73216,-5.27882 -14.84375,-6.66407 -4.0441,-1.09596 -5.15167,-1.19726 -13.06836,-1.19726 -7.91669,0 -9.02231,0.1013 -13.06641,1.19726 -8.60638,2.33234 -15.15725,6.09877 -21.88867,12.58789 -10.36039,9.98743 -15.069,20.40678 -15.65821,34.64844 -0.39273,9.49285 1.36815,17.45534 5.66602,25.61914 7.58749,14.4124 22.59969,24.84821 38.37305,26.67578 16.44747,1.90568 30.94892,-3.09948 42.59179,-14.69922 6.73637,-6.71143 11.01768,-14.12987 13.4375,-23.2871 l 1.07422,-4.06641 v -48.29102 -48.29101 l -1.31054,-1.89258 c -1.676,-2.41868 -4.56869,-3.96169 -7.49024,-4.08008 z m -41.72851,62.57227 c 5.51367,0 9.08218,0.84785 14.33984,3.40429 3.17895,1.54571 4.60247,2.62149 7.98242,6.0293 3.30289,3.33011 4.49036,4.90916 6.01758,8.01563 1.04624,2.12815 2.21345,5.20072 2.59375,6.82812 0.89757,3.84095 0.90226,11.32834 0.01,14.81445 -0.96987,3.78838 -3.83985,9.51194 -6.32227,12.60938 -4.16206,5.19318 -11.20601,9.52673 -17.88281,11.00195 -11.41066,2.52114 -24.18025,-1.96299 -31.33203,-11.00195 -5.11365,-6.46301 -7.32068,-13.3779 -6.92188,-21.68555 0.35973,-7.49399 2.4879,-13.02048 7.16797,-18.61523 6.19508,-7.40586 14.72606,-11.40039 24.34766,-11.40039 z"
       style="fill:#2495ec;stroke-width:0.45521864"
       inkscape:connector-curvature="0" />
    <path
       id="path117"
       d="m -399.55859,422.12109 c -2.86471,-0.0414 -5.60518,0.0861 -7.79493,0.40625 -17.97117,2.62773 -34.32472,16.3078 -40.22265,33.64844 -2.74879,8.0818 -3.28349,20.72362 -1.22461,28.96484 4.98008,19.93408 22.49546,35.4161 42.98828,37.99805 4.60804,0.58059 12.85818,0.16602 17.68164,-0.88672 14.53713,-3.17274 27.60296,-13.48533 34.31055,-27.08007 3.9671,-8.0404 5.58709,-15.95182 5.08398,-24.82813 -0.73892,-13.03627 -5.04071,-23.15112 -13.73047,-32.27734 -6.95054,-7.29965 -14.90314,-12.13815 -23.70703,-14.42774 -3.49134,-0.90798 -8.61026,-1.44853 -13.38476,-1.51758 z m 1.00976,18.875 c 3.30333,0.065 6.60036,0.64296 9.73633,1.78125 7.37061,2.67539 14.09866,8.65102 17.58398,15.61328 2.82468,5.64257 3.71517,9.83182 3.4004,16.00782 -0.17649,3.46239 -0.56914,5.76295 -1.39063,8.15039 -3.34241,9.71405 -11.04891,17.33451 -20.66602,20.4375 -2.64688,0.85404 -4.80356,1.18743 -8.54687,1.3164 -6.30813,0.21732 -9.57017,-0.48513 -15.20703,-3.27148 -11.75988,-5.81296 -18.80543,-18.73588 -17.32422,-31.77539 0.68545,-6.03418 2.69281,-10.93632 6.61523,-16.1543 5.91291,-7.86588 15.88885,-12.30046 25.79883,-12.10547 z"
       style="fill:#2495ec;stroke-width:0.45521864"
       inkscape:connector-curvature="0" />
    <path
       id="path113"
       d="m -294.86972,523.12947 c -20.07337,-2.48153 -37.35971,-17.69594 -42.64491,-37.53346 -1.10586,-4.15073 -1.21282,-5.29487 -1.21282,-12.97373 0,-7.61935 0.11193,-8.83864 1.17506,-12.80024 4.68422,-17.45521 18.88015,-31.65477 36.21592,-36.2252 6.48738,-1.71035 16.63995,-1.9767 23.27458,-0.61062 8.12052,1.67205 15.08047,4.92088 21.19688,9.89452 3.5422,2.88038 4.76859,5.0403 4.77836,8.41562 0.009,3.18914 -0.53768,4.7059 -2.41033,6.68459 -1.91118,2.01941 -3.82456,2.79084 -6.92215,2.79084 -2.90648,0 -3.85016,-0.41749 -8.52481,-3.7714 -5.92229,-4.24905 -11.13841,-5.93976 -18.32511,-5.93976 -21.66466,0 -36.82128,20.68574 -30.35477,41.42815 1.46174,4.68875 4.00596,8.71511 8.03847,12.72122 6.61494,6.57172 14.72025,9.64681 24.13718,9.1575 6.80956,-0.3538 11.68358,-2.26267 18.56186,-7.26957 2.36579,-1.72214 2.93985,-1.93145 5.72971,-2.08909 2.48693,-0.14053 3.47034,0.0137 4.96933,0.7782 3.77357,1.92516 5.81806,6.72312 4.67731,10.97664 -1.49624,5.57897 -14.01074,13.37723 -25.1353,15.6627 -4.42317,0.90871 -12.79636,1.25049 -17.22446,0.70309 z"
       style="fill:#2495ec;stroke-width:0.45521864"
       inkscape:connector-curvature="0" />
    <path
       id="path111"
       d="m -234.94598,522.93996 c -2.14161,-0.76345 -4.17499,-2.62816 -5.34373,-4.90038 -0.85071,-1.65395 -0.87023,-3.40267 -0.75494,-67.63896 l 0.11834,-65.94112 1.30332,-1.88062 c 1.58504,-2.28712 5.12466,-4.18686 7.80106,-4.18686 2.6762,0 6.21599,1.89974 7.80105,4.18667 l 1.30332,1.88043 0.22761,36.68428 c 0.19999,32.2335 0.31045,36.67819 0.91044,36.63412 0.37555,-0.0276 12.56403,-7.78734 27.08551,-17.24392 14.52147,-9.45657 27.06186,-17.4743 27.86752,-17.81718 0.80566,-0.34287 2.39981,-0.62341 3.54256,-0.62341 5.48558,0 9.49768,4.07664 9.45046,9.60249 -0.0242,2.83558 -0.76911,4.60269 -2.69534,6.39425 -0.71087,0.66116 -9.28158,6.36619 -19.04602,12.67783 -9.76444,6.31165 -18.13238,11.83978 -18.59543,12.28474 -0.81361,0.78184 -0.18659,1.54609 18.66397,22.74872 10.72822,12.0668 19.98353,22.73722 20.56734,23.71202 1.26327,2.1093 1.45232,5.75151 0.42437,8.17586 -0.78336,1.84751 -2.69753,3.8659 -4.66292,4.91677 -1.85804,0.99352 -6.399,0.96944 -8.29793,-0.0441 -0.8031,-0.42859 -10.90049,-11.37942 -22.43864,-24.33512 -11.53815,-12.95571 -21.26504,-23.61975 -21.6153,-23.69787 -0.62877,-0.1402 -10.16431,5.97215 -10.81221,6.93071 -0.18394,0.27217 -0.33758,8.23599 -0.34141,17.69744 -0.008,19.26362 0.0183,19.09283 -3.38185,22.07824 -2.58692,2.27136 -5.79995,2.87457 -9.08115,1.70484 z"
       style="fill:#2495ec;stroke-width:0.45521864"
       inkscape:connector-curvature="0" />
    <path
       id="path109"
       d="m -99.580078,422.36914 c -8.290682,-0.0532 -11.590522,0.42166 -17.753902,2.55664 -7.51743,2.60401 -13.37061,6.47336 -19.61719,12.96875 -6.43708,6.69349 -10.31067,13.432 -12.60352,21.92774 -1.07706,3.99085 -1.18164,5.14428 -1.18164,13.02734 0,7.88307 0.10458,9.03648 1.18164,13.02734 2.26274,8.38417 6.13917,15.17941 12.41016,21.75586 8.20597,8.60573 17.87462,13.74741 29.14258,15.5 4.99115,0.77633 15.370262,0.23331 20.484372,-1.07226 8.94983,-2.28478 20.361712,-9.2456 23.257812,-14.1875 2.89019,-4.9317 0.758307,-11.42065 -4.470703,-13.60547 -3.60128,-1.50468 -6.678852,-0.69715 -11.263672,2.95703 -6.59508,5.25641 -12.176074,7.26367 -20.199219,7.26367 -10.11748,0 -19.13423,-4.28179 -25.11523,-11.92578 -2.73441,-3.49471 -5.44406,-8.70407 -5.05469,-9.71875 0.21048,-0.54849 5.85323,-0.66425 37.554686,-0.76758 l 37.306641,-0.12109 1.931641,-1.36719 c 3.68139,-2.60067 4.616977,-6.2775 3.617187,-14.2207 -1.38815,-11.02806 -5.680955,-20.12471 -13.265625,-28.10938 -6.75681,-7.11319 -15.293167,-12.24448 -24.373047,-14.65234 -3.90587,-1.03579 -5.436911,-1.19433 -11.988281,-1.23633 z m -0.841802,18.84375 c 9.484579,0 17.424541,3.56795 24.066411,10.81641 2.84994,3.1102 6.74188,10.05213 6.16211,10.99023 -0.21768,0.35222 -9.028774,0.49805 -30.111331,0.49805 -26.51121,0 -29.83511,-0.0769 -30.07617,-0.70508 -0.14904,-0.38841 0.46483,-2.18205 1.36328,-3.98438 5.45027,-10.93353 16.29777,-17.61523 28.5957,-17.61523 z"
       style="fill:#2495ec;stroke-width:0.45521864"
       inkscape:connector-curvature="0" />
    <path
       id="path105"
       d="m -32.315988,523.1535 c -2.35252,-0.70836 -4.45458,-2.3603 -5.70061,-4.47994 l -1.24784,-2.12268 -0.12528,-42.32186 c -0.0842,-28.44098 0.0328,-43.08179 0.3558,-44.63891 0.92264,-4.44429 4.68488,-7.4971 9.23934,-7.4971 4.72358,0 8.80293,3.47468 9.30463,7.92539 0.13078,1.16068 0.38061,2.19857 0.55514,2.30642 0.17448,0.10786 1.728047,-0.75032 3.452327,-1.90706 4.31028,-2.89154 9.7214198,-5.34961 15.0601798,-6.84124 4.21783,-1.17846 5.03722,-1.2542 13.3699602,-1.23571 9.26929,0.0206 11.79521,0.37847 17.35725,2.45951 4.84226,1.81172 8.1029,5.75886 8.12497,9.83563 0.0155,2.8457 -1.98079,6.41536 -4.47052,7.99431 -2.65069,1.68101 -5.60524,1.74039 -10.19066,0.20483 -7.28145,-2.43837 -14.9228402,-2.46395 -21.79814025,-0.0729 -4.68173995,1.62815 -7.92489995,3.70047 -11.82252975,7.55443 -3.85051,3.80733 -6.26522,7.72548 -8.089187,13.12548 l -1.17884,3.49 -0.24026,25.03702 c -0.26671,27.79647 -0.10283,26.38211 -3.39106,29.26919 -2.3823,2.09169 -5.59368,2.80979 -8.56467,1.91524 z"
       style="fill:#2495ec;stroke-width:0.45521864"
       inkscape:connector-curvature="0" />
    <path
       id="path95"
       d="m -323.7761,338.31311 c -15.28442,-0.98164 -31.01704,-3.26098 -43.70099,-6.33142 -30.98159,-7.49979 -50.50839,-19.53316 -66.34945,-40.8878 -18.9958,-25.6074 -30.42258,-64.46047 -30.95703,-105.25934 -0.10783,-8.23175 -0.0836,-8.47844 1.07376,-10.94602 1.566,-3.33876 3.46145,-5.42644 6.40949,-7.05952 l 2.42124,-1.34125 155.22957,-0.23721 c 146.98366,-0.2246 155.483,-0.28087 160.00068,-1.05928 9.44764,-1.62785 20.8559,-5.14009 22.28364,-6.8604 0.36168,-0.4358 -0.0971,-1.69653 -1.78209,-4.8972 -2.79955,-5.3178 -5.12765,-12.30754 -6.16268,-18.50242 -1.06595,-6.37994 -0.73681,-18.77874 0.67125,-25.28632 1.41203,-6.52593 3.79489,-13.377953 6.90703,-19.861514 2.59337,-5.4028 7.72931,-13.74024 9.23273,-14.98797 0.58478,-0.48532 1.4799,-0.11254 5.54914,2.31105 16.498684,9.82633 28.468704,25.803554 32.798234,43.778034 0.67414,2.79882 1.35114,5.2389 1.50441,5.4224 0.15327,0.1835 1.47564,0.13883 2.93853,-0.0993 6.25047,-1.01729 15.74774,-1.41243 22.228138,-0.92481 10.56226,0.79475 18.69083,2.80647 25.869307,6.40236 3.44377,1.72508 8.8254598,5.61419 9.2697498,6.69884 0.3314,0.80914 -1.7694398,6.4915 -3.9887598,10.78879 -5.49822,10.64619 -15.637767,20.39748 -27.314077,26.26822 -8.778338,4.41367 -19.854908,7.01391 -32.018578,7.51643 l -6.90616,0.28532 -1.69396,4.14098 c -6.18524,15.12054 -14.14451,31.56263 -20.759754,42.8851 -37.57065,64.30485 -96.44001,99.93136 -177.45912,107.39451 -9.03423,0.83219 -36.35173,1.22405 -45.29425,0.64971 z"
       style="fill:#2495ec;stroke-width:0.45521864"
       inkscape:connector-curvature="0" />
    <path
       id="path93"
       d="m -425.03686,156.27073 c -0.48678,-0.48678 -1.00895,-1.56223 -1.16039,-2.3899 -0.15144,-0.82767 -0.21408,-9.56306 -0.1392,-19.41197 l 0.13615,-17.90713 1.27723,-1.09825 1.27724,-1.09826 h 21.0809 c 20.63768,0 21.1061,0.0199 22.28032,0.94348 l 1.19944,0.94348 v 19.54136 c 0,18.9344 -0.0283,19.56964 -0.91044,20.4518 -0.88488,0.88488 -1.51739,0.91043 -22.53332,0.91043 -20.80915,0 -21.65619,-0.0333 -22.50793,-0.88504 z"
       style="fill:#2495ec;stroke-width:0.45521864"
       inkscape:connector-curvature="0" />
    <path
       id="path91"
       d="m -369.50019,156.27073 c -0.48677,-0.48678 -1.01005,-1.56223 -1.16284,-2.3899 -0.15279,-0.82767 -0.21543,-9.56308 -0.13919,-19.41203 l 0.1386,-17.90718 1.27723,-1.0982 1.27724,-1.0982 h 21.1169 21.11689 l 1.27724,1.09826 1.27724,1.09825 0.13614,17.90713 c 0.0749,9.84891 0.0122,18.5843 -0.13919,19.41197 -0.15144,0.82767 -0.67361,1.90312 -1.16039,2.3899 -0.85174,0.85174 -1.69878,0.88504 -22.50793,0.88504 -20.80916,0 -21.6562,-0.0333 -22.50794,-0.88504 z"
       style="fill:#2495ec;stroke-width:0.45521864"
       inkscape:connector-curvature="0" />
    <path
       id="path89"
       d="m -313.05307,156.27073 c -0.48678,-0.48678 -1.00895,-1.56223 -1.16039,-2.3899 -0.15144,-0.82767 -0.21408,-9.56306 -0.1392,-19.41197 l 0.13615,-17.90713 1.27723,-1.09825 1.27724,-1.09826 h 21.1169 21.1169 l 1.27723,1.0982 1.27724,1.0982 0.1386,17.90718 c 0.0762,9.84895 0.0136,18.58436 -0.1392,19.41203 -0.15278,0.82767 -0.67606,1.90312 -1.16284,2.3899 -0.85174,0.85174 -1.69878,0.88504 -22.50793,0.88504 -20.80915,0 -21.6562,-0.0333 -22.50793,-0.88504 z"
       style="fill:#2495ec;stroke-width:0.45521864"
       inkscape:connector-curvature="0" />
    <path
       id="path87"
       d="m -257.50875,155.95634 c -0.9204,-1.17011 -0.94348,-1.66603 -0.94348,-20.27792 v -19.07849 l 1.11736,-1.11735 1.11735,-1.11736 h 21.43666 21.43666 l 1.11736,1.11736 1.11735,1.11735 v 19.07849 c 0,18.61189 -0.0231,19.10781 -0.94347,20.27792 l -0.94348,1.19943 h -21.78442 -21.78441 z"
       style="fill:#2495ec;stroke-width:0.45521864"
       inkscape:connector-curvature="0" />
    <path
       id="path85"
       d="m -201.06928,156.27073 c -0.48678,-0.48678 -1.01006,-1.56223 -1.16285,-2.3899 -0.15279,-0.82767 -0.21542,-9.56308 -0.13919,-19.41203 l 0.1386,-17.90718 1.27723,-1.0982 1.27724,-1.0982 h 21.1169 21.11689 l 1.27724,1.09826 1.27724,1.09825 0.13614,17.90713 c 0.0749,9.84891 0.0122,18.5843 -0.13919,19.41197 -0.15144,0.82767 -0.67361,1.90312 -1.16039,2.3899 -0.85174,0.85174 -1.69878,0.88504 -22.50793,0.88504 -20.80915,0 -21.6562,-0.0333 -22.50793,-0.88504 z"
       style="fill:#2495ec;stroke-width:0.45521864"
       inkscape:connector-curvature="0" />
    <path
       id="path83"
       d="m -369.38639,104.61787 -1.27723,-1.0982 -0.1386,-17.907184 c -0.0762,-9.84895 -0.0136,-18.58436 0.13919,-19.41203 0.15279,-0.82766 0.67607,-1.90312 1.16284,-2.3899 0.85174,-0.85173 1.69878,-0.88504 22.50794,-0.88504 20.80915,0 21.65619,0.0333 22.50793,0.88504 0.48678,0.48678 1.01005,1.56224 1.16284,2.3899 0.15279,0.82767 0.21543,9.56308 0.1392,19.41203 l -0.1386,17.907184 -1.27724,1.0982 -1.27724,1.0982 h -21.11689 -21.1169 z"
       style="fill:#2495ec;stroke-width:0.45521864"
       inkscape:connector-curvature="0" />
    <path
       id="path81"
       d="m -312.93928,104.61781 -1.27723,-1.09825 -0.13615,-17.907134 c -0.0749,-9.84891 -0.0122,-18.5843 0.1392,-19.41197 0.15144,-0.82766 0.67361,-1.90312 1.16039,-2.3899 0.85173,-0.85173 1.69878,-0.88504 22.50793,-0.88504 20.80915,0 21.65619,0.0333 22.50793,0.88504 0.48678,0.48678 1.01006,1.56224 1.16284,2.3899 0.15279,0.82767 0.21543,9.56308 0.1392,19.41203 l -0.1386,17.907184 -1.27724,1.0982 -1.27723,1.0982 h -21.1169 -21.1169 z"
       style="fill:#2495ec;stroke-width:0.45521864"
       inkscape:connector-curvature="0" />
    <path
       id="path79"
       d="m -257.322,104.61181 -1.13023,-1.13023 V 84.403056 c 0,-18.6119 0.0231,-19.10782 0.94348,-20.27792 l 0.94348,-1.19942 h 21.78441 21.78442 l 0.94348,1.19943 c 0.92027,1.16994 0.94347,1.66686 0.94347,20.2068 0,18.034154 -0.0445,19.062394 -0.86995,20.082044 l -0.86996,1.07467 -21.67118,0.12668 -21.67119,0.12667 -1.13023,-1.13022 z"
       style="fill:#2495ec;stroke-width:0.45521864"
       inkscape:connector-curvature="0" />
    <path
       id="path69"
       d="m -257.50875,52.621936 c -0.9204,-1.1701 -0.94348,-1.66602 -0.94348,-20.27792 v -19.07852 l 1.11736,-1.11735 1.11735,-1.11736 h 21.43666 21.43666 l 1.11736,1.11736 1.11735,1.11735 v 19.07849 c 0,18.6119 -0.0231,19.10781 -0.94347,20.27792 l -0.94348,1.19943 h -21.78442 -21.78441 z"
       style="fill:#2495ec;stroke-width:0.45521864"
       inkscape:connector-curvature="0" />
  </g>
</svg>
