<?xml version="1.0" encoding="UTF-8" standalone="no"?>
<!-- Created with Inkscape (http://www.inkscape.org/) -->

<svg
   xmlns:dc="http://purl.org/dc/elements/1.1/"
   xmlns:cc="http://creativecommons.org/ns#"
   xmlns:rdf="http://www.w3.org/1999/02/22-rdf-syntax-ns#"
   xmlns:svg="http://www.w3.org/2000/svg"
   xmlns="http://www.w3.org/2000/svg"
   xmlns:sodipodi="http://sodipodi.sourceforge.net/DTD/sodipodi-0.dtd"
   xmlns:inkscape="http://www.inkscape.org/namespaces/inkscape"
   version="1.1"
   id="svg2"
   xml:space="preserve"
   width="297mm"
   height="210mm"
   viewBox="0 0 1122.5197 793.70078"
   sodipodi:docname="green_white_bg.svg"
   inkscape:version="0.92.5 (2060ec1f9f, 2020-04-08)"><metadata
     id="metadata8"><rdf:RDF><cc:Work
         rdf:about=""><dc:format>image/svg+xml</dc:format><dc:type
           rdf:resource="http://purl.org/dc/dcmitype/StillImage" /><dc:title></dc:title></cc:Work></rdf:RDF></metadata><defs
     id="defs6"><clipPath
   clipPathUnits="userSpaceOnUse"
   id="clipPath22"><path
     d="M 0,0 H 423 V 264 H 0 Z"
     id="path20"
     inkscape:connector-curvature="0" /></clipPath><clipPath
   clipPathUnits="userSpaceOnUse"
   id="clipPath32"><path
     d="M 0,264 H 422.016 V 0.684 H 0 Z"
     id="path30"
     inkscape:connector-curvature="0" /></clipPath><clipPath
   clipPathUnits="userSpaceOnUse"
   id="clipPath44"><path
     d="m 308,209.316 h 102 v -139 H 308 Z"
     id="path42"
     inkscape:connector-curvature="0" /></clipPath><clipPath
   clipPathUnits="userSpaceOnUse"
   id="clipPath50"><path
     d="m 331.785,70.68 c -9.527,-0.286 -11.387,-0.149 -15.484,1.156 -3.742,1.191 -7.422,3.226 -7.699,4.254 -0.067,0.258 0.527,0.64 1.328,0.855 1.234,0.332 1.636,0.981 2.722,4.399 0.703,2.203 1.95,5.351 2.77,6.988 0.82,1.641 1.973,4.395 2.555,6.121 0.585,1.723 1.589,3.996 2.234,5.047 0.641,1.047 1.113,2.105 1.051,2.352 -0.067,0.242 0.398,1.699 1.031,3.238 0.633,1.539 1.09,3.039 1.012,3.328 -0.078,0.289 0.16,1.113 0.527,1.828 0.367,0.719 0.738,2.574 0.816,4.133 0.114,2.129 0.633,3.535 2.102,5.691 1.66,2.438 6.215,7.008 7.32,7.34 0.782,0.238 5.211,5.738 5.535,6.875 0.192,0.68 0.602,1.305 0.907,1.387 1.148,0.305 3.703,4.453 5.828,9.457 1.207,2.848 2.574,5.535 3.043,5.973 0.465,0.437 1.117,2.074 1.445,3.632 0.766,3.641 -0.394,8.368 -2.902,11.848 -0.953,1.316 -2.043,3.57 -2.43,5.008 l -0.699,2.613 2.41,2.668 c 1.324,1.469 2.848,3.551 3.383,4.629 1.351,2.711 4.332,11.277 5.754,16.547 1.672,6.199 1.726,6.277 5.582,8.039 8.664,3.965 16.898,2.633 22.824,-3.688 1.23,-1.312 2.918,-2.816 3.746,-3.343 0.828,-0.524 4.469,-3.301 8.09,-6.172 5.059,-4.012 6.937,-5.836 8.09,-7.864 2.008,-3.539 3.363,-8.632 2.582,-9.73 -0.449,-0.637 -0.281,-1.988 0.699,-5.645 0.711,-2.656 1.309,-6.292 1.336,-8.128 0.176,-11.508 -1.621,-24.493 -4.184,-30.231 -1.906,-4.273 -6.593,-12.527 -8.554,-15.066 -0.84,-1.094 -2.332,-3.266 -3.313,-4.832 -0.98,-1.567 -3.383,-4.641 -5.332,-6.836 -1.953,-2.192 -3.98,-4.664 -4.508,-5.492 -2.031,-3.2 -14.039,-13.485 -21.691,-18.579 -8.789,-5.851 -19.934,-9.5 -29.926,-9.8 z"
     id="path48"
     inkscape:connector-curvature="0" /></clipPath><clipPath
   clipPathUnits="userSpaceOnUse"
   id="clipPath60"><path
     d="M 272,38 H 423 V 233 H 272 Z"
     id="path58"
     inkscape:connector-curvature="0" /></clipPath><clipPath
   clipPathUnits="userSpaceOnUse"
   id="clipPath70"><path
     d="M 272,233 H 423 V 38 H 272 Z"
     id="path68"
     inkscape:connector-curvature="0" /></clipPath><clipPath
   clipPathUnits="userSpaceOnUse"
   id="clipPath76"><path
     d="M 272.801,200.254 394.465,232.852 437.93,70.633 316.266,38.035 Z"
     id="path74"
     inkscape:connector-curvature="0" /></clipPath><clipPath
   id="clipPath973"
   clipPathUnits="userSpaceOnUse"><path
     inkscape:connector-curvature="0"
     id="path971"
     d="m 216,108.995 h 62 v -23 h -62 z" /></clipPath><clipPath
   id="clipPath979"
   clipPathUnits="userSpaceOnUse"><path
     inkscape:connector-curvature="0"
     id="path977"
     d="M 237.867,108.061 216.336,86.444 h 61.094 v 21.617 z" /></clipPath><clipPath
   id="clipPath989"
   clipPathUnits="userSpaceOnUse"><path
     inkscape:connector-curvature="0"
     id="path987"
     d="m 216,86 h 62 v 23 h -62 z" /></clipPath><clipPath
   id="clipPath999"
   clipPathUnits="userSpaceOnUse"><path
     inkscape:connector-curvature="0"
     id="path997"
     d="M 237.867,108.066 216.336,86.449 h 61.094 v 21.617 z" /></clipPath><linearGradient
   id="linearGradient1013"
   spreadMethod="pad"
   gradientTransform="matrix(37.936525,-29.638943,-29.638943,-37.936525,233.15029,107.98614)"
   gradientUnits="userSpaceOnUse"
   y2="0"
   x2="1"
   y1="0"
   x1="0"><stop
     id="stop1003"
     offset="0"
     style="stop-opacity:1;stop-color:#0c542a" /><stop
     id="stop1005"
     offset="0.21472"
     style="stop-opacity:1;stop-color:#0c542a" /><stop
     id="stop1007"
     offset="0.57995"
     style="stop-opacity:1;stop-color:#25af64" /><stop
     id="stop1009"
     offset="0.84663"
     style="stop-opacity:1;stop-color:#25af64" /><stop
     id="stop1011"
     offset="1"
     style="stop-opacity:1;stop-color:#25af64" /></linearGradient>
</defs><sodipodi:namedview
     pagecolor="#ffffff"
     bordercolor="#666666"
     borderopacity="1"
     objecttolerance="10"
     gridtolerance="10"
     guidetolerance="10"
     inkscape:pageopacity="0"
     inkscape:pageshadow="2"
     inkscape:window-width="1920"
     inkscape:window-height="1015"
     id="namedview4"
     showgrid="false"
     inkscape:zoom="0.7071068"
     inkscape:cx="662.46677"
     inkscape:cy="256.97526"
     inkscape:window-x="0"
     inkscape:window-y="0"
     inkscape:window-maximized="1"
     inkscape:current-layer="g10"
     fit-margin-top="0"
     fit-margin-left="0"
     fit-margin-right="0"
     fit-margin-bottom="0"
     units="mm" /><g
     id="g10"
     inkscape:groupmode="layer"
     inkscape:label="AppleSeq"
     transform="matrix(1.3333333,0,0,-1.3333333,-3.9146675,880.72503)"><g
       id="g24"
       transform="translate(0,-0.683655)" /><path
       style="opacity:1;fill:#24b064;fill-opacity:1;stroke:none;stroke-width:5.25;stroke-linecap:round;stroke-linejoin:bevel;stroke-miterlimit:4;stroke-dasharray:none;stroke-dashoffset:0;stroke-opacity:1"
       d="M 422.81157,370.28528 2.714879,256.48889 V 65.268184 H 845.04691 V 256.48889 Z"
       id="rect902"
       inkscape:connector-curvature="0"
       sodipodi:nodetypes="cccccc" /></g></svg>