<?xml version="1.0" encoding="UTF-8" standalone="no"?>
<!-- Created with Inkscape (http://www.inkscape.org/) -->

<svg
   xmlns:dc="http://purl.org/dc/elements/1.1/"
   xmlns:cc="http://creativecommons.org/ns#"
   xmlns:rdf="http://www.w3.org/1999/02/22-rdf-syntax-ns#"
   xmlns:svg="http://www.w3.org/2000/svg"
   xmlns="http://www.w3.org/2000/svg"
   xmlns:sodipodi="http://sodipodi.sourceforge.net/DTD/sodipodi-0.dtd"
   xmlns:inkscape="http://www.inkscape.org/namespaces/inkscape"
   version="1.1"
   id="svg300"
   xml:space="preserve"
   width="118.40253"
   height="150.38712"
   viewBox="0 0 118.40253 150.38712"
   sodipodi:docname="KI.svg"
   inkscape:version="0.92.3 (2405546, 2018-03-11)"><metadata
     id="metadata306"><rdf:RDF><cc:Work
         rdf:about=""><dc:format>image/svg+xml</dc:format><dc:type
           rdf:resource="http://purl.org/dc/dcmitype/StillImage" /><dc:title></dc:title></cc:Work></rdf:RDF></metadata><defs
     id="defs304" /><sodipodi:namedview
     pagecolor="#ffffff"
     bordercolor="#666666"
     borderopacity="1"
     objecttolerance="10"
     gridtolerance="10"
     guidetolerance="10"
     inkscape:pageopacity="0"
     inkscape:pageshadow="2"
     inkscape:window-width="751"
     inkscape:window-height="480"
     id="namedview302"
     showgrid="false"
     inkscape:zoom="1.5692834"
     inkscape:cx="59.201263"
     inkscape:cy="75.193558"
     inkscape:window-x="694"
     inkscape:window-y="348"
     inkscape:window-maximized="0"
     inkscape:current-layer="g308" /><g
     id="g308"
     inkscape:groupmode="layer"
     inkscape:label="KI"
     transform="matrix(1.3333333,0,0,-1.3333333,0,150.38712)"><g
       id="g310"><path
         d="M 6.613,35.255 3.102,27.911 H 2.996 v 7.344 H 0 V 19.54 h 2.996 v 8.063 H 3.102 L 6.41,19.54 h 3.41 l -3.929,8.371 3.621,7.344 z"
         style="fill:#8b0059;fill-opacity:0.847059;fill-rule:evenodd;stroke:none"
         id="path312"
         inkscape:connector-curvature="0" /><path
         d="m 16.23,25.845 c -1.863,-0.102 -2.789,-0.828 -2.789,-2.586 0,-1.238 0.618,-1.859 1.754,-1.859 0.313,0 0.828,0 1.035,0.105 z m -1.242,-6.719 c -2.894,0 -4.34,1.551 -4.34,4.133 0,3 2.274,3.93 5.582,4.449 v 0.41 c 0,1.141 -0.722,1.864 -1.656,1.864 -1.133,0 -1.961,-0.414 -2.683,-0.723 l -0.625,1.859 c 0.625,0.415 1.968,0.93 3.722,0.93 2.379,0 4.137,-1.137 4.137,-4.445 v -7.445 c -0.934,-0.411 -2.172,-1.032 -4.137,-1.032 z"
         style="fill:#8b0059;fill-opacity:0.847059;fill-rule:evenodd;stroke:none"
         id="path314"
         inkscape:connector-curvature="0" /><path
         d="m 26.672,29.568 c -0.621,0.414 -1.449,0.414 -1.965,0 V 19.54 h -2.898 v 11.578 c 0.933,0.618 2.586,0.93 5.382,0.93 z"
         style="fill:#8b0059;fill-opacity:0.847059;fill-rule:evenodd;stroke:none"
         id="path316"
         inkscape:connector-curvature="0" /><path
         d="m 32.359,29.982 c -1.246,0 -1.449,-2.071 -1.449,-4.239 0,-2.171 0.309,-4.035 1.449,-4.035 1.34,0 1.653,1.864 1.653,4.035 0,2.168 -0.313,4.239 -1.653,4.239 z m 0,-10.856 c -2.894,0 -4.347,2.895 -4.347,6.617 0,3.719 1.453,6.305 4.347,6.305 3.102,0 4.653,-2.586 4.653,-6.305 0,-3.722 -1.551,-6.617 -4.653,-6.617 z"
         style="fill:#8b0059;fill-opacity:0.847059;fill-rule:evenodd;stroke:none"
         id="path318"
         inkscape:connector-curvature="0" /><path
         d="m 39.285,19.54 v 17.059 l 2.895,0.824 V 19.54 Z"
         style="fill:#8b0059;fill-opacity:0.847059;fill-rule:evenodd;stroke:none"
         id="path320"
         inkscape:connector-curvature="0" /><path
         d="m 44.969,31.736 h 2.898 V 19.54 h -2.898 z m 1.551,2.07 c -1.032,0 -1.754,0.828 -1.754,1.656 0,0.828 0.722,1.653 1.754,1.653 0.828,0 1.55,-0.825 1.55,-1.653 0,-0.828 -0.722,-1.656 -1.55,-1.656 z"
         style="fill:#8b0059;fill-opacity:0.847059;fill-rule:evenodd;stroke:none"
         id="path322"
         inkscape:connector-curvature="0" /><path
         d="m 56.238,19.54 v 8.684 c 0,1.035 -0.519,1.758 -1.445,1.758 -0.625,0 -0.934,-0.207 -1.348,-0.414 V 19.54 h -2.894 v 11.578 c 1.035,0.618 2.484,0.93 4.242,0.93 2.895,0 4.445,-1.344 4.445,-3.824 V 19.54 Z"
         style="fill:#8b0059;fill-opacity:0.847059;fill-rule:evenodd;stroke:none"
         id="path324"
         inkscape:connector-curvature="0" /><path
         d="m 64.301,19.126 c -1.551,0 -2.477,0.414 -3.102,1.032 l 0.625,2.273 c 0.41,-0.41 1.133,-0.723 1.961,-0.723 0.723,0 1.344,0.52 1.344,1.141 0,0.93 -0.516,1.238 -1.449,1.961 -1.34,0.933 -2.375,2.07 -2.375,3.621 0,2.172 1.445,3.617 3.515,3.617 1.239,0 2.274,-0.312 3.102,-0.93 l -0.828,-1.859 c -0.313,0.309 -0.828,0.723 -1.653,0.723 -0.621,0 -1.14,-0.723 -1.14,-1.242 0,-0.829 0.625,-1.344 1.656,-2.172 1.34,-1.035 2.273,-1.86 2.273,-3.719 0,-1.969 -1.656,-3.723 -3.929,-3.723 z"
         style="fill:#8b0059;fill-opacity:0.847059;fill-rule:evenodd;stroke:none"
         id="path326"
         inkscape:connector-curvature="0" /><path
         d="m 76.395,19.54 -3.102,6.305 H 73.195 V 19.54 h -3 v 17.059 l 3,0.824 V 26.259 h 0.098 l 3.102,5.477 h 3.003 l -3.519,-5.477 3.617,-6.719 z"
         style="fill:#8b0059;fill-opacity:0.847059;fill-rule:evenodd;stroke:none"
         id="path328"
         inkscape:connector-curvature="0" /><path
         d="m 86.117,25.845 c -2.066,-0.102 -2.797,-0.828 -2.797,-2.586 0,-1.238 0.418,-1.859 1.762,-1.859 0.309,0 0.824,0 1.035,0.105 z m -1.14,-6.719 c -2.997,0 -4.446,1.551 -4.446,4.133 0,3 2.274,3.93 5.586,4.449 v 0.41 c 0,1.141 -0.726,1.864 -1.863,1.864 -0.934,0 -1.965,-0.414 -2.582,-0.723 l -0.52,1.859 c 0.618,0.415 1.864,0.93 3.825,0.93 2.273,0 3.824,-1.137 3.824,-4.445 v -7.445 c -0.723,-0.411 -2.067,-1.032 -3.824,-1.032 z"
         style="fill:#8b0059;fill-opacity:0.847059;fill-rule:evenodd;stroke:none"
         id="path330"
         inkscape:connector-curvature="0" /><path
         d="M 4.547,15.818 H 7.856 V 0.107 H 4.547 Z"
         style="fill:#8b0059;fill-opacity:0.847059;fill-rule:evenodd;stroke:none"
         id="path332"
         inkscape:connector-curvature="0" /><path
         d="m 16.23,0.107 v 8.679 c 0,1.141 -0.519,1.657 -1.55,1.657 -0.621,0 -0.93,0 -1.239,-0.106 V 0.107 h -3.003 v 11.781 c 1.035,0.52 2.484,0.828 4.242,0.828 3.101,0 4.445,-1.238 4.445,-3.93 V 0.107 Z"
         style="fill:#8b0059;fill-opacity:0.847059;fill-rule:evenodd;stroke:none"
         id="path334"
         inkscape:connector-curvature="0" /><path
         d="m 24.188,0.001 c -1.446,0 -2.379,0.309 -3.102,0.93 l 0.828,2.172 c 0.313,-0.313 1.035,-0.828 1.863,-0.828 0.723,0 1.239,0.515 1.239,1.136 0,1.036 -0.309,1.348 -1.446,2.274 -1.136,0.828 -2.277,1.758 -2.277,3.519 0,2.168 1.449,3.512 3.414,3.512 1.449,0 2.484,-0.308 3.102,-0.828 L 27.191,9.927 c -0.312,0.207 -1.035,0.516 -1.656,0.516 -0.828,0 -1.347,-0.516 -1.347,-1.137 0,-0.828 0.624,-1.137 1.863,-1.965 1.14,-1.031 2.066,-1.859 2.066,-3.723 0,-2.168 -1.551,-3.617 -3.929,-3.617 z"
         style="fill:#8b0059;fill-opacity:0.847059;fill-rule:evenodd;stroke:none"
         id="path336"
         inkscape:connector-curvature="0" /><path
         d="m 33.91,0.001 c -1.969,0 -3.101,1.449 -3.101,3.617 v 6.719 h -1.247 v 2.176 h 1.247 v 2.684 l 2.89,1.031 v -3.715 h 1.656 V 10.337 H 33.699 V 3.931 c 0,-1.141 0.516,-1.656 0.934,-1.656 0.312,0 0.515,0.207 0.722,0.207 V 0.31 c -0.207,0 -0.828,-0.309 -1.445,-0.309 z"
         style="fill:#8b0059;fill-opacity:0.847059;fill-rule:evenodd;stroke:none"
         id="path338"
         inkscape:connector-curvature="0" /><path
         d="m 37.422,12.513 h 2.996 V 0.107 h -2.996 z m 1.348,1.961 c -0.829,0 -1.454,0.723 -1.454,1.754 0,0.828 0.625,1.453 1.454,1.453 0.925,0 1.648,-0.625 1.648,-1.453 0,-1.031 -0.723,-1.754 -1.648,-1.754 z"
         style="fill:#8b0059;fill-opacity:0.847059;fill-rule:evenodd;stroke:none"
         id="path340"
         inkscape:connector-curvature="0" /><path
         d="m 46.621,0.001 c -1.961,0 -2.891,1.449 -2.891,3.617 v 6.719 h -1.242 v 2.176 h 1.242 v 2.684 l 2.891,1.031 v -3.715 h 1.656 V 10.337 H 46.621 V 3.931 c 0,-1.141 0.313,-1.656 0.934,-1.656 0.207,0 0.515,0.207 0.722,0.207 V 0.31 c -0.41,0 -0.828,-0.309 -1.656,-0.309 z"
         style="fill:#8b0059;fill-opacity:0.847059;fill-rule:evenodd;stroke:none"
         id="path342"
         inkscape:connector-curvature="0" /><path
         d="m 54.48,0.001 c -2.789,0 -4.242,1.137 -4.242,4.239 v 8.273 h 2.899 V 3.931 c 0,-1.035 0.515,-1.656 1.551,-1.656 0.308,0 0.722,0.207 1.031,0.308 v 9.93 h 3.004 V 0.931 C 57.895,0.31 56.441,0.001 54.48,0.001 Z"
         style="fill:#8b0059;fill-opacity:0.847059;fill-rule:evenodd;stroke:none"
         id="path344"
         inkscape:connector-curvature="0" /><path
         d="m 64.926,0.001 c -1.969,0 -2.899,1.449 -2.899,3.617 v 6.719 h -1.136 v 2.176 h 1.136 v 2.684 l 2.899,1.031 v -3.715 h 1.445 V 10.337 H 64.926 V 3.931 c 0,-1.141 0.41,-1.656 1.031,-1.656 0.102,0 0.414,0.207 0.414,0.207 V 0.31 c -0.105,0 -0.625,-0.309 -1.445,-0.309 z"
         style="fill:#8b0059;fill-opacity:0.847059;fill-rule:evenodd;stroke:none"
         id="path346"
         inkscape:connector-curvature="0" /><path
         d="m 72.465,10.65 c -0.926,0 -1.856,-1.446 -1.856,-3.617 l 3.512,0.308 c 0,1.965 -0.516,3.309 -1.656,3.309 z M 71.02,4.962 c 0.105,-1.859 0.828,-2.687 2.273,-2.687 1.348,0 2.176,0.308 2.586,0.621 l 0.723,-1.965 c -0.93,-0.621 -1.961,-0.93 -3.618,-0.93 -3.308,0 -4.859,2.274 -4.859,6.309 0,3.824 1.551,6.406 4.551,6.406 2.996,0 4.547,-2.582 4.441,-6.926 z"
         style="fill:#8b0059;fill-opacity:0.847059;fill-rule:evenodd;stroke:none"
         id="path348"
         inkscape:connector-curvature="0" /><path
         d="m 82.805,0.001 c -1.961,0 -3.102,1.449 -3.102,3.617 v 6.719 h -1.238 v 2.176 h 1.238 v 2.684 l 2.895,1.031 v -3.715 h 1.656 V 10.337 H 82.598 V 3.931 c 0,-1.141 0.418,-1.656 0.933,-1.656 0.414,0 0.52,0.207 0.723,0.207 V 0.31 c -0.203,0 -0.828,-0.309 -1.449,-0.309 z"
         style="fill:#8b0059;fill-opacity:0.847059;fill-rule:evenodd;stroke:none"
         id="path350"
         inkscape:connector-curvature="0" /><path
         d="m 36.391,83.118 c -0.52,-0.101 -6.829,0.415 -9.825,0 v 0.727 c 4.344,0.309 9.825,0 9.825,0 0,0 0.105,-0.312 0,-0.727 z M 33.395,79.81 c -0.52,0 -0.731,-0.102 -0.829,-0.52 -0.207,0.418 -0.207,0.418 -0.625,0.52 -0.722,0 -1.031,-0.102 -1.132,-0.52 0,0.418 -0.418,0.52 -0.727,0.727 -0.824,0 -0.824,-0.309 -1.137,-0.727 0,0 -0.105,0.727 -0.828,0.727 -0.515,0 -0.828,-0.309 -0.926,-0.824 -0.211,0.308 -0.211,0.617 -0.828,0.617 -0.312,0 -0.828,-0.102 -0.828,-0.617 0,0 -0.312,0.515 -0.723,0.515 0,0.102 -0.312,2.067 -0.722,2.586 0,0.203 0.098,0.203 0.617,0 0.516,-0.312 0.828,-2.176 0.828,-2.176 l 0.309,0.207 c 0,0 0,1.141 -0.309,1.969 0.203,0 0.516,0.203 0.621,-0.207 0.41,-0.312 0.516,-1.449 0.516,-1.449 l 0.308,0.203 c 0,0 0,0.934 -0.101,1.656 0.101,0 0.312,0 0.617,-0.203 0.106,-0.312 0.313,-1.14 0.313,-1.14 l 0.308,0.105 c 0,0 -0.105,0.723 -0.105,1.238 h 6.515 c 0,0 -0.828,-0.828 -1.132,-2.687 z M 31.941,76.4 c -0.308,-0.309 -0.515,-0.106 -0.515,-0.106 0,0 0.828,0.52 1.238,2.481 0.211,0.726 0.731,0.726 0.934,0.515 0.828,-0.515 -1.239,-2.683 -1.657,-2.89 z m -4.132,-5.168 c 0,0 -0.829,1.035 -0.207,1.855 1.238,1.246 3.824,1.246 4.136,2.899 0.203,0 0.828,0.414 0.926,0.414 0.418,-2.895 -4.234,-2.582 -4.855,-5.168 z m 2.789,-1.449 c 0.312,-0.618 1.968,-0.618 1.656,-1.036 h -6.203 l 0.105,0.207 c 2.996,0.829 1.446,2.793 3.617,3.618 v -1.856 c -0.211,-0.418 0.102,-0.828 -1.343,-1.449 0,0 1.863,0.203 2.168,0.516 z m -0.305,5.167 c 0,0 -0.828,-0.515 -1.969,-0.617 0,0.102 0.106,0.617 0.106,0.617 z m 1.648,4.551 c 0.418,-0.211 0.313,-2.379 -1.132,-3.207 h -0.516 c 0.516,1.035 0.617,3.207 1.648,3.207 z m -2.168,-3.207 h -0.621 c 0,1.348 0,2.172 0.313,2.692 0.097,0.304 0.617,0.824 1.133,0.304 0.211,-0.617 -0.516,-2.168 -0.825,-2.996 z m -2.484,-0.828 c 0,0 0,0.313 -0.098,0.52 1.446,-0.207 2.582,-0.207 4.028,0 0,-0.207 -0.309,-0.52 -0.309,-0.52 -0.828,-0.203 -3.414,-0.203 -3.621,0 z m 0.313,3.207 c 0,0.828 0.722,1.035 1.035,0.828 0.515,-0.308 0,-3.101 0,-3.207 h -0.52 c 0,0 -0.621,1.656 -0.515,2.379 z m -1.551,-0.414 c 0,0.516 0,1.031 0.515,1.031 0.723,0.211 0.93,-1.855 1.243,-2.996 h -0.52 c 0,0 -0.926,0.313 -1.238,1.965 z m 0.105,-1.652 c -0.105,0 -0.828,0.515 -1.344,1.551 -0.105,0.515 -0.312,0.828 -0.105,1.035 0.621,0.515 1.031,-1.758 1.449,-2.586 z m -5.898,6.718 c 0,1.137 0.312,2.168 1.246,2.793 1.445,1.344 2.684,1.551 6.613,0.516 0.723,-0.105 1.035,0.207 1.445,0 0.313,0 0.52,0 0.731,-0.105 v -0.207 c 0,0 -0.52,0.207 -0.828,0 0,0 -0.207,-0.204 0.097,-0.309 0.52,0.309 0.731,0.105 0.829,0 -0.516,-0.207 -0.098,-0.52 -0.098,-0.52 -1.348,0 -2.176,0.52 -3.102,0.829 -1.14,0.519 -3.101,0.519 -4.242,0 -2.379,-0.926 -2.48,-4.547 0.621,-4.653 0.207,-0.41 0.309,-0.828 0.52,-1.344 -3.102,0.106 -3.832,3 -3.832,3 z m 2.797,-0.722 c 0.207,-0.106 0.207,-0.309 0.304,-0.516 -0.41,0 -0.82,0.207 -1.132,0.516 z m -0.828,1.242 h 0.515 c 0,-0.312 0,-0.52 0.207,-0.828 -0.207,0 -0.515,0 -0.515,0.101 0,0.207 -0.207,0.415 -0.207,0.727 z m 1.035,0 c 0.097,0 0.515,0.203 0.515,0 0.102,-0.207 0.102,-0.52 0.102,-0.828 h -0.617 z m 1.445,0 c 0.105,-0.207 0.105,-0.52 0.105,-0.727 h -0.624 c 0.207,0.207 0,0.52 0,0.727 z m 1.137,0 v -0.727 h -0.516 c -0.105,0.207 -0.105,0.52 -0.105,0.727 z m 10.957,0 c -0.102,0.617 -8.684,0.516 -11.578,0.516 -1.035,0 -3.309,-0.207 -3.309,-0.207 0,0 0.625,2.687 4.652,1.964 1.551,-0.312 2.586,-1.242 4.547,-1.14 v 0.418 c -0.203,0.097 -0.722,0 -0.722,0.308 0.519,0.309 2.273,-0.726 2.484,-0.726 -0.934,0.515 -0.828,0.515 -0.828,0.515 0,0 0.617,0.313 1.035,-0.097 -0.418,0.722 -1.035,0.097 -1.656,0.308 -0.313,0 -0.516,0.102 -0.828,0.102 0.312,0.312 0.621,0 0.828,0 0,0.207 0,0 0.207,0.207 -0.207,0.621 -2.168,1.137 -3.203,0.828 -0.313,0 -1.551,0.516 -2.067,0.621 -1.656,0.516 -4.136,0.516 -5.375,-0.515 -1.453,-0.934 -2.484,-3.622 -1.035,-5.688 0.824,-0.934 2.274,-1.449 4.137,-1.551 -0.211,-0.207 -0.211,-0.418 0,-0.933 0.098,-0.93 0.41,-1.653 1.445,-2.375 0.203,-0.106 0.828,-0.309 1.031,-0.621 0.106,-0.313 0.106,-0.516 0.313,-0.829 h 0.93 v -0.828 c 0,0 -0.93,-0.304 -1.137,-0.824 -0.106,-0.308 -0.828,-1.762 1.137,-2.379 -0.207,-0.621 -0.829,-1.136 -1.446,-1.449 -0.519,0 -0.828,0 -1.14,-0.305 -0.207,-0.211 -0.207,-0.726 -0.207,-0.933 h 7.859 c 0,0.515 -0.211,0.933 -0.621,1.035 -0.828,0.308 -0.828,0.203 -1.445,0.828 0.824,0.824 0,1.652 -0.727,1.859 v 1.036 c 0,0 0.727,0.308 0.828,0.515 0.828,0.313 1.344,0.828 1.656,1.133 0.516,0.52 0.516,1.453 0.309,1.969 1.758,2.168 0.824,2.894 0.824,3.101 0.313,0.93 0.727,2.586 1.969,2.895 0.516,0.207 1.344,0.207 1.445,0.207 -0.101,0.308 -0.101,0.828 -0.312,1.035 z"
         style="fill:#8b0059;fill-opacity:0.847059;fill-rule:evenodd;stroke:none"
         id="path352"
         inkscape:connector-curvature="0" /><path
         d="m 69.367,84.154 c -1.652,3.203 -5.269,2.375 -5.687,1.964 -1.446,-0.312 -2.996,-2.48 -2.996,-4.449 -1.961,1.969 -0.93,6 -0.93,6.102 V 88.7 c 0.519,0.106 0.519,0.106 0.723,0.52 1.242,1.859 0.207,1.961 -0.415,1.137 0,1.136 -0.617,0.722 -1.035,0.515 0,0.825 -0.515,0.52 -0.617,0.207 -0.312,1.344 -1.344,0.102 -1.656,-0.207 -1.035,0.309 -1.652,-0.207 -1.652,-0.207 1.035,-0.308 1.035,-0.414 1.035,-0.414 -0.211,-0.41 -0.516,-0.515 -1.035,-0.515 0,-0.207 0.824,-0.414 1.339,0.105 0.313,0.723 -0.515,0.824 -0.515,0.824 0.515,0 1.14,-0.101 1.344,-0.101 1.14,-0.313 2.175,-0.828 2.175,-2.067 0,-0.519 -0.207,-1.14 -0.418,-1.55 -0.101,-0.934 -0.101,-2.586 0,-3.414 0.418,-1.036 1.657,-3.825 2.172,-2.692 0.313,0.625 0.313,1.453 0.828,2.797 0.52,1.551 2.274,2.684 4.344,2.375 3.824,-0.824 3.305,-3.926 3.207,-4.238 L 69.16,81.154 c 0,0 0.723,2.484 -1.445,3 0.617,-0.621 1.035,-3 -0.106,-4.036 0.934,1.864 0.106,4.036 -1.863,4.551 0.828,-0.824 1.863,-2.687 0.625,-4.238 0.203,1.344 0.203,3.207 -2.07,3.723 3.308,-2.067 1.14,-5.481 1.14,-5.481 2.789,2.793 1.446,4.86 1.446,4.86 0,0 1.445,-1.239 -0.106,-4.34 2.379,1.238 1.762,3.824 1.762,3.824 0.824,-0.723 0.207,-2.692 0.207,-2.692 0.098,0 0.617,0.622 0.926,1.45 0.207,0.828 0,1.863 -0.309,2.379 z"
         style="fill:#8b0059;fill-opacity:0.847059;fill-rule:evenodd;stroke:none"
         id="path354"
         inkscape:connector-curvature="0" /><path
         d="m 57.066,89.529 c 0.204,0 0.622,0.312 0.622,0.312 -0.211,0.207 -0.418,0.41 -0.934,0.41 0,-0.203 0.207,-0.722 0.312,-0.722 z"
         style="fill:#8b0059;fill-opacity:0.847059;fill-rule:evenodd;stroke:none"
         id="path356"
         inkscape:connector-curvature="0" /><path
         d="m 59.543,69.47 h 0.211 c 0,-0.305 -0.211,-0.516 -0.211,-0.516 0.519,0 0.73,0.211 0.73,0.313 0,0.516 -0.211,0.516 -0.519,0.621 0,0 0.308,0.41 0.308,0.516 0.211,0.207 -0.207,0.828 -0.207,1.132 0.207,0.418 0.418,0.418 0.516,0.52 -0.098,0.211 -0.309,0.211 -0.309,0.211 -0.308,1.34 0.415,1.855 0.622,2.996 0.621,0 1.55,0 1.961,0.309 -1.133,0 -3.102,0.519 -3.719,0.828 -1.238,0.414 -3.305,2.793 -3.516,3.308 -0.414,0.723 -1.035,2.379 -0.617,4.137 0.309,1.344 1.859,4.133 1.961,4.652 -0.102,0.723 -0.828,0.825 -1.035,0.825 0,-0.102 0,-0.102 0.207,-0.102 -1.961,-0.93 -1.446,-2.273 -0.824,-2.273 0,0 -0.106,-0.313 0.308,-0.418 -0.101,-0.411 -1.242,-2.375 -1.445,-3.719 -0.106,-3.824 1.961,-4.965 2.273,-5.481 0.828,-1.343 -0.312,-2.379 -0.828,-2.379 -0.617,-0.207 -1.035,-0.312 -1.445,-0.207 -0.313,0 -0.52,0.415 -0.828,0.415 -0.52,0 -0.52,-0.415 -0.93,-0.723 0,0 0.828,0.515 0.828,0.203 0,-0.203 -0.418,-0.516 -0.418,-1.031 0.418,0 0.207,0.211 0.207,0.414 0.211,0.101 0.516,0.312 0.621,0.414 0.207,0 0.414,0 0.52,-0.102 h 0.203 c 0,-0.515 -0.203,-0.828 -0.516,-1.035 0.516,0 0.828,0.309 0.828,0.824 0.93,0 1.446,0 1.961,-0.304 0,0.203 0,0.304 0.211,0.515 0.309,0.102 0.618,0.102 1.036,0.305 0.207,0.105 0.41,0.312 0.41,0.312 h 0.105 c 1.551,-1.132 0.723,-4.339 0.52,-4.546 h 0.203 c 0,0 0.101,0 0.101,-0.106 0.727,1.238 0.516,3.309 0.211,4.137 -0.312,0.723 -1.761,1.965 -2.277,2.48 v 0.207 c 0.105,-0.308 1.965,-1.55 3.312,-1.656 0,-0.723 -0.519,-1.961 -0.519,-1.961 v -2.894 c -0.211,-0.207 -0.309,-0.207 -0.516,-0.516 -0.211,0 -0.211,0.203 -0.211,0.203 -0.101,0.106 -0.304,0.106 -0.304,0.106 -0.211,0 -0.313,-0.106 -0.828,0 -0.207,-0.106 -0.313,-0.309 -0.418,-0.516 -0.516,0 -1.239,0.41 -1.856,0.207 -0.625,-0.312 -1.656,-1.348 -1.656,-1.348 0,0 -0.106,-0.308 0,-0.515 h 1.445 c 0.309,0 1.86,0 2.278,0.207 0.41,0 1.55,0 1.238,0.207 -0.414,0.101 -1.965,0.101 -1.965,0.101 H 55.41 c 0.516,0.828 1.86,0.828 2.067,0.828 v -0.308 c 0.105,0.308 0.418,0.308 0.621,0.621 0.105,0 0.105,0 0.312,-0.105 -0.207,-0.313 0.313,-0.829 0.313,-0.829 0.203,0.211 0,0.516 0,0.621 0.203,0 0.304,0.208 0.515,0.208 0.207,0 0.207,-0.208 0.305,-0.313 z"
         style="fill:#8b0059;fill-opacity:0.847059;fill-rule:evenodd;stroke:none"
         id="path358"
         inkscape:connector-curvature="0" /><path
         d="m 63.68,82.294 c 0.418,-0.519 0.828,-0.519 1.14,-1.347 0.723,-1.239 -0.312,-2.274 -0.312,-2.481 1.551,1.242 1.449,4.137 -0.516,4.551 0.309,-0.207 0.934,-0.52 1.137,-1.758 0,0 -0.621,1.035 -1.449,1.035 z"
         style="fill:#8b0059;fill-opacity:0.847059;fill-rule:evenodd;stroke:none"
         id="path360"
         inkscape:connector-curvature="0" /><path
         d="m 56.754,80.017 c -0.102,0 -1.133,1.137 -0.617,3.621 0,0 -1.449,-2.379 0.617,-3.621 z"
         style="fill:#8b0059;fill-opacity:0.847059;fill-rule:evenodd;stroke:none"
         id="path362"
         inkscape:connector-curvature="0" /><path
         d="m 61.719,76.607 c -0.414,-0.207 -1.864,-0.313 -3.516,1.551 0,0 1.242,-2.586 3.516,-1.551 z"
         style="fill:#8b0059;fill-opacity:0.847059;fill-rule:evenodd;stroke:none"
         id="path364"
         inkscape:connector-curvature="0" /><path
         d="m 58.203,79.501 c 0,-0.211 1.242,-3.41 4.031,-2.379 -0.207,0 -2.172,-0.308 -4.031,2.379 z"
         style="fill:#8b0059;fill-opacity:0.847059;fill-rule:evenodd;stroke:none"
         id="path366"
         inkscape:connector-curvature="0" /><path
         d="m 61.719,78.466 c 0.105,-0.207 1.551,-1.344 1.031,-4.344 0,0 1.551,3 -1.031,4.344 z"
         style="fill:#8b0059;fill-opacity:0.847059;fill-rule:evenodd;stroke:none"
         id="path368"
         inkscape:connector-curvature="0" /><path
         d="m 62.234,78.775 c 0.313,-0.102 1.864,-0.93 1.758,-4.137 0,0 1.137,3.312 -1.758,4.137 z"
         style="fill:#8b0059;fill-opacity:0.847059;fill-rule:evenodd;stroke:none"
         id="path370"
         inkscape:connector-curvature="0" /><path
         d="m 62.34,79.29 c 0.207,0 2.273,-0.617 2.48,-3.824 0,0.106 0.621,3.52 -2.48,3.824 z"
         style="fill:#8b0059;fill-opacity:0.847059;fill-rule:evenodd;stroke:none"
         id="path372"
         inkscape:connector-curvature="0" /><path
         d="m 57.27,80.118 c 0,0 -0.618,0.829 -0.516,2.692 0,0 -0.828,-1.656 0.516,-2.692 z"
         style="fill:#8b0059;fill-opacity:0.847059;fill-rule:evenodd;stroke:none"
         id="path374"
         inkscape:connector-curvature="0" /><path
         d="m 62.234,69.575 c -0.722,0 -0.929,-0.308 -0.929,-0.308 0.519,-0.102 1.34,-0.102 1.965,-0.52 0.203,0 0.41,-0.101 0.41,-0.101 0,0 -0.41,0.929 -1.446,0.929 z"
         style="fill:#8b0059;fill-opacity:0.847059;fill-rule:evenodd;stroke:none"
         id="path376"
         inkscape:connector-curvature="0" /><path
         d="m 59.238,68.646 v -0.207 c 0.305,0 1.133,-0.207 1.446,-0.207 1.14,0 2.586,0.207 2.586,0.414 h 0.41 c -0.723,0.101 -1.133,0.101 -1.856,0.101 -0.312,-0.101 -2.07,-0.101 -2.586,-0.101 z"
         style="fill:#8b0059;fill-opacity:0.847059;fill-rule:evenodd;stroke:none"
         id="path378"
         inkscape:connector-curvature="0" /><path
         d="m 58.926,70.611 -0.203,-0.207 0.203,-0.106 h 0.101 v 0.106 z"
         style="fill:#8b0059;fill-opacity:0.847059;fill-rule:evenodd;stroke:none"
         id="path380"
         inkscape:connector-curvature="0" /><path
         d="m 49.621,67.302 c -0.723,-0.516 -2.687,-1.449 -5.066,-1.449 -2.481,0 -2.481,-1.238 -1.86,-1.653 v -0.722 h -1.449 c 0,0 0.625,0.414 0.52,0.515 0,0.207 -1.243,0.415 -1.243,0.415 0,0.207 1.036,0.312 1.243,0.515 0,0.106 -1.348,0.828 -1.348,0.828 0.105,0.102 1.656,-0.308 1.762,-0.207 0,0.309 -0.934,1.242 -0.934,1.344 0.625,-0.102 1.551,-0.617 1.551,-0.617 0.207,0.097 -0.41,1.344 -0.41,1.344 0.308,-0.211 1.754,-1.036 1.754,-1.036 0.207,0.207 -0.411,1.243 -0.411,1.243 0.305,-0.207 2.067,-1.454 2.274,-1.243 0.312,0 -0.828,1.34 -0.828,1.551 0.41,-0.308 2.691,-1.242 2.691,-1.035 0.203,0.207 -1.246,1.137 -1.246,1.344 0.828,-0.207 2.797,0 2.797,0.207 0,0.101 -2.07,0.621 -2.07,0.621 0,0.203 2.375,0.828 2.273,1.137 -0.516,0.207 -2.484,0 -2.484,0 0,0.312 1.761,1.343 1.656,1.343 0,0.207 -1.859,-0.211 -1.961,-0.211 v 1.551 c 1.238,0 2.891,-0.515 3.512,-1.34 1.035,-1.449 0.519,-3.617 -0.723,-4.445 z m -5.066,-1.859 1.761,0.101 c 0,-0.621 0.204,-2.277 -0.211,-2.793 -0.101,-0.722 -1.445,-2.168 -1.445,-2.168 0,1.344 -0.105,4.86 -0.105,4.86 z m 2.582,-3 c 0,0.101 -0.305,0.519 -0.203,0.621 0,0.414 0.515,0.722 0.515,0.828 -0.101,0.101 -0.515,0.101 -0.617,0.101 v 0.622 c 0.617,0 1.445,0 1.238,-0.829 0,-0.722 -1.238,-2.07 -2.066,-3.101 -0.516,-0.52 -1.449,-1.551 -1.449,-1.551 0,0.414 0,0.621 0.105,0.727 0,0.207 0.516,0.515 0.621,0.722 0,0.102 -0.105,0.102 -0.105,0.102 0.105,0.414 0.828,0.515 0.929,0.726 v 0.516 c 0,0.309 1.032,0.516 1.032,0.516 z m -2.371,-6.719 c -0.106,0 -0.106,2.48 -0.106,2.996 0.309,0.414 1.86,1.965 1.86,1.965 V 56.24 c -0.415,-0.516 -1.754,-0.727 -1.754,-0.516 z m -0.731,0.101 h -0.723 c 0.208,1.45 0.208,2.692 -0.097,4.036 0,0.207 0.097,0.824 0.097,1.031 0,0.308 -0.097,0.519 -0.097,0.726 v 0.618 c 0.097,0.726 0.097,2.793 0.097,2.793 0,0 0.208,0.414 0.829,0.414 0,0 0.207,-6.516 -0.106,-9.618 z m 0.106,12.922 c -0.309,0 -0.411,0 -0.829,-0.101 0,1.137 0,6.304 0.208,6.617 0.21,0.203 0.515,0.203 0.515,0.203 0,-2.476 0.106,-4.234 0.106,-6.719 z m 2.175,0.52 v -0.102 c -0.312,-0.211 -1.347,-0.418 -1.968,-0.418 v 6.825 c 0.621,0 1.757,0.207 1.968,0.207 0,-1.141 0.204,-6.309 0,-6.512 z m -4.757,2.172 c 0.207,0.515 0.312,0.828 0.312,1.133 h -2.898 c 0.312,0.211 1.445,0.515 1.445,0.726 0,0.309 -1.961,1.137 -2.168,1.445 0.828,-0.105 1.965,-0.41 2.168,-0.308 0,0.203 -1.133,1.965 -1.133,1.965 0.617,-0.309 1.758,-1.242 1.961,-1.242 0.207,0.105 -0.723,1.964 -0.723,1.964 0.52,-0.207 1.551,-1.343 1.657,-1.136 0.207,0 -0.106,1.656 -0.106,1.859 0.414,-0.516 1.238,-1.551 1.446,-1.445 0.21,0 -0.208,1.859 -0.208,1.859 0.829,-0.414 1.864,-1.652 2.176,-1.652 0.098,0.207 -0.519,1.652 -0.519,1.652 0.617,-0.101 2.379,-1.445 2.586,-1.344 0.207,0.52 -1.035,1.758 -1.035,1.758 0.617,0 2.792,-0.515 2.898,-0.207 0,0.309 -2.07,1.242 -2.07,1.242 0.414,0.102 2.48,0.723 2.375,0.93 -0.305,0.309 -2.789,0 -2.586,0.203 0,0.313 1.453,1.141 1.453,1.246 -0.313,0.41 -1.242,-0.105 -1.969,-0.105 0,0.828 0.211,1.551 0.211,2.172 1.445,-0.106 2.891,-0.829 3.406,-2.067 1.141,-2.277 -0.203,-4.652 -1.855,-5.273 -1.449,-0.723 -3.723,-0.52 -5.379,-0.828 -1.445,-0.52 -1.133,-1.864 -0.617,-2.168 V 71.747 C 42.18,71.536 41.559,71.439 41.559,71.439 Z m 2.476,7.851 c -0.203,0 -0.515,-0.097 -0.723,-0.097 0,1.238 0.208,5.996 0,6.3 0.829,0.211 1.969,0.211 3.004,0.313 V 79.81 c -0.211,-0.102 -1.55,-0.52 -1.968,-0.52 0,0.52 -0.207,4.243 -0.207,4.243 L 44.035,82.81 Z m -3.305,3.313 c 0,0 1.141,0.93 1.036,1.035 0,0.41 -2.274,0.516 -2.481,0.723 -0.312,0.101 1.445,0 1.445,0.101 0,0.414 -1.445,1.656 -1.445,1.656 0.617,-0.105 1.653,-0.929 1.961,-0.722 0.207,0.097 -1.133,2.273 -1.133,2.273 0.617,-0.519 1.653,-1.551 1.961,-1.347 0.106,0 -0.515,1.863 -0.515,1.968 0.515,-0.105 1.656,-1.656 1.753,-1.449 0.418,0.106 -0.308,1.449 -0.308,1.656 0.726,-0.312 2.277,-1.656 2.484,-1.656 0.309,0.309 -0.933,1.859 -0.933,1.859 0.726,-0.203 3.312,-1.238 3.515,-1.031 0.207,0.102 -2.066,1.653 -2.066,1.653 3.308,0.207 3.308,0.414 3.308,0.414 0.106,0.312 -2.48,0.929 -2.48,0.929 1.445,0.516 1.758,0.828 1.758,0.828 -0.207,0.309 -1.656,0.204 -2.07,0.204 0,0.519 -0.204,1.14 -0.204,1.656 1.446,0 3.102,-0.93 3.407,-2.172 0.515,-1.859 0.105,-3.41 -1.34,-4.234 -1.246,-0.829 -4.348,-0.829 -5.071,-0.934 -1.441,-0.309 -1.132,-1.137 -0.617,-1.652 0,-0.723 0.102,-0.828 0,-1.243 0,-0.308 -1.757,-0.621 -1.965,-0.515 z m 1.965,9.406 c 0,0.516 0.309,1.035 0.102,1.035 -0.102,0.203 -1.238,-0.519 -1.238,-0.519 0,0.312 0.828,1.035 0.515,1.035 0,0.105 -1.551,-0.207 -1.859,-0.207 0,0.207 1.031,0.722 1.031,0.722 0,0.106 -1.344,0.418 -1.551,0.625 0.418,0 0.828,0.204 0.828,0.204 0,0.312 -0.41,0.621 -0.828,0.828 0.418,0 0.828,0.207 0.828,0.207 0.207,0.312 -0.308,0.515 -0.41,0.828 0,0 0.825,0.723 0.41,0.723 -1.031,0.621 1.243,3.722 1.348,3.722 0.309,0 0.516,-0.105 0.617,-0.312 0,-0.516 -0.308,-0.621 -0.308,-1.137 -0.106,-0.414 -0.309,-1.035 -0.309,-1.551 0.203,0.106 0.309,0.313 0.516,0.516 -0.207,0.515 0,0.621 0.101,1.035 0.516,-1.652 -0.414,-2.996 -1.242,-3.203 -0.203,-0.309 -0.203,-0.106 -0.203,-0.516 -0.105,-0.519 0,-1.969 2.172,-2.172 v -1.449 c -0.211,-0.207 -0.52,-0.414 -0.52,-0.414 z m 1.446,6.203 c 0.414,0.313 0.625,0.516 1.035,0.313 0.621,-0.313 0.621,-3.516 0.621,-4.45 0.207,-0.722 0.308,-3.511 0.207,-4.027 -0.516,-0.207 -2.172,-0.312 -2.172,-0.312 0,0 -0.52,7.031 0.309,8.476 z m 2.48,-24.605 v 2.172 c 2.277,0.312 3.723,1.55 4.242,2.996 1.657,5.273 -3.515,5.687 -4.031,6.101 -0.211,0.313 0,0.828 0,1.137 3.203,0.516 4.547,3.516 2.789,6.203 -0.828,1.137 -3.305,1.656 -3.305,1.656 -0.211,1.551 -0.312,3.825 -0.828,4.653 -0.312,0.41 -0.519,0.41 -0.828,0.41 -1.863,0 -1.445,-4.547 -1.445,-4.754 -0.828,0 -1.449,0.312 -1.762,1.035 -0.41,0.723 0,1.238 0,1.238 1.035,0.106 1.551,1.446 1.344,2.789 0,0.52 -0.102,1.141 0,1.348 0.207,0.621 -0.102,0.516 -0.41,0.828 -0.207,0.203 0,0.309 0.101,0.516 0.516,0.515 1.032,1.035 1.653,1.238 -0.411,-0.105 -1.446,-0.926 -1.653,-0.926 -0.617,-0.105 0.207,1.961 0.207,1.961 -0.207,-0.41 -0.515,-1.035 -0.515,-1.55 -0.106,-0.516 0.308,-0.723 0,-1.239 -0.106,-0.207 -0.309,0 -0.414,0 -0.207,-0.207 -2.793,-2.379 -2.071,-3.929 0,-0.106 0.207,-0.207 0.207,-0.516 -0.207,-0.52 -0.41,-0.93 -0.617,-1.242 -0.828,-3.102 1.653,-4.239 3.719,-4.34 v -1.863 c -2.066,-0.207 -3.926,-1.032 -4.754,-2.688 -0.309,-0.828 -0.516,-2.172 0,-2.996 1.035,-1.758 2.48,-2.379 4.238,-3.207 v -1.652 c -1.965,-0.52 -3.824,-1.141 -4.754,-2.692 -0.621,-1.031 -0.621,-2.476 0,-3.511 0.723,-1.247 2.996,-2.379 4.653,-2.688 v -1.863 c -0.516,0 -1.969,-0.617 -2.692,-2.379 -0.722,-2.274 1.035,-3.309 2.692,-4.137 0,-1.855 -0.313,-3.926 -0.313,-5.476 0.313,-0.415 0.621,-0.727 1.141,-0.93 0.097,-0.102 0.617,0.203 1.133,0 h 0.312 c 0.309,-0.313 1.961,0.203 2.274,0.723 v 1.757 c 0,1.137 -0.102,2.071 -0.102,3.309 0.516,0.312 0.93,0.93 1.238,1.445 1.653,2.485 -0.933,2.379 -1.449,2.379 v 0.828 c 2.172,0.313 4.035,1.035 4.551,2.996 1.035,3.825 -2.895,4.758 -4.551,4.86 z"
         style="fill:#8b0059;fill-opacity:0.847059;fill-rule:evenodd;stroke:none"
         id="path382"
         inkscape:connector-curvature="0" /><path
         d="m 20.57,59.341 0.934,0.207 h 0.101 c 0.204,0 0.309,-0.207 0.309,-0.207 0,-0.207 -0.105,-0.308 -0.309,-0.308 h -0.101 l -0.934,0.101 z m -0.101,-0.414 0.617,-0.617 c 0.207,-0.106 0.418,-0.106 0.418,-0.211 0,-0.207 -0.211,-0.309 -0.418,-0.309 -0.098,0 -0.098,0.102 -0.098,0.102 l -0.73,0.828 z m -0.211,0.934 0.519,0.722 c 0.211,0.102 0.211,0.309 0.309,0.309 0.207,0 0.418,-0.207 0.418,-0.309 0,-0.207 -0.211,-0.207 -0.418,-0.418 L 20.469,59.861 Z M 19.953,58.517 20.16,57.79 v -0.207 c 0,-0.207 -0.207,-0.308 -0.418,-0.308 0,0 -0.101,0.101 -0.101,0.308 v 0.207 l 0.101,0.727 z m -0.211,1.551 -0.101,1.031 V 61.2 l 0.101,0.211 c 0.211,0 0.418,-0.211 0.418,-0.312 v -0.207 l -0.207,-0.824 z m 0,-1.348 c -0.101,0 -0.41,0.313 -0.41,0.621 0,0.207 0.203,0.52 0.41,0.52 0.418,0 0.727,-0.313 0.727,-0.52 0,-0.308 -0.309,-0.621 -0.727,-0.621 z m -0.41,0 -0.52,-0.828 -0.105,-0.102 c -0.203,0 -0.41,0.102 -0.41,0.309 0,0.105 0.207,0.105 0.41,0.211 l 0.625,0.617 z m 0,1.141 -0.625,0.304 c -0.203,0.211 -0.41,0.211 -0.41,0.418 0,0.102 0.207,0.309 0.41,0.309 0.105,0 0.105,-0.207 0.313,-0.309 z m -0.207,-0.727 -0.934,-0.101 h -0.207 c -0.203,0 -0.203,0.101 -0.203,0.308 l 0.203,0.207 h 0.313 l 0.828,-0.207 z"
         style="fill:#8b0059;fill-opacity:0.847059;fill-rule:evenodd;stroke:none"
         id="path384"
         inkscape:connector-curvature="0" /><path
         d="m 69.16,59.341 0.828,0.207 h 0.207 c 0.203,0 0.309,-0.207 0.309,-0.207 0,-0.207 -0.106,-0.308 -0.309,-0.308 h -0.207 l -0.828,0.101 z m -0.312,-0.414 0.828,-0.617 c 0.207,-0.106 0.207,-0.106 0.207,-0.211 0,-0.207 0,-0.309 -0.207,-0.309 -0.098,0 -0.098,0.102 -0.309,0.102 l -0.519,0.828 z m 0,0.934 0.519,0.722 c 0,0.102 0.211,0.309 0.309,0.309 0.207,0 0.207,-0.207 0.207,-0.309 0,-0.207 0,-0.207 -0.207,-0.418 z m -0.516,-1.344 0.211,-0.727 0.207,-0.207 c 0,-0.207 -0.207,-0.308 -0.418,-0.308 -0.102,0 -0.207,0.101 -0.207,0.308 l 0.105,0.207 z m 0,1.551 -0.102,1.031 c -0.105,0 -0.105,0 0,0.101 0,0.211 0,0.211 0.102,0.211 0.211,0 0.418,-0.211 0.418,-0.312 l -0.207,-0.207 z m 0,-1.348 c -0.207,0 -0.41,0.313 -0.41,0.621 0,0.207 0.203,0.52 0.41,0.52 0.418,0 0.516,-0.313 0.516,-0.52 0,-0.308 -0.098,-0.621 -0.516,-0.621 z m -0.41,0 -0.52,-0.828 h -0.308 c -0.207,0 -0.207,0 -0.207,0.207 0,0.105 0.207,0.105 0.207,0.211 l 0.828,0.617 z m 0,1.141 -0.828,0.304 c 0,0.211 -0.207,0.211 -0.207,0.418 0,0.102 0,0.309 0.207,0.309 0.203,0 0.308,-0.207 0.308,-0.309 z m -0.313,-0.727 -0.828,-0.101 h -0.41 c 0,0 -0.105,0.101 -0.105,0.308 0,0 0.105,0.207 0.308,0.207 h 0.207 l 0.828,-0.207 z"
         style="fill:#8b0059;fill-opacity:0.847059;fill-rule:evenodd;stroke:none"
         id="path386"
         inkscape:connector-curvature="0" /><path
         d="m 41.559,109.583 -1.446,-0.101 0.41,1.965 h 0.207 z m -6.204,-3.511 -0.41,-0.106 c -0.105,0 -0.312,0.106 -0.312,0.309 -0.106,0.312 -0.207,0.828 -0.418,1.55 l -0.305,0.622 0.102,-0.207 c 0.203,-0.102 2.172,-1.243 2.687,-1.446 0.313,-0.207 0.617,-0.207 0.93,0 h 0.516 c 0,0 0.312,0.203 1.14,0.309 h 0.828 c 0.102,0 0.102,0 0.102,0.207 h -0.52 l -0.097,0.105 c 0,0.207 0,0.41 0.097,0.516 l 0.207,0.93 0.211,0.207 1.653,0.203 0.722,-1.446 v -0.203 c -0.101,0 -0.101,0 -0.101,-0.207 h 0.308 l 1.34,0.207 h 0.313 v 0.203 h -0.516 c -0.102,0 -0.312,0.106 -0.617,0.622 l -1.449,2.687 -0.828,1.551 c -0.208,0.105 -0.208,0.105 -0.415,0.105 l -0.105,-0.312 -1.34,-4.653 c 0,-0.203 -0.105,-0.515 -0.308,-0.515 -0.106,-0.207 -0.52,-0.207 -0.52,-0.207 -0.516,0.207 -0.828,0.312 -1.137,0.519 h -0.101 c -0.313,0.203 -2.172,1.133 -2.586,1.239 0.101,0.41 0.929,1.863 0.929,2.066 0.313,0.52 0.516,0.723 0.622,0.828 0.207,0.207 0.414,0.207 0.414,0.207 h 0.105 -0.105 l -0.93,-0.207 -0.828,-0.105 v -0.203 h 0.312 v -0.207 c 0,-0.106 -0.105,-0.313 -0.105,-0.516 h -0.207 c 0,-0.106 -0.207,-0.828 -0.418,-1.242 l -0.305,-0.727 v -0.101 c 0,0.101 -0.211,0.207 -0.211,0.207 -0.304,1.238 -0.515,1.445 -0.515,1.55 v 0.313 c 0,0 0,0.203 0.211,0.203 l 0.203,0.207 h -0.203 l -0.52,-0.207 -0.309,-0.203 h -0.312 l -0.621,-0.106 -0.207,-0.207 c 0,-0.105 0.207,0 0.207,0 h 0.308 c 0.106,0 0.313,0 0.313,-0.312 0.105,-0.203 0.105,-0.309 0.621,-1.344 l 0.309,-1.34 c 0.414,-0.621 0.515,-1.14 0.515,-1.449 v -0.519 h -0.304 v -0.204 h 0.203 l 0.414,0.204 0.414,0.105 0.207,0.207 0.722,0.207 c 0.106,0 0.106,0 0.106,0.106 z"
         style="fill:#8b0059;fill-opacity:0.847059;fill-rule:evenodd;stroke:none"
         id="path388"
         inkscape:connector-curvature="0" /><path
         d="m 43.73,45.177 c -0.726,0 -1.242,0.211 -1.55,0.621 -0.414,0.516 -0.727,1.344 -0.727,2.172 0.106,0.824 0.313,1.551 0.621,1.859 0.414,0.309 0.93,0.309 1.238,0.309 0.52,0 1.036,-0.102 1.348,-0.516 0.516,-0.515 0.828,-1.238 0.828,-2.168 -0.207,-2.066 -1.347,-2.277 -1.758,-2.277 z m -0.21,5.481 c -1.961,0 -3.102,-1.551 -3.102,-2.899 0,-1.445 0.828,-2.891 2.894,-2.891 0.829,0 1.657,0.102 2.176,0.618 0.617,0.722 1.032,1.347 1.032,2.175 0,1.86 -1.032,2.895 -3,2.997 z"
         style="fill:#8b0059;fill-opacity:0.847059;fill-rule:evenodd;stroke:none"
         id="path390"
         inkscape:connector-curvature="0" /><path
         d="M 53.859,46.208 H 53.652 L 52.617,46.005 52.52,45.798 H 52 l -0.828,-0.312 c 0,0 -0.106,0 -0.106,0.207 0.106,0 0.52,0.105 0.625,0.105 0.204,0.207 0.204,0.41 0.204,0.516 0,0.312 -0.204,1.035 -0.309,1.656 l -0.414,1.137 -0.106,0.929 c -0.203,0.102 -0.203,0.309 -0.203,0.309 -0.207,-0.207 -0.519,-0.309 -0.625,-0.516 l -0.203,-0.207 h -0.207 v 0.207 c 0,0 1.238,1.344 1.551,1.551 0,0.106 0,0.106 0.207,0.106 l 0.105,-0.106 c 0,-0.308 0.204,-1.035 0.309,-1.859 l 0.414,-1.344 c 0.106,-0.723 0.203,-1.344 0.41,-1.551 0,-0.312 0.211,-0.312 0.313,-0.312 h 0.515 c 0,0 0.207,0 0.207,-0.106 z"
         style="fill:#8b0059;fill-opacity:0.847059;fill-rule:evenodd;stroke:none"
         id="path392"
         inkscape:connector-curvature="0" /><path
         d="m 56.652,47.454 c -0.515,-0.105 -1.242,0.207 -1.55,0.723 -0.106,0.828 0.207,1.344 0.308,1.652 0.727,-0.207 1.551,-0.207 1.656,-0.824 0.411,-0.621 0.204,-1.246 -0.414,-1.551 z m -1.55,2.375 h -0.309 z m -0.727,1.243 c 0,0 0,0.101 -0.207,0.101 v 0.723 c 0.207,0.105 0.312,0.312 0.625,0.515 0.309,0.106 0.828,-0.203 0.926,-0.515 0.418,-0.723 0,-1.238 -0.098,-1.34 -0.625,0 -0.933,0.102 -1.141,0.305 0.208,-0.203 0.208,-0.203 0.313,-0.203 -0.313,0 -0.418,0.203 -0.418,0.414 z m 1.551,-0.516 h 0.312 z m 1.969,-1.035 c -0.313,0.824 -1.243,0.824 -1.758,1.035 0.304,0.305 0.617,0.93 0.304,1.652 0,0.203 -0.203,0.414 -0.515,0.414 -0.305,0.207 -0.824,0.207 -1.238,0 -0.829,-0.414 -1.243,-0.933 -1.243,-1.449 v -0.515 c 0.414,-0.52 0.93,-0.622 1.657,-0.829 -0.106,0 -0.309,-0.207 -0.309,-0.308 -0.313,-0.414 -0.418,-0.727 -0.418,-1.137 0,-0.207 0,-0.414 0.105,-0.625 0.208,-0.305 0.313,-0.617 0.622,-0.617 0.519,-0.309 1.035,-0.203 1.652,0 1.141,0.519 1.449,1.551 1.141,2.379 z"
         style="fill:#8b0059;fill-opacity:0.847059;fill-rule:evenodd;stroke:none"
         id="path394"
         inkscape:connector-curvature="0" /><path
         d="M 62.34,50.138 61.512,49.622 61.199,49.521 60.891,49.31 60.273,48.794 h -0.211 v 0.211 c 0,0 0.309,0.102 0.415,0.305 0.207,0.211 0.207,0.211 0,0.519 -0.106,0.207 -0.415,0.829 -0.723,1.344 l -0.727,1.035 -0.304,0.414 -0.211,0.414 c 0,0.204 0,0.204 -0.102,0.204 -0.207,0 -0.312,-0.411 -0.515,-0.618 0,0 0,-0.105 -0.207,-0.105 0,0 0,-0.106 -0.106,-0.106 v 0.106 c 0.106,0 0.828,1.656 0.93,1.863 0,0 0,0.309 0.211,0.309 0,-0.207 0,-0.207 0.203,-0.207 V 54.38 l 0.828,-1.551 0.723,-1.14 c 0.414,-0.617 0.722,-1.133 0.828,-1.344 0.207,-0.309 0.414,-0.309 0.519,-0.309 0.203,0.102 0.41,0.309 0.516,0.309 z"
         style="fill:#8b0059;fill-opacity:0.847059;fill-rule:evenodd;stroke:none"
         id="path396"
         inkscape:connector-curvature="0" /><path
         d="m 65.129,52.411 c -0.621,-0.515 -1.859,0.211 -2.582,1.247 -0.723,0.824 -1.035,1.55 -1.035,2.066 0,0.101 0.207,0.309 0.312,0.516 0.203,0.101 0.41,0.101 0.516,0.101 0.617,0 1.652,-0.617 2.168,-1.344 0.933,-1.132 1.238,-2.168 0.621,-2.586 z m -0.203,3.313 c -0.313,0.516 -1.141,1.137 -1.969,1.34 -0.41,0 -0.93,-0.203 -1.238,-0.516 -1.035,-0.824 -1.035,-2.168 0.308,-3.719 0.723,-0.933 2.071,-1.656 3.309,-0.828 0.41,0.41 0.621,0.828 0.621,1.344 0.102,0.723 -0.414,1.551 -1.031,2.379 z"
         style="fill:#8b0059;fill-opacity:0.847059;fill-rule:evenodd;stroke:none"
         id="path398"
         inkscape:connector-curvature="0" /><path
         d="m 16.539,85.396 c -0.309,-1.348 -1.656,-2.071 -3.098,-1.758 -1.968,0.516 -2.175,1.758 -1.968,2.375 0.312,1.137 1.449,1.758 3.101,1.449 2.172,-0.515 2.172,-1.656 1.965,-2.066 z m 0,1.961 c -0.516,0.621 -1.137,0.933 -1.965,1.14 -0.824,0.203 -1.652,0.203 -2.168,-0.207 -0.621,-0.519 -1.14,-1.14 -1.238,-2.172 -0.52,-1.964 0.723,-3.101 2.273,-3.515 1.239,-0.309 2.895,0.414 3.411,2.375 0.101,0.828 0,1.656 -0.313,2.379 z"
         style="fill:#8b0059;fill-opacity:0.847059;fill-rule:evenodd;stroke:none"
         id="path400"
         inkscape:connector-curvature="0" /><path
         d="m 13.129,91.697 v 0.105 l 0.105,0.207 c 0.207,0.207 0.411,0.207 0.516,0.207 0.309,-0.207 0.41,-0.207 1.445,-0.723 l 1.141,-0.414 c 0.617,-0.414 1.133,-0.722 1.445,-0.828 0.203,0 0.41,-0.203 0.41,-0.41 l -0.207,-0.105 v -0.207 c 0.207,0 0.207,0 0.207,0.207 l 0.106,0.312 0.207,0.309 v 0.207 l 1.031,1.859 c 0.106,0.207 0.106,0.414 0,0.414 -0.203,0.207 -0.723,0.516 -0.723,0.516 h -0.105 v -0.106 c 0.105,0 0.313,-0.203 0.313,-0.41 0.105,-0.207 0,-0.414 -0.208,-0.828 -0.308,-0.516 -0.308,-0.617 -0.515,-0.617 -0.106,-0.211 -0.621,0 -1.445,0.41 l -1.344,0.621 c -0.934,0.414 -1.141,0.414 -1.348,0.621 -0.203,0.203 -0.203,0.309 -0.203,0.516 l 0.102,0.105 v 0.207 h -0.102 l -0.516,-1.035 -0.207,-0.312 -0.105,-0.516 -0.207,-0.207 z"
         style="fill:#8b0059;fill-opacity:0.847059;fill-rule:evenodd;stroke:none"
         id="path402"
         inkscape:connector-curvature="0" /><path
         d="m 29.258,108.24 c 0.207,0 0,0 0,0.207 l -0.313,0.621 H 28.84 v 0.203 c -0.41,-0.203 -0.723,-0.203 -1.031,-0.516 -0.52,-0.101 -0.829,-0.617 -0.93,-0.93 0,-0.41 0,-0.722 0.101,-1.031 0.309,-0.722 1.032,-0.828 1.965,-1.035 h 0.313 c 0.824,-0.207 1.035,-0.312 1.34,-0.723 0.211,-0.312 0,-1.035 -0.516,-1.14 -0.309,-0.098 -0.824,-0.516 -1.242,0 0,0.105 -0.203,0.105 -0.203,0.312 0,0 -0.207,0.207 -0.207,0 -0.106,0 0,-0.207 0,-0.207 l 0.515,-0.828 c 0,-0.105 0.207,-0.105 0.207,-0.105 0.313,0 0.621,0.105 1.141,0.312 0.305,0.418 0.617,0.516 0.82,0.828 0.106,0.313 0.106,0.516 0.106,0.828 0,0.411 -0.106,0.516 -0.106,0.723 -0.515,0.723 -1.031,0.828 -2.168,1.035 H 28.84 c -0.828,0.203 -1.238,0.309 -1.344,0.621 v 0.41 c 0,0.106 0.106,0.415 0.516,0.622 0.312,0.207 0.625,0.207 0.828,0.207 0.105,-0.207 0.312,-0.414 0.312,-0.414 l 0.106,-0.102 z"
         style="fill:#8b0059;fill-opacity:0.847059;fill-rule:evenodd;stroke:none"
         id="path404"
         inkscape:connector-curvature="0" /><path
         d="m 50.551,106.794 h -0.207 l -0.723,0.203 -0.309,0.106 h -0.929 l -0.106,0.207 h 0.313 c 0.203,0 0.308,0.105 0.308,0.312 0,0.309 0.207,0.825 0.414,1.649 l 0.106,1.347 c 0.203,1.032 0.203,1.137 0.305,1.344 0,0.207 -0.102,0.313 -0.102,0.313 -0.203,0.203 -0.309,0.203 -0.309,0.203 h -0.207 c 0,0.207 0.207,0.207 0.207,0.207 l 0.516,-0.207 0.41,-0.203 h 0.934 l 0.207,-0.106 h -0.516 c -0.207,0 -0.207,-0.207 -0.312,-0.207 0,-0.312 0,-0.515 -0.207,-1.656 l -0.309,-1.238 c 0,-0.621 -0.207,-1.243 -0.207,-1.653 0,-0.105 0,-0.312 0.207,-0.312 l 0.516,-0.106 z"
         style="fill:#8b0059;fill-opacity:0.847059;fill-rule:evenodd;stroke:none"
         id="path406"
         inkscape:connector-curvature="0" /><path
         d="m 64.098,105.036 c 0,0 0.203,0 0.203,0.207 l 0.519,0.723 c 0.106,0.106 0,0.106 0,0.106 -0.207,0.203 -0.312,0.515 -0.722,0.722 -0.418,0.309 -0.934,0.516 -1.453,0.309 -0.305,0 -0.618,-0.106 -0.821,-0.516 -0.312,-0.515 -0.312,-1.14 0,-2.066 v -0.52 c 0.41,-0.621 0.203,-0.933 0,-1.238 -0.312,-0.313 -0.828,-0.516 -1.347,-0.105 -0.204,0.105 -0.622,0.41 -0.415,1.14 0.211,0.098 0.211,0.203 0.211,0.203 0,0.207 0.098,0.207 0,0.207 0,0.207 0,0 -0.211,0 l -0.519,-0.828 c -0.098,0 -0.098,-0.207 -0.098,-0.207 v -0.105 c 0.098,-0.098 0.41,-0.41 0.828,-0.618 0.411,-0.308 0.723,-0.515 1.032,-0.515 0.929,0 1.242,0.515 1.34,0.723 0.519,0.515 0.519,1.14 0.105,2.273 l -0.105,0.105 c -0.098,0.723 -0.098,1.036 0,1.446 0.312,0.312 0.625,0.312 1.14,0.105 0.313,-0.312 0.516,-0.621 0.516,-0.828 0,-0.207 -0.203,-0.516 -0.203,-0.516 0,0 -0.106,-0.207 0,-0.207 z"
         style="fill:#8b0059;fill-opacity:0.847059;fill-rule:evenodd;stroke:none"
         id="path408"
         inkscape:connector-curvature="0" /><path
         d="m 63.992,99.349 c 0,0.207 0.106,0 0.106,0 l 0.203,-0.106 c 0.207,0 0.312,0 0.519,0.106 0.106,0.207 0.621,0.519 1.137,1.035 l 2.168,2.274 -0.828,0.515 c -0.203,0.414 -0.41,0.625 -0.723,0.625 0,-0.211 -0.203,-0.211 -0.203,-0.211 h -0.105 v 0.211 c 0.105,0 0.621,0.41 0.828,0.41 h 0.203 c 0,-0.207 0,-0.207 0.105,-0.312 0,-0.098 0.313,-0.309 0.52,-0.516 l 1.961,-2.168 0.312,-0.312 h 0.309 c 0,-0.203 0,-0.203 -0.106,-0.203 l -0.722,-0.625 h -0.098 c 0,0.207 0,0.207 0.098,0.207 v 0.312 c 0,0.106 0,0.309 -0.309,0.621 l -0.617,0.723 -2.176,-2.172 c -0.515,-0.52 -1.031,-0.828 -1.133,-1.238 l -0.105,-0.207 c 0,-0.106 0,-0.106 0.105,-0.106 L 65.543,97.9 v -0.203 h -0.102 l -0.515,0.621 -0.106,0.207 -0.312,0.41 -0.516,0.308 z"
         style="fill:#8b0059;fill-opacity:0.847059;fill-rule:evenodd;stroke:none"
         id="path410"
         inkscape:connector-curvature="0" /><path
         d="m 71.848,98.728 c 0,0 0.101,0 0.101,-0.203 l 0.418,-0.414 0.098,-0.414 0.211,-0.207 0.308,-0.415 c 0.211,0 0.211,-0.101 0.211,-0.101 h -0.211 l -0.207,0.101 c -0.101,0.208 -0.312,0.208 -0.41,0 -0.207,0 -0.418,-0.101 -1.347,-0.824 L 69.883,95.525 C 69.367,95.009 68.848,94.7 68.543,94.493 68.332,94.388 68.332,94.388 68.332,94.181 l 0.211,-0.309 0.207,-0.207 h -0.207 l -0.418,0.723 -0.41,0.621 -0.313,0.516 c 0,0 -0.105,0 -0.105,0.207 0.105,0 0.105,-0.207 0.105,-0.207 l 0.207,-0.102 c 0.106,-0.207 0.313,0 0.516,0 0.105,0.102 0.625,0.516 1.242,0.828 l 1.137,0.824 c 0.828,0.622 1.035,0.622 1.344,0.825 0.101,0.211 0.101,0.312 0.101,0.418 l -0.101,0.207 z"
         style="fill:#8b0059;fill-opacity:0.847059;fill-rule:evenodd;stroke:none"
         id="path412"
         inkscape:connector-curvature="0" /><path
         d="m 69.988,91.181 0.207,-0.309 h 0.309 c 0.312,0.207 0.828,0.309 1.445,0.621 l 2.797,1.137 -0.418,1.035 c -0.207,0.41 -0.207,0.516 -0.516,0.516 0,0.207 -0.207,0.207 -0.207,0.207 -0.207,-0.207 -0.207,-0.207 -0.207,0 v 0.105 c 0.207,0 0.93,0.207 1.036,0.207 h 0.207 v -0.312 c 0,-0.313 0.105,-0.516 0.308,-0.828 l 1.137,-2.688 0.105,-0.308 0.204,-0.207 v -0.106 h -0.204 l -0.722,-0.41 h -0.207 c 0,0.207 0.207,0.207 0.207,0.207 h 0.097 c 0,0 0.106,0.203 0.106,0.309 0,0.207 -0.106,0.308 -0.106,0.722 l -0.304,0.723 -2.797,-1.137 C 71.848,90.357 71.332,90.251 71.02,90.048 70.816,89.841 70.609,89.841 70.609,89.736 v -0.207 l 0.207,-0.309 v -0.207 l -0.207,0.207 -0.211,0.621 v 0.41 l -0.203,0.313 -0.312,0.515 v 0.102 c 0,0 0,0.211 0.105,0 z"
         style="fill:#8b0059;fill-opacity:0.847059;fill-rule:evenodd;stroke:none"
         id="path414"
         inkscape:connector-curvature="0" /><path
         d="m 77.43,85.704 c 0.105,0 0.105,0 0.105,0.102 l -0.105,0.516 -0.207,0.312 v 0.516 l -0.106,0.621 v 0.207 l -0.203,-0.207 c 0,-0.102 0.203,-0.309 0.203,-0.309 0,-0.312 -0.203,-0.312 -0.515,-0.312 -0.207,-0.203 -0.411,-0.203 -1.446,-0.309 l -1.035,-0.207 c -0.926,-0.105 -1.656,-0.516 -1.961,-0.93 -0.312,-0.726 -0.211,-1.55 -0.211,-1.859 0.211,-0.312 0.418,-0.828 0.828,-1.348 0.621,-0.515 1.551,-0.515 2.379,-0.41 l 0.723,0.207 c 1.238,0.203 1.344,0.309 1.656,0.309 0.207,0 0.313,0 0.313,-0.106 l 0.203,-0.41 c 0,0 0,-0.105 0.207,0 v 0.207 l -0.207,0.516 -0.203,0.308 v 0.93 c 0,0 -0.106,0.106 -0.106,0 v -0.41 c 0,-0.105 -0.207,-0.313 -0.312,-0.313 -0.313,-0.207 -0.516,-0.207 -1.758,-0.308 L 74.949,82.81 c -0.828,-0.207 -1.551,-0.207 -1.965,0.207 -0.308,0.101 -0.519,0.621 -0.519,0.828 0,0.309 -0.098,0.617 0.211,1.031 0.101,0.52 0.617,0.617 1.652,0.828 l 0.934,0.102 c 1.133,0.207 1.34,0.312 1.652,0.312 0.203,0 0.309,0 0.309,-0.105 l 0.207,-0.207 z"
         style="fill:#8b0059;fill-opacity:0.847059;fill-rule:evenodd;stroke:none"
         id="path416"
         inkscape:connector-curvature="0" /><path
         d="m 77.43,79.708 0.105,-0.207 c 0.207,-0.211 0.207,-0.308 0.207,-0.726 v -1.133 l -2.996,0.203 c -0.625,0 -1.348,0 -1.551,0.105 -0.211,0 -0.418,0 -0.418,0.208 v 0.308 c 0,0.207 -0.101,0 -0.101,0 v -1.031 l -0.211,-0.313 v -1.031 h 0.211 v 0.516 c 0.101,0.207 0.308,0.308 0.519,0.308 0.203,0 0.723,0 1.446,-0.101 h 3.101 V 75.779 C 77.535,75.158 77.43,74.95 77.223,74.95 h -0.309 v -0.207 h 1.137 v 0.723 l 0.207,3 v 0.727 c 0,0.097 0.105,0.097 0.105,0.308 0,0 0,0.207 -0.105,0.207 0,0 -0.723,0.102 -0.828,0.102 h -0.207 c 0,0 0,-0.102 0.207,-0.102 z"
         style="fill:#8b0059;fill-opacity:0.847059;fill-rule:evenodd;stroke:none"
         id="path418"
         inkscape:connector-curvature="0" /><path
         d="m 72.16,73.505 v -0.418 c 0,-0.097 0.207,-0.097 0.305,-0.304 0.211,0 0.828,-0.211 1.453,-0.313 l 1.344,-0.414 c 0.929,-0.309 1.34,-0.309 1.445,-0.309 0.207,-0.211 0.41,-0.211 0.516,0.207 v 0.102 l 0.207,0.211 v -0.211 l -0.207,-0.52 v -0.41 l -0.106,-0.207 c 0,-0.308 -0.41,-1.449 -0.41,-1.652 v -0.52 h -0.105 l -0.516,0.207 -0.207,0.211 h -0.313 v 0.102 h 0.313 c 0.207,0 0.312,0 0.516,0.308 0,0.208 0.207,1.036 0.312,1.141 h -0.105 l -1.856,0.516 V 71.126 C 74.641,70.611 74.434,70.095 74.434,70.095 V 69.47 l -0.516,0.105 -0.52,0.208 -0.105,0.105 h 0.312 c 0.207,0 0.313,0.207 0.516,0.41 0,0.106 0.207,0.828 0.207,0.934 l -0.516,0.207 -0.414,0.097 -0.722,0.211 c -0.516,0.207 -0.727,0 -0.828,-0.621 0,-0.207 -0.203,-0.515 -0.203,-0.722 0,-0.309 0.203,-0.309 0.515,-0.516 0,0 0.207,-0.105 0,-0.105 -0.211,0 -0.621,0.105 -0.828,0.312 -0.207,0 -0.207,0.203 -0.207,0.309 l 0.414,1.132 v 0.211 l 0.309,0.723 v 0.52 l 0.101,0.515 c 0,0 0.211,0.102 0.211,0 z"
         style="fill:#8b0059;fill-opacity:0.847059;fill-rule:evenodd;stroke:none"
         id="path420"
         inkscape:connector-curvature="0" /><path
         d="m 74.949,66.786 c 0.207,-0.207 0.617,-0.515 0.617,-0.515 l 0.106,-0.207 v -0.211 c -0.106,0 -0.106,0 -0.106,-0.102 -0.097,-0.207 -0.304,-0.308 -0.304,-0.722 l -1.344,-2.485 -0.106,-0.515 -0.207,-0.102 c 0,-0.211 0,-0.211 -0.207,0 l -0.722,0.309 v 0.207 h 0.308 c 0,-0.207 0.309,-0.207 0.621,0.519 l 0.516,0.824 -2.789,1.243 c -0.723,0.414 -1.137,0.515 -1.449,0.722 -0.207,0 -0.305,0.102 -0.516,0 L 69.16,65.443 c 0,-0.207 0,-0.207 -0.101,-0.207 v 0.207 l 0.519,0.621 0.098,0.304 v 0.418 l 0.312,0.516 c 0,0.102 0,0.102 0.207,0.102 v -0.102 l -0.207,-0.207 v -0.207 c 0,0 0.207,-0.102 0.41,-0.309 0.211,-0.211 0.727,-0.308 1.45,-0.726 l 2.586,-1.238 0.515,0.929 c 0.207,0.309 0.207,0.52 0.207,0.52 v 0.304 c -0.207,0 -0.207,0.211 -0.207,0.211 h -0.203 c 0,0 0,0.207 0.203,0.207 z"
         style="fill:#8b0059;fill-opacity:0.847059;fill-rule:evenodd;stroke:none"
         id="path422"
         inkscape:connector-curvature="0" /><path
         d="m 22.949,97.697 0.106,0.203 0.515,0.418 h 0.207 v 0.207 l 0.618,0.515 v 0.203 h -0.207 c 0,-0.203 -0.098,-0.203 -0.309,-0.308 -0.102,0 -0.309,0.105 -0.617,0.414 l -2.274,2.273 h 0.305 c 0.516,0 1.449,-0.203 2.277,-0.203 h 3.41 v 0.203 l -0.101,0.106 -3.102,3.308 c -0.418,0.411 -0.418,0.516 -0.418,0.723 l 0.211,0.207 c 0.207,0 0.207,0.106 0.207,0.106 -0.207,0 -0.207,0 -0.207,-0.106 l -0.515,-0.414 -0.313,-0.309 -0.515,-0.312 v -0.207 h 0.207 c 0,0 0.105,0.207 0.308,0.207 0.207,0.105 0.313,0 0.52,-0.41 l 2.476,-2.274 h -0.926 l -1.55,0.203 c -1.453,0 -3.309,0.208 -3.309,0.208 h -0.312 c 0,-0.208 0,-0.208 0.101,-0.411 l 3,-3.207 c 0.313,-0.515 0.52,-0.722 0.52,-0.828 -0.207,-0.101 -0.207,-0.101 -0.313,-0.312 z"
         style="fill:#8b0059;fill-opacity:0.847059;fill-rule:evenodd;stroke:none"
         id="path424"
         inkscape:connector-curvature="0" /><path
         d="m 21.914,96.454 h -0.105 l -0.204,-0.41 c -0.101,-0.105 -0.312,-0.105 -0.519,0 -0.309,0.207 -0.828,0.516 -1.344,0.93 l -1.035,0.723 c -1.031,0.515 -1.238,0.621 -1.34,0.828 -0.211,0.203 -0.211,0.41 -0.211,0.515 l 0.211,0.203 v 0.106 c -0.211,0 -0.211,0 -0.211,-0.106 l -0.304,-0.515 -0.106,-0.203 -0.41,-0.313 -0.313,-0.515 V 97.49 h 0.207 c 0,0.207 0.106,0.207 0.106,0.207 0.203,0.203 0.41,0.203 0.516,0 0.101,0 0.304,-0.207 1.132,-0.723 l 1.141,-0.723 c 0.617,-0.519 1.133,-0.828 1.344,-1.035 0.101,-0.207 0.308,-0.312 0.101,-0.312 v -0.411 h -0.101 c 0,0 0,-0.105 0.101,-0.105 0,0 0,0.105 0.207,0.105 l 0.211,0.516 0.305,0.414 0.211,0.102 0.41,0.726 z"
         style="fill:#8b0059;fill-opacity:0.847059;fill-rule:evenodd;stroke:none"
         id="path426"
         inkscape:connector-curvature="0" /><path
         d="m 13.441,77.122 h -0.207 l -2.277,-0.207 v 0.207 c 0,0 0,0.207 -0.102,0.313 0,0.41 0.102,0.515 0.313,0.824 0.305,0.207 0.617,0.414 0.926,0.414 0.828,0 1.14,-0.207 1.14,-0.414 0.207,-0.101 0.207,-0.309 0.207,-0.414 z m 2.789,-1.343 v 1.136 l -0.207,0.93 v 0.105 -0.105 l -0.105,-0.41 c 0,-0.106 -0.207,-0.106 -0.41,-0.313 H 13.75 v 0.723 c 0,0 0,0.105 0.207,0.105 l 0.41,0.309 0.516,0.414 c 0.519,0.52 0.828,0.828 1.035,1.137 0.105,0.207 0.105,0.308 0.105,0.621 v 0.828 l -0.105,0.207 v -0.312 c 0,-0.207 -0.207,-0.516 -0.516,-0.829 -0.414,-0.515 -1.035,-0.824 -1.652,-1.55 l -0.309,-0.102 v 0.102 c -0.722,0.515 -1.14,0.726 -1.656,0.726 -0.519,0 -0.828,-0.308 -0.93,-0.515 -0.417,-0.313 -0.417,-1.036 -0.417,-1.344 l 0.21,-1.035 v -1.344 c 0,0.203 0.207,0.203 0.207,0.203 -0.207,0.106 0,0.313 0,0.313 0,0.207 0.102,0.312 0.313,0.312 h 1.551 l 1.34,0.203 h 1.449 c 0.203,0 0.41,-0.203 0.515,-0.203 v -0.519 h 0.207 z"
         style="fill:#8b0059;fill-opacity:0.847059;fill-rule:evenodd;stroke:none"
         id="path428"
         inkscape:connector-curvature="0" /><path
         d="m 14.988,70.404 -1.859,0.207 h -0.207 0.207 l 1.551,1.136 z m 2.793,-1.239 -0.312,0.618 v 0.105 l -0.102,0.723 c 0,0.105 0,0.105 -0.211,0.105 v -0.105 c 0.211,-0.313 0,-0.313 0,-0.313 -0.203,-0.203 -0.304,-0.203 -0.41,-0.203 l -1.238,0.203 c 0,0 -0.106,0 -0.106,0.106 l -0.414,1.55 v 0.102 l 1.348,0.934 h 0.41 v 0.097 l -0.41,1.348 c 0,0.308 0,0.308 -0.106,0.308 v -0.308 c 0,-0.102 0,-0.414 -0.722,-0.828 l -2.379,-1.86 -1.445,-1.136 c -0.211,0 -0.211,-0.207 -0.211,-0.207 0,-0.106 0.211,-0.106 0.312,-0.106 l 5.067,-0.723 c 0.101,0 0.515,0 0.617,-0.105 v -0.723 c 0.207,-0.308 0,-0.617 -0.102,-1.132 -0.211,-0.52 -0.828,-2.586 -1.137,-2.895 -0.312,0.203 -1.863,0.723 -2.171,0.723 -0.309,0.101 -0.618,0.308 -0.825,0.41 -0.105,0.211 -0.105,0.418 -0.105,0.418 l -0.207,0.097 v -0.097 l 0.312,-0.828 0.411,-0.723 h 0.105 c 0,0.203 0,0.203 0.207,0.203 0,0.106 0.203,0 0.41,0 h 0.207 c 0.106,-0.203 0.828,-0.308 1.344,-0.515 l 0.828,-0.208 -0.41,-0.207 c -0.934,-0.414 -1.141,-0.515 -1.453,-0.515 -0.203,-0.211 -0.309,-0.211 -0.516,0 v 0.101 c 0,0 0,0.207 -0.207,0.207 v -0.308 l 0.414,-0.414 0.106,-0.313 0.203,-0.308 0.105,-0.727 c 0.207,0 0.207,-0.098 0.207,-0.098 0.207,0.098 0.207,0.098 0,0.098 v 0.313 c -0.207,0.207 0,0.414 0.207,0.515 0.106,0 0.309,0.207 1.344,0.723 l 1.238,0.519 c 0.52,0.207 1.141,0.622 1.348,0.622 0.309,0.207 0.41,0.207 0.41,0 L 19.953,64.2 h 0.207 v 0.208 l -0.418,0.515 -0.101,0.313 -0.106,0.207 -0.41,0.621 v 0.207 H 19.02 v -0.207 l 0.105,-0.313 c 0,-0.207 0,-0.308 -0.105,-0.308 -0.313,-0.207 -0.829,-0.52 -1.551,-0.723 l -0.516,-0.312 h -0.101 0.101 c 0.203,0.312 1.031,2.378 1.238,2.894 0,0.313 0.106,0.617 0,0.93 l -0.207,0.515 c -0.203,0 -0.203,0.418 -0.203,0.418 z"
         style="fill:#8b0059;fill-opacity:0.847059;fill-rule:evenodd;stroke:none"
         id="path430"
         inkscape:connector-curvature="0" /><path
         d="m 25.328,55.724 -0.621,-1.859 -0.93,0.824 v 0.207 l 1.551,0.929 z m 0,-5.066 -0.312,0.203 c 0,0.211 -0.204,0.312 0,1.035 l 1.035,3 0.515,1.652 v 0.313 c 0,0.203 -0.203,0 -0.41,0 L 21.809,54.38 C 21.504,54.173 21.086,54.068 20.988,54.173 L 20.777,54.38 H 20.57 v -0.207 l 0.723,-0.308 v -0.207 l 0.621,-0.418 h 0.106 v 0.105 h -0.106 c -0.105,0.102 -0.105,0.102 0,0.313 0,0 0.106,0.207 0.313,0.41 l 1.035,0.414 1.238,-1.035 -0.41,-1.551 v -0.207 h -0.211 v 0.207 c -0.102,-0.207 0,-0.207 0,-0.207 v -0.203 l 1.137,-0.828 c 0.207,-0.102 0.207,-0.102 0.312,-0.102 z"
         style="fill:#8b0059;fill-opacity:0.847059;fill-rule:evenodd;stroke:none"
         id="path432"
         inkscape:connector-curvature="0" /><path
         d="m 32.254,53.24 0.105,-0.204 0.516,-0.207 0.309,-0.207 0.726,-0.211 c 0,0 0.102,0 0,-0.203 h -0.211 l -0.101,0.203 c -0.203,0 -0.414,-0.203 -0.516,-0.515 L 30.91,47.661 c 0,0 -0.101,-0.207 -0.312,-0.207 0,0.207 0,0.207 -0.207,0.305 l -0.516,1.762 -0.313,1.34 c -0.304,0.828 -0.617,1.656 -0.617,2.175 L 28.84,53.24 27.496,50.556 c -0.207,-0.52 -0.305,-0.934 -0.207,-0.934 0.207,-0.101 0.207,-0.101 0.313,-0.312 h 0.207 c 0,0 0,-0.203 -0.207,-0.203 l -0.106,0.203 -0.617,0.312 h -0.207 v 0.207 l -0.621,0.207 -0.207,0.102 h 0.207 c 0.105,0 0.105,0 0.312,-0.102 0.203,0 0.309,0.102 0.617,0.825 l 1.965,3.828 c 0.207,0 0.207,0.207 0.207,0.207 0,0 0.106,0 0.106,-0.414 h 0.207 c 0,0 0.308,-1.653 0.828,-3.102 l 0.516,-1.551 c 0,0 0.101,-0.519 0.101,-0.722 h 0.203 v -0.102 0.102 l 1.453,2.894 c 0,0.41 0.098,0.516 0.098,0.516 0,0.105 -0.098,0.105 -0.098,0.312 0,0 -0.207,0.207 -0.312,0.207 0,0 -0.207,0 0,0.204 z"
         style="fill:#8b0059;fill-opacity:0.847059;fill-rule:evenodd;stroke:none"
         id="path434"
         inkscape:connector-curvature="0" /><path
         d="m 40.113,50.345 -0.211,0.211 c -0.207,0 -0.304,-0.211 -0.41,-0.727 l -1.347,-4.343 v -0.098 l -0.204,-0.211 v 0.211 c 0,0 -0.207,0 -0.207,0.098 l -0.722,1.453 -0.621,1.238 c -0.52,0.828 -1.036,1.652 -1.243,1.961 l -0.203,0.207 -0.519,-2.996 c -0.211,-0.516 -0.211,-0.723 0,-0.828 0,0 0.101,0 0.207,-0.207 0,0 0.207,0 0,0 0,-0.106 0,-0.106 -0.106,0 l -0.617,0.207 h -0.312 l -0.723,0.105 -0.211,0.207 h 0.52 c 0.211,0 0.414,0.106 0.515,0.828 l 1.246,4.235 c 0,0.105 0,0.105 0.203,0.105 l 0.207,-0.105 c 0.106,-0.41 0.829,-1.758 1.657,-3.102 l 0.617,-1.34 0.312,-0.621 h 0.204 l 0.828,3.203 v 0.52 c 0,0 0,0.102 -0.203,0.102 0,0.203 -0.106,0.203 -0.313,0.203 -0.207,0 -0.207,0 -0.207,0.211 h 0.414 l 0.414,-0.211 0.414,-0.203 h 0.106 l 0.515,-0.102 h 0.102 c 0,0 0,-0.211 -0.102,-0.211 z"
         style="fill:#8b0059;fill-opacity:0.847059;fill-rule:evenodd;stroke:none"
         id="path436"
         inkscape:connector-curvature="0" /><path
         d="m 53.965,105.759 h -0.106 l -0.722,0.313 h -0.313 l -0.617,0.41 c -0.207,0 -0.207,0 -0.207,0.105 h 0.207 c 0,0 0.207,-0.105 0.313,-0.105 0.097,0 0.304,0.105 0.515,0.828 l 1.653,3.93 c 0.105,0.207 0.105,0.207 0.308,0.207 v -0.207 l 0.106,-0.106 c 0,0 0.617,-1.551 1.136,-2.996 l 0.723,-1.551 0.309,-0.621 1.14,3.102 c 0,0.203 0.102,0.414 0.102,0.414 0,0.101 0,0.101 -0.102,0.308 0,0 -0.207,0.106 -0.312,0.106 h -0.203 v 0.203 h 0.308 l 0.52,-0.309 h 0.304 l 0.211,-0.207 0.516,-0.101 c 0,0 0.101,0 0.101,-0.211 h -0.312 c -0.305,0.211 -0.305,0 -0.516,-0.41 l -1.757,-4.34 -0.204,-0.106 c -0.105,0 -0.105,0.106 -0.312,0.106 l -0.617,1.754 -0.516,1.14 c -0.312,0.825 -0.625,1.653 -0.828,2.168 l -0.105,0.207 -1.036,-2.793 c -0.312,-0.515 -0.312,-0.722 -0.207,-0.925 0.207,-0.106 0.414,-0.106 0.414,-0.106 z"
         style="fill:#8b0059;fill-opacity:0.847059;fill-rule:evenodd;stroke:none"
         id="path438"
         inkscape:connector-curvature="0" /></g></g></svg>