<?xml version="1.0" encoding="UTF-8" standalone="no"?>
<!-- Created with Inkscape (http://www.inkscape.org/) -->

<svg
   xmlns:dc="http://purl.org/dc/elements/1.1/"
   xmlns:cc="http://creativecommons.org/ns#"
   xmlns:rdf="http://www.w3.org/1999/02/22-rdf-syntax-ns#"
   xmlns:svg="http://www.w3.org/2000/svg"
   xmlns="http://www.w3.org/2000/svg"
   xmlns:sodipodi="http://sodipodi.sourceforge.net/DTD/sodipodi-0.dtd"
   xmlns:inkscape="http://www.inkscape.org/namespaces/inkscape"
   version="1.1"
   id="svg2"
   xml:space="preserve"
   width="150.38721"
   height="150.38721"
   viewBox="0 0 150.38721 150.38721"
   sodipodi:docname="KTH.svg"
   inkscape:version="0.92.3 (2405546, 2018-03-11)"><metadata
     id="metadata8"><rdf:RDF><cc:Work
         rdf:about=""><dc:format>image/svg+xml</dc:format><dc:type
           rdf:resource="http://purl.org/dc/dcmitype/StillImage" /><dc:title></dc:title></cc:Work></rdf:RDF></metadata><defs
     id="defs6"><clipPath
       clipPathUnits="userSpaceOnUse"
       id="clipPath24"><path
         d="m 10,6 h 93 V 109 H 10 Z"
         id="path22"
         inkscape:connector-curvature="0" /></clipPath></defs><sodipodi:namedview
     pagecolor="#ffffff"
     bordercolor="#666666"
     borderopacity="1"
     objecttolerance="10"
     gridtolerance="10"
     guidetolerance="10"
     inkscape:pageopacity="0"
     inkscape:pageshadow="2"
     inkscape:window-width="751"
     inkscape:window-height="480"
     id="namedview4"
     showgrid="false"
     inkscape:zoom="1.5692824"
     inkscape:cx="75.193604"
     inkscape:cy="75.193604"
     inkscape:window-x="0"
     inkscape:window-y="0"
     inkscape:window-maximized="0"
     inkscape:current-layer="g10" /><g
     id="g10"
     inkscape:groupmode="layer"
     inkscape:label="KTH"
     transform="matrix(1.3333333,0,0,-1.3333333,0,150.38721)"><g
       id="g12"><path
         d="M 0,112.79 H 112.789 V 0.001 L 0,0.001 Z"
         style="fill:#1969bc;fill-opacity:1;fill-rule:nonzero;stroke:none"
         id="path14"
         inkscape:connector-curvature="0" /><g
         id="g16"
         transform="translate(0,-0.209595)"><g
           id="g18"><g
             id="g20"
             clip-path="url(#clipPath24)"><g
               id="g26"><path
                 d="m 56.395,9.148 c -0.364,0.399 -0.762,0.844 -1.168,1.301 0.386,0.438 0.785,0.887 1.168,1.317 0.386,-0.43 0.781,-0.879 1.171,-1.317 -0.41,-0.457 -0.808,-0.902 -1.171,-1.301 m 2.144,1.301 c 0.984,1.113 2.035,2.297 2.77,3.031 1.453,1.454 2.953,1.438 2.953,1.438 0,0 -1.715,0.844 -3.52,-0.965 -0.488,-0.484 -1.578,-1.711 -2.691,-2.961 -0.403,0.453 -0.801,0.899 -1.168,1.313 0.41,0.449 0.789,0.855 1.109,1.175 1.453,1.454 2.957,1.438 2.957,1.438 0,0 -1.715,0.844 -3.519,-0.965 -0.231,-0.226 -0.598,-0.625 -1.035,-1.109 -0.438,0.484 -0.805,0.883 -1.032,1.109 -1.808,1.809 -3.519,0.965 -3.519,0.965 0,0 1.496,0.016 2.953,-1.438 0.32,-0.32 0.703,-0.726 1.113,-1.175 -0.371,-0.414 -0.769,-0.86 -1.172,-1.313 -1.113,1.25 -2.203,2.477 -2.687,2.961 -1.809,1.809 -3.524,0.965 -3.524,0.965 0,0 1.5,0.016 2.953,-1.438 0.735,-0.734 1.79,-1.918 2.77,-3.031 C 53.324,9.41 52.438,8.43 51.934,7.926 50.727,6.715 49.316,6.625 49.316,6.625 c 0,0 1.516,-0.887 3.582,1.223 0.383,0.39 1.067,1.168 1.84,2.047 0.422,-0.477 0.817,-0.926 1.149,-1.297 -0.246,-0.27 -0.469,-0.5 -0.641,-0.672 -1.207,-1.211 -2.617,-1.301 -2.617,-1.301 0,0 1.516,-0.887 3.582,1.223 0.055,0.058 0.117,0.121 0.184,0.191 0.066,-0.07 0.128,-0.133 0.183,-0.191 2.067,-2.11 3.582,-1.223 3.582,-1.223 0,0 -1.41,0.09 -2.617,1.301 -0.172,0.172 -0.391,0.402 -0.641,0.672 0.332,0.371 0.731,0.82 1.149,1.297 0.773,-0.879 1.457,-1.657 1.84,-2.047 2.066,-2.11 3.582,-1.223 3.582,-1.223 0,0 -1.411,0.09 -2.618,1.301 -0.503,0.504 -1.39,1.484 -2.316,2.523"
                 style="fill:#ffffff;fill-opacity:1;fill-rule:nonzero;stroke:none"
                 id="path28"
                 inkscape:connector-curvature="0" /><path
                 d="m 19.277,75.582 c 0.075,0.145 0.153,0.211 0.203,0.227 0.059,0.019 0.102,0.046 0.137,0.086 0.047,-0.012 0.102,-0.012 0.16,0.007 0.246,0.075 0.946,-0.437 1.192,-1.214 0.078,-0.254 0.113,-0.516 0.101,-0.766 -0.172,-0.129 -0.414,-0.266 -0.718,-0.363 -0.243,-0.075 -0.493,-0.114 -0.731,-0.114 -0.027,0 -0.047,0.004 -0.07,0.004 -0.153,0.199 -0.278,0.426 -0.356,0.684 -0.175,0.558 -0.082,1.144 0.082,1.449 m 2.481,-1.859 c 0.031,-0.207 -0.004,-0.418 -0.106,-0.61 -0.172,-0.324 -0.511,-0.586 -0.937,-0.718 -0.188,-0.059 -0.371,-0.09 -0.555,-0.09 -0.5,0 -0.887,0.218 -1.062,0.59 0.195,-0.051 0.398,-0.059 0.523,-0.059 0.297,0 0.613,0.047 0.91,0.141 0.508,0.16 0.965,0.441 1.227,0.746 m -3.297,-0.875 c 0.219,-0.711 0.871,-1.157 1.699,-1.157 0.242,0 0.485,0.039 0.727,0.114 0.027,-0.047 0.062,-0.098 0.109,-0.16 0.129,-0.172 0.274,-0.317 0.438,-0.426 0.05,-0.039 0.113,-0.055 0.171,-0.055 0.098,0 0.196,0.047 0.254,0.133 0.094,0.141 0.059,0.328 -0.082,0.426 -0.105,0.074 -0.203,0.168 -0.289,0.285 -0.015,0.023 -0.031,0.039 -0.043,0.058 0.325,0.196 0.59,0.454 0.75,0.762 0.203,0.387 0.243,0.813 0.114,1.227 -0.125,0.394 -0.45,0.519 -0.621,0.531 -0.02,0 -0.04,-0.012 -0.059,-0.012 -0.02,0.098 -0.047,0.199 -0.078,0.297 -0.297,0.945 -1.149,1.703 -1.797,1.645 -0.074,0.062 -0.203,0.144 -0.359,0.089 -0.157,-0.046 -0.219,-0.171 -0.247,-0.277 -0.16,-0.094 -0.304,-0.25 -0.414,-0.461 -0.277,-0.523 -0.324,-1.277 -0.125,-1.918 0.032,-0.097 0.067,-0.191 0.106,-0.285 -0.016,-0.012 -0.035,-0.012 -0.051,-0.027 -0.133,-0.106 -0.328,-0.391 -0.203,-0.789"
                 style="fill:#ffffff;fill-opacity:1;fill-rule:nonzero;stroke:none"
                 id="path30"
                 inkscape:connector-curvature="0" /><path
                 d="m 24.371,69.773 c -0.012,0.399 0.098,0.762 0.297,1.024 0.121,0.156 0.32,0.336 0.629,0.391 -0.199,-0.344 -0.328,-0.879 -0.317,-1.399 0.012,-0.512 0.153,-1.043 0.383,-1.387 -0.566,0.067 -0.976,0.625 -0.992,1.371 m 2.094,0.977 c 0.805,0.027 1.523,-0.484 1.531,-0.73 0,-0.063 0.016,-0.118 0.039,-0.165 C 28.012,69.812 28,69.758 28,69.695 28.004,69.645 27.965,69.551 27.852,69.434 27.613,69.18 27.09,68.902 26.504,68.891 26.238,68.883 25.977,68.926 25.746,69 c -0.078,0.203 -0.144,0.477 -0.152,0.801 -0.008,0.32 0.043,0.59 0.109,0.793 0.231,0.09 0.488,0.148 0.762,0.156 m -0.942,-2.965 c 0.415,0.008 0.625,0.281 0.684,0.445 0.008,0.02 0.004,0.04 0.008,0.059 0.078,-0.008 0.156,-0.012 0.234,-0.012 0.024,0 0.047,0 0.071,0 0.668,0.016 1.367,0.305 1.777,0.735 0.164,0.172 0.265,0.355 0.301,0.539 0.082,0.051 0.191,0.148 0.187,0.312 0,0.164 -0.105,0.262 -0.199,0.321 -0.156,0.636 -1.133,1.199 -2.137,1.175 -0.101,0 -0.203,-0.007 -0.304,-0.019 -0.004,0.019 0,0.039 -0.012,0.058 -0.063,0.157 -0.274,0.418 -0.695,0.418 h -0.004 c -0.496,-0.011 -0.942,-0.242 -1.25,-0.644 -0.176,-0.231 -0.293,-0.508 -0.36,-0.809 -0.019,0.008 -0.039,0.012 -0.066,0.02 -0.137,0.043 -0.258,0.105 -0.367,0.187 -0.137,0.098 -0.329,0.071 -0.43,-0.066 -0.098,-0.137 -0.07,-0.328 0.066,-0.426 0.164,-0.121 0.344,-0.215 0.543,-0.277 0.078,-0.024 0.137,-0.039 0.188,-0.051 0.031,-1.141 0.754,-1.965 1.722,-1.965 0.004,0 0.04,0 0.043,0"
                 style="fill:#ffffff;fill-opacity:1;fill-rule:nonzero;stroke:none"
                 id="path32"
                 inkscape:connector-curvature="0" /><path
                 d="m 18.43,51.695 c -0.207,0.336 -0.293,0.707 -0.25,1.035 0.027,0.196 0.109,0.454 0.351,0.653 -0.004,-0.403 0.153,-0.926 0.422,-1.375 0.277,-0.457 0.664,-0.832 1.02,-1.012 -0.52,-0.223 -1.172,0.078 -1.543,0.699 m 1.332,1.883 c 0.699,0.418 1.566,0.336 1.691,0.133 0.031,-0.059 0.074,-0.098 0.117,-0.125 0.004,-0.051 0.016,-0.106 0.051,-0.16 0.027,-0.043 0.039,-0.145 0,-0.301 -0.082,-0.336 -0.398,-0.84 -0.902,-1.141 -0.227,-0.136 -0.473,-0.23 -0.715,-0.281 -0.164,0.137 -0.359,0.34 -0.527,0.617 -0.165,0.278 -0.254,0.543 -0.297,0.754 0.152,0.192 0.351,0.367 0.582,0.504 m 2.453,-0.601 c 0.058,0.234 0.058,0.445 -0.004,0.621 0.043,0.086 0.09,0.226 0.004,0.367 -0.082,0.14 -0.219,0.172 -0.328,0.176 -0.449,0.472 -1.59,0.472 -2.442,-0.039 -0.086,-0.051 -0.172,-0.11 -0.254,-0.172 -0.011,0.019 -0.019,0.039 -0.039,0.05 -0.027,0.024 -0.179,0.133 -0.406,0.133 -0.141,0 -0.277,-0.043 -0.406,-0.121 -0.426,-0.254 -0.699,-0.676 -0.766,-1.18 -0.039,-0.285 -0.004,-0.582 0.086,-0.878 -0.019,-0.004 -0.039,-0.008 -0.066,-0.016 -0.141,-0.027 -0.278,-0.035 -0.41,-0.02 -0.164,0.02 -0.321,-0.101 -0.34,-0.269 -0.02,-0.168 0.101,-0.32 0.269,-0.34 0.071,-0.008 0.141,-0.012 0.211,-0.012 0.129,0 0.262,0.016 0.395,0.043 0.082,0.016 0.136,0.032 0.191,0.047 0.402,-0.664 1.035,-1.058 1.688,-1.058 0.289,0 0.566,0.078 0.82,0.23 0.355,0.211 0.402,0.555 0.371,0.727 -0.004,0.019 -0.016,0.035 -0.023,0.05 0.093,0.043 0.183,0.09 0.269,0.145 0.574,0.348 1.039,0.941 1.18,1.516"
                 style="fill:#ffffff;fill-opacity:1;fill-rule:nonzero;stroke:none"
                 id="path34"
                 inkscape:connector-curvature="0" /><path
                 d="m 11.375,54.379 c 0.043,0.047 0.066,0.094 0.078,0.141 0.051,0.019 0.094,0.046 0.137,0.093 0.172,0.184 1.039,0.082 1.633,-0.476 0.195,-0.184 0.351,-0.395 0.465,-0.614 -0.086,-0.199 -0.231,-0.437 -0.45,-0.671 -0.218,-0.235 -0.453,-0.391 -0.656,-0.493 -0.223,0.098 -0.437,0.243 -0.633,0.426 -0.426,0.399 -0.629,0.953 -0.64,1.301 -0.004,0.16 0.031,0.254 0.066,0.293 m 3.219,-1.277 c 0.011,-0.368 -0.16,-0.762 -0.465,-1.086 -0.317,-0.34 -0.715,-0.536 -1.094,-0.536 -0.203,0 -0.394,0.063 -0.558,0.176 0.386,0.102 0.847,0.395 1.207,0.778 0.363,0.386 0.621,0.859 0.699,1.25 0.133,-0.164 0.203,-0.364 0.211,-0.582 m -3.063,-0.766 c 0.074,-0.07 0.153,-0.137 0.235,-0.195 -0.012,-0.02 -0.028,-0.032 -0.036,-0.047 -0.062,-0.16 -0.089,-0.508 0.211,-0.789 0.301,-0.285 0.68,-0.438 1.094,-0.438 0.543,0 1.102,0.266 1.531,0.719 0.051,-0.027 0.102,-0.051 0.176,-0.086 0.188,-0.086 0.383,-0.137 0.586,-0.156 0.012,0 0.02,-0.004 0.031,-0.004 0.157,0 0.289,0.121 0.305,0.277 0.016,0.168 -0.105,0.317 -0.273,0.336 -0.137,0.012 -0.27,0.047 -0.395,0.106 -0.027,0.011 -0.043,0.019 -0.062,0.027 0.183,0.328 0.281,0.687 0.269,1.031 -0.012,0.438 -0.187,0.828 -0.504,1.125 -0.187,0.18 -0.387,0.219 -0.519,0.219 -0.145,0 -0.25,-0.043 -0.278,-0.059 -0.019,-0.007 -0.031,-0.027 -0.05,-0.039 -0.067,0.075 -0.137,0.153 -0.211,0.223 -0.719,0.672 -1.821,0.914 -2.371,0.547 -0.098,0.019 -0.25,0.027 -0.36,-0.098 -0.113,-0.117 -0.101,-0.258 -0.078,-0.363 -0.094,-0.16 -0.141,-0.367 -0.133,-0.606 0.016,-0.593 0.344,-1.273 0.832,-1.73"
                 style="fill:#ffffff;fill-opacity:1;fill-rule:nonzero;stroke:none"
                 id="path36"
                 inkscape:connector-curvature="0" /><path
                 d="m 22.141,32.867 c -0.559,0.324 -0.961,0.938 -0.727,1.528 0.191,-0.352 0.574,-0.731 1.035,-0.997 0.446,-0.257 0.981,-0.414 1.379,-0.394 -0.344,-0.442 -1.062,-0.5 -1.687,-0.137 m 0.257,2.297 c 0.407,0.699 1.204,1.051 1.414,0.93 0.059,-0.035 0.114,-0.051 0.165,-0.051 0.027,-0.043 0.066,-0.082 0.121,-0.113 0.043,-0.028 0.105,-0.11 0.144,-0.262 0.09,-0.34 0.055,-0.93 -0.234,-1.438 -0.133,-0.226 -0.297,-0.421 -0.481,-0.582 -0.218,0.04 -0.496,0.118 -0.773,0.278 -0.277,0.164 -0.484,0.351 -0.625,0.512 0.043,0.242 0.133,0.492 0.269,0.726 m 2.438,0.66 c -0.063,0.231 -0.168,0.414 -0.305,0.539 -0.004,0.098 -0.031,0.242 -0.168,0.321 -0.144,0.086 -0.281,0.046 -0.379,0 -0.625,0.195 -1.621,-0.356 -2.117,-1.215 -0.051,-0.09 -0.097,-0.18 -0.14,-0.274 -0.02,0.008 -0.036,0.024 -0.059,0.024 -0.016,0.004 -0.066,0.008 -0.082,0.008 -0.258,0 -0.496,-0.145 -0.633,-0.391 -0.402,-0.691 -0.215,-1.531 0.402,-2.129 -0.015,-0.012 -0.031,-0.027 -0.054,-0.047 -0.106,-0.094 -0.219,-0.164 -0.348,-0.215 -0.156,-0.066 -0.23,-0.246 -0.164,-0.398 0.047,-0.121 0.16,-0.192 0.281,-0.192 0.039,0 0.078,0.008 0.118,0.024 0.187,0.074 0.359,0.183 0.515,0.32 0.059,0.051 0.106,0.09 0.145,0.133 0.367,-0.211 0.761,-0.32 1.144,-0.32 0.625,0 1.156,0.293 1.449,0.808 0.207,0.356 0.082,0.68 -0.023,0.813 -0.016,0.015 -0.031,0.023 -0.047,0.039 0.059,0.082 0.113,0.164 0.164,0.254 0.336,0.582 0.453,1.324 0.301,1.898"
                 style="fill:#ffffff;fill-opacity:1;fill-rule:nonzero;stroke:none"
                 id="path38"
                 inkscape:connector-curvature="0" /><path
                 d="m 18.207,31.137 c -0.168,-0.672 -0.637,-1.125 -1.168,-1.125 -0.035,0 -0.07,0.004 -0.105,0.008 0.304,0.289 0.558,0.789 0.679,1.265 0.125,0.508 0.121,1.055 0,1.438 0.289,-0.121 0.446,-0.344 0.528,-0.52 0.14,-0.305 0.164,-0.683 0.066,-1.066 m -3.473,0.433 c -0.082,0.141 -0.097,0.239 -0.086,0.289 0.016,0.059 0.012,0.114 0,0.164 0.036,0.036 0.063,0.082 0.075,0.145 0.062,0.246 0.871,0.578 1.656,0.383 0.266,-0.071 0.504,-0.184 0.707,-0.321 0.019,-0.214 0.012,-0.488 -0.066,-0.796 -0.079,-0.317 -0.204,-0.571 -0.321,-0.746 -0.246,-0.024 -0.508,-0.008 -0.769,0.058 -0.567,0.141 -1.016,0.527 -1.196,0.824 m 5.004,-0.027 c -0.066,0.152 -0.25,0.223 -0.402,0.152 -0.121,-0.054 -0.254,-0.086 -0.395,-0.101 -0.031,0 -0.05,-0.004 -0.07,-0.004 0,0.308 -0.055,0.605 -0.176,0.867 -0.211,0.461 -0.593,0.785 -1.074,0.906 -0.355,0.086 -0.664,-0.093 -0.777,-0.254 -0.012,-0.015 -0.012,-0.039 -0.024,-0.058 -0.093,0.035 -0.191,0.066 -0.293,0.094 -0.953,0.238 -2.035,-0.09 -2.339,-0.676 -0.09,-0.031 -0.227,-0.102 -0.262,-0.262 -0.043,-0.156 0.035,-0.273 0.105,-0.355 -0.004,-0.184 0.055,-0.387 0.18,-0.594 0.301,-0.508 0.918,-0.942 1.57,-1.106 0.098,-0.023 0.199,-0.043 0.301,-0.058 -0.004,-0.02 -0.012,-0.039 -0.008,-0.059 0.024,-0.172 0.168,-0.484 0.567,-0.586 0.132,-0.031 0.265,-0.051 0.398,-0.051 0.813,0 1.52,0.633 1.758,1.579 0,0 0.004,-0.004 0.004,-0.004 0.058,0 0.117,0.007 0.191,0.011 0.211,0.02 0.41,0.071 0.594,0.153 0.152,0.07 0.223,0.25 0.152,0.406"
                 style="fill:#ffffff;fill-opacity:1;fill-rule:nonzero;stroke:none"
                 id="path40"
                 inkscape:connector-curvature="0" /><path
                 d="m 33.211,19.625 c 0.34,-0.215 0.867,-0.359 1.426,-0.367 0.519,0 1.027,0.129 1.359,0.332 -0.094,-0.621 -0.738,-0.942 -1.375,-0.942 H 34.59 c -0.395,0.004 -0.754,0.125 -1.012,0.336 -0.148,0.125 -0.324,0.332 -0.367,0.641 m 1.266,2.656 c 0.066,-0.008 0.121,0.012 0.164,0.035 0.047,-0.027 0.097,-0.043 0.164,-0.043 0.05,0 0.14,-0.043 0.254,-0.156 0.242,-0.25 0.503,-0.785 0.492,-1.367 -0.004,-0.27 -0.059,-0.527 -0.145,-0.758 -0.199,-0.066 -0.472,-0.121 -0.793,-0.121 h -0.004 c -0.316,0.004 -0.586,0.067 -0.789,0.141 -0.082,0.234 -0.129,0.492 -0.129,0.765 0.016,0.809 0.539,1.504 0.786,1.504 m 0.117,-4.246 h 0.027 c 1.129,0 1.992,0.731 2,1.692 0.008,0.418 -0.262,0.636 -0.422,0.699 -0.015,0.008 -0.035,0.008 -0.054,0.012 0.011,0.097 0.019,0.199 0.019,0.304 0.012,0.668 -0.254,1.379 -0.668,1.801 -0.164,0.172 -0.344,0.281 -0.527,0.324 -0.051,0.082 -0.145,0.195 -0.313,0.195 -0.164,0.004 -0.258,-0.097 -0.32,-0.187 -0.641,-0.133 -1.238,-1.098 -1.254,-2.09 0,-0.105 0.004,-0.207 0.012,-0.308 -0.024,-0.004 -0.043,0 -0.063,-0.008 -0.164,-0.059 -0.437,-0.27 -0.441,-0.684 -0.004,-0.496 0.207,-0.949 0.601,-1.273 0.219,-0.184 0.493,-0.309 0.793,-0.387 -0.007,-0.023 -0.015,-0.039 -0.023,-0.07 -0.051,-0.133 -0.113,-0.25 -0.199,-0.356 -0.106,-0.129 -0.082,-0.324 0.047,-0.429 0.058,-0.047 0.125,-0.067 0.191,-0.067 0.09,0 0.18,0.039 0.238,0.113 0.129,0.157 0.227,0.336 0.297,0.536 0.027,0.074 0.047,0.128 0.059,0.183"
                 style="fill:#ffffff;fill-opacity:1;fill-rule:nonzero;stroke:none"
                 id="path42"
                 inkscape:connector-curvature="0" /><path
                 d="m 31.996,13.801 c -0.105,-0.188 -0.266,-0.332 -0.457,-0.414 0.113,0.383 0.106,0.929 -0.027,1.433 -0.133,0.473 -0.399,0.969 -0.707,1.254 0.574,0.071 1.101,-0.383 1.293,-1.09 0.117,-0.433 0.082,-0.863 -0.102,-1.183 m -1.691,-0.27 c -0.563,-0.156 -1.145,-0.039 -1.446,0.133 -0.14,0.082 -0.207,0.16 -0.218,0.207 -0.016,0.059 -0.043,0.109 -0.079,0.145 0.012,0.05 0.012,0.105 -0.007,0.164 -0.063,0.246 0.476,0.929 1.257,1.144 0.262,0.071 0.524,0.094 0.77,0.074 0.125,-0.179 0.25,-0.425 0.336,-0.738 0.086,-0.308 0.102,-0.586 0.086,-0.801 -0.203,-0.14 -0.438,-0.261 -0.699,-0.328 m 2.507,2.492 c -0.082,-0.105 -0.183,-0.203 -0.296,-0.281 -0.024,-0.015 -0.039,-0.023 -0.059,-0.035 -0.34,0.605 -0.906,0.988 -1.535,0.988 -0.141,0 -0.285,-0.019 -0.422,-0.058 -0.402,-0.106 -0.539,-0.426 -0.555,-0.594 -0.004,-0.023 0.004,-0.043 0.008,-0.066 -0.101,-0.016 -0.199,-0.036 -0.301,-0.063 -0.949,-0.262 -1.734,-1.078 -1.711,-1.734 -0.062,-0.075 -0.148,-0.2 -0.101,-0.36 0.043,-0.156 0.164,-0.222 0.269,-0.254 0.086,-0.168 0.235,-0.312 0.446,-0.433 0.328,-0.188 0.757,-0.289 1.191,-0.289 0.242,0 0.488,0.031 0.719,0.094 0.097,0.027 0.195,0.058 0.293,0.097 0.008,-0.019 0.008,-0.039 0.019,-0.055 0.09,-0.121 0.293,-0.261 0.563,-0.261 0.07,0 0.144,0.008 0.219,0.027 0.418,0.113 0.753,0.375 0.968,0.75 0.262,0.457 0.321,1.051 0.164,1.637 0.051,0.027 0.098,0.058 0.168,0.105 0.172,0.114 0.321,0.258 0.442,0.418 0.101,0.133 0.074,0.328 -0.063,0.43 -0.133,0.102 -0.324,0.074 -0.426,-0.063"
                 style="fill:#ffffff;fill-opacity:1;fill-rule:nonzero;stroke:none"
                 id="path44"
                 inkscape:connector-curvature="0" /><path
                 d="m 47.48,8.613 c -0.089,-0.008 -0.152,0.008 -0.152,0.008 -0.043,0.039 -0.074,0.246 -0.09,0.356 -0.047,0.308 -0.125,0.824 -0.644,0.937 -0.102,0.024 -0.203,0.031 -0.301,0.031 -0.586,0 -0.934,-0.386 -1.297,-0.8 C 44.918,9.055 44.832,8.961 44.738,8.859 L 44.688,8.805 C 44.434,8.531 44.055,8.117 43.469,8.117 c -0.16,0 -0.332,0.031 -0.512,0.09 -0.195,0.066 -0.336,0.152 -0.367,0.227 -0.055,0.117 0.058,0.402 0.152,0.628 0.168,0.407 0.449,1.09 -0.144,1.543 -0.203,0.157 -0.434,0.235 -0.68,0.235 -0.621,0 -1.145,-0.496 -1.652,-0.977 -0.075,-0.07 -0.153,-0.14 -0.227,-0.207 -0.406,-0.375 -0.875,-0.578 -1.324,-0.578 -0.52,0 -1.008,0.274 -1.395,0.781 -0.058,0.082 -0.152,0.239 -0.129,0.336 0.055,0.203 0.551,0.442 0.879,0.602 0.567,0.269 1.344,0.641 1.071,1.383 -0.418,1.113 -1.504,1.113 -1.86,1.113 -0.097,0 -0.199,-0.004 -0.308,-0.012 -0.75,-0.051 -1.344,0.223 -1.618,0.739 -0.257,0.476 -0.191,1.085 0.172,1.632 0.379,0.571 0.895,0.899 1.414,0.899 0.512,0 0.973,-0.317 1.289,-0.887 0.278,-0.512 0.739,-1.195 1.512,-1.195 0.18,0 0.367,0.039 0.555,0.117 0.609,0.25 0.519,0.969 0.441,1.602 -0.05,0.402 -0.117,0.949 0.035,1.132 0.016,0.024 0.067,0.082 0.282,0.102 0.101,0.016 0.199,0.019 0.293,0.019 0.308,0 1.129,0 1.136,-1.613 V 15.59 c -0.004,-0.695 -0.007,-1.481 0.414,-1.906 0.196,-0.196 0.477,-0.286 0.754,-0.266 0.672,0.055 0.868,0.699 1.008,1.168 0.207,0.691 0.289,0.695 0.559,0.621 0.582,-0.168 0.715,-0.73 0.804,-1.344 l 0.047,-0.34 c 0.098,-0.691 0.2,-1.41 1.028,-1.597 0.05,-0.012 0.097,-0.016 0.144,-0.016 h 0.004 c 0.426,0 0.652,0.363 0.82,0.625 0.063,0.098 0.164,0.262 0.18,0.285 0,0 0.027,-0.004 0.074,-0.035 0.196,-0.125 0.504,-0.539 0.5,-1.875 -0.222,0.035 -0.457,0.074 -0.715,0.117 -3.39,0.594 -7.683,2.289 -9.089,2.844 -0.442,0.176 -0.442,0.176 -0.485,0.176 -0.047,0 -0.086,-0.02 -0.113,-0.051 -0.012,-0.012 -0.023,-0.023 -0.027,-0.039 -0.008,-0.016 -0.012,-0.031 -0.012,-0.047 -0.004,-0.023 0,-0.047 0.004,-0.066 0.101,-0.289 5.648,-2.93 9.57,-3.621 0.258,-0.043 0.496,-0.082 0.731,-0.114 C 48.262,8.945 47.805,8.648 47.48,8.613 m 3.809,1.203 c 0.207,0 0.395,0.012 0.441,0.161 0.008,0.019 0.012,0.043 0.008,0.066 0.004,0.012 0.008,0.023 0.008,0.035 0.012,0.141 0.02,0.297 -2.008,0.672 0.02,0.742 -0.023,2.23 -0.922,2.809 -0.187,0.121 -0.378,0.179 -0.562,0.179 -0.516,0 -0.785,-0.429 -0.965,-0.715 -0.031,-0.046 -0.066,-0.105 -0.101,-0.156 -0.09,0.071 -0.133,0.246 -0.208,0.785 l -0.05,0.344 c -0.082,0.57 -0.258,1.75 -1.461,2.094 -0.153,0.043 -0.297,0.062 -0.434,0.062 -0.863,0 -1.109,-0.816 -1.254,-1.3 -0.054,-0.176 -0.14,-0.469 -0.23,-0.52 -0.156,0.125 -0.153,0.918 -0.149,1.254 v 0.246 c -0.007,1.609 -0.757,2.527 -2.054,2.527 -0.133,0 -0.274,-0.007 -0.395,-0.027 -0.387,-0.031 -0.687,-0.176 -0.894,-0.434 -0.395,-0.488 -0.309,-1.195 -0.231,-1.82 0.027,-0.215 0.063,-0.527 0.047,-0.668 -0.047,-0.015 -0.094,-0.023 -0.133,-0.023 -0.211,0 -0.445,0.234 -0.707,0.718 -0.48,0.868 -1.246,1.364 -2.094,1.364 -0.832,0 -1.625,-0.477 -2.179,-1.309 -0.555,-0.832 -0.637,-1.797 -0.219,-2.574 0.414,-0.77 1.254,-1.231 2.25,-1.231 0.078,0 0.16,0.004 0.242,0.008 0.086,0.008 0.168,0.008 0.246,0.008 0.614,0 0.84,-0.164 0.965,-0.437 -0.113,-0.09 -0.383,-0.219 -0.57,-0.309 -0.567,-0.273 -1.211,-0.582 -1.371,-1.195 -0.09,-0.348 -0.004,-0.719 0.273,-1.114 0.734,-0.957 1.57,-1.156 2.137,-1.156 0.68,0 1.371,0.289 1.945,0.817 0.078,0.074 0.156,0.144 0.235,0.218 0.324,0.309 0.769,0.727 1.023,0.727 0.031,0 0.07,-0.008 0.125,-0.035 C 42.059,9.809 41.953,9.559 41.895,9.41 41.734,9.02 41.535,8.535 41.75,8.055 41.898,7.73 42.195,7.496 42.66,7.34 c 0.274,-0.094 0.547,-0.141 0.809,-0.141 0.988,0 1.601,0.664 1.894,0.985 l 0.047,0.05 c 0.098,0.102 0.188,0.207 0.274,0.301 0.285,0.324 0.441,0.492 0.609,0.492 h 0.004 C 46.309,8.973 46.32,8.898 46.328,8.84 46.383,8.477 46.5,7.59 47.578,7.699 c 0.867,0.094 1.547,0.863 2.027,2.278 0.79,-0.106 1.352,-0.161 1.684,-0.161"
                 style="fill:#ffffff;fill-opacity:1;fill-rule:nonzero;stroke:none"
                 id="path46"
                 inkscape:connector-curvature="0" /><path
                 d="m 23.727,76.238 c 0.043,0.106 0.089,0.121 0.089,0.129 0.082,0 0.215,-0.043 0.332,-0.082 0.172,-0.058 0.348,-0.117 0.54,-0.117 0.292,0 0.476,0.144 0.578,0.27 0.492,0.613 0.257,1.207 0.031,1.777 -0.035,0.094 -0.074,0.195 -0.113,0.301 l -0.028,0.07 c -0.218,0.574 -0.379,1.184 0.211,1.781 0.207,0.192 0.321,0.215 0.36,0.215 0.128,0 0.324,-0.23 0.484,-0.414 0.254,-0.297 0.574,-0.664 1.043,-0.664 0.129,0 0.254,0.027 0.367,0.078 1.008,0.422 0.652,1.586 0.422,2.356 -0.035,0.113 -0.07,0.226 -0.105,0.347 -0.165,0.551 -0.129,1.051 0.101,1.442 0.242,0.406 0.695,0.687 1.297,0.812 0.059,0.012 0.113,0.016 0.16,0.016 0.121,0 0.156,-0.035 0.168,-0.043 0.145,-0.149 0.141,-0.688 0.137,-1.047 -0.004,-0.625 -0.012,-1.488 0.758,-1.555 1.058,-0.109 1.554,0.668 1.906,1.434 0.289,0.668 0.805,1.07 1.387,1.07 0.519,0 1.007,-0.32 1.316,-0.859 0.344,-0.61 0.394,-1.223 0.141,-1.672 -0.235,-0.418 -0.704,-0.656 -1.313,-0.676 -1.461,-0.008 -1.82,-0.75 -1.859,-1.375 -0.039,-0.656 0.656,-0.894 1.211,-1.086 0.359,-0.125 0.851,-0.293 0.949,-0.504 0.012,-0.023 0.047,-0.101 -0.027,-0.308 -0.235,-0.727 -0.661,-0.809 -0.961,-0.809 -0.297,0 -0.668,0.102 -1.063,0.289 l -0.156,0.078 c -0.488,0.25 -1.047,0.531 -1.539,0.531 -0.414,0 -0.742,-0.199 -0.922,-0.57 -0.277,-0.613 0.226,-1.094 0.559,-1.41 0.164,-0.156 0.414,-0.395 0.414,-0.52 0.003,-0.046 -0.047,-0.125 -0.141,-0.226 -0.18,-0.199 -0.395,-0.293 -0.676,-0.293 -0.289,0 -0.597,0.101 -0.82,0.176 l -0.379,0.125 c -0.348,0.117 -0.648,0.222 -0.949,0.222 -0.348,0 -0.637,-0.144 -0.856,-0.418 -0.332,-0.406 -0.066,-0.859 0.094,-1.129 0.051,-0.082 0.133,-0.214 0.152,-0.289 -0.007,-0.007 -0.019,-0.015 -0.039,-0.023 -0.093,-0.055 -0.218,-0.082 -0.371,-0.082 -0.469,0 -1.047,0.25 -1.433,0.449 0.324,0.383 0.746,0.891 1.293,1.563 2.039,2.496 5.285,5.312 6.718,6.457 l 0.035,0.027 c 0.559,0.395 0.559,0.395 0.567,0.48 l 0.004,0.063 -0.086,0.105 h -0.074 c -0.059,0 -0.094,0 -0.629,-0.429 -1.239,-0.875 -4.989,-3.524 -7.16,-6.172 -0.571,-0.699 -0.989,-1.238 -1.293,-1.656 -0.938,0.98 -0.93,1.519 -0.832,1.765 m 0.05,-3.254 0.055,-0.086 0.008,-0.05 h 0.144 c 0.067,0 0.137,0 0.575,0.476 0.57,-0.308 1.339,-0.656 2.058,-0.656 0.313,0 0.59,0.066 0.828,0.203 0.258,0.149 0.418,0.344 0.481,0.582 0.101,0.395 -0.11,0.742 -0.262,1 -0.023,0.043 -0.059,0.098 -0.086,0.149 0.129,0.039 0.399,-0.059 0.715,-0.164 l 0.383,-0.129 c 0.265,-0.09 0.668,-0.223 1.109,-0.223 0.551,0 1.008,0.203 1.352,0.59 0.261,0.273 0.39,0.566 0.383,0.871 -0.012,0.504 -0.391,0.867 -0.7,1.16 -0.117,0.109 -0.304,0.289 -0.347,0.383 0.011,0.012 0.027,0.015 0.078,0.015 0.273,0 0.746,-0.238 1.125,-0.433 l 0.168,-0.082 c 1.597,-0.762 2.851,-0.328 3.293,1.043 0.133,0.367 0.133,0.707 -0.012,1.004 -0.266,0.558 -0.91,0.781 -1.477,0.976 -0.195,0.067 -0.476,0.164 -0.589,0.239 0.027,0.191 0.144,0.433 0.957,0.437 0.937,0.027 1.703,0.445 2.093,1.141 0.418,0.742 0.364,1.679 -0.144,2.578 -0.469,0.828 -1.262,1.324 -2.113,1.324 -0.961,0 -1.793,-0.609 -2.227,-1.617 -0.344,-0.742 -0.59,-0.895 -0.879,-0.899 -0.031,0.149 -0.027,0.438 -0.027,0.641 0.004,0.602 0.011,1.281 -0.403,1.699 -0.144,0.145 -0.402,0.317 -0.82,0.317 -0.098,0 -0.207,-0.008 -0.332,-0.032 -0.875,-0.183 -1.535,-0.613 -1.914,-1.246 -0.367,-0.617 -0.434,-1.371 -0.191,-2.164 0.031,-0.117 0.066,-0.238 0.105,-0.363 0.188,-0.621 0.328,-1.145 0.098,-1.246 -0.074,0.019 -0.25,0.223 -0.356,0.344 -0.281,0.328 -0.633,0.734 -1.179,0.734 -0.332,0 -0.657,-0.152 -1,-0.477 -1.067,-1.078 -0.622,-2.257 -0.43,-2.761 l 0.023,-0.067 c 0.043,-0.113 0.086,-0.218 0.125,-0.316 0.192,-0.484 0.231,-0.645 0.164,-0.777 -0.054,0.011 -0.121,0.035 -0.171,0.054 -0.184,0.059 -0.391,0.129 -0.622,0.129 -0.25,0 -0.703,-0.094 -0.945,-0.711 -0.324,-0.816 0.07,-1.781 1.16,-2.871 -0.336,-0.539 -0.289,-0.648 -0.254,-0.719"
                 style="fill:#ffffff;fill-opacity:1;fill-rule:nonzero;stroke:none"
                 id="path48"
                 inkscape:connector-curvature="0" /><path
                 d="m 27.383,20.199 c -0.305,0 -0.598,-0.105 -0.938,-0.222 -0.097,-0.036 -0.203,-0.075 -0.312,-0.11 l -0.094,-0.031 c -0.211,-0.07 -0.5,-0.168 -0.809,-0.168 -0.371,0 -0.687,0.148 -0.949,0.43 -0.133,0.164 -0.203,0.304 -0.195,0.39 0.016,0.137 0.25,0.321 0.437,0.469 0.36,0.285 0.899,0.715 0.637,1.387 -0.101,0.269 -0.383,0.718 -1.144,0.718 -0.383,0 -0.797,-0.105 -1.196,-0.21 -0.117,-0.032 -0.23,-0.059 -0.351,-0.09 -0.207,-0.055 -0.407,-0.078 -0.594,-0.078 -0.879,0 -1.441,0.562 -1.59,1.574 -0.019,0.156 -0.008,0.269 0.035,0.316 0.039,0.047 0.168,0.121 0.602,0.121 0.148,0 0.305,-0.011 0.453,-0.015 0.156,-0.008 0.309,-0.016 0.449,-0.016 0.692,0 1.074,0.238 1.129,0.695 0.184,1.102 -0.648,1.625 -1.367,1.946 -0.629,0.328 -1,0.859 -0.996,1.425 0,0.536 0.324,1.008 0.89,1.297 0.743,0.383 1.512,0.344 1.926,-0.093 0.258,-0.274 0.383,-0.676 0.36,-1.2 0.019,-1.129 0.461,-1.757 1.332,-1.875 l 0.07,-0.004 c 0.605,0 0.848,0.629 1.066,1.18 0.164,0.422 0.371,0.942 0.625,0.942 0.059,0 0.129,-0.016 0.215,-0.051 0.375,-0.145 0.606,-0.344 0.703,-0.61 0.133,-0.355 0.039,-0.859 -0.269,-1.445 l -0.086,-0.152 c -0.336,-0.606 -0.719,-1.289 -0.547,-1.871 0.074,-0.25 0.242,-0.45 0.488,-0.582 0.125,-0.063 0.258,-0.098 0.395,-0.098 0.43,0 0.758,0.316 1.047,0.598 0.16,0.156 0.402,0.39 0.519,0.39 0.031,0 0.102,-0.035 0.215,-0.16 0.43,-0.422 0.277,-0.949 0.07,-1.5 L 29.48,23.148 c -0.234,-0.617 -0.476,-1.257 0.11,-1.82 0.129,-0.121 0.293,-0.183 0.476,-0.183 0.239,0 0.454,0.113 0.645,0.214 0.098,0.051 0.254,0.133 0.277,0.149 0,0 0.02,-0.016 0.051,-0.078 0.094,-0.153 0.215,-0.641 -0.508,-1.879 -0.363,0.344 -0.836,0.781 -1.461,1.351 -1.738,1.547 -3.863,3.981 -6.312,7.235 -0.278,0.367 -0.278,0.367 -0.36,0.367 -0.015,0 -0.035,-0.004 -0.054,-0.012 -0.047,-0.019 -0.086,-0.066 -0.098,-0.117 -0.055,-0.301 3.324,-5.453 6.266,-8.074 0.586,-0.539 1.09,-0.977 1.511,-1.321 -0.57,-0.48 -1.054,-0.722 -1.445,-0.722 -0.098,0 -0.183,0.015 -0.258,0.043 -0.082,0.035 -0.117,0.066 -0.121,0.066 -0.011,0.059 0.063,0.25 0.106,0.356 0.113,0.289 0.3,0.773 -0.078,1.121 -0.243,0.234 -0.528,0.355 -0.844,0.355 m 1.195,-2.859 c 0.899,0 1.746,0.672 2.192,1.066 0.328,-0.226 0.562,-0.344 0.691,-0.344 0.113,0 0.164,0.067 0.18,0.094 0.004,0.008 0.007,0.012 0.007,0.02 0.024,0.019 0.04,0.039 0.047,0.062 0.028,0.086 0.039,0.141 -0.484,0.66 0.328,0.528 1.207,1.997 0.625,2.989 -0.238,0.433 -0.574,0.527 -0.813,0.527 -0.285,0 -0.539,-0.137 -0.742,-0.242 -0.039,-0.024 -0.09,-0.047 -0.133,-0.07 -0.023,0.105 0.024,0.277 0.192,0.722 l 0.129,0.348 c 0.179,0.48 0.605,1.605 -0.27,2.461 -0.265,0.293 -0.558,0.441 -0.875,0.441 -0.488,0 -0.863,-0.359 -1.16,-0.648 -0.125,-0.121 -0.332,-0.321 -0.406,-0.324 -0.098,0.16 0.328,0.921 0.469,1.171 l 0.089,0.165 c 0.442,0.843 0.551,1.585 0.321,2.199 -0.192,0.515 -0.606,0.898 -1.219,1.14 -0.191,0.078 -0.379,0.121 -0.559,0.121 -0.879,0 -1.226,-0.882 -1.48,-1.527 -0.074,-0.195 -0.184,-0.473 -0.266,-0.586 -0.183,0.039 -0.418,0.176 -0.429,0.934 0.035,0.75 -0.176,1.39 -0.614,1.847 -0.691,0.727 -1.906,0.848 -3.011,0.278 -0.868,-0.446 -1.387,-1.235 -1.391,-2.114 0,-0.914 0.555,-1.75 1.516,-2.253 0.785,-0.348 0.894,-0.61 0.875,-0.883 -0.098,-0.016 -0.368,-0.012 -0.637,0 -0.168,0.008 -0.336,0.019 -0.5,0.019 -0.426,0 -0.957,-0.051 -1.293,-0.433 -0.227,-0.254 -0.309,-0.606 -0.254,-1.047 0.215,-1.461 1.172,-2.371 2.5,-2.371 0.266,0 0.543,0.039 0.816,0.109 0.118,0.027 0.239,0.059 0.36,0.094 0.344,0.09 0.699,0.18 0.965,0.18 0.238,0 0.265,-0.067 0.293,-0.129 -0.024,-0.075 -0.231,-0.239 -0.356,-0.34 -0.324,-0.254 -0.726,-0.574 -0.781,-1.09 -0.035,-0.348 0.094,-0.699 0.418,-1.09 0.453,-0.496 1.008,-0.746 1.64,-0.746 0.458,0 0.844,0.129 1.102,0.215 l 0.086,0.027 c 0.121,0.039 0.23,0.078 0.336,0.117 0.258,0.094 0.48,0.172 0.629,0.172 0.039,0 0.078,-0.004 0.133,-0.039 -0.016,-0.058 -0.047,-0.133 -0.067,-0.187 -0.129,-0.325 -0.465,-1.192 0.528,-1.606 0.191,-0.074 0.39,-0.109 0.601,-0.109"
                 style="fill:#ffffff;fill-opacity:1;fill-rule:nonzero;stroke:none"
                 id="path50"
                 inkscape:connector-curvature="0" /><path
                 d="m 13.91,39.461 c -0.066,0.293 -0.015,0.394 0,0.418 0.07,0.101 0.375,0.152 0.598,0.187 0.43,0.071 1.148,0.184 1.226,0.922 0.094,1.055 -1.015,1.356 -1.824,1.574 -0.098,0.028 -0.195,0.055 -0.293,0.083 -0.558,0.156 -0.98,0.476 -1.195,0.894 -0.215,0.418 -0.219,0.934 -0.027,1.469 0.121,0.277 0.222,0.277 0.265,0.277 0.223,0 0.598,-0.238 0.899,-0.43 0.382,-0.246 0.746,-0.476 1.113,-0.476 0.242,0 0.461,0.105 0.621,0.309 0.738,1.023 0.027,2.035 -0.203,2.363 -0.406,0.59 -0.488,1.211 -0.231,1.703 0.239,0.453 0.735,0.715 1.364,0.715 h 0.078 C 17,49.441 17.57,49.148 17.828,48.68 c 0.227,-0.414 0.184,-0.93 -0.125,-1.45 -0.223,-0.386 -0.898,-1.566 0.168,-2.292 0.125,-0.094 0.277,-0.141 0.438,-0.141 0.39,0 0.734,0.273 1.132,0.594 0.286,0.234 0.68,0.55 0.914,0.55 0.036,0 0.114,0 0.258,-0.191 0.274,-0.32 0.391,-0.625 0.352,-0.902 -0.059,-0.36 -0.387,-0.739 -0.949,-1.086 l -0.192,-0.117 c -0.601,-0.364 -1.281,-0.774 -1.398,-1.368 -0.047,-0.257 0.015,-0.515 0.179,-0.738 0.122,-0.172 0.36,-0.375 0.782,-0.375 0.238,0 0.484,0.066 0.718,0.129 0.196,0.051 0.395,0.102 0.543,0.102 0.102,0 0.176,0 0.243,-0.247 0.16,-0.57 -0.246,-0.96 -0.707,-1.347 l -0.266,-0.223 c -0.523,-0.433 -1.066,-0.883 -0.801,-1.676 0.172,-0.496 0.695,-0.5 1.012,-0.504 0.098,-0.003 0.254,-0.003 0.324,-0.023 0.004,-0.012 0.004,-0.031 0.004,-0.055 -0.008,-0.226 -0.195,-0.691 -1.32,-1.375 -0.157,0.469 -0.364,1.063 -0.641,1.828 -1.051,3.016 -1.644,7.176 -1.902,8.954 -0.137,0.957 -0.137,0.957 -0.285,0.957 l -0.125,-0.067 c -0.145,-0.203 0.168,-6.176 1.535,-10.101 0.285,-0.789 0.515,-1.391 0.707,-1.86 -0.246,-0.051 -0.567,-0.101 -0.887,-0.101 -0.48,0 -0.809,0.113 -0.98,0.336 -0.063,0.086 -0.071,0.125 -0.071,0.125 0.016,0.058 0.168,0.187 0.25,0.257 0.235,0.196 0.629,0.528 0.457,1.024 -0.246,0.738 -0.871,0.844 -1.472,0.949 -0.114,0.02 -0.239,0.043 -0.368,0.066 l -0.074,0.016 c -0.593,0.117 -1.183,0.301 -1.371,1.133 m 1.262,-2.047 c 0.137,-0.027 0.269,-0.051 0.394,-0.07 0.485,-0.086 0.641,-0.129 0.715,-0.25 -0.039,-0.039 -0.093,-0.086 -0.133,-0.117 -0.261,-0.223 -0.957,-0.805 -0.32,-1.641 0.356,-0.465 0.93,-0.699 1.711,-0.699 0.496,0 0.965,0.093 1.254,0.164 0.328,-0.699 0.441,-0.703 0.523,-0.703 0.055,0 0.106,0.023 0.137,0.066 l 0.067,0.031 c 0.039,0.059 0.093,0.141 -0.106,0.848 0.602,0.34 1.934,1.164 1.961,2.258 0.004,0.297 -0.078,0.535 -0.25,0.715 -0.281,0.289 -0.687,0.296 -0.984,0.3 -0.051,0 -0.118,0 -0.172,0.004 0.019,0.106 0.148,0.231 0.535,0.555 l 0.266,0.219 c 0.433,0.359 1.335,1.113 1.007,2.301 -0.164,0.593 -0.566,0.917 -1.129,0.917 -0.265,0 -0.539,-0.07 -0.777,-0.132 -0.18,-0.047 -0.363,-0.098 -0.484,-0.098 -0.039,0 -0.051,0.004 -0.059,0.016 0.031,0.191 0.692,0.59 0.973,0.757 L 20.5,42.98 c 0.812,0.504 1.273,1.086 1.371,1.727 0.086,0.555 -0.105,1.105 -0.543,1.617 -0.328,0.442 -0.707,0.535 -0.973,0.535 -0.558,0 -1.054,-0.402 -1.492,-0.754 -0.164,-0.132 -0.402,-0.324 -0.519,-0.378 -0.149,0.113 -0.27,0.308 0.152,1.043 0.469,0.792 0.52,1.652 0.137,2.351 -0.414,0.754 -1.274,1.227 -2.301,1.266 h -0.109 c -0.965,0 -1.778,-0.449 -2.176,-1.207 -0.418,-0.789 -0.309,-1.782 0.289,-2.653 0.473,-0.672 0.406,-0.996 0.269,-1.215 -0.136,0.051 -0.378,0.208 -0.55,0.317 -0.422,0.269 -0.903,0.578 -1.395,0.578 -0.344,0 -0.808,-0.148 -1.117,-0.859 -0.293,-0.809 -0.27,-1.578 0.062,-2.227 0.329,-0.648 0.957,-1.133 1.758,-1.359 0.102,-0.032 0.203,-0.059 0.309,-0.086 0.664,-0.18 1.172,-0.34 1.16,-0.586 -0.059,-0.051 -0.316,-0.09 -0.469,-0.117 -0.41,-0.067 -0.922,-0.149 -1.211,-0.578 -0.199,-0.29 -0.242,-0.661 -0.136,-1.133 0.332,-1.489 1.562,-1.731 2.089,-1.832 z"
                 style="fill:#ffffff;fill-opacity:1;fill-rule:nonzero;stroke:none"
                 id="path52"
                 inkscape:connector-curvature="0" /><path
                 d="m 14.289,61.379 c 0.113,0.379 0.227,0.379 0.281,0.379 0.137,0 0.336,-0.07 0.528,-0.141 0.25,-0.09 0.507,-0.187 0.773,-0.187 0.309,0 0.57,0.129 0.742,0.359 0.684,0.856 -0.187,1.699 -0.765,2.258 -0.086,0.086 -0.168,0.168 -0.254,0.254 -0.426,0.418 -0.649,0.902 -0.629,1.367 0.023,0.457 0.281,0.902 0.754,1.285 0.152,0.125 0.238,0.137 0.269,0.137 0.192,0 0.481,-0.531 0.657,-0.848 0.281,-0.515 0.574,-1.054 1.109,-1.054 0.105,0 0.211,0.023 0.289,0.062 1.109,0.438 1.019,1.57 0.969,2.184 -0.047,0.558 0.093,1.046 0.398,1.378 0.442,0.477 1.195,0.536 1.863,0.129 0.598,-0.367 0.954,-0.898 0.942,-1.425 -0.004,-0.469 -0.301,-0.895 -0.828,-1.196 -1.297,-0.734 -1.153,-1.625 -0.938,-2.113 0.098,-0.203 0.328,-0.449 0.844,-0.449 0.23,0 0.484,0.047 0.75,0.094 0.254,0.043 0.516,0.089 0.734,0.089 0.368,0 0.426,-0.109 0.461,-0.339 0.067,-0.403 0.012,-0.723 -0.168,-0.946 -0.23,-0.289 -0.699,-0.465 -1.34,-0.504 l -0.175,-0.004 c -0.7,-0.027 -1.489,-0.058 -1.903,-0.507 -0.175,-0.192 -0.261,-0.434 -0.246,-0.723 0.059,-0.672 0.731,-0.844 1.176,-0.961 0.707,-0.18 0.688,-0.25 0.625,-0.512 -0.133,-0.578 -0.676,-0.722 -1.266,-0.836 l -0.367,-0.07 c -0.656,-0.125 -1.332,-0.254 -1.484,-1.059 -0.098,-0.519 0.355,-0.781 0.629,-0.937 0.082,-0.047 0.211,-0.125 0.265,-0.176 -0.004,-0.012 -0.011,-0.023 -0.019,-0.039 -0.125,-0.203 -0.531,-0.531 -1.844,-0.574 0.106,0.504 0.231,1.16 0.395,2.031 0.539,3.098 2.066,6.985 2.722,8.645 0.371,0.945 0.371,0.945 0.27,1.043 -0.028,0.019 -0.059,0.031 -0.094,0.031 -0.371,0 -3.039,-5.762 -3.703,-9.559 -0.168,-0.898 -0.273,-1.57 -0.34,-2.082 -1.234,0.395 -1.48,0.848 -1.512,1.102 -0.011,0.105 0.004,0.144 0.004,0.144 0.039,0.043 0.242,0.082 0.348,0.102 0.301,0.059 0.809,0.152 0.902,0.668 0.149,0.777 -0.351,1.18 -0.836,1.57 -0.086,0.071 -0.175,0.141 -0.269,0.219 l -0.059,0.047 c -0.465,0.39 -0.898,0.844 -0.66,1.664 m 0.07,-2.367 0.055,-0.043 c 0.098,-0.086 0.195,-0.164 0.285,-0.235 0.399,-0.32 0.516,-0.437 0.524,-0.582 -0.059,-0.015 -0.129,-0.027 -0.184,-0.039 -0.336,-0.062 -1.227,-0.234 -1.09,-1.265 0.106,-0.848 0.895,-1.489 2.336,-1.914 -0.023,-0.559 0.055,-0.661 0.094,-0.707 0.031,-0.039 0.113,-0.082 0.168,-0.075 0.015,-0.004 0.031,-0.007 0.047,-0.007 0.105,0 0.168,0.011 0.328,0.683 0.66,0.004 2.234,0.059 2.828,1.02 0.152,0.257 0.199,0.507 0.137,0.746 -0.102,0.39 -0.453,0.594 -0.711,0.742 -0.039,0.023 -0.094,0.055 -0.137,0.086 0.066,0.078 0.238,0.125 0.707,0.215 l 0.363,0.07 c 0.512,0.098 1.711,0.32 1.993,1.527 0.289,1.211 -0.778,1.485 -1.293,1.614 -0.153,0.039 -0.403,0.105 -0.485,0.164 0,0.004 0.004,0.008 0.004,0.008 0.152,0.168 0.875,0.195 1.262,0.21 l 0.187,0.008 c 0.93,0.055 1.606,0.34 2.012,0.848 0.348,0.434 0.465,0.992 0.356,1.664 -0.067,0.414 -0.329,1.109 -1.368,1.109 -0.3,0 -0.617,-0.054 -0.894,-0.105 -0.227,-0.039 -0.438,-0.078 -0.59,-0.078 -0.02,0 -0.035,0.004 -0.047,0.004 -0.062,0.183 -0.066,0.468 0.594,0.843 0.812,0.461 1.281,1.18 1.297,1.977 0.011,0.855 -0.504,1.688 -1.387,2.227 -1.039,0.632 -2.285,0.5 -3.016,-0.293 -0.48,-0.52 -0.707,-1.258 -0.636,-2.079 0.066,-0.816 -0.043,-1.074 -0.317,-1.218 -0.097,0.113 -0.234,0.367 -0.332,0.547 -0.32,0.589 -0.722,1.324 -1.461,1.324 -0.281,0 -0.566,-0.113 -0.847,-0.34 -0.68,-0.555 -1.059,-1.23 -1.094,-1.961 -0.031,-0.727 0.289,-1.461 0.898,-2.055 0.082,-0.086 0.176,-0.175 0.266,-0.261 0.465,-0.453 0.836,-0.84 0.66,-1.043 -0.105,0 -0.293,0.07 -0.461,0.132 -0.254,0.09 -0.543,0.196 -0.84,0.196 -0.39,0 -0.906,-0.18 -1.164,-1.039 -0.422,-1.469 0.543,-2.278 0.953,-2.625"
                 style="fill:#ffffff;fill-opacity:1;fill-rule:nonzero;stroke:none"
                 id="path54"
                 inkscape:connector-curvature="0" /><path
                 d="m 91.031,73.727 c 0.266,-0.305 0.731,-0.594 1.227,-0.75 0.301,-0.094 0.613,-0.141 0.91,-0.141 0.125,0 0.328,0.008 0.523,0.059 -0.175,-0.372 -0.562,-0.59 -1.062,-0.59 -0.18,0 -0.367,0.031 -0.555,0.09 -0.375,0.117 -0.687,0.332 -0.871,0.609 -0.109,0.164 -0.219,0.414 -0.172,0.723 m 0.793,0.961 c 0.242,0.777 0.949,1.289 1.184,1.218 0.062,-0.019 0.117,-0.023 0.164,-0.011 0.035,-0.036 0.082,-0.067 0.144,-0.09 0.047,-0.012 0.125,-0.078 0.2,-0.223 0.16,-0.305 0.254,-0.891 0.082,-1.449 -0.082,-0.258 -0.207,-0.485 -0.356,-0.684 -0.027,0 -0.047,-0.004 -0.074,-0.004 -0.234,0 -0.488,0.039 -0.727,0.114 -0.308,0.097 -0.55,0.234 -0.722,0.363 -0.008,0.25 0.023,0.512 0.105,0.766 m -0.48,-2.626 c -0.012,-0.015 -0.024,-0.031 -0.043,-0.054 -0.086,-0.117 -0.184,-0.211 -0.289,-0.285 -0.141,-0.098 -0.176,-0.285 -0.078,-0.426 0.058,-0.086 0.152,-0.133 0.25,-0.133 0.062,0 0.121,0.016 0.175,0.055 0.161,0.109 0.309,0.254 0.438,0.426 0.047,0.066 0.078,0.113 0.109,0.16 0.239,-0.075 0.485,-0.114 0.723,-0.114 0.828,0 1.48,0.446 1.703,1.157 0.121,0.398 -0.07,0.683 -0.207,0.793 -0.012,0.011 -0.035,0.011 -0.051,0.023 0.039,0.094 0.074,0.188 0.106,0.285 0.203,0.641 0.152,1.395 -0.125,1.918 -0.11,0.211 -0.25,0.371 -0.41,0.461 -0.028,0.094 -0.083,0.231 -0.239,0.274 -0.156,0.054 -0.281,-0.016 -0.367,-0.082 -0.652,0.05 -1.504,-0.704 -1.801,-1.649 -0.031,-0.098 -0.054,-0.199 -0.074,-0.297 -0.023,0.004 -0.043,0.012 -0.062,0.012 -0.172,-0.012 -0.497,-0.137 -0.618,-0.531 -0.148,-0.473 -0.074,-0.969 0.211,-1.391 0.16,-0.238 0.387,-0.441 0.649,-0.602"
                 style="fill:#ffffff;fill-opacity:1;fill-rule:nonzero;stroke:none"
                 id="path56"
                 inkscape:connector-curvature="0" /><path
                 d="m 87.43,68.402 c 0.226,0.344 0.367,0.875 0.379,1.387 0.011,0.523 -0.114,1.055 -0.317,1.399 0.563,-0.098 0.946,-0.665 0.93,-1.415 -0.016,-0.746 -0.426,-1.3 -0.992,-1.371 m -1.145,0.489 c -0.582,0.011 -1.105,0.289 -1.347,0.543 -0.11,0.117 -0.149,0.211 -0.149,0.257 0.004,0.063 -0.012,0.118 -0.035,0.164 0.023,0.043 0.043,0.094 0.043,0.157 0.004,0.254 0.723,0.754 1.527,0.738 0.274,-0.008 0.531,-0.066 0.762,-0.156 0.066,-0.203 0.117,-0.473 0.113,-0.793 C 87.191,69.477 87.125,69.203 87.047,69 86.812,68.926 86.555,68.883 86.285,68.891 m 2.746,0.859 c 0.055,0.012 0.114,0.027 0.192,0.051 0.195,0.062 0.379,0.156 0.539,0.277 0.136,0.098 0.168,0.289 0.066,0.426 -0.101,0.137 -0.293,0.168 -0.426,0.066 -0.109,-0.082 -0.234,-0.144 -0.367,-0.187 -0.027,-0.008 -0.051,-0.016 -0.07,-0.02 -0.192,0.84 -0.813,1.434 -1.633,1.453 -0.398,0 -0.613,-0.261 -0.676,-0.418 -0.008,-0.019 -0.004,-0.039 -0.008,-0.062 -0.101,0.016 -0.207,0.023 -0.308,0.023 -0.996,0.02 -1.973,-0.535 -2.133,-1.175 -0.082,-0.051 -0.199,-0.145 -0.199,-0.313 -0.004,-0.16 0.094,-0.258 0.183,-0.32 0.036,-0.184 0.137,-0.367 0.305,-0.543 0.41,-0.426 1.106,-0.715 1.777,-0.731 0.024,0 0.043,0 0.067,0 0.082,0 0.16,0.004 0.238,0.012 0,-0.019 0,-0.039 0.004,-0.059 0.063,-0.164 0.27,-0.437 0.684,-0.445 0.004,0 0.039,0 0.043,0 0.972,0 1.691,0.824 1.722,1.965"
                 style="fill:#ffffff;fill-opacity:1;fill-rule:nonzero;stroke:none"
                 id="path58"
                 inkscape:connector-curvature="0" /><path
                 d="m 91.168,53.125 c -0.039,0.156 -0.023,0.258 0,0.297 0.035,0.055 0.047,0.109 0.051,0.16 0.043,0.023 0.082,0.063 0.113,0.117 0.133,0.215 1,0.297 1.695,-0.121 0.231,-0.137 0.43,-0.312 0.586,-0.504 -0.043,-0.211 -0.133,-0.472 -0.301,-0.75 -0.167,-0.281 -0.359,-0.484 -0.527,-0.621 -0.242,0.051 -0.484,0.145 -0.715,0.281 -0.5,0.301 -0.816,0.805 -0.902,1.141 m 3.441,-0.395 c 0.047,-0.328 -0.043,-0.699 -0.246,-1.039 -0.375,-0.617 -1.023,-0.918 -1.547,-0.695 0.356,0.18 0.746,0.555 1.024,1.012 0.265,0.449 0.422,0.972 0.418,1.375 0.242,-0.199 0.328,-0.457 0.351,-0.653 m -2.238,-2.191 c 0.254,-0.152 0.531,-0.23 0.82,-0.23 0.657,0 1.286,0.394 1.688,1.058 0.055,-0.015 0.113,-0.031 0.191,-0.047 0.133,-0.027 0.266,-0.043 0.395,-0.043 0.074,0 0.14,0.004 0.211,0.012 0.168,0.02 0.289,0.172 0.269,0.34 -0.019,0.168 -0.175,0.289 -0.34,0.269 -0.132,-0.015 -0.269,-0.007 -0.406,0.02 -0.031,0.008 -0.051,0.012 -0.07,0.016 0.09,0.293 0.125,0.593 0.09,0.878 -0.071,0.504 -0.34,0.926 -0.77,1.18 -0.129,0.082 -0.265,0.121 -0.402,0.121 -0.231,0 -0.379,-0.109 -0.41,-0.133 -0.016,-0.011 -0.024,-0.031 -0.039,-0.05 -0.082,0.062 -0.164,0.121 -0.254,0.175 -0.848,0.504 -1.977,0.508 -2.438,0.036 -0.094,-0.004 -0.242,-0.028 -0.328,-0.172 -0.086,-0.137 -0.047,-0.274 0,-0.371 -0.058,-0.176 -0.062,-0.387 -0.004,-0.621 0.141,-0.575 0.606,-1.172 1.18,-1.516 0.09,-0.055 0.18,-0.102 0.269,-0.145 -0.007,-0.015 -0.019,-0.031 -0.023,-0.05 -0.027,-0.172 0.02,-0.512 0.371,-0.727"
                 style="fill:#ffffff;fill-opacity:1;fill-rule:nonzero;stroke:none"
                 id="path60"
                 inkscape:connector-curvature="0" /><path
                 d="m 101.191,54.621 c 0.043,-0.051 0.094,-0.078 0.145,-0.098 0.012,-0.046 0.039,-0.097 0.082,-0.144 0.035,-0.039 0.07,-0.133 0.062,-0.293 -0.007,-0.348 -0.214,-0.902 -0.64,-1.305 -0.195,-0.183 -0.414,-0.324 -0.637,-0.422 -0.199,0.098 -0.433,0.262 -0.648,0.493 -0.223,0.234 -0.367,0.472 -0.453,0.671 0.113,0.219 0.269,0.43 0.468,0.614 0.59,0.558 1.457,0.66 1.621,0.484 M 98.66,52.016 c -0.305,0.324 -0.472,0.718 -0.461,1.086 0.004,0.218 0.078,0.418 0.207,0.582 0.078,-0.391 0.34,-0.864 0.699,-1.254 0.364,-0.379 0.825,-0.672 1.211,-0.774 -0.464,-0.324 -1.164,-0.164 -1.656,0.36 m 0.278,2.347 c -0.016,0.012 -0.032,0.032 -0.051,0.039 -0.028,0.016 -0.129,0.059 -0.274,0.059 -0.133,0 -0.332,-0.039 -0.523,-0.219 -0.317,-0.297 -0.492,-0.683 -0.504,-1.125 -0.012,-0.344 0.086,-0.703 0.269,-1.031 C 97.84,52.078 97.82,52.07 97.797,52.059 97.672,52 97.539,51.965 97.402,51.953 c -0.168,-0.019 -0.293,-0.168 -0.273,-0.336 0.012,-0.156 0.148,-0.277 0.301,-0.277 0.011,0 0.023,0.004 0.031,0.004 0.203,0.019 0.402,0.07 0.586,0.156 0.074,0.031 0.129,0.059 0.176,0.086 0.433,-0.457 0.988,-0.719 1.531,-0.719 0.414,0 0.793,0.153 1.094,0.438 0.304,0.281 0.273,0.629 0.211,0.789 -0.008,0.015 -0.024,0.027 -0.032,0.043 0.078,0.062 0.157,0.129 0.231,0.199 0.488,0.461 0.816,1.141 0.836,1.73 0.008,0.243 -0.039,0.446 -0.133,0.606 0.023,0.09 0.039,0.238 -0.074,0.355 -0.11,0.125 -0.254,0.125 -0.36,0.106 -0.543,0.371 -1.652,0.129 -2.375,-0.547 -0.078,-0.074 -0.148,-0.148 -0.214,-0.223"
                 style="fill:#ffffff;fill-opacity:1;fill-rule:nonzero;stroke:none"
                 id="path62"
                 inkscape:connector-curvature="0" /><path
                 d="m 90.648,32.867 c -0.277,-0.16 -0.57,-0.246 -0.851,-0.246 -0.352,0 -0.641,0.137 -0.836,0.383 0.406,-0.02 0.934,0.137 1.383,0.394 0.461,0.266 0.844,0.645 1.031,0.997 0.238,-0.59 -0.164,-1.204 -0.727,-1.528 m -2.101,2.801 c 0.043,0.152 0.101,0.234 0.144,0.262 0.055,0.027 0.094,0.066 0.121,0.109 0.051,0.004 0.102,0.016 0.157,0.051 0.215,0.121 1.015,-0.223 1.426,-0.926 0.132,-0.234 0.222,-0.484 0.265,-0.726 -0.137,-0.165 -0.344,-0.348 -0.621,-0.512 -0.281,-0.16 -0.559,-0.238 -0.777,-0.278 -0.18,0.161 -0.348,0.356 -0.477,0.586 -0.293,0.504 -0.328,1.094 -0.238,1.434 m 3.293,-0.832 c -0.141,0.246 -0.379,0.391 -0.637,0.391 -0.015,0 -0.066,-0.004 -0.082,-0.008 -0.019,0 -0.039,-0.016 -0.059,-0.024 -0.042,0.094 -0.089,0.184 -0.14,0.274 -0.492,0.855 -1.481,1.402 -2.11,1.211 -0.089,0.047 -0.23,0.097 -0.371,0.011 -0.144,-0.082 -0.175,-0.218 -0.179,-0.324 -0.141,-0.125 -0.242,-0.308 -0.305,-0.543 -0.156,-0.574 -0.039,-1.316 0.297,-1.898 0.051,-0.086 0.109,-0.172 0.168,-0.254 -0.016,-0.016 -0.035,-0.02 -0.047,-0.039 -0.105,-0.133 -0.234,-0.457 -0.027,-0.813 0.297,-0.515 0.824,-0.808 1.449,-0.808 0.387,0 0.781,0.109 1.148,0.32 0.039,-0.043 0.082,-0.082 0.141,-0.133 0.156,-0.137 0.332,-0.242 0.516,-0.32 0.039,-0.016 0.078,-0.024 0.117,-0.024 0.121,0 0.234,0.071 0.285,0.188 0.062,0.156 -0.012,0.336 -0.168,0.402 -0.125,0.051 -0.242,0.125 -0.348,0.215 -0.023,0.02 -0.039,0.035 -0.054,0.047 0.621,0.598 0.804,1.438 0.406,2.129"
                 style="fill:#ffffff;fill-opacity:1;fill-rule:nonzero;stroke:none"
                 id="path64"
                 inkscape:connector-curvature="0" /><path
                 d="M 98.055,31.57 C 97.879,31.273 97.426,30.887 96.859,30.746 96.602,30.68 96.34,30.66 96.094,30.688 c -0.117,0.175 -0.242,0.429 -0.324,0.746 -0.075,0.308 -0.086,0.582 -0.067,0.796 0.207,0.137 0.445,0.254 0.707,0.321 0.789,0.195 1.594,-0.137 1.656,-0.375 0.012,-0.063 0.039,-0.114 0.075,-0.149 -0.012,-0.05 -0.016,-0.105 0.004,-0.168 0.011,-0.05 -0.008,-0.148 -0.09,-0.289 m -3.469,-0.433 c -0.098,0.383 -0.074,0.761 0.062,1.062 0.082,0.18 0.239,0.403 0.532,0.524 -0.125,-0.383 -0.129,-0.93 -0.004,-1.438 0.121,-0.476 0.379,-0.976 0.679,-1.265 -0.578,-0.067 -1.093,0.402 -1.269,1.117 m 4.019,1.328 c -0.293,0.586 -1.382,0.914 -2.343,0.68 -0.098,-0.028 -0.196,-0.059 -0.293,-0.094 -0.008,0.019 -0.012,0.043 -0.024,0.062 -0.109,0.157 -0.418,0.336 -0.773,0.25 -0.484,-0.125 -0.863,-0.445 -1.078,-0.906 -0.121,-0.262 -0.172,-0.559 -0.172,-0.867 -0.024,0 -0.043,0.004 -0.07,0.008 -0.145,0.011 -0.274,0.043 -0.395,0.097 -0.156,0.071 -0.336,0 -0.406,-0.152 -0.071,-0.156 0,-0.336 0.156,-0.406 0.184,-0.082 0.383,-0.133 0.59,-0.153 0.078,-0.004 0.137,-0.011 0.195,-0.011 0,0 0,0 0.004,0 0.238,-0.942 0.942,-1.575 1.754,-1.575 0.133,0 0.266,0.02 0.398,0.051 0.403,0.102 0.547,0.414 0.567,0.586 0.004,0.02 -0.004,0.039 -0.004,0.059 0.098,0.015 0.199,0.031 0.297,0.058 0.652,0.164 1.269,0.598 1.574,1.106 0.121,0.203 0.184,0.406 0.176,0.594 0.066,0.07 0.152,0.187 0.113,0.343 -0.039,0.164 -0.164,0.235 -0.266,0.27"
                 style="fill:#ffffff;fill-opacity:1;fill-rule:nonzero;stroke:none"
                 id="path66"
                 inkscape:connector-curvature="0" /><path
                 d="m 76.793,19.59 c 0.336,-0.203 0.848,-0.332 1.395,-0.332 h 0.003 c 0.532,0.008 1.051,0.152 1.387,0.367 -0.078,-0.566 -0.633,-0.969 -1.379,-0.977 h -0.031 c -0.633,0 -1.277,0.321 -1.375,0.942 m 0.937,2.527 c 0.114,0.113 0.208,0.156 0.254,0.156 0.063,0 0.118,0.016 0.161,0.043 0.043,-0.023 0.089,-0.035 0.148,-0.035 0.004,0 0.008,0 0.012,0 0.254,0 0.781,-0.695 0.793,-1.504 0.004,-0.273 -0.047,-0.531 -0.129,-0.765 -0.203,-0.074 -0.481,-0.137 -0.817,-0.141 -0.308,0 -0.57,0.055 -0.765,0.121 -0.09,0.231 -0.145,0.488 -0.149,0.758 -0.008,0.582 0.25,1.117 0.492,1.367 m 1.102,-4.062 c -0.012,0.027 -0.02,0.05 -0.023,0.07 0.828,0.219 1.402,0.859 1.39,1.66 -0.004,0.414 -0.277,0.625 -0.437,0.684 -0.02,0.008 -0.043,0.004 -0.063,0.008 0.008,0.101 0.012,0.203 0.012,0.308 -0.016,0.985 -0.609,1.949 -1.254,2.09 -0.055,0.078 -0.148,0.187 -0.312,0.187 -0.165,-0.003 -0.262,-0.101 -0.321,-0.195 -0.183,-0.043 -0.363,-0.152 -0.531,-0.324 -0.414,-0.422 -0.676,-1.133 -0.668,-1.801 0.004,-0.105 0.008,-0.207 0.02,-0.304 -0.016,-0.004 -0.036,-0.004 -0.055,-0.008 -0.16,-0.067 -0.426,-0.285 -0.422,-0.7 0.012,-0.964 0.871,-1.695 2,-1.695 h 0.027 c 0.016,-0.055 0.032,-0.109 0.059,-0.187 0.074,-0.2 0.172,-0.375 0.297,-0.532 0.058,-0.074 0.148,-0.113 0.238,-0.113 0.066,0 0.137,0.02 0.191,0.067 0.133,0.105 0.153,0.296 0.047,0.429 -0.082,0.102 -0.148,0.223 -0.195,0.356"
                 style="fill:#ffffff;fill-opacity:1;fill-rule:nonzero;stroke:none"
                 id="path68"
                 inkscape:connector-curvature="0" /><path
                 d="m 84.23,14.02 c -0.035,-0.04 -0.066,-0.086 -0.082,-0.145 -0.011,-0.051 -0.074,-0.129 -0.214,-0.211 -0.305,-0.172 -0.883,-0.289 -1.45,-0.133 -0.257,0.067 -0.492,0.188 -0.695,0.328 -0.016,0.215 0,0.493 0.082,0.801 0.086,0.313 0.215,0.559 0.336,0.738 0.246,0.016 0.508,-0.003 0.77,-0.074 0.781,-0.215 1.324,-0.898 1.261,-1.136 C 84.219,14.125 84.219,14.07 84.23,14.02 m -2.976,-0.633 c -0.195,0.082 -0.352,0.226 -0.461,0.414 -0.184,0.32 -0.219,0.75 -0.102,1.183 0.18,0.657 0.653,1.098 1.176,1.098 0.039,0 0.078,-0.004 0.117,-0.008 -0.308,-0.285 -0.574,-0.781 -0.703,-1.254 -0.136,-0.504 -0.144,-1.05 -0.027,-1.433 m 1.883,2.527 c -0.098,0.027 -0.199,0.047 -0.301,0.063 0.004,0.023 0.012,0.043 0.012,0.066 -0.02,0.168 -0.157,0.488 -0.555,0.594 -0.141,0.039 -0.285,0.058 -0.426,0.058 -0.629,0 -1.195,-0.383 -1.535,-0.988 -0.016,0.008 -0.031,0.02 -0.059,0.035 -0.113,0.078 -0.211,0.172 -0.293,0.281 -0.101,0.137 -0.296,0.165 -0.429,0.063 -0.137,-0.106 -0.164,-0.297 -0.059,-0.43 0.121,-0.164 0.27,-0.304 0.442,-0.422 0.066,-0.043 0.117,-0.074 0.164,-0.101 -0.157,-0.586 -0.098,-1.18 0.164,-1.637 0.215,-0.375 0.55,-0.637 0.968,-0.75 0.075,-0.019 0.149,-0.027 0.223,-0.027 0.27,0 0.469,0.14 0.559,0.261 0.011,0.016 0.015,0.036 0.023,0.055 0.094,-0.039 0.192,-0.07 0.289,-0.097 0.231,-0.063 0.477,-0.094 0.719,-0.094 0.437,0 0.863,0.101 1.195,0.289 0.207,0.121 0.356,0.265 0.446,0.433 0.089,0.028 0.222,0.09 0.265,0.25 0.047,0.157 -0.027,0.278 -0.101,0.36 0.035,0.652 -0.754,1.476 -1.711,1.738"
                 style="fill:#ffffff;fill-opacity:1;fill-rule:nonzero;stroke:none"
                 id="path70"
                 inkscape:connector-curvature="0" /><path
                 d="m 77.438,14.02 c -0.254,-0.473 -0.778,-0.747 -1.442,-0.747 -0.058,0 -0.117,0.004 -0.184,0.008 -0.105,0.008 -0.207,0.012 -0.304,0.012 -0.356,0 -1.442,0 -1.856,-1.113 -0.277,-0.742 0.5,-1.114 1.067,-1.383 0.328,-0.16 0.824,-0.399 0.879,-0.602 0.027,-0.097 -0.071,-0.254 -0.118,-0.32 -0.398,-0.523 -0.886,-0.797 -1.406,-0.797 -0.449,0 -0.918,0.203 -1.324,0.578 -0.074,0.067 -0.148,0.137 -0.223,0.207 -0.507,0.481 -1.035,0.977 -1.656,0.977 -0.246,0 -0.473,-0.078 -0.68,-0.235 C 69.598,10.152 69.879,9.469 70.047,9.062 70.141,8.836 70.258,8.551 70.203,8.434 70.168,8.359 70.031,8.273 69.832,8.207 69.656,8.148 69.484,8.117 69.324,8.117 c -0.59,0 -0.969,0.414 -1.219,0.688 l -0.054,0.058 c -0.094,0.098 -0.176,0.192 -0.254,0.282 -0.367,0.41 -0.711,0.8 -1.301,0.8 -0.094,0 -0.195,-0.011 -0.293,-0.031 -0.527,-0.113 -0.601,-0.629 -0.648,-0.937 -0.02,-0.11 -0.051,-0.317 -0.09,-0.356 0,0 -0.059,-0.019 -0.156,-0.008 -0.321,0.035 -0.778,0.332 -1.2,1.496 0.231,0.036 0.473,0.071 0.731,0.114 3.918,0.691 9.469,3.332 9.566,3.621 0.008,0.019 0.012,0.043 0.008,0.066 -0.004,0.016 -0.008,0.031 -0.012,0.047 -0.007,0.016 -0.015,0.027 -0.027,0.039 -0.027,0.031 -0.07,0.051 -0.113,0.051 -0.043,0 -0.043,0 -0.485,-0.176 -1.41,-0.555 -5.699,-2.25 -9.089,-2.844 -0.258,-0.043 -0.493,-0.082 -0.719,-0.117 -0.004,1.336 0.304,1.75 0.5,1.875 0.027,0.016 0.047,0.027 0.051,0.031 0.058,-0.046 0.148,-0.191 0.207,-0.281 0.183,-0.293 0.437,-0.723 0.972,-0.605 0.824,0.183 0.922,0.902 1.02,1.593 l 0.051,0.34 c 0.089,0.614 0.218,1.176 0.804,1.344 0.27,0.074 0.348,0.07 0.559,-0.621 0.14,-0.469 0.332,-1.113 1.004,-1.168 0.304,-0.023 0.558,0.07 0.758,0.266 0.417,0.425 0.417,1.211 0.414,1.906 v 0.238 c 0.003,1.613 0.824,1.613 1.132,1.613 0.094,0 0.192,-0.003 0.321,-0.023 0.191,-0.016 0.238,-0.074 0.258,-0.098 0.148,-0.183 0.082,-0.73 0.031,-1.129 -0.078,-0.636 -0.168,-1.355 0.441,-1.605 0.188,-0.078 0.375,-0.117 0.559,-0.117 0.769,0 1.23,0.683 1.508,1.191 0.32,0.574 0.777,0.891 1.293,0.891 0.515,0 1.031,-0.328 1.414,-0.899 0.363,-0.547 0.425,-1.156 0.172,-1.632 m -1.586,3.449 c -0.852,0 -1.614,-0.496 -2.098,-1.364 -0.262,-0.484 -0.492,-0.718 -0.703,-0.718 -0.043,0 -0.086,0.008 -0.133,0.023 -0.02,0.141 0.02,0.453 0.047,0.668 0.074,0.625 0.164,1.332 -0.235,1.82 -0.207,0.258 -0.507,0.403 -0.867,0.434 -1.547,0.211 -2.465,-0.727 -2.472,-2.5 v -0.246 c 0,-0.34 0.004,-1.129 -0.172,-1.258 -0.067,0.055 -0.157,0.348 -0.207,0.524 -0.149,0.484 -0.391,1.3 -1.258,1.3 -0.133,0 -0.281,-0.019 -0.434,-0.062 -1.203,-0.344 -1.375,-1.524 -1.461,-2.094 l -0.05,-0.344 c -0.075,-0.543 -0.118,-0.714 -0.204,-0.785 -0.035,0.047 -0.074,0.11 -0.105,0.156 -0.176,0.286 -0.449,0.715 -0.961,0.715 -0.187,0 -0.375,-0.058 -0.566,-0.179 -0.899,-0.579 -0.942,-2.067 -0.922,-2.809 -2.028,-0.375 -2.02,-0.531 -2.008,-0.672 0.004,-0.016 0.004,-0.027 0.008,-0.035 0,-0.023 0,-0.047 0.008,-0.066 0.046,-0.149 0.238,-0.161 0.445,-0.161 0.328,0 0.894,0.055 1.684,0.161 0.476,-1.415 1.156,-2.184 2.023,-2.278 0.062,-0.004 0.117,-0.008 0.172,-0.008 0.906,0 1.027,0.805 1.078,1.149 0.008,0.058 0.019,0.133 0.031,0.187 h 0.004 c 0.168,0 0.324,-0.168 0.613,-0.492 0.086,-0.097 0.176,-0.199 0.27,-0.301 l 0.051,-0.05 c 0.293,-0.321 0.902,-0.985 1.894,-0.985 0.258,0 0.531,0.047 0.805,0.141 0.465,0.156 0.762,0.39 0.91,0.715 0.219,0.48 0.02,0.965 -0.141,1.355 -0.062,0.149 -0.164,0.399 -0.156,0.461 0.059,0.043 0.098,0.051 0.129,0.051 0.258,0 0.699,-0.418 1.024,-0.727 0.078,-0.074 0.156,-0.148 0.234,-0.215 0.578,-0.531 1.269,-0.82 1.945,-0.82 0.571,0 1.403,0.199 2.149,1.172 0.265,0.379 0.355,0.75 0.261,1.098 -0.16,0.613 -0.8,0.922 -1.367,1.195 -0.187,0.09 -0.461,0.219 -0.574,0.309 0.125,0.273 0.352,0.441 0.965,0.441 0.082,0 0.164,-0.004 0.246,-0.012 1.121,-0.078 2.047,0.391 2.492,1.223 0.418,0.777 0.336,1.742 -0.219,2.574 -0.55,0.832 -1.347,1.309 -2.175,1.309"
                 style="fill:#ffffff;fill-opacity:1;fill-rule:nonzero;stroke:none"
                 id="path72"
                 inkscape:connector-curvature="0" /><path
                 d="m 92.508,24.266 c -0.184,-1.243 -0.977,-1.817 -2.196,-1.5 -0.109,0.027 -0.226,0.054 -0.339,0.086 -0.403,0.105 -0.817,0.21 -1.2,0.21 -0.757,0 -1.043,-0.449 -1.14,-0.714 -0.266,-0.676 0.277,-1.106 0.637,-1.391 0.187,-0.148 0.421,-0.332 0.433,-0.469 0.012,-0.086 -0.062,-0.226 -0.176,-0.371 -0.277,-0.301 -0.593,-0.449 -0.968,-0.449 -0.309,0 -0.598,0.098 -0.809,0.168 l -0.09,0.031 c -0.113,0.035 -0.215,0.071 -0.316,0.106 -0.336,0.121 -0.629,0.226 -0.934,0.226 -0.316,0 -0.601,-0.121 -0.84,-0.347 -0.382,-0.356 -0.195,-0.84 -0.082,-1.129 0.039,-0.106 0.114,-0.297 0.106,-0.348 -0.008,-0.008 -0.039,-0.039 -0.114,-0.07 -0.418,-0.16 -1,0.074 -1.71,0.672 0.418,0.347 0.921,0.785 1.507,1.324 2.946,2.621 6.321,7.773 6.266,8.074 -0.008,0.051 -0.047,0.098 -0.098,0.117 -0.015,0.008 -0.035,0.012 -0.054,0.012 -0.082,0 -0.082,0 -0.356,-0.363 -2.449,-3.258 -4.574,-5.692 -6.316,-7.239 -0.621,-0.57 -1.094,-1.007 -1.461,-1.351 -0.719,1.238 -0.598,1.726 -0.5,1.89 0.012,0.024 0.023,0.043 0.027,0.051 0.07,-0.015 0.207,-0.086 0.293,-0.133 0.192,-0.101 0.406,-0.214 0.649,-0.214 0.179,0 0.343,0.062 0.484,0.191 0.574,0.555 0.332,1.195 0.101,1.812 l -0.128,0.344 c -0.211,0.551 -0.364,1.082 0.089,1.524 0.094,0.105 0.161,0.14 0.192,0.14 0.117,0 0.363,-0.234 0.523,-0.39 0.289,-0.278 0.614,-0.598 1.043,-0.598 0.137,0 0.27,0.035 0.399,0.102 0.242,0.125 0.41,0.328 0.484,0.578 0.176,0.582 -0.211,1.265 -0.547,1.871 l -0.078,0.144 c -0.312,0.594 -0.406,1.098 -0.273,1.453 0.097,0.266 0.328,0.461 0.707,0.614 0.078,0.031 0.152,0.05 0.207,0.05 0.258,0 0.461,-0.527 0.625,-0.945 0.218,-0.551 0.465,-1.18 1.07,-1.18 l 0.086,0.008 c 0.855,0.11 1.297,0.742 1.312,1.899 -0.023,0.496 0.102,0.898 0.36,1.172 0.418,0.437 1.183,0.476 1.926,0.093 0.566,-0.289 0.89,-0.761 0.894,-1.297 0,-0.566 -0.371,-1.097 -0.973,-1.414 -0.742,-0.332 -1.574,-0.855 -1.398,-1.941 0.063,-0.473 0.441,-0.711 1.133,-0.711 0.14,0 0.293,0.008 0.449,0.016 0.152,0.008 0.305,0.015 0.457,0.015 0.43,0 0.563,-0.074 0.602,-0.121 0.039,-0.047 0.05,-0.16 0.035,-0.308 m -0.637,1.347 c -0.168,0 -0.336,-0.011 -0.5,-0.019 -0.273,-0.012 -0.543,-0.016 -0.641,0 -0.023,0.265 0.082,0.531 0.903,0.894 0.933,0.492 1.492,1.328 1.488,2.246 -0.004,0.875 -0.523,1.664 -1.391,2.11 -1.101,0.57 -2.32,0.449 -3.011,-0.278 -0.438,-0.457 -0.649,-1.097 -0.614,-1.816 -0.011,-0.812 -0.261,-0.934 -0.425,-0.965 -0.082,0.11 -0.192,0.391 -0.27,0.586 -0.25,0.645 -0.598,1.527 -1.48,1.527 -0.176,0 -0.368,-0.043 -0.551,-0.117 -0.621,-0.246 -1.031,-0.629 -1.223,-1.144 -0.23,-0.614 -0.125,-1.356 0.321,-2.207 l 0.089,-0.157 c 0.133,-0.242 0.539,-0.968 0.446,-1.175 -0.098,0.047 -0.274,0.218 -0.387,0.328 -0.297,0.289 -0.668,0.648 -1.16,0.648 -0.317,0 -0.61,-0.148 -0.856,-0.422 -0.894,-0.875 -0.468,-2.004 -0.285,-2.484 l 0.129,-0.344 c 0.168,-0.449 0.215,-0.621 0.188,-0.722 -0.043,0.023 -0.094,0.046 -0.133,0.07 -0.203,0.105 -0.457,0.242 -0.742,0.242 -0.239,0 -0.571,-0.094 -0.809,-0.519 -0.586,-1 0.297,-2.469 0.621,-2.997 -0.523,-0.519 -0.508,-0.574 -0.48,-0.66 0.007,-0.023 0.019,-0.054 0.054,-0.078 0.012,-0.023 0.024,-0.039 0.039,-0.055 0.028,-0.019 0.102,-0.043 0.137,-0.043 0.133,0 0.367,0.118 0.695,0.344 0.442,-0.394 1.293,-1.066 2.188,-1.066 0.211,0 0.414,0.035 0.613,0.113 0.985,0.41 0.645,1.277 0.52,1.602 -0.024,0.054 -0.051,0.129 -0.071,0.187 0.055,0.035 0.098,0.039 0.137,0.039 0.145,0 0.367,-0.078 0.629,-0.172 0.102,-0.039 0.215,-0.078 0.336,-0.117 l 0.082,-0.027 c 0.258,-0.086 0.645,-0.215 1.102,-0.215 0.636,0 1.187,0.25 1.66,0.766 0.304,0.371 0.433,0.718 0.398,1.07 -0.055,0.516 -0.457,0.836 -0.777,1.094 -0.125,0.097 -0.336,0.261 -0.352,0.34 0.024,0.058 0.047,0.125 0.285,0.125 0.266,0 0.622,-0.09 0.965,-0.18 0.125,-0.035 0.246,-0.067 0.352,-0.09 0.281,-0.074 0.558,-0.113 0.824,-0.113 1.332,0 2.289,0.91 2.5,2.379 0.059,0.433 -0.027,0.785 -0.254,1.039 -0.336,0.382 -0.863,0.433 -1.289,0.433"
                 style="fill:#ffffff;fill-opacity:1;fill-rule:nonzero;stroke:none"
                 id="path74"
                 inkscape:connector-curvature="0" /><path
                 d="m 100.371,43.539 c -0.215,-0.418 -0.641,-0.734 -1.199,-0.894 -0.094,-0.028 -0.195,-0.055 -0.293,-0.083 -0.809,-0.218 -1.914,-0.519 -1.82,-1.582 0.074,-0.726 0.793,-0.843 1.222,-0.914 0.223,-0.035 0.528,-0.086 0.598,-0.187 0.016,-0.024 0.066,-0.125 0.004,-0.418 -0.188,-0.832 -0.781,-1.016 -1.371,-1.133 l -0.078,-0.016 c -0.129,-0.023 -0.25,-0.046 -0.368,-0.066 -0.601,-0.105 -1.222,-0.211 -1.468,-0.945 -0.176,-0.5 0.218,-0.832 0.453,-1.028 0.082,-0.07 0.238,-0.199 0.254,-0.25 0,0 -0.004,-0.043 -0.075,-0.132 -0.171,-0.223 -0.5,-0.336 -0.976,-0.336 -0.324,0 -0.645,0.05 -0.887,0.101 0.188,0.469 0.418,1.071 0.707,1.86 1.364,3.925 1.68,9.898 1.531,10.101 l -0.125,0.067 c -0.148,0 -0.148,0 -0.285,-0.957 -0.254,-1.778 -0.847,-5.938 -1.898,-8.95 -0.281,-0.769 -0.488,-1.363 -0.641,-1.832 -1.129,0.684 -1.316,1.149 -1.32,1.375 0,0.024 0,0.043 0,0.055 0.074,0.02 0.23,0.02 0.328,0.023 0.313,0.004 0.836,0.008 1.012,0.508 0.265,0.789 -0.281,1.239 -0.805,1.676 l -0.262,0.215 c -0.464,0.387 -0.867,0.781 -0.711,1.351 0.071,0.247 0.141,0.247 0.243,0.247 0.148,0 0.351,-0.051 0.543,-0.102 0.238,-0.063 0.48,-0.129 0.722,-0.129 0.422,0 0.656,0.203 0.778,0.371 0.168,0.227 0.23,0.485 0.179,0.742 -0.117,0.594 -0.797,1.004 -1.398,1.368 l -0.192,0.117 c -0.562,0.347 -0.89,0.726 -0.945,1.086 -0.043,0.277 0.074,0.582 0.371,0.929 0.121,0.164 0.199,0.164 0.235,0.164 0.234,0 0.628,-0.316 0.918,-0.55 0.394,-0.321 0.738,-0.594 1.128,-0.594 0.161,0 0.313,0.047 0.426,0.133 1.082,0.734 0.406,1.914 0.18,2.304 -0.305,0.516 -0.348,1.032 -0.121,1.446 0.254,0.468 0.824,0.761 1.527,0.789 h 0.078 c 0.625,0 1.121,-0.262 1.364,-0.715 0.257,-0.492 0.171,-1.113 -0.231,-1.699 -0.234,-0.332 -0.945,-1.344 -0.195,-2.379 0.152,-0.192 0.367,-0.297 0.613,-0.297 0.363,0 0.727,0.23 1.109,0.476 0.301,0.192 0.676,0.43 0.903,0.43 0.043,0 0.14,0 0.25,-0.25 0.203,-0.562 0.199,-1.078 -0.012,-1.496 m -6.816,-9.227 c 0.007,0.008 0.011,0.02 0.019,0.028 0.008,-0.008 0.016,-0.012 0.02,-0.02 z m 6.578,11.895 c -0.492,0 -0.973,-0.309 -1.395,-0.578 -0.172,-0.109 -0.418,-0.266 -0.554,-0.317 -0.137,0.231 -0.192,0.555 0.273,1.219 0.598,0.867 0.703,1.86 0.289,2.649 -0.398,0.758 -1.211,1.207 -2.176,1.207 h -0.113 c -1.027,-0.039 -1.887,-0.512 -2.301,-1.266 -0.383,-0.699 -0.332,-1.559 0.137,-2.348 0.414,-0.722 0.309,-0.921 0.156,-1.043 -0.129,0.059 -0.363,0.247 -0.523,0.375 -0.438,0.356 -0.934,0.754 -1.492,0.754 -0.262,0 -0.645,-0.093 -0.954,-0.511 -0.457,-0.536 -0.644,-1.086 -0.558,-1.641 0.098,-0.641 0.558,-1.223 1.367,-1.727 l 0.203,-0.121 c 0.278,-0.171 0.938,-0.566 0.965,-0.773 0,0 -0.016,-0.004 -0.051,-0.004 -0.121,0 -0.308,0.051 -0.484,0.098 -0.242,0.062 -0.512,0.132 -0.781,0.132 -0.563,0 -0.961,-0.324 -1.129,-0.917 -0.328,-1.188 0.578,-1.942 1.011,-2.301 l 0.262,-0.219 c 0.395,-0.328 0.52,-0.453 0.539,-0.555 -0.058,-0.004 -0.121,-0.004 -0.172,-0.004 -0.297,-0.004 -0.703,-0.011 -0.988,-0.3 -0.168,-0.18 -0.254,-0.418 -0.246,-0.715 0.023,-1.094 1.355,-1.918 1.957,-2.258 -0.195,-0.707 -0.145,-0.789 -0.102,-0.848 l 0.141,-0.074 0.02,0.008 0.039,-0.031 c 0.086,0 0.195,0.004 0.523,0.703 0.289,-0.071 0.762,-0.164 1.258,-0.164 0.777,0 1.355,0.234 1.707,0.699 0.637,0.836 -0.055,1.418 -0.316,1.641 -0.043,0.031 -0.098,0.078 -0.137,0.117 0.074,0.117 0.226,0.164 0.719,0.25 0.121,0.019 0.253,0.043 0.39,0.07 l 0.071,0.016 c 0.527,0.101 1.757,0.343 2.089,1.832 0.106,0.472 0.059,0.843 -0.136,1.133 -0.293,0.429 -0.805,0.511 -1.211,0.578 -0.157,0.027 -0.414,0.066 -0.457,0.097 -0.024,0.266 0.48,0.426 1.148,0.606 0.102,0.027 0.207,0.054 0.305,0.086 0.804,0.226 1.429,0.711 1.762,1.359 0.332,0.649 0.351,1.418 0.05,2.25 -0.297,0.688 -0.765,0.836 -1.105,0.836"
                 style="fill:#ffffff;fill-opacity:1;fill-rule:nonzero;stroke:none"
                 id="path76"
                 inkscape:connector-curvature="0" /><path
                 d="m 94.727,65.258 c 0.101,-0.047 0.207,-0.07 0.312,-0.07 0.535,0 0.824,0.539 1.109,1.054 0.172,0.32 0.461,0.848 0.657,0.848 0.027,0 0.113,-0.012 0.269,-0.137 0.469,-0.383 0.731,-0.828 0.75,-1.285 0.024,-0.465 -0.199,-0.949 -0.633,-1.375 -0.078,-0.078 -0.164,-0.16 -0.25,-0.246 -0.578,-0.559 -1.449,-1.402 -0.773,-2.242 0.184,-0.246 0.441,-0.375 0.75,-0.375 0.27,0 0.527,0.093 0.773,0.187 0.196,0.071 0.391,0.141 0.528,0.141 0.054,0 0.172,0 0.281,-0.375 0.238,-0.824 -0.195,-1.278 -0.66,-1.668 l -0.055,-0.043 c -0.094,-0.082 -0.183,-0.152 -0.269,-0.223 -0.485,-0.39 -0.989,-0.793 -0.84,-1.566 0.097,-0.516 0.601,-0.613 0.902,-0.672 0.11,-0.02 0.313,-0.059 0.348,-0.098 0.004,0 0.019,-0.039 0.004,-0.152 -0.032,-0.25 -0.278,-0.703 -1.508,-1.098 -0.067,0.512 -0.172,1.184 -0.34,2.078 -0.664,3.801 -3.332,9.563 -3.703,9.563 -0.043,0 -0.082,-0.016 -0.109,-0.043 -0.086,-0.086 -0.086,-0.086 0.285,-1.031 0.652,-1.66 2.183,-5.547 2.722,-8.649 0.161,-0.867 0.289,-1.523 0.391,-2.027 -1.313,0.043 -1.719,0.371 -1.84,0.57 -0.012,0.016 -0.019,0.031 -0.023,0.043 0.054,0.051 0.183,0.129 0.265,0.176 0.274,0.156 0.731,0.418 0.633,0.937 -0.152,0.805 -0.832,0.934 -1.484,1.059 l -0.367,0.07 c -0.594,0.114 -1.133,0.258 -1.27,0.836 -0.062,0.262 -0.078,0.332 0.625,0.516 0.445,0.113 1.121,0.285 1.18,0.973 0.011,0.273 -0.075,0.515 -0.25,0.707 -0.41,0.449 -1.203,0.48 -1.903,0.507 l -0.164,0.004 c -0.652,0.039 -1.117,0.215 -1.351,0.504 -0.176,0.223 -0.235,0.543 -0.168,0.949 0.039,0.227 0.094,0.336 0.461,0.336 0.218,0 0.484,-0.046 0.738,-0.089 0.266,-0.047 0.516,-0.094 0.746,-0.094 0.516,0 0.746,0.246 0.856,0.469 0.203,0.468 0.351,1.359 -0.95,2.093 -0.527,0.301 -0.82,0.727 -0.828,1.196 -0.008,0.527 0.344,1.058 0.942,1.425 0.672,0.407 1.422,0.348 1.863,-0.129 0.305,-0.332 0.445,-0.82 0.402,-1.382 -0.051,-0.61 -0.144,-1.742 0.946,-2.172 m -0.672,4.176 c -0.731,0.793 -1.973,0.925 -3.016,0.289 -0.879,-0.535 -1.394,-1.368 -1.383,-2.223 0.012,-0.797 0.485,-1.516 1.293,-1.977 0.68,-0.382 0.656,-0.675 0.598,-0.843 -0.016,0 -0.031,-0.004 -0.051,-0.004 -0.148,0 -0.363,0.039 -0.586,0.078 -0.281,0.051 -0.598,0.105 -0.898,0.105 -1.035,0 -1.301,-0.695 -1.367,-1.109 -0.11,-0.672 0.011,-1.234 0.359,-1.668 0.402,-0.504 1.082,-0.789 2.016,-0.848 l 0.179,-0.004 c 0.387,-0.015 1.11,-0.042 1.262,-0.21 0.004,0 0.004,-0.004 0.004,-0.008 -0.078,-0.059 -0.328,-0.125 -0.485,-0.164 -0.511,-0.129 -1.578,-0.403 -1.292,-1.61 0.281,-1.211 1.48,-1.433 1.996,-1.531 l 0.359,-0.07 c 0.473,-0.09 0.641,-0.137 0.711,-0.215 -0.047,-0.031 -0.098,-0.063 -0.141,-0.086 -0.258,-0.148 -0.609,-0.352 -0.711,-0.742 -0.058,-0.239 -0.011,-0.489 0.145,-0.75 0.59,-0.957 2.164,-1.012 2.82,-1.016 0.164,-0.68 0.227,-0.683 0.332,-0.683 0.02,0 0.035,0.003 0.051,0.007 0.043,0.004 0.129,0.036 0.16,0.075 0.039,0.046 0.117,0.148 0.098,0.707 1.437,0.425 2.226,1.066 2.332,1.91 0.137,1.035 -0.754,1.207 -1.09,1.269 -0.055,0.012 -0.125,0.024 -0.18,0.039 0.004,0.145 0.121,0.262 0.52,0.582 0.094,0.071 0.187,0.149 0.289,0.235 l 0.051,0.043 c 0.414,0.347 1.379,1.156 0.953,2.629 -0.254,0.855 -0.774,1.035 -1.164,1.035 -0.297,0 -0.586,-0.106 -0.84,-0.196 -0.168,-0.062 -0.356,-0.128 -0.484,-0.117 -0.149,0.192 0.222,0.578 0.683,1.028 0.094,0.086 0.184,0.175 0.262,0.254 0.617,0.601 0.937,1.335 0.902,2.062 -0.031,0.731 -0.41,1.406 -1.09,1.961 -0.281,0.227 -0.566,0.344 -0.847,0.344 -0.739,0 -1.141,-0.739 -1.465,-1.328 -0.098,-0.18 -0.235,-0.434 -0.332,-0.547 -0.27,0.133 -0.383,0.386 -0.313,1.218 0.067,0.821 -0.16,1.559 -0.64,2.079"
                 style="fill:#ffffff;fill-opacity:1;fill-rule:nonzero;stroke:none"
                 id="path78"
                 inkscape:connector-curvature="0" /><path
                 d="m 77.625,83.555 c 0.305,0.539 0.797,0.859 1.313,0.859 0.582,0 1.101,-0.402 1.394,-1.082 0.324,-0.707 0.785,-1.434 1.719,-1.434 0.058,0 0.117,0.004 0.176,0.008 0.773,0.071 0.765,0.93 0.761,1.559 -0.004,0.359 -0.008,0.898 0.141,1.047 0.012,0.008 0.043,0.043 0.164,0.043 0.051,0 0.102,-0.004 0.145,-0.012 0.617,-0.129 1.07,-0.41 1.312,-0.816 0.234,-0.391 0.27,-0.891 0.098,-1.454 -0.028,-0.109 -0.063,-0.222 -0.098,-0.339 -0.234,-0.766 -0.586,-1.93 0.41,-2.348 0.121,-0.055 0.25,-0.082 0.375,-0.082 0.473,0 0.789,0.367 1.043,0.664 0.16,0.184 0.36,0.414 0.484,0.414 0.04,0 0.153,-0.023 0.348,-0.207 0.602,-0.605 0.442,-1.215 0.227,-1.789 l -0.028,-0.07 c -0.039,-0.106 -0.078,-0.207 -0.117,-0.301 -0.226,-0.57 -0.457,-1.164 0.035,-1.781 0.102,-0.122 0.282,-0.266 0.578,-0.266 0.188,0 0.368,0.059 0.54,0.117 0.117,0.039 0.25,0.082 0.343,0.082 0.004,0 0.035,-0.023 0.078,-0.133 0.094,-0.242 0.102,-0.781 -0.832,-1.761 -0.308,0.418 -0.726,0.957 -1.296,1.656 -2.168,2.648 -5.918,5.297 -7.157,6.172 -0.539,0.429 -0.57,0.429 -0.633,0.429 h -0.062 l -0.098,-0.097 0.008,-0.071 c 0.008,-0.085 0.008,-0.085 0.563,-0.48 l 0.039,-0.023 c 1.433,-1.149 4.675,-3.965 6.714,-6.457 0.547,-0.676 0.969,-1.184 1.297,-1.567 -0.39,-0.199 -0.964,-0.449 -1.437,-0.449 -0.152,0 -0.274,0.027 -0.363,0.078 -0.02,0.012 -0.036,0.02 -0.047,0.027 0.023,0.075 0.101,0.207 0.152,0.289 0.16,0.27 0.43,0.723 0.102,1.122 -0.223,0.281 -0.512,0.425 -0.864,0.425 -0.297,0 -0.601,-0.105 -0.949,-0.222 L 83.824,75.18 c -0.222,-0.075 -0.527,-0.176 -0.82,-0.176 -0.281,0 -0.496,0.094 -0.688,0.308 -0.082,0.086 -0.128,0.165 -0.128,0.211 0.003,0.125 0.25,0.364 0.417,0.52 0.333,0.316 0.836,0.797 0.551,1.422 -0.176,0.359 -0.5,0.558 -0.914,0.558 -0.496,0 -1.051,-0.281 -1.543,-0.531 l -0.148,-0.074 c -0.403,-0.191 -0.77,-0.293 -1.071,-0.293 -0.3,0 -0.726,0.082 -0.964,0.824 -0.071,0.192 -0.036,0.27 -0.024,0.293 0.102,0.211 0.594,0.379 0.949,0.504 0.559,0.192 1.25,0.43 1.215,1.09 -0.043,0.621 -0.398,1.363 -1.851,1.371 -0.621,0.02 -1.09,0.258 -1.325,0.676 -0.253,0.449 -0.203,1.058 0.145,1.672 m -0.801,0.449 c -0.508,-0.895 -0.558,-1.832 -0.144,-2.574 0.394,-0.696 1.156,-1.114 2.109,-1.141 0.805,-0.004 0.918,-0.25 0.941,-0.437 C 79.617,79.777 79.336,79.68 79.141,79.613 78.574,79.418 77.93,79.195 77.664,78.637 77.523,78.34 77.52,78 77.648,77.652 c 0.45,-1.398 1.688,-1.832 3.309,-1.058 l 0.16,0.082 c 0.379,0.191 0.848,0.429 1.125,0.429 0.047,0 0.063,-0.003 0.074,-0.019 -0.039,-0.09 -0.23,-0.27 -0.343,-0.379 -0.309,-0.293 -0.692,-0.656 -0.703,-1.16 -0.008,-0.305 0.121,-0.598 0.375,-0.859 0.355,-0.399 0.812,-0.602 1.359,-0.602 0.441,0 0.844,0.133 1.113,0.223 l 0.383,0.129 c 0.312,0.105 0.578,0.207 0.711,0.164 -0.027,-0.051 -0.059,-0.106 -0.086,-0.149 -0.152,-0.258 -0.359,-0.605 -0.258,-1 0.063,-0.238 0.223,-0.433 0.485,-0.586 0.234,-0.133 0.507,-0.199 0.82,-0.199 0.723,0 1.492,0.348 2.058,0.656 0.434,-0.472 0.508,-0.476 0.575,-0.476 0.039,-0.008 0.086,0.011 0.121,0.043 l 0.047,0.007 0.043,0.086 c 0.031,0.071 0.078,0.18 -0.254,0.719 1.09,1.09 1.48,2.055 1.156,2.871 -0.242,0.617 -0.695,0.711 -0.945,0.711 -0.227,0 -0.438,-0.07 -0.621,-0.133 -0.051,-0.015 -0.118,-0.035 -0.168,-0.05 -0.071,0.136 -0.028,0.293 0.164,0.777 0.039,0.098 0.082,0.207 0.121,0.316 l 0.023,0.067 c 0.192,0.504 0.641,1.683 -0.441,2.773 -0.332,0.313 -0.656,0.465 -0.989,0.465 -0.546,0 -0.898,-0.406 -1.179,-0.734 -0.106,-0.121 -0.278,-0.325 -0.36,-0.336 -0.222,0.093 -0.085,0.617 0.106,1.238 0.035,0.125 0.074,0.246 0.101,0.352 0.243,0.804 0.176,1.558 -0.191,2.175 -0.375,0.633 -1.039,1.063 -1.93,1.25 -0.574,0.098 -0.957,-0.109 -1.132,-0.289 -0.415,-0.418 -0.411,-1.097 -0.407,-1.699 0.004,-0.203 0.004,-0.492 -0.023,-0.641 -0.289,0.004 -0.539,0.157 -0.875,0.887 -0.438,1.02 -1.274,1.629 -2.234,1.629 -0.852,0 -1.641,-0.496 -2.114,-1.328"
                 style="fill:#ffffff;fill-opacity:1;fill-rule:nonzero;stroke:none"
                 id="path80"
                 inkscape:connector-curvature="0" /><path
                 d="m 34.215,39.527 2.062,5.418 H 35.113 L 34.027,42.133 C 33.875,41.715 33.715,41.227 33.582,40.734 H 33.57 c -0.136,0.504 -0.281,0.981 -0.449,1.418 l -1.051,2.793 h -1.238 l 2.07,-5.418 z"
                 style="fill:#ffffff;fill-opacity:1;fill-rule:nonzero;stroke:none"
                 id="path82"
                 inkscape:connector-curvature="0" /><path
                 d="M 40.902,40.426 H 38.84 v 1.457 h 1.969 v 0.851 H 38.84 v 1.325 h 2.062 v 0.886 h -3.187 v -5.418 h 3.187 z"
                 style="fill:#ffffff;fill-opacity:1;fill-rule:nonzero;stroke:none"
                 id="path84"
                 inkscape:connector-curvature="0" /><path
                 d="m 44.934,39.527 v 4.457 h 1.5 v 0.961 h -4.125 v -0.961 h 1.5 v -4.457 z"
                 style="fill:#ffffff;fill-opacity:1;fill-rule:nonzero;stroke:none"
                 id="path86"
                 inkscape:connector-curvature="0" /><path
                 d="m 51.234,44.059 v 0.886 h -3.187 v -5.418 h 3.187 v 0.899 h -2.062 v 1.457 h 1.969 v 0.851 h -1.969 v 1.325 z"
                 style="fill:#ffffff;fill-opacity:1;fill-rule:nonzero;stroke:none"
                 id="path88"
                 inkscape:connector-curvature="0" /><path
                 d="m 56.684,42.059 -1.825,2.886 h -1.5 v -5.418 h 1.094 l -0.012,2.836 c 0,0.496 -0.007,0.832 -0.031,1.133 h 0.012 c 0.148,-0.324 0.344,-0.707 0.551,-1.031 l 1.867,-2.938 h 1.5 v 5.418 h -1.094 l 0.008,-2.386 c 0,-0.7 0.012,-1.219 0.031,-1.563 h -0.008 c -0.175,0.375 -0.386,0.731 -0.593,1.063"
                 style="fill:#ffffff;fill-opacity:1;fill-rule:nonzero;stroke:none"
                 id="path90"
                 inkscape:connector-curvature="0" /><path
                 d="m 61.684,40.363 c -0.457,0 -0.887,0.082 -1.2,0.207 l -0.043,-1.011 c 0.305,-0.071 0.743,-0.137 1.118,-0.137 1.382,0 2.343,0.723 2.343,1.824 0,1.699 -2.418,1.293 -2.418,2.219 0,0.406 0.301,0.676 0.989,0.676 0.312,0 0.742,-0.063 1.031,-0.157 l 0.043,0.961 c -0.301,0.051 -0.719,0.094 -1.031,0.094 -1.426,0 -2.219,-0.68 -2.219,-1.699 0,-1.762 2.387,-1.262 2.387,-2.219 0,-0.531 -0.493,-0.758 -1,-0.758"
                 style="fill:#ffffff;fill-opacity:1;fill-rule:nonzero;stroke:none"
                 id="path92"
                 inkscape:connector-curvature="0" /><path
                 d="m 65.871,44.945 v -5.418 h 1.125 v 2.543 l 2.008,-2.543 h 1.492 l -2.336,2.813 2.219,2.605 h -1.383 l -2,-2.418 v 2.418 z"
                 style="fill:#ffffff;fill-opacity:1;fill-rule:nonzero;stroke:none"
                 id="path94"
                 inkscape:connector-curvature="0" /><path
                 d="m 73.758,42.922 c 0.105,0.285 0.211,0.586 0.273,0.844 h 0.008 c 0.074,-0.25 0.18,-0.571 0.281,-0.852 l 0.563,-1.523 h -1.707 z m -0.852,-2.344 h 2.258 l 0.387,-1.051 h 1.25 l -2.043,5.418 h -1.32 l -2.055,-5.418 h 1.125 z"
                 style="fill:#ffffff;fill-opacity:1;fill-rule:nonzero;stroke:none"
                 id="path96"
                 inkscape:connector-curvature="0" /><path
                 d="m 80.031,42.184 c -0.148,0 -0.355,0.011 -0.48,0.043 v 1.832 c 0.148,0.011 0.344,0.011 0.551,0.011 0.699,0 1.054,-0.386 1.054,-0.918 0,-0.636 -0.429,-0.968 -1.125,-0.968 m 0.164,2.793 c -0.636,0 -1.312,-0.024 -1.769,-0.032 v -5.418 h 1.125 v 1.782 c 0.137,-0.008 0.344,-0.02 0.48,-0.02 1.375,0 2.321,0.75 2.321,1.938 0,1.093 -0.782,1.75 -2.157,1.75"
                 style="fill:#ffffff;fill-opacity:1;fill-rule:nonzero;stroke:none"
                 id="path98"
                 inkscape:connector-curvature="0" /><path
                 d="m 34.336,35.023 c 0.926,0 1.531,-0.636 1.531,-1.843 0,-1.211 -0.707,-1.793 -1.574,-1.793 -1.063,0 -1.5,0.812 -1.5,1.843 0,1.168 0.719,1.793 1.543,1.793 M 34.23,30.398 c 1.555,0 2.844,1.063 2.844,2.852 0,1.836 -1.094,2.75 -2.664,2.75 -1.5,0 -2.812,-1.07 -2.812,-2.852 0,-1.625 0.875,-2.75 2.632,-2.75"
                 style="fill:#ffffff;fill-opacity:1;fill-rule:nonzero;stroke:none"
                 id="path100"
                 inkscape:connector-curvature="0" /><path
                 d="m 41.043,30.418 c 0.531,0 1.012,0.082 1.461,0.242 l -0.094,0.996 c -0.324,-0.156 -0.73,-0.25 -1.137,-0.25 -1.074,0 -1.699,0.617 -1.699,1.782 0,1.074 0.574,1.843 1.637,1.843 0.375,0 0.762,-0.062 1.144,-0.187 l 0.106,0.988 c -0.363,0.106 -0.813,0.148 -1.168,0.148 -2.031,0 -2.914,-1.363 -2.914,-2.894 0,-1.648 0.894,-2.668 2.664,-2.668"
                 style="fill:#ffffff;fill-opacity:1;fill-rule:nonzero;stroke:none"
                 id="path102"
                 inkscape:connector-curvature="0" /><path
                 d="m 49.074,30.492 v 5.414 H 47.949 V 33.75 h -2.551 v 2.156 h -1.125 v -5.414 h 1.125 v 2.289 h 2.551 v -2.289 z"
                 style="fill:#ffffff;fill-opacity:1;fill-rule:nonzero;stroke:none"
                 id="path104"
                 inkscape:connector-curvature="0" /><path
                 d="m 55.016,33.031 2.011,-2.539 h 1.489 l -2.332,2.813 2.218,2.601 h -1.386 l -2,-2.414 v 2.414 h -1.125 v -5.414 h 1.125 z"
                 style="fill:#ffffff;fill-opacity:1;fill-rule:nonzero;stroke:none"
                 id="path106"
                 inkscape:connector-curvature="0" /><path
                 d="m 62.008,35.023 c 0.926,0 1.527,-0.636 1.527,-1.843 0,-1.211 -0.707,-1.793 -1.57,-1.793 -1.063,0 -1.5,0.812 -1.5,1.843 0,1.168 0.719,1.793 1.543,1.793 m -0.106,-4.625 c 1.551,0 2.844,1.063 2.844,2.852 0,1.836 -1.094,2.75 -2.668,2.75 -1.5,0 -2.812,-1.07 -2.812,-2.852 0,-1.625 0.875,-2.75 2.636,-2.75"
                 style="fill:#ffffff;fill-opacity:1;fill-rule:nonzero;stroke:none"
                 id="path108"
                 inkscape:connector-curvature="0" /><path
                 d="m 68.023,33.43 1.864,-2.938 h 1.5 v 5.414 h -1.094 l 0.012,-2.383 c 0,-0.699 0.007,-1.218 0.027,-1.562 h -0.008 c -0.176,0.375 -0.386,0.727 -0.594,1.062 l -1.824,2.883 h -1.5 V 30.492 H 67.5 l -0.008,2.832 c 0,0.5 -0.012,0.832 -0.031,1.137 h 0.008 c 0.148,-0.324 0.343,-0.711 0.554,-1.031"
                 style="fill:#ffffff;fill-opacity:1;fill-rule:nonzero;stroke:none"
                 id="path110"
                 inkscape:connector-curvature="0" /><path
                 d="m 74.68,31.324 c -0.461,0 -0.887,0.082 -1.2,0.207 l -0.042,-1.008 c 0.304,-0.074 0.742,-0.136 1.117,-0.136 1.383,0 2.343,0.718 2.343,1.824 0,1.695 -2.418,1.289 -2.418,2.215 0,0.41 0.301,0.679 0.989,0.679 0.312,0 0.742,-0.062 1.031,-0.156 l 0.043,0.957 C 76.242,35.961 75.824,36 75.512,36 c -1.426,0 -2.219,-0.676 -2.219,-1.695 0,-1.762 2.387,-1.262 2.387,-2.219 0,-0.531 -0.492,-0.762 -1,-0.762"
                 style="fill:#ffffff;fill-opacity:1;fill-rule:nonzero;stroke:none"
                 id="path112"
                 inkscape:connector-curvature="0" /><path
                 d="m 80.613,30.492 v 4.457 h 1.5 v 0.957 h -4.125 v -0.957 h 1.5 v -4.457 z"
                 style="fill:#ffffff;fill-opacity:1;fill-rule:nonzero;stroke:none"
                 id="path114"
                 inkscape:connector-curvature="0" /><path
                 d="m 38.629,51.254 -0.137,0.016 c -2.844,0.355 -2.859,0.918 -2.93,3.281 v 4.105 l 4.754,-5.168 c 1.813,-1.988 2.809,-3.082 5.45,-3.082 0.488,0 1.031,0.039 1.656,0.114 l 0.133,0.015 0.011,0.637 -0.148,0.008 c -1.586,0.066 -2.449,0.965 -4.172,2.75 -0.238,0.25 -0.488,0.511 -0.758,0.785 l -4.629,5.152 1.864,1.906 0.398,0.418 c 1.567,1.645 3.34,3.512 5.707,3.758 l 0.141,0.016 v 0.637 h -6.274 v -0.637 l 0.137,-0.016 c 0.621,-0.062 0.957,-0.207 1.051,-0.453 0.176,-0.461 -0.375,-1.398 -1.68,-2.867 l -3.641,-3.883 v 3.906 c 0.071,2.371 0.086,2.938 2.313,3.286 l 0.129,0.019 v 0.629 h -7.629 v -0.633 l 0.133,-0.015 c 2.64,-0.356 2.656,-0.918 2.722,-3.282 V 54.555 C 33.164,52.188 33.148,51.621 30.508,51.27 l -0.133,-0.016 v -0.633 h 8.254 z"
                 style="fill:#ffffff;fill-opacity:1;fill-rule:nonzero;stroke:none"
                 id="path116"
                 inkscape:connector-curvature="0" /><path
                 d="m 59.445,51.254 -0.133,0.016 c -2.976,0.355 -3.089,1.031 -3.089,3.832 V 65.59 h 1.23 c 2.719,0 3.828,-0.844 4.57,-3.473 l 0.039,-0.137 0.594,0.129 -0.297,4.5 H 47.742 l -0.285,-4.5 0.59,-0.129 0.043,0.137 c 0.738,2.629 1.851,3.473 4.57,3.473 h 1.231 V 55.102 c 0,-2.801 -0.114,-3.477 -3.09,-3.832 l -0.133,-0.016 v -0.633 h 8.777 z"
                 style="fill:#ffffff;fill-opacity:1;fill-rule:nonzero;stroke:none"
                 id="path118"
                 inkscape:connector-curvature="0" /><path
                 d="m 82.914,65.938 0.133,0.015 v 0.633 h -8.25 v -0.633 l 0.129,-0.015 c 2.933,-0.426 2.933,-0.809 2.933,-3.282 v -3.187 h -8.324 v 3.187 c 0,2.473 0,2.856 2.93,3.282 l 0.133,0.015 v 0.633 h -8.25 v -0.633 l 0.132,-0.015 c 2.637,-0.352 2.653,-0.918 2.723,-3.282 V 54.555 C 67.133,52.184 67.117,51.621 64.48,51.27 l -0.132,-0.016 v -0.633 h 8.25 v 0.629 l -0.133,0.02 c -2.93,0.425 -2.93,0.808 -2.93,3.281 v 3.644 h 8.324 v -3.644 c 0,-2.473 0,-2.856 -2.933,-3.281 l -0.129,-0.02 v -0.629 h 8.25 v 0.633 l -0.133,0.016 c -2.637,0.351 -2.652,0.914 -2.723,3.281 v 8.101 c 0.071,2.368 0.086,2.934 2.723,3.286"
                 style="fill:#ffffff;fill-opacity:1;fill-rule:nonzero;stroke:none"
                 id="path120"
                 inkscape:connector-curvature="0" /><path
                 d="m 37.25,91.539 c 0.66,0 1.195,-0.535 1.195,-1.191 0,-0.215 -0.062,-0.41 -0.164,-0.586 -0.043,0.004 -0.09,0.008 -0.136,0.008 -0.52,0 -0.985,-0.239 -1.297,-0.606 -0.371,0.227 -0.789,0.75 -0.789,1.184 0,0.656 0.535,1.191 1.191,1.191 m 0.066,2.09 c 0,0.496 0.403,0.898 0.899,0.898 0.496,0 0.902,-0.402 0.902,-0.898 0,-0.496 -0.406,-0.899 -0.902,-0.899 -0.496,0 -0.899,0.403 -0.899,0.899 m 2.657,2.973 c 0.351,0 0.632,-0.282 0.632,-0.633 0,-0.352 -0.281,-0.633 -0.632,-0.633 -0.352,0 -0.633,0.281 -0.633,0.633 0,0.351 0.281,0.633 0.633,0.633 m 5.804,1.109 c 0.028,-0.047 0.051,-0.094 0.082,-0.137 -0.824,-0.078 -1.472,-0.762 -1.472,-1.605 0,-0.602 0.332,-1.121 0.816,-1.399 -0.582,-0.336 -0.98,-0.965 -0.98,-1.687 0,-0.891 0.609,-1.645 1.433,-1.867 -0.027,-0.192 -0.027,-0.391 0.012,-0.59 0,0 0.031,-0.09 0.062,-0.168 -0.105,0 -0.21,0.019 -0.312,0 -0.906,-0.18 -1.5,-1.059 -1.32,-1.969 0.175,-0.902 1.058,-1.5 1.964,-1.32 0.692,0.133 1.196,0.679 1.321,1.332 0.039,-0.125 0.121,-0.465 0.137,-0.555 0.183,-0.934 -0.43,-1.844 -1.364,-2.023 -0.871,-0.172 -1.73,0.089 -2.347,0.64 -0.227,-0.793 -0.813,-1.476 -1.641,-1.801 -0.832,-0.324 -1.762,0.043 -2.16,0.825 0.101,0.09 0.195,0.191 0.277,0.301 1.383,-0.5 2.086,0.539 2.211,0.824 0.512,1.195 -0.273,2.433 -1.535,2.445 -0.406,0.004 -0.781,-0.145 -1.074,-0.379 -0.032,-0.023 -0.063,-0.047 -0.098,-0.066 -0.012,0.039 -0.105,0.652 -0.902,1.086 0.07,0.199 0.156,0.429 0.175,0.769 0.055,0.981 -0.062,1.34 0.61,2.875 0.824,1.68 2.629,3.363 6.105,4.469 m -3.656,0.301 c 0.285,0 0.52,-0.235 0.52,-0.52 0,-0.289 -0.235,-0.523 -0.52,-0.523 -0.289,0 -0.523,0.234 -0.523,0.523 0,0.285 0.234,0.52 0.523,0.52 m 2.301,0.949 c 0.226,0 0.414,-0.188 0.414,-0.418 0,-0.227 -0.188,-0.414 -0.414,-0.414 -0.231,0 -0.414,0.187 -0.414,0.414 0,0.23 0.183,0.418 0.414,0.418 m 1.586,-1.984 c 0.558,0 1.012,-0.454 1.012,-1.008 0,-0.559 -0.454,-1.012 -1.012,-1.012 -0.555,0 -1.008,0.453 -1.008,1.012 0,0.554 0.453,1.008 1.008,1.008 m 1.031,2.234 c 0.449,0 0.816,-0.371 0.816,-0.824 0,-0.453 -0.367,-0.821 -0.816,-0.821 -0.457,0 -0.824,0.368 -0.824,0.821 0,0.453 0.367,0.824 0.824,0.824 M 45.871,91.59 c -0.59,0.137 -1.035,0.664 -1.035,1.293 0,0.734 0.598,1.332 1.328,1.332 0.734,0 1.332,-0.598 1.332,-1.332 0,-0.16 -0.035,-0.317 -0.09,-0.461 -0.133,0.008 -0.273,0 -0.41,-0.027 -0.492,-0.094 -0.891,-0.399 -1.125,-0.805 m 2.809,-2.102 c 0,-0.609 -0.496,-1.101 -1.102,-1.101 -0.609,0 -1.101,0.492 -1.101,1.101 0,0.606 0.492,1.102 1.101,1.102 0.606,0 1.102,-0.496 1.102,-1.102 m 6.515,11.262 c 0.032,-0.02 0.067,-0.043 0.102,-0.059 -1.016,-2.535 -1.121,-8.203 -1.121,-8.203 l 0.597,-0.386 c -0.043,-0.153 -0.066,-0.313 -0.066,-0.481 0,0 0.012,-0.094 0.027,-0.176 -0.101,0.02 -0.203,0.059 -0.304,0.059 -0.926,0 -1.676,-0.754 -1.676,-1.676 0,-0.926 0.75,-1.676 1.676,-1.676 0.703,0 1.3,0.438 1.55,1.051 0.012,-0.129 0.028,-0.476 0.028,-0.566 0,-0.953 -0.774,-1.727 -1.727,-1.727 -0.886,0 -1.625,0.434 -2.125,1.09 -0.367,-0.742 -1.004,-1.301 -1.879,-1.473 -0.933,-0.183 -1.843,0.43 -2.027,1.364 -0.016,0.089 -0.066,0.433 -0.078,0.566 0.359,-0.559 1.031,-0.875 1.723,-0.738 0.906,0.179 1.5,1.062 1.324,1.965 -0.18,0.91 -1.063,1.504 -1.969,1.324 -0.098,-0.02 -0.188,-0.074 -0.281,-0.11 0,0.082 -0.004,0.172 -0.004,0.172 -0.082,0.414 -0.309,0.758 -0.613,1 l 0.246,0.426 c -0.977,2.024 -1.692,7.785 6.597,8.254 m -6.375,-0.203 c 0.328,0 0.598,-0.27 0.598,-0.602 0,-0.328 -0.27,-0.593 -0.598,-0.593 -0.332,0 -0.597,0.265 -0.597,0.593 0,0.332 0.265,0.602 0.597,0.602 m 1.938,0.945 c 0.262,0 0.48,-0.215 0.48,-0.48 0,-0.266 -0.218,-0.485 -0.48,-0.485 -0.266,0 -0.485,0.219 -0.485,0.485 0,0.265 0.219,0.48 0.485,0.48 m 2.199,0.52 c 0.211,0 0.383,-0.172 0.383,-0.387 0,-0.211 -0.172,-0.383 -0.383,-0.383 -0.215,0 -0.387,0.172 -0.387,0.383 0,0.215 0.172,0.387 0.387,0.387 m 1.707,0.914 h 1.281 c -0.285,-0.16 -0.476,-0.457 -0.476,-0.805 0,-0.074 0.011,-0.148 0.027,-0.219 -0.211,0 -0.41,-0.004 -0.562,-0.011 -0.172,0.269 -0.274,0.586 -0.274,0.925 0,0.039 0.004,0.075 0.004,0.11 m 1.309,1.558 V 103.57 H 54.84 c 0.222,0.442 0.644,0.797 1.133,0.914 m 0.422,-3.109 c 0.316,0 0.578,-0.258 0.578,-0.578 0,-0.317 -0.262,-0.574 -0.578,-0.574 -0.321,0 -0.579,0.257 -0.579,0.574 0,0.32 0.258,0.578 0.579,0.578 m 0,1.133 c 0.21,0 0.382,-0.172 0.382,-0.383 0,-0.215 -0.172,-0.387 -0.382,-0.387 -0.211,0 -0.383,0.172 -0.383,0.387 0,0.211 0.172,0.383 0.383,0.383 m 0.421,1.976 c 0.493,-0.117 0.914,-0.472 1.137,-0.914 h -1.137 z m 1.313,-1.558 c 0.004,-0.035 0.008,-0.071 0.008,-0.11 0,-0.339 -0.106,-0.656 -0.278,-0.925 -0.152,0.007 -0.351,0.011 -0.562,0.011 0.015,0.071 0.027,0.145 0.027,0.219 0,0.348 -0.195,0.645 -0.48,0.805 z m 6.066,-10.43 0.246,-0.426 c -0.304,-0.242 -0.531,-0.586 -0.613,-1 0,0 -0.004,-0.09 -0.004,-0.172 -0.094,0.036 -0.183,0.09 -0.281,0.11 -0.906,0.18 -1.789,-0.414 -1.965,-1.324 -0.18,-0.903 0.414,-1.786 1.32,-1.965 0.692,-0.137 1.364,0.179 1.723,0.738 -0.012,-0.133 -0.062,-0.477 -0.078,-0.566 -0.184,-0.934 -1.094,-1.547 -2.027,-1.364 -0.875,0.172 -1.512,0.731 -1.879,1.473 -0.5,-0.656 -1.239,-1.09 -2.125,-1.09 -0.953,0 -1.731,0.774 -1.731,1.727 0,0.09 0.016,0.437 0.028,0.566 0.25,-0.613 0.851,-1.051 1.554,-1.051 0.926,0 1.676,0.75 1.676,1.676 0,0.922 -0.75,1.676 -1.676,1.676 -0.101,0 -0.203,-0.039 -0.304,-0.059 0.015,0.082 0.027,0.176 0.027,0.176 0,0.168 -0.024,0.328 -0.066,0.481 l 0.597,0.386 c 0,0 -0.105,5.668 -1.121,8.203 0.035,0.016 0.066,0.039 0.102,0.059 8.289,-0.469 7.574,-6.23 6.597,-8.254 m -4.359,9.516 c 0.215,0 0.387,-0.172 0.387,-0.387 0,-0.211 -0.172,-0.383 -0.387,-0.383 -0.211,0 -0.383,0.172 -0.383,0.383 0,0.215 0.172,0.387 0.383,0.387 m 2.199,-0.52 c 0.27,0 0.485,-0.215 0.485,-0.48 0,-0.266 -0.215,-0.485 -0.485,-0.485 -0.262,0 -0.476,0.219 -0.476,0.485 0,0.265 0.214,0.48 0.476,0.48 m 1.938,-0.945 c 0.332,0 0.601,-0.27 0.601,-0.602 0,-0.328 -0.269,-0.593 -0.601,-0.593 -0.328,0 -0.598,0.265 -0.598,0.593 0,0.332 0.27,0.602 0.598,0.602 m 1.242,-9.957 c 0.609,0 1.101,-0.496 1.101,-1.102 0,-0.609 -0.492,-1.101 -1.101,-1.101 -0.606,0 -1.102,0.492 -1.102,1.101 0,0.606 0.496,1.102 1.102,1.102 m 0.539,8.621 c 0.457,0 0.824,-0.371 0.824,-0.824 0,-0.453 -0.367,-0.821 -0.824,-0.821 -0.449,0 -0.816,0.368 -0.816,0.821 0,0.453 0.367,0.824 0.816,0.824 m 2.039,-3.242 c 0,-0.559 -0.453,-1.012 -1.008,-1.012 -0.558,0 -1.012,0.453 -1.012,1.012 0,0.554 0.454,1.008 1.012,1.008 0.555,0 1.008,-0.454 1.008,-1.008 m -1.996,-3.574 c -0.137,0.027 -0.277,0.035 -0.41,0.027 -0.055,0.144 -0.086,0.301 -0.086,0.461 0,0.734 0.594,1.332 1.328,1.332 0.734,0 1.328,-0.598 1.328,-1.332 0,-0.629 -0.445,-1.156 -1.035,-1.293 -0.234,0.406 -0.633,0.711 -1.125,0.805 m 1.219,5.316 c 3.476,-1.106 5.281,-2.789 6.105,-4.469 0.672,-1.535 0.555,-1.894 0.609,-2.875 0.02,-0.34 0.106,-0.57 0.176,-0.769 -0.797,-0.434 -0.89,-1.047 -0.902,-1.086 -0.035,0.019 -0.066,0.043 -0.098,0.066 -0.293,0.234 -0.664,0.383 -1.07,0.379 -1.266,-0.012 -2.051,-1.25 -1.539,-2.445 0.125,-0.285 0.828,-1.324 2.211,-0.824 0.082,-0.11 0.176,-0.211 0.277,-0.301 -0.394,-0.782 -1.328,-1.149 -2.16,-0.825 -0.828,0.325 -1.41,1.008 -1.641,1.801 -0.617,-0.551 -1.476,-0.812 -2.347,-0.64 -0.934,0.179 -1.547,1.089 -1.364,2.023 0.016,0.09 0.102,0.43 0.137,0.555 0.125,-0.653 0.629,-1.199 1.32,-1.332 0.907,-0.18 1.79,0.418 1.965,1.32 0.18,0.91 -0.414,1.789 -1.32,1.969 -0.102,0.019 -0.207,0 -0.309,0 0.028,0.078 0.059,0.168 0.059,0.168 0.039,0.199 0.039,0.398 0.012,0.59 0.824,0.222 1.433,0.976 1.433,1.867 0,0.722 -0.394,1.351 -0.98,1.687 0.484,0.278 0.816,0.797 0.816,1.399 0,0.843 -0.648,1.527 -1.472,1.605 0.031,0.043 0.058,0.09 0.082,0.137 m 1.355,1.25 c 0.231,0 0.418,-0.188 0.418,-0.418 0,-0.227 -0.187,-0.414 -0.418,-0.414 -0.226,0 -0.414,0.187 -0.414,0.414 0,0.23 0.188,0.418 0.414,0.418 m 2.301,-0.949 c 0.289,0 0.523,-0.235 0.523,-0.52 0,-0.289 -0.234,-0.523 -0.523,-0.523 -0.285,0 -0.52,0.234 -0.52,0.523 0,0.285 0.235,0.52 0.52,0.52 m 2.148,-1.41 c 0.352,0 0.633,-0.282 0.633,-0.633 0,-0.352 -0.281,-0.633 -0.633,-0.633 -0.347,0 -0.632,0.281 -0.632,0.633 0,0.351 0.285,0.633 0.632,0.633 m 1.758,-2.075 c 0.496,0 0.899,-0.402 0.899,-0.898 0,-0.496 -0.403,-0.899 -0.899,-0.899 -0.496,0 -0.902,0.403 -0.902,0.899 0,0.496 0.406,0.898 0.902,0.898 m 0.965,-2.988 c 0.656,0 1.191,-0.535 1.191,-1.191 0,-0.434 -0.418,-0.957 -0.789,-1.184 -0.312,0.367 -0.777,0.606 -1.297,0.606 -0.046,0 -0.093,-0.004 -0.136,-0.008 -0.102,0.176 -0.164,0.371 -0.164,0.586 0,0.656 0.535,1.191 1.195,1.191 m -1.617,-5.93 c -0.614,0 -1.11,0.496 -1.11,1.11 0,0.301 0.122,0.57 0.313,0.769 0.199,0.211 0.484,0.344 0.801,0.344 0.476,0 0.882,-0.301 1.035,-0.723 0.047,-0.121 0.07,-0.254 0.07,-0.39 0,-0.614 -0.496,-1.11 -1.109,-1.11 m -17.535,9.606 c 0.75,0 1.359,-0.61 1.359,-1.356 0,-0.343 -0.125,-0.656 -0.336,-0.894 -0.285,0.215 -0.637,0.34 -1.019,0.34 -0.383,0 -0.739,-0.129 -1.02,-0.344 -0.211,0.238 -0.34,0.555 -0.34,0.898 0,0.746 0.606,1.356 1.356,1.356 m -0.852,3.828 c 0,0.473 0.383,0.855 0.856,0.855 0.472,0 0.855,-0.382 0.855,-0.855 0,-0.473 -0.383,-0.852 -0.855,-0.852 -0.473,0 -0.856,0.379 -0.856,0.852 m 0.856,-1.215 c 0.605,0 1.097,-0.488 1.097,-1.094 0,-0.601 -0.492,-1.093 -1.097,-1.093 -0.606,0 -1.094,0.492 -1.094,1.093 0,0.606 0.488,1.094 1.094,1.094 m 0,-8.59 c -0.61,0 -1.102,0.496 -1.102,1.102 0,0.609 0.492,1.101 1.102,1.101 0.609,0 1.101,-0.492 1.101,-1.101 0,-0.606 -0.492,-1.102 -1.101,-1.102 M 38.863,85.609 c -0.613,0 -1.109,0.496 -1.109,1.11 0,0.23 0.07,0.445 0.191,0.625 0.2,0.297 0.535,0.488 0.918,0.488 0.383,0 0.719,-0.191 0.918,-0.488 0.121,-0.18 0.192,-0.395 0.192,-0.625 0,-0.614 -0.496,-1.11 -1.11,-1.11 m -1.562,1.879 c -0.055,-0.113 -0.43,-0.902 0.125,-1.746 0.597,-0.922 1.621,-0.762 1.652,-0.758 0.707,-0.89 1.883,-1.953 2.844,-1.679 0,0 6.062,2.808 14.469,2.82 h 0.007 c 8.411,-0.012 14.473,-2.82 14.473,-2.82 0.961,-0.274 2.137,0.789 2.844,1.679 0.031,-0.004 1.055,-0.164 1.656,0.758 0.551,0.844 0.176,1.633 0.121,1.746 0.5,0.817 1.274,1.539 1.274,1.539 0.359,0.328 0.582,0.797 0.582,1.321 0,0.996 -0.809,1.804 -1.805,1.804 -0.082,0 -0.16,-0.007 -0.234,-0.015 -0.012,0.051 -0.032,0.101 -0.043,0.152 0.484,0.25 0.824,0.754 0.824,1.34 0,0.832 -0.68,1.508 -1.512,1.508 -0.277,0 -0.539,-0.078 -0.762,-0.211 -0.043,0.051 -0.086,0.101 -0.128,0.152 0.234,0.223 0.378,0.539 0.378,0.891 0,0.687 -0.558,1.246 -1.246,1.246 -0.422,0 -0.793,-0.211 -1.019,-0.535 -0.071,0.047 -0.141,0.093 -0.215,0.14 0.137,0.188 0.223,0.422 0.223,0.672 0,0.625 -0.508,1.133 -1.137,1.133 -0.488,0 -0.902,-0.316 -1.059,-0.754 -0.117,0.051 -0.238,0.102 -0.359,0.152 0.09,0.153 0.144,0.329 0.144,0.52 0,0.566 -0.46,1.031 -1.027,1.031 -0.512,0 -0.933,-0.379 -1.012,-0.871 -0.078,0.024 -0.148,0.047 -0.226,0.07 -0.172,0.602 -0.723,1.047 -1.379,1.047 -0.145,0 -0.285,-0.023 -0.414,-0.066 -0.055,0.043 -0.106,0.086 -0.16,0.125 0.004,0.023 0.004,0.047 0.004,0.066 0,0.668 -0.543,1.211 -1.211,1.211 -0.262,0 -0.504,-0.086 -0.703,-0.23 -0.047,0.019 -0.094,0.039 -0.141,0.054 0,0.012 0.004,0.02 0.004,0.032 0,0.601 -0.492,1.093 -1.098,1.093 -0.406,0 -0.762,-0.23 -0.949,-0.566 -0.082,0.016 -0.168,0.031 -0.258,0.047 0.004,0.016 0.008,0.027 0.008,0.039 0,0.551 -0.449,0.996 -1,0.996 -0.477,0 -0.875,-0.336 -0.973,-0.785 -0.093,0.008 -0.195,0.012 -0.293,0.019 0.121,0.282 0.188,0.594 0.188,0.922 0,0.903 -0.512,1.692 -1.262,2.086 0,0 -0.277,0.145 -0.676,0.223 v 1.801 h 1.012 c 0.031,0.039 0.102,0.175 0.102,0.422 0,0.242 -0.071,0.379 -0.102,0.421 H 56.82 v 1.008 c -0.043,0.035 -0.183,0.102 -0.425,0.102 -0.243,0 -0.383,-0.067 -0.422,-0.102 v -1.008 h -1.008 c -0.035,-0.042 -0.106,-0.179 -0.106,-0.421 0,-0.247 0.071,-0.383 0.106,-0.422 h 1.008 v -1.801 c -0.399,-0.078 -0.676,-0.223 -0.676,-0.223 -0.75,-0.394 -1.262,-1.183 -1.262,-2.086 0,-0.328 0.067,-0.64 0.188,-0.922 -0.098,-0.007 -0.2,-0.011 -0.293,-0.019 -0.098,0.449 -0.496,0.785 -0.973,0.785 -0.551,0 -1,-0.445 -1,-0.996 0,-0.012 0.004,-0.023 0.008,-0.039 -0.09,-0.016 -0.176,-0.031 -0.258,-0.047 -0.187,0.336 -0.543,0.566 -0.949,0.566 -0.606,0 -1.098,-0.492 -1.098,-1.093 0,-0.012 0.004,-0.02 0.004,-0.032 -0.047,-0.015 -0.094,-0.035 -0.141,-0.054 -0.199,0.144 -0.441,0.23 -0.703,0.23 -0.668,0 -1.211,-0.543 -1.211,-1.211 0,-0.019 0.004,-0.043 0.004,-0.066 -0.054,-0.039 -0.105,-0.082 -0.16,-0.125 -0.129,0.043 -0.269,0.066 -0.414,0.066 -0.656,0 -1.207,-0.445 -1.375,-1.047 -0.082,-0.023 -0.152,-0.046 -0.23,-0.07 -0.079,0.492 -0.5,0.871 -1.012,0.871 -0.567,0 -1.027,-0.465 -1.027,-1.031 0,-0.191 0.054,-0.367 0.144,-0.52 -0.121,-0.05 -0.238,-0.101 -0.355,-0.152 -0.161,0.438 -0.575,0.754 -1.063,0.754 -0.629,0 -1.137,-0.508 -1.137,-1.133 0,-0.25 0.086,-0.484 0.223,-0.672 -0.07,-0.047 -0.145,-0.093 -0.215,-0.14 -0.226,0.324 -0.597,0.535 -1.019,0.535 -0.688,0 -1.246,-0.559 -1.246,-1.246 0,-0.352 0.148,-0.668 0.382,-0.891 -0.047,-0.051 -0.089,-0.101 -0.132,-0.152 -0.223,0.133 -0.481,0.211 -0.762,0.211 -0.832,0 -1.512,-0.676 -1.512,-1.508 0,-0.586 0.34,-1.09 0.828,-1.34 -0.015,-0.051 -0.031,-0.101 -0.047,-0.152 -0.074,0.008 -0.152,0.015 -0.234,0.015 -0.992,0 -1.805,-0.808 -1.805,-1.804 0,-0.524 0.223,-0.993 0.582,-1.321 0,0 0.774,-0.722 1.274,-1.539"
                 style="fill:#ffffff;fill-opacity:1;fill-rule:nonzero;stroke:none"
                 id="path122"
                 inkscape:connector-curvature="0" /><path
                 d="m 68.664,78.641 c 0.16,0 0.309,0.097 0.367,0.254 0.074,0.203 -0.031,0.429 -0.23,0.503 -3.91,1.45 -8.039,2.184 -12.27,2.184 h -0.273 c -4.231,0 -8.356,-0.734 -12.266,-2.184 -0.203,-0.074 -0.304,-0.3 -0.23,-0.503 0.074,-0.204 0.3,-0.305 0.5,-0.231 3.824,1.418 7.859,2.137 11.996,2.137 h 0.273 c 4.141,0 8.172,-0.719 11.996,-2.137 0.047,-0.016 0.09,-0.023 0.137,-0.023"
                 style="fill:#ffffff;fill-opacity:1;fill-rule:nonzero;stroke:none"
                 id="path124"
                 inkscape:connector-curvature="0" /><path
                 d="m 68.68,81.781 c 0.492,0.082 1.031,0.168 1.3,0.215 0.09,-0.238 0.208,-0.558 0.301,-0.805 -0.23,-0.129 -0.527,-0.296 -0.754,-0.418 C 69.352,80.98 69,81.398 68.68,81.781 M 64.734,82.98 C 64.66,82.621 64.309,82.387 63.945,82.461 l -1.312,0.269 c -0.363,0.075 -0.594,0.43 -0.524,0.79 0.075,0.363 0.43,0.597 0.789,0.519 l 1.317,-0.269 c 0.363,-0.075 0.594,-0.43 0.519,-0.79 m -8.343,0.118 -1.371,0.785 1.375,0.789 1.378,-0.789 z M 50.16,82.73 48.844,82.461 c -0.36,-0.074 -0.715,0.16 -0.785,0.519 -0.079,0.36 0.152,0.715 0.515,0.79 l 1.317,0.269 c 0.363,0.078 0.714,-0.156 0.789,-0.519 0.074,-0.36 -0.16,-0.715 -0.52,-0.79 m -6.898,-1.957 c -0.223,0.122 -0.524,0.289 -0.754,0.418 0.094,0.247 0.215,0.567 0.301,0.805 0.273,-0.047 0.812,-0.133 1.304,-0.215 -0.32,-0.383 -0.675,-0.801 -0.851,-1.008 m 27.761,0.141 -0.566,1.524 -0.086,0.23 -0.734,-0.121 C 65.629,84.086 61.41,84.902 57.086,84.98 L 56.391,85.375 55.703,84.98 C 51.379,84.902 47.16,84.086 43.152,82.547 l -0.73,0.121 -0.086,-0.23 -0.57,-1.524 1.636,-0.906 0.528,0.625 c 3.718,1.394 7.625,2.148 11.629,2.238 l 0.832,-0.476 0.839,0.476 c 4.008,-0.09 7.915,-0.844 11.633,-2.238 l 0.528,-0.625 z"
                 style="fill:#ffffff;fill-opacity:1;fill-rule:nonzero;stroke:none"
                 id="path126"
                 inkscape:connector-curvature="0" /></g></g></g></g></g></g></svg>