<?xml version="1.0" encoding="UTF-8" standalone="no"?>
<!-- Created with Inkscape (http://www.inkscape.org/) -->

<svg
   xmlns:dc="http://purl.org/dc/elements/1.1/"
   xmlns:cc="http://creativecommons.org/ns#"
   xmlns:rdf="http://www.w3.org/1999/02/22-rdf-syntax-ns#"
   xmlns:svg="http://www.w3.org/2000/svg"
   xmlns="http://www.w3.org/2000/svg"
   xmlns:sodipodi="http://sodipodi.sourceforge.net/DTD/sodipodi-0.dtd"
   xmlns:inkscape="http://www.inkscape.org/namespaces/inkscape"
   width="677.14178"
   height="266.92886"
   viewBox="0 0 179.16043 70.624927"
   version="1.1"
   id="svg8"
   inkscape:version="0.92.5 (2060ec1f9f, 2020-04-08)"
   sodipodi:docname="nf-core_bytesize8_logo.svg"
   inkscape:export-filename="social_preview_image.png"
   inkscape:export-xdpi="96"
   inkscape:export-ydpi="96">
  <defs
     id="defs2">
    <clipPath
       id="d">
      <path
         inkscape:connector-curvature="0"
         id="path9"
         d="M 0,266 H 1022 V 0 H 0 Z" />
    </clipPath>
    <clipPath
       id="c">
      <path
         inkscape:connector-curvature="0"
         id="path12"
         d="m 280.17,136.33 -21.5,-21.584 h 61 v 21.584 z" />
    </clipPath>
    <linearGradient
       gradientUnits="userSpaceOnUse"
       gradientTransform="matrix(47.34875,36.9925,-36.9925,47.34875,344.325,162.1875)"
       x2="1"
       id="a">
      <stop
         id="stop15"
         offset="0"
         stop-color="#0c542a" />
      <stop
         id="stop17"
         offset=".21472"
         stop-color="#0c542a" />
      <stop
         id="stop19"
         offset=".57995"
         stop-color="#25af64" />
      <stop
         id="stop21"
         offset=".84663"
         stop-color="#25af64" />
      <stop
         id="stop23"
         offset="1"
         stop-color="#25af64" />
    </linearGradient>
    <clipPath
       id="b">
      <path
         inkscape:connector-curvature="0"
         id="path26"
         d="M 0,266 H 1022 V 0 H 0 Z" />
    </clipPath>
    <clipPath
       id="clipPath202"
       clipPathUnits="userSpaceOnUse">
      <path
         inkscape:connector-curvature="0"
         id="path204"
         d="M 0,600 H 1500 V 0 H 0 Z" />
    </clipPath>
    <clipPath
       id="clipPath158"
       clipPathUnits="userSpaceOnUse">
      <path
         inkscape:connector-curvature="0"
         id="path160"
         d="M 0,600 H 1500 V 0 H 0 Z" />
    </clipPath>
    <clipPath
       id="clipPath86"
       clipPathUnits="userSpaceOnUse">
      <path
         inkscape:connector-curvature="0"
         id="path88"
         d="M 0,600 H 1500 V 0 H 0 Z" />
    </clipPath>
    <clipPath
       id="clipPath94"
       clipPathUnits="userSpaceOnUse">
      <path
         inkscape:connector-curvature="0"
         id="path96"
         d="M 804.509,211 H 968.795 V 114.019 H 804.509 Z" />
    </clipPath>
    <clipPath
       id="clipPath110"
       clipPathUnits="userSpaceOnUse">
      <path
         inkscape:connector-curvature="0"
         id="path112"
         d="M 804.597,506 H 968.883 V 409.019 H 804.597 Z" />
    </clipPath>
    <clipPath
       id="clipPath126"
       clipPathUnits="userSpaceOnUse">
      <path
         inkscape:connector-curvature="0"
         id="path128"
         d="M 133.598,209 H 297.883 V 112.019 H 133.598 Z" />
    </clipPath>
    <clipPath
       id="clipPath142"
       clipPathUnits="userSpaceOnUse">
      <path
         inkscape:connector-curvature="0"
         id="path144"
         d="M 133.686,504 H 297.972 V 407.019 H 133.686 Z" />
    </clipPath>
    <clipPath
       id="clipPath54"
       clipPathUnits="userSpaceOnUse">
      <path
         inkscape:connector-curvature="0"
         id="path56-6"
         d="M 0,600 H 1500 V 0 H 0 Z" />
    </clipPath>
    <clipPath
       id="clipPath30"
       clipPathUnits="userSpaceOnUse">
      <path
         inkscape:connector-curvature="0"
         id="path32"
         d="M 0,600 H 1500 V 0 H 0 Z" />
    </clipPath>
    <clipPath
       id="clipPath202-3"
       clipPathUnits="userSpaceOnUse">
      <path
         inkscape:connector-curvature="0"
         id="path204-6"
         d="M 0,600 H 1500 V 0 H 0 Z" />
    </clipPath>
    <clipPath
       id="clipPath158-7"
       clipPathUnits="userSpaceOnUse">
      <path
         inkscape:connector-curvature="0"
         id="path160-5"
         d="M 0,600 H 1500 V 0 H 0 Z" />
    </clipPath>
    <clipPath
       id="clipPath86-3"
       clipPathUnits="userSpaceOnUse">
      <path
         inkscape:connector-curvature="0"
         id="path88-5"
         d="M 0,600 H 1500 V 0 H 0 Z" />
    </clipPath>
    <clipPath
       id="clipPath94-6"
       clipPathUnits="userSpaceOnUse">
      <path
         inkscape:connector-curvature="0"
         id="path96-2"
         d="M 804.509,211 H 968.795 V 114.019 H 804.509 Z" />
    </clipPath>
    <clipPath
       id="clipPath110-9"
       clipPathUnits="userSpaceOnUse">
      <path
         inkscape:connector-curvature="0"
         id="path112-1"
         d="M 804.597,506 H 968.883 V 409.019 H 804.597 Z" />
    </clipPath>
    <clipPath
       id="clipPath126-2"
       clipPathUnits="userSpaceOnUse">
      <path
         inkscape:connector-curvature="0"
         id="path128-7"
         d="M 133.598,209 H 297.883 V 112.019 H 133.598 Z" />
    </clipPath>
    <clipPath
       id="clipPath142-0"
       clipPathUnits="userSpaceOnUse">
      <path
         inkscape:connector-curvature="0"
         id="path144-9"
         d="M 133.686,504 H 297.972 V 407.019 H 133.686 Z" />
    </clipPath>
    <clipPath
       id="clipPath54-3"
       clipPathUnits="userSpaceOnUse">
      <path
         inkscape:connector-curvature="0"
         id="path56-60"
         d="M 0,600 H 1500 V 0 H 0 Z" />
    </clipPath>
    <clipPath
       id="clipPath30-6"
       clipPathUnits="userSpaceOnUse">
      <path
         inkscape:connector-curvature="0"
         id="path32-2"
         d="M 0,600 H 1500 V 0 H 0 Z" />
    </clipPath>
    <linearGradient
       gradientUnits="userSpaceOnUse"
       gradientTransform="matrix(47.34875,36.9925,-36.9925,47.34875,344.325,162.1875)"
       x2="1"
       id="a-3">
      <stop
         id="stop15-61"
         offset="0"
         stop-color="#0c542a" />
      <stop
         id="stop17-29"
         offset=".21472"
         stop-color="#0c542a" />
      <stop
         id="stop19-3"
         offset=".57995"
         stop-color="#25af64" />
      <stop
         id="stop21-19"
         offset=".84663"
         stop-color="#25af64" />
      <stop
         id="stop23-4"
         offset="1"
         stop-color="#25af64" />
    </linearGradient>
    <linearGradient
       gradientUnits="userSpaceOnUse"
       gradientTransform="matrix(6.3893886,4.9918839,-4.9918839,6.3893886,90.80211,62.405381)"
       x2="1"
       id="f">
      <stop
         id="stop12"
         offset="0"
         stop-color="#0c542a" />
      <stop
         id="stop14"
         offset=".21472"
         stop-color="#0c542a" />
      <stop
         id="stop16"
         offset=".57995"
         stop-color="#25af64" />
      <stop
         id="stop18"
         offset=".84663"
         stop-color="#25af64" />
      <stop
         id="stop20"
         offset="1"
         stop-color="#25af64" />
    </linearGradient>
  </defs>
  <sodipodi:namedview
     id="base"
     pagecolor="#ffffff"
     bordercolor="#666666"
     borderopacity="1.0"
     inkscape:pageopacity="0.0"
     inkscape:pageshadow="2"
     inkscape:zoom="1.4142136"
     inkscape:cx="662.18829"
     inkscape:cy="190.65087"
     inkscape:document-units="mm"
     inkscape:current-layer="flowRoot904"
     showgrid="false"
     inkscape:window-width="1920"
     inkscape:window-height="1015"
     inkscape:window-x="0"
     inkscape:window-y="0"
     inkscape:window-maximized="1"
     fit-margin-top="0"
     fit-margin-left="0"
     fit-margin-right="0"
     fit-margin-bottom="0"
     units="px" />
  <metadata
     id="metadata5">
    <rdf:RDF>
      <cc:Work
         rdf:about="">
        <dc:format>image/svg+xml</dc:format>
        <dc:type
           rdf:resource="http://purl.org/dc/dcmitype/StillImage" />
        <dc:title />
      </cc:Work>
    </rdf:RDF>
  </metadata>
  <g
     inkscape:label="Layer 1"
     inkscape:groupmode="layer"
     id="layer1"
     transform="translate(-21.708905,-44.898209)">
    <g
       id="g125"
       transform="translate(-29.854928)">
      <g
         id="g972">
        <path
           inkscape:connector-curvature="0"
           id="path921"
           style="font-style:normal;font-variant:normal;font-weight:bold;font-stretch:normal;font-size:40px;line-height:1.25;font-family:'Maven Pro';-inkscape-font-specification:'Maven Pro Bold';letter-spacing:0px;word-spacing:0px;fill:#000000;fill-opacity:1;stroke:none;stroke-width:0.85794979"
           d="m 62.202414,90.951456 q 3.809297,0 5.834059,2.33362 2.024761,2.333627 2.024761,6.760644 -0.03432,9.26586 -9.128585,9.26586 -7.961774,0 -7.961774,-4.52997 V 85.014439 h 5.010426 v 7.035197 q 0.926586,-0.54909 2.093398,-0.82364 1.20113,-0.27454 2.127715,-0.27454 z m -1.338401,14.104694 q 4.083841,0 4.083841,-4.70156 0,-5.319297 -3.980887,-5.319297 -0.720678,0 -1.54431,0.20591 -0.823632,0.17159 -1.441356,0.51477 v 7.687237 q 0,1.61294 2.882712,1.61294 z" />
        <path
           inkscape:connector-curvature="0"
           id="path923"
           style="font-style:normal;font-variant:normal;font-weight:bold;font-stretch:normal;font-size:40px;line-height:1.25;font-family:'Maven Pro';-inkscape-font-specification:'Maven Pro Bold';letter-spacing:0px;word-spacing:0px;fill:#000000;fill-opacity:1;stroke:none;stroke-width:0.85794979"
           d="m 89.759701,91.431906 -6.82928,17.639454 q -2.505213,6.45178 -6.65769,6.45178 -1.784536,0 -3.08862,-0.61773 v -4.15247 q 1.02954,0.3775 2.024762,0.3775 1.02954,0 1.715899,-0.58341 0.720678,-0.58341 1.132494,-1.92181 L 71.090714,91.431906 h 5.834058 l 3.672026,11.393574 3.672025,-11.393574 z" />
        <path
           inkscape:connector-curvature="0"
           id="path925"
           style="font-style:normal;font-variant:normal;font-weight:bold;font-stretch:normal;font-size:40px;line-height:1.25;font-family:'Maven Pro';-inkscape-font-specification:'Maven Pro Bold';letter-spacing:0px;word-spacing:0px;fill:#000000;fill-opacity:1;stroke:none;stroke-width:0.85794979"
           d="m 99.952093,109.48317 q -2.985665,0 -4.495657,-1.40704 -1.475673,-1.40703 -1.475673,-4.04952 v -8.682447 h -2.539532 v -3.912257 h 2.539532 v -4.770197 h 5.353606 v 4.770197 h 3.809301 v 3.912257 h -3.809301 v 8.030407 q 0,0.89227 0.377498,1.3384 0.377503,0.41182 1.269763,0.41182 0.54909,0 1.1325,-0.17159 0.5834,-0.20591 1.02954,-0.54909 v 4.35838 q -1.30409,0.72068 -3.191577,0.72068 z" />
        <path
           inkscape:connector-curvature="0"
           id="path927"
           style="font-style:normal;font-variant:normal;font-weight:bold;font-stretch:normal;font-size:40px;line-height:1.25;font-family:'Maven Pro';-inkscape-font-specification:'Maven Pro Bold';letter-spacing:0px;word-spacing:0px;fill:#000000;fill-opacity:1;stroke:none;stroke-width:0.85794979"
           d="m 114.70877,90.848506 q 8.13336,0 8.03041,10.604254 h -11.46221 q 0.65204,3.60339 4.83884,3.60339 1.26976,0 2.47089,-0.34318 1.23545,-0.3775 2.60817,-0.9609 v 4.3927 q -2.81408,1.16681 -6.31451,1.16681 -2.64249,0 -4.63293,-1.06386 -1.99044,-1.09817 -3.08862,-3.12293 -1.09817,-2.02476 -1.09817,-4.7702 0,-4.529977 2.23066,-7.000874 2.26499,-2.50521 6.41747,-2.50521 z m -0.20591,3.912247 q -2.74544,0 -3.26021,3.4318 h 6.41747 q -0.24023,-1.85317 -0.99523,-2.64249 -0.72067,-0.78931 -2.16203,-0.78931 z" />
        <path
           inkscape:connector-curvature="0"
           id="path929"
           style="font-style:normal;font-variant:normal;font-weight:bold;font-stretch:normal;font-size:40px;line-height:1.25;font-family:'Maven Pro';-inkscape-font-specification:'Maven Pro Bold';letter-spacing:0px;word-spacing:0px;fill:#000000;fill-opacity:1;stroke:none;stroke-width:0.85794979"
           d="m 131.4559,109.31158 q -1.64727,0 -2.88271,-0.34318 -1.23545,-0.30886 -2.74544,-0.92658 v -4.49566 q 2.77975,2.0934 5.83406,2.0934 1.16681,0 1.68158,-0.3775 0.54908,-0.41182 0.54908,-1.09818 0,-0.78931 -0.85794,-1.16681 -0.85795,-0.3775 -2.74544,-0.82363 -1.99045,-0.41182 -3.29453,-1.64726 -1.26977,-1.235457 -1.26977,-3.603397 0,-2.02476 1.02954,-3.328837 1.02954,-1.30409 2.57385,-1.88749 1.57863,-0.61773 3.26021,-0.61773 2.05908,0 3.32885,0.3775 1.30408,0.34318 2.53953,1.09818 v 4.015197 q -1.75022,-0.9609 -2.71112,-1.37272 -0.96091,-0.41181 -2.23067,-0.41181 -1.26977,0 -1.88749,0.41181 -0.61773,0.3775 -0.61773,1.09818 0,0.85795 0.68636,1.26977 0.68636,0.37749 2.19635,0.78931 1.7159,0.44613 2.71113,0.89227 0.99522,0.41181 1.78453,1.475667 0.78932,1.02954 0.78932,2.91703 -0.0686,2.95135 -2.23067,4.32407 -2.16204,1.3384 -5.49088,1.3384 z" />
        <path
           inkscape:connector-curvature="0"
           id="path931"
           style="font-style:normal;font-variant:normal;font-weight:bold;font-stretch:normal;font-size:40px;line-height:1.25;font-family:'Maven Pro';-inkscape-font-specification:'Maven Pro Bold';letter-spacing:0px;word-spacing:0px;fill:#000000;fill-opacity:1;stroke:none;stroke-width:0.85794979"
           d="m 142.84941,85.117399 h 5.28497 v 3.94657 h -5.28497 z m 0.10295,6.554737 h 5.11339 l 0.0343,17.124674 h -5.1477 z" />
        <path
           inkscape:connector-curvature="0"
           id="path933"
           style="font-style:normal;font-variant:normal;font-weight:bold;font-stretch:normal;font-size:40px;line-height:1.25;font-family:'Maven Pro';-inkscape-font-specification:'Maven Pro Bold';letter-spacing:0px;word-spacing:0px;fill:#000000;fill-opacity:1;stroke:none;stroke-width:0.85794979"
           d="m 165.73948,95.412793 -7.58427,9.300177 h 7.58427 v 4.08384 h -13.79583 v -4.04952 l 8.40791,-9.471767 h -8.202 v -3.843617 h 13.58992 z" />
        <path
           inkscape:connector-curvature="0"
           id="path935"
           style="font-style:normal;font-variant:normal;font-weight:bold;font-stretch:normal;font-size:40px;line-height:1.25;font-family:'Maven Pro';-inkscape-font-specification:'Maven Pro Bold';letter-spacing:0px;word-spacing:0px;fill:#000000;fill-opacity:1;stroke:none;stroke-width:0.85794979"
           d="m 177.23597,90.848506 q 8.13336,0 8.03041,10.604254 h -11.46221 q 0.65204,3.60339 4.83884,3.60339 1.26976,0 2.47089,-0.34318 1.23545,-0.3775 2.60817,-0.9609 v 4.3927 q -2.81408,1.16681 -6.31451,1.16681 -2.64249,0 -4.63293,-1.06386 -1.99044,-1.09817 -3.08862,-3.12293 -1.09817,-2.02476 -1.09817,-4.7702 0,-4.529977 2.23066,-7.000874 2.26499,-2.50521 6.41747,-2.50521 z m -0.20591,3.912247 q -2.74544,0 -3.26021,3.4318 h 6.41747 q -0.24023,-1.85317 -0.99523,-2.64249 -0.72067,-0.78931 -2.16203,-0.78931 z" />
        <path
           inkscape:connector-curvature="0"
           id="path916"
           style="font-style:normal;font-variant:normal;font-weight:bold;font-stretch:normal;font-size:40px;line-height:1.25;font-family:'Maven Pro';-inkscape-font-specification:'Maven Pro Bold';letter-spacing:0px;word-spacing:0px;fill:#24af63;fill-opacity:1;stroke:none;stroke-width:0.85794979"
           d="m 196.16612,104.5757 h -2.57385 v -2.77976 h 3.01998 l 0.78932,-4.495657 h -2.88271 v -2.779757 h 3.36316 l 0.61772,-3.63771 h 2.95135 l -0.65204,3.63771 h 3.91225 l 0.65204,-3.63771 h 2.91703 l -0.65204,3.63771 h 2.19635 v 2.779757 h -2.64248 l -0.78932,4.495657 h 2.50521 v 2.77976 h -2.98566 l -0.61772,3.56907 h -2.91703 l 0.61772,-3.56907 h -3.94657 l -0.5834,3.56907 h -2.95135 z m 7.34405,-2.77976 0.72068,-4.495657 h -3.91225 l -0.78932,4.495657 z" />
        <path
           class="st0"
           d="m 223.58598,61.993475 v 0.606335 c -0.0169,0 -0.0169,0 -0.0337,0.01684 l -0.30317,-0.25264 c -0.67371,-0.572649 -1.39794,-1.077928 -2.20638,-1.482151 -0.13474,-0.06737 -0.26949,-0.151584 -0.42107,-0.185269 -0.0169,-0.01684 -0.0337,-0.03369 -0.0505,-0.03369 -0.30317,-0.117899 -0.60633,-0.218954 -0.92634,-0.303167 -0.69055,-0.151584 -1.3811,-0.168426 -2.07164,-0.03369 -0.89266,0.185269 -1.68427,0.57265 -2.44219,1.077929 -0.74107,0.505278 -1.41478,1.09477 -2.03795,1.717947 -0.1179,0.117899 -0.1179,0.117899 -0.18527,-0.03369 -0.33686,-0.690548 -0.70739,-1.364253 -1.16215,-1.98743 -0.35369,-0.471594 -0.74107,-0.909502 -1.24635,-1.212669 -0.50528,-0.32001 -1.06108,-0.437909 -1.65058,-0.286325 -0.72423,0.168427 -1.31372,0.606335 -1.86953,1.077928 -0.33685,0.25264 -0.64002,0.555807 -0.94319,0.842132 -0.28632,0.252639 -0.5558,0.505279 -0.84213,0.757918 -0.0505,0.05053 -0.0842,0.05053 -0.13474,0 -0.28632,-0.303167 -0.58949,-0.57265 -0.94319,-0.757918 -0.52212,-0.286325 -1.06108,-0.32001 -1.61689,-0.134741 -0.47159,0.151583 -0.87581,0.404223 -1.29688,0.673705 -0.16843,0.101055 -0.32001,0.218954 -0.48843,0.303167 v -0.03369 c 0.0169,-0.03369 0.0169,-0.06737 0.0169,-0.101056 0.0337,-0.741075 0.0842,-1.498994 0.20211,-2.240069 0.16843,-1.027401 0.42107,-2.021115 0.87582,-2.94746 0.33685,-0.690548 0.7916,-1.330568 1.36425,-1.852689 0.75792,-0.690548 1.65058,-1.128456 2.62745,-1.397938 1.06109,-0.303167 2.13901,-0.437908 3.23378,-0.488436 0.43791,-0.01684 0.85898,-0.03369 1.29689,-0.05053 0.21895,0.08421 0.4379,0.134741 0.65686,0.202111 0.32001,0.101056 0.64002,0.202112 0.96003,0.286325 0.16842,0.06737 0.32001,0.117899 0.48844,0.185269 0.62317,0.218954 1.22951,0.505279 1.75163,0.926345 0.13474,0.101055 0.26948,0.218953 0.40422,0.336852 -0.0337,-0.101056 -0.0674,-0.185269 -0.10105,-0.286324 -0.2358,-0.623178 -0.5895,-1.128456 -1.16215,-1.482152 -0.23579,-0.151583 -0.48843,-0.252639 -0.74107,-0.38738 0.0169,0 0.0505,0 0.0674,-0.01684 0.75792,-0.134742 1.53268,-0.202112 2.30744,-0.235797 0.65686,-0.03369 1.33057,-0.01684 1.98743,0.05053 0.77476,0.08421 1.53268,0.235798 2.25691,0.505279 1.07793,0.404223 2.00427,1.0274 2.72851,1.936903 0.62317,0.791603 1.0274,1.701105 1.28004,2.677977 0.25263,0.96003 0.35369,1.953745 0.38738,2.94746 -0.0169,0.353695 -0.0169,0.724233 -0.0169,1.094771 z"
           id="path24"
           inkscape:connector-curvature="0"
           style="fill:#24af63;stroke-width:0.16842628" />
        <path
           class="st4"
           d="m 223.58598,60.881862 h 0.0169 v 1.111613 h -0.0169 z"
           id="path26-8"
           inkscape:connector-curvature="0"
           style="fill:#ecdc86;stroke-width:0.16842628" />
        <path
           class="st5"
           d="m 217.43842,44.898209 v 0.01684 h -0.75792 v -0.01684 z"
           id="path28"
           inkscape:connector-curvature="0"
           style="fill:#a0918f;stroke-width:0.16842628" />
        <path
           class="st0"
           d="m 217.92685,76.629718 c 0.42107,-0.168426 0.82529,-0.38738 1.22951,-0.606334 0.4716,-0.286325 0.90951,-0.589492 1.34742,-0.909502 0.37053,-0.269482 0.72423,-0.555807 1.07792,-0.858974 l 0.60634,-0.505279 c 0.0337,-0.03369 0.0337,-0.01684 0.0505,0.01684 0.0674,0.269482 0.1179,0.555807 0.18527,0.842131 0.0842,0.387381 0.13474,0.774761 0.18526,1.162141 0.0505,0.454751 0.0674,0.89266 0.0337,1.347411 -0.0337,0.555806 -0.13474,1.111613 -0.33685,1.633734 -0.11791,0.32001 -0.26949,0.623178 -0.45476,0.909502 -0.23579,0.370538 -0.50528,0.707391 -0.84213,0.993715 -0.38738,0.353695 -0.82529,0.656863 -1.29688,0.909502 -0.62318,0.353695 -1.29688,0.606335 -1.98743,0.808446 -0.65686,0.202112 -1.33057,0.336853 -2.00427,0.454751 -0.18527,0.03368 -0.37054,0.06737 -0.55581,0.06737 -0.38738,-0.01684 -0.77476,-0.101056 -1.1453,-0.235797 -0.55581,-0.218954 -1.04424,-0.555807 -1.60005,-0.808446 -0.30317,-0.134741 -0.60633,-0.235797 -0.92634,-0.25264 -0.42107,-0.03369 -0.77477,0.117899 -1.07793,0.404223 l -0.65686,0.656863 c -0.37054,0.370538 -0.80845,0.623177 -1.33057,0.70739 -0.3537,0.05053 -0.69055,0.03369 -1.04424,-0.01684 -0.48844,-0.06737 -0.96003,-0.185269 -1.41478,-0.32001 -0.67371,-0.218954 -1.29689,-0.522121 -1.86954,-0.960029 -0.53896,-0.404223 -0.96003,-0.909502 -1.31372,-1.482152 -0.3537,-0.589491 -0.55581,-1.212669 -0.70739,-1.869531 -0.0674,-0.286325 -0.10106,-0.589492 -0.13474,-0.875817 -0.0505,-0.421065 -0.0674,-0.825288 -0.0505,-1.246354 0.0169,-0.589492 0.0674,-1.162141 0.15158,-1.751633 0.0674,0.06737 0.13474,0.117898 0.18527,0.168426 0.37054,0.336853 0.79161,0.64002 1.22951,0.909502 0.48844,0.286324 1.0274,0.522122 1.58321,0.673705 0.37054,0.101056 0.75792,0.168426 1.1453,0.185269 0.32001,0.03369 0.64002,0.03369 0.96003,0.01684 0.37054,-0.01684 0.75792,-0.05053 1.12845,-0.151583 0.0505,0 0.10106,0 0.13475,-0.01684 0.33685,-0.06737 0.6737,-0.151584 1.01056,-0.25264 0.38737,-0.117898 0.75791,-0.235796 1.12845,-0.370538 0.35369,-0.13474 0.72423,-0.286324 1.07793,-0.437908 0.10105,-0.05053 0.16842,-0.03369 0.25264,0.03369 0.58949,0.454751 1.22951,0.842131 1.92006,1.128456 0.77476,0.303167 1.56636,0.454751 2.39165,0.38738 0.60633,-0.117898 1.17898,-0.269482 1.73479,-0.488436 z"
           id="path30"
           inkscape:connector-curvature="0"
           style="fill:#24af63;stroke-width:0.16842628" />
        <path
           class="st4"
           d="m 217.92685,76.629718 c -0.5558,0.218954 -1.12845,0.370538 -1.71795,0.421066 -0.82528,0.06737 -1.61689,-0.08421 -2.39165,-0.38738 -0.69054,-0.269483 -1.33056,-0.656863 -1.92006,-1.128456 -0.0842,-0.06737 -0.15158,-0.08421 -0.25264,-0.03369 -0.35369,0.151584 -0.70738,0.303167 -1.07792,0.437909 -0.37054,0.134741 -0.74108,0.269481 -1.12846,0.370537 -0.33685,0.101056 -0.6737,0.168427 -1.01056,0.25264 -0.0505,0.01684 -0.10105,0.01684 -0.13474,0.01684 0.1179,-0.134741 0.2358,-0.269483 0.3537,-0.404224 0.47159,-0.538964 0.80844,-1.162141 0.99371,-1.869531 0.26948,-0.943187 0.53897,-1.903217 0.77476,-2.863247 0.16843,-0.70739 0.30317,-1.41478 0.40422,-2.139013 0.0674,-0.522122 0.16843,-2.509552 0.13475,-2.981145 -0.0842,-1.448466 -0.40422,-2.829562 -0.99372,-4.160129 -0.3537,-0.791604 -0.96003,-1.330568 -1.80216,-1.549522 -0.37054,-0.101056 -0.74107,-0.06737 -1.09477,0.05053 -0.0337,0.01684 -0.0505,0.03369 -0.0842,0.01684 0.5558,-0.471594 1.12845,-0.909502 1.86953,-1.077928 0.58949,-0.134741 1.1453,-0.03369 1.65058,0.286324 0.50527,0.32001 0.89266,0.741076 1.24635,1.21267 0.45475,0.623177 0.82529,1.296882 1.16214,1.987429 0.0674,0.151584 0.0674,0.151584 0.18527,0.03369 0.62318,-0.64002 1.29688,-1.229512 2.03796,-1.717948 0.74107,-0.505279 1.54952,-0.892659 2.44218,-1.077928 0.69055,-0.134741 1.38109,-0.117899 2.07164,0.03369 0.32001,0.06737 0.62318,0.168427 0.92635,0.303167 0.0169,0.01684 0.0505,0.01684 0.0505,0.03369 -0.89266,0.01684 -1.65058,0.353695 -2.34113,0.875816 -0.33685,0.252639 -0.64002,0.538964 -0.87582,0.892659 -0.18527,0.286325 -0.35369,0.606335 -0.48843,0.926345 -0.30317,0.64002 -0.55581,1.313725 -0.74108,2.004273 -0.15158,0.589492 -0.25264,1.195826 -0.30317,1.802161 -0.0337,0.471593 -0.0505,0.943187 -0.0337,1.41478 0.0168,0.57265 0.0842,1.145299 0.15158,1.734791 0.1179,0.96003 0.28633,1.920059 0.45475,2.880089 0.0842,0.522121 0.15159,1.061086 0.25264,1.60005 0.1179,0.774761 0.55581,1.34741 1.17899,1.785318 0,-0.01684 0.0337,0 0.0505,0.01684 z"
           id="path32-3"
           inkscape:connector-curvature="0"
           style="fill:#ecdc86;stroke-width:0.16842628" />
        <path
           class="st6"
           d="m 216.6805,44.915051 h 0.75792 c 0.60633,0.03369 1.21267,0.134741 1.78532,0.336853 0.45475,0.151583 0.55581,0.454751 0.28632,0.842131 -0.18527,0.269482 -0.45475,0.471594 -0.74107,0.656863 -0.3537,0.235796 -0.74108,0.437908 -1.16215,0.589492 -0.42106,0.168426 -0.82528,0 -1.09477,-0.421066 -0.0842,-0.134741 -0.15158,-0.269482 -0.18526,-0.421066 -0.0169,-0.05053 -0.0337,-0.06737 -0.0842,-0.06737 -0.94319,-0.168426 -1.78532,0.05053 -2.47587,0.724233 -0.57264,0.538964 -0.9095,1.229512 -1.14529,1.970587 -0.21896,0.673705 -0.32001,1.34741 -0.3537,2.054801 -0.0337,0.623177 0.0169,1.246354 0.10106,1.852688 0.0169,0.101056 0.0505,0.202112 0.0505,0.320011 0.0169,0.13474 -0.0337,0.252639 -0.13474,0.320009 -0.1179,0.08421 -0.25265,0.06737 -0.38739,0.06737 -0.32,-0.101056 -0.64001,-0.202112 -0.96002,-0.286325 v -0.218954 c 0,-0.336852 0,-0.656862 0.0169,-0.993715 0.0674,-1.296882 0.26948,-2.576922 0.77476,-3.789591 0.37054,-0.909502 0.9095,-1.701105 1.66742,-2.324283 0.62318,-0.522121 1.33057,-0.858973 2.12217,-1.044242 0.40422,-0.101056 0.77476,-0.151584 1.16214,-0.168427 z"
           id="path34-7"
           inkscape:connector-curvature="0"
           style="fill:#3f2b29;stroke-width:0.16842628" />
        <path
           class="st7"
           d="m 211.91404,53.723745 c 0.13474,0 0.26948,0.01684 0.38738,-0.06737 0.1179,-0.08421 0.15158,-0.202112 0.13474,-0.32001 -0.0169,-0.101056 -0.0337,-0.218954 -0.0505,-0.32001 0.0674,0 0.1179,-0.01684 0.18527,-0.01684 0.2358,0.134741 0.48843,0.252639 0.74108,0.387381 0.57265,0.353695 0.92634,0.858973 1.16213,1.482151 0.0337,0.101056 0.0674,0.185269 0.10106,0.286324 -0.13474,-0.117898 -0.26948,-0.235796 -0.40422,-0.336852 -0.53897,-0.404223 -1.12846,-0.690548 -1.75163,-0.926345 -0.18527,-0.05053 -0.33686,-0.101056 -0.50528,-0.168426 z"
           id="path36"
           inkscape:connector-curvature="0"
           style="fill:#396e35;stroke-width:0.16842628" />
        <path
           class="st7"
           d="m 210.95401,53.218467 v 0.218954 c -0.21896,-0.06737 -0.43791,-0.117899 -0.65687,-0.202112 0.2358,-0.01684 0.45476,-0.01684 0.65687,-0.01684 z"
           id="path38-9"
           inkscape:connector-curvature="0"
           style="fill:#396e35;stroke-width:0.16842628" />
        <path
           inkscape:connector-curvature="0"
           id="path569"
           style="font-weight:bold;font-size:medium;line-height:0%;font-family:'Maven Pro';fill:#000000;fill-opacity:1;stroke:none;stroke-width:0.16842628"
           d="m 111.85723,75.505251 q -2.61569,0 -4.73651,-1.025068 -2.12083,-1.025067 -3.39333,-3.075202 -1.23715,-2.085482 -1.23715,-5.054642 0,-4.771865 2.545,-7.210819 2.54499,-2.4743 6.78665,-2.4743 1.48458,0 3.00451,0.318124 1.51992,0.282777 2.68638,0.812985 v 4.524435 q -1.44923,-0.636249 -2.58034,-0.954373 -1.13111,-0.353472 -2.26222,-0.353472 -2.33291,0 -3.64076,1.166456 -1.30784,1.131109 -1.30784,3.570063 0,2.72173 1.2018,4.029574 1.23715,1.307845 3.99423,1.307845 2.08548,0 4.63048,-1.413886 v 4.489088 q -1.2725,0.671596 -2.65104,0.98972 -1.34319,0.353472 -3.03986,0.353472 z" />
        <path
           inkscape:connector-curvature="0"
           id="path571"
           style="font-weight:bold;font-size:medium;line-height:0%;font-family:'Maven Pro';fill:#000000;fill-opacity:1;stroke:none;stroke-width:0.16842628"
           d="m 129.28172,75.575945 q -4.52443,0 -6.78665,-2.403606 -2.26222,-2.403607 -2.26222,-7.140124 0,-4.948601 2.22687,-7.210819 2.26222,-2.262218 6.822,-2.262218 4.55979,0 6.85735,2.332912 2.29757,2.297565 2.29757,7.140125 0,4.665823 -2.36827,7.104777 -2.36825,2.438953 -6.78665,2.438953 z m 0,-4.206311 q 1.9441,0 2.93382,-1.343191 0.98972,-1.378539 0.98972,-3.994228 0,-2.86312 -0.98972,-4.064923 -0.95437,-1.23715 -2.93382,-1.23715 -2.05013,0 -2.96916,1.23715 -0.88367,1.201803 -0.88367,4.064923 0,2.72173 0.91902,4.029575 0.95437,1.307844 2.93381,1.307844 z" />
        <path
           inkscape:connector-curvature="0"
           id="path573"
           style="font-weight:bold;font-size:medium;line-height:0%;font-family:'Maven Pro';fill:#000000;fill-opacity:1;stroke:none;stroke-width:0.16842628"
           d="m 142.07187,59.033479 q 0.53021,-0.459513 1.83805,-1.025067 1.3432,-0.565555 2.96916,-0.954373 1.66132,-0.424166 3.18124,-0.424166 2.93382,0 4.06493,0.883678 v 3.85284 q -1.41389,-0.318124 -4.06493,-0.318124 -1.66131,0 -2.72172,0.176735 v 13.820736 h -5.26673 z" />
        <path
           inkscape:connector-curvature="0"
           id="path575"
           style="font-weight:bold;font-size:medium;line-height:0%;font-family:'Maven Pro';fill:#000000;fill-opacity:1;stroke:none;stroke-width:0.16842628"
           d="m 164.48748,56.559178 q 8.37728,0 8.27124,10.92227 h -11.80595 q 0.6716,3.71145 4.98395,3.71145 1.30784,0 2.54499,-0.353471 1.2725,-0.388819 2.68639,-0.98972 v 4.524435 q -2.89847,1.201803 -6.50388,1.201803 -2.72173,0 -4.77187,-1.095762 -2.05013,-1.131108 -3.18124,-3.21659 -1.13111,-2.085482 -1.13111,-4.913254 0,-4.665824 2.29757,-7.210819 2.33291,-2.580342 6.60991,-2.580342 z m -0.21208,4.029575 q -2.82777,0 -3.35798,3.534716 h 6.60992 q -0.24743,-1.908747 -1.02507,-2.721731 -0.74229,-0.812985 -2.22687,-0.812985 z" />
        <path
           inkscape:connector-curvature="0"
           id="path577"
           style="font-weight:bold;font-size:medium;line-height:0%;font-family:'Maven Pro';fill:#000000;fill-opacity:1;stroke:none;stroke-width:0.16842628"
           d="m 186.59713,48.323292 h 3.78214 l -13.00775,30.186466 h -3.74679 z" />
        <path
           inkscape:connector-curvature="0"
           id="path559"
           style="font-weight:bold;font-size:79.23241425px;line-height:0%;font-family:'Maven Pro';fill:#24af63;fill-opacity:1;stroke:none;stroke-width:0.16842628"
           d="m 51.563833,58.680008 q 1.378539,-0.742291 4.206311,-1.378539 2.827772,-0.636249 5.054642,-0.636249 3.782145,0 5.690891,1.48458 1.908746,1.48458 1.908746,4.877907 V 75.045738 H 63.157698 V 64.088121 q 0,-3.075202 -3.464021,-3.075202 -0.777637,0 -1.590621,0.176736 -0.812985,0.176736 -1.272498,0.424166 v 13.431917 h -5.266725 z" />
        <path
           inkscape:connector-curvature="0"
           id="path561"
           style="font-weight:bold;font-size:79.23241425px;line-height:0%;font-family:'Maven Pro';fill:#24af63;fill-opacity:1;stroke:none;stroke-width:0.16842628"
           d="m 74.446695,61.189655 h -2.61569 V 57.16008 h 2.651036 v -0.424166 q 0.03535,-4.029575 1.838052,-5.584849 1.838052,-1.590622 4.983948,-1.590622 0.565555,0 1.23715,0.106041 0.671596,0.106042 1.095762,0.24743 v 4.630477 q -0.388818,-0.388819 -0.777637,-0.565554 -0.388819,-0.212083 -0.98972,-0.212083 -0.98972,0 -1.555275,0.530207 -0.565554,0.530207 -0.565554,1.802705 v 1.060414 h 3.888186 v 4.029575 h -3.923534 v 13.856083 h -5.266724 z" />
        <path
           inkscape:connector-curvature="0"
           id="path563"
           style="font-weight:bold;font-size:79.23241425px;line-height:0%;font-family:'Maven Pro';fill:#24af63;fill-opacity:1;stroke:none;stroke-width:0.16842628"
           d="m 87.50857,62.391458 h 10.78088 v 3.640757 H 87.50857 Z" />
        <path
           d="M 91.596587,62.391888 87.96999,66.032653 H 98.259404 V 62.391888 Z"
           id="path67"
           inkscape:connector-curvature="0"
           style="display:inline;fill:url(#f);stroke-width:0.16842628" />
        <g
           aria-label="8"
           transform="matrix(0.85785658,0,0,0.85785658,517.27731,22.384505)"
           style="font-style:normal;font-variant:normal;font-weight:normal;font-stretch:normal;font-size:40px;line-height:1.25;font-family:'Maven Pro';-inkscape-font-specification:'Maven Pro';letter-spacing:0px;word-spacing:0px;fill:#24af63;fill-opacity:1;stroke:none"
           id="flowRoot904">
          <path
             d="m -344.95375,101.20997 q -5.4,0 -8.16,-2.12 -2.76,-2.16 -2.76,-5.88 0,-2.48 1.36,-4 1.36,-1.52 3.16,-2.28 -1.48,-0.76 -2.64,-2.12 -1.12,-1.36 -1.12,-3.6 0,-3.76 2.52,-5.72 2.52,-1.96 7.64,-1.96 5.12,0 7.64,1.96 2.52,1.96 2.52,5.72 0,2.28 -1.16,3.64 -1.12,1.36 -2.6,2.04 1.8,0.8 3.16,2.36 1.36,1.52 1.36,3.96 0,3.72 -2.76,5.88 -2.76,2.12 -8.16,2.12 z m 0,-16.16 q 1.36,0 2.44,-0.84 1.08,-0.84 1.08,-2.36 0,-1.44 -1,-2.32 -1,-0.92 -2.52,-0.92 -1.52,0 -2.52,0.92 -1,0.88 -1,2.32 0,1.52 1.08,2.36 1.08,0.84 2.44,0.84 z m 0,11.12 q 2.2,0 3.12,-1.24 0.96,-1.24 0.96,-2.8 0,-1.4 -1.08,-2.4 -1.08,-1.04 -3,-1.04 -1.92,0 -3,1.04 -1.08,1 -1.08,2.4 0,1.56 0.92,2.8 0.96,1.24 3.16,1.24 z"
             style="font-style:normal;font-variant:normal;font-weight:bold;font-stretch:normal;font-family:'Maven Pro';-inkscape-font-specification:'Maven Pro Bold';fill:#24af63;fill-opacity:1"
             id="path917" />
        </g>
      </g>
    </g>
  </g>
</svg>
