<?xml version="1.0" encoding="UTF-8" standalone="no"?>
<!-- Created with Inkscape (http://www.inkscape.org/) -->

<svg
   xmlns:dc="http://purl.org/dc/elements/1.1/"
   xmlns:cc="http://creativecommons.org/ns#"
   xmlns:rdf="http://www.w3.org/1999/02/22-rdf-syntax-ns#"
   xmlns:svg="http://www.w3.org/2000/svg"
   xmlns="http://www.w3.org/2000/svg"
   xmlns:sodipodi="http://sodipodi.sourceforge.net/DTD/sodipodi-0.dtd"
   xmlns:inkscape="http://www.inkscape.org/namespaces/inkscape"
   version="1.1"
   id="svg2"
   xml:space="preserve"
   width="428.18356"
   height="100"
   viewBox="0 0 428.18356 100"
   sodipodi:docname="nf-core_logo.svg"
   inkscape:version="0.92.3 (2405546, 2018-03-11)"><metadata
     id="metadata8"><rdf:RDF><cc:Work
         rdf:about=""><dc:format>image/svg+xml</dc:format><dc:type
           rdf:resource="http://purl.org/dc/dcmitype/StillImage" /><dc:title /></cc:Work></rdf:RDF></metadata><defs
     id="defs6"><clipPath
   clipPathUnits="userSpaceOnUse"
   id="clipPath44"><path
     d="m 216,108.995 h 62 v -23 h -62 z"
     id="path42"
     inkscape:connector-curvature="0" /></clipPath><clipPath
   clipPathUnits="userSpaceOnUse"
   id="clipPath50"><path
     d="M 237.867,108.061 216.336,86.444 h 61.094 v 21.617 z"
     id="path48"
     inkscape:connector-curvature="0" /></clipPath><clipPath
   clipPathUnits="userSpaceOnUse"
   id="clipPath60"><path
     d="m 216,86 h 62 v 23 h -62 z"
     id="path58"
     inkscape:connector-curvature="0" /></clipPath><clipPath
   clipPathUnits="userSpaceOnUse"
   id="clipPath70"><path
     d="M 237.867,108.066 216.336,86.449 h 61.094 v 21.617 z"
     id="path68"
     inkscape:connector-curvature="0" /></clipPath><linearGradient
   x1="0"
   y1="0"
   x2="1"
   y2="0"
   gradientUnits="userSpaceOnUse"
   gradientTransform="matrix(37.936525,-29.638943,-29.638943,-37.936525,233.15029,107.98614)"
   spreadMethod="pad"
   id="linearGradient84"><stop
     style="stop-opacity:1;stop-color:#0c542a"
     offset="0"
     id="stop74" /><stop
     style="stop-opacity:1;stop-color:#0c542a"
     offset="0.21472"
     id="stop76" /><stop
     style="stop-opacity:1;stop-color:#25af64"
     offset="0.57995"
     id="stop78" /><stop
     style="stop-opacity:1;stop-color:#25af64"
     offset="0.84663"
     id="stop80" /><stop
     style="stop-opacity:1;stop-color:#25af64"
     offset="1"
     id="stop82" /></linearGradient>



</defs><sodipodi:namedview
     pagecolor="#ffffff"
     bordercolor="#666666"
     borderopacity="1"
     objecttolerance="10"
     gridtolerance="10"
     guidetolerance="10"
     inkscape:pageopacity="0"
     inkscape:pageshadow="2"
     inkscape:window-width="1920"
     inkscape:window-height="1015"
     id="namedview4"
     showgrid="false"
     inkscape:zoom="1.7127009"
     inkscape:cx="201.80155"
     inkscape:cy="71.931717"
     inkscape:window-x="0"
     inkscape:window-y="1080"
     inkscape:window-maximized="1"
     inkscape:current-layer="g10"
     fit-margin-top="0"
     fit-margin-left="0"
     fit-margin-right="0"
     fit-margin-bottom="0" /><g
     id="g10"
     inkscape:groupmode="layer"
     inkscape:label="nf-core"
     transform="matrix(1.3333333,0,0,-1.3333333,4.0364583e-8,100.00003)"><g
       id="g154"><g
         id="g122"><path
           inkscape:connector-curvature="0"
           id="path14"
           style="fill:#22ae63;fill-opacity:1;fill-rule:nonzero;stroke:none;stroke-width:0.34723032"
           d="m 321.10262,41.66314 v -1.181278 c -0.0243,-0.0069 -0.049,-0.01215 -0.0733,-0.0191 -0.2007,0.165629 -0.40417,0.329522 -0.60348,0.49654 -1.32816,1.114956 -2.73444,2.116021 -4.29038,2.893123 -0.26841,0.135419 -0.53022,0.293062 -0.83127,0.355216 -0.0233,0.04757 -0.0705,0.05452 -0.11285,0.07188 -0.58717,0.243061 -1.18788,0.438205 -1.80664,0.580569 -1.34413,0.31216 -2.69242,0.340633 -4.04593,0.0691 -1.73754,-0.349661 -3.29313,-1.115998 -4.75011,-2.099355 -1.44725,-0.976758 -2.75076,-2.124355 -3.97405,-3.365356 -0.2198,-0.223616 -0.22396,-0.222574 -0.35938,0.05972 -0.65106,1.354892 -1.36601,2.670548 -2.26256,3.882035 -0.68369,0.925021 -1.44725,1.769833 -2.43859,2.378875 -0.99968,0.615986 -2.06984,0.838214 -3.22404,0.560429 -1.41739,-0.343411 -2.55561,-1.169471 -3.6296,-2.105257 -0.65383,-0.507304 -1.24134,-1.089262 -1.849,-1.649344 -0.54515,-0.501748 -1.09308,-1.001065 -1.65872,-1.479896 -0.10312,-0.08681 -0.15868,-0.08542 -0.25243,0.01215 -0.54932,0.57675 -1.13927,1.104193 -1.84727,1.485452 -1.01738,0.54654 -2.07262,0.61425 -3.16292,0.259033 -0.91426,-0.297229 -1.72261,-0.797588 -2.53235,-1.297946 -0.31876,-0.198269 -0.61599,-0.431608 -0.96044,-0.587514 v 0.08021 c 0.0476,0.05695 0.0299,0.126045 0.0326,0.189935 0.0514,1.460798 0.17639,2.914651 0.40279,4.360518 0.31181,1.992408 0.81391,3.929606 1.70212,5.749787 0.6646,1.363226 1.53268,2.578532 2.66013,3.596959 1.48094,1.33892 3.22924,2.18512 5.13241,2.731661 2.06151,0.592722 4.18031,0.838214 6.31508,0.954883 0.84516,0.04618 1.69136,0.06667 2.53791,0.09896 0.41077,-0.170838 0.84759,-0.26702 1.26947,-0.406607 0.61842,-0.188546 1.23857,-0.378481 1.85699,-0.567027 0.31459,-0.115281 0.62918,-0.233339 0.94516,-0.34723 1.22364,-0.440983 2.38999,-0.988912 3.42508,-1.791709 0.26841,-0.207644 0.52467,-0.428829 0.78787,-0.653835 -0.0514,0.195144 -0.12327,0.377093 -0.19237,0.560083 -0.45314,1.200375 -1.14343,2.210815 -2.26672,2.887567 -0.4639,0.28091 -0.95766,0.504873 -1.42955,0.769115 0.0462,0.0056 0.0924,0.01111 0.1382,0.01771 1.48927,0.24827 2.98965,0.394801 4.49524,0.454525 1.29517,0.05139 2.59208,0.03229 3.88447,-0.101739 1.51115,-0.157295 2.98826,-0.455913 4.41503,-0.983356 2.11186,-0.779879 3.91051,-2.00213 5.30464,-3.783074 1.21809,-1.554203 1.99414,-3.321606 2.49034,-5.220608 0.49376,-1.882683 0.70418,-3.803214 0.75835,-5.74562 V 41.66314" /><path
           inkscape:connector-curvature="0"
           id="path16"
           style="fill:#ecdc86;fill-opacity:1;fill-rule:nonzero;stroke:none;stroke-width:0.34723032"
           d="m 321.10262,43.833329 c 0.0122,0 0.0229,0.0028 0.0351,0.0069 v -2.183732 c -0.0122,0.0024 -0.0229,0.0038 -0.0351,0.0052 v 2.171578" /><path
           inkscape:connector-curvature="0"
           id="path18"
           style="fill:#a0918f;fill-opacity:1;fill-rule:nonzero;stroke:none;stroke-width:0.34723032"
           d="m 309.10963,75.000027 c 0,-0.01215 0,-0.02431 0.003,-0.03681 -0.49099,0 -0.98093,-0.001 -1.47191,-0.001 0.003,0.008 0.007,0.01736 0.008,0.02569 0,0.0042 -0.004,0.008 -0.007,0.01215 h 1.46913 z" /><path
           inkscape:connector-curvature="0"
           id="path20"
           style="fill:#22ae63;fill-opacity:1;fill-rule:nonzero;stroke:none;stroke-width:0.34723032"
           d="m 310.06729,13.129142 c 0.82849,0.332299 1.61809,0.740642 2.38582,1.196555 0.91426,0.542374 1.78615,1.148638 2.63548,1.787542 0.71599,0.538554 1.416,1.097248 2.09692,1.680595 0.39307,0.337855 0.79863,0.660432 1.19482,0.99412 0.0802,0.06667 0.0813,0.0382 0.10174,-0.0434 0.14375,-0.539596 0.2441,-1.088914 0.35279,-1.635802 0.14757,-0.745851 0.26702,-1.497257 0.34966,-2.25283 0.0951,-0.870854 0.13021,-1.748305 0.0774,-2.623325 -0.0635,-1.093081 -0.26042,-2.166023 -0.64029,-3.1969496 -0.22917,-0.621195 -0.53022,-1.2097504 -0.88544,-1.7684439 -0.45591,-0.7177251 -0.99968,-1.3646151 -1.6292,-1.9344201 -0.76495,-0.6930717 -1.61011,-1.2736408 -2.51604,-1.7739996 -1.23023,-0.6781408 -2.53235,-1.1746802 -3.86849,-1.583023 -1.27607,-0.3892452 -2.57818,-0.6711962 -3.89384,-0.8937708 -0.35695,-0.061113 -0.71356,-0.12465572 -1.07711,-0.11666942 -0.76772,0.0204866 -1.5042,0.19271282 -2.21915,0.46945542 -1.08613,0.4218848 -2.05213,1.079539 -3.10597,1.5663559 -0.5764,0.2673673 -1.1719,0.4638997 -1.81359,0.5073035 -0.82328,0.055557 -1.52295,-0.2263942 -2.11185,-0.7836988 -0.44341,-0.4180653 -0.86113,-0.8614784 -1.29656,-1.2861411 -0.73231,-0.71598891 -1.58962,-1.20037519 -2.60839,-1.36843466 -0.67675,-0.11250262 -1.35212,-0.07743236 -2.02887,0.01909767 -0.93891,0.1340309 -1.85838,0.34966092 -2.76048,0.63994546 -1.31704,0.42327373 -2.54311,1.03092683 -3.64175,1.87330753 -1.04169,0.7989769 -1.88685,1.7739996 -2.55666,2.9066649 -0.67293,1.1392627 -1.09343,2.3722775 -1.37816,3.6528629 -0.12465,0.5628603 -0.20069,1.1350957 -0.25903,1.7114977 -0.0826,0.805922 -0.1316,1.612885 -0.11111,2.422626 0.0299,1.135096 0.11667,2.267762 0.29167,3.426122 0.13542,-0.120836 0.25626,-0.226394 0.37675,-0.336466 0.73265,-0.669808 1.52746,-1.25871 2.382,-1.760458 0.96564,-0.565638 1.98963,-1.009051 3.07333,-1.297947 0.73405,-0.19688 1.48129,-0.31598 2.24103,-0.378481 0.6264,-0.05174 1.25454,-0.06111 1.87712,-0.02326 0.73509,0.04479 1.47295,0.09653 2.18894,0.29584 0.091,0.01076 0.18473,0.01493 0.27431,0.03403 0.65766,0.136809 1.3101,0.292716 1.95699,0.481262 0.74342,0.217019 1.47712,0.461121 2.20283,0.729878 0.70662,0.261811 1.40386,0.547929 2.09415,0.847589 0.20348,0.08959 0.32709,0.05035 0.48716,-0.07327 1.15281,-0.892382 2.38443,-1.650733 3.74488,-2.186162 1.49865,-0.59168 3.04209,-0.876409 4.65775,-0.74342 1.16496,0.09618 2.27853,0.385079 3.35841,0.817728" /><path
           inkscape:connector-curvature="0"
           id="path22"
           style="fill:#ecdc86;fill-opacity:1;fill-rule:nonzero;stroke:none;stroke-width:0.34723032"
           d="m 310.06729,13.129142 c -1.07988,-0.432649 -2.19345,-0.721545 -3.35841,-0.817728 -1.61566,-0.132989 -3.1591,0.15174 -4.65775,0.74342 -1.36045,0.535429 -2.59207,1.29378 -3.74488,2.186162 -0.16007,0.123614 -0.28368,0.162851 -0.48716,0.07327 -0.69029,-0.29966 -1.38753,-0.585778 -2.09415,-0.847589 -0.72571,-0.268757 -1.45941,-0.512859 -2.20283,-0.729878 -0.64689,-0.188546 -1.29933,-0.344453 -1.95699,-0.481262 -0.0896,-0.0191 -0.18333,-0.02326 -0.27431,-0.03403 0.22674,0.2632 0.45314,0.52779 0.68092,0.790643 0.92259,1.066345 1.57087,2.278873 1.95178,3.635154 0.52224,1.85421 1.06774,3.701475 1.50038,5.579991 0.31876,1.380935 0.59932,2.769857 0.78787,4.175098 0.13577,1.007662 0.22119,2.018102 0.28091,3.034098 0.0542,0.931966 0.0392,1.863585 -0.0191,2.792774 -0.175,2.810482 -0.79203,5.525823 -1.93129,8.100188 -0.68231,1.543786 -1.85699,2.60145 -3.52404,3.035488 -0.72016,0.187157 -1.43893,0.128822 -2.14693,-0.09202 -0.0556,-0.01771 -0.11007,-0.05174 -0.17222,-0.03403 1.07398,0.935786 2.2122,1.761847 3.62959,2.105257 1.1542,0.277785 2.22436,0.05556 3.22404,-0.560429 0.99134,-0.609042 1.75525,-1.453854 2.4386,-2.378875 0.89654,-1.211487 1.61149,-2.527142 2.26116,-3.882035 0.13716,-0.281951 0.14098,-0.28334 0.36077,-0.05972 1.22364,1.241001 2.5268,2.387209 3.97405,3.365356 1.45698,0.983357 3.01257,1.749694 4.75011,2.099355 1.35385,0.271534 2.7018,0.241672 4.04593,-0.0691 0.61877,-0.142364 1.21947,-0.337508 1.80699,-0.580569 0.042,-0.01736 0.0892,-0.02431 0.11111,-0.07327 -1.72539,-0.03229 -3.21882,-0.691682 -4.57788,-1.706289 -0.65627,-0.490984 -1.241,-1.055233 -1.69136,-1.739971 -0.37571,-0.568416 -0.67536,-1.181625 -0.96843,-1.795876 -0.59828,-1.253501 -1.08787,-2.54867 -1.43649,-3.895576 -0.29827,-1.151416 -0.48682,-2.319499 -0.58578,-3.506332 -0.0774,-0.916688 -0.0937,-1.836501 -0.0569,-2.753189 0.0434,-1.125721 0.14931,-2.249011 0.2941,-3.368134 0.24306,-1.877127 0.57397,-3.739323 0.87641,-5.605686 0.16806,-1.035094 0.31181,-2.072618 0.47605,-3.107364 0.24133,-1.504202 1.06878,-2.628881 2.29103,-3.494179 0.0486,-0.03368 0.0962,-0.0691 0.14514,-0.103127" /><path
           inkscape:connector-curvature="0"
           id="path24"
           style="fill:#3f2b29;fill-opacity:1;fill-rule:nonzero;stroke:none;stroke-width:0.34723032"
           d="m 307.63668,74.962179 c 0.49098,0 0.98197,10e-4 1.47156,10e-4 1.19343,-0.05417 2.36151,-0.254867 3.49279,-0.642724 0.87467,-0.299659 1.07016,-0.872242 0.54237,-1.630246 -0.3757,-0.541332 -0.89515,-0.931966 -1.4351,-1.294127 -0.70383,-0.473275 -1.45663,-0.851756 -2.25005,-1.150027 -0.83023,-0.313549 -1.62226,-0.0069 -2.1254,0.817727 -0.15868,0.260423 -0.28091,0.538555 -0.36355,0.831617 -0.0257,0.08681 -0.0625,0.126045 -0.1559,0.142364 -1.84623,0.326744 -3.4737,-0.09896 -4.84109,-1.40663 -1.11218,-1.065997 -1.77122,-2.40075 -2.2313,-3.845228 -0.41633,-1.303503 -0.6212,-2.643812 -0.68613,-4.00808 -0.0583,-1.213917 0.0229,-2.418459 0.21008,-3.617445 0.0382,-0.204866 0.0868,-0.409732 0.10868,-0.615986 0.0257,-0.256256 -0.049,-0.478831 -0.27119,-0.636126 -0.23195,-0.163893 -0.49654,-0.13542 -0.75835,-0.139587 l -1.8556,0.567027 c -0.004,0.14792 -0.008,0.294104 -0.0121,0.440635 0.009,0.640293 0.0121,1.281975 0.0476,1.92192 0.13959,2.537906 0.52223,5.024075 1.5042,7.389756 0.73092,1.759068 1.76324,3.302507 3.24452,4.523369 1.21635,1.003843 2.60423,1.662886 4.13413,2.030603 0.73231,0.176393 1.47711,0.28334 2.22991,0.320146" /><path
           inkscape:connector-curvature="0"
           id="path26"
           style="fill:#386e35;fill-opacity:1;fill-rule:nonzero;stroke:none;stroke-width:0.34723032"
           d="m 298.34549,57.771501 c 0.26042,0.0038 0.52605,-0.02465 0.758,0.139586 0.22119,0.157296 0.29723,0.381259 0.27154,0.636126 -0.0219,0.206255 -0.0719,0.411121 -0.10868,0.615987 0.11528,0.01076 0.23195,0.02153 0.34861,0.03229 0.47189,-0.264242 0.96565,-0.488205 1.42955,-0.767726 1.12329,-0.678141 1.81359,-1.688581 2.26672,-2.888956 0.0691,-0.18299 0.13959,-0.364939 0.19237,-0.560083 -0.26181,0.225006 -0.51946,0.446191 -0.78787,0.653835 -1.03509,0.802797 -2.20283,1.350726 -3.42473,1.791709 -0.31633,0.113891 -0.63092,0.231949 -0.94551,0.34723" /><path
           inkscape:connector-curvature="0"
           id="path28"
           style="fill:#386e35;fill-opacity:1;fill-rule:nonzero;stroke:none;stroke-width:0.34723032"
           d="m 296.47635,58.777774 c 0.004,-0.146531 0.008,-0.293062 0.0108,-0.439246 -0.42188,0.138198 -0.85696,0.23438 -1.26947,0.405565 0.4205,0.01215 0.8396,0.02292 1.2601,0.03368" /></g><g
         id="g112"><g
           id="g80"><path
             d="M -3.8146973e-8,45.17367 Q 2.8420351,46.703997 8.6718508,48.015705 q 5.8298152,1.311709 10.4207952,1.311709 7.797379,0 11.732504,-3.060653 3.935126,-3.060654 3.935126,-10.056433 V 11.433612 H 23.902244 v 22.590536 q 0,6.339924 -7.141524,6.339924 -1.603199,0 -3.279271,-0.364363 -1.676072,-0.364364 -2.623417,-0.874473 V 11.433612 H -3.8146973e-8 Z"
             style="font-variant:normal;font-weight:bold;font-size:medium;font-family:'Maven Pro';-inkscape-font-specification:MavenPro-Bold;writing-mode:lr-tb;fill:#24af63;fill-opacity:1;fill-rule:nonzero;stroke:none;stroke-width:0.34723032"
             id="path66"
             inkscape:connector-curvature="0" /><path
             d="m 47.148634,39.999709 h -5.392579 v 8.307487 h 5.465452 v 0.874472 q 0.07287,8.307488 3.78938,11.513886 3.78938,3.279272 10.27505,3.279272 1.165963,0 2.550545,-0.218618 1.384581,-0.218619 2.259053,-0.510109 v -9.546323 q -0.8016,0.801599 -1.603199,1.165963 -0.8016,0.437236 -2.040436,0.437236 -2.040435,0 -3.206398,-1.093091 -1.165963,-1.09309 -1.165963,-3.716507 v -2.186181 h 8.015996 V 39.999709 H 58.006666 V 11.433612 H 47.148634 Z"
             style="font-variant:normal;font-weight:bold;font-size:medium;font-family:'Maven Pro';-inkscape-font-specification:MavenPro-Bold;writing-mode:lr-tb;fill:#24af63;fill-opacity:1;fill-rule:nonzero;stroke:none;stroke-width:0.34723032"
             id="path69"
             inkscape:connector-curvature="0" /><path
             d="M 74.038658,37.522037 H 96.264831 V 30.016149 H 74.038658 Z"
             style="font-variant:normal;font-weight:bold;font-size:medium;font-family:'Maven Pro';-inkscape-font-specification:MavenPro-Bold;writing-mode:lr-tb;fill:#24af63;fill-opacity:1;fill-rule:nonzero;stroke:none;stroke-width:0.34723032"
             id="path71"
             inkscape:connector-curvature="0" /></g><g
           id="g90"><path
             d="m 124.30261,10.486267 q -5.39258,0 -9.76494,2.113308 -4.37236,2.113308 -6.99578,6.339925 -2.55054,4.299489 -2.55054,10.420795 0,9.837814 5.24683,14.86603 5.24683,5.101089 13.99156,5.101089 3.06065,0 6.19418,-0.655855 3.13352,-0.582981 5.53832,-1.676072 v -9.327705 q -2.98778,1.311709 -5.31971,1.967563 -2.33192,0.728727 -4.66385,0.728727 -4.8096,0 -7.50589,-2.404799 -2.69629,-2.331926 -2.69629,-7.360142 0,-5.611198 2.47768,-8.307487 2.55054,-2.69629 8.23461,-2.69629 4.29949,0 9.54632,2.914908 v -9.254833 q -2.62341,-1.384581 -5.46545,-2.040435 -2.76916,-0.728727 -6.26705,-0.728727 z"
             style="font-variant:normal;font-weight:bold;font-size:medium;font-family:'Maven Pro';-inkscape-font-specification:MavenPro-Bold;writing-mode:lr-tb;fill:#000000;fill-opacity:1;fill-rule:nonzero;stroke:none;stroke-width:0.34723032"
             id="path57"
             inkscape:connector-curvature="0" /><path
             d="m 160.22885,10.340521 q -9.32771,0 -13.99156,4.955344 -4.66385,4.955343 -4.66385,14.720284 0,10.202178 4.59098,14.86603 4.66385,4.663853 14.06443,4.663853 9.40058,0 14.1373,-4.809598 4.73673,-4.736725 4.73673,-14.720285 0,-9.619196 -4.88247,-14.647412 -4.88247,-5.028216 -13.99156,-5.028216 z m 0,8.671851 q 4.008,0 6.04843,2.769163 2.04044,2.842035 2.04044,8.234614 0,5.902689 -2.04044,8.38036 -1.96756,2.550545 -6.04843,2.550545 -4.22662,0 -6.12131,-2.550545 -1.82182,-2.477671 -1.82182,-8.38036 0,-5.611197 1.89469,-8.307487 1.96757,-2.69629 6.04844,-2.69629 z"
             style="font-variant:normal;font-weight:bold;font-size:medium;font-family:'Maven Pro';-inkscape-font-specification:MavenPro-Bold;writing-mode:lr-tb;fill:#000000;fill-opacity:1;fill-rule:nonzero;stroke:none;stroke-width:0.34723032"
             id="path59"
             inkscape:connector-curvature="0" /><path
             d="m 186.60876,44.444943 q 1.09309,0.947345 3.78938,2.113308 2.76916,1.165963 6.12131,1.967563 3.42502,0.874472 6.55854,0.874472 6.04843,0 8.38036,-1.821817 v -7.943124 q -2.91491,0.655854 -8.38036,0.655854 -3.42502,0 -5.6112,-0.364363 V 11.433612 h -10.85803 z"
             style="font-variant:normal;font-weight:bold;font-size:medium;font-family:'Maven Pro';-inkscape-font-specification:MavenPro-Bold;writing-mode:lr-tb;fill:#000000;fill-opacity:1;fill-rule:nonzero;stroke:none;stroke-width:0.34723032"
             id="path61"
             inkscape:connector-curvature="0" /><path
             d="m 232.81005,49.546032 q 17.27083,0 17.05221,-22.517663 h -24.33948 q 1.38458,-7.651633 10.27505,-7.651633 2.69629,0 5.24684,0.728727 2.62341,0.801599 5.53832,2.040435 v -9.327705 q -5.97556,-2.477672 -13.40857,-2.477672 -5.6112,0 -9.83782,2.259054 -4.22661,2.331926 -6.55854,6.631415 -2.33193,4.299489 -2.33193,10.129305 0,9.619196 4.73673,14.86603 4.8096,5.319707 13.62719,5.319707 z m -0.43723,-8.307487 q -5.82982,0 -6.92291,-7.28727 h 13.6272 q -0.51011,3.935125 -2.11331,5.611197 -1.53033,1.676073 -4.59098,1.676073 z"
             style="font-variant:normal;font-weight:bold;font-size:medium;font-family:'Maven Pro';-inkscape-font-specification:MavenPro-Bold;writing-mode:lr-tb;fill:#000000;fill-opacity:1;fill-rule:nonzero;stroke:none;stroke-width:0.34723032"
             id="path63"
             inkscape:connector-curvature="0" /></g><g
           id="g38"
           transform="matrix(0.34723031,0,0,0.34723031,-1.9761583e-8,1.6318983e-5)"><g
             id="g40"
             clip-path="url(#clipPath44)"><g
               id="g46"
               clip-path="url(#clipPath50)"><g
                 id="g52"
                 transform="translate(0,-0.0050354)"><g
                   id="g54"><g
                     id="g56"
                     clip-path="url(#clipPath60)"><g
                       id="g62"><g
                         id="g64"><g
                           id="g66"
                           clip-path="url(#clipPath70)"><g
                             id="g72"><path
                               d="M 237.867,108.066 216.336,86.449 h 61.094 v 21.617 z"
                               style="fill:url(#linearGradient84);stroke:none"
                               id="path86"
                               inkscape:connector-curvature="0" /></g></g></g></g></g></g></g></g></g></g></g></g></g></svg>