<?xml version="1.0" encoding="UTF-8" standalone="no"?>
<!-- Created with Inkscape (http://www.inkscape.org/) -->

<svg
   xmlns:dc="http://purl.org/dc/elements/1.1/"
   xmlns:cc="http://creativecommons.org/ns#"
   xmlns:rdf="http://www.w3.org/1999/02/22-rdf-syntax-ns#"
   xmlns:svg="http://www.w3.org/2000/svg"
   xmlns="http://www.w3.org/2000/svg"
   xmlns:sodipodi="http://sodipodi.sourceforge.net/DTD/sodipodi-0.dtd"
   xmlns:inkscape="http://www.inkscape.org/namespaces/inkscape"
   version="1.1"
   id="svg2"
   xml:space="preserve"
   width="1841.3871"
   height="558.1629"
   viewBox="0 0 1841.3871 558.16291"
   sodipodi:docname="nf-core_jobim2020.svg"
   inkscape:version="0.92.3 (2405546, 2018-03-11)"><metadata
     id="metadata8"><rdf:RDF><cc:Work
         rdf:about=""><dc:format>image/svg+xml</dc:format><dc:type
           rdf:resource="http://purl.org/dc/dcmitype/StillImage" /><dc:title></dc:title></cc:Work></rdf:RDF></metadata><defs
     id="defs6"><clipPath
   clipPathUnits="userSpaceOnUse"
   id="clipPath44"><path
     d="m 216,108.995 h 62 v -23 h -62 z"
     id="path42"
     inkscape:connector-curvature="0" /></clipPath><clipPath
   clipPathUnits="userSpaceOnUse"
   id="clipPath50"><path
     d="M 237.867,108.061 216.336,86.444 h 61.094 v 21.617 z"
     id="path48"
     inkscape:connector-curvature="0" /></clipPath><clipPath
   clipPathUnits="userSpaceOnUse"
   id="clipPath60"><path
     d="m 216,86 h 62 v 23 h -62 z"
     id="path58"
     inkscape:connector-curvature="0" /></clipPath><clipPath
   clipPathUnits="userSpaceOnUse"
   id="clipPath70"><path
     d="M 237.867,108.066 216.336,86.449 h 61.094 v 21.617 z"
     id="path68"
     inkscape:connector-curvature="0" /></clipPath><linearGradient
   x1="0"
   y1="0"
   x2="1"
   y2="0"
   gradientUnits="userSpaceOnUse"
   gradientTransform="matrix(37.936525,-29.638943,-29.638943,-37.936525,233.15029,107.98614)"
   spreadMethod="pad"
   id="linearGradient84"><stop
     style="stop-opacity:1;stop-color:#0c542a"
     offset="0"
     id="stop74" /><stop
     style="stop-opacity:1;stop-color:#0c542a"
     offset="0.21472"
     id="stop76" /><stop
     style="stop-opacity:1;stop-color:#25af64"
     offset="0.57995"
     id="stop78" /><stop
     style="stop-opacity:1;stop-color:#25af64"
     offset="0.84663"
     id="stop80" /><stop
     style="stop-opacity:1;stop-color:#25af64"
     offset="1"
     id="stop82" /></linearGradient>

</defs><sodipodi:namedview
     pagecolor="#ffffff"
     bordercolor="#666666"
     borderopacity="1"
     objecttolerance="10"
     gridtolerance="10"
     guidetolerance="10"
     inkscape:pageopacity="0"
     inkscape:pageshadow="2"
     inkscape:window-width="1920"
     inkscape:window-height="1055"
     id="namedview4"
     showgrid="false"
     inkscape:zoom="0.6055312"
     inkscape:cx="950.81468"
     inkscape:cy="472.53153"
     inkscape:window-x="0"
     inkscape:window-y="0"
     inkscape:window-maximized="1"
     inkscape:current-layer="g10"
     fit-margin-top="0"
     fit-margin-left="0"
     fit-margin-right="0"
     fit-margin-bottom="0" /><g
     id="g10"
     inkscape:groupmode="layer"
     inkscape:label="nf-core"
     transform="matrix(1.3333333,0,0,-1.3333333,303.8484,287.99333)"><g
       id="g12"><path
   d="m 924.754,119.987 v -3.402 c -0.07,-0.02 -0.141,-0.035 -0.211,-0.055 -0.578,0.477 -1.164,0.949 -1.738,1.43 -3.825,3.211 -7.875,6.094 -12.356,8.332 -0.773,0.39 -1.527,0.844 -2.394,1.023 -0.067,0.137 -0.203,0.157 -0.325,0.207 -1.691,0.7 -3.421,1.262 -5.203,1.672 -3.871,0.899 -7.754,0.981 -11.652,0.199 -5.004,-1.007 -9.484,-3.214 -13.68,-6.046 -4.168,-2.813 -7.922,-6.118 -11.445,-9.692 -0.633,-0.644 -0.645,-0.641 -1.035,0.172 -1.875,3.902 -3.934,7.691 -6.516,11.18 -1.969,2.664 -4.168,5.097 -7.023,6.851 -2.879,1.774 -5.961,2.414 -9.285,1.614 -4.082,-0.989 -7.36,-3.368 -10.453,-6.063 -1.883,-1.461 -3.575,-3.137 -5.325,-4.75 -1.57,-1.445 -3.148,-2.883 -4.777,-4.262 -0.297,-0.25 -0.457,-0.246 -0.727,0.035 -1.582,1.661 -3.281,3.18 -5.32,4.278 -2.93,1.574 -5.969,1.769 -9.109,0.746 -2.633,-0.856 -4.961,-2.297 -7.293,-3.738 -0.918,-0.571 -1.774,-1.243 -2.766,-1.692 v 0.231 c 0.137,0.164 0.086,0.363 0.094,0.547 0.148,4.207 0.508,8.394 1.16,12.558 0.898,5.738 2.344,11.317 4.902,16.559 1.914,3.926 4.414,7.426 7.661,10.359 4.265,3.856 9.3,6.293 14.781,7.867 5.937,1.707 12.039,2.414 18.187,2.75 2.434,0.133 4.871,0.192 7.309,0.285 1.183,-0.492 2.441,-0.769 3.656,-1.171 1.781,-0.543 3.567,-1.09 5.348,-1.633 0.906,-0.332 1.812,-0.672 2.722,-1 3.524,-1.27 6.883,-2.848 9.864,-5.16 0.773,-0.598 1.511,-1.235 2.269,-1.883 -0.148,0.562 -0.355,1.086 -0.554,1.613 -1.305,3.457 -3.293,6.367 -6.528,8.316 -1.336,0.809 -2.758,1.454 -4.117,2.215 0.133,0.016 0.266,0.032 0.398,0.051 4.289,0.715 8.61,1.137 12.946,1.309 3.73,0.148 7.465,0.093 11.187,-0.293 4.352,-0.453 8.606,-1.313 12.715,-2.832 6.082,-2.246 11.262,-5.766 15.277,-10.895 3.508,-4.476 5.743,-9.566 7.172,-15.035 1.422,-5.422 2.028,-10.953 2.184,-16.547 v -6.25"
   style="fill:#22ae63;fill-opacity:1;fill-rule:nonzero;stroke:none"
   id="path14"
   inkscape:connector-curvature="0" /><path
   d="m 924.754,126.237 c 0.035,0 0.066,0.008 0.101,0.02 v -6.289 c -0.035,0.007 -0.066,0.011 -0.101,0.015 v 6.254"
   style="fill:#ecdc86;fill-opacity:1;fill-rule:nonzero;stroke:none"
   id="path16"
   inkscape:connector-curvature="0" /><path
   d="m 890.215,215.995 c 0,-0.035 0,-0.07 0.008,-0.106 -1.414,0 -2.825,-0.003 -4.239,-0.003 0.008,0.023 0.02,0.05 0.024,0.074 0,0.012 -0.012,0.023 -0.02,0.035 h 4.231 z"
   style="fill:#a0918f;fill-opacity:1;fill-rule:nonzero;stroke:none"
   id="path18"
   inkscape:connector-curvature="0" /><path
   d="m 892.973,37.811 c 2.386,0.957 4.66,2.133 6.871,3.446 2.633,1.562 5.144,3.308 7.59,5.148 2.062,1.551 4.078,3.16 6.039,4.84 1.132,0.973 2.3,1.902 3.441,2.863 0.231,0.192 0.234,0.11 0.293,-0.125 0.414,-1.554 0.703,-3.136 1.016,-4.711 0.425,-2.148 0.769,-4.312 1.007,-6.488 0.274,-2.508 0.375,-5.035 0.223,-7.555 -0.183,-3.148 -0.75,-6.238 -1.844,-9.207 -0.66,-1.789 -1.527,-3.484 -2.55,-5.093 -1.313,-2.067 -2.879,-3.93 -4.692,-5.571 -2.203,-1.996 -4.637,-3.668 -7.246,-5.109 C 899.578,8.296 895.828,6.866 891.98,5.69 888.305,4.569 884.555,3.757 880.766,3.116 879.738,2.94 878.711,2.757 877.664,2.78 c -2.211,0.059 -4.332,0.555 -6.391,1.352 -3.128,1.215 -5.91,3.109 -8.945,4.511 -1.66,0.77 -3.375,1.336 -5.223,1.461 -2.371,0.16 -4.386,-0.652 -6.082,-2.257 -1.277,-1.204 -2.48,-2.481 -3.734,-3.704 -2.109,-2.062 -4.578,-3.457 -7.512,-3.941 -1.949,-0.324 -3.894,-0.223 -5.843,0.055 -2.704,0.386 -5.352,1.007 -7.95,1.843 -3.793,1.219 -7.324,2.969 -10.488,5.395 -3,2.301 -5.434,5.109 -7.363,8.371 -1.938,3.281 -3.149,6.832 -3.969,10.52 -0.359,1.621 -0.578,3.269 -0.746,4.929 -0.238,2.321 -0.379,4.645 -0.32,6.977 0.086,3.269 0.336,6.531 0.84,9.867 0.39,-0.348 0.738,-0.652 1.085,-0.969 2.11,-1.929 4.399,-3.625 6.86,-5.07 2.781,-1.629 5.73,-2.906 8.851,-3.738 2.114,-0.567 4.266,-0.91 6.454,-1.09 1.804,-0.149 3.613,-0.176 5.406,-0.067 2.117,0.129 4.242,0.278 6.304,0.852 0.262,0.031 0.532,0.043 0.79,0.098 1.894,0.394 3.773,0.843 5.636,1.386 2.141,0.625 4.254,1.328 6.344,2.102 2.035,0.754 4.043,1.578 6.031,2.441 0.586,0.258 0.942,0.145 1.403,-0.211 3.32,-2.57 6.867,-4.754 10.785,-6.296 4.316,-1.704 8.761,-2.524 13.414,-2.141 3.355,0.277 6.562,1.109 9.672,2.355"
   style="fill:#22ae63;fill-opacity:1;fill-rule:nonzero;stroke:none"
   id="path20"
   inkscape:connector-curvature="0" /><path
   d="m 892.973,37.811 c -3.11,-1.246 -6.317,-2.078 -9.672,-2.355 -4.653,-0.383 -9.098,0.437 -13.414,2.141 -3.918,1.542 -7.465,3.726 -10.785,6.296 -0.461,0.356 -0.817,0.469 -1.403,0.211 -1.988,-0.863 -3.996,-1.687 -6.031,-2.441 -2.09,-0.774 -4.203,-1.477 -6.344,-2.102 -1.863,-0.543 -3.742,-0.992 -5.636,-1.386 -0.258,-0.055 -0.528,-0.067 -0.79,-0.098 0.653,0.758 1.305,1.52 1.961,2.277 2.657,3.071 4.524,6.563 5.621,10.469 1.504,5.34 3.075,10.66 4.321,16.07 0.918,3.977 1.726,7.977 2.269,12.024 0.391,2.902 0.637,5.812 0.809,8.738 0.156,2.684 0.113,5.367 -0.055,8.043 -0.504,8.094 -2.281,15.914 -5.562,23.328 -1.965,4.446 -5.348,7.492 -10.149,8.742 -2.074,0.539 -4.144,0.371 -6.183,-0.265 -0.16,-0.051 -0.317,-0.149 -0.496,-0.098 3.093,2.695 6.371,5.074 10.453,6.063 3.324,0.8 6.406,0.16 9.285,-1.614 2.855,-1.754 5.055,-4.187 7.023,-6.851 2.582,-3.489 4.641,-7.278 6.512,-11.18 0.395,-0.812 0.406,-0.816 1.039,-0.172 3.524,3.574 7.277,6.875 11.445,9.692 4.196,2.832 8.676,5.039 13.68,6.046 3.899,0.782 7.781,0.696 11.652,-0.199 1.782,-0.41 3.512,-0.972 5.204,-1.672 0.121,-0.05 0.257,-0.07 0.32,-0.211 -4.969,-0.093 -9.27,-1.992 -13.184,-4.914 -1.89,-1.414 -3.574,-3.039 -4.871,-5.011 -1.082,-1.637 -1.945,-3.403 -2.789,-5.172 -1.723,-3.61 -3.133,-7.34 -4.137,-11.219 -0.859,-3.316 -1.402,-6.68 -1.687,-10.098 -0.223,-2.64 -0.27,-5.289 -0.164,-7.929 0.125,-3.242 0.43,-6.477 0.847,-9.7 0.7,-5.406 1.653,-10.769 2.524,-16.144 0.484,-2.981 0.898,-5.969 1.371,-8.949 0.695,-4.332 3.078,-7.571 6.598,-10.063 0.14,-0.097 0.277,-0.199 0.418,-0.297"
   style="fill:#ecdc86;fill-opacity:1;fill-rule:nonzero;stroke:none"
   id="path22"
   inkscape:connector-curvature="0" /><path
   d="m 885.973,215.886 c 1.414,0 2.828,0.003 4.238,0.003 3.437,-0.156 6.801,-0.734 10.059,-1.851 2.519,-0.863 3.082,-2.512 1.562,-4.695 -1.082,-1.559 -2.578,-2.684 -4.133,-3.727 -2.027,-1.363 -4.195,-2.453 -6.48,-3.312 -2.391,-0.903 -4.672,-0.02 -6.121,2.355 -0.457,0.75 -0.809,1.551 -1.047,2.395 -0.074,0.25 -0.18,0.363 -0.449,0.41 -5.317,0.941 -10.004,-0.285 -13.942,-4.051 -3.203,-3.07 -5.101,-6.914 -6.426,-11.074 -1.199,-3.754 -1.789,-7.614 -1.976,-11.543 -0.168,-3.496 0.066,-6.965 0.605,-10.418 0.11,-0.59 0.25,-1.18 0.313,-1.774 0.074,-0.738 -0.141,-1.379 -0.781,-1.832 -0.668,-0.472 -1.43,-0.39 -2.184,-0.402 l -5.344,1.633 c -0.012,0.426 -0.023,0.847 -0.035,1.269 0.027,1.844 0.035,3.692 0.137,5.535 0.402,7.309 1.504,14.469 4.332,21.282 2.105,5.066 5.078,9.511 9.344,13.027 3.503,2.891 7.5,4.789 11.906,5.848 2.109,0.508 4.254,0.816 6.422,0.922"
   style="fill:#3f2b29;fill-opacity:1;fill-rule:nonzero;stroke:none"
   id="path24"
   inkscape:connector-curvature="0" /><path
   d="m 859.215,166.378 c 0.75,0.011 1.515,-0.071 2.183,0.402 0.637,0.453 0.856,1.098 0.782,1.832 -0.063,0.594 -0.207,1.184 -0.313,1.774 0.332,0.031 0.668,0.062 1.004,0.093 1.359,-0.761 2.781,-1.406 4.117,-2.211 3.235,-1.953 5.223,-4.863 6.528,-8.32 0.199,-0.527 0.402,-1.051 0.554,-1.613 -0.754,0.648 -1.496,1.285 -2.269,1.883 -2.981,2.312 -6.344,3.89 -9.863,5.16 -0.911,0.328 -1.817,0.668 -2.723,1"
   style="fill:#386e35;fill-opacity:1;fill-rule:nonzero;stroke:none"
   id="path26"
   inkscape:connector-curvature="0" /><path
   d="m 853.832,169.276 c 0.012,-0.422 0.023,-0.844 0.031,-1.265 -1.215,0.398 -2.468,0.675 -3.656,1.168 1.211,0.035 2.418,0.066 3.629,0.097"
   style="fill:#386e35;fill-opacity:1;fill-rule:nonzero;stroke:none"
   id="path28"
   inkscape:connector-curvature="0" /><text
   transform="matrix(1,0,0,-1,-13.851319,32.927988)"
   style="font-variant:normal;font-weight:bold;font-size:209.86846924px;font-family:'Maven Pro';-inkscape-font-specification:MavenPro-Bold;writing-mode:lr-tb;fill:#24af63;fill-opacity:1;fill-rule:nonzero;stroke:none"
   id="text32"><tspan
     x="0 127.8099 210.49808"
     y="0"
     sodipodi:role="line"
     id="tspan30">nf-</tspan></text>

<text
   transform="matrix(1,0,0,-1,294.39301,32.927988)"
   style="font-variant:normal;font-weight:bold;font-size:209.86846924px;font-family:'Maven Pro';-inkscape-font-specification:MavenPro-Bold;writing-mode:lr-tb;fill:#000000;fill-opacity:1;fill-rule:nonzero;stroke:none"
   id="text36"><tspan
     x="0 105.35397 229.17636 315.22244"
     y="0"
     sodipodi:role="line"
     id="tspan34">core</tspan></text>

</g><g
       id="g38"><g
         id="g40"
         clip-path="url(#clipPath44)"><g
           id="g46"
           clip-path="url(#clipPath50)"><g
             id="g52"
             transform="translate(0,-0.0050354)"><g
               id="g54"><g
                 id="g56"
                 clip-path="url(#clipPath60)"><g
                   id="g62"><g
                     id="g64"><g
                       id="g66"
                       clip-path="url(#clipPath70)"><g
                         id="g72"><path
                           d="M 237.867,108.066 216.336,86.449 h 61.094 v 21.617 z"
                           style="fill:url(#linearGradient84);stroke:none"
                           id="path86"
                           inkscape:connector-curvature="0" /></g></g></g></g></g></g></g></g></g></g><text
       transform="scale(1,-1)"
       style="font-variant:normal;font-weight:bold;font-size:79.16983795px;font-family:'Maven Pro';-inkscape-font-specification:MavenPro-Bold;text-align:center;writing-mode:lr-tb;text-anchor:middle;fill:#000000;fill-opacity:1;fill-rule:nonzero;stroke:none;stroke-width:0.3772355"
       id="text872"
       x="462.61261"
       y="83.277779"><tspan
         sodipodi:role="line"
         x="462.61261"
         y="83.277779"
         id="tspan888"
         style="stroke-width:0.3772355">a community effort for collaborative</tspan><tspan
         sodipodi:role="line"
         x="462.61261"
         y="187.10989"
         id="tspan892"
         style="stroke-width:0.3772355">peer-reviewed analysis pipelines</tspan></text>
</g></svg>