<?xml version="1.0" encoding="UTF-8" standalone="no"?>
<svg
   xmlns:dc="http://purl.org/dc/elements/1.1/"
   xmlns:cc="http://creativecommons.org/ns#"
   xmlns:rdf="http://www.w3.org/1999/02/22-rdf-syntax-ns#"
   xmlns:svg="http://www.w3.org/2000/svg"
   xmlns="http://www.w3.org/2000/svg"
   xmlns:sodipodi="http://sodipodi.sourceforge.net/DTD/sodipodi-0.dtd"
   xmlns:inkscape="http://www.inkscape.org/namespaces/inkscape"
   width="200"
   height="200"
   viewBox="0 0 200 200"
   version="1.1"
   id="svg25"
   sodipodi:docname="Singularity_logo.svg"
   inkscape:version="0.92.3 (2405546, 2018-03-11)"
   style="enable-background:new">
  <metadata
     id="metadata29">
    <rdf:RDF>
      <cc:Work
         rdf:about="">
        <dc:format>image/svg+xml</dc:format>
        <dc:type
           rdf:resource="http://purl.org/dc/dcmitype/StillImage" />
        <dc:title></dc:title>
      </cc:Work>
    </rdf:RDF>
  </metadata>
  <sodipodi:namedview
     pagecolor="#ffffff"
     bordercolor="#666666"
     borderopacity="1"
     objecttolerance="10"
     gridtolerance="10"
     guidetolerance="10"
     inkscape:pageopacity="0"
     inkscape:pageshadow="2"
     inkscape:window-width="1920"
     inkscape:window-height="1012"
     id="namedview27"
     showgrid="false"
     inkscape:zoom="1.8541911"
     inkscape:cx="32.453572"
     inkscape:cy="197.31844"
     inkscape:window-x="0"
     inkscape:window-y="0"
     inkscape:window-maximized="1"
     inkscape:current-layer="svg25"
     fit-margin-top="0"
     fit-margin-left="0"
     fit-margin-right="0"
     fit-margin-bottom="0" />
  <defs
     id="defs13">
    <filter
       id="Ellipse_2"
       x="0"
       y="0"
       width="360"
       height="360"
       filterUnits="userSpaceOnUse">
      <feOffset
         dy="1"
         input="SourceAlpha"
         id="feOffset2" />
      <feGaussianBlur
         stdDeviation="3"
         result="blur"
         id="feGaussianBlur4" />
      <feFlood
         flood-opacity="0.349"
         id="feFlood6" />
      <feComposite
         operator="in"
         in2="blur"
         id="feComposite8"
         result="result1" />
      <feComposite
         in="SourceGraphic"
         in2="result1"
         id="feComposite10" />
    </filter>
  </defs>
  <g
     id="g2030"
     transform="matrix(0.58307897,0,0,0.58307897,-4.9542139,-4.9542139)">
    <circle
       r="171.50336"
       cy="180"
       cx="180"
       id="path917"
       style="fill:#ffffff;fill-opacity:1;stroke:none;stroke-width:0.7227273;stroke-linecap:round;stroke-linejoin:bevel;stroke-miterlimit:4;stroke-dasharray:none;stroke-opacity:1" />
    <g
       id="Group_50"
       data-name="Group 50"
       transform="translate(-3757.012,-1045.01)">
      <path
         id="Path_135"
         data-name="Path 135"
         d="m 3936.318,1066.01 c -85.064,0.255 -153.98,70.708 -154.306,157.708 h 31.851 c 0.326,-68.779 55,-124.451 122.454,-124.621 z"
         inkscape:connector-curvature="0"
         style="fill:#21a1da" />
      <path
         id="Path_136"
         data-name="Path 136"
         d="m 4304,1066.473 v 33.133 c 64.438,3.591 115.645,57.874 115.96,124.432 h 32.161 C 4451.8,1139.156 4386.194,1070.027 4304,1066.473 Z"
         transform="translate(-360.57,-0.32)"
         inkscape:connector-curvature="0"
         style="fill:#8ac13f" />
      <path
         id="Path_137"
         data-name="Path 137"
         d="m 3936.629,1718.436 c -65.424,-0.165 -118.82,-52.535 -122.278,-118.436 h -31.888 c 3.477,84.13 71.128,151.274 154.166,151.523 z"
         transform="translate(-0.311,-368.86)"
         inkscape:connector-curvature="0"
         style="fill:#bcbdc0" />
      <path
         id="Path_138"
         data-name="Path 138"
         d="m 4419.784,1600 c -3.343,63.707 -53.354,114.768 -115.784,118.247 v 33.133 c 80.189,-3.467 144.591,-69.348 147.981,-151.38 z"
         transform="translate(-360.57,-368.86)"
         inkscape:connector-curvature="0"
         style="fill:#f3931e" />
      <path
         id="Path_139"
         data-name="Path 139"
         d="m 4140.016,1369.155 c 0,0 -7.421,-2.783 -18.554,-7.422 -14.843,-6.185 -12.06,-12.679 -12.06,-12.679 0,0 3.092,-10.823 21.337,-7.112 19.036,3.872 33.088,23.811 33.088,23.811 l 18.245,-52.261 c -28.141,-11.442 -70.365,-11.985 -88.442,-10.2 -40.819,4.02 -57.827,28.078 -57.827,52.416 0,18.634 6.8,32.315 22.72,41.011 18.942,11.825 36.179,12.8 40.982,21.61 6.36,11.661 -8.658,13.916 -8.658,13.916 -24.739,1.855 -43.912,-25.667 -43.912,-25.667 l -17.935,54.73 c 69.578,23.5 117.51,7.422 117.51,7.422 21.956,-7.422 38.964,-22.574 38.964,-48.241 0,-25.277 -14.534,-40.201 -45.458,-51.334 z"
         transform="translate(-170.61,-163.373)"
         inkscape:connector-curvature="0"
         style="fill:#1d315f" />
    </g>
  </g>
</svg>
