<?xml version="1.0" encoding="UTF-8" standalone="no"?>
<!-- Created with Inkscape (http://www.inkscape.org/) -->

<svg
   xmlns:dc="http://purl.org/dc/elements/1.1/"
   xmlns:cc="http://creativecommons.org/ns#"
   xmlns:rdf="http://www.w3.org/1999/02/22-rdf-syntax-ns#"
   xmlns:svg="http://www.w3.org/2000/svg"
   xmlns="http://www.w3.org/2000/svg"
   xmlns:sodipodi="http://sodipodi.sourceforge.net/DTD/sodipodi-0.dtd"
   xmlns:inkscape="http://www.inkscape.org/namespaces/inkscape"
   version="1.1"
   id="svg162"
   xml:space="preserve"
   width="179.90994"
   height="150.38712"
   viewBox="0 0 179.90994 150.38712"
   sodipodi:docname="SU.svg"
   inkscape:version="0.92.3 (2405546, 2018-03-11)"><metadata
     id="metadata168"><rdf:RDF><cc:Work
         rdf:about=""><dc:format>image/svg+xml</dc:format><dc:type
           rdf:resource="http://purl.org/dc/dcmitype/StillImage" /><dc:title></dc:title></cc:Work></rdf:RDF></metadata><defs
     id="defs166" /><sodipodi:namedview
     pagecolor="#ffffff"
     bordercolor="#666666"
     borderopacity="1"
     objecttolerance="10"
     gridtolerance="10"
     guidetolerance="10"
     inkscape:pageopacity="0"
     inkscape:pageshadow="2"
     inkscape:window-width="751"
     inkscape:window-height="480"
     id="namedview164"
     showgrid="false"
     inkscape:zoom="1.3951425"
     inkscape:cx="89.954971"
     inkscape:cy="75.193558"
     inkscape:window-x="235"
     inkscape:window-y="348"
     inkscape:window-maximized="0"
     inkscape:current-layer="g170" /><g
     id="g170"
     inkscape:groupmode="layer"
     inkscape:label="SU"
     transform="matrix(1.3333333,0,0,-1.3333333,0,150.38712)"><g
       id="g172"><path
         d="m 0.199,26.415 h 2.024 v -2.449 c 0.746,-0.535 2.238,-0.644 3.41,-0.644 2.555,0 4.043,1.175 4.043,3.195 0,4.691 -9.477,1.918 -9.477,8.098 0,2.132 1.278,5.003 6.5,5.003 1.168,0 3.508,-0.32 4.684,-0.851 V 35.361 H 9.359 v 2.023 c -0.64,0.316 -2.023,0.535 -2.879,0.535 -1.808,0 -4.042,-0.64 -4.042,-3.094 0,-4.257 9.691,-1.597 9.691,-7.988 0,-3.726 -3.41,-5.324 -6.606,-5.324 -2.875,0 -4.472,0.746 -5.324,1.066 z"
         style="fill:#00305f;fill-opacity:1;fill-rule:evenodd;stroke:none"
         id="path174"
         inkscape:connector-curvature="0" /><path
         d="m 13.621,34.615 h 1.914 l 0.215,3.304 h 2.023 l -0.109,-3.304 h 3.945 v -1.489 h -3.945 v -6.39 c 0,-1.918 0,-3.414 1.816,-3.414 1.063,0 2.02,0.32 2.555,0.429 v -1.492 c -0.746,-0.426 -1.812,-0.535 -2.875,-0.535 -3.625,0 -3.625,2.453 -3.625,4.051 v 7.351 h -1.914 z"
         style="fill:#00305f;fill-opacity:1;fill-rule:evenodd;stroke:none"
         id="path176"
         inkscape:connector-curvature="0" /><path
         d="m 29.277,23.322 c 2.664,0 4.047,2.242 4.047,4.902 0,2.875 -1.383,5.004 -4.047,5.004 -2.773,0 -4.047,-2.129 -4.047,-5.004 0,-2.66 1.274,-4.902 4.047,-4.902 z m 0,11.718 c 3.832,0 6.18,-2.664 6.18,-6.39 0,-3.942 -2.348,-7.137 -6.18,-7.137 -3.836,0 -6.07,2.773 -6.07,6.391 0,4.156 2.234,7.136 6.07,7.136 z"
         style="fill:#00305f;fill-opacity:1;fill-rule:evenodd;stroke:none"
         id="path178"
         inkscape:connector-curvature="0" /><path
         d="m 47.809,22.259 c -0.957,-0.426 -2.235,-0.746 -3.731,-0.746 -5.004,0 -6.601,3.516 -6.601,6.711 0,5.004 3.621,6.816 6.5,6.816 1.277,0 2.875,-0.215 3.941,-0.746 V 31.099 H 46.32 v 2.027 c -0.746,0.102 -1.707,0.102 -2.242,0.102 -3.726,0 -4.363,-2.871 -4.363,-5.004 0,-0.641 0,-4.902 4.683,-4.902 1.387,0 2.454,0.32 3.52,0.644 z"
         style="fill:#00305f;fill-opacity:1;fill-rule:evenodd;stroke:none"
         id="path180"
         inkscape:connector-curvature="0" /><path
         d="m 51.535,39.517 h -2.344 v 1.488 h 4.371 V 29.181 l 4.793,3.945 h -1.597 v 1.489 h 5.535 V 33.126 H 60.91 l -5.328,-4.367 5.648,-5.328 h 1.598 v -1.598 h -5.539 v 1.598 h 1.488 v 0.211 l -5.215,4.793 v -5.004 h 1.598 v -1.598 h -5.433 v 1.598 h 1.808 z"
         style="fill:#00305f;fill-opacity:1;fill-rule:evenodd;stroke:none"
         id="path182"
         inkscape:connector-curvature="0" /><path
         d="m 66.023,39.517 h -2.558 v 1.488 h 4.578 v -6.711 c 0,-0.531 -0.211,-1.918 -0.211,-2.449 0.531,1.918 2.555,3.195 4.582,3.195 3.516,0 4.363,-2.449 4.363,-4.793 0,-2.132 -0.211,-4.683 -0.211,-6.816 h 1.918 v -1.598 h -5.539 v 1.598 h 1.598 c 0,2.133 0.211,4.152 0.211,6.281 0,1.176 -0.211,3.516 -2.875,3.516 -1.809,0 -3.836,-0.953 -3.836,-4.469 v -5.328 h 1.812 v -1.598 h -5.75 v 1.598 h 1.918 z"
         style="fill:#00305f;fill-opacity:1;fill-rule:evenodd;stroke:none"
         id="path184"
         inkscape:connector-curvature="0" /><path
         d="m 86.047,23.322 c 2.765,0 4.043,2.242 4.043,4.902 0,2.875 -1.278,5.004 -4.043,5.004 -2.664,0 -4.047,-2.129 -4.047,-5.004 0,-2.66 1.383,-4.902 4.047,-4.902 z m 0,11.718 c 3.832,0 6.172,-2.664 6.172,-6.39 0,-3.942 -2.34,-7.137 -6.172,-7.137 -3.836,0 -6.285,2.773 -6.285,6.391 0,4.156 2.449,7.136 6.285,7.136 z"
         style="fill:#00305f;fill-opacity:1;fill-rule:evenodd;stroke:none"
         id="path186"
         inkscape:connector-curvature="0" /><path
         d="m 95.523,39.517 h -2.339 v 1.488 h 4.363 V 23.431 h 2.027 v -1.598 h -5.969 v 1.598 h 1.918 z"
         style="fill:#00305f;fill-opacity:1;fill-rule:evenodd;stroke:none"
         id="path188"
         inkscape:connector-curvature="0" /><path
         d="m 101.383,23.431 h 1.597 l 0.11,9.695 h -2.028 v 1.489 h 4.047 c 0,-0.321 0,-0.957 -0.109,-1.387 l -0.211,-1.383 H 105 c 0.43,1.918 2.453,3.195 4.371,3.195 2.34,0 3.516,-1.382 3.836,-2.98 h 0.102 c 0.214,0.531 1.066,2.98 4.261,2.98 3.516,0 4.371,-2.449 4.371,-4.793 v -6.816 h 1.809 v -1.598 h -5.434 v 1.598 h 1.598 v 6.281 c 0,1.817 -0.316,3.516 -2.664,3.516 -1.699,0 -3.727,-0.953 -3.727,-4.469 v -5.328 h 1.918 v -1.598 h -5.648 v 1.598 h 1.496 c 0.211,2.133 0.211,4.152 0.211,6.281 0,1.817 -0.32,3.516 -2.664,3.516 -1.703,0 -3.727,-0.953 -3.727,-4.469 L 105,23.431 h 2.027 v -1.598 h -5.644 z"
         style="fill:#00305f;fill-opacity:1;fill-rule:evenodd;stroke:none"
         id="path190"
         inkscape:connector-curvature="0" /><path
         d="m 134.398,31.208 h -1.808 l -0.211,1.7 c -0.531,0.535 -1.598,0.535 -2.129,0.535 -1.387,0 -3.094,-0.317 -3.094,-1.914 0,-1.282 1.387,-1.817 3.196,-2.239 3.304,-0.531 4.582,-1.597 4.582,-3.621 0,-2.238 -1.489,-4.156 -5.219,-4.156 -1.281,0 -3.516,0.32 -4.367,0.855 l -0.215,3.301 h 1.812 l 0.211,-1.918 c 0.852,-0.32 2.028,-0.429 2.875,-0.429 1.387,0 3.09,0.429 3.09,2.027 0,1.168 -1.383,1.703 -2.769,2.023 -3.516,0.743 -5.219,1.278 -5.219,3.836 0,2.02 1.387,3.832 5.117,3.832 0.953,0 2.977,-0.425 4.043,-0.746 z"
         style="fill:#00305f;fill-opacity:1;fill-rule:evenodd;stroke:none"
         id="path192"
         inkscape:connector-curvature="0" /><path
         d="m 0.09,13.103 h 4.051 c 0,-2.238 -0.215,-4.692 -0.215,-7.567 0,-1.918 0.426,-3.832 2.875,-3.832 3.73,0 3.73,3.942 3.73,5.86 v 3.941 H 8.508 v 1.598 H 12.77 L 12.555,1.919 h 1.914 V 0.322 h -3.938 c 0,0.531 0,1.277 0.211,1.597 l 0.11,1.168 h -0.11 C 10.207,1.599 8.719,0.001 6.48,0.001 c -3.726,0 -4.472,2.449 -4.472,5.114 0,2.449 0.109,4.363 0.109,6.39 H 0.09 Z"
         style="fill:#00305f;fill-opacity:1;fill-rule:evenodd;stroke:none"
         id="path194"
         inkscape:connector-curvature="0" /><path
         d="m 25.016,1.919 h 1.703 c 0,1.809 0.215,3.938 0.215,5.961 0,1.387 -0.215,3.836 -3.09,3.836 -1.703,0 -3.621,-1.066 -3.621,-4.473 V 1.919 h 1.812 V 0.322 h -5.648 v 1.597 h 1.597 l 0.211,9.586 h -2.129 v 1.598 h 4.157 v -1.598 l -0.43,-1.176 h 0.219 c 0.531,1.918 2.554,3.196 4.472,3.196 3.407,0 4.473,-2.555 4.473,-4.895 0,-2.238 -0.211,-4.902 -0.211,-6.711 h 1.918 V 0.322 h -5.648 z"
         style="fill:#00305f;fill-opacity:1;fill-rule:evenodd;stroke:none"
         id="path196"
         inkscape:connector-curvature="0" /><path
         d="m 35.137,19.704 c 0.851,0 1.597,-0.746 1.597,-1.597 0,-0.852 -0.746,-1.598 -1.597,-1.598 -0.746,0 -1.496,0.746 -1.496,1.598 0,0.851 0.75,1.597 1.496,1.597 z m -0.746,-8.199 h -2.239 v 1.598 H 36.52 L 36.414,1.919 h 1.918 V 0.322 h -6.07 v 1.597 h 2.129 z"
         style="fill:#00305f;fill-opacity:1;fill-rule:evenodd;stroke:none"
         id="path198"
         inkscape:connector-curvature="0" /><path
         d="m 38.332,13.103 h 5.215 v -1.598 h -1.488 l 2.984,-8.308 c 0,-0.321 0.211,-0.641 0.211,-0.957 h 0.211 c 0,0.316 0.109,0.636 0.109,0.957 l 3.086,8.308 h -1.707 v 1.598 h 5.223 V 11.505 H 50.684 L 46.32,0.322 H 44.293 L 39.82,11.505 h -1.488 z"
         style="fill:#00305f;fill-opacity:1;fill-rule:evenodd;stroke:none"
         id="path200"
         inkscape:connector-curvature="0" /><path
         d="m 62.188,8.095 c 0,2.023 -1.387,3.832 -3.411,3.832 -2.238,0 -3.726,-1.809 -3.836,-3.832 z M 54.941,6.603 c 0.11,-2.664 1.286,-4.899 4.793,-4.899 1.387,0 2.883,0.317 3.836,0.852 V 0.853 C 62.617,0.322 60.59,0.001 59.422,0.001 c -4.051,0 -6.61,2.239 -6.61,6.711 0,3.727 2.129,6.813 5.965,6.813 5.008,0 5.539,-4.684 5.539,-6.922 z"
         style="fill:#00305f;fill-opacity:1;fill-rule:evenodd;stroke:none"
         id="path202"
         inkscape:connector-curvature="0" /><path
         d="m 68.258,11.505 h -2.235 v 1.598 h 4.258 v -0.641 c 0,-0.746 -0.211,-2.344 -0.211,-3.41 0.532,1.918 1.168,4.262 4.364,4.262 0.109,0 1.175,0 1.175,-0.211 L 75.5,11.396 c -0.426,0 -0.957,0.109 -1.387,0.109 -2.554,0 -3.726,-2.562 -3.832,-4.793 V 1.919 h 2.133 V 0.322 h -6.07 v 1.597 h 1.914 z"
         style="fill:#00305f;fill-opacity:1;fill-rule:evenodd;stroke:none"
         id="path204"
         inkscape:connector-curvature="0" /><path
         d="m 85.727,9.478 h -1.809 l -0.219,1.918 c -0.316,0.32 -1.488,0.531 -2.129,0.531 -1.382,0 -2.875,-0.531 -2.875,-2.129 0,-1.387 1.067,-1.703 2.985,-2.023 3.195,-0.532 4.578,-1.598 4.578,-3.727 0,-2.129 -1.598,-4.047 -5.223,-4.047 -1.379,0 -3.617,0.321 -4.469,0.852 v 3.195 h 1.918 V 2.021 c 0.852,-0.317 2.02,-0.422 2.875,-0.422 1.274,0 3.09,0.422 3.09,2.129 0,1.277 -1.387,1.597 -2.769,1.918 -3.305,0.746 -5.114,1.387 -5.114,3.832 0,2.027 1.383,4.047 5.004,4.047 1.063,0 2.985,-0.422 3.946,-0.957 z"
         style="fill:#00305f;fill-opacity:1;fill-rule:evenodd;stroke:none"
         id="path206"
         inkscape:connector-curvature="0" /><path
         d="m 91.266,19.704 c 0.851,0 1.488,-0.746 1.488,-1.597 0,-0.852 -0.637,-1.598 -1.488,-1.598 -0.856,0 -1.598,0.746 -1.598,1.598 0,0.851 0.742,1.597 1.598,1.597 z M 90.41,11.505 h -2.34 v 1.598 h 4.368 V 1.919 h 2.023 V 0.322 h -6.18 v 1.597 h 2.028 z"
         style="fill:#00305f;fill-opacity:1;fill-rule:evenodd;stroke:none"
         id="path208"
         inkscape:connector-curvature="0" /><path
         d="m 95.312,13.103 h 2.02 l 0.215,3.086 2.027,0.211 -0.215,-3.297 h 4.043 v -1.598 h -4.043 v -6.39 c 0,-1.918 0,-3.411 1.914,-3.411 0.961,0 1.918,0.317 2.45,0.536 V 0.642 c -0.633,-0.32 -1.809,-0.641 -2.871,-0.641 -3.52,0 -3.52,2.555 -3.52,4.047 v 7.457 h -2.02 z"
         style="fill:#00305f;fill-opacity:1;fill-rule:evenodd;stroke:none"
         id="path210"
         inkscape:connector-curvature="0" /><path
         d="m 113.844,8.095 c 0,2.023 -1.168,3.832 -3.301,3.832 -2.238,0 -3.727,-1.809 -3.727,-3.832 z m -7.028,-1.492 c 0,-2.664 1.168,-4.899 4.684,-4.899 1.598,0 2.875,0.317 3.941,0.852 V 0.853 c -1.066,-0.531 -3.086,-0.852 -4.261,-0.852 -4.047,0 -6.602,2.239 -6.602,6.711 0,3.727 2.02,6.813 5.965,6.813 5.008,0 5.539,-4.684 5.539,-6.922 z"
         style="fill:#00305f;fill-opacity:1;fill-rule:evenodd;stroke:none"
         id="path212"
         inkscape:connector-curvature="0" /><path
         d="m 116.934,13.103 h 2.132 v 3.086 l 2.02,0.211 v -3.297 h 4.047 v -1.598 h -4.047 c -0.109,-2.027 -0.109,-4.262 -0.109,-6.39 0,-1.918 0,-3.411 2.027,-3.411 0.957,0 1.808,0.317 2.555,0.536 l -0.211,-1.598 c -0.746,-0.32 -1.809,-0.641 -2.875,-0.641 -3.516,0 -3.516,2.555 -3.516,4.047 0,1.598 0,5.645 0.109,7.457 h -2.132 z"
         style="fill:#00305f;fill-opacity:1;fill-rule:evenodd;stroke:none"
         id="path214"
         inkscape:connector-curvature="0" /><path
         d="m 54.094,106.298 c 0,0 0,-0.215 -0.215,-0.215 0,0 -0.746,-0.851 -0.746,-1.066 v 0.215 c 0,0.211 0.211,1.066 -0.321,1.488 -0.425,0.43 -1.167,0.211 -1.488,-0.211 -0.32,-0.426 -0.32,-0.957 0,-2.344 0.321,-1.382 0.211,-1.918 -0.32,-2.449 -0.32,-0.641 -1.488,-0.855 -2.555,-0.211 -0.961,0.742 -0.961,0.953 -1.176,0.953 v 0.325 c 0.215,0.21 0.856,0.851 0.856,1.062 0.211,0.109 0.211,0 0.211,-0.211 -0.211,-0.109 -0.531,-1.176 0.32,-1.707 0.856,-0.531 1.278,-0.211 1.488,0.211 0.321,0.32 0.536,0.645 0.11,2.242 -0.422,1.703 -0.11,2.129 0.426,2.77 0.64,0.425 1.703,0.425 2.347,0 0.313,-0.43 0.531,-0.641 0.633,-0.75 0.215,0 0.215,-0.102 0.215,-0.102 z"
         style="fill:#00305f;fill-opacity:1;fill-rule:evenodd;stroke:none"
         id="path216"
         inkscape:connector-curvature="0" /><path
         d="m 0.945,87.126 h 0.106 c 0.215,-0.215 0.957,-0.215 1.066,-0.215 0.106,0 0,-0.105 -0.109,-0.105 -0.211,0 -0.742,-0.215 -1.063,-1.066 -0.215,-0.532 0.106,-1.067 0.641,-1.278 0.637,-0.109 1.168,0.211 2.234,1.067 1.172,0.851 1.813,1.062 2.559,0.851 0.633,-0.109 1.488,-1.066 1.168,-2.238 -0.211,-0.852 -0.535,-1.067 -0.535,-1.387 0,0 -0.211,-0.105 -0.313,0 -0.219,0 -1.066,0.211 -1.176,0.211 -0.421,0 -0.211,0.109 0,0.109 0.321,0 1.278,0.215 1.707,1.278 0,0.64 -0.429,0.961 -0.851,0.961 C 5.844,85.529 5.312,85.529 4.141,84.462 2.754,83.29 2.117,83.29 1.477,83.611 0.625,83.931 0.199,84.673 0.41,85.74 c 0.215,0.531 0.535,1.066 0.535,1.171 z"
         style="fill:#00305f;fill-opacity:1;fill-rule:evenodd;stroke:none"
         id="path218"
         inkscape:connector-curvature="0" /><path
         d="m 42.91,47.075 c -0.215,0 -0.215,0.211 -0.215,0.211 l -0.105,0.856 c -0.211,0.109 0,0.109 0,0 0.105,-0.215 0.637,-0.535 1.387,-0.32 0.636,0.105 0.957,0.64 0.746,1.171 -0.11,0.426 -0.746,0.856 -2.028,1.387 -1.066,0.422 -1.492,0.957 -1.597,1.699 0,0.75 0.531,1.918 1.492,2.239 0.957,0.109 1.168,0.109 1.387,0.32 0.101,0 0.101,-0.32 0.101,-0.32 0.215,-0.106 0.32,-1.063 0.535,-1.172 0,-0.211 -0.215,-0.211 -0.215,0 -0.105,0.109 -0.851,1.066 -1.703,0.64 -0.746,-0.109 -0.957,-0.851 -0.746,-1.171 0.11,-0.536 0.11,-0.852 1.809,-1.598 1.496,-0.535 1.816,-1.168 1.816,-2.024 0,-0.851 -0.64,-1.386 -1.496,-1.707 h -1.062 z"
         style="fill:#00305f;fill-opacity:1;fill-rule:evenodd;stroke:none"
         id="path220"
         inkscape:connector-curvature="0" /><path
         d="m 54.73,104.486 c 0.211,0 0.43,0.214 0.641,0.425 0,0 0.211,0 0.32,-0.211 l 1.704,-1.707 c 0.32,-0.425 1.492,-1.597 1.703,-1.597 0.214,-0.106 0.324,-0.321 0.214,-0.321 -0.214,-0.214 -0.535,-0.425 -0.535,-0.425 -0.211,-0.11 -0.211,-0.11 -0.211,0 0,0.211 0,0.425 -0.32,0.746 -0.32,0.32 -0.851,0.742 -0.851,0.851 h -0.106 c -0.215,-0.109 -1.598,-1.597 -1.707,-1.808 -0.422,-0.215 -2.238,-1.918 -2.238,-2.344 v -0.32 c 0.218,-0.211 0.218,-0.321 0,-0.211 0,0 -0.532,0.746 -0.633,0.957 -0.215,0 -0.645,0.531 -0.856,0.531 0,0.109 0,0.109 0.211,0.109 0.11,-0.109 0.321,-0.109 0.43,0 0.535,0.211 2.024,1.7 2.234,1.914 0.211,0.215 1.708,1.708 1.708,1.918 0.101,0 0.101,0 0,0.11 0,0.211 -1.067,1.062 -1.278,1.062 -0.109,0.215 -0.109,0.215 -0.219,0.215 -0.211,0 -0.421,0 -0.211,0.106 z"
         style="fill:#00305f;fill-opacity:1;fill-rule:evenodd;stroke:none"
         id="path222"
         inkscape:connector-curvature="0" /><path
         d="m 4.141,93.517 -0.536,0.531 c -0.101,0 -0.101,0.102 0,0.102 0,0.218 1.067,1.918 1.278,2.242 0.219,0.531 1.066,1.918 1.281,2.129 l 0.215,0.32 C 6.48,98.626 6.801,98.31 6.801,98.31 c 0.211,-0.215 0,0 0,0 -0.102,0 -0.321,-0.32 -0.637,-0.746 -0.215,-0.43 -0.32,-0.852 -0.531,-0.961 l 0.211,-0.211 c 0.105,0 1.703,-0.961 2.023,-1.176 0.321,-0.211 2.449,-1.383 2.875,-1.383 h 0.32 c 0,0.215 0.11,0.215 0.11,0 -0.11,0 -0.43,-0.636 -0.641,-0.851 0,-0.211 -0.324,-0.852 -0.324,-0.852 -0.102,-0.211 -0.102,0 -0.102,0.106 0,0.214 0.102,0.425 0,0.535 -0.531,0.211 -2.343,1.379 -2.558,1.597 -0.317,0.102 -2.024,1.168 -2.235,1.168 -0.21,0 -0.21,0.11 -0.32,0 0,-0.105 -0.64,-1.168 -0.851,-1.488 z"
         style="fill:#00305f;fill-opacity:1;fill-rule:evenodd;stroke:none"
         id="path224"
         inkscape:connector-curvature="0" /><path
         d="m 12.449,104.38 c 0,0.106 -0.215,0.531 -0.32,0.637 l 0.105,0.215 c 0,0 1.704,1.168 2.024,1.488 0.32,0.43 1.808,1.387 2.027,1.387 0.102,0.211 0.313,0.211 0.531,0.211 0,-0.211 0.106,-0.743 0.106,-0.957 0.211,0 0,0 0,0.214 -0.106,0 -0.324,0 -0.637,-0.214 -0.535,-0.211 -0.961,-0.641 -1.176,-0.852 V 106.4 c 0.215,-0.102 1.176,-1.7 1.489,-2.02 0.218,-0.426 1.707,-2.453 2.027,-2.664 h 0.32 c 0,0 0.215,0 0,0 -0.105,-0.211 -0.531,-0.426 -0.64,-0.426 -0.11,-0.215 -0.641,-0.64 -0.852,-0.64 -0.105,-0.11 0,0 0,0 0,0.211 0.211,0.211 0,0.64 -0.105,0.426 -1.168,2.024 -1.488,2.344 -0.215,0.211 -1.496,2.129 -1.707,2.344 h -0.211 c -0.109,-0.215 -1.067,-0.961 -1.277,-1.067 -0.215,-0.211 -0.215,-0.211 -0.215,-0.425 0,-0.106 0,-0.321 -0.106,-0.106 z"
         style="fill:#00305f;fill-opacity:1;fill-rule:evenodd;stroke:none"
         id="path226"
         inkscape:connector-curvature="0" /><path
         d="m 57.715,97.134 c -1.488,-1.598 -1.277,-3.086 -0.426,-3.937 0.637,-0.747 2.344,-0.961 3.832,0.421 1.387,1.387 1.387,3.305 0.32,4.157 -0.64,0.535 -2.129,0.746 -3.726,-0.641 z m 4.258,0.856 c 1.066,-1.067 1.812,-3.622 -0.321,-5.219 -1.699,-1.598 -3.937,-0.852 -4.894,0.211 -0.856,0.851 -1.707,3.086 0.211,5.008 1.808,1.703 3.941,1.062 5.004,0 z"
         style="fill:#00305f;fill-opacity:1;fill-rule:evenodd;stroke:none"
         id="path228"
         inkscape:connector-curvature="0" /><path
         d="m 61.23,67.634 c -1.918,0.641 -3.195,-0.215 -3.515,-1.277 -0.32,-0.746 0,-2.239 2.019,-3.094 2.028,-0.637 3.516,0 3.836,1.387 0.215,0.531 0.215,2.129 -2.34,2.984 z m 2.766,-3.516 c -0.531,-1.386 -2.555,-2.984 -4.898,-1.918 -1.809,0.961 -2.34,2.981 -1.809,4.368 0.316,1.172 2.133,2.984 4.363,2.023 2.344,-0.851 2.875,-2.875 2.344,-4.473 z"
         style="fill:#00305f;fill-opacity:1;fill-rule:evenodd;stroke:none"
         id="path230"
         inkscape:connector-curvature="0" /><path
         d="m 61.23,84.673 c -0.109,0 -0.64,0 -0.855,0.11 h -0.211 c 0,0.21 -0.852,1.277 -0.852,2.875 0,1.699 0.852,2.98 2.45,3.515 1.386,0.531 2.875,-0.109 3.726,-1.172 0.637,-0.855 0.856,-2.023 0.856,-2.343 v -1.067 c 0.101,-0.211 0.101,-0.32 0.101,-0.32 0,0 0,-0.211 -0.101,-0.211 0,0 -0.532,0 -0.75,-0.215 h -0.426 c -0.106,-0.105 -0.106,0 0,0 0.215,0.215 0.644,0.426 0.644,1.066 0,0.532 0.211,1.704 -0.644,2.555 -0.641,0.746 -1.703,1.172 -3.406,0.535 -1.172,-0.32 -2.028,-1.492 -2.028,-2.773 0,-1.383 0.856,-2.02 1.496,-2.445 0.422,0 0.422,-0.11 0,-0.11 z"
         style="fill:#00305f;fill-opacity:1;fill-rule:evenodd;stroke:none"
         id="path232"
         inkscape:connector-curvature="0" /><path
         d="m 66.98,83.822 c 0,-0.211 0.211,-1.387 0.211,-1.704 0,-0.214 0,0 0,0 -0.211,0.215 -0.211,0.317 -0.316,0.317 -0.43,0 -1.813,-0.102 -3.09,-0.102 0.531,-0.746 2.34,-1.918 2.559,-2.133 0.316,-0.21 0.636,-0.32 0.636,-0.32 0.211,0 0,-0.211 0.211,0 0,0.11 0,0.535 0,0 v -0.742 c 0,-0.215 0.219,-0.32 0.219,-0.535 0,-0.106 0,-0.106 -0.43,0.215 -0.32,0.32 -0.957,0.851 -1.168,1.062 -0.324,0.11 -1.816,1.176 -1.816,1.176 0,0 -2.023,-2.133 -2.555,-2.453 -0.211,-0.106 -0.64,-0.641 -0.851,-0.961 0,-0.211 -0.215,-0.422 0,-0.211 v 1.918 c 0,0.109 0.211,0.109 0.211,0.109 0.109,-0.109 0.851,0.532 1.492,1.278 0.535,0.32 1.277,1.382 1.277,1.382 -0.105,0 -1.808,-0.214 -2.129,-0.214 -0.211,-0.106 -0.531,-0.106 -0.64,-0.317 -0.211,0 -0.211,-0.219 -0.211,-0.219 0,-0.101 0,-0.101 -0.215,0 v 0.965 c 0,0.102 0,0.633 -0.105,0.742 0,0 0.105,0.215 0.105,0 0,-0.109 0.215,-0.109 0.215,-0.109 0.32,-0.211 0.64,-0.211 2.98,0.109 2.453,0.215 2.555,0.426 2.875,0.426 0.215,0.11 0.43,0.11 0.43,0.321 0,0.109 0.105,0.531 0.105,0 z"
         style="fill:#00305f;fill-opacity:1;fill-rule:evenodd;stroke:none"
         id="path234"
         inkscape:connector-curvature="0" /><path
         d="m 66.98,75.728 c 0,-0.32 -0.105,-1.598 -0.105,-1.813 0,-0.105 -0.215,-0.105 -0.215,0 0,0.215 -0.215,0.215 -0.215,0.215 -0.101,0.215 -0.422,0.215 -1.062,0.317 -0.856,0.218 -1.598,0.218 -1.598,0.218 0,0 -0.215,-1.066 -0.32,-1.707 -0.215,-0.851 -0.317,-1.918 -0.317,-1.918 0,0 1.168,-0.32 1.489,-0.531 0.531,0 1.175,-0.32 1.386,0 0.102,0.426 0.102,0.211 0.102,0 -0.102,-0.105 -0.313,-1.172 -0.531,-1.492 0,-0.426 -0.106,-0.211 0,0 0,0 0,0.32 -0.211,0.32 -0.321,0.215 -1.813,0.746 -2.766,1.067 -1.176,0.105 -2.347,0.636 -2.883,0.531 h -0.312 c -0.11,-0.215 -0.324,-0.215 -0.11,0 0.11,0.105 0.321,1.172 0.422,1.492 0,0.32 0,0 0,0 0,-0.215 0,-0.32 0.43,-0.32 0.426,-0.321 2.453,-0.856 2.453,-0.856 0,0 0.211,0.961 0.422,1.707 l 0.211,1.918 c 0,0 -0.422,0 -0.742,0.106 -0.32,0 -1.707,0.215 -1.918,0.215 -0.215,0 -0.32,-0.215 -0.32,-0.321 0,0 -0.106,-0.211 0,0.106 0,0.215 0.105,1.062 0.105,1.492 0,0.426 0.215,0.32 0.215,0.105 0,0 0,-0.105 0.211,-0.316 0.429,-0.219 1.172,-0.219 2.769,-0.535 1.813,-0.215 2.875,-0.32 3.09,-0.32 0.215,0.105 0.215,0.105 0.32,0.32 z"
         style="fill:#00305f;fill-opacity:1;fill-rule:evenodd;stroke:none"
         id="path236"
         inkscape:connector-curvature="0" /><path
         d="m 60.375,59.005 c -0.105,-0.215 -0.742,-1.066 -0.953,-1.383 -0.11,-0.214 -0.11,0 -0.11,0.106 v 0.426 c -0.214,0.105 -1.066,0.851 -2.023,1.703 -1.062,0.851 -2.129,1.707 -2.348,1.707 -0.211,0 -0.211,0 -0.531,-0.215 -0.531,-0.426 -1.066,-1.063 -1.277,-1.281 -0.102,-0.211 0,-0.532 0,-0.532 0,-0.211 -0.102,-0.211 -0.102,-0.211 0,0.211 -0.219,0.852 -0.219,0.961 v 0.211 c 0.219,0.211 1.708,1.703 1.918,2.129 0.211,0.106 0.43,0.535 0.641,0.637 0,0.43 0.211,0.219 0,0 v -0.531 c 0.211,-0.317 1.598,-1.383 2.234,-1.809 1.493,-1.172 2.129,-1.918 2.559,-1.918 0.106,0 0.106,0 0.211,0.215 0,0 0.215,0 0,-0.215 z"
         style="fill:#00305f;fill-opacity:1;fill-rule:evenodd;stroke:none"
         id="path238"
         inkscape:connector-curvature="0" /><path
         d="m 51.855,59.005 c 0.211,-0.215 0.856,-1.383 1.489,-2.664 0.855,-1.277 1.707,-2.555 1.707,-2.875 0.32,-0.32 0.32,-0.531 0,-0.211 -0.641,0.211 -2.875,1.383 -3.406,1.598 -0.321,0.211 -2.129,1.172 -2.129,1.172 0,0 0.422,-3.09 0.422,-3.196 0,-0.214 0.32,-2.769 0.32,-2.98 0,0 0,-0.215 -0.11,0 -0.312,0.211 -3.828,4.789 -4.043,5.004 -0.214,0.211 -0.32,0.32 -0.531,0.32 h -0.32 c 0,-0.109 -0.211,0 0,0 0.211,0.102 1.598,0.742 1.598,0.852 0.101,0 0.101,0 0.101,-0.11 -0.101,0 -0.101,-0.211 -0.101,-0.422 0,-0.32 2.664,-3.414 2.664,-3.414 0,0 -0.536,2.985 -0.536,3.196 -0.21,0.429 -0.32,2.133 -0.32,2.133 0.11,0 2.664,-1.383 2.985,-1.493 0.21,0 1.917,-0.851 1.917,-0.851 0,0 -1.386,2.129 -2.027,3.195 -0.211,0.211 -0.32,0.43 -0.32,0.43 -0.211,0 -0.426,0 -0.531,-0.219 0,0 0,0.219 0.105,0.219 0.215,0.101 0.426,0.316 0.535,0.531 0.211,0 0.531,0.316 0.742,0.531 v -0.215 c -0.211,0 -0.211,-0.211 -0.211,-0.531 z"
         style="fill:#00305f;fill-opacity:1;fill-rule:evenodd;stroke:none"
         id="path240"
         inkscape:connector-curvature="0" /><path
         d="m 36.199,50.165 v -1.703 0.106 c -0.211,0 -0.211,0.215 -0.32,0.425 h -1.707 c 0,0 0,-1.707 0.219,-1.918 0.101,-0.105 0.101,-0.105 0.211,-0.105 h 0.214 -1.812 c -0.211,-0.215 0,0 0.105,0 0.215,0 0.215,0.105 0.43,0.316 v 1.707 c 0,0 -1.598,0 -1.812,-0.21 -0.106,0 -0.106,-0.215 -0.106,-0.321 0,0 -0.109,-0.211 -0.109,0 v 1.598 c 0,0.105 0,0.105 0.109,0 0,-0.211 0,-0.211 0.106,-0.426 h 1.812 v 1.598 c 0,0.105 -0.215,0.316 -0.43,0.316 -0.105,0 -0.105,0.215 -0.105,0.215 0.535,-0.215 1.387,0 1.598,0 0.214,0 0,-0.215 0,-0.215 -0.11,0 -0.211,-0.211 -0.211,-0.316 -0.219,-0.215 -0.219,-1.598 -0.219,-1.598 h 1.496 c 0.32,0 0.32,0.215 0.32,0.426 0.211,0.105 0.211,0.32 0.211,0.105 z"
         style="fill:#00305f;fill-opacity:1;fill-rule:evenodd;stroke:none"
         id="path242"
         inkscape:connector-curvature="0" /><path
         d="m 24.484,46.97 c -0.32,0.105 -1.386,0.426 -1.808,0.637 -0.11,0 0,0 0,0 0.211,0 0.422,0 0.531,0.215 0.316,0.32 1.488,3.41 1.699,4.257 0.11,0.75 0.324,1.707 -1.273,2.239 -1.492,0.535 -2.024,-0.321 -2.774,-1.918 -0.531,-1.063 -1.597,-2.981 -1.597,-3.086 0,-0.211 0.218,-0.321 0.218,-0.321 0.211,-0.21 0.211,-0.425 0.211,-0.21 -0.429,0.21 -1.496,0.636 -1.707,0.636 -0.211,0.215 0,0.215 0.211,0.215 h 0.219 c 0.426,0.426 1.914,3.512 2.129,3.832 0.535,0.746 0.957,1.172 1.812,1.387 1.063,0.211 2.34,-0.215 3.196,-1.387 0.742,-0.851 0.32,-1.703 0.32,-2.234 -0.109,-0.532 -1.496,-3.625 -1.496,-3.946 0,-0.211 0,-0.211 0.109,-0.211 0,-0.105 0.211,-0.32 0,-0.105 z"
         style="fill:#00305f;fill-opacity:1;fill-rule:evenodd;stroke:none"
         id="path244"
         inkscape:connector-curvature="0" /><path
         d="m 15.324,50.802 c 0,0 -0.324,2.984 -0.324,4.051 -0.211,1.172 -0.531,3.406 -0.531,3.406 0,0 -2.235,-2.344 -2.555,-2.766 -0.32,-0.32 -0.742,-0.64 -0.742,-0.855 0,-0.211 0.211,-0.211 0.211,-0.32 0,0 0.211,-0.106 0,-0.106 0,0.106 -0.321,0.426 -0.641,0.641 -0.211,0.211 -0.426,0.32 -0.535,0.422 -0.102,0.218 0,0 0.109,0 h 0.215 c 0.321,0 2.024,1.918 2.559,2.453 0.637,0.742 2.234,2.34 2.234,2.449 0.106,0.109 0.106,0.109 0.106,0 0,-0.109 0.32,-3.305 0.32,-3.621 0,-0.32 0.215,-2.344 0.215,-2.559 0,-0.32 0.101,-1.062 0.101,-1.062 0,0 1.067,1.492 1.387,2.129 0.32,0.429 1.172,1.492 1.172,1.707 0,0.32 -0.211,0.422 -0.32,0.422 0,0 0,0.215 0.109,0.215 0.211,-0.317 1.066,-0.852 1.379,-1.067 0.43,-0.105 0,0 -0.102,0 h -0.429 c -0.317,-0.105 -1.598,-2.129 -1.809,-2.555 -0.32,-0.531 -1.168,-1.488 -1.387,-1.918 -0.101,-0.32 -0.636,-1.066 -0.636,-1.066 -0.106,-0.102 -0.106,-0.102 -0.106,0 z"
         style="fill:#00305f;fill-opacity:1;fill-rule:evenodd;stroke:none"
         id="path246"
         inkscape:connector-curvature="0" /><path
         d="m 12.234,63.263 c 0.215,-0.102 0.321,-0.531 0.536,-0.637 0.32,-0.426 0.421,-0.742 0.632,-0.851 h -0.211 c -0.101,0.109 -0.101,0.109 -0.421,0 -0.536,-0.211 -4.473,-3.516 -4.582,-3.621 -0.211,-0.426 -0.211,-0.426 0,-0.532 v -0.214 c -0.211,0.214 -0.958,1.281 -1.176,1.382 -0.211,0.215 0,0.215 0.218,0 h 0.106 c 0.531,0.43 4.898,3.836 4.898,3.942 z"
         style="fill:#00305f;fill-opacity:1;fill-rule:evenodd;stroke:none"
         id="path248"
         inkscape:connector-curvature="0" /><path
         d="m 8.828,89.466 c -0.109,-0.109 -0.64,-1.488 -0.64,-1.808 0,-0.215 -0.211,0 -0.211,0.101 0.211,0.219 0.211,0.43 -0.11,0.535 -0.531,0.321 -5.113,2.028 -5.644,2.028 -0.106,0 -0.106,-0.11 -0.215,-0.11 0,-0.211 -0.211,-0.211 -0.211,0 0.211,0.11 0.851,1.492 0.851,1.918 v -0.211 c 0,-0.215 0,-0.32 0.106,-0.32 0.32,-0.426 5.223,-2.242 5.754,-2.242 0.211,0 0.211,0.109 0.211,0.109 0.109,0.215 0.32,0.215 0.109,0 z"
         style="fill:#00305f;fill-opacity:1;fill-rule:evenodd;stroke:none"
         id="path250"
         inkscape:connector-curvature="0" /><path
         d="m 7.23,64.329 1.489,2.028 c 0,0 -2.555,-0.215 -3.196,-0.215 -0.531,-0.106 -2.019,-0.106 -2.238,-0.426 -0.211,-0.105 0,-0.32 0,-0.32 0,-0.215 0,-0.317 -0.211,-0.215 0,0.215 -0.105,0.746 -0.32,0.961 -0.106,0.215 -0.316,0.746 -0.316,0.746 -0.215,0.211 0,0.211 0.21,0 0,0 0,-0.109 0.321,-0.109 h 3.195 c 0.316,0 3.731,0.32 4.043,0.32 0.109,-0.211 0.324,0 0.109,-0.32 C 10.207,66.568 8.188,64.013 7.977,63.798 7.867,63.693 5.949,61.029 5.949,60.923 v -0.746 c -0.105,0.32 -0.847,1.598 -1.066,1.707 -0.211,0.211 0,0.211 0.109,0 0.11,0 0.11,0 0.32,0.211 0.321,0.105 1.7,2.023 1.918,2.234 z"
         style="fill:#00305f;fill-opacity:1;fill-rule:evenodd;stroke:none"
         id="path252"
         inkscape:connector-curvature="0" /><path
         d="m 7.336,73.915 c 0.211,-0.316 0.531,-1.488 0.641,-2.023 0,-0.106 0.32,-1.383 0.531,-1.488 0,-0.215 -0.32,0 -0.32,0.105 0,0 0,0.211 -0.211,0.211 H 7.867 C 7.547,70.935 5.844,70.189 4.992,70.083 3.926,69.654 2.223,69.122 2.117,69.017 2.008,68.806 2.008,68.591 2.008,68.486 v -0.211 c 0,0.211 -0.211,0.531 -0.422,1.277 0,0.531 -0.641,2.555 -0.641,2.555 v 0.105 c 0.106,0.215 0.641,0.426 0.852,0.426 0.211,0.109 0,0 0,-0.211 -0.211,0 -0.211,-0.215 -0.211,-0.535 0,-0.32 0.531,-1.703 0.531,-1.703 0,0 0.852,0.215 1.168,0.32 0.219,0 1.176,0.426 1.176,0.426 0,0 -0.535,1.492 -0.535,1.703 -0.106,0.109 -0.321,0.109 -0.422,0.109 0,0 -0.219,0 0,0 0.101,0.211 0.957,0.321 1.379,0.532 0.109,0.211 0,-0.211 0,-0.211 -0.211,0 -0.211,-0.11 -0.211,-0.321 0,-0.109 0,-0.64 0.211,-0.961 0,-0.214 0.109,-0.746 0.109,-0.746 0,0 1.488,0.532 1.809,0.532 0.429,0.214 0.535,0.214 0.429,0.64 0,0.535 -0.429,1.387 -0.531,1.703 -0.219,0.43 -0.32,0.43 -0.32,0.532 0,0 -0.43,0.218 -0.215,0.218 0.215,-0.218 1.066,-0.32 1.066,-0.535 0.106,0 0.106,0 0.106,-0.215 z"
         style="fill:#00305f;fill-opacity:1;fill-rule:evenodd;stroke:none"
         id="path254"
         inkscape:connector-curvature="0" /><path
         d="M 15.109,98.626 C 15,98.31 13.621,96.923 13.09,96.392 c 0,-0.109 -0.32,-0.535 -0.535,-0.535 v 0.211 c 0,0 0.215,0.215 0,0.324 0,0.32 -1.703,1.598 -2.348,2.234 -0.633,0.746 -1.91,1.813 -2.23,1.813 h -0.43 c 0,0 -0.211,-0.215 -0.211,0 0.211,0.101 0.531,0.211 0.852,0.636 0.32,0.43 1.707,1.918 1.917,2.028 h 0.102 c 0,0 0.324,-0.535 0.535,-0.535 0.32,-0.11 0,-0.11 0,-0.11 -0.211,0 -0.211,0.11 -0.535,0 -0.312,-0.211 -1.168,-1.383 -1.168,-1.383 l 1.703,-1.488 c 0,0 1.172,1.063 1.387,1.274 0,0.214 -0.215,0.214 -0.215,0.429 0,0 0,0.106 0.215,0 0.105,-0.215 0.851,-0.75 0.851,-0.851 0.11,-0.215 0,-0.215 0,0 h -0.531 c -0.215,-0.215 -1.277,-1.387 -1.277,-1.387 0,0 1.383,-1.062 1.598,-1.277 0.32,-0.211 0.421,-0.211 0.851,0 0.317,0.32 0.957,1.066 1.168,1.386 0.211,0.426 0,0.532 0,0.532 0,0.215 0.211,0.425 0.211,0.215 0,-0.215 0.109,-0.856 0.324,-1.067 0,0 0,-0.215 -0.215,-0.215 z"
         style="fill:#00305f;fill-opacity:1;fill-rule:evenodd;stroke:none"
         id="path256"
         inkscape:connector-curvature="0" /><path
         d="m 2.754,78.923 c -0.746,0.535 -1.809,0 -2.024,-0.426 -0.32,-0.425 -0.105,-1.386 -0.105,-1.386 0,0 1.172,0.109 1.383,0.109 h 1.496 c 0,0 0.101,1.277 -0.75,1.703 z M 7.012,77.22 v -0.957 c 0,-0.219 0,0 -0.211,0 0,0.211 0,0.316 -0.102,0.316 -0.219,0.215 -1.816,0 -2.879,-0.105 -0.851,0 -3.09,-0.211 -3.195,-0.43 C 0.41,75.943 0.41,75.728 0.41,75.513 c 0,0 -0.211,-0.316 -0.211,-0.105 v 1.066 c -0.109,0.105 -0.32,1.598 -0.109,2.129 0.109,0.746 0.64,1.387 1.707,1.597 0.957,0 1.488,-0.851 1.707,-1.277 0.101,0.215 0.101,0.426 0.422,0.535 0.426,0.211 2.554,1.598 2.773,1.91 0.102,0.43 0.102,0.536 0.102,0.536 -0.102,0.429 0,0.531 0.211,0 0,-0.317 0,-1.067 -0.313,-1.489 C 6.379,79.88 4.992,79.138 4.883,78.923 4.461,78.818 3.82,78.283 3.82,77.962 v -0.531 h 1.282 c 0.421,0.211 1.378,0.211 1.597,0.32 0.102,0.211 0,0.211 0.102,0.321 0,0 0.211,0.425 0,0 0,-0.11 0,-0.641 0.211,-0.852 z"
         style="fill:#00305f;fill-opacity:1;fill-rule:evenodd;stroke:none"
         id="path258"
         inkscape:connector-curvature="0" /><path
         d="m 31.941,99.587 c -1.175,1.274 -1.277,2.871 -1.277,3.727 0,1.066 0.422,1.703 0.957,2.238 l 0.32,0.531 c 0.532,0.637 1.383,1.492 1.383,3.086 0,1.387 -0.215,1.922 -0.32,2.239 0,-0.641 -0.531,-3.512 -3.406,-5.965 -0.852,-0.743 -2.239,-1.918 -2.239,-3.516 0,-2.234 1.387,-4.152 1.918,-4.684 -0.32,1.067 -0.531,2.129 -0.531,2.875 0,0.957 0.211,1.809 0.211,1.809 h 0.109 c 1.063,-1.703 2.555,-2.234 2.875,-2.34 z"
         style="fill:#00305f;fill-opacity:1;fill-rule:evenodd;stroke:none"
         id="path260"
         inkscape:connector-curvature="0" /><path
         d="m 32.473,106.083 c 0.636,0.317 3.406,1.278 3.406,3.301 0,1.383 -1.277,2.77 -1.488,2.981 0.101,-0.211 0.211,-0.957 0.211,-1.809 0,-2.238 -1.598,-4.047 -2.129,-4.473 z"
         style="fill:#00305f;fill-opacity:1;fill-rule:evenodd;stroke:none"
         id="path262"
         inkscape:connector-curvature="0" /><path
         d="m 42.27,109.704 c -0.641,-1.066 -3.196,-2.129 -3.407,-2.343 v 0.214 c 1.489,1.383 1.809,3.833 1.809,4.579 -1.918,-3.305 -3.195,-4.047 -4.684,-4.579 l -0.64,-0.324 c -1.707,-0.851 -3.727,-2.019 -3.727,-3.937 0,-2.453 0.852,-3.406 0.953,-3.727 -0.101,0.637 -0.101,1.063 -0.101,1.703 0,0.637 0.101,0.957 0.101,1.168 v -0.211 c 0.219,-1.172 1.918,-2.554 2.242,-2.66 v 0.852 c 0,1.277 0.321,3.726 2.551,4.578 3.731,1.703 4.692,3.832 4.903,4.687 z"
         style="fill:#00305f;fill-opacity:1;fill-rule:evenodd;stroke:none"
         id="path264"
         inkscape:connector-curvature="0" /><path
         d="m 39.074,101.927 c 0,2.559 0.426,3.625 0.746,4.051 -4.152,-2.024 -4.472,-5.438 -4.472,-6.817 v -0.32 c 0.109,0.531 0.851,2.02 2.34,3.297 0,-0.211 -0.211,-0.742 -0.743,-3.086 0.422,0.32 2.129,1.488 2.129,2.875 z"
         style="fill:#00305f;fill-opacity:1;fill-rule:evenodd;stroke:none"
         id="path266"
         inkscape:connector-curvature="0" /><path
         d="m 42.695,102.247 c 0,0.746 -0.105,1.278 -0.316,1.598 0,-0.32 -0.32,-0.852 -0.961,-1.598 0,0 0.531,0.536 0.531,1.707 0,0.532 -0.211,0.957 -0.211,1.489 v 0.535 c 0,0.953 0.321,1.808 0.641,2.129 -0.43,-0.321 -1.707,-1.387 -2.129,-3.196 -0.43,-1.386 -0.535,-1.918 -0.535,-2.453 -0.215,-0.32 -0.215,-0.531 -0.32,-0.953 -0.211,-0.855 -0.641,-2.133 -1.172,-2.879 0.32,0.215 1.172,0.746 1.808,1.914 v 0.11 -0.742 c 0,-0.536 0,-1.387 -0.316,-2.133 0.535,0.32 2.98,2.664 2.98,4.472 z"
         style="fill:#00305f;fill-opacity:1;fill-rule:evenodd;stroke:none"
         id="path268"
         inkscape:connector-curvature="0" /><path
         d="m 47.172,106.4 c -1.387,0.961 -2.879,0.531 -2.879,0.531 h -0.215 c 0.856,0.855 1.707,1.387 2.027,1.496 -0.531,0.211 -2.128,0.422 -3.089,-0.852 -0.637,-0.855 -0.637,-2.023 -0.637,-2.664 v -0.531 c 0.848,1.598 1.066,1.598 1.066,1.598 v -0.746 c 0,-0.746 0,-1.598 -0.218,-1.918 1.496,2.984 3.414,3.086 3.945,3.086 z"
         style="fill:#00305f;fill-opacity:1;fill-rule:evenodd;stroke:none"
         id="path270"
         inkscape:connector-curvature="0" /><path
         d="m 36.945,58.79 c -0.211,-0.636 -0.211,-0.636 -0.425,-0.636 -0.106,0 -0.106,0.636 -0.106,1.066 0.106,0.316 0.32,0.637 0.531,0.637 0.422,0 0.532,-0.532 0,-1.067 z m -2.343,-3.726 0.214,6.82 c 0.106,-0.109 0.321,-0.32 0.321,-0.535 0.211,-0.32 0.32,-0.641 0.32,-0.641 0,0 0.211,-0.422 0.211,-0.64 0.211,-0.317 0.32,-1.379 0.32,-1.809 0,-0.105 0,-0.531 0.211,-0.531 0.957,0 1.489,1.597 1.278,2.129 -0.11,0.429 -0.641,1.066 -0.641,1.066 0,0 -0.422,1.703 -0.637,1.809 0,0.215 -0.531,0.429 -0.531,0.429 -0.211,0 -0.531,0.321 -0.746,0.637 v 2.129 c -0.106,-0.211 -0.106,0 -0.32,0 -1.278,0 -2.129,0.852 -2.129,0.852 l 0.32,-11.715 z"
         style="fill:#00305f;fill-opacity:1;fill-rule:evenodd;stroke:none"
         id="path272"
         inkscape:connector-curvature="0" /><path
         d="m 47.809,78.072 c 1.382,0 3.195,-0.641 3.195,-0.641 0,0 -2.344,-0.32 -3.195,-0.32 -0.856,0 -2.235,0.32 -2.235,0.32 0,0 1.278,0.641 2.235,0.641 z M 39.715,76.9 c 0,0 1.703,-0.321 2.344,-0.856 1.386,-1.062 2.339,-2.976 2.339,-2.976 0,0 -1.488,0.847 -2.66,1.808 -1.066,0.637 -2.023,1.918 -2.023,1.918 z m -8.738,-2.235 c 0,0 -0.743,1.063 -1.063,2.235 -0.215,0.851 -0.637,3.09 -0.637,3.09 0,0 1.489,-2.028 1.7,-2.77 0.535,-1.176 0,-2.555 0,-2.555 z m 2.132,-3.093 c 0.852,0.855 3.625,1.496 3.625,1.496 0,0 -2.242,-1.598 -3.093,-2.348 -0.637,-0.637 -1.914,-2.129 -1.914,-2.129 0,0 -0.106,1.598 1.382,2.981 z m 2.348,-2.981 c 0.957,0 3.086,-0.535 3.086,-0.535 0,0 -2.344,-0.422 -3.621,-0.637 -1.063,0 -2.129,0.215 -2.129,0.215 0,0 0.531,0.641 2.664,0.957 z M 25.441,64.544 c 0,0 0.321,2.344 0.852,3.09 0.957,1.172 2.023,1.383 2.023,1.383 z m 0.321,6.707 c -0.856,0.321 -2.239,1.176 -2.239,1.176 0,0 2.348,0.32 3.196,-0.215 1.597,-0.64 1.707,-1.703 1.707,-1.703 0,0 -1.922,0.531 -2.664,0.742 z m 11.605,10.547 c 0,0 -0.633,0.852 -0.633,2.344 -0.214,1.387 0.743,3.086 0.743,3.086 0,0 -0.11,-1.914 0,-2.766 0,-0.961 -0.11,-2.664 -0.11,-2.664 z m 3.195,5.645 c 0.641,1.066 3.196,2.343 3.196,2.343 0,0 -1.488,-1.277 -2.34,-2.558 -1.066,-0.957 -1.703,-1.914 -1.703,-1.914 0,0 0.105,1.066 0.847,2.129 z m 2.883,-1.598 c 0.633,0.426 3.196,0.426 3.196,0.426 0,0 -2.243,-0.742 -3.094,-1.063 -0.852,-0.425 -2.344,-0.535 -2.344,-0.535 0,0 1.067,0.856 2.242,1.172 z m -3.093,-3.512 c 0.851,0.422 3.195,1.278 3.195,1.278 0,0 -1.809,-1.493 -2.664,-2.243 -1.063,-0.632 -2.02,-1.168 -2.02,-1.168 0,0 0.321,1.168 1.489,2.133 z m 4.691,-0.965 c 0.848,1.387 2.551,2.243 2.551,2.243 0,0 -0.953,-1.707 -1.703,-2.555 -0.426,-0.856 -1.278,-1.918 -1.278,-1.918 0,0 -0.32,0.742 0.43,2.23 z m 5.105,4.477 c 0.856,1.598 2.985,2.449 2.985,2.449 0,0 -1.598,-2.023 -1.918,-2.765 -0.531,-0.746 -1.914,-2.454 -1.914,-2.454 0,0 -0.11,1.278 0.847,2.77 z m 2.664,-2.555 c 1.387,0.321 3.727,0.321 3.626,0.211 -0.43,0 -2.239,-0.851 -3.407,-1.168 -1.386,-0.429 -2.773,-0.429 -2.773,-0.429 0,0 1.277,1.062 2.554,1.386 z m -2.664,-1.703 c 0.321,-0.219 1.707,-0.531 2.348,-0.531 1.914,0.211 3.086,1.379 3.512,1.699 0.43,0.32 1.597,1.067 1.597,1.067 h -2.234 c -1.277,0.109 -2.559,0 -3.305,-0.321 -1.062,-0.426 -1.597,-0.851 -1.808,-1.066 l -0.531,-0.531 c -0.426,0 -0.747,-0.106 -0.747,-0.106 0.211,0.535 0.321,0.852 0.536,0.852 0.211,0.105 0.953,0.64 1.699,1.492 0.851,0.851 1.918,2.984 2.129,3.301 0,0.316 0.855,2.023 0.855,2.023 0,0 -1.066,-0.641 -1.812,-1.172 -1.063,-0.535 -2.239,-1.488 -2.66,-2.449 -0.426,-0.852 -0.747,-1.703 -0.747,-2.555 0,-0.855 -0.32,-1.492 -1.062,-2.453 -0.43,-0.637 -1.598,-1.488 -1.813,-1.699 0,0 -0.531,-0.535 -1.062,-0.535 -0.32,-0.106 -0.75,-0.106 -0.75,-0.106 0,0 0.32,0.426 0.641,0.641 0.109,0 0.851,0.211 1.707,1.062 0.847,0.856 1.277,2.766 1.488,3.09 0,0.321 0.32,1.383 0.32,1.383 0,0 -0.64,-0.742 -1.496,-1.172 -0.848,-0.535 -1.91,-1.383 -2.34,-2.445 -0.636,-1.066 -0.32,-1.707 -0.32,-1.918 0,-0.215 0,-0.215 -0.316,-0.535 -0.219,-0.106 -0.532,-0.106 -0.75,-0.32 -0.211,0 -0.957,-0.321 -1.809,-0.321 -0.856,0 -2.023,0.321 -2.234,0.535 -0.321,0 -0.641,-0.425 -0.852,-0.425 h -1.176 c 0.211,0.425 0.211,0.746 0.211,0.851 0,0.215 0,0.426 0.321,0.426 0.109,0 0.644,0.32 0.855,0.531 h 0.531 c 0.11,0 1.176,0.11 2.024,0.641 1.281,0.847 2.129,2.234 2.347,2.554 0.313,0.426 1.489,1.278 1.489,1.278 0,0 -0.957,-0.422 -2.024,-0.531 -0.961,-0.321 -2.558,-1.067 -3.09,-1.489 -0.425,-0.535 -0.746,-1.066 -0.957,-1.496 -0.109,-0.101 -0.531,-0.637 -0.531,-0.847 -0.109,-0.11 -0.855,-0.321 -0.855,-0.321 0,0.211 0.32,0.531 0.32,0.746 0.211,0.106 0.535,0.852 0.957,1.172 0.109,0.317 0.32,0.848 0.43,1.063 0,0.105 0.211,0.64 0.316,0.851 0.852,0.961 1.383,0.961 1.918,0.961 h 2.129 c 1.387,0.211 2.344,1.067 2.773,1.278 0.321,0.105 1.489,1.066 1.489,1.066 0,0 -1.168,-0.215 -1.489,-0.426 -0.535,0 -2.027,0 -2.875,-0.109 C 42.59,86.06 41.738,85.314 41.098,84.993 40.352,84.462 39.5,83.822 39.5,83.822 v 0.64 c 0,0.211 0.215,0.531 0.531,0.746 0.321,0.106 1.387,0.852 2.028,1.383 0.636,0.637 1.488,2.024 1.699,2.344 0,0.422 0.64,1.703 0.64,1.703 0,0 -0.32,-0.316 -1.382,-0.957 -1.067,-0.535 -2.133,-1.172 -2.766,-2.023 -0.535,-0.852 -0.75,-1.598 -0.75,-1.813 0,-0.316 0,-0.637 -0.105,-0.852 0,-0.21 -0.211,-0.32 -0.211,-1.062 0,-0.43 -0.11,-0.641 -0.11,-0.965 -0.211,-0.211 -0.211,-0.316 -0.32,-0.531 -0.211,-0.317 0,-0.102 -0.211,-0.531 -0.211,-0.317 -0.855,-1.168 -0.855,-1.168 0,0 -0.321,0.32 0.109,1.062 0.535,1.168 0.746,2.024 0.746,2.664 0,0.531 -0.32,1.809 -0.535,2.129 0,0.535 -0.641,2.024 -0.641,2.024 0,0 0,-0.637 -0.211,-1.489 -0.32,-0.746 -0.742,-2.133 -0.742,-3.195 0,-0.965 0.422,-2.133 0.531,-2.344 0.422,-0.32 0.422,-0.75 0.422,-1.066 0,-0.321 -0.211,-0.531 -0.422,-0.852 -0.109,-0.211 -0.109,-0.32 -0.211,-0.851 C 36.52,77.751 35.879,77.431 35.457,77.111 35.348,76.9 35.348,76.9 35.137,76.9 l 0.32,9.906 c 0.211,1.383 0.211,4.367 1.699,6.391 l 0.211,0.32 c 0.856,1.277 2.133,1.914 3.305,2.019 v 0.747 H 26.504 v -0.747 c 1.277,-0.105 2.562,-0.742 3.41,-2.019 1.063,-1.387 1.707,-2.344 1.813,-6.926 l 0.425,-11.183 c -0.64,-0.532 -0.855,-1.598 -0.855,-1.598 -0.211,0.32 -0.211,0.637 -0.211,0.855 0.211,0.211 0.535,1.278 0.426,2.129 -0.215,0.957 -1.278,2.555 -1.598,2.875 -0.316,0.531 -0.957,1.387 -0.957,1.387 v -1.598 c -0.211,-0.64 -0.32,-1.707 0,-2.879 0.422,-1.382 1.277,-1.914 1.488,-2.132 0.219,-0.102 0.321,-0.317 0.532,-0.637 v -0.742 c -0.211,-0.321 0,-0.43 -0.211,-0.856 0,-0.105 -0.321,-0.32 -0.321,-0.64 0,-0.532 -0.211,-0.852 -0.211,-1.063 -0.105,-0.105 -0.32,-0.105 -0.32,-0.426 -0.215,-0.211 -0.215,-0.429 -0.215,-0.429 0,0 -0.742,0.75 -0.953,0.855 -0.644,1.598 -1.707,1.918 -2.344,2.129 -0.851,0.109 -1.918,0.109 -2.347,0.109 -0.532,-0.109 -1.914,0.211 -2.02,0.211 0.106,0 0.641,-0.211 1.488,-1.066 0.852,-0.852 1.707,-1.488 2.348,-1.703 0.848,-0.317 1.699,-0.106 2.02,0 0.211,0 0.425,0.215 0.746,0 0.109,0 0.429,-0.317 0.429,-0.317 0,0 -0.429,-0.32 -0.75,-0.32 -1.066,-0.535 -1.914,-1.066 -2.554,-2.133 -0.211,-0.531 -0.746,-2.023 -0.746,-2.34 0,-0.429 -0.321,-1.386 -0.321,-1.386 0,0 0.746,0.425 1.067,0.851 0.531,0.317 1.277,0.637 2.129,1.598 0.746,1.066 0.855,2.664 0.855,2.98 0,0.43 0.32,0.532 0.32,0.532 0.211,0 0.532,-0.317 0.532,-0.532 0,-0.316 0,-0.636 0.101,-0.636 0.215,-0.211 0.43,-0.532 0.535,-0.746 0.43,-0.321 0.532,-0.961 0.743,-1.383 0,-0.215 0.109,-0.215 0.32,-0.641 0.215,-0.32 0.215,-0.535 0.324,-0.855 0.106,-0.317 0.32,-0.211 0.32,-0.211 l -0.214,1.918 h -0.106 c 0,0.211 -0.109,0.32 -0.109,0.32 0,0 0.215,0.211 0.429,0.32 0.321,0.211 0.321,0 0.532,0 0.101,-0.109 1.168,-0.851 2.343,-0.851 1.063,0 3.407,1.277 3.727,1.383 0.531,0.214 1.488,0.535 1.488,0.535 0,0 -0.957,0.211 -1.699,0.211 -0.535,0.105 -2.133,0.531 -2.453,0.531 -0.531,0 -0.957,-0.211 -0.957,-0.211 l 0.215,0.746 c 0,0 -0.535,-0.535 -0.645,-0.535 -0.101,-0.211 -0.633,-0.426 -1.168,-0.742 -0.531,-0.219 -0.851,-0.219 -0.851,-0.219 0,0 -0.211,0 -0.211,-0.102 0,-0.32 -0.11,-0.32 -0.321,-0.32 -0.32,-0.215 -0.644,-0.215 -0.644,-0.215 0,0 0.324,0.535 0.324,0.637 0,0.219 0,0.219 0.531,0.43 0.321,0 1.387,0.32 2.45,1.168 1.066,1.066 1.812,2.238 1.918,2.773 0.316,0.641 1.168,1.488 1.168,1.488 0,0 -0.743,-0.316 -2.34,-0.847 h -0.211 v 2.129 c -0.321,-0.215 -0.965,-0.321 -1.176,-0.321 -0.32,-0.211 -0.422,-0.531 -0.637,-0.531 -0.215,-0.215 -0.75,-0.43 -1.062,-0.746 V 71.04 c -0.641,-0.636 -0.641,-1.386 -0.641,-1.703 -0.109,-0.531 -0.109,-0.746 -0.109,-0.851 -0.215,-0.211 -0.426,-0.746 -0.426,-0.746 0,0 -0.32,0.535 -0.422,0.851 -0.43,0.426 -0.43,0.746 -0.219,0.961 0,0.102 0.219,0.531 0.321,0.852 0.211,0.531 0.32,1.168 0.531,1.488 0,0.215 0,-0.32 0.324,1.176 0.106,1.597 1.383,1.914 1.703,1.914 0.215,0.215 0.317,0.426 0.637,0.531 0.211,0.215 0.855,0.43 1.176,0.531 0.211,0 1.062,0.43 1.383,0.856 0.316,0.531 0.425,0.531 0.636,0.742 0.321,0.109 0.641,0.109 1.176,0.109 0.742,0 0.852,-0.32 0.852,-0.531 0.211,-0.109 0.211,-0.32 0.211,-0.426 0,-0.32 -0.211,-1.386 1.167,-2.449 1.176,-1.066 2.454,-1.277 3.196,-1.277 0.535,-0.11 1.816,-0.856 1.816,-0.856 0,0 -0.32,0.215 -1.176,1.598 -0.851,1.387 -1.808,2.234 -2.339,2.664 -0.43,0.32 -1.497,0.426 -1.809,0.637 -0.219,0 -0.43,0 -0.535,0.109 l -0.531,0.531 H 39.5 c 0,0 0.531,-0.32 1.703,-0.32 1.176,0 1.813,0.531 2.242,0.531 0.102,0.11 0.313,0.11 0.633,0 0.215,-0.211 0.535,-0.32 0.965,-0.742 0.742,-0.32 1.809,-0.746 2.766,-0.746 0.961,0 2.875,0.32 3.406,0.637 l 1.281,0.32 -1.281,0.32 c -0.531,0 -2.235,0.746 -3.297,0.746 -1.066,0 -2.027,-0.535 -2.133,-0.746 0,0 -0.211,-0.109 -0.742,0 -0.43,0 -0.43,0.321 -0.43,0.321 1.278,0.425 1.278,0.531 2.028,0.851 0.531,0.426 0.847,1.067 1.168,1.277 0.32,0.321 0.531,0.536 0.961,1.067 0.746,0.637 1.378,0.32 1.378,0.32 z"
         style="fill:#00305f;fill-opacity:1;fill-rule:evenodd;stroke:none"
         id="path274"
         inkscape:connector-curvature="0" /><path
         d="m 43.977,88.189 c 0,0 -0.532,-0.211 -0.532,-1.063 0,-0.746 0.633,-0.535 0.633,-0.535 0,0 0.535,0.215 0.535,0.852 0,0.851 -0.636,0.746 -0.636,0.746 z"
         style="fill:#00305f;fill-opacity:1;fill-rule:evenodd;stroke:none"
         id="path276"
         inkscape:connector-curvature="0" /><path
         d="m 52.711,85.314 c 0,0 -0.324,-0.106 -0.324,-0.852 0,-0.64 0.425,-0.531 0.425,-0.531 0,0 0.75,0.211 0.75,0.852 0,0.746 -0.851,0.531 -0.851,0.531 z"
         style="fill:#00305f;fill-opacity:1;fill-rule:evenodd;stroke:none"
         id="path278"
         inkscape:connector-curvature="0" /><path
         d="m 37.688,76.9 c 0,0 -0.532,-0.106 -0.532,-0.856 0,-0.636 0.641,-0.531 0.641,-0.531 0,0 0.746,0.215 0.746,0.961 0,0.637 -0.855,0.426 -0.855,0.426 z"
         style="fill:#00305f;fill-opacity:1;fill-rule:evenodd;stroke:none"
         id="path280"
         inkscape:connector-curvature="0" /><path
         d="m 48.34,79.88 c -0.422,-0.742 0.32,-0.742 0.32,-0.742 0,0 0.641,-0.215 0.856,0.531 0.211,0.746 -0.536,0.852 -0.536,0.852 0,0 -0.531,0 -0.64,-0.641 z"
         style="fill:#00305f;fill-opacity:1;fill-rule:evenodd;stroke:none"
         id="path282"
         inkscape:connector-curvature="0" /><path
         d="m 43.758,76.9 c 0,0 -0.531,-0.106 -0.531,-0.856 0,-0.636 0.75,-0.531 0.75,-0.531 0,0 0.421,0.215 0.421,0.961 0,0.637 -0.64,0.426 -0.64,0.426 z"
         style="fill:#00305f;fill-opacity:1;fill-rule:evenodd;stroke:none"
         id="path284"
         inkscape:connector-curvature="0" /><path
         d="m 36.52,70.935 c 0,0 -0.321,-0.215 -0.321,-1.063 0,-0.75 0.535,-0.535 0.535,-0.535 0,0 0.633,0.215 0.633,0.852 0,0.746 -0.847,0.746 -0.847,0.746 z"
         style="fill:#00305f;fill-opacity:1;fill-rule:evenodd;stroke:none"
         id="path286"
         inkscape:connector-curvature="0" /><path
         d="m 25.441,68.275 c 0,0 0.641,0 0.641,0.847 0,0.75 -0.852,0.532 -0.852,0.532 0,0 -0.535,-0.102 -0.535,-0.848 0,-0.75 0.746,-0.531 0.746,-0.531 z"
         style="fill:#00305f;fill-opacity:1;fill-rule:evenodd;stroke:none"
         id="path288"
         inkscape:connector-curvature="0" /><path
         d="m 28.746,112.79 c 0.32,-0.425 0.953,-1.488 0.953,-2.875 v -1.066 c 0,0 0,-0.742 -0.32,-1.918 0.32,0.644 1.066,1.707 1.285,2.562 l 0.102,0.211 v -0.211 c 0,0 0.32,-0.535 0.32,-1.175 0.211,0.32 0.426,1.066 0.426,1.707 0,1.277 -1.278,2.554 -2.766,2.765 z"
         style="fill:#00305f;fill-opacity:1;fill-rule:evenodd;stroke:none"
         id="path290"
         inkscape:connector-curvature="0" /><path
         d="m 29.066,108.318 c 0,0.32 0,0.851 -0.109,1.386 0,-0.535 -0.641,-1.386 -2.555,-3.304 -1.172,-0.957 -1.918,-1.914 -1.918,-3.086 0,-2.453 2.235,-4.262 2.766,-4.688 -0.211,0.535 -0.746,2.024 -0.746,3.832 0,0.856 0.43,1.387 0.855,1.707 l 0.211,0.215 c 0.321,0.32 0.746,0.852 1.067,1.172 0,0 0.32,0.426 0.429,0.848 z"
         style="fill:#00305f;fill-opacity:1;fill-rule:evenodd;stroke:none"
         id="path292"
         inkscape:connector-curvature="0" /><path
         d="m 18.195,87.126 c -0.422,0 -0.742,-0.32 -0.742,-0.746 0,-0.109 0,-0.32 0.211,-0.32 h -0.211 c -0.531,0 -0.855,-0.32 -0.855,-0.746 0,-0.531 0.324,-0.852 0.855,-0.852 h 0.211 c -0.211,-0.531 -0.742,-0.851 -1.277,-0.851 -1.063,0 -1.598,1.172 -1.598,1.597 0,-0.425 0.32,-0.535 0.641,-0.535 0.535,0 0.855,0.11 0.855,0.641 0,0.426 -0.32,0.746 -0.855,0.746 h -0.106 c 0.106,0.211 0.106,0.32 0.106,0.531 0,0.535 -0.321,0.852 -0.641,0.852 -0.32,0 -0.742,-0.317 -0.742,-0.852 0,-0.211 0,-0.32 0.211,-0.531 h -0.211 c -0.426,0 -0.856,-0.32 -0.856,-0.746 0,-0.531 0.43,-0.641 0.856,-0.641 0.422,0 0.531,0.11 0.742,0.535 0,-0.425 -0.742,-1.597 -1.699,-1.597 -0.535,0 -0.961,0.32 -1.176,0.851 h 0.215 c 0.32,0 0.641,0.321 0.641,0.852 0,0.426 -0.321,0.746 -0.641,0.746 h -0.215 c 0,0 0.215,0.211 0.215,0.32 0,0.426 -0.426,0.746 -0.746,0.746 -0.321,0 -0.321,-0.215 -0.321,-0.215 0.11,-0.531 0.321,-1.918 0.321,-2.128 l 0.531,-3.196 h 5.75 l 0.531,3.196 c 0,0.957 0.11,1.808 0.219,2.128 0,0 -0.109,0.215 -0.219,0.215 z"
         style="fill:#00305f;fill-opacity:1;fill-rule:evenodd;stroke:none"
         id="path294"
         inkscape:connector-curvature="0" /><path
         d="m 28.746,87.126 c -0.32,0 -0.644,-0.32 -0.644,-0.746 0,-0.109 0.214,-0.32 0.214,-0.32 h -0.214 c -0.321,0 -0.743,-0.32 -0.743,-0.746 0,-0.531 0.422,-0.852 0.743,-0.852 h 0.214 c -0.214,-0.531 -0.746,-0.851 -1.277,-0.851 -1.168,0 -1.598,1.172 -1.598,1.597 0.11,-0.425 0.321,-0.535 0.852,-0.535 0.211,0 0.641,0.11 0.641,0.641 0,0.426 -0.43,0.746 -0.641,0.746 h -0.422 c 0.211,0.211 0.422,0.32 0.422,0.531 0,0.535 -0.422,0.852 -0.852,0.852 -0.425,0 -0.746,-0.317 -0.746,-0.852 0,-0.211 0,-0.32 0.211,-0.531 h -0.211 c -0.531,0 -0.851,-0.32 -0.851,-0.746 0,-0.531 0.32,-0.641 0.851,-0.641 0.321,0 0.746,0.11 0.746,0.535 0,-0.425 -0.746,-1.597 -1.597,-1.597 -0.637,0 -1.168,0.32 -1.278,0.851 h 0.11 c 0.531,0 0.847,0.321 0.847,0.852 0,0.426 -0.316,0.746 -0.847,0.746 h -0.11 c 0.11,0 0.11,0.211 0.11,0.32 0,0.426 -0.321,0.746 -0.641,0.746 -0.215,0 -0.426,-0.215 -0.426,-0.215 0.211,-0.531 0.426,-1.918 0.426,-2.128 l 0.531,-3.196 h 5.75 l 0.43,3.196 c 0.211,0.957 0.32,1.808 0.32,2.128 0,0 0,0.215 -0.32,0.215 z"
         style="fill:#00305f;fill-opacity:1;fill-rule:evenodd;stroke:none"
         id="path296"
         inkscape:connector-curvature="0" /><path
         d="m 23.844,80.2 c -0.321,0 -0.637,-0.32 -0.637,-0.742 0,-0.109 0,-0.32 0.211,-0.32 h -0.211 c -0.531,0 -0.852,-0.32 -0.852,-0.855 0,-0.532 0.321,-0.852 0.852,-0.852 h 0.211 c -0.211,-0.531 -0.852,-0.957 -1.383,-0.957 -1.387,0 -1.812,1.277 -1.812,1.598 0.105,-0.321 0.425,-0.641 0.855,-0.641 0.422,0 0.742,0.531 0.742,0.852 0,0.535 -0.32,0.855 -0.742,0.855 h -0.43 c 0.211,0.211 0.43,0.32 0.43,0.531 0,0.531 -0.43,0.852 -0.855,0.852 -0.532,0 -0.961,-0.321 -0.961,-0.852 0,-0.211 0.218,-0.32 0.429,-0.531 h -0.429 c -0.317,0 -0.848,-0.32 -0.848,-0.855 0,-0.321 0.531,-0.852 0.848,-0.852 0.531,0 0.75,0.32 0.961,0.641 0,-0.321 -0.743,-1.598 -1.918,-1.598 -0.641,0 -1.172,0.426 -1.383,0.957 h 0.211 c 0.531,0 0.851,0.32 0.851,0.852 0,0.535 -0.32,0.855 -0.851,0.855 h -0.211 c 0.211,0 0.211,0.211 0.211,0.32 0,0.422 -0.317,0.742 -0.746,0.742 h -0.321 c 0.219,-0.742 0.321,-2.128 0.321,-2.449 l 0.746,-3.621 h 6.285 l 0.426,3.621 c 0.211,0.852 0.32,1.918 0.32,2.449 z"
         style="fill:#00305f;fill-opacity:1;fill-rule:evenodd;stroke:none"
         id="path298"
         inkscape:connector-curvature="0" /></g></g></svg>