<?xml version="1.0" standalone="no"?>
<!DOCTYPE svg PUBLIC "-//W3C//DTD SVG 20010904//EN"
 "http://www.w3.org/TR/2001/REC-SVG-20010904/DTD/svg10.dtd">
<svg version="1.0" xmlns="http://www.w3.org/2000/svg"
 width="16.000000pt" height="16.000000pt" viewBox="0 0 16.000000 16.000000"
 preserveAspectRatio="xMidYMid meet">
<metadata>
Created by potrace 1.11, written by Peter Selinger 2001-2013
</metadata>
<g transform="translate(0.000000,16.000000) scale(0.002286,-0.002286)"
fill="#000000" stroke="none">
<path d="M3900 6972 c-33 -14 -59 -39 -69 -65 -13 -35 -2 -588 13 -664 6 -28
-3 -28 -57 -4 -23 10 -96 42 -162 71 -332 144 -690 319 -940 460 -161 90 -186
96 -241 58 -24 -16 -35 -33 -39 -58 -6 -37 1 -391 9 -500 3 -36 8 -100 11
-142 l6 -77 -43 -10 c-200 -50 -432 -156 -608 -280 -323 -226 -623 -529 -827
-836 -221 -331 -375 -729 -427 -1105 -9 -67 -16 -125 -21 -184 -7 -71 -7 -361
-1 -396 2 -14 7 -61 11 -105 4 -44 9 -89 11 -100 23 -122 48 -238 60 -284 9
-31 19 -69 24 -86 36 -134 124 -353 205 -510 58 -113 175 -310 217 -365 10
-14 42 -57 71 -96 86 -118 134 -172 282 -320 271 -272 550 -463 920 -629 241
-108 608 -204 880 -230 39 -4 86 -9 105 -11 100 -11 410 -4 530 11 19 3 60 7
90 10 30 3 62 8 70 10 8 2 35 7 60 10 24 4 47 8 51 10 3 2 21 7 40 10 56 10
185 44 272 72 45 15 84 27 87 28 3 1 14 5 25 9 11 4 34 13 50 18 17 6 54 22
83 35 29 12 55 23 57 23 8 0 229 111 285 144 141 81 303 192 398 273 30 27 76
66 101 87 172 147 429 446 529 616 l26 44 24 -74 c12 -41 38 -131 57 -200 51
-184 70 -210 151 -210 62 0 100 64 140 230 1 8 12 51 23 95 21 87 126 615 135
680 3 22 12 83 20 135 8 52 18 124 21 160 3 36 8 72 10 80 2 8 7 53 10 100 3
47 8 112 11 145 14 174 1 638 -21 715 -2 8 -7 39 -10 69 -3 29 -12 81 -20 115
-8 33 -16 75 -19 91 -3 17 -16 66 -30 110 -108 356 -256 610 -505 868 -79 81
-138 156 -216 272 -180 269 -338 460 -589 711 -231 230 -357 340 -623 540 -27
19 -55 41 -63 48 -58 47 -383 258 -505 328 -84 48 -120 60 -145 50z"/>
</g>
</svg>
