<?xml version="1.0" standalone="no"?>
<!DOCTYPE svg PUBLIC "-//W3C//DTD SVG 20010904//EN"
 "http://www.w3.org/TR/2001/REC-SVG-20010904/DTD/svg10.dtd">
<svg version="1.0" xmlns="http://www.w3.org/2000/svg"
 width="700.000000pt" height="700.000000pt" viewBox="0 0 700.000000 700.000000"
 preserveAspectRatio="xMidYMid meet">
<metadata>
Created by potrace 1.11, written by Peter Selinger 2001-2013
</metadata>
<g transform="translate(0.000000,700.000000) scale(0.100000,-0.100000)"
fill="#000000" stroke="none">
<path d="M3873 6959 c-50 -32 -54 -61 -48 -305 6 -249 14 -404 21 -415 16 -26
-35 -11 -178 52 -374 163 -661 303 -935 453 -106 57 -201 106 -210 106 -43 5
-63 -2 -92 -31 l-32 -31 6 -247 c3 -135 7 -268 10 -296 19 -208 21 -197 -45
-209 -50 -9 -217 -66 -278 -96 -34 -16 -64 -30 -67 -30 -10 0 -186 -108 -260
-159 -224 -156 -502 -415 -657 -611 -288 -364 -482 -778 -563 -1200 -3 -14 -7
-34 -9 -46 -2 -12 -7 -45 -11 -74 -4 -29 -8 -62 -10 -72 -7 -36 -18 -222 -18
-313 0 -133 14 -303 33 -415 5 -30 12 -72 15 -92 5 -32 21 -96 65 -271 18 -67
112 -310 160 -414 106 -225 269 -480 430 -674 77 -94 321 -332 420 -411 270
-215 552 -371 870 -485 110 -39 299 -93 370 -107 14 -3 48 -9 75 -15 28 -5 68
-12 90 -15 23 -4 50 -8 62 -10 12 -3 53 -7 90 -11 37 -3 84 -8 103 -11 43 -6
407 -7 435 -1 11 3 56 8 100 12 44 4 87 8 95 10 8 2 35 6 60 9 25 4 52 8 60
10 8 1 33 6 55 10 162 31 442 117 563 172 29 13 55 24 58 24 2 0 57 26 122 58
107 53 164 85 306 173 64 39 216 152 302 225 82 68 282 267 344 343 25 29 50
59 55 65 6 6 23 29 40 51 16 22 33 45 38 50 4 6 36 51 71 102 l63 92 46 -157
c26 -86 50 -170 53 -187 16 -69 43 -116 76 -129 40 -17 86 -10 116 17 21 20
60 128 96 272 20 80 116 564 131 660 2 11 11 65 20 120 9 55 18 120 21 145 2
25 6 55 9 68 2 13 7 51 10 85 3 34 8 80 10 102 24 236 24 608 -1 805 -37 303
-126 620 -225 803 -5 10 -24 44 -40 75 -38 69 -130 211 -150 232 -9 8 -20 23
-25 32 -14 25 -131 154 -202 222 -35 34 -80 88 -100 121 -72 120 -254 372
-317 441 -5 7 -26 31 -45 55 -123 153 -432 465 -594 600 -16 13 -34 29 -40 34
-6 6 -34 28 -61 50 -28 21 -52 42 -55 46 -3 3 -70 54 -150 112 -80 59 -149
111 -155 115 -44 36 -294 195 -432 276 -99 57 -127 63 -170 35z"/>
</g>
</svg>
