<?xml version="1.0" encoding="UTF-8" standalone="no"?>
<!-- Generator: Adobe Illustrator 16.0.0, SVG Export Plug-In . SVG Version: 6.00 Build 0)  -->

<svg
   version="1.1"
   x="0px"
   y="0px"
   width="512px"
   height="512px"
   viewBox="0 0 512 512"
   enable-background="new 0 0 512 512"
   xml:space="preserve"
   id="svg362"
   sodipodi:docname="biostars.svg"
   inkscape:version="1.2.2 (b0a8486541, 2022-12-01)"
   xmlns:inkscape="http://www.inkscape.org/namespaces/inkscape"
   xmlns:sodipodi="http://sodipodi.sourceforge.net/DTD/sodipodi-0.dtd"
   xmlns:xlink="http://www.w3.org/1999/xlink"
   xmlns="http://www.w3.org/2000/svg"
   xmlns:svg="http://www.w3.org/2000/svg"><defs
   id="defs366" /><sodipodi:namedview
   id="namedview364"
   pagecolor="#ffffff"
   bordercolor="#000000"
   borderopacity="0.25"
   inkscape:showpageshadow="2"
   inkscape:pageopacity="0.0"
   inkscape:pagecheckerboard="0"
   inkscape:deskcolor="#d1d1d1"
   showgrid="false"
   inkscape:zoom="0.4609375"
   inkscape:cx="10.847458"
   inkscape:cy="261.42373"
   inkscape:window-width="1704"
   inkscape:window-height="993"
   inkscape:window-x="0"
   inkscape:window-y="0"
   inkscape:window-maximized="1"
   inkscape:current-layer="svg362" />
<g
   id="Layer_1"
   display="none">
	<g
   display="inline"
   id="g50">
		<defs
   id="defs3">
			<rect
   id="SVGID_1_"
   width="512"
   height="512" />
		</defs>
		<clipPath
   id="SVGID_2_">
			<use
   xlink:href="#SVGID_1_"
   overflow="visible"
   id="use5" />
		</clipPath>
		<g
   clip-path="url(#SVGID_2_)"
   id="g48">
			<rect
   x="439"
   opacity="0.4"
   fill="#FF5050"
   enable-background="new    "
   width="73"
   height="512"
   id="rect8" />
			<rect
   opacity="0.4"
   fill="#FF5050"
   enable-background="new    "
   width="73"
   height="512"
   id="rect10" />
			<rect
   x="73"
   opacity="0.1"
   fill="#FF5050"
   enable-background="new    "
   width="73"
   height="512"
   id="rect12" />
			<rect
   y="73"
   opacity="0.1"
   fill="#FF5050"
   enable-background="new    "
   width="512"
   height="73"
   id="rect14" />
			<rect
   x="366"
   opacity="0.1"
   fill="#002F63"
   enable-background="new    "
   width="73"
   height="512"
   id="rect16" />
			<rect
   y="366"
   opacity="0.1"
   fill="#FF5050"
   enable-background="new    "
   width="512"
   height="73"
   id="rect18" />
			<rect
   x="-0.5"
   opacity="0.4"
   fill="#FF5050"
   enable-background="new    "
   width="512"
   height="73"
   id="rect20" />
			<rect
   y="439"
   opacity="0.4"
   fill="#FF5050"
   enable-background="new    "
   width="512"
   height="73"
   id="rect22" />
			<path
   fill="none"
   stroke="#FF4D4D"
   stroke-width="0.25"
   d="M73,0v512"
   id="path24" />
			<path
   fill="none"
   stroke="#FF4D4D"
   stroke-width="0.25"
   d="M146,0v512"
   id="path26" />
			<path
   fill="none"
   stroke="#FF4D4D"
   stroke-width="0.25"
   d="M219,0v512"
   id="path28" />
			<path
   fill="none"
   stroke="#FF4D4D"
   stroke-width="0.25"
   d="M292,0v512"
   id="path30" />
			<path
   fill="none"
   stroke="#FF4D4D"
   stroke-width="0.25"
   d="M366,0v512"
   id="path32" />
			<path
   fill="none"
   stroke="#FF4D4D"
   stroke-width="0.25"
   d="M439,0v512"
   id="path34" />
			<path
   fill="none"
   stroke="#FF4D4D"
   stroke-width="0.25"
   d="M512,73H0"
   id="path36" />
			<path
   fill="none"
   stroke="#FF4D4D"
   stroke-width="0.25"
   d="M512,146H0"
   id="path38" />
			<path
   fill="none"
   stroke="#FF4D4D"
   stroke-width="0.25"
   d="M512,219H0"
   id="path40" />
			<path
   fill="none"
   stroke="#FF4D4D"
   stroke-width="0.25"
   d="M512,292H0"
   id="path42" />
			<path
   fill="none"
   stroke="#FF4D4D"
   stroke-width="0.25"
   d="M512,366H0"
   id="path44" />
			<path
   fill="none"
   stroke="#FF4D4D"
   stroke-width="0.25"
   d="M512,439H0"
   id="path46" />
		</g>
	</g>
</g>
<g
   id="Layer_2"
   transform="matrix(1.6202429,0,0,1.6202429,-153.79102,-157.02908)"
   style="fill:#999999">
	<g
   id="g359"
   style="fill:#999999">
		<path
   fill-rule="evenodd"
   clip-rule="evenodd"
   fill="#8f2d48"
   d="m 206.936,104.442 c 2.377,-1.826 5.369,-1.889 8.083,-2.519 5.964,-1.381 11.867,-3.556 18.181,-2.621 0.43,1.617 1.01,2.963 3.071,1.69 -0.767,-1.179 -1.972,-1.383 -3.181,-1.577 0.01,-0.832 0.02,-1.665 0.03,-2.497 1.659,0 3.318,0 4.976,0 1.054,1.403 -0.313,3.008 0.32,4.422 0.966,0.38 1.479,-0.385 2.143,-0.727 0.447,0.013 0.896,0.027 1.344,0.042 0.446,-0.265 1.34,0.252 1.49,-0.699 -0.829,-0.169 -1.043,0.409 -1.381,0.813 -0.518,-0.016 -1.034,-0.032 -1.551,-0.048 0.125,-1.78 1.635,-2.609 2.611,-3.804 1.659,0 3.317,0 4.977,0 0.829,0.83 1.658,1.008 2.488,0 6.221,0 12.441,0 18.662,0 2.43,3.037 6.631,1.872 9.464,3.992 -0.155,1.12 -1.429,0.351 -1.861,1.709 0.491,1.313 3.194,0.103 3.817,2.351 -6.358,0.436 -12.427,-2.682 -19.704,-1.295 6.578,1.344 12.196,2.492 18.107,3.7 -1.285,0.757 -2.33,1.37 -3.231,1.901 -6.008,-1.259 -11.51,-3.906 -18.481,-3.572 4.937,3.14 10.305,3.006 14.137,6.306 l 0.117,-0.105 c -0.806,0 -1.611,0 -2.159,0 -1.111,0.946 -0.154,1.684 -0.277,2.41 l 0.099,-0.103 c -2.955,-0.22 -5.086,-2.289 -7.642,-3.406 -2.753,-1.204 -5.338,-2.919 -8.541,-2.673 -0.348,-0.312 -0.59,-0.871 -1.457,-0.387 0.649,0.122 1.094,0.204 1.539,0.288 0.302,2.44 2.741,2.603 4.131,3.886 1.408,1.299 3.753,1.531 4.318,3.788 l 0.097,-0.108 c -1.978,-0.157 -4.022,-0.452 -4.174,2.953 -4.38,-4.287 -7.526,-9.033 -13.271,-10.299 0.014,-0.875 0.026,-1.75 0.04,-2.625 0.527,-0.182 1.056,-0.363 1.694,-0.584 -1.193,-0.849 -1.394,-0.087 -1.57,0.716 -1.108,-0.362 -2.228,-1.023 -3.48,-0.174 0.921,1.577 2.366,1.798 3.444,2.55 -0.18,4.504 4.311,7.014 4.796,11.232 l 0.101,-0.092 c -1.143,-0.383 -2.285,-0.765 -3.43,-1.15 -1.777,-0.259 -1.639,2.335 -3.682,2.206 0.48,-5.294 -3.686,-9.632 -2.814,-14.896 -1.088,-0.665 -1.803,-0.249 -2.523,0.109 l 0.143,0.143 c -0.238,-0.232 -0.477,-0.463 -0.77,-0.747 -0.213,0.238 -0.438,0.492 -0.664,0.745 l 0.174,-0.13 c -0.889,0.042 -1.352,0.509 -1.398,1.395 l 0.164,-0.14 c -0.885,0.062 -1.771,0.124 -2.656,0.186 -0.034,-0.762 -0.438,-1.209 -1.172,-1.375 -0.099,-0.062 -0.197,-0.124 -0.296,-0.187 0.138,0.029 0.276,0.059 0.414,0.087 0.012,0.496 0.024,0.99 0.036,1.486 -0.875,-0.036 -1.75,-0.071 -2.625,-0.108 -0.292,-0.493 -0.52,-1.104 -1.299,-0.717 0.221,0.746 0.852,0.573 1.386,0.617 0.738,1.931 1.579,0.577 2.394,0.075 0.428,-0.003 0.855,-0.007 1.283,-0.01 -0.031,0.856 -0.062,1.714 -0.093,2.571 l 0.102,-0.11 c -5.283,2.783 -8.494,7.601 -11.686,12.081 -1.87,0.749 -1.425,-1.213 -2.443,-1.542 -1.035,0.181 -2.207,0.386 -3.378,0.592 l 0.115,0.116 c 2.353,-4.25 7.176,-6.031 9.903,-9.908 0.143,-0.202 0.285,-0.402 0.277,-0.391 0,0.002 -0.072,0.255 -0.144,0.508 -3.466,-0.706 -5.873,1.582 -8.45,3.159 -3.148,1.927 -6.106,4.166 -9.229,6.327 -0.42,-1.414 -0.905,-2.391 -2.355,-2.232 l 0.104,0.118 c 1.592,-2.193 4.186,-2.88 6.324,-4.259 1.605,-1.035 3.829,-1.25 4.662,-3.36 0.579,-0.062 1.158,-0.124 1.896,-0.203 -0.998,-1.074 -1.415,-0.431 -1.804,0.315 -3.8,-0.43 -6.642,1.982 -9.826,3.351 -2.462,1.057 -4.845,2.299 -7.267,3.461 -0.719,-1.062 -0.498,-2.46 -1.622,-3.165 2.637,0.569 4.482,-0.757 6.128,-2.561 1.42,0.124 2.856,0.296 3.754,-1.205 0.607,-0.117 1.378,0.294 1.792,-0.546 -0.904,-0.561 -1.328,-0.026 -1.685,0.671 -1.404,-0.069 -2.797,-0.104 -3.772,1.189 -2.387,0.027 -4.525,0.661 -6.158,2.526 -0.516,-0.273 -1.031,-0.547 -1.527,-0.809 -0.394,-1.518 1.521,-1.726 1.564,-2.943 l -0.122,0.06 c 1.395,-0.085 2.991,0.4 3.797,-1.345 1.718,-0.049 3.579,0.426 4.833,-1.318 0.836,-0.27 2.061,0.657 2.621,-0.785 -1.167,-0.36 -1.924,0.061 -2.511,0.914 -1.73,0.018 -3.564,-0.346 -4.853,1.311 -1.285,-0.36 -2.579,-0.506 -3.892,-0.157 l 0.099,0.042 c 2.935,-2.428 6.974,-2.653 9.95,-5 0.3,0.803 0.692,1.297 1.677,0.329 -0.705,-0.09 -1.233,-0.158 -1.762,-0.225 z m 62.245,-2.887 c -2.329,-0.559 -4.52,-1.695 -7.042,0 2.69,0 4.866,0 7.042,0 z m -55.142,2.099 c 0.537,0.602 1.06,0.724 1.623,0.023 -0.551,-0.381 -1.073,-0.444 -1.623,-0.023 z m -0.861,2.829 c -0.553,-0.588 -1.041,-0.78 -1.533,-0.146 0.563,0.054 1.048,0.1 1.533,0.146 z m 16.901,-5.231 c -0.074,0.407 0.149,0.605 0.656,0.509 0.118,-0.022 0.309,-0.323 0.274,-0.38 -0.236,-0.391 -0.569,-0.42 -0.93,-0.129 z m -17.814,7.251 c -0.174,0.04 -0.349,0.08 -0.523,0.12 0.048,0.119 0.093,0.336 0.147,0.339 0.173,0.007 0.349,-0.064 0.525,-0.105 -0.051,-0.118 -0.101,-0.236 -0.149,-0.354 z"
   id="path53"
   style="fill:#999999" />
		<path
   fill-rule="evenodd"
   clip-rule="evenodd"
   fill="#5c8c3e"
   d="m 256.758,412.919 c -1.681,-2.204 -4.797,-0.977 -6.756,-3.19 2.273,-0.278 4.462,-0.928 4.581,-4.006 3.641,1.891 6.824,3.788 10.884,3.369 0,1.513 0,2.669 0,3.827 -2.904,0 -5.807,0 -8.709,0 z"
   id="path55"
   style="fill:#999999" />
		<path
   fill-rule="evenodd"
   clip-rule="evenodd"
   fill="#5c8c3e"
   d="m 240.584,412.919 c -3.578,-2.196 -7.958,-1.412 -11.944,-3.3 -0.473,-0.797 -1.091,-1.838 -1.708,-2.879 l -0.122,0.118 c 4.901,0.59 9.361,3.073 14.365,3.298 1.594,0.071 2.277,1.625 3.143,2.763 -1.246,0 -2.49,0 -3.734,0 z"
   id="path57"
   style="fill:#999999" />
		<path
   fill-rule="evenodd"
   clip-rule="evenodd"
   fill="#8f2d48"
   d="m 96.269,238.746 c 1.354,2.516 0.681,5.239 0.685,7.857 0.007,4.149 0.433,8.197 1.719,12.145 l 0.122,-0.131 c -2.377,1.981 -0.734,5.319 -2.526,7.499 0,-9.123 0,-18.247 0,-27.37 z"
   id="path59"
   style="fill:#999999" />
		<path
   fill-rule="evenodd"
   clip-rule="evenodd"
   fill="#8f2d48"
   d="m 284.667,295.27 c -3.945,2.934 -8.039,5.977 -12.715,9.452 0,-6.475 0,-12.004 0,-17.459 -3.354,-4.155 -8.136,-6.593 -11.431,-11.077 4.554,-2.661 9.755,-2.796 14.283,-5.388 1.465,-4.988 2.969,-10.118 4.644,-15.822 3.951,4.403 5.984,9.422 9.377,13.865 4.689,0 9.403,0 14.641,0 -1.792,5.866 -5.976,9.82 -8.258,15.33 1.24,4.778 2.581,9.941 4.087,15.748 -5.586,-0.462 -9.603,-3.819 -14.628,-4.649 z"
   id="path61"
   style="fill:#999999" />
		<path
   fill-rule="evenodd"
   clip-rule="evenodd"
   fill="#8f2d48"
   d="m 219.97,276.136 c 2.644,-5.007 3.287,-10.489 6.294,-15.549 2.747,5.175 5.256,9.902 7.874,14.834 4.776,1.23 9.856,0.312 15.021,1.801 -2.045,5.172 -6.303,8.469 -8.748,13.347 0.238,5.261 2.863,10.367 3.615,16.634 -5.359,-1.239 -9.345,-4.292 -14.243,-6.042 -4.379,1.602 -7.653,5.748 -12.714,7.543 0,-5.729 0,-11.068 0,-17.994 -3.407,-2.742 -7.593,-6.111 -12.277,-9.882 5.471,-3.243 10.517,-2.698 15.178,-4.692 z"
   id="path63"
   style="fill:#999999" />
		<path
   fill-rule="evenodd"
   clip-rule="evenodd"
   fill="#8f2d48"
   d="m 294.013,222.288 c -1.367,4.882 -4.646,8.533 -6.391,13.447 1.541,4.89 3.198,10.153 5.191,16.48 -5.208,-2.023 -9.531,-3.701 -14.068,-5.464 -4.57,2.12 -7.656,6.565 -12.804,9.327 0,-6.275 0,-11.778 0,-17.297 -3.869,-3.492 -7.523,-6.788 -11.764,-10.614 4.864,-1.677 9.051,-3.12 13.329,-4.596 1.954,-4.671 2.049,-9.743 3.732,-14.94 4.095,3.519 5.694,8.611 9.21,12.416 4.215,1.399 8.885,-0.322 13.565,1.241 z"
   id="path65"
   style="fill:#999999" />
		<path
   fill-rule="evenodd"
   clip-rule="evenodd"
   fill="#8f2d48"
   d="m 324.503,295.189 c -1.004,-6.284 0.59,-12.033 -0.503,-18.058 -3.463,-2.907 -7.086,-5.948 -11.028,-9.257 3.722,-3.802 9.179,-3.833 13.181,-7.051 0.935,-5.005 1.903,-10.191 3.103,-16.621 3.497,5.077 6.277,9.113 9.079,13.181 4.232,0.795 8.303,-0.494 12.69,-0.264 -0.007,3.033 -1.874,5.055 -3.168,7.234 -2.437,4.104 -3.425,8.165 -1.793,12.952 1.156,3.396 2.32,6.949 2.307,11.295 -4.297,-1.421 -8.132,-2.69 -12.206,-4.038 -3.797,3.46 -7.551,6.881 -11.662,10.627 z"
   id="path67"
   style="fill:#999999" />
		<path
   fill-rule="evenodd"
   clip-rule="evenodd"
   fill="#8f2d48"
   d="m 156.528,277.94 c 5.027,-0.748 8.877,-1.32 12.817,-1.906 2.901,-4.357 3.52,-9.683 6.792,-14.883 2.347,5.62 4.363,10.45 6.489,15.538 4.608,0.996 9.181,1.984 14.508,3.135 -3.299,4.375 -6.115,8.109 -8.981,11.91 -0.07,5.858 2.608,11.173 3.534,17.827 -5.062,-2.933 -9.412,-5.455 -13.772,-7.981 -3.642,2.185 -6.967,4.179 -11.018,6.609 0,-6.13 0,-11.572 0,-16.522 -3.52,-4.659 -6.605,-8.744 -10.369,-13.727 z"
   id="path69"
   style="fill:#999999" />
		<path
   fill-rule="evenodd"
   clip-rule="evenodd"
   fill="#8f2d48"
   d="m 225.306,252.382 c -4.123,2.761 -8.02,5.37 -12.792,8.565 0.664,-6.57 1.214,-12.024 1.776,-17.582 -3.17,-3.788 -6.311,-7.541 -9.647,-11.529 4.448,-2.198 8.978,-1.999 13.112,-3.671 2.896,-4.148 3.554,-9.458 6.471,-14.375 3.279,4.334 4.109,9.146 6.932,13.537 4.083,0.523 8.53,1.096 13.439,1.726 -1.94,5.125 -6.212,8.373 -8.514,13.229 0.264,5.213 2.877,10.358 2.892,16.202 -5.025,-1.19 -8.682,-4.514 -13.669,-6.102 z"
   id="path71"
   style="fill:#999999" />
		<path
   fill-rule="evenodd"
   clip-rule="evenodd"
   fill="#8f2d48"
   d="m 302.33,220.234 c 4.335,-2.067 7.831,-3.734 11.401,-5.435 1.705,-4.773 0.021,-9.833 1.273,-15.297 4.405,3.593 6.927,8.182 10.545,11.558 4.051,0.988 7.901,-0.594 12.482,-0.391 -0.658,4.716 -3.731,8.48 -4.035,13.731 1.944,4.62 4.155,9.878 6.685,15.892 -5.262,-0.518 -9.051,-2.87 -13.504,-3.758 -3.078,3.263 -6.174,6.543 -10.108,10.711 -0.797,-6.326 -1.47,-11.678 -2.197,-17.455 -3.848,-2.931 -7.882,-6.006 -12.542,-9.556 z"
   id="path73"
   style="fill:#999999" />
		<path
   fill-rule="evenodd"
   clip-rule="evenodd"
   fill="#8f2d48"
   d="m 180.518,213.981 c 1.244,5.025 2.368,9.566 3.434,13.873 3.912,2.472 8.412,1.729 12.494,3.834 -2.442,4.43 -6.454,7.447 -9.233,11.709 -0.932,5.35 1.31,10.794 1.01,16.842 -4.7,-1.597 -7.702,-5.2 -11.955,-7.23 -4.1,1.268 -7.387,4.658 -12.332,6.48 1.076,-5.905 2.028,-11.135 3.065,-16.835 -2.13,-3.809 -4.437,-7.932 -7.022,-12.553 3.942,-1.875 8.111,-0.729 12.045,-2.391 3.468,-3.646 4.53,-9.266 8.494,-13.729 z"
   id="path75"
   style="fill:#999999" />
		<path
   fill-rule="evenodd"
   clip-rule="evenodd"
   fill="#5c8c3e"
   d="m 279.798,319.097 c 2.883,-5.011 3.185,-10.397 6.082,-14.917 3.587,3.873 4.823,8.985 8.672,12.838 3.864,0 7.961,0 12.591,0 -1.387,5.435 -6.012,8.185 -8.089,12.752 -0.154,4.154 1.699,8.242 1.867,13.032 -4.568,0.143 -8.158,-2.935 -12.875,-3.273 -3.425,2.238 -7.188,4.697 -11.533,7.536 -0.679,-5.029 0.935,-9.451 0.005,-14.453 -3.22,-2.636 -6.828,-5.59 -11.169,-9.144 5.38,-1.628 9.865,-2.985 14.449,-4.371 z"
   id="path77"
   style="fill:#999999" />
		<path
   fill-rule="evenodd"
   clip-rule="evenodd"
   fill="#5c8c3e"
   d="m 222.964,337.128 c -3.547,-3.058 -7.111,-6.129 -10.991,-9.471 4.306,-2.543 8.979,-1.599 13.433,-3.933 2.453,-3.562 2.578,-8.79 5.21,-13.558 3.797,3.958 5.479,8.94 9.035,12.956 4.431,0.519 9.097,1.065 14.215,1.664 -1.759,4.719 -5.902,7.295 -7.95,11.679 0.164,4.013 2.885,7.757 3.136,12.594 -4.907,0.07 -8.556,-3.177 -13.368,-3.951 -3.185,1.88 -6.695,3.952 -10.473,6.183 -1.896,-4.639 -0.043,-9.392 -2.247,-14.163 z"
   id="path79"
   style="fill:#999999" />
		<path
   fill-rule="evenodd"
   clip-rule="evenodd"
   fill="#5c8c3e"
   d="m 356.368,305.494 c -9.333,7.142 -10.095,16.426 -8.888,26.142 -4.177,0.456 -6.971,-2.011 -10.704,-2.111 -3.34,2.547 -6.921,5.274 -11.008,8.388 -0.682,-5.09 1.672,-9.229 1.576,-13.777 -1.989,-3.828 -6.564,-5.332 -9.104,-9.188 3.854,-2.624 8.457,-3.39 12.63,-5.8 2.787,-4.578 3.433,-10.261 5.946,-15.792 3.137,3.802 4,8.623 7.018,12.088 3.77,0.766 7.379,-1.389 12.534,0.05 z"
   id="path81"
   style="fill:#999999" />
		<path
   fill-rule="evenodd"
   clip-rule="evenodd"
   fill="#5c8c3e"
   d="m 200.256,351.604 c -4.587,-2.155 -8.624,-4.052 -12.58,-5.91 -3.765,0.429 -6.054,3.686 -9.494,4.494 -2.764,-4.323 -1.042,-9.983 -4.101,-13.967 -2.86,-3.726 -6.391,-6.936 -9.849,-10.608 3.155,-2.053 7.535,0.087 10.994,-2.331 1.92,-3.743 1.964,-8.229 3.776,-12.686 4.072,3.974 5.338,9.645 9.111,13.476 4.222,2.238 9.388,1.07 13.845,3.851 -2.367,3.394 -4.584,6.57 -6.756,9.684 0.727,4.872 4.046,8.627 5.054,13.997 z"
   id="path83"
   style="fill:#999999" />
		<path
   fill-rule="evenodd"
   clip-rule="evenodd"
   fill="#8f2d48"
   d="m 366.423,282.223 c 0,-6.592 0,-11.952 0,-17.372 -3.385,-3.019 -6.611,-5.896 -10.104,-9.011 2.763,-3.715 7.615,-4.358 10.479,-7.979 1.289,-4.763 0.199,-10.004 1.321,-16.346 3.115,4.521 5.64,8.188 8.077,11.726 3.212,1.686 6.13,-1.089 9.6,-0.181 -0.32,5.338 -4.035,10.056 -3.266,15.444 0.722,5.067 1.98,10.059 3.05,15.308 -3.672,0.3 -6.082,-2.258 -9.343,-2.592 -3.448,2.82 -5.168,7.306 -9.814,11.003 z"
   id="path85"
   style="fill:#999999" />
		<path
   fill-rule="evenodd"
   clip-rule="evenodd"
   fill="#8f2d48"
   d="m 249.316,183.442 c 3.676,-1.421 6.918,-2.675 10.02,-3.875 2.012,-3.98 0.756,-8.457 3.112,-12.585 2.54,3.552 4.92,6.882 7.378,10.322 3.504,1.83 7.69,-0.313 11.836,1.669 -1.511,3.896 -2.985,7.698 -4.524,11.669 1.817,4.684 3.654,9.418 5.87,15.131 -4.921,-1.916 -8.888,-3.46 -13.153,-5.121 -3.09,2.647 -6.188,5.302 -10.236,8.771 0,-5.748 0,-10.523 0,-14.097 -2.883,-5.338 -7.45,-7.289 -10.303,-11.884 z"
   id="path87"
   style="fill:#999999" />
		<path
   fill-rule="evenodd"
   clip-rule="evenodd"
   fill="#8f2d48"
   d="m 208.598,186.107 c 3.844,-0.936 7.041,-1.714 10.417,-2.536 2.915,-3.499 3.362,-8.317 6.198,-12.471 2.915,3.273 2.593,7.788 5.2,11.499 3.191,0.559 6.78,1.188 10.903,1.91 -2.6,3.991 -4.946,7.596 -7.124,10.939 -0.81,5.502 2.01,10.374 1.354,16.089 -3.773,-1.995 -7.193,-3.803 -10.656,-5.633 -4.404,1.061 -7.134,4.939 -11.644,6.653 -0.57,-5.466 1.915,-10.259 1.841,-15.434 -1.655,-3.619 -4.848,-6.49 -6.489,-11.016 z"
   id="path89"
   style="fill:#999999" />
		<path
   fill-rule="evenodd"
   clip-rule="evenodd"
   fill="#8f2d48"
   d="m 376.4,226.449 c -4.243,0.07 -6.991,-2.302 -10.613,-2.533 -3.364,2.469 -4.083,7.273 -7.842,10.432 -1.22,-5.452 -2.367,-10.571 -3.623,-16.183 -3.693,-2.67 -7.669,-5.546 -11.774,-8.514 2.119,-3.341 6.074,-3.929 8.498,-7.036 0.335,-4.597 -1.759,-9.285 -1.816,-14.645 3.749,3.834 7.188,7.349 10.14,10.37 3.664,1.187 6.345,-1.207 9.75,-0.237 1.413,4.701 -1.936,9.904 0.645,14.754 2.272,4.274 4.259,8.697 6.635,13.592 z"
   id="path91"
   style="fill:#999999" />
		<path
   fill-rule="evenodd"
   clip-rule="evenodd"
   fill="#8f2d48"
   d="m 143.47,304.687 c -3.868,-2.062 -6.396,-5.805 -10.199,-8.193 -2.826,0.424 -4.345,3.535 -8.15,4.269 0.795,-10.813 -0.695,-20.812 -6.8,-29.673 2.954,-2.122 5.802,-0.445 8.815,-1.688 1.427,-3.736 3.021,-7.911 4.962,-12.995 2.883,5.217 2.577,10.517 4.845,15.319 3.038,2.425 7.414,2.777 11.019,5.065 -1.624,4.188 -5.306,6.946 -7.096,11.066 -0.324,5.722 3.017,11.035 2.505,16.894 z"
   id="path93"
   style="fill:#999999" />
		<path
   fill-rule="evenodd"
   clip-rule="evenodd"
   fill="#8f2d48"
   d="m 191.128,171.716 c 1.418,4.026 -0.01,7.844 1.169,11.485 2.499,1.998 5.89,1.52 9.069,3.078 -2.076,4.404 -7.187,6.212 -9.675,12.884 0,2.833 0,7.911 0,13.651 -4.445,-1.505 -6.543,-4.938 -9.852,-6.602 -4.046,1.18 -7.125,4.204 -11.561,5.825 0.813,-4.89 2.91,-8.902 4.333,-13.105 1.632,-4.823 -2.403,-8.633 -2.24,-13.565 2.811,-2.249 6.826,-0.606 10.048,-2.647 3.24,-2.933 4.492,-7.894 8.709,-11.004 z"
   id="path95"
   style="fill:#999999" />
		<path
   fill-rule="evenodd"
   clip-rule="evenodd"
   fill="#8f2d48"
   d="m 299.82,185.665 c -3.502,-2.571 -7.302,-5.359 -11.22,-8.235 2.362,-2.865 6.231,-2.76 8.805,-5.765 -0.501,-3.437 -1.06,-7.266 -1.706,-11.689 4.788,2.358 7.139,6.946 11.241,9.617 3.294,0.437 6.772,-0.86 10.967,0.133 -5.177,10.354 2.229,17.2 6.993,25.599 -4.923,-0.197 -8.633,-2.772 -13.023,-3.211 -2.337,2.843 -4.67,5.68 -7.292,8.869 -2.644,-4.956 -2.425,-10.331 -4.765,-15.318 z"
   id="path97"
   style="fill:#999999" />
		<path
   fill-rule="evenodd"
   clip-rule="evenodd"
   fill="#8f2d48"
   d="m 152.253,228.918 c -3.357,3.787 -7.568,6.038 -9.93,11.229 0,4.563 0,10.118 0,16.415 -4.073,-2.495 -5.8,-6.482 -8.974,-8.69 -3.242,0.799 -5.235,3.603 -9.201,4.39 2.664,-9.774 5.091,-19.225 0.561,-28.521 2.989,-1.91 5.837,-0.575 8.674,-1.563 3.16,-3.398 4.776,-8.227 8.701,-13.057 0,5.681 0,10.243 0,14.832 3.57,1.742 6.645,3.243 10.169,4.965 z"
   id="path99"
   style="fill:#999999" />
		<path
   fill-rule="evenodd"
   clip-rule="evenodd"
   fill="#5c8c3e"
   d="m 367.832,311.008 c -2.291,-2.65 -4.42,-5.111 -6.652,-7.693 3.138,-3.337 7.382,-4.343 10.708,-7.297 2.195,-4.566 2.656,-10.021 4.797,-15.451 2.745,3.389 2.787,7.759 5.156,10.918 2.534,0.595 4.84,-0.994 8.402,-0.572 -5.978,8.601 -8.49,17.732 -7.844,27.516 -2.916,0.79 -4.529,-1.65 -7.305,-1.47 -3.61,1.61 -5.416,6.097 -9.649,8.409 -0.156,-5.06 2.617,-9.277 2.387,-14.36 z"
   id="path101"
   style="fill:#999999" />
		<path
   fill-rule="evenodd"
   clip-rule="evenodd"
   fill="#5c8c3e"
   d="m 269.988,362.827 c 4.253,-2.071 8.755,-2.009 12.842,-4.219 1.696,-3.487 3.497,-7.186 5.475,-11.252 3.742,2.211 4.109,6.692 7.182,9.362 3.426,0.887 7.182,-0.251 11.319,0.544 -1.795,4.133 -5.992,6.067 -8.14,9.715 -0.568,2.957 0.931,6.062 -0.35,9.458 -3.298,0.779 -6.17,-1.627 -9.452,-1.694 -3.691,0.952 -6.386,4.249 -10.366,5.052 -1.011,-3.332 1.38,-6.245 0.348,-9.85 -2.029,-2.767 -6.1,-3.959 -8.858,-7.116 z"
   id="path103"
   style="fill:#999999" />
		<path
   fill-rule="evenodd"
   clip-rule="evenodd"
   fill="#5c8c3e"
   d="m 259.173,364.386 c -2.636,3.086 -4.767,5.58 -6.806,7.968 -0.244,3.619 2.607,6.186 2.643,9.771 -3.894,0.183 -7.107,-2.087 -10.858,-2.544 -3.206,0.555 -5.581,3.3 -9.023,4.032 -2.04,-2.724 -1.376,-6.255 -2.608,-9.645 -3.344,-2.285 -6.906,-4.721 -10.845,-7.412 3.635,-2.214 7.704,-1.479 11.26,-2.952 2.621,-3.051 2.131,-7.449 4.449,-11.008 3.728,2.781 5.381,7.276 8.645,9.977 4.132,1.55 8.44,-0.158 13.143,1.813 z"
   id="path105"
   style="fill:#999999" />
		<path
   fill-rule="evenodd"
   clip-rule="evenodd"
   fill="#8f2d48"
   d="m 322.583,151.839 c 4.911,0.913 12.827,7.625 12.827,7.625 0,0 4.334,-0.801 7.272,-0.639 2.202,4.149 1.099,9.405 4.439,13.178 2.99,3.379 5.679,7.024 8.807,10.932 -4.1,0.672 -7.11,-2.123 -10.678,-1.479 -2.566,1.966 -2.439,5.575 -4.905,8.188 -3.688,-3.99 -4.106,-9.686 -7.625,-14.054 -3.662,-2.22 -7.659,-4.641 -11.72,-7.102 1.495,-2.69 5.912,-5.577 5.912,-5.577 0,0 -3.268,-7.233 -4.223,-11.181 z"
   id="path107"
   style="fill:#999999" />
		<path
   fill-rule="evenodd"
   clip-rule="evenodd"
   fill="#5c8c3e"
   d="m 142.588,319.867 c 3.703,1.451 7.151,2.803 10.697,4.192 0.228,3.973 -3.284,6.334 -3.734,10.451 1.84,3.714 3.918,7.908 6.24,12.595 -4.547,-1.412 -7.143,-4.983 -10.642,-6.291 -2.628,-0.021 -3.618,2.503 -6.288,2.86 -1.829,-9.751 -7.194,-17.738 -13.378,-25.326 2.532,-1.376 4.66,-0.377 6.871,-0.824 2.214,-3.509 0.614,-7.701 2.083,-11.921 3.596,4.342 4.773,9.724 8.151,14.264 z"
   id="path109"
   style="fill:#999999" />
		<path
   fill-rule="evenodd"
   clip-rule="evenodd"
   fill="#8f2d48"
   d="m 160.79,167.78 c 0.702,4.24 -2.459,7.82 -2.123,12.053 1.425,2.238 4.289,2.319 6.443,4.227 -2.962,4.245 -8.84,5.716 -10.484,10.819 -1.505,4.674 -2.517,9.507 -3.847,14.662 -2.786,-2.287 -3.712,-5.396 -5.959,-7.784 -3.243,0.581 -5.658,3.109 -9.486,4.365 1.575,-5.037 4.062,-8.988 6.126,-13.088 2.145,-4.261 0.09,-9.057 1.958,-13.272 2.253,-1.596 4.931,-0.362 7.571,-1.421 3.142,-3.335 6.519,-6.92 9.896,-10.504 z"
   id="path111"
   style="fill:#999999" />
		<path
   fill-rule="evenodd"
   clip-rule="evenodd"
   fill="#5c8c3e"
   d="m 320.27,371.906 c -0.289,-3.647 2.855,-6.407 2.631,-10.079 -1.274,-2.662 -4.172,-3.924 -6.095,-6.9 4.123,-1.65 8.031,-3.215 12.243,-4.901 2.168,-3.965 4.413,-8.069 6.828,-12.491 3.035,2.672 2.265,6.647 4.51,9.017 2.977,1.155 5.729,-0.984 9.06,-0.258 -2.052,3.934 -5.983,6.086 -8.12,9.666 -2.143,3.587 -1.462,8.063 -3.563,11.58 -2.622,0.675 -4.448,-1.481 -6.771,-1.287 -4.146,0.741 -6.603,4.854 -10.823,5.553 z"
   id="path113"
   style="fill:#999999" />
		<path
   fill-rule="evenodd"
   clip-rule="evenodd"
   fill="#5c8c3e"
   d="m 190.053,353.674 c 3.941,2.806 5.921,7.466 10.028,10.339 3.871,0.652 7.933,1.337 12.15,2.048 -0.164,3.396 -3.718,4.973 -4.06,8.324 1.028,3.234 3.915,5.573 5.771,9.603 -4.181,-1.464 -7.737,-2.709 -11.293,-3.954 -2.656,-0.09 -4.276,2.438 -7.59,2.81 -2.552,-7.985 -8.882,-13.054 -16.503,-17.49 3.229,-1.883 6.265,-1.207 8.917,-2.386 2.277,-2.58 -0.16,-6.57 2.58,-9.294 z"
   id="path115"
   style="fill:#999999" />
		<path
   fill-rule="evenodd"
   clip-rule="evenodd"
   fill="#8f2d48"
   d="m 107.482,198.987 c -0.715,3.824 -2.192,7.591 -0.715,11.843 0.782,1.117 2.301,0.975 3.881,1.273 3.154,-2.956 4.104,-7.523 7.498,-11.031 -0.219,5.035 -2.51,9.326 -2.202,14.042 0.66,2.2 2.757,3.512 4.146,6.239 -8.305,6.044 -8.175,15.612 -9.123,25.259 -2.508,-2.576 -2.367,-5.795 -4.028,-8.109 -1.683,-0.334 -2.274,1.693 -4.321,1.772 1.028,-8.932 4.998,-17.444 3.504,-26.565 -3.641,2.99 -3.641,2.99 -6.771,17.624 -0.685,-2.547 -0.751,-4.403 -0.411,-6.293 1.433,-7.961 3.68,-15.705 6.363,-23.324 0.391,-1.11 0.827,-2.375 2.302,-2.625 z"
   id="path117"
   style="fill:#999999" />
		<path
   fill-rule="evenodd"
   clip-rule="evenodd"
   fill="#8f2d48"
   d="m 397.049,231.528 c -0.617,-4.959 -1.227,-9.855 -2.021,-16.24 2.694,4.742 4.678,8.232 6.706,11.804 1.32,-0.114 2.501,-0.216 4.313,-0.373 -0.557,9.993 0.527,19.761 2.673,29.758 -1.971,0.683 -2.777,-1.151 -4.529,-1.126 -2.304,2.434 -1.93,6.641 -4.867,9.861 -0.279,-6.149 -0.527,-11.617 -0.768,-16.945 -2.333,-2.96 -4.495,-5.707 -6.777,-8.605 0.789,-3.144 3.812,-4.813 5.27,-8.134 z"
   id="path119"
   style="fill:#999999" />
		<path
   fill-rule="evenodd"
   clip-rule="evenodd"
   fill="#8f2d48"
   d="m 373.651,175.456 c 4.153,1.379 5.747,5.696 9.132,7.961 1.597,1.02 3.107,-1.231 5.475,0.411 0.984,8.902 5.545,17.216 10.053,25.684 -2.369,1.486 -3.735,-1.64 -5.718,-0.797 -2.15,2.169 -0.603,5.618 -3.105,8.601 -1.688,-4.863 -2.911,-9.338 -4.787,-13.522 -1.914,-4.274 -7.08,-5.524 -9.7,-9.266 0.398,-2.622 2.877,-4.059 3.553,-6.79 -1.553,-3.971 -3.195,-8.17 -4.84,-12.372 z"
   id="path121"
   style="fill:#999999" />
		<path
   fill-rule="evenodd"
   clip-rule="evenodd"
   fill="#8f2d48"
   d="m 249.696,136.573 c 0.874,-2.386 -0.819,-5.206 0.997,-7.946 2.521,1.704 3.433,4.652 5.719,6.676 1.944,1.34 4.775,0.164 7.229,1.951 0.322,3.141 -1.971,6.547 -0.263,9.965 1.553,3.109 3.019,6.262 4.726,9.82 -3.78,0.196 -6.071,-2.46 -9.146,-2.84 -2.929,0.8 -3.919,4.077 -6.855,5.633 -2.13,-3.784 -0.758,-8.066 -1.959,-12.195 -1.936,-2.264 -4.068,-4.759 -6.189,-7.24 1.322,-2.425 4.268,-1.874 5.741,-3.824 z"
   id="path123"
   style="fill:#999999" />
		<path
   fill-rule="evenodd"
   clip-rule="evenodd"
   fill="#8f2d48"
   d="m 218.457,141.964 c 1.667,-2.055 4.422,-1.254 7.225,-3.625 1.484,-1.39 1.772,-5 4.466,-8.219 0.814,3.06 0.736,5.885 2.093,8.584 1.689,0.475 3.611,1.015 5.923,1.665 -0.965,3.528 -3.889,5.669 -4.774,9.502 -0.115,3.426 1.313,7.446 0.806,11.693 -3.323,-0.181 -4.816,-3.436 -7.81,-3.853 -2.988,0.773 -4.713,3.817 -8.463,4.925 0.255,-4.356 2.18,-8.02 2.766,-11.566 0.098,-3.486 -2.587,-5.952 -2.232,-9.106 z"
   id="path125"
   style="fill:#999999" />
		<path
   fill-rule="evenodd"
   clip-rule="evenodd"
   fill="#5c8c3e"
   d="m 353.965,361.997 c 0.309,-4.101 3.832,-6.756 4.754,-10.697 -0.03,-2.518 -2.479,-4.055 -3.228,-7.202 8.889,-2.902 13.885,-9.895 17.188,-19.074 1.969,3.338 0.776,6.535 2.595,8.813 1.634,0.963 3.193,-0.898 5.487,0.34 -6.201,6.527 -10.237,14.241 -13.508,22.494 -1.767,-0.594 -3.079,-1.034 -4.366,-1.467 -3.097,2.289 -6.067,4.485 -9.037,6.683 z"
   id="path127"
   style="fill:#999999" />
		<path
   fill-rule="evenodd"
   clip-rule="evenodd"
   fill="#8f2d48"
   d="m 210.623,130.509 c 0.286,2.958 -1.991,5.395 -1.745,8.201 0.674,1.984 3.045,1.414 4.317,3.685 -7.286,4.63 -9.575,12.396 -11.125,21.326 -2.269,-2.398 -3.895,-4.118 -5.539,-5.854 -3.49,0.723 -5.831,3.407 -9.691,4.499 2.94,-7.221 9.537,-12.649 7.644,-20.762 2.455,-1.966 5.148,-1.542 7.838,-2.052 2.787,-3.007 5.573,-6.014 8.359,-9.021 z"
   id="path129"
   style="fill:#999999" />
		<path
   fill-rule="evenodd"
   clip-rule="evenodd"
   fill="#8f2d48"
   d="m 269.228,124.328 c 3.585,1.238 6.024,4.25 9.737,6.208 1.982,0.113 4.43,0.253 7.621,0.434 -0.049,8.446 6.973,12.761 11.861,18.993 -3.856,0.526 -6.573,-2.236 -9.868,-1.893 -2.402,1.103 -2.063,4.443 -4.719,5.738 -2.634,-3.188 -3.083,-7.699 -5.831,-10.599 -2.641,-2.784 -6.114,-4.781 -9.202,-7.108 0.498,-2.138 3.146,-2.055 3.866,-4.148 -1.09,-2.445 -2.25,-5.049 -3.412,-7.654 z"
   id="path131"
   style="fill:#999999" />
		<path
   fill-rule="evenodd"
   clip-rule="evenodd"
   fill="#8f2d48"
   d="m 341.378,140.528 c 4.214,1.362 7.3,4.645 11.187,6.565 1.66,0.78 3.188,-0.764 5.721,-0.067 3.555,7.926 10.306,14.28 16.395,21.332 -2.394,1.12 -3.961,-1.185 -6.058,-0.234 -1.265,2.153 0.2,4.702 -0.681,8.277 -5.478,-8.956 -10.937,-16.915 -21.063,-19.685 1.104,-2.47 1.845,-4.126 2.59,-5.791 -2.764,-3.587 -5.402,-7.015 -8.041,-10.442 z"
   id="path133"
   style="fill:#999999" />
		<path
   fill-rule="evenodd"
   clip-rule="evenodd"
   fill="#8f2d48"
   d="m 148.68,150.465 c 1.549,-3.832 5.256,-5.599 7.994,-8.284 2.914,-2.858 6.271,-5.307 7.956,-9.216 0.605,-0.13 0.712,-0.281 0.309,-0.407 -0.016,-0.005 -0.14,0.328 -0.214,0.504 -4.593,0.54 -7.646,3.702 -11.014,6.38 -2.521,2.003 -4.207,5.151 -7.758,5.77 l -0.009,0.117 c 0.719,-1.171 1.757,-2.306 0.145,-3.318 1.886,-2.67 5.029,-3.476 6.015,-6.357 l -0.027,0.111 c 2.801,-0.935 5.152,-2.423 6.434,-5.228 l -0.098,0.046 c 1.891,0.017 3.003,-1.125 3.889,-2.607 0,0 -0.148,0.135 -0.148,0.135 0.75,-0.175 1.266,-0.58 1.369,-1.391 l -0.126,0.152 c 0.213,-0.235 0.426,-0.47 0.638,-0.708 -0.212,-0.243 -0.423,-0.482 -0.634,-0.722 l 0.125,0.102 c 1.739,-1.78 3.511,-3.504 6.213,-3.643 l -0.103,-0.101 c -0.636,1.008 -1.273,2.017 -2.063,3.271 2.892,0.537 4.585,-2.119 7.035,-2.018 l -0.104,-0.116 c -1.262,3.225 -6.321,3.171 -6.506,7.364 1.667,2.142 3.331,0.927 4.926,0.148 3.107,-1.515 5.746,-3.916 9.166,-4.84 l -0.056,-0.056 c -1.926,2.993 -5.428,4.293 -7.642,7.131 -1.183,1.029 0.531,2.782 -1.636,4.608 -7.926,2.732 -13.469,9.983 -19.697,17.117 -1.018,-1.827 0.667,-3.277 -0.063,-4.855 -1.603,-0.981 -2.854,1 -4.406,0.848 z"
   id="path135"
   style="fill:#999999" />
		<path
   fill-rule="evenodd"
   clip-rule="evenodd"
   fill="#8f2d48"
   d="m 111.128,294.771 c -1.787,-2.726 -3.573,-5.451 -5.395,-8.231 -0.955,0.736 -1.74,1.341 -3.057,2.357 -0.838,-10.43 -2.106,-20.392 -3.881,-30.28 l -0.122,0.131 c 1.013,-0.129 2.025,-0.259 3.153,-0.401 2.207,-3.065 1.507,-7.176 3.922,-11.191 0.875,5.355 0.177,10.201 1.953,16.079 1.158,0.868 3.311,2.481 4.897,3.672 0.065,1.355 0.259,1.876 0.077,2.139 -4.094,5.933 -3.948,12.348 -2.269,18.968 0.56,2.207 1.018,4.444 0.626,6.75 z"
   id="path137"
   style="fill:#999999" />
		<path
   fill-rule="evenodd"
   clip-rule="evenodd"
   fill="#8f2d48"
   d="m 284.182,119.293 c 1.528,0.627 3.115,1.146 4.576,1.903 4.271,2.211 8.599,4.081 14.031,2.946 3.906,7.472 11.088,11.487 18.018,16.926 -3.469,0.939 -6.045,-1.437 -8.845,-0.435 -1.638,1.348 -0.664,3.951 -2.631,5.752 -5.293,-6.971 -10.952,-13.615 -19.511,-15.021 -1.472,-2.546 0.982,-3.167 0.623,-5.146 -1.052,-2.76 -4.758,-3.875 -6.185,-6.92 z"
   id="path139"
   style="fill:#999999" />
		<path
   fill-rule="evenodd"
   clip-rule="evenodd"
   fill="#5c8c3e"
   d="m 174.677,379.272 c -3.18,-0.304 -5.535,-2.627 -7.958,-3.418 -1.951,-0.188 -2.494,1.416 -3.768,1.565 -0.332,-0.233 -0.769,-0.4 -0.979,-0.717 -4.706,-7.104 -11.442,-12.323 -17.134,-18.511 l -0.114,0.109 c 1.465,-0.63 3.357,0.14 4.783,-1.676 -0.479,-2.522 -1.005,-5.291 -1.754,-9.229 3.578,4.237 6.309,7.717 9.304,10.952 3.213,3.472 8.51,2.741 12.073,5.375 0.285,2.367 -1.428,4.101 -0.701,7.689 0.897,2.272 4.879,4.17 6.15,7.962 z"
   id="path141"
   style="fill:#999999" />
		<path
   fill-rule="evenodd"
   clip-rule="evenodd"
   fill="#8f2d48"
   d="m 141.002,162.812 c -0.322,3.848 -3.673,6.423 -4.327,10.458 0.683,1.205 1.48,2.612 2.671,4.712 -9.274,4.529 -11.997,13.882 -16.475,22.176 -0.327,-2.146 -0.653,-4.295 -0.958,-6.307 -2.215,-0.449 -3.171,1.576 -4.923,1.576 -0.613,-0.469 -0.305,-1.041 -0.023,-1.593 3.186,-6.25 7.536,-11.908 9.459,-18.806 0.44,-1.582 1.353,-3.04 0.933,-4.781 l -0.127,0.133 c 1.847,0 3.693,0 4.732,0 4.176,-2.029 5.367,-6.258 9.135,-7.472 z"
   id="path143"
   style="fill:#999999" />
		<path
   fill-rule="evenodd"
   clip-rule="evenodd"
   fill="#8f2d48"
   d="m 193.242,129.282 c -1.75,2.538 -3.499,5.076 -5.204,7.547 -0.163,1.782 2.188,1.875 2.161,4.169 -8.393,3.526 -13.003,11.106 -17.034,19.005 -2.667,-0.888 -1.629,-3.438 -3.115,-4.987 -2.871,-0.194 -5.005,2.265 -7.747,2.895 l 0.102,0.045 c -0.354,-1.457 0.677,-2.293 1.5,-3.157 4.965,-5.216 9.727,-10.573 12.522,-17.623 5.223,0.259 8.989,-2.517 12.704,-5.472 1.251,-0.995 2.375,-2.344 4.216,-2.315 z"
   id="path145"
   style="fill:#999999" />
		<path
   fill-rule="evenodd"
   clip-rule="evenodd"
   fill="#5c8c3e"
   d="m 278.562,395.659 c -1.525,-1.008 -3.218,-2.128 -5.303,-3.506 2.678,-2.623 6.306,-1.906 9.135,-3.51 2.66,-2.145 3.346,-5.962 6.285,-8.415 1.308,2.166 2.566,4.25 3.735,6.183 2.986,1.358 5.945,-0.035 9.081,0.854 -1.768,2.743 -4.756,3.922 -6.771,6.106 -1.463,1.798 -0.537,4.545 -2.714,6.397 -1.762,-0.252 -3.751,-0.536 -5.708,-0.815 -2.513,0.871 -4.957,1.721 -7.316,2.538 -1.372,-1.977 0.661,-3.465 -0.424,-5.832 z"
   id="path147"
   style="fill:#999999" />
		<path
   fill-rule="evenodd"
   clip-rule="evenodd"
   fill="#5c8c3e"
   d="m 258.673,398.823 c 0.738,1.468 1.473,2.925 2.518,5.001 -5.246,-0.726 -10.139,-2.274 -14.314,0.998 -2.207,-1.368 -2.026,-3.86 -4.022,-5.82 -2.105,-1.09 -4.828,-2.5 -7.877,-4.081 2.181,-2.552 5.365,-1.066 7.225,-2.417 2.099,-1.795 1.826,-4.36 3.038,-6.682 3.584,0.543 4.779,4.337 8.552,5.929 2.368,0.165 5.643,0.395 9.197,0.643 -0.17,2.91 -3.475,3.474 -4.317,6.429 z"
   id="path149"
   style="fill:#999999" />
		<path
   fill-rule="evenodd"
   clip-rule="evenodd"
   fill="#5c8c3e"
   d="m 404.13,300.771 c -1.045,2.183 -2.263,0.44 -3.555,1.747 -0.904,1.497 -2.175,3.599 -4.168,6.896 0.819,-8.232 5.569,-15.323 -0.483,-21.537 1.638,-3.523 4.433,-5.229 6.335,-8.286 0.609,-3.775 1.298,-8.029 2.051,-12.69 2.617,1.956 0.775,4.965 2.065,6.316 0.617,1.92 2.43,1.199 3.195,2.362 -2.457,8.581 -4.046,17.291 -5.44,25.192 z"
   id="path151"
   style="fill:#999999" />
		<path
   fill-rule="evenodd"
   clip-rule="evenodd"
   fill="#5c8c3e"
   d="m 321.536,393.124 c -4.901,-1.507 -8.451,1.39 -13.532,3.762 2.187,-2.949 3.485,-4.7 4.52,-6.093 0.662,-2.54 -2.185,-3.349 -1.618,-6.047 7.37,-1.027 12.499,-5.852 17.112,-13.197 0.539,2.98 0.871,4.813 1.18,6.52 1.978,1.91 4.09,-0.185 6.913,0.786 -6.094,3.952 -10.984,8.429 -14.575,14.269 z"
   id="path153"
   style="fill:#999999" />
		<path
   fill-rule="evenodd"
   clip-rule="evenodd"
   fill="#5c8c3e"
   d="m 205.81,385.568 c 6.05,4.573 12.107,9.13 20.651,8.527 -0.798,2.259 -1.326,3.752 -1.758,4.975 1.104,2.417 4.047,2.75 4.483,5.282 l 0.108,-0.105 c -3.785,-0.128 -7.504,-2.9 -11.466,0.187 -5.165,-4.353 -10.443,-8.224 -17.538,-10.486 1.951,-1.678 4.101,-0.64 5.64,-2.287 0.942,-1.742 -0.768,-4.02 -0.019,-6.176 z"
   id="path155"
   style="fill:#999999" />
		<path
   fill-rule="evenodd"
   clip-rule="evenodd"
   fill="#8f2d48"
   d="m 296.55,114.427 c 1.927,-0.312 3.674,0.348 5.412,1.021 3.121,1.21 6.312,1.913 9.973,1.147 6.807,5.592 14.768,9.565 22.538,14.278 -2.165,1.149 -3.861,-0.876 -5.973,0.147 -0.452,1.513 1.1,2.789 1.105,4.332 -0.552,0.869 -1.131,0.224 -1.514,-0.089 -6.595,-5.396 -13.353,-10.48 -22.103,-12.008 -1.44,-1.08 -0.286,-3.075 -1.493,-4.052 -2.606,-1.634 -5.216,-3.271 -7.822,-4.907 z"
   id="path157"
   style="fill:#999999" />
		<path
   fill-rule="evenodd"
   clip-rule="evenodd"
   fill="#5c8c3e"
   d="m 123.599,335.781 c -2.232,-1.186 -3.036,-4.441 -6.422,-4.256 -3.654,-7.995 -7.337,-16.056 -11.177,-24.454 2.902,-2.099 1.127,-5.434 1.845,-9.265 3.239,6.836 3.732,14.586 12.123,17.165 -2.97,7.028 -0.155,12.53 2.931,17.968 0.527,0.93 0.759,1.906 0.583,2.97 z"
   id="path159"
   style="fill:#999999" />
		<path
   fill-rule="evenodd"
   clip-rule="evenodd"
   fill="#8f2d48"
   d="m 336.365,125.454 c -3.071,-0.688 -5.391,-2.825 -8.104,-4.206 -2.539,-1.293 -4.877,-3.028 -7.775,-3.509 -6.36,-1.057 -11.188,-5.012 -16.234,-8.557 l -0.108,0.11 c 1.904,-0.215 3.852,0.941 5.986,0.191 -2.041,-3.493 -6.092,-2.904 -8.327,-5.288 l -0.12,0.111 c 6.151,0.923 12.079,2.44 17.056,6.464 l 0.125,-0.125 c -1.2,0.001 -2.403,0.004 -3.604,0.005 -0.338,-0.292 -0.495,-0.926 -1.322,-0.531 0.568,0.16 1.004,0.283 1.438,0.406 4.025,3.599 9.31,4.836 13.888,7.405 1.932,1.084 3.966,1.989 6.012,3.004 -2.403,2.283 1.139,2.989 0.989,4.618 z"
   id="path161"
   style="fill:#999999" />
		<path
   fill-rule="evenodd"
   clip-rule="evenodd"
   fill="#5c8c3e"
   d="m 358.711,369.337 c -4.188,5.891 -10.621,9.474 -15.148,15.072 -2.053,0.369 -4.017,0.723 -5.979,1.076 l 0.104,0.104 c 0.271,-1.803 2.102,-2.489 2.831,-3.964 0.947,-1.51 -0.602,-3.283 0.972,-5.413 6.717,-1.677 11.423,-7.225 16.328,-12.915 1.04,2.343 -1.511,4.629 0.992,6.142 z"
   id="path163"
   style="fill:#999999" />
		<path
   fill-rule="evenodd"
   clip-rule="evenodd"
   fill="#8f2d48"
   d="m 352.522,134.281 c 2.058,-0.198 3.706,1.782 5.779,0.958 6.441,6.777 12.779,13.448 19.116,20.119 l 0.01,-0.055 c -2.585,1.65 0.335,3.409 -0.102,5.102 l 0.114,-0.113 c -0.504,-0.323 -1.145,-0.541 -1.492,-0.987 -4.712,-6.036 -9.831,-11.603 -16.849,-14.584 -0.8,-2.109 -1.451,-3.827 -1.93,-5.09 -1.507,-2.248 -4.048,-2.964 -4.58,-5.425 z"
   id="path165"
   style="fill:#999999" />
		<path
   fill-rule="evenodd"
   clip-rule="evenodd"
   fill="#5c8c3e"
   d="m 172.272,381.717 c 5.632,4.598 11.311,9.109 18.298,9.884 2.244,1.46 1.955,3.758 3.61,5.3 1.337,1.37 3.892,1.641 5.238,3.631 l 0.117,-0.126 c -4.452,0.059 -8.396,-1.378 -12.143,-3.749 -4.181,-2.646 -8.533,-5.021 -13.316,-7.807 1.857,-2.845 -1.997,-4.35 -1.684,-7.117 z"
   id="path167"
   style="fill:#999999" />
		<path
   fill-rule="evenodd"
   clip-rule="evenodd"
   fill="#5c8c3e"
   d="m 382.458,344.486 c 2.048,-4.673 5.158,-9.014 4.094,-14.729 5.927,-3.997 8.675,-10.004 11.369,-16.874 0.824,5.49 -0.35,9.69 -2.903,13.754 -2.527,4.02 -4.658,8.288 -6.928,12.466 -1.319,2.426 -2.972,4.455 -5.754,5.27 z"
   id="path169"
   style="fill:#999999" />
		<path
   fill-rule="evenodd"
   clip-rule="evenodd"
   fill="#8f2d48"
   d="m 132.291,157.831 c -1.995,4.06 -4.225,8.024 -5.059,12.551 l 0.127,-0.133 c -4.486,3.159 -7.535,7.45 -10.011,12.282 -1.107,2.16 -1.815,4.605 -3.716,6.317 l 0.126,0.121 c 0.002,-1.228 0.004,-2.456 0.007,-3.683 l -0.12,0.069 c 0.111,-0.154 0.33,-0.323 0.311,-0.459 -0.045,-0.337 -0.199,-0.662 -0.309,-0.991 l 0.119,0.074 c 2.9,-8.052 8.182,-14.732 12.699,-21.842 1.31,-2.062 3.865,-2.91 5.925,-4.204 z"
   id="path171"
   style="fill:#999999" />
		<path
   fill-rule="evenodd"
   clip-rule="evenodd"
   fill="#8f2d48"
   d="m 383.673,165.366 c 8.038,7.677 16.671,24.255 17.43,33.468 l 0.108,-0.114 c -0.838,-0.326 -1.195,-1.039 -1.489,-1.817 -2.405,-6.369 -5.557,-12.272 -11.153,-17.085 1.791,-5.877 -3.973,-9.326 -4.781,-14.564 z"
   id="path173"
   style="fill:#999999" />
		<path
   fill-rule="evenodd"
   clip-rule="evenodd"
   fill="#5c8c3e"
   d="m 125.981,344.672 c 4.449,3.237 6.654,8.921 12.216,10.415 1.187,5.642 4.617,9.245 7.83,12.99 l 0.113,-0.114 c -1.662,0.35 -2.67,-0.72 -3.674,-1.735 -5.313,-5.372 -10.123,-11.18 -14.795,-17.109 -1.077,-1.366 -1.333,-2.935 -1.577,-4.547 z"
   id="path175"
   style="fill:#999999" />
		<path
   fill-rule="evenodd"
   clip-rule="evenodd"
   fill="#8f2d48"
   d="m 228.179,120.588 c 0.21,-4.099 3.994,-7.011 3.744,-11.264 l -0.102,0.11 c 0.834,-0.916 2.428,-1.073 2.628,-2.625 l -0.164,0.14 c 0.906,-0.024 1.315,-0.545 1.398,-1.395 l -0.174,0.13 c 0.478,0.001 0.955,0.001 1.434,0.002 l -0.143,-0.143 c 1.009,5.462 -2.434,10.124 -2.275,17.092 -2.315,-4.285 -4.413,-2.495 -6.421,-2.12 z"
   id="path177"
   style="fill:#999999" />
		<path
   fill-rule="evenodd"
   clip-rule="evenodd"
   fill="#5c8c3e"
   d="m 290.403,405.517 c -4.28,3.386 -8.555,5.505 -13.646,5.47 -0.543,-0.812 -1.083,-1.62 -1.873,-2.8 3.842,-0.933 7.196,-2.622 9.632,-5.695 2.169,0.956 2.414,4.595 5.887,3.025 z"
   id="path179"
   style="fill:#999999" />
		<path
   fill-rule="evenodd"
   clip-rule="evenodd"
   fill="#5c8c3e"
   d="m 312.668,398.966 c -2.991,5.381 -9.135,5.172 -14.106,7.063 0.816,-3.52 4.289,-2.678 6.383,-4.095 2.184,-1.476 4.477,-2.791 6.722,-4.176 0.332,0.403 0.667,0.805 1.001,1.208 z"
   id="path181"
   style="fill:#999999" />
		<path
   fill-rule="evenodd"
   clip-rule="evenodd"
   d="m 325.266,112.934 c -2.48,0.206 -4.4,-1.154 -6.402,-2.288 l -0.125,0.125 c 2.469,-0.175 4.47,0.956 6.396,2.293 z"
   id="path183"
   style="fill:#999999" />
		<path
   fill-rule="evenodd"
   clip-rule="evenodd"
   d="m 301.803,104.196 c -1.111,-0.096 -2.224,-0.192 -3.435,-0.296 1.323,-0.939 2.271,0.067 3.314,0.407 z"
   id="path185"
   style="fill:#999999" />
		<path
   fill-rule="evenodd"
   clip-rule="evenodd"
   d="m 401.103,198.834 c 0.167,0.688 1.068,1.194 0.461,2.172 -0.129,-0.83 -0.24,-1.559 -0.353,-2.287 z"
   id="path187"
   style="fill:#999999" />
		<path
   fill-rule="evenodd"
   clip-rule="evenodd"
   d="m 304.252,109.183 c -0.836,0 -1.672,0 -3.025,0 1.515,-1.175 2.134,-0.124 2.917,0.11 z"
   id="path189"
   style="fill:#999999" />
		<path
   fill-rule="evenodd"
   clip-rule="evenodd"
   d="m 261.574,115.708 c 0.397,0.048 0.796,0.097 0.361,0.045 0.392,0.225 0.063,0.035 -0.265,-0.153 z"
   id="path191"
   style="fill:#999999" />
		<path
   fill-rule="evenodd"
   clip-rule="evenodd"
   d="m 177.347,121.958 c 0.393,-1.096 1.467,-0.958 2.294,-1.265 l 0.031,-0.08 c -0.813,0.408 -1.626,0.815 -2.44,1.222 z"
   id="path193"
   style="fill:#999999" />
		<path
   fill-rule="evenodd"
   clip-rule="evenodd"
   d="m 178.594,116.938 c 0.2,-0.175 0.4,-0.351 0.788,-0.692 -0.443,0.286 -0.675,0.435 -0.907,0.583 z"
   id="path195"
   style="fill:#999999" />
		<path
   fill-rule="evenodd"
   clip-rule="evenodd"
   d="m 178.475,116.829 c -0.82,0.438 -1.64,0.874 -2.461,1.311 l 0.122,0.126 c 0.59,-0.868 1.54,-1.069 2.459,-1.328 z"
   id="path197"
   style="fill:#999999" />
		<path
   fill-rule="evenodd"
   clip-rule="evenodd"
   d="m 113.632,188.848 c -0.12,0.367 -0.24,0.733 -0.388,1.187 -0.443,-0.728 0.296,-0.768 0.515,-1.066 z"
   id="path199"
   style="fill:#999999" />
		<path
   fill-rule="evenodd"
   clip-rule="evenodd"
   d="m 170.963,120.548 c 0.598,-0.83 1.474,-1.091 2.432,-1.185 l -0.114,-0.127 c -0.498,1.059 -1.468,1.132 -2.453,1.176 z"
   id="path201"
   style="fill:#999999" />
		<path
   fill-rule="evenodd"
   clip-rule="evenodd"
   d="m 159.835,128.04 c 0.813,-0.393 1.624,-0.786 2.436,-1.179 l -0.122,-0.154 c 0.002,0.468 0.003,0.936 0.005,1.403 l 0.148,-0.135 c -0.871,-0.002 -1.742,-0.006 -2.612,-0.01 z"
   id="path203"
   style="fill:#999999" />
		<path
   fill-rule="evenodd"
   clip-rule="evenodd"
   d="m 168.411,386.71 c -0.804,-0.373 -1.608,-0.747 -2.412,-1.12 l -0.063,0.075 c 0.811,0.366 1.623,0.731 2.434,1.098 z"
   id="path205"
   style="fill:#999999" />
		<path
   fill-rule="evenodd"
   clip-rule="evenodd"
   d="m 202.034,119.276 c 0.735,-0.682 1.598,-1.067 2.604,-1.123 l -0.104,-0.118 c -0.537,1.029 -1.647,0.851 -2.51,1.194 z"
   id="path207"
   style="fill:#999999" />
		<path
   fill-rule="evenodd"
   clip-rule="evenodd"
   d="m 176.014,118.14 c -0.911,0.365 -1.822,0.73 -2.733,1.096 l 0.114,0.127 c 0.52,-1.348 1.675,-1.109 2.74,-1.097 z"
   id="path209"
   style="fill:#999999" />
		<path
   fill-rule="evenodd"
   clip-rule="evenodd"
   d="m 330.269,393.078 c 0.251,-0.271 0.501,-0.542 0.846,-0.916 0.095,0.927 -0.584,0.667 -0.953,0.793 z"
   id="path211"
   style="fill:#999999" />
		<path
   fill-rule="evenodd"
   clip-rule="evenodd"
   d="m 330.161,392.955 c -0.526,1.158 -1.64,0.944 -2.592,1.106 l 0.114,0.121 c 0.861,-0.368 1.723,-0.736 2.585,-1.104 z"
   id="path213"
   style="fill:#999999" />
		<path
   fill-rule="evenodd"
   clip-rule="evenodd"
   d="m 317.75,399.173 c 0.398,-0.22 0.796,-0.44 0.312,-0.172 0.539,-0.104 0.077,-0.015 -0.382,0.074 z"
   id="path215"
   style="fill:#999999" />
		<path
   fill-rule="evenodd"
   clip-rule="evenodd"
   d="m 199.418,400.531 c 0.43,0.157 0.859,0.313 1.473,0.535 -0.979,0.376 -1.107,-0.231 -1.356,-0.661 z"
   id="path217"
   style="fill:#999999" />
		<path
   fill-rule="evenodd"
   clip-rule="evenodd"
   d="m 333.823,387.918 c 0.878,-0.335 1.755,-0.67 2.632,-1.005 l -0.124,-0.124 c -0.632,0.988 -1.623,1.019 -2.635,0.995 z"
   id="path219"
   style="fill:#999999" />
		<path
   fill-rule="evenodd"
   clip-rule="evenodd"
   d="m 296.674,114.295 c -0.403,-0.146 -0.805,-0.293 -1.373,-0.5 0.922,-0.361 1.027,0.22 1.249,0.632 z"
   id="path221"
   style="fill:#999999" />
		<path
   fill-rule="evenodd"
   clip-rule="evenodd"
   d="m 229.186,404.353 c 0.345,0.047 0.69,0.096 0.391,0.054 0.267,0.15 -0.008,-0.004 -0.283,-0.159 z"
   id="path223"
   style="fill:#999999" />
		<path
   fill-rule="evenodd"
   clip-rule="evenodd"
   d="m 124.91,342.07 c 0.864,0.658 1.152,1.554 1.071,2.602 l 0.113,-0.101 c -0.86,-0.667 -0.967,-1.64 -1.064,-2.617 z"
   id="path225"
   style="fill:#999999" />
		<path
   fill-rule="evenodd"
   clip-rule="evenodd"
   d="m 174.606,123.052 c 0.646,-1.035 1.686,-1.082 2.74,-1.095 l -0.115,-0.123 c -0.706,0.874 -1.67,1.104 -2.729,1.102 z"
   id="path227"
   style="fill:#999999" />
		<path
   fill-rule="evenodd"
   clip-rule="evenodd"
   d="m 143.371,304.751 0.099,-0.064 z"
   id="path229"
   style="fill:#999999" />
		<polygon
   fill-rule="evenodd"
   clip-rule="evenodd"
   points="336.365,125.454 336.264,125.554 336.511,125.676 "
   id="polygon231"
   style="fill:#999999" />
		<path
   fill-rule="evenodd"
   clip-rule="evenodd"
   d="m 158.533,129.279 c 0.435,-0.413 0.868,-0.826 1.302,-1.239 l -0.145,-0.074 c -0.423,0.424 -0.846,0.848 -1.27,1.271 z"
   id="path233"
   style="fill:#999999" />
		<polygon
   fill-rule="evenodd"
   clip-rule="evenodd"
   points="193.242,129.282 193.348,129.391 193.485,129.092 "
   id="polygon235"
   style="fill:#999999" />
		<path
   fill-rule="evenodd"
   clip-rule="evenodd"
   d="m 123.481,335.909 c 0.24,0.095 0.48,0.188 0.485,0.19 0.005,0.004 -0.181,-0.156 -0.368,-0.318 z"
   id="path237"
   style="fill:#999999" />
		<polygon
   fill-rule="evenodd"
   clip-rule="evenodd"
   points="124.91,342.07 125.029,341.954 124.619,341.749 "
   id="polygon239"
   style="fill:#999999" />
		<path
   fill-rule="evenodd"
   clip-rule="evenodd"
   d="m 158.511,130.536 c 0.007,-0.419 0.015,-0.838 0.022,-1.257 l -0.113,-0.042 c -0.002,0.448 -0.005,0.897 -0.007,1.346 z"
   id="path241"
   style="fill:#999999" />
		<polygon
   fill-rule="evenodd"
   clip-rule="evenodd"
   points="210.623,130.509 210.683,130.53 210.896,130.325 "
   id="polygon243"
   style="fill:#999999" />
		<path
   fill-rule="evenodd"
   clip-rule="evenodd"
   d="m 382.336,344.373 c -0.046,0.192 -0.097,0.551 -0.141,0.551 -0.421,-0.009 -0.333,-0.18 0.263,-0.438 z"
   id="path245"
   style="fill:#999999" />
		<polygon
   fill-rule="evenodd"
   clip-rule="evenodd"
   points="379.877,348.049 379.896,348.148 380.231,347.864 "
   id="polygon247"
   style="fill:#999999" />
		<polygon
   fill-rule="evenodd"
   clip-rule="evenodd"
   points="379.896,348.148 379.877,348.049 379.766,348.364 "
   id="polygon249"
   style="fill:#999999" />
		<polygon
   fill-rule="evenodd"
   clip-rule="evenodd"
   points="341.378,140.528 341.427,140.484 341.187,140.297 "
   id="polygon251"
   style="fill:#999999" />
		<polygon
   fill-rule="evenodd"
   clip-rule="evenodd"
   points="145.944,145.328 145.953,145.211 145.851,145.577 "
   id="polygon253"
   style="fill:#999999" />
		<polygon
   fill-rule="evenodd"
   clip-rule="evenodd"
   points="148.68,150.465 148.588,150.403 148.424,150.545 "
   id="polygon255"
   style="fill:#999999" />
		<line
   fill-rule="evenodd"
   clip-rule="evenodd"
   x1="322.58301"
   y1="151.839"
   x2="322.69"
   y2="151.731"
   id="line257"
   style="fill:#999999" />
		<polygon
   fill-rule="evenodd"
   clip-rule="evenodd"
   points="162.405,157.958 162.303,157.912 162.116,158.031 "
   id="polygon259"
   style="fill:#999999" />
		<path
   fill-rule="evenodd"
   clip-rule="evenodd"
   d="m 377.326,160.405 c 0.146,0.061 0.294,0.121 0.441,0.18 -0.109,-0.097 -0.218,-0.194 -0.327,-0.292 z"
   id="path261"
   style="fill:#999999" />
		<polygon
   fill-rule="evenodd"
   clip-rule="evenodd"
   points="382.292,164.147 382.429,164.014 382.197,163.891 "
   id="polygon263"
   style="fill:#999999" />
		<path
   fill-rule="evenodd"
   clip-rule="evenodd"
   d="m 383.787,165.253 c -0.855,0.027 -1.14,-0.57 -1.358,-1.239 l -0.137,0.134 c 0.722,0.109 1.184,0.515 1.381,1.219 z"
   id="path265"
   style="fill:#999999" />
		<polygon
   fill-rule="evenodd"
   clip-rule="evenodd"
   points="160.79,167.78 160.885,167.836 161.066,167.689 "
   id="polygon267"
   style="fill:#999999" />
		<polygon
   fill-rule="evenodd"
   clip-rule="evenodd"
   points="373.651,175.456 373.713,175.365 373.569,175.196 "
   id="polygon269"
   style="fill:#999999" />
		<path
   fill-rule="evenodd"
   clip-rule="evenodd"
   d="m 113.766,185.286 c -0.107,-0.298 -0.255,-0.59 -0.3,-0.896 -0.018,-0.119 0.194,-0.273 0.301,-0.411 l -0.119,-0.074 c 0,0.483 -10e-4,0.967 -0.002,1.451 z"
   id="path271"
   style="fill:#999999" />
		<polygon
   fill-rule="evenodd"
   clip-rule="evenodd"
   points="377.428,155.304 377.418,155.358 377.632,155.598 "
   id="polygon273"
   style="fill:#999999" />
		<polygon
   fill-rule="evenodd"
   clip-rule="evenodd"
   points="374.959,356.839 375.075,356.958 375.171,356.729 "
   id="polygon275"
   style="fill:#999999" />
		<polygon
   fill-rule="evenodd"
   clip-rule="evenodd"
   points="144.724,358.302 144.837,358.192 144.588,357.938 "
   id="polygon277"
   style="fill:#999999" />
		<path
   fill-rule="evenodd"
   clip-rule="evenodd"
   d="m 373.679,358.117 c 0.465,-0.387 0.931,-0.773 1.396,-1.159 l -0.116,-0.119 c -0.425,0.397 -0.851,0.794 -1.275,1.193 z"
   id="path279"
   style="fill:#999999" />
		<polygon
   fill-rule="evenodd"
   clip-rule="evenodd"
   points="373.679,358.117 373.684,358.032 373.51,358.367 "
   id="polygon281"
   style="fill:#999999" />
		<polygon
   fill-rule="evenodd"
   clip-rule="evenodd"
   points="369.917,361.743 370.028,361.865 370.183,361.651 "
   id="polygon283"
   style="fill:#999999" />
		<polygon
   fill-rule="evenodd"
   clip-rule="evenodd"
   points="353.965,361.997 353.851,361.886 353.579,362.086 "
   id="polygon285"
   style="fill:#999999" />
		<path
   fill-rule="evenodd"
   clip-rule="evenodd"
   d="m 369.917,361.743 c -0.425,0.418 -0.852,0.836 -1.278,1.254 l 0.125,0.127 c 0.422,-0.42 0.844,-0.84 1.265,-1.259 z"
   id="path287"
   style="fill:#999999" />
		<path
   fill-rule="evenodd"
   clip-rule="evenodd"
   d="m 368.639,362.997 c -0.114,0.723 -0.471,1.205 -1.254,1.264 l 0.119,0.115 c 0.419,-0.417 0.84,-0.835 1.26,-1.252 z"
   id="path289"
   style="fill:#999999" />
		<path
   fill-rule="evenodd"
   clip-rule="evenodd"
   d="m 367.385,364.261 c 0,0.801 -0.369,1.26 -1.197,1.298 l 0.102,0.102 c 0.109,-0.707 0.588,-1.065 1.215,-1.284 z"
   id="path291"
   style="fill:#999999" />
		<path
   fill-rule="evenodd"
   clip-rule="evenodd"
   d="m 364.976,366.806 c 0.228,-0.622 0.617,-1.059 1.313,-1.146 l -0.102,-0.102 c -0.073,0.813 -0.527,1.177 -1.331,1.135 z"
   id="path293"
   style="fill:#999999" />
		<polygon
   fill-rule="evenodd"
   clip-rule="evenodd"
   points="364.976,366.806 364.856,366.693 364.778,367.197 "
   id="polygon295"
   style="fill:#999999" />
		<path
   fill-rule="evenodd"
   clip-rule="evenodd"
   d="m 147.302,369.255 c -0.69,-0.159 -1.108,-0.563 -1.162,-1.292 l -0.113,0.114 c 0.386,0.433 0.772,0.863 1.16,1.296 z"
   id="path297"
   style="fill:#999999" />
		<path
   fill-rule="evenodd"
   clip-rule="evenodd"
   d="m 358.811,369.438 c 0.141,-0.19 0.281,-0.38 0.252,-0.341 0.04,-0.027 -0.155,0.105 -0.352,0.239 z"
   id="path299"
   style="fill:#999999" />
		<path
   fill-rule="evenodd"
   clip-rule="evenodd"
   d="m 147.186,369.373 c 0.403,0.421 0.807,0.841 1.211,1.26 l 0.118,-0.115 c -0.404,-0.42 -0.809,-0.842 -1.213,-1.263 z"
   id="path301"
   style="fill:#999999" />
		<path
   fill-rule="evenodd"
   clip-rule="evenodd"
   d="m 148.397,370.633 c 0.449,0.391 0.897,0.779 1.346,1.168 l 0.055,-0.089 c -0.428,-0.397 -0.855,-0.796 -1.283,-1.194 z"
   id="path303"
   style="fill:#999999" />
		<polygon
   fill-rule="evenodd"
   clip-rule="evenodd"
   points="149.797,371.712 149.743,371.801 149.91,371.985 "
   id="polygon305"
   style="fill:#999999" />
		<path
   fill-rule="evenodd"
   clip-rule="evenodd"
   d="m 320.17,371.805 c -0.136,0.182 -0.27,0.363 -0.245,0.329 -0.034,0.022 0.155,-0.103 0.345,-0.228 z"
   id="path307"
   style="fill:#999999" />
		<path
   fill-rule="evenodd"
   clip-rule="evenodd"
   d="m 197.099,110.615 c -0.009,-0.426 -0.018,-0.853 -0.027,-1.278 l -0.099,-0.042 c 10e-4,0.46 0.002,0.919 0.004,1.38 z"
   id="path309"
   style="fill:#999999" />
		<path
   fill-rule="evenodd"
   clip-rule="evenodd"
   d="m 174.579,379.376 c 0.201,0.124 0.401,0.246 0.361,0.222 0.03,0.038 -0.116,-0.143 -0.263,-0.325 z"
   id="path311"
   style="fill:#999999" />
		<path
   fill-rule="evenodd"
   clip-rule="evenodd"
   d="m 325.135,113.064 c 0.17,0.111 0.503,0.284 0.488,0.324 -0.132,0.343 -0.277,0.18 -0.357,-0.455 z"
   id="path313"
   style="fill:#999999" />
		<polygon
   fill-rule="evenodd"
   clip-rule="evenodd"
   points="172.272,381.717 172.394,381.732 172.019,381.641 "
   id="polygon315"
   style="fill:#999999" />
		<path
   fill-rule="evenodd"
   clip-rule="evenodd"
   d="m 269.127,114.315 0.099,-0.103 z"
   id="path317"
   style="fill:#999999" />
		<polygon
   fill-rule="evenodd"
   clip-rule="evenodd"
   points="165.936,385.665 165.999,385.59 165.788,385.41 "
   id="polygon319"
   style="fill:#999999" />
		<path
   fill-rule="evenodd"
   clip-rule="evenodd"
   d="m 205.91,385.484 -0.101,0.084 z"
   id="path321"
   style="fill:#999999" />
		<path
   fill-rule="evenodd"
   clip-rule="evenodd"
   d="m 337.584,385.485 c -0.044,0.794 -0.579,1.115 -1.253,1.304 l 0.124,0.124 c 0.013,-0.812 0.411,-1.265 1.232,-1.324 z"
   id="path323"
   style="fill:#999999" />
		<polygon
   fill-rule="evenodd"
   clip-rule="evenodd"
   points="168.411,386.71 168.369,386.763 168.598,386.961 "
   id="polygon325"
   style="fill:#999999" />
		<polygon
   fill-rule="evenodd"
   clip-rule="evenodd"
   points="284.182,119.293 284.259,119.298 283.943,119.123 "
   id="polygon327"
   style="fill:#999999" />
		<path
   fill-rule="evenodd"
   clip-rule="evenodd"
   d="m 333.816,389.29 c 0.003,-0.458 0.005,-0.915 0.007,-1.372 l -0.127,-0.134 c 0.009,0.516 0.016,1.029 0.023,1.544 z"
   id="path329"
   style="fill:#999999" />
		<polygon
   fill-rule="evenodd"
   clip-rule="evenodd"
   points="333.816,389.29 333.72,389.328 334.009,389.425 "
   id="polygon331"
   style="fill:#999999" />
		<polygon
   fill-rule="evenodd"
   clip-rule="evenodd"
   points="179.672,120.613 179.641,120.693 179.845,120.339 "
   id="polygon333"
   style="fill:#999999" />
		<polygon
   fill-rule="evenodd"
   clip-rule="evenodd"
   points="202.034,119.276 202.023,119.23 201.79,119.526 "
   id="polygon335"
   style="fill:#999999" />
		<polygon
   fill-rule="evenodd"
   clip-rule="evenodd"
   points="327.684,394.183 327.569,394.062 327.444,394.52 "
   id="polygon337"
   style="fill:#999999" />
		<path
   fill-rule="evenodd"
   clip-rule="evenodd"
   d="m 249.149,119.367 0.101,-0.092 z"
   id="path339"
   style="fill:#999999" />
		<polygon
   fill-rule="evenodd"
   clip-rule="evenodd"
   points="317.75,399.173 317.68,399.075 317.565,399.354 "
   id="polygon341"
   style="fill:#999999" />
		<path
   fill-rule="evenodd"
   clip-rule="evenodd"
   d="m 169.738,121.9 c -0.014,-0.833 0.578,-1.118 1.225,-1.352 l -0.135,-0.136 c -0.01,0.796 -0.469,1.205 -1.193,1.388 z"
   id="path343"
   style="fill:#999999" />
		<path
   fill-rule="evenodd"
   clip-rule="evenodd"
   d="m 214.416,120.456 c -0.075,0.189 -0.18,0.546 -0.221,0.539 -0.407,-0.07 -0.292,-0.237 0.336,-0.423 z"
   id="path345"
   style="fill:#999999" />
		<path
   fill-rule="evenodd"
   clip-rule="evenodd"
   d="m 228.104,120.516 c -0.121,0.29 -0.241,0.579 -0.361,0.87 -0.806,-0.786 -0.029,-0.706 0.436,-0.797 z"
   id="path347"
   style="fill:#999999" />
		<polygon
   fill-rule="evenodd"
   clip-rule="evenodd"
   points="111.128,294.771 111.033,294.763 111.365,294.912 "
   id="polygon349"
   style="fill:#999999" />
		<path
   fill-rule="evenodd"
   clip-rule="evenodd"
   d="m 226.931,406.74 c -0.529,-0.46 0.042,0.206 -0.122,0.118 z"
   id="path351"
   style="fill:#999999" />
		<polygon
   fill-rule="evenodd"
   clip-rule="evenodd"
   points="269.228,124.328 269.281,124.299 269.019,124.118 "
   id="polygon353"
   style="fill:#999999" />
		<polygon
   fill-rule="evenodd"
   clip-rule="evenodd"
   points="182.032,125.553 182.088,125.608 182.268,125.379 "
   id="polygon355"
   style="fill:#999999" />
		<path
   fill-rule="evenodd"
   clip-rule="evenodd"
   d="m 162.271,126.861 c 0.037,-0.8 0.566,-1.135 1.254,-1.317 0,-10e-4 -0.124,-0.103 -0.124,-0.103 -0.001,0.476 -0.003,0.954 -0.004,1.43 l 0.126,-0.152 c -0.458,-0.003 -0.916,-0.008 -1.374,-0.012 z"
   id="path357"
   style="fill:#999999" />
	</g>
</g>
</svg>
