<?xml version="1.0" encoding="UTF-8" standalone="no"?>
<svg
   width="48"
   height="48"
   viewBox="0 0 48 48"
   fill="none"
   version="1.1"
   id="svg264"
   sodipodi:docname="seqera.svg"
   inkscape:version="1.2.2 (b0a8486541, 2022-12-01)"
   xmlns:inkscape="http://www.inkscape.org/namespaces/inkscape"
   xmlns:sodipodi="http://sodipodi.sourceforge.net/DTD/sodipodi-0.dtd"
   xmlns="http://www.w3.org/2000/svg"
   xmlns:svg="http://www.w3.org/2000/svg">
  <defs
     id="defs268" />
  <sodipodi:namedview
     id="namedview266"
     pagecolor="#ffffff"
     bordercolor="#000000"
     borderopacity="0.25"
     inkscape:showpageshadow="2"
     inkscape:pageopacity="0.0"
     inkscape:pagecheckerboard="0"
     inkscape:deskcolor="#d1d1d1"
     showgrid="false"
     inkscape:zoom="4.9166667"
     inkscape:cx="-1.8305085"
     inkscape:cy="24.305085"
     inkscape:window-width="1704"
     inkscape:window-height="993"
     inkscape:window-x="0"
     inkscape:window-y="0"
     inkscape:window-maximized="1"
     inkscape:current-layer="svg264" />
  <style
     id="style246">
	.st0 {
		fill: black;
	}
	@media (prefers-color-scheme: dark) {
		.st0 {
			fill: white;
		}
	}
</style>
  <path
     d="M40.7493 24.8505L40.8165 24.8774L40.8837 24.9042L40.9471 24.9349L41.0105 24.9695L41.072 25.0041L41.1334 25.0425L41.1911 25.0866L41.2468 25.1289L41.2986 25.1768L41.3524 25.2248L41.4023 25.2786L41.4484 25.3304L41.4945 25.388L41.5349 25.4456L41.5752 25.5071L41.6098 25.5666L41.6424 25.6319L41.6731 25.6952L41.7 25.7605L41.7269 25.8277L41.7461 25.8968L41.7653 25.964L41.7788 26.0369L41.7922 26.1061L41.7999 26.179L41.8038 26.2481L41.8057 26.3192L41.8038 26.3921L41.7999 26.4631L41.7922 26.5342L41.7788 26.6052L41.7653 26.6743L41.7461 26.7454L41.7269 26.8126L41.7 26.8817L41.6731 26.9469L41.6424 27.0103L41.6098 27.0737L41.5752 27.1351L41.5349 27.1965L41.4945 27.2541L41.4484 27.3079L41.4023 27.3636L41.3524 27.4135L41.2986 27.4653L41.2468 27.5133L41.1911 27.5555L41.1334 27.5959L41.072 27.6381L41.0105 27.6726L40.9471 27.7072L40.8837 27.736L40.8165 27.7648L40.7493 27.7878L40.6821 27.8109L40.6129 27.8262L40.5438 27.8435L40.4708 27.8531L40.4017 27.8608L40.3287 27.8685H40.3171L40.3901 27.8666L40.5207 27.8608L40.6513 27.8531L40.7819 27.8416L40.9106 27.8243L41.0412 27.8051L41.1699 27.784L41.2986 27.7571L41.4254 27.7283L41.5541 27.6957L41.6808 27.6592L41.8057 27.6189L41.9286 27.5767L42.0515 27.5306L42.1725 27.4807L42.2935 27.4288L42.4126 27.3732L42.5298 27.3136L42.645 27.2522L42.7583 27.1869L42.8697 27.1178L42.9811 27.0487L43.0887 26.9757L43.1963 26.897L43.3 26.8164L43.4018 26.7358L43.5016 26.6494L43.5996 26.5611L43.6937 26.4727L43.7878 26.3787L43.8781 26.2846L43.9645 26.1867L44.049 26.0869L44.1316 25.9851L44.2123 25.8795L44.2891 25.7739L44.3621 25.6664L44.4351 25.5551L44.5023 25.4437L44.5676 25.3285L44.631 25.2133L44.6886 25.0981L44.7443 24.9791L44.7962 24.8582L44.8461 24.7372L44.8922 24.6143L44.9364 24.4895L44.9748 24.3648L45.0113 24.238L45.044 24.1113L45.0728 23.9846L45.0997 23.8541L45.1227 23.7254L45.1419 23.5968L45.1554 23.4663L45.1688 23.3357L45.1784 23.2032L45.1823 23.0727L45.1842 22.9421L45.1823 22.8116L45.1784 22.6791L45.1688 22.5486L45.1554 22.418L45.1419 22.2894L45.1227 22.1588L45.0997 22.0283L45.0728 21.9016L45.044 21.773L45.019 21.675H40.3498L40.2576 21.677H29.2136L40.6686 24.8274L40.7493 24.8505Z"
     class="st0"
     id="path248"
     style="fill:#999999" />
  <path
     d="M47.9923 25.9928L47.9827 25.8277L47.9712 25.6645L47.9558 25.4994L47.9366 25.3362L47.9155 25.1749L47.8886 25.0117L47.8579 24.8505L47.8271 24.6892L47.7906 24.5299L47.7503 24.3705L47.7081 24.2112L47.66 24.0537L47.6101 23.8982L47.5582 23.7408L47.5006 23.5872L47.4411 23.4355L47.3777 23.282L47.3124 23.1322L47.2432 22.9825L47.1722 22.8346L47.0954 22.6906L47.0166 22.5447L46.934 22.4027L46.8495 22.2606L46.7631 22.1224L46.6709 21.9841L46.5787 21.8498L46.4827 21.7173L46.45 21.675H45.0191L45.0441 21.773L45.0729 21.9016L45.0998 22.0283L45.1228 22.1588L45.142 22.2894L45.1555 22.418L45.1689 22.5486L45.1785 22.6791L45.1823 22.8116L45.1843 22.9421L45.1823 23.0727L45.1785 23.2032L45.1689 23.3357L45.1555 23.4663L45.142 23.5968L45.1228 23.7254L45.0998 23.8541L45.0729 23.9846L45.0441 24.1113L45.0114 24.238L44.9749 24.3648L44.9365 24.4895L44.8923 24.6143L44.8462 24.7372L44.7963 24.8582L44.7444 24.9791L44.6887 25.0981L44.6311 25.2133L44.5677 25.3285L44.5024 25.4437L44.4352 25.5551L44.3622 25.6664L44.2892 25.7739L44.2124 25.8795L44.1317 25.9851L44.0491 26.0869L43.9646 26.1867L43.8782 26.2846L43.7879 26.3787L43.6938 26.4727L43.5997 26.5611L43.5017 26.6494L43.4019 26.7358L43.3001 26.8164L43.1964 26.897L43.0888 26.9757L42.9812 27.0487L42.8698 27.1178L42.7584 27.1869L42.6451 27.2522L42.5299 27.3136L42.4127 27.3732L42.2936 27.4288L42.1726 27.4807L42.0516 27.5306L41.9287 27.5767L41.8058 27.6189L41.6809 27.6592L41.5542 27.6957L41.4255 27.7283L41.2987 27.7571L41.17 27.784L41.0413 27.8051L40.9107 27.8243L40.782 27.8416L40.6514 27.8531L40.5208 27.8608L40.3902 27.8666L40.2577 27.8685H0V34.0619H40.2577L40.4229 34.06L40.5861 34.0561L40.7513 34.0465L40.9146 34.0331L41.0778 34.0177L41.2411 34.0005L41.4043 33.9755L41.5657 33.9505L41.727 33.9217L41.8884 33.8872L42.0497 33.8507L42.2072 33.8123L42.3666 33.7682L42.526 33.7221L42.6816 33.6741L42.8372 33.6184L42.9908 33.5627L43.1445 33.5032L43.2962 33.4418L43.446 33.3765L43.5959 33.3055L43.7437 33.2325L43.8897 33.1577L44.0338 33.0789L44.1759 32.9983L44.318 32.9119L44.4544 32.8255L44.5927 32.7353L44.7291 32.6412L44.8616 32.5452L44.9922 32.4454L45.1209 32.3436L45.2496 32.238L45.3744 32.1305L45.4954 32.023L45.6145 31.9098L45.7317 31.7946L45.8469 31.6774L45.9583 31.5565L46.0697 31.4355L46.1773 31.3108L46.281 31.184L46.3828 31.0554L46.4827 30.9229L46.5787 30.7905L46.6709 30.6561L46.7631 30.5179L46.8495 30.3796L46.934 30.2376L47.0166 30.0955L47.0954 29.9515L47.1722 29.8056L47.2432 29.6578L47.3124 29.5099L47.3777 29.3583L47.4411 29.2066L47.5006 29.0549L47.5582 28.8994L47.6101 28.7439L47.66 28.5884L47.7081 28.4291L47.7503 28.2716L47.7906 28.1123L47.8271 27.951L47.8579 27.7917L47.8886 27.6304L47.9155 27.4672L47.9366 27.304L47.9558 27.1409L47.9712 26.9777L47.9827 26.8126L47.9923 26.6494L47.9981 26.4862L48 26.3211L47.9981 26.156L47.9923 25.9928Z"
     fill="#FA6863"
     id="path250"
     style="fill:#999999" />
  <path
     d="M7.25055 23.1438L7.18333 23.1188L7.1161 23.0919L7.05272 23.0612L6.98742 23.0267L6.92787 22.9902L6.86641 22.9518L6.80879 22.9095L6.75309 22.8654L6.69931 22.8174L6.64745 22.7694L6.59752 22.7176L6.55142 22.6638L6.50532 22.6062L6.46499 22.5486L6.42465 22.4891L6.39008 22.4296L6.35743 22.3643L6.32478 22.299L6.29981 22.2357L6.27292 22.1685L6.25371 22.0974L6.2345 22.0303L6.21914 21.9592L6.20761 21.8901L6.19993 21.8172L6.19609 21.748L6.19417 21.6751L6.19609 21.604L6.19993 21.5311L6.20761 21.462L6.21914 21.3909L6.2345 21.3199L6.25371 21.2508L6.27292 21.1836L6.29981 21.1145L6.32478 21.0492L6.35743 20.9839L6.39008 20.9225L6.42465 20.8591L6.46499 20.7996L6.50532 20.742L6.55142 20.6864L6.59752 20.6326L6.64745 20.5808L6.69931 20.5309L6.75309 20.4829L6.80879 20.4406L6.86641 20.3984L6.92787 20.3581L6.98742 20.3216L7.05272 20.289L7.1161 20.2602L7.18333 20.2314L7.25055 20.2064L7.31777 20.1853L7.38692 20.168L7.45606 20.1526L7.52905 20.143L7.5982 20.1354L7.66926 20.1277H7.68271H7.60972L7.47911 20.1334L7.34851 20.143L7.2179 20.1546L7.08921 20.1699L6.95861 20.1891L6.828 20.2122L6.70123 20.2371L6.57255 20.2678L6.44578 20.3005L6.31902 20.3369L6.19417 20.3773L6.07125 20.4195L5.9464 20.4637L5.82732 20.5136L5.70631 20.5673L5.58723 20.623L5.47007 20.6825L5.35291 20.744L5.24151 20.8073L5.13011 20.8764L5.01871 20.9475L4.90923 21.0204L4.80359 21.0991L4.69795 21.1778L4.59808 21.2604L4.4982 21.3449L4.40024 21.4332L4.30613 21.5234L4.21202 21.6156L4.12174 21.7116L4.03531 21.8076L3.94888 21.9074L3.86821 22.0111L3.78562 22.1147L3.71072 22.2203L3.63581 22.3297L3.56474 22.4392L3.49752 22.5525L3.43222 22.6657L3.36883 22.7828L3.31121 22.898L3.25551 23.0171L3.20365 23.138L3.15372 23.259L3.10762 23.3818L3.06344 23.5066L3.02503 23.6314L2.98854 23.7581L2.95588 23.8829L2.92707 24.0115L2.90018 24.1402L2.87714 24.2707L2.85793 24.3993L2.84448 24.5299L2.83104 24.6585L2.82144 24.791L2.81759 24.9215L2.81567 25.0521L2.81759 25.1846L2.82144 25.3151L2.83104 25.4457L2.84448 25.5762L2.85793 25.7068L2.87714 25.8373L2.90018 25.9659L2.92707 26.0946L2.95588 26.2213L2.98085 26.3211H7.65005L7.74225 26.3192H18.7862L7.33122 23.1687L7.25055 23.1438Z"
     class="st0"
     id="path252"
     style="fill:#999999" />
  <path
     d="M0.00768277 22.0034L0.0153655 22.1685L0.0288104 22.3317L0.0441759 22.4949L0.0633828 22.658L0.0845104 22.8212L0.1114 22.9825L0.14021 23.1457L0.172862 23.307L0.209355 23.4663L0.24969 23.6256L0.291945 23.785L0.339962 23.9424L0.3899 24.0979L0.441759 24.2534L0.49938 24.4089L0.558921 24.5606L0.622304 24.7142L0.687608 24.8639L0.756752 25.0137L0.827818 25.1596L0.904646 25.3055L0.983394 25.4514L1.06598 25.5935L1.15049 25.7336L1.23693 25.8719L1.3272 26.0101L1.42131 26.1464L1.51735 26.2789L1.55 26.3211H2.98091L2.95594 26.2213L2.92713 26.0946L2.90024 25.9659L2.8772 25.8373L2.85799 25.7068L2.84454 25.5762L2.8311 25.4457L2.8215 25.3151L2.81765 25.1846L2.81573 25.0521L2.81765 24.9215L2.8215 24.791L2.8311 24.6585L2.84454 24.5299L2.85799 24.3993L2.8772 24.2707L2.90024 24.1402L2.92713 24.0115L2.95594 23.8829L2.9886 23.7581L3.02509 23.6314L3.0635 23.5066L3.10768 23.3818L3.15378 23.259L3.20371 23.138L3.25557 23.0171L3.31127 22.898L3.36889 22.7828L3.43228 22.6657L3.49758 22.5525L3.5648 22.4392L3.63587 22.3298L3.71078 22.2203L3.78568 22.1147L3.86827 22.0111L3.94894 21.9074L4.03537 21.8076L4.1218 21.7116L4.21208 21.6156L4.30619 21.5234L4.4003 21.4332L4.49826 21.3449L4.59814 21.2604L4.69801 21.1778L4.80365 21.0991L4.90929 21.0204L5.01877 20.9475L5.13017 20.8764L5.24157 20.8073L5.35297 20.744L5.47013 20.6825L5.58729 20.623L5.70637 20.5673L5.82738 20.5136L5.94646 20.4637L6.07131 20.4195L6.19423 20.3773L6.31908 20.337L6.44584 20.3005L6.57261 20.2678L6.70129 20.2371L6.82806 20.2122L6.95866 20.1891L7.08927 20.1699L7.21796 20.1546L7.34857 20.143L7.47917 20.1334L7.60978 20.1277L7.74231 20.1258H48V13.9343H7.74231L7.57713 13.9362L7.41387 13.94L7.24869 13.9496L7.08543 13.9611L6.92025 13.9765L6.75891 13.9957L6.59565 14.0187L6.43432 14.0437L6.27298 14.0744L6.10972 14.1071L5.9503 14.1435L5.79088 14.1838L5.63339 14.2261L5.47397 14.2741L5.31839 14.3221L5.16282 14.3758L5.00916 14.4315L4.85551 14.4929L4.70377 14.5544L4.55396 14.6197L4.40415 14.6907L4.25625 14.7636L4.11028 14.8366L3.96623 14.9172L3.8241 14.9979L3.68197 15.0823L3.54368 15.1706L3.40539 15.2609L3.27094 15.355L3.13841 15.4509L3.00588 15.5489L2.87912 15.6506L2.75043 15.7562L2.62559 15.8637L2.50458 15.9731L2.3855 16.0864L2.26834 16.1997L2.1531 16.3187L2.03977 16.4397L1.93029 16.5606L1.82274 16.6854L1.71902 16.8121L1.61722 16.9407L1.51735 17.0713L1.42131 17.2057L1.3272 17.3401L1.23693 17.4764L1.15049 17.6165L1.06598 17.7586L0.983394 17.9007L0.904646 18.0427L0.827818 18.1886L0.756752 18.3384L0.687608 18.4862L0.622304 18.6379L0.558921 18.7876L0.49938 18.9412L0.441759 19.0948L0.3899 19.2503L0.339962 19.4077L0.291945 19.5652L0.24969 19.7245L0.209355 19.8839L0.172862 20.0451L0.14021 20.2045L0.1114 20.3658L0.0845104 20.5289L0.0633828 20.6921L0.0441759 20.8553L0.0288104 21.0185L0.0153655 21.1817L0.00768277 21.3449L0 21.51V21.6751V21.8402L0.00768277 22.0034Z"
     fill="#F18046"
     id="path254"
     style="fill:#999999" />
  <path
     d="M7.25055 9.21136L7.18333 9.18448L7.1161 9.15568L7.0508 9.12689L6.98934 9.09233L6.92595 9.05777L6.86641 9.01937L6.80879 8.97522L6.75117 8.93298L6.69739 8.88498L6.64553 8.83699L6.59752 8.78323L6.55142 8.7314L6.50532 8.6738L6.46307 8.61621L6.42465 8.55477L6.38816 8.49334L6.35551 8.42998L6.32286 8.36663L6.29789 8.30135L6.27292 8.23224L6.25179 8.16504L6.2345 8.09785L6.21914 8.02489L6.20761 7.95578L6.19801 7.88282L6.19609 7.81179L6.19417 7.73884L6.19609 7.6678L6.19801 7.59869L6.20761 7.52765L6.21914 7.45662L6.2345 7.3875L6.25179 7.31647L6.27292 7.24736L6.29789 7.18016L6.32286 7.11489L6.35551 7.05153L6.38816 6.98626L6.42465 6.92674L6.46307 6.86531L6.50532 6.80771L6.55142 6.75395L6.59752 6.69828L6.64553 6.64452L6.69739 6.59653L6.75117 6.54853L6.80879 6.50629L6.86641 6.46598L6.92595 6.42374L6.98934 6.38918L7.0508 6.35463L7.1161 6.32391L7.18333 6.29703L7.25055 6.27399L7.31777 6.25096L7.38692 6.23176L7.45799 6.21832L7.52713 6.2068L7.5982 6.19912L7.67118 6.19336H7.69423H7.60972L7.47911 6.19912L7.34851 6.20872L7.2179 6.22024L7.08921 6.23752L6.95861 6.25671L6.828 6.27783L6.70123 6.30471L6.57255 6.33351L6.44578 6.36615L6.31902 6.40262L6.19417 6.44294L6.07125 6.48518L5.9464 6.53125L5.82732 6.57925L5.70631 6.633L5.58723 6.68868L5.47007 6.7482L5.35291 6.80963L5.24151 6.87299L5.12819 6.9421L5.01871 7.01313L4.90923 7.08609L4.80359 7.1648L4.69795 7.24352L4.59615 7.32607L4.4982 7.41246L4.40024 7.49886L4.30421 7.58909L4.21202 7.68124L4.12174 7.77723L4.03531 7.87515L3.94888 7.97498L3.86821 8.07673L3.78562 8.18232L3.71072 8.28791L3.63581 8.39542L3.56474 8.50485L3.49752 8.61813L3.43222 8.7314L3.36883 8.84851L3.31121 8.9637L3.25551 9.08273L3.20365 9.20368L3.15372 9.32463L3.10762 9.4475L3.06344 9.57229L3.02503 9.69708L2.98854 9.82379L2.95588 9.9505L2.92515 10.0772L2.90018 10.2058L2.87714 10.3364L2.85793 10.465L2.84256 10.5956L2.83104 10.7242L2.82144 10.8567L2.81759 10.9891L2.81567 11.1197L2.81759 11.2502L2.82144 11.3827L2.83104 11.5133L2.84256 11.6438L2.85793 11.7724L2.87714 11.903L2.90018 12.0335L2.92515 12.1602L2.95588 12.2889L2.98854 12.4156L3.02503 12.5404L3.06344 12.6671L3.10762 12.79L3.15372 12.9128L3.20365 13.0338L3.25551 13.1547L3.31121 13.2738L3.36883 13.3909L3.40725 13.4581L3.41109 13.4561L3.57243 13.3736L3.73376 13.2949L3.89702 13.2181L4.0622 13.147L4.22738 13.0741L4.3964 13.0088L4.5635 12.9474L4.73444 12.884L4.90539 12.8303L5.07825 12.7765L5.25111 12.7266L5.42397 12.6786L5.59876 12.6344L5.77546 12.596L5.95216 12.5615L6.12695 12.5269L6.30557 12.4981L6.48419 12.4713L6.66282 12.4482L6.84336 12.429L7.02199 12.4137L7.20253 12.4002L7.37924 12.3925L7.56362 12.3887L7.74225 12.3849H18.7862L7.3293 9.2344L7.25055 9.21136Z"
     class="st0"
     id="path256"
     style="fill:#999999" />
  <path
     d="M40.2576 41.8066H40.3901L40.5207 41.7989L40.6513 41.7913L40.7819 41.7797L40.9126 41.7625L41.0432 41.7433L41.1718 41.7222L41.3005 41.6953L41.4273 41.6665L41.556 41.6338L41.6808 41.5974L41.8057 41.557L41.9305 41.5148L42.0534 41.4687L42.1725 41.4188L42.2935 41.367L42.4126 41.3113L42.5298 41.2518L42.6469 41.1904L42.7603 41.1251L42.8717 41.056L42.9811 40.9849L43.0906 40.912L43.1982 40.8352L43.3019 40.7545L43.4037 40.6739L43.5036 40.5875L43.5996 40.4992L43.6956 40.4109L43.7878 40.3168L43.8781 40.2228L43.9665 40.1248L44.051 40.025L44.1336 39.9233L44.2142 39.8177L44.2891 39.7121L44.364 39.6046L44.4351 39.4932L44.5023 39.3819L44.5676 39.2667L44.631 39.1515L44.6906 39.0344L44.7463 38.9173L44.7962 38.7963L44.8481 38.6734L44.8922 38.5525L44.9364 38.4277L44.9767 38.3029L45.0113 38.1762L45.0459 38.0495L45.0747 37.9228L45.0997 37.7922L45.1227 37.6636L45.1419 37.535L45.1573 37.4025L45.1707 37.2739L45.1784 37.1414L45.1842 37.0108V36.8803V36.7497L45.1784 36.6173L45.1707 36.4867L45.1573 36.3562L45.1419 36.2276L45.1227 36.097L45.0997 35.9665L45.0747 35.8397L45.0459 35.7111L45.0113 35.5844L44.9767 35.4596L44.9364 35.3329L44.8922 35.2081L44.8481 35.0872L44.7962 34.9662L44.7463 34.8453L44.6906 34.7262L44.631 34.6091L44.5926 34.5381L44.5888 34.54L44.4274 34.6226L44.2661 34.7013L44.1028 34.7781L43.9376 34.851L43.7705 34.9201L43.6034 34.9873L43.4363 35.0488L43.2654 35.1102L43.0925 35.1678L42.9216 35.2196L42.7507 35.2695L42.574 35.3175L42.4011 35.3598L42.2244 35.4001L42.0477 35.4366L41.871 35.4692L41.6943 35.498L41.5156 35.5249L41.337 35.5479L41.1584 35.5671L40.9779 35.5825L40.7973 35.594L40.6168 35.6036L40.4381 35.6094L40.2576 35.6113H29.2136L40.6686 38.7617L40.7493 38.7867L40.8165 38.8117L40.8837 38.8385L40.9471 38.8693L41.0105 38.9038L41.072 38.9403L41.1334 38.9787L41.1911 39.0209L41.2468 39.0651L41.2986 39.1131L41.3524 39.1611L41.4023 39.2129L41.4484 39.2667L41.4945 39.3243L41.5349 39.3819L41.5752 39.4414L41.6098 39.5009L41.6424 39.5662L41.6731 39.6314L41.7 39.6948L41.7269 39.762L41.7461 39.833L41.7653 39.9002L41.7788 39.9713L41.7922 40.0404L41.7999 40.1133L41.8038 40.1824L41.8057 40.2554L41.8038 40.3264L41.7999 40.3994L41.7922 40.4685L41.7788 40.5395L41.7653 40.6106L41.7461 40.6797L41.7269 40.7469L41.7 40.816L41.6731 40.8813L41.6424 40.9465L41.6098 41.008L41.5752 41.0713L41.5349 41.1308L41.4945 41.1884L41.4484 41.2441L41.4023 41.2979L41.3524 41.3497L41.2986 41.3996L41.2468 41.4476L41.1911 41.4899L41.1334 41.5321L41.072 41.5724L41.0105 41.6089L40.9471 41.6415L40.8837 41.6703L40.8165 41.6991L40.7493 41.7241L40.6821 41.7452L40.6129 41.7625L40.5438 41.7778L40.4708 41.7874L40.4017 41.7951L40.3287 41.8028L40.2576 41.8047"
     class="st0"
     id="path258"
     style="fill:#999999" />
  <path
     d="M47.9923 39.929L47.9846 39.7658L47.9731 39.6026L47.9558 39.4375L47.9385 39.2743L47.9155 39.113L47.8886 38.9498L47.8598 38.7886L47.8271 38.6273L47.7906 38.466L47.7503 38.3086L47.7081 38.1493L47.662 37.9899L47.612 37.8363L47.5582 37.6789L47.5006 37.5253L47.443 37.3737L47.3796 37.2201L47.3124 37.0703L47.2452 36.9206L47.1722 36.7727L47.0954 36.6288L47.0185 36.4828L46.9359 36.3408L46.8495 36.1987L46.7631 36.0605L46.6728 35.9222L46.5787 35.7879L46.4827 35.6554L46.3828 35.5229L46.2829 35.3962L46.1773 35.2676L46.0697 35.1447L45.9602 35.0218L45.8469 34.9028L45.7336 34.7838L45.6145 34.6705L45.4954 34.5572L45.3744 34.4478L45.2496 34.3403L45.1228 34.2347L45.1151 34.2289L44.9346 34.3384L44.7752 34.4286L44.61 34.5188L44.5889 34.5304L44.6311 34.6091L44.6906 34.7262L44.7463 34.8452L44.7963 34.9662L44.8481 35.0871L44.8923 35.2081L44.9365 35.3329L44.9768 35.4596L45.0114 35.5844L45.046 35.7111L45.0748 35.8397L45.0998 35.9664L45.1228 36.097L45.142 36.2275L45.1574 36.3561L45.1708 36.4867L45.1785 36.6172L45.1843 36.7497V36.8803V37.0108L45.1785 37.1414L45.1708 37.2738L45.1574 37.4025L45.142 37.5349L45.1228 37.6635L45.0998 37.7922L45.0748 37.9227L45.046 38.0494L45.0114 38.1761L44.9768 38.3029L44.9365 38.4276L44.8923 38.5524L44.8481 38.6734L44.7963 38.7963L44.7463 38.9172L44.6906 39.0343L44.6311 39.1514L44.5677 39.2666L44.5024 39.3818L44.4352 39.4932L44.3641 39.6045L44.2892 39.712L44.2143 39.8176L44.1336 39.9232L44.0511 40.025L43.9665 40.1248L43.8782 40.2227L43.7879 40.3168L43.6957 40.4109L43.5997 40.4992L43.5037 40.5875L43.4038 40.6739L43.302 40.7545L43.1983 40.8351L43.0907 40.9119L42.9812 40.9849L42.8718 41.0559L42.7604 41.125L42.647 41.1903L42.5299 41.2517L42.4127 41.3113L42.2936 41.3669L42.1726 41.4188L42.0535 41.4687L41.9306 41.5148L41.8058 41.557L41.6809 41.5973L41.5561 41.6338L41.4274 41.6664L41.3006 41.6952L41.1719 41.7221L41.0433 41.7432L40.9126 41.7624L40.782 41.7797L40.6514 41.7912L40.5208 41.7989L40.3902 41.8066H40.2577H0V48H40.2577L40.4229 47.9981L40.5861 47.9942L40.7513 47.9846L40.9146 47.9712L41.0798 47.9578L41.243 47.9386L41.4063 47.9136L41.5676 47.8887L41.7289 47.8599L41.8903 47.8253L42.0497 47.7888L42.2091 47.7504L42.3666 47.7082L42.526 47.6602L42.6816 47.6122L42.8372 47.5565L42.9928 47.5008L43.1464 47.4413L43.2981 47.3799L43.448 47.3146L43.5978 47.2436L43.7437 47.1706L43.8916 47.0958L44.0338 47.017L44.1778 46.9364L44.318 46.8519L44.4563 46.7617L44.5946 46.6734L44.7291 46.5793L44.8616 46.4814L44.9941 46.3835L45.1228 46.2817L45.2496 46.1761L45.3744 46.0686L45.4954 45.9611L45.6145 45.8479L45.7336 45.7327L45.8469 45.6156L45.9602 45.4946L46.0697 45.3737L46.1773 45.2489L46.2829 45.1222L46.3828 44.9935L46.4827 44.863L46.5787 44.7286L46.6728 44.5942L46.7631 44.456L46.8495 44.3177L46.9359 44.1757L47.0185 44.0336L47.0954 43.8896L47.1722 43.7437L47.2452 43.5959L47.3124 43.448L47.3796 43.2964L47.443 43.1447L47.5006 42.993L47.5582 42.8375L47.612 42.682L47.662 42.5246L47.7081 42.3672L47.7503 42.2097L47.7906 42.0485L47.8271 41.8891L47.8598 41.7298L47.8886 41.5666L47.9155 41.4053L47.9385 41.2421L47.9558 41.079L47.9731 40.9158L47.9846 40.7507L47.9923 40.5875L48 40.4243V40.2592V40.0941L47.9923 39.929Z"
     fill="#3D95FD"
     id="path260"
     style="fill:#999999" />
  <path
     d="M0.00768277 8.06911L0.0153655 8.23422L0.0268897 8.39741L0.0441759 8.56251L0.0633828 8.7257L0.0845104 8.88697L0.1114 9.05016L0.14021 9.21142L0.172862 9.37269L0.209355 9.53204L0.24969 9.69138L0.291945 9.84881L0.338042 10.0082L0.3899 10.1637L0.441759 10.3192L0.49938 10.4747L0.557001 10.6263L0.620383 10.7799L0.687608 10.9297L0.756752 11.0794L0.827818 11.2253L0.904646 11.3713L0.983394 11.5172L1.06406 11.6592L1.15049 11.8013L1.23693 11.9376L1.3272 12.0758L1.42131 12.2121L1.51735 12.3446L1.61722 12.4771L1.71902 12.6038L1.82274 12.7324L1.93029 12.8553L2.03977 12.9782L2.1531 13.0972L2.26834 13.2143L2.3855 13.3295L2.50458 13.4428L2.62559 13.5522L2.75043 13.6597L2.87912 13.7634L2.88488 13.7691L3.06542 13.6616L3.22484 13.5714L3.39002 13.4792L3.41307 13.4696L3.36889 13.3909L3.31127 13.2738L3.25557 13.1548L3.20371 13.0338L3.15378 12.9129L3.10768 12.79L3.0635 12.6671L3.02509 12.5404L2.9886 12.4156L2.95594 12.2889L2.92521 12.1603L2.90024 12.0336L2.8772 11.903L2.85799 11.7725L2.84262 11.6439L2.8311 11.5133L2.8215 11.3828L2.81765 11.2503L2.81573 11.1198L2.81765 10.9892L2.8215 10.8567L2.8311 10.7243L2.84262 10.5956L2.85799 10.4651L2.8772 10.3365L2.90024 10.2059L2.92521 10.0773L2.95594 9.95056L2.9886 9.82385L3.02509 9.69714L3.0635 9.57235L3.10768 9.44756L3.15378 9.32469L3.20371 9.20374L3.25557 9.08279L3.31127 8.96376L3.36889 8.84857L3.43228 8.73146L3.49758 8.61819L3.5648 8.50492L3.63587 8.39549L3.71078 8.28798L3.78568 8.18239L3.86827 8.07679L3.94894 7.97504L4.03537 7.87521L4.1218 7.7773L4.21208 7.6813L4.30427 7.58915L4.4003 7.49892L4.49826 7.41253L4.59621 7.32613L4.69801 7.24358L4.80365 7.16487L4.90929 7.08615L5.01877 7.0132L5.12825 6.94216L5.24157 6.87305L5.35297 6.8097L5.47013 6.74826L5.58729 6.68875L5.70637 6.63307L5.82738 6.57931L5.94646 6.53132L6.07131 6.48524L6.19423 6.443L6.31908 6.40269L6.44584 6.36621L6.57261 6.33357L6.70129 6.30478L6.82806 6.2779L6.95866 6.25678L7.08927 6.23758L7.21796 6.2203L7.34857 6.20878L7.47917 6.19918L7.60978 6.19342H7.74231H48V0H7.74231H7.57713L7.41387 0.00575954L7.24869 0.0153588L7.08543 0.0287977L6.92025 0.0422366L6.75699 0.0614351L6.59565 0.0863931L6.4324 0.109431L6.27106 0.140149L6.10972 0.172786L5.9503 0.211183L5.79088 0.24958L5.63339 0.291817L5.47397 0.339813L5.31839 0.387809L5.16282 0.441565L5.00916 0.49724L4.85359 0.558675L4.70377 0.62011L4.55396 0.685385L4.40415 0.756419L4.25625 0.827454L4.11028 0.904248L3.96623 0.982961L3.8241 1.06359L3.68197 1.14807L3.54368 1.23638L3.40539 1.32661L3.27094 1.42069L3.13841 1.51668L3.00588 1.61651L2.87912 1.71826L2.75043 1.82385L2.62559 1.92945L2.50458 2.03888L2.3855 2.15215L2.26834 2.26734L2.1531 2.38445L2.03977 2.50348L1.93029 2.62635L1.82274 2.75114L1.71902 2.87785L1.61722 3.00648L1.51735 3.13703L1.42131 3.27142L1.3272 3.40581L1.23693 3.54212L1.15049 3.68227L1.06406 3.82241L0.983394 3.9664L0.904646 4.11039L0.827818 4.25438L0.756752 4.40413L0.687608 4.55196L0.620383 4.70362L0.557001 4.85529L0.49938 5.00696L0.441759 5.16055L0.3899 5.31797L0.338042 5.47348L0.291945 5.63091L0.24969 5.79026L0.209355 5.9496L0.172862 6.11087L0.14021 6.27022L0.1114 6.43149L0.0845104 6.59467L0.0633828 6.75786L0.0441759 6.92105L0.0268897 7.08423L0.0153655 7.24934L0.00768277 7.41253L0 7.57571V7.74082V7.90593L0.00768277 8.06911Z"
     fill="#0DC09D"
     id="path262"
     style="fill:#999999" />
</svg>
